<?xml version="1.0" encoding="utf-8"?>
<!-- Generator: Adobe Illustrator 16.0.3, SVG Export Plug-In . SVG Version: 6.00 Build 0)  -->
<!DOCTYPE svg PUBLIC "-//W3C//DTD SVG 1.1//EN" "http://www.w3.org/Graphics/SVG/1.1/DTD/svg11.dtd">
<svg version="1.1" id="圖層_1" xmlns="http://www.w3.org/2000/svg" xmlns:xlink="http://www.w3.org/1999/xlink" x="0px" y="0px"
	 width="1920px" height="373.551px" viewBox="0 96.5 1920 373.551" enable-background="new 0 96.5 1920 373.551"
	 xml:space="preserve">
<filter  height="140%" width="140%" y="-20%" x="-20%" id="Filter_2" color-interpolation-filters="sRGB">
	<feColorMatrix  type="matrix" result="result1" values="1 0 0 0 0 0 1 0 0 0 0 0 1 0 0 0 0 0 0.28 0" in="SourceGraphic">
		</feColorMatrix>
</filter>
<filter  height="140%" width="140%" y="-20%" x="-20%" id="Filter_1" color-interpolation-filters="sRGB">
	
		<feColorMatrix  type="matrix" result="result1" values="1 0 0 0 0 0 1 0 0 0 0 0 1 0 0 0 0 0 0.11200000000000002 0" in="SourceGraphic">
		</feColorMatrix>
</filter>
<g id="天" display="none">
	<g transform="matrix( 1, 0, 0, 1.110076904296875, 23.6,15.25) " display="inline">
		<g>
			<g id="___0_Layer0_0_FILL_1_">
				
					<linearGradient id="SVGID_1_" gradientUnits="userSpaceOnUse" x1="915.1981" y1="293.6694" x2="915.1981" y2="9.7526" gradientTransform="matrix(1 0 0 1.2323 23.5601 29.549)">
					<stop  offset="0" style="stop-color:#4DE1FF"/>
					<stop  offset="1" style="stop-color:#1C93FF"/>
				</linearGradient>
				<path fill="url(#SVGID_1_)" d="M1900.116-11.637L-22.6-13.738v422.102l1920.161-1.759L1900.116-11.637z"/>
			</g>
		</g>
	</g>
</g>
<g id="雲">
	<g transform="matrix( 1, 0, 0, 1, -31.25,80) ">
		<g transform="matrix( 2.8765106201171875, -0.011474609375, 0.011474609375, 2.8765106201171875, -621.85,80.25) ">
			<g transform="matrix( 1, 0, 0, 1, 0,0) ">
				<g filter="url(#Filter_1)">
					<g id="_________Group__0_Layer0_0_MEMBER_0_FILL_3_">
						<path fill="#FFFFFF" d="M498.624,108.794c0-6.821-2.357-15.113-7.089-20.009c-4.7-4.896-10.444-7.491-17.233-7.784
							c-1.012-4.536-3.117-8.502-6.315-11.896c-3.199-3.427-7.034-5.777-11.505-7.05c-2.937-6.299-7.327-11.342-13.169-15.127
							c-5.907-3.851-12.369-5.777-19.387-5.777c-5.255,0-10.264,1.093-15.03,3.28c-4.667,2.187-8.698,5.238-12.092,9.155
							c-3.231-1.338-6.527-2.007-9.889-2.007c-5.222,0-9.987,1.485-14.295,4.455c-4.177,2.872-7.229,6.658-9.155,11.358
							c-2.481-4.439-6.005-7.833-10.574-10.183c1.044-3.916,1.566-7.931,1.566-12.043c0-10.835-3.313-20.545-9.938-29.129
							c-6.658-8.584-15.225-14.246-25.702-16.988l-0.392-0.098c-2.219-0.588-4.798-1.012-7.735-1.273
							c-5.842-0.522-11.113-0.065-15.813,1.371l-0.098,0l-0.294,0.098l-0.049,0c-7.474,1.991-14.099,5.646-19.876,10.966
							c-5.712,5.222-9.889,11.456-12.533,18.701c-9.595,0.033-18.375,2.693-26.338,7.98c-3.386,2.248-6.389,4.81-9.008,7.686
							l0.281,63.609"/>
					</g>
				</g>
			</g>
		</g>
		<g transform="matrix( 1, 0, 0, 1, 0,0) ">
			<g filter="url(#Filter_2)">
				<g id="__________0_Layer0_0_MEMBER_1_FILL_2_">
					
						<linearGradient id="SVGID_2_" gradientUnits="userSpaceOnUse" x1="497.4727" y1="139.7374" x2="497.0267" y2="25.3249" gradientTransform="matrix(1 0 0 1 -86.1401 143.4385)">
						<stop  offset="0.0039" style="stop-color:#CBE9F7"/>
						<stop  offset="1" style="stop-color:#FFFFFF"/>
					</linearGradient>
					<path fill="url(#SVGID_2_)" d="M791.234,388.093c-0.064-13.87-5.042-32.718-14.932-42.542
						c-9.889-9.824-21.818-14.703-35.787-14.638c-6.593,0.032-12.842,1.256-18.75,3.672c0.751-3.558,1.108-7.066,1.077-10.526
						c-0.033-13.251-4.618-24.723-13.756-34.416c-9.172-9.628-20.333-14.851-33.486-15.667
						c-5.124-16.775-14.703-30.435-28.737-40.976c-14.393-10.869-30.598-16.253-48.614-16.156
						c-15.404,0.033-29.569,4.161-42.494,12.386c-12.631,7.963-22.309,18.571-29.03,31.822
						c-9.791-9.237-21.411-13.839-34.857-13.806c-13.871,0.065-25.718,5.042-35.542,14.931c-9.791,9.889-14.67,21.835-14.638,35.836
						c0.033,3.068,0.327,6.022,0.881,8.861c-6.005-1.371-12.206-2.04-18.603-2.007c-4.503,0-8.584,0.342-12.239,1.028
						c-0.163-13.251-4.766-24.641-13.805-34.171c-9.041-9.465-20.04-14.671-32.997-15.617c7.344-15.731,10.982-32.181,10.917-49.348
						c-0.099-26.371-8.323-49.854-24.673-70.447c-16.123-20.333-36.637-33.683-61.538-40.047c-1.502-1.044-5.026-1.844-10.575-2.399
						c-11.195-0.979-26.91-0.115-47.145,2.594c-17.56,2.317-34.661,12.207-51.307,29.667
						c-16.841,17.625-27.416,37.043-31.724,58.258c-5.354-0.816-10.803-1.224-16.352-1.224c-26.665,0.13-50.376,8.534-71.133,25.212
						c-10.263,8.227-18.716,17.593-25.359,28.101L32.25,388.567"/>
				</g>
			</g>
		</g>
		<g transform="matrix( -3.0713348388671875, 0.3758392333984375, 0.3758392333984375, 3.0713348388671875, 2674.9,-84.2) ">
			<g transform="matrix( 1, 0, 0, 1, 0,0) ">
				<g filter="url(#Filter_1)">
					<g id="_________Group__0_Layer0_0_MEMBER_0_FILL_3_">
						<path fill="#FFFFFF" d="M505.412,90.747c-4.7-4.896-10.797-10.377-17.586-10.671c-1.012-4.537-3.117-8.502-6.315-11.896
							c-3.199-3.427-7.034-5.777-11.505-7.05c-2.938-6.299-7.327-11.341-13.17-15.127c-5.907-3.851-12.369-5.777-19.386-5.777
							c-5.254,0-10.264,1.093-15.03,3.28c-4.667,2.186-8.698,5.238-12.092,9.155c-3.231-1.338-6.528-2.007-9.889-2.007
							c-5.222,0-9.987,1.485-14.295,4.455c-4.178,2.872-7.229,6.658-9.155,11.358c-2.48-4.439-6.005-7.833-10.574-10.183
							c1.044-3.916,1.566-7.931,1.566-12.043c0-10.836-3.313-20.545-9.938-29.129c-6.658-8.584-15.225-14.246-25.702-16.988
							l-0.391-0.098c-2.219-0.587-4.798-1.012-7.735-1.273c-5.842-0.522-11.113-0.065-15.813,1.371l-0.098,0l-0.294,0.098l-0.049,0
							c-7.474,1.991-14.099,5.646-19.876,10.966c-5.712,5.222-9.889,11.456-12.533,18.701c-9.595,0.033-18.375,2.693-26.338,7.98
							c-3.386,2.248-6.389,4.81-9.008,7.686l10.04,79.116"/>
					</g>
				</g>
			</g>
		</g>
		<g transform="matrix( 1, 0, 0, 1, 0,40.25) ">
			<g filter="url(#Filter_2)">
				<g id="__________0_Layer0_1_MEMBER_1_FILL_2_">
					
						<linearGradient id="SVGID_3_" gradientUnits="userSpaceOnUse" x1="1652.6263" y1="118.5636" x2="1635.5762" y2="-20.8033" gradientTransform="matrix(1 0 0 1 -86.1401 143.4385)">
						<stop  offset="0.0039" style="stop-color:#CBE9F7"/>
						<stop  offset="1" style="stop-color:#FFFFFF"/>
					</linearGradient>
					<path fill="url(#SVGID_3_)" d="M1952.411,346.363l-1.456-214.318c-8.264-9.687-18.138-18.042-29.616-25.066
						c-24.413-15.013-50.85-20.773-79.311-17.281c-5.907,0.718-11.669,1.877-17.28,3.476c-7.507-22.063-21.429-41.384-41.762-57.964
						c-20.104-16.352-39.687-24.56-58.746-24.625c-21.965-0.163-38.854,1.028-50.671,3.574c-5.842,1.338-9.497,2.66-10.966,3.965
						c-25.719,10.118-45.806,27.122-60.266,51.013c-14.62,24.184-20.219,50.359-16.791,78.525
						c2.253,18.342,8.354,35.396,18.31,51.159c-13.707,2.774-24.739,9.824-33.094,21.149c-8.388,11.391-11.766,24.152-10.134,38.284
						c-3.982-0.229-8.39-0.048-13.219,0.539c-6.789,0.849-13.315,2.432-19.582,4.749c0.228-3.133,0.146-6.348-0.245-9.645
						c-1.827-14.948-8.649-27.023-20.464-36.228c-11.814-9.269-25.133-12.99-39.948-11.162c-14.328,1.763-26.11,8.24-35.348,19.436
						c-8.94-13.25-20.707-23.254-35.298-30.01c-14.85-7.05-30.498-9.563-46.947-7.54c-19.257,2.35-35.853,10.281-49.789,23.793
						c-13.512,13.185-21.884,29.063-25.115,47.634c-13.937,2.643-25.13,9.709-33.583,21.198
						c-8.451,11.652-11.814,24.543-10.084,38.675c0.457,3.688,1.319,7.392,2.595,11.112c-6.659-1.859-13.495-2.35-20.513-1.469
						c-14.949,1.828-27.024,8.65-36.229,20.464"/>
				</g>
			</g>
		</g>
	</g>
</g>
<g id="路" display="none">
	<g transform="matrix( 0.960357666015625, 0, 0, 0.03863525390625, 67.9,445.75) " display="inline">
		<g>
			<g id="___0_Layer0_2_MEMBER_0_FILL">
				<path fill="#999999" d="M1928.571,703.275l-0.049-667.024H-67.927c-0.099,0.202-0.195,0.404-0.295,0.556l0.051,666.469H1928.571
					z"/>
			</g>
		</g>
	</g>
</g>
<g id="草" display="none">
	<g transform="matrix( 1, 0, 0, 1, -23.6,-13.75) " display="inline">
		<g transform="matrix( 1, 0, 0, 0.9037322998046875, 23.6,112.85) ">
			<g>
				<g id="___0_Layer0_3_FILL">
					<path fill="#85DE67" d="M1923.933,996.933V405.546H1.769l0.049,591.389h1922.115V996.933z"/>
				</g>
			</g>
		</g>
		<g transform="matrix( 1, 0, 0, 0.8868408203125, 23.6,120.55) ">
			<g>
				<g id="___0_Layer0_4_FILL">
					<path fill="#33CC00" d="M1923.982,1007.172V412.708H0.049L0,1007.172H1923.982z"/>
				</g>
			</g>
		</g>
		<g transform="matrix( 1, 0, 0, 1.0869293212890625, 21.85,-27.65) ">
			<g>
				<g id="___0_Layer0_5_FILL">
					<path fill="#8FD646" d="M1824.154,578.473c-3.063-25.527-15.317-47.243-36.758-65.146
						c-21.229-17.74-45.406-26.594-72.535-26.567H217.536c-27.161-0.027-51.39,8.826-72.684,26.567
						c-21.375,17.903-33.595,39.619-36.66,65.146l-28.649,237.9c-0.38,2.906-0.609,5.773-0.688,8.6
						c-0.989,23.9,6.513,44.654,22.506,62.261c18.085,19.828,41.542,29.742,70.373,29.738h1588.927
						c28.798,0.004,52.205-9.91,70.226-29.738c16.061-17.575,23.613-38.328,22.654-62.261c-0.11-2.827-0.342-5.694-0.688-8.6
						L1824.154,578.473z"/>
				</g>
			</g>
		</g>
		<g transform="matrix( 1, 0, 0, 1, 1146.45,536.9) ">
			<g transform="matrix( 0.586090087890625, 0, 0, 0.40118408203125, -439.4,-200.75) ">
				<g transform="matrix( 1.706207275390625, 0, 0, 2.49261474609375, 749.7,500.35) ">
					<path id="_________1_0_Layer0_0_1_STROKES" fill="none" stroke="#33CC00" stroke-width="10" stroke-linecap="round" d="
						M752.518,500.24l8.01,16.621"/>
				</g>
			</g>
			<g transform="matrix( 0.586090087890625, 0, 0, 0.40118408203125, -436.05,-196.7) ">
				<g transform="matrix( 1.706207275390625, 0, 0, 2.49261474609375, 743.95,490.25) ">
					<path id="_________1_0_Layer0_1_1_STROKES" fill="none" stroke="#33CC00" stroke-width="10" stroke-linecap="round" d="
						M788.653,484.038v21.613"/>
				</g>
			</g>
			<g transform="matrix( 0.586090087890625, 0, 0, 0.40118408203125, -436.05,-198.85) ">
				<g transform="matrix( 1.706207275390625, 0, 0, 2.49261474609375, 743.95,495.65) ">
					<path id="_________1_0_Layer0_2_1_STROKES" fill="none" stroke="#33CC00" stroke-width="10" stroke-linecap="round" d="
						M826.788,501.678l-5.553,12.774"/>
				</g>
			</g>
		</g>
		<g transform="matrix( 1, 0, 0, 1, 746,578.95) ">
			<g transform="matrix( 0.586090087890625, 0, 0, 0.40118408203125, -439.4,-200.75) ">
				<g transform="matrix( 1.706207275390625, 0, 0, 2.49261474609375, 749.7,500.35) ">
					<path id="_________1_0_Layer0_0_1_STROKES_1_" fill="none" stroke="#33CC00" stroke-width="10" stroke-linecap="round" d="
						M764.235,496.138l8.01,16.618"/>
				</g>
			</g>
			<g transform="matrix( 0.586090087890625, 0, 0, 0.40118408203125, -436.05,-196.7) ">
				<g transform="matrix( 1.706207275390625, 0, 0, 2.49261474609375, 743.95,490.25) ">
					<path id="_________1_0_Layer0_1_1_STROKES_1_" fill="none" stroke="#33CC00" stroke-width="10" stroke-linecap="round" d="
						M800.371,479.928v21.618"/>
				</g>
			</g>
			<g transform="matrix( 0.586090087890625, 0, 0, 0.40118408203125, -436.05,-198.85) ">
				<g transform="matrix( 1.706207275390625, 0, 0, 2.49261474609375, 743.95,495.65) ">
					<path id="_________1_0_Layer0_2_1_STROKES_1_" fill="none" stroke="#33CC00" stroke-width="10" stroke-linecap="round" d="
						M838.505,497.57l-5.555,12.78"/>
				</g>
			</g>
		</g>
		<g transform="matrix( 1, 0, 0, 1, 301,749.9) ">
			<g transform="matrix( 0.586090087890625, 0, 0, 0.40118408203125, -439.4,-200.75) ">
				<g transform="matrix( 1.706207275390625, 0, 0, 2.49261474609375, 749.7,500.35) ">
					<path id="_________1_0_Layer0_0_1_STROKES_2_" fill="none" stroke="#33CC00" stroke-width="10" stroke-linecap="round" d="
						M777.254,479.441l8.011,16.621"/>
				</g>
			</g>
			<g transform="matrix( 0.586090087890625, 0, 0, 0.40118408203125, -436.05,-196.7) ">
				<g transform="matrix( 1.706207275390625, 0, 0, 2.49261474609375, 743.95,490.25) ">
					<path id="_________1_0_Layer0_1_1_STROKES_2_" fill="none" stroke="#33CC00" stroke-width="10" stroke-linecap="round" d="
						M813.391,463.236v21.616"/>
				</g>
			</g>
			<g transform="matrix( 0.586090087890625, 0, 0, 0.40118408203125, -436.05,-198.85) ">
				<g transform="matrix( 1.706207275390625, 0, 0, 2.49261474609375, 743.95,495.65) ">
					<path id="_________1_0_Layer0_2_1_STROKES_2_" fill="none" stroke="#33CC00" stroke-width="10" stroke-linecap="round" d="
						M851.525,480.878l-5.554,12.775"/>
				</g>
			</g>
		</g>
		<g transform="matrix( 1, 0, 0, 1, 479.85,935.4) ">
			<g transform="matrix( 0.586090087890625, 0, 0, 0.40118408203125, -439.4,-200.75) ">
				<g transform="matrix( 1.706207275390625, 0, 0, 2.49261474609375, 749.7,500.35) ">
					<path id="_________1_0_Layer0_0_1_STROKES_3_" fill="none" stroke="#33CC00" stroke-width="10" stroke-linecap="round" d="
						M772.021,461.326l8.011,16.623"/>
				</g>
			</g>
			<g transform="matrix( 0.586090087890625, 0, 0, 0.40118408203125, -436.05,-196.7) ">
				<g transform="matrix( 1.706207275390625, 0, 0, 2.49261474609375, 743.95,490.25) ">
					<path id="_________1_0_Layer0_1_1_STROKES_3_" fill="none" stroke="#33CC00" stroke-width="10" stroke-linecap="round" d="
						M808.157,445.121v21.62"/>
				</g>
			</g>
			<g transform="matrix( 0.586090087890625, 0, 0, 0.40118408203125, -436.05,-198.85) ">
				<g transform="matrix( 1.706207275390625, 0, 0, 2.49261474609375, 743.95,495.65) ">
					<path id="_________1_0_Layer0_2_1_STROKES_3_" fill="none" stroke="#33CC00" stroke-width="10" stroke-linecap="round" d="
						M846.291,462.761l-5.554,12.779"/>
				</g>
			</g>
		</g>
		<g transform="matrix( 1, 0, 0, 1, 1581.6,805.7) ">
			<g transform="matrix( 0.586090087890625, 0, 0, 0.40118408203125, -439.4,-200.75) ">
				<g transform="matrix( 1.706207275390625, 0, 0, 2.49261474609375, 749.7,500.35) ">
					<path id="_________1_0_Layer0_0_1_STROKES_4_" fill="none" stroke="#33CC00" stroke-width="10" stroke-linecap="round" d="
						M739.786,473.992l8.011,16.623"/>
				</g>
			</g>
			<g transform="matrix( 0.586090087890625, 0, 0, 0.40118408203125, -436.05,-196.7) ">
				<g transform="matrix( 1.706207275390625, 0, 0, 2.49261474609375, 743.95,490.25) ">
					<path id="_________1_0_Layer0_1_1_STROKES_4_" fill="none" stroke="#33CC00" stroke-width="10" stroke-linecap="round" d="
						M775.92,457.787v21.618"/>
				</g>
			</g>
			<g transform="matrix( 0.586090087890625, 0, 0, 0.40118408203125, -436.05,-198.85) ">
				<g transform="matrix( 1.706207275390625, 0, 0, 2.49261474609375, 743.95,495.65) ">
					<path id="_________1_0_Layer0_2_1_STROKES_4_" fill="none" stroke="#33CC00" stroke-width="10" stroke-linecap="round" d="
						M814.056,475.428l-5.553,12.777"/>
				</g>
			</g>
		</g>
		<g transform="matrix( 1, 0, 0, 1, 1736.55,686) ">
			<g transform="matrix( 0.586090087890625, 0, 0, 0.40118408203125, -439.4,-200.75) ">
				<g transform="matrix( 1.706207275390625, 0, 0, 2.49261474609375, 749.7,500.35) ">
					<path id="_________1_0_Layer0_0_1_STROKES_5_" fill="none" stroke="#33CC00" stroke-width="10" stroke-linecap="round" d="
						M735.252,485.682l8.011,16.621"/>
				</g>
			</g>
			<g transform="matrix( 0.586090087890625, 0, 0, 0.40118408203125, -436.05,-196.7) ">
				<g transform="matrix( 1.706207275390625, 0, 0, 2.49261474609375, 743.95,490.25) ">
					<path id="_________1_0_Layer0_1_1_STROKES_5_" fill="none" stroke="#33CC00" stroke-width="10" stroke-linecap="round" d="
						M771.389,469.474v21.618"/>
				</g>
			</g>
			<g transform="matrix( 0.586090087890625, 0, 0, 0.40118408203125, -436.05,-198.85) ">
				<g transform="matrix( 1.706207275390625, 0, 0, 2.49261474609375, 743.95,495.65) ">
					<path id="_________1_0_Layer0_2_1_STROKES_5_" fill="none" stroke="#33CC00" stroke-width="10" stroke-linecap="round" d="
						M809.522,487.115l-5.554,12.781"/>
				</g>
			</g>
		</g>
		<g transform="matrix( 1, 0, 0, 1, 1546.45,589.4) ">
			<g transform="matrix( 0.586090087890625, 0, 0, 0.40118408203125, -439.4,-200.75) ">
				<g transform="matrix( 1.706207275390625, 0, 0, 2.49261474609375, 749.7,500.35) ">
					<path id="_________1_0_Layer0_0_1_STROKES_6_" fill="none" stroke="#33CC00" stroke-width="10" stroke-linecap="round" d="
						M740.815,495.114l8.011,16.621"/>
				</g>
			</g>
			<g transform="matrix( 0.586090087890625, 0, 0, 0.40118408203125, -436.05,-196.7) ">
				<g transform="matrix( 1.706207275390625, 0, 0, 2.49261474609375, 743.95,490.25) ">
					<path id="_________1_0_Layer0_1_1_STROKES_6_" fill="none" stroke="#33CC00" stroke-width="10" stroke-linecap="round" d="
						M776.95,478.909v21.618"/>
				</g>
			</g>
			<g transform="matrix( 0.586090087890625, 0, 0, 0.40118408203125, -436.05,-198.85) ">
				<g transform="matrix( 1.706207275390625, 0, 0, 2.49261474609375, 743.95,495.65) ">
					<path id="_________1_0_Layer0_2_1_STROKES_6_" fill="none" stroke="#33CC00" stroke-width="10" stroke-linecap="round" d="
						M815.083,496.551l-5.551,12.774"/>
				</g>
			</g>
		</g>
		<g transform="matrix( 1, 0, 0, 1, 1736.55,945.85) ">
			<g transform="matrix( 0.586090087890625, 0, 0, 0.40118408203125, -439.4,-200.75) ">
				<g transform="matrix( 1.706207275390625, 0, 0, 2.49261474609375, 749.7,500.35) ">
					<path id="_________1_0_Layer0_0_1_STROKES_7_" fill="none" stroke="#33CC00" stroke-width="10" stroke-linecap="round" d="
						M735.252,460.307l8.011,16.621"/>
				</g>
			</g>
			<g transform="matrix( 0.586090087890625, 0, 0, 0.40118408203125, -436.05,-196.7) ">
				<g transform="matrix( 1.706207275390625, 0, 0, 2.49261474609375, 743.95,490.25) ">
					<path id="_________1_0_Layer0_1_1_STROKES_7_" fill="none" stroke="#33CC00" stroke-width="10" stroke-linecap="round" d="
						M771.389,444.102v21.618"/>
				</g>
			</g>
			<g transform="matrix( 0.586090087890625, 0, 0, 0.40118408203125, -436.05,-198.85) ">
				<g transform="matrix( 1.706207275390625, 0, 0, 2.49261474609375, 743.95,495.65) ">
					<path id="_________1_0_Layer0_2_1_STROKES_7_" fill="none" stroke="#33CC00" stroke-width="10" stroke-linecap="round" d="
						M809.522,461.739l-5.554,12.782"/>
				</g>
			</g>
		</g>
		<g transform="matrix( 1, 0, 0, 1, 161.45,918.3) ">
			<g transform="matrix( 0.586090087890625, 0, 0, 0.40118408203125, -439.4,-200.75) ">
				<g transform="matrix( 1.706207275390625, 0, 0, 2.49261474609375, 749.7,500.35) ">
					<path id="_________1_0_Layer0_0_1_STROKES_8_" fill="none" stroke="#33CC00" stroke-width="10" stroke-linecap="round" d="
						M781.338,462.997l8.011,16.621"/>
				</g>
			</g>
			<g transform="matrix( 0.586090087890625, 0, 0, 0.40118408203125, -436.05,-196.7) ">
				<g transform="matrix( 1.706207275390625, 0, 0, 2.49261474609375, 743.95,490.25) ">
					<path id="_________1_0_Layer0_1_1_STROKES_8_" fill="none" stroke="#33CC00" stroke-width="10" stroke-linecap="round" d="
						M817.474,446.792v21.618"/>
				</g>
			</g>
			<g transform="matrix( 0.586090087890625, 0, 0, 0.40118408203125, -436.05,-198.85) ">
				<g transform="matrix( 1.706207275390625, 0, 0, 2.49261474609375, 743.95,495.65) ">
					<path id="_________1_0_Layer0_2_1_STROKES_8_" fill="none" stroke="#33CC00" stroke-width="10" stroke-linecap="round" d="
						M855.609,464.434l-5.554,12.777"/>
				</g>
			</g>
		</g>
		<g transform="matrix( 1, 0, 0, 1, 213.2,578.95) ">
			<g transform="matrix( 0.586090087890625, 0, 0, 0.40118408203125, -439.4,-200.75) ">
				<g transform="matrix( 1.706207275390625, 0, 0, 2.49261474609375, 749.7,500.35) ">
					<path id="_________1_0_Layer0_0_1_STROKES_9_" fill="none" stroke="#33CC00" stroke-width="10" stroke-linecap="round" d="
						M779.824,496.138l8.01,16.618"/>
				</g>
			</g>
			<g transform="matrix( 0.586090087890625, 0, 0, 0.40118408203125, -436.05,-196.7) ">
				<g transform="matrix( 1.706207275390625, 0, 0, 2.49261474609375, 743.95,490.25) ">
					<path id="_________1_0_Layer0_1_1_STROKES_9_" fill="none" stroke="#33CC00" stroke-width="10" stroke-linecap="round" d="
						M815.961,479.928v21.618"/>
				</g>
			</g>
			<g transform="matrix( 0.586090087890625, 0, 0, 0.40118408203125, -436.05,-198.85) ">
				<g transform="matrix( 1.706207275390625, 0, 0, 2.49261474609375, 743.95,495.65) ">
					<path id="_________1_0_Layer0_2_1_STROKES_9_" fill="none" stroke="#33CC00" stroke-width="10" stroke-linecap="round" d="
						M854.095,497.57l-5.554,12.78"/>
				</g>
			</g>
		</g>
		<g transform="matrix( 1, 0, 0, 1, 949.85,749.9) ">
			<g transform="matrix( 0.586090087890625, 0, 0, 0.40118408203125, -439.4,-200.75) ">
				<g transform="matrix( 1.706207275390625, 0, 0, 2.49261474609375, 749.7,500.35) ">
					<path id="_________1_0_Layer0_0_1_STROKES_10_" fill="none" stroke="#33CC00" stroke-width="10" stroke-linecap="round" d="
						M758.272,479.441l8.01,16.621"/>
				</g>
			</g>
			<g transform="matrix( 0.586090087890625, 0, 0, 0.40118408203125, -436.05,-196.7) ">
				<g transform="matrix( 1.706207275390625, 0, 0, 2.49261474609375, 743.95,490.25) ">
					<path id="_________1_0_Layer0_1_1_STROKES_10_" fill="none" stroke="#33CC00" stroke-width="10" stroke-linecap="round" d="
						M794.405,463.236v21.616"/>
				</g>
			</g>
			<g transform="matrix( 0.586090087890625, 0, 0, 0.40118408203125, -436.05,-198.85) ">
				<g transform="matrix( 1.706207275390625, 0, 0, 2.49261474609375, 743.95,495.65) ">
					<path id="_________1_0_Layer0_2_1_STROKES_10_" fill="none" stroke="#33CC00" stroke-width="10" stroke-linecap="round" d="
						M832.539,480.878l-5.552,12.775"/>
				</g>
			</g>
		</g>
		<g transform="matrix( 1, 0, 0, 1, 1098.7,948.8) ">
			<g transform="matrix( 0.586090087890625, 0, 0, 0.40118408203125, -439.4,-200.75) ">
				<g transform="matrix( 1.706207275390625, 0, 0, 2.49261474609375, 749.7,500.35) ">
					<path id="_________1_0_Layer0_0_1_STROKES_11_" fill="none" stroke="#33CC00" stroke-width="10" stroke-linecap="round" d="
						M753.916,460.02l8.01,16.623"/>
				</g>
			</g>
			<g transform="matrix( 0.586090087890625, 0, 0, 0.40118408203125, -436.05,-196.7) ">
				<g transform="matrix( 1.706207275390625, 0, 0, 2.49261474609375, 743.95,490.25) ">
					<path id="_________1_0_Layer0_1_1_STROKES_11_" fill="none" stroke="#33CC00" stroke-width="10" stroke-linecap="round" d="
						M790.05,443.812v21.621"/>
				</g>
			</g>
			<g transform="matrix( 0.586090087890625, 0, 0, 0.40118408203125, -436.05,-198.85) ">
				<g transform="matrix( 1.706207275390625, 0, 0, 2.49261474609375, 743.95,495.65) ">
					<path id="_________1_0_Layer0_2_1_STROKES_11_" fill="none" stroke="#33CC00" stroke-width="10" stroke-linecap="round" d="
						M828.185,461.452l-5.552,12.78"/>
				</g>
			</g>
		</g>
		<g transform="matrix( 1, 0, 0, 1, 479.85,616.95) ">
			<g transform="matrix( 1, 0, 0, 1, -521.2,-474) ">
				<g>
					<path id="_________2_0_Layer0_0_1_STROKES" fill="none" stroke="#33CC00" stroke-width="10" stroke-linecap="round" d="
						M534.262,477.996l1.818,4.18"/>
				</g>
			</g>
			<g transform="matrix( 1, 0, 0, 1, -521.2,-474) ">
				<g>
					<path id="_________2_0_Layer0_1_1_STROKES" fill="none" stroke="#33CC00" stroke-width="10" stroke-linecap="round" d="
						M552.691,468.389v7.494"/>
				</g>
			</g>
			<g transform="matrix( 1, 0, 0, 1, -521.2,-474) ">
				<g>
					<path id="_________2_0_Layer0_2_1_STROKES" fill="none" stroke="#33CC00" stroke-width="10" stroke-linecap="round" d="
						M567.777,475.594l1.229,6.006"/>
				</g>
			</g>
			<g transform="matrix( 1, 0, 0, 1, -521.2,-474) ">
				<g>
					<path id="_________2_0_Layer0_3_1_STROKES" fill="none" stroke="#33CC00" stroke-width="10" stroke-linecap="round" d="
						M593.577,478.284l-4.914,4.517"/>
				</g>
			</g>
		</g>
		<g transform="matrix( 1, 0, 0, 1, 1277.05,642) ">
			<g transform="matrix( 1, 0, 0, 1, -521.2,-474) ">
				<g>
					<path id="_________2_0_Layer0_0_1_STROKES_1_" fill="none" stroke="#33CC00" stroke-width="10" stroke-linecap="round" d="
						M520.591,477.015l1.817,4.181"/>
				</g>
			</g>
			<g transform="matrix( 1, 0, 0, 1, -521.2,-474) ">
				<g>
					<path id="_________2_0_Layer0_1_1_STROKES_1_" fill="none" stroke="#33CC00" stroke-width="10" stroke-linecap="round" d="
						M539.019,467.407v7.494"/>
				</g>
			</g>
			<g transform="matrix( 1, 0, 0, 1, -521.2,-474) ">
				<g>
					<path id="_________2_0_Layer0_2_1_STROKES_1_" fill="none" stroke="#33CC00" stroke-width="10" stroke-linecap="round" d="
						M554.107,474.613l1.229,6.005"/>
				</g>
			</g>
			<g transform="matrix( 1, 0, 0, 1, -521.2,-474) ">
				<g>
					<path id="_________2_0_Layer0_3_1_STROKES_1_" fill="none" stroke="#33CC00" stroke-width="10" stroke-linecap="round" d="
						M579.907,477.303l-4.914,4.518"/>
				</g>
			</g>
		</g>
		<g transform="matrix( 1, 0, 0, 1, 1245.6,839.05) ">
			<g transform="matrix( 1, 0, 0, 1, -521.2,-474) ">
				<g>
					<path id="_________2_0_Layer0_0_1_STROKES_2_" fill="none" stroke="#33CC00" stroke-width="10" stroke-linecap="round" d="
						M521.131,469.296l1.817,4.182"/>
				</g>
			</g>
			<g transform="matrix( 1, 0, 0, 1, -521.2,-474) ">
				<g>
					<path id="_________2_0_Layer0_1_1_STROKES_2_" fill="none" stroke="#33CC00" stroke-width="10" stroke-linecap="round" d="
						M539.56,459.687v7.494"/>
				</g>
			</g>
			<g transform="matrix( 1, 0, 0, 1, -521.2,-474) ">
				<g>
					<path id="_________2_0_Layer0_2_1_STROKES_2_" fill="none" stroke="#33CC00" stroke-width="10" stroke-linecap="round" d="
						M554.646,466.893l1.229,6.006"/>
				</g>
			</g>
			<g transform="matrix( 1, 0, 0, 1, -521.2,-474) ">
				<g>
					<path id="_________2_0_Layer0_3_1_STROKES_2_" fill="none" stroke="#33CC00" stroke-width="10" stroke-linecap="round" d="
						M580.446,469.584l-4.913,4.517"/>
				</g>
			</g>
		</g>
		<g transform="matrix( 1, 0, 0, 1, 710.8,839.05) ">
			<g transform="matrix( 1, 0, 0, 1, -521.2,-474) ">
				<g>
					<path id="_________2_0_Layer0_0_1_STROKES_3_" fill="none" stroke="#33CC00" stroke-width="10" stroke-linecap="round" d="
						M530.301,469.296l1.818,4.182"/>
				</g>
			</g>
			<g transform="matrix( 1, 0, 0, 1, -521.2,-474) ">
				<g>
					<path id="_________2_0_Layer0_1_1_STROKES_3_" fill="none" stroke="#33CC00" stroke-width="10" stroke-linecap="round" d="
						M548.729,459.687v7.494"/>
				</g>
			</g>
			<g transform="matrix( 1, 0, 0, 1, -521.2,-474) ">
				<g>
					<path id="_________2_0_Layer0_2_1_STROKES_3_" fill="none" stroke="#33CC00" stroke-width="10" stroke-linecap="round" d="
						M563.817,466.893l1.229,6.006"/>
				</g>
			</g>
			<g transform="matrix( 1, 0, 0, 1, -521.2,-474) ">
				<g>
					<path id="_________2_0_Layer0_3_1_STROKES_3_" fill="none" stroke="#33CC00" stroke-width="10" stroke-linecap="round" d="
						M589.617,469.584l-4.914,4.517"/>
				</g>
			</g>
		</g>
		<g transform="matrix( 1, 0, 0, 1, 60.6,526.45) ">
			<g transform="matrix( 0.586090087890625, 0, 0, 0.40118408203125, -439.4,-200.75) ">
				<g transform="matrix( 1.706207275390625, 0, 0, 2.49261474609375, 749.7,500.35) ">
					
						<path id="_________3_0_Layer0_0_MEMBER_0_1_STROKES" fill="none" stroke="#8FD646" stroke-width="10" stroke-linecap="round" d="
						M784.289,501.262l8.01,16.623"/>
				</g>
			</g>
			<g transform="matrix( 0.586090087890625, 0, 0, 0.40118408203125, -436.05,-196.7) ">
				<g transform="matrix( 1.706207275390625, 0, 0, 2.49261474609375, 743.95,490.25) ">
					
						<path id="_________3_0_Layer0_0_MEMBER_1_1_STROKES" fill="none" stroke="#8FD646" stroke-width="10" stroke-linecap="round" d="
						M820.423,485.054v21.618"/>
				</g>
			</g>
			<g transform="matrix( 0.586090087890625, 0, 0, 0.40118408203125, -436.05,-198.85) ">
				<g transform="matrix( 1.706207275390625, 0, 0, 2.49261474609375, 743.95,495.65) ">
					
						<path id="_________3_0_Layer0_0_MEMBER_2_1_STROKES" fill="none" stroke="#8FD646" stroke-width="10" stroke-linecap="round" d="
						M858.559,502.694l-5.554,12.78"/>
				</g>
			</g>
		</g>
		<g transform="matrix( 1, 0, 0, 1, 1865.3,526.45) ">
			<g transform="matrix( 0.586090087890625, 0, 0, 0.40118408203125, -439.4,-200.75) ">
				<g transform="matrix( 1.706207275390625, 0, 0, 2.49261474609375, 749.7,500.35) ">
					
						<path id="_________3_0_Layer0_0_MEMBER_0_1_STROKES_1_" fill="none" stroke="#8FD646" stroke-width="10" stroke-linecap="round" d="
						M731.485,501.262l8.011,16.623"/>
				</g>
			</g>
			<g transform="matrix( 0.586090087890625, 0, 0, 0.40118408203125, -436.05,-196.7) ">
				<g transform="matrix( 1.706207275390625, 0, 0, 2.49261474609375, 743.95,490.25) ">
					
						<path id="_________3_0_Layer0_0_MEMBER_1_1_STROKES_1_" fill="none" stroke="#8FD646" stroke-width="10" stroke-linecap="round" d="
						M767.623,485.054v21.618"/>
				</g>
			</g>
			<g transform="matrix( 0.586090087890625, 0, 0, 0.40118408203125, -436.05,-198.85) ">
				<g transform="matrix( 1.706207275390625, 0, 0, 2.49261474609375, 743.95,495.65) ">
					
						<path id="_________3_0_Layer0_0_MEMBER_2_1_STROKES_1_" fill="none" stroke="#8FD646" stroke-width="10" stroke-linecap="round" d="
						M805.756,502.694l-5.555,12.78"/>
				</g>
			</g>
		</g>
	</g>
</g>
</svg>
