<?xml version="1.0" encoding="utf-8"?>
<!-- Generator: Adobe Illustrator 16.0.3, SVG Export Plug-In . SVG Version: 6.00 Build 0)  -->
<!DOCTYPE svg PUBLIC "-//W3C//DTD SVG 1.1//EN" "http://www.w3.org/Graphics/SVG/1.1/DTD/svg11.dtd">
<svg version="1.1" id="圖層_1" xmlns="http://www.w3.org/2000/svg" xmlns:xlink="http://www.w3.org/1999/xlink" x="0px" y="0px"
	 width="1920px" height="545.515px" viewBox="0 137.052 1920 545.515" enable-background="new 0 137.052 1920 545.515"
	 xml:space="preserve">
<filter  height="140%" width="140%" y="-20%" x="-20%" id="Filter_2" color-interpolation-filters="sRGB">
	<feColorMatrix  type="matrix" result="result1" values="1 0 0 0 0 0 1 0 0 0 0 0 1 0 0 0 0 0 0.28 0" in="SourceGraphic">
		</feColorMatrix>
</filter>
<filter  height="140%" width="140%" y="-20%" x="-20%" id="Filter_1" color-interpolation-filters="sRGB">
	
		<feColorMatrix  type="matrix" result="result1" values="1 0 0 0 0 0 1 0 0 0 0 0 1 0 0 0 0 0 0.11200000000000002 0" in="SourceGraphic">
		</feColorMatrix>
</filter>
<g id="天" display="none">
	<g transform="matrix( 1, 0, 0, 1.110076904296875, 23.6,15.25) " display="inline">
		<g>
			<g id="___0_Layer0_0_FILL_1_">
				
					<linearGradient id="SVGID_1_" gradientUnits="userSpaceOnUse" x1="915.1981" y1="293.6694" x2="915.1981" y2="9.7526" gradientTransform="matrix(1 0 0 1.2323 23.5601 29.549)">
					<stop  offset="0" style="stop-color:#4DE1FF"/>
					<stop  offset="1" style="stop-color:#1C93FF"/>
				</linearGradient>
				<path fill="url(#SVGID_1_)" d="M1900.116-11.637L-22.6-13.738v422.102l1920.161-1.759L1900.116-11.637z"/>
			</g>
		</g>
	</g>
</g>
<g id="雲" display="none">
	<g transform="matrix( 1, 0, 0, 1, -31.25,80) " display="inline">
		<g transform="matrix( 2.8765106201171875, -0.011474609375, 0.011474609375, 2.8765106201171875, -621.85,80.25) ">
			<g transform="matrix( 1, 0, 0, 1, 0,0) ">
				<g filter="url(#Filter_1)">
					<g id="_________Group__0_Layer0_0_MEMBER_0_FILL_3_">
						<path fill="#FFFFFF" d="M498.624,108.794c0-6.821-2.357-15.113-7.089-20.009c-4.7-4.896-10.444-7.491-17.233-7.784
							c-1.012-4.536-3.117-8.502-6.315-11.896c-3.199-3.427-7.034-5.777-11.505-7.05c-2.937-6.299-7.327-11.342-13.169-15.127
							c-5.907-3.851-12.369-5.777-19.387-5.777c-5.255,0-10.264,1.093-15.03,3.28c-4.667,2.187-8.698,5.238-12.092,9.155
							c-3.231-1.338-6.527-2.007-9.889-2.007c-5.222,0-9.987,1.485-14.295,4.455c-4.177,2.872-7.229,6.658-9.155,11.358
							c-2.481-4.439-6.005-7.833-10.574-10.183c1.044-3.916,1.566-7.931,1.566-12.043c0-10.835-3.313-20.545-9.938-29.129
							c-6.658-8.584-15.225-14.246-25.702-16.988l-0.392-0.098c-2.219-0.588-4.798-1.012-7.735-1.273
							c-5.842-0.522-11.113-0.065-15.813,1.371l-0.098,0l-0.294,0.098l-0.049,0c-7.474,1.991-14.099,5.646-19.876,10.966
							c-5.712,5.222-9.889,11.456-12.533,18.701c-9.595,0.033-18.375,2.693-26.338,7.98c-3.386,2.248-6.389,4.81-9.008,7.686
							l0.281,63.609"/>
					</g>
				</g>
			</g>
		</g>
		<g transform="matrix( 1, 0, 0, 1, 0,0) ">
			<g filter="url(#Filter_2)">
				<g id="__________0_Layer0_0_MEMBER_1_FILL_2_">
					
						<linearGradient id="SVGID_2_" gradientUnits="userSpaceOnUse" x1="497.4727" y1="139.7374" x2="497.0267" y2="25.3249" gradientTransform="matrix(1 0 0 1 -86.1401 143.4385)">
						<stop  offset="0.0039" style="stop-color:#CBE9F7"/>
						<stop  offset="1" style="stop-color:#FFFFFF"/>
					</linearGradient>
					<path fill="url(#SVGID_2_)" d="M791.234,388.093c-0.064-13.87-5.042-32.718-14.932-42.542
						c-9.889-9.824-21.818-14.703-35.787-14.638c-6.593,0.032-12.842,1.256-18.75,3.672c0.751-3.558,1.108-7.066,1.077-10.526
						c-0.033-13.251-4.618-24.723-13.756-34.416c-9.172-9.628-20.333-14.851-33.486-15.667
						c-5.124-16.775-14.703-30.435-28.737-40.976c-14.393-10.869-30.598-16.253-48.614-16.156
						c-15.404,0.033-29.569,4.161-42.494,12.386c-12.631,7.963-22.309,18.571-29.03,31.822
						c-9.791-9.237-21.411-13.839-34.857-13.806c-13.871,0.065-25.718,5.042-35.542,14.931c-9.791,9.889-14.67,21.835-14.638,35.836
						c0.033,3.068,0.327,6.022,0.881,8.861c-6.005-1.371-12.206-2.04-18.603-2.007c-4.503,0-8.584,0.342-12.239,1.028
						c-0.163-13.251-4.766-24.641-13.805-34.171c-9.041-9.465-20.04-14.671-32.997-15.617c7.344-15.731,10.982-32.181,10.917-49.348
						c-0.099-26.371-8.323-49.854-24.673-70.447c-16.123-20.333-36.637-33.683-61.538-40.047c-1.502-1.044-5.026-1.844-10.575-2.399
						c-11.195-0.979-26.91-0.115-47.145,2.594c-17.56,2.317-34.661,12.207-51.307,29.667
						c-16.841,17.625-27.416,37.043-31.724,58.258c-5.354-0.816-10.803-1.224-16.352-1.224c-26.665,0.13-50.376,8.534-71.133,25.212
						c-10.263,8.227-18.716,17.593-25.359,28.101L32.25,388.567"/>
				</g>
			</g>
		</g>
		<g transform="matrix( -3.0713348388671875, 0.3758392333984375, 0.3758392333984375, 3.0713348388671875, 2674.9,-84.2) ">
			<g transform="matrix( 1, 0, 0, 1, 0,0) ">
				<g filter="url(#Filter_1)">
					<g id="_________Group__0_Layer0_0_MEMBER_0_FILL_3_">
						<path fill="#FFFFFF" d="M505.412,90.747c-4.7-4.896-10.797-10.377-17.586-10.671c-1.012-4.537-3.117-8.502-6.315-11.896
							c-3.199-3.427-7.034-5.777-11.505-7.05c-2.938-6.299-7.327-11.341-13.17-15.127c-5.907-3.851-12.369-5.777-19.386-5.777
							c-5.254,0-10.264,1.093-15.03,3.28c-4.667,2.186-8.698,5.238-12.092,9.155c-3.231-1.338-6.528-2.007-9.889-2.007
							c-5.222,0-9.987,1.485-14.295,4.455c-4.178,2.872-7.229,6.658-9.155,11.358c-2.48-4.439-6.005-7.833-10.574-10.183
							c1.044-3.916,1.566-7.931,1.566-12.043c0-10.836-3.313-20.545-9.938-29.129c-6.658-8.584-15.225-14.246-25.702-16.988
							l-0.391-0.098c-2.219-0.587-4.798-1.012-7.735-1.273c-5.842-0.522-11.113-0.065-15.813,1.371l-0.098,0l-0.294,0.098l-0.049,0
							c-7.474,1.991-14.099,5.646-19.876,10.966c-5.712,5.222-9.889,11.456-12.533,18.701c-9.595,0.033-18.375,2.693-26.338,7.98
							c-3.386,2.248-6.389,4.81-9.008,7.686l10.04,79.116"/>
					</g>
				</g>
			</g>
		</g>
		<g transform="matrix( 1, 0, 0, 1, 0,40.25) ">
			<g filter="url(#Filter_2)">
				<g id="__________0_Layer0_1_MEMBER_1_FILL_2_">
					
						<linearGradient id="SVGID_3_" gradientUnits="userSpaceOnUse" x1="1652.6263" y1="118.5636" x2="1635.5762" y2="-20.8033" gradientTransform="matrix(1 0 0 1 -86.1401 143.4385)">
						<stop  offset="0.0039" style="stop-color:#CBE9F7"/>
						<stop  offset="1" style="stop-color:#FFFFFF"/>
					</linearGradient>
					<path fill="url(#SVGID_3_)" d="M1952.411,346.363l-1.456-214.318c-8.264-9.687-18.138-18.042-29.616-25.066
						c-24.413-15.013-50.85-20.773-79.311-17.281c-5.907,0.718-11.669,1.877-17.28,3.476c-7.507-22.063-21.429-41.384-41.762-57.964
						c-20.104-16.352-39.687-24.56-58.746-24.625c-21.965-0.163-38.854,1.028-50.671,3.574c-5.842,1.338-9.497,2.66-10.966,3.965
						c-25.719,10.118-45.806,27.122-60.266,51.013c-14.62,24.184-20.219,50.359-16.791,78.525
						c2.253,18.342,8.354,35.396,18.31,51.159c-13.707,2.774-24.739,9.824-33.094,21.149c-8.388,11.391-11.766,24.152-10.134,38.284
						c-3.982-0.229-8.39-0.048-13.219,0.539c-6.789,0.849-13.315,2.432-19.582,4.749c0.228-3.133,0.146-6.348-0.245-9.645
						c-1.827-14.948-8.649-27.023-20.464-36.228c-11.814-9.269-25.133-12.99-39.948-11.162c-14.328,1.763-26.11,8.24-35.348,19.436
						c-8.94-13.25-20.707-23.254-35.298-30.01c-14.85-7.05-30.498-9.563-46.947-7.54c-19.257,2.35-35.853,10.281-49.789,23.793
						c-13.512,13.185-21.884,29.063-25.115,47.634c-13.937,2.643-25.13,9.709-33.583,21.198
						c-8.451,11.652-11.814,24.543-10.084,38.675c0.457,3.688,1.319,7.392,2.595,11.112c-6.659-1.859-13.495-2.35-20.513-1.469
						c-14.949,1.828-27.024,8.65-36.229,20.464"/>
				</g>
			</g>
		</g>
	</g>
</g>
<g id="路" display="none">
	<g transform="matrix( 0.960357666015625, 0, 0, 0.03863525390625, 67.9,445.75) " display="inline">
		<g>
			<g id="___0_Layer0_2_MEMBER_0_FILL">
				<path fill="#999999" d="M1928.571,703.275l-0.049-667.024H-67.927c-0.099,0.202-0.195,0.404-0.295,0.556l0.051,666.469H1928.571
					z"/>
			</g>
		</g>
	</g>
</g>
<g transform="matrix( 1, 0, 0, 0.9037322998046875, 23.6,112.85) ">
	<g>
		<g id="___0_Layer0_3_FILL">
			<path fill="#85DE67" d="M1896.352,630.474V26.781H-21.834l0.049,603.693H1896.352z"/>
		</g>
	</g>
</g>
<g transform="matrix( 1, 0, 0, 0.8868408203125, 23.6,120.55) ">
	<g>
		<g id="___0_Layer0_4_FILL">
			<path fill="#33CC00" d="M1896.4,633.73V26.898H-23.551L-23.6,633.73H1896.4z"/>
		</g>
	</g>
</g>
<g transform="matrix( 1, 0, 0, 1.0869293212890625, 21.85,-27.65) ">
	<g>
		<g id="___0_Layer0_5_FILL">
			<path fill="#8FD646" d="M1796.782,265.876c-3.059-26.059-15.286-48.225-36.682-66.5c-21.185-18.108-45.313-27.148-72.385-27.12
				H193.489c-27.104-0.028-51.282,9.011-72.532,27.12c-21.331,18.275-33.526,40.441-36.584,66.5L55.782,508.727
				c-0.379,2.966-0.608,5.893-0.686,8.779c-0.987,24.398,6.499,45.582,22.46,63.555c18.048,20.242,41.456,30.36,70.228,30.356
				h1585.639c28.738,0.004,52.098-10.114,70.08-30.356c16.027-17.94,23.563-39.126,22.607-63.555
				c-0.111-2.886-0.342-5.813-0.688-8.779L1796.782,265.876z"/>
		</g>
	</g>
</g>
<g transform="matrix( 1, 0, 0, 1, 1146.45,536.9) ">
	<g transform="matrix( 0.586090087890625, 0, 0, 0.40118408203125, -439.4,-200.75) ">
		<g transform="matrix( 1.706207275390625, 0, 0, 2.49261474609375, 749.7,500.35) ">
			<path id="_________1_0_Layer0_0_1_STROKES" fill="none" stroke="#33CC00" stroke-width="10" stroke-linecap="round" d="
				M708.281-350.009l7.993,16.968"/>
		</g>
	</g>
	<g transform="matrix( 0.586090087890625, 0, 0, 0.40118408203125, -436.05,-196.7) ">
		<g transform="matrix( 1.706207275390625, 0, 0, 2.49261474609375, 743.95,490.25) ">
			<path id="_________1_0_Layer0_1_1_STROKES" fill="none" stroke="#33CC00" stroke-width="10" stroke-linecap="round" d="
				M744.329-366.34v22.067"/>
		</g>
	</g>
	<g transform="matrix( 0.586090087890625, 0, 0, 0.40118408203125, -436.05,-198.85) ">
		<g transform="matrix( 1.706207275390625, 0, 0, 2.49261474609375, 743.95,495.65) ">
			<path id="_________1_0_Layer0_2_1_STROKES" fill="none" stroke="#33CC00" stroke-width="10" stroke-linecap="round" d="
				M782.384-348.445l-5.54,13.044"/>
		</g>
	</g>
</g>
<g transform="matrix( 1, 0, 0, 1, 746,578.95) ">
	<g transform="matrix( 0.586090087890625, 0, 0, 0.40118408203125, -439.4,-200.75) ">
		<g transform="matrix( 1.706207275390625, 0, 0, 2.49261474609375, 749.7,500.35) ">
			<path id="_________1_0_Layer0_0_1_STROKES_1_" fill="none" stroke="#33CC00" stroke-width="10" stroke-linecap="round" d="
				M721.386-352.018l7.994,16.968"/>
		</g>
	</g>
	<g transform="matrix( 0.586090087890625, 0, 0, 0.40118408203125, -436.05,-196.7) ">
		<g transform="matrix( 1.706207275390625, 0, 0, 2.49261474609375, 743.95,490.25) ">
			<path id="_________1_0_Layer0_1_1_STROKES_1_" fill="none" stroke="#33CC00" stroke-width="10" stroke-linecap="round" d="
				M757.436-368.352v22.067"/>
		</g>
	</g>
	<g transform="matrix( 0.586090087890625, 0, 0, 0.40118408203125, -436.05,-198.85) ">
		<g transform="matrix( 1.706207275390625, 0, 0, 2.49261474609375, 743.95,495.65) ">
			<path id="_________1_0_Layer0_2_1_STROKES_1_" fill="none" stroke="#33CC00" stroke-width="10" stroke-linecap="round" d="
				M795.492-350.455l-5.542,13.045"/>
		</g>
	</g>
</g>
<g transform="matrix( 1, 0, 0, 1, 301,749.9) ">
	<g transform="matrix( 0.586090087890625, 0, 0, 0.40118408203125, -439.4,-200.75) ">
		<g transform="matrix( 1.706207275390625, 0, 0, 2.49261474609375, 749.7,500.35) ">
			<path id="_________1_0_Layer0_0_1_STROKES_2_" fill="none" stroke="#33CC00" stroke-width="10" stroke-linecap="round" d="
				M735.951-360.194l7.995,16.968"/>
		</g>
	</g>
	<g transform="matrix( 0.586090087890625, 0, 0, 0.40118408203125, -436.05,-196.7) ">
		<g transform="matrix( 1.706207275390625, 0, 0, 2.49261474609375, 743.95,490.25) ">
			<path id="_________1_0_Layer0_1_1_STROKES_2_" fill="none" stroke="#33CC00" stroke-width="10" stroke-linecap="round" d="
				M772.001-376.525v22.068"/>
		</g>
	</g>
	<g transform="matrix( 0.586090087890625, 0, 0, 0.40118408203125, -436.05,-198.85) ">
		<g transform="matrix( 1.706207275390625, 0, 0, 2.49261474609375, 743.95,495.65) ">
			<path id="_________1_0_Layer0_2_1_STROKES_2_" fill="none" stroke="#33CC00" stroke-width="10" stroke-linecap="round" d="
				M810.056-358.629l-5.541,13.042"/>
		</g>
	</g>
</g>
<g transform="matrix( 1, 0, 0, 1, 479.85,935.4) ">
	<g transform="matrix( 0.586090087890625, 0, 0, 0.40118408203125, -439.4,-200.75) ">
		<g transform="matrix( 1.706207275390625, 0, 0, 2.49261474609375, 749.7,500.35) ">
			<path id="_________1_0_Layer0_0_1_STROKES_3_" fill="none" stroke="#33CC00" stroke-width="10" stroke-linecap="round" d="
				M730.098-369.065l7.993,16.971"/>
		</g>
	</g>
	<g transform="matrix( 0.586090087890625, 0, 0, 0.40118408203125, -436.05,-196.7) ">
		<g transform="matrix( 1.706207275390625, 0, 0, 2.49261474609375, 743.95,490.25) ">
			<path id="_________1_0_Layer0_1_1_STROKES_3_" fill="none" stroke="#33CC00" stroke-width="10" stroke-linecap="round" d="
				M766.147-385.397v22.071"/>
		</g>
	</g>
	<g transform="matrix( 0.586090087890625, 0, 0, 0.40118408203125, -436.05,-198.85) ">
		<g transform="matrix( 1.706207275390625, 0, 0, 2.49261474609375, 743.95,495.65) ">
			<path id="_________1_0_Layer0_2_1_STROKES_3_" fill="none" stroke="#33CC00" stroke-width="10" stroke-linecap="round" d="
				M804.202-367.496l-5.542,13.04"/>
		</g>
	</g>
</g>
<g transform="matrix( 1, 0, 0, 1, 1581.6,805.7) ">
	<g transform="matrix( 0.586090087890625, 0, 0, 0.40118408203125, -439.4,-200.75) ">
		<g transform="matrix( 1.706207275390625, 0, 0, 2.49261474609375, 749.7,500.35) ">
			<path id="_________1_0_Layer0_0_1_STROKES_4_" fill="none" stroke="#33CC00" stroke-width="10" stroke-linecap="round" d="
				M694.039-362.859l7.995,16.968"/>
		</g>
	</g>
	<g transform="matrix( 0.586090087890625, 0, 0, 0.40118408203125, -436.05,-196.7) ">
		<g transform="matrix( 1.706207275390625, 0, 0, 2.49261474609375, 743.95,490.25) ">
			<path id="_________1_0_Layer0_1_1_STROKES_4_" fill="none" stroke="#33CC00" stroke-width="10" stroke-linecap="round" d="
				M730.087-379.194v22.067"/>
		</g>
	</g>
	<g transform="matrix( 0.586090087890625, 0, 0, 0.40118408203125, -436.05,-198.85) ">
		<g transform="matrix( 1.706207275390625, 0, 0, 2.49261474609375, 743.95,495.65) ">
			<path id="_________1_0_Layer0_2_1_STROKES_4_" fill="none" stroke="#33CC00" stroke-width="10" stroke-linecap="round" d="
				M768.144-361.297l-5.542,13.045"/>
		</g>
	</g>
</g>
<g transform="matrix( 1, 0, 0, 1, 1736.55,686) ">
	<g transform="matrix( 0.586090087890625, 0, 0, 0.40118408203125, -439.4,-200.75) ">
		<g transform="matrix( 1.706207275390625, 0, 0, 2.49261474609375, 749.7,500.35) ">
			<path id="_________1_0_Layer0_0_1_STROKES_5_" fill="none" stroke="#33CC00" stroke-width="10" stroke-linecap="round" d="
				M688.967-357.137l7.995,16.969"/>
		</g>
	</g>
	<g transform="matrix( 0.586090087890625, 0, 0, 0.40118408203125, -436.05,-196.7) ">
		<g transform="matrix( 1.706207275390625, 0, 0, 2.49261474609375, 743.95,490.25) ">
			<path id="_________1_0_Layer0_1_1_STROKES_5_" fill="none" stroke="#33CC00" stroke-width="10" stroke-linecap="round" d="
				M725.017-373.47v22.067"/>
		</g>
	</g>
	<g transform="matrix( 0.586090087890625, 0, 0, 0.40118408203125, -436.05,-198.85) ">
		<g transform="matrix( 1.706207275390625, 0, 0, 2.49261474609375, 743.95,495.65) ">
			<path id="_________1_0_Layer0_2_1_STROKES_5_" fill="none" stroke="#33CC00" stroke-width="10" stroke-linecap="round" d="
				M763.072-355.575l-5.542,13.045"/>
		</g>
	</g>
</g>
<g transform="matrix( 1, 0, 0, 1, 1546.45,589.4) ">
	<g transform="matrix( 0.586090087890625, 0, 0, 0.40118408203125, -439.4,-200.75) ">
		<g transform="matrix( 1.706207275390625, 0, 0, 2.49261474609375, 749.7,500.35) ">
			<path id="_________1_0_Layer0_0_1_STROKES_6_" fill="none" stroke="#33CC00" stroke-width="10" stroke-linecap="round" d="
				M695.189-352.52l7.993,16.969"/>
		</g>
	</g>
	<g transform="matrix( 0.586090087890625, 0, 0, 0.40118408203125, -436.05,-196.7) ">
		<g transform="matrix( 1.706207275390625, 0, 0, 2.49261474609375, 743.95,490.25) ">
			<path id="_________1_0_Layer0_1_1_STROKES_6_" fill="none" stroke="#33CC00" stroke-width="10" stroke-linecap="round" d="
				M731.238-368.851v22.068"/>
		</g>
	</g>
	<g transform="matrix( 0.586090087890625, 0, 0, 0.40118408203125, -436.05,-198.85) ">
		<g transform="matrix( 1.706207275390625, 0, 0, 2.49261474609375, 743.95,495.65) ">
			<path id="_________1_0_Layer0_2_1_STROKES_6_" fill="none" stroke="#33CC00" stroke-width="10" stroke-linecap="round" d="
				M769.293-350.955l-5.54,13.042"/>
		</g>
	</g>
</g>
<g transform="matrix( 1, 0, 0, 1, 1736.55,945.85) ">
	<g transform="matrix( 0.586090087890625, 0, 0, 0.40118408203125, -439.4,-200.75) ">
		<g transform="matrix( 1.706207275390625, 0, 0, 2.49261474609375, 749.7,500.35) ">
			<path id="_________1_0_Layer0_0_1_STROKES_7_" fill="none" stroke="#33CC00" stroke-width="10" stroke-linecap="round" d="
				M688.967-369.561l7.995,16.966"/>
		</g>
	</g>
	<g transform="matrix( 0.586090087890625, 0, 0, 0.40118408203125, -436.05,-196.7) ">
		<g transform="matrix( 1.706207275390625, 0, 0, 2.49261474609375, 743.95,490.25) ">
			<path id="_________1_0_Layer0_1_1_STROKES_7_" fill="none" stroke="#33CC00" stroke-width="10" stroke-linecap="round" d="
				M725.017-385.897v22.071"/>
		</g>
	</g>
	<g transform="matrix( 0.586090087890625, 0, 0, 0.40118408203125, -436.05,-198.85) ">
		<g transform="matrix( 1.706207275390625, 0, 0, 2.49261474609375, 743.95,495.65) ">
			<path id="_________1_0_Layer0_2_1_STROKES_7_" fill="none" stroke="#33CC00" stroke-width="10" stroke-linecap="round" d="
				M763.072-368l-5.542,13.047"/>
		</g>
	</g>
</g>
<g transform="matrix( 1, 0, 0, 1, 161.45,918.3) ">
	<g transform="matrix( 0.586090087890625, 0, 0, 0.40118408203125, -439.4,-200.75) ">
		<g transform="matrix( 1.706207275390625, 0, 0, 2.49261474609375, 749.7,500.35) ">
			<path id="_________1_0_Layer0_0_1_STROKES_8_" fill="none" stroke="#33CC00" stroke-width="10" stroke-linecap="round" d="
				M740.518-368.246l7.994,16.971"/>
		</g>
	</g>
	<g transform="matrix( 0.586090087890625, 0, 0, 0.40118408203125, -436.05,-196.7) ">
		<g transform="matrix( 1.706207275390625, 0, 0, 2.49261474609375, 743.95,490.25) ">
			<path id="_________1_0_Layer0_1_1_STROKES_8_" fill="none" stroke="#33CC00" stroke-width="10" stroke-linecap="round" d="
				M776.568-384.578v22.071"/>
		</g>
	</g>
	<g transform="matrix( 0.586090087890625, 0, 0, 0.40118408203125, -436.05,-198.85) ">
		<g transform="matrix( 1.706207275390625, 0, 0, 2.49261474609375, 743.95,495.65) ">
			<path id="_________1_0_Layer0_2_1_STROKES_8_" fill="none" stroke="#33CC00" stroke-width="10" stroke-linecap="round" d="
				M814.624-366.682l-5.542,13.045"/>
		</g>
	</g>
</g>
<g transform="matrix( 1, 0, 0, 1, 213.2,578.95) ">
	<g transform="matrix( 0.586090087890625, 0, 0, 0.40118408203125, -439.4,-200.75) ">
		<g transform="matrix( 1.706207275390625, 0, 0, 2.49261474609375, 749.7,500.35) ">
			<path id="_________1_0_Layer0_0_1_STROKES_9_" fill="none" stroke="#33CC00" stroke-width="10" stroke-linecap="round" d="
				M738.824-352.018l7.994,16.968"/>
		</g>
	</g>
	<g transform="matrix( 0.586090087890625, 0, 0, 0.40118408203125, -436.05,-196.7) ">
		<g transform="matrix( 1.706207275390625, 0, 0, 2.49261474609375, 743.95,490.25) ">
			<path id="_________1_0_Layer0_1_1_STROKES_9_" fill="none" stroke="#33CC00" stroke-width="10" stroke-linecap="round" d="
				M774.874-368.352v22.067"/>
		</g>
	</g>
	<g transform="matrix( 0.586090087890625, 0, 0, 0.40118408203125, -436.05,-198.85) ">
		<g transform="matrix( 1.706207275390625, 0, 0, 2.49261474609375, 743.95,495.65) ">
			<path id="_________1_0_Layer0_2_1_STROKES_9_" fill="none" stroke="#33CC00" stroke-width="10" stroke-linecap="round" d="
				M812.93-350.455l-5.542,13.045"/>
		</g>
	</g>
</g>
<g transform="matrix( 1, 0, 0, 1, 949.85,749.9) ">
	<g transform="matrix( 0.586090087890625, 0, 0, 0.40118408203125, -439.4,-200.75) ">
		<g transform="matrix( 1.706207275390625, 0, 0, 2.49261474609375, 749.7,500.35) ">
			<path id="_________1_0_Layer0_0_1_STROKES_10_" fill="none" stroke="#33CC00" stroke-width="10" stroke-linecap="round" d="
				M714.716-360.194l7.994,16.968"/>
		</g>
	</g>
	<g transform="matrix( 0.586090087890625, 0, 0, 0.40118408203125, -436.05,-196.7) ">
		<g transform="matrix( 1.706207275390625, 0, 0, 2.49261474609375, 743.95,490.25) ">
			<path id="_________1_0_Layer0_1_1_STROKES_10_" fill="none" stroke="#33CC00" stroke-width="10" stroke-linecap="round" d="
				M750.764-376.525v22.068"/>
		</g>
	</g>
	<g transform="matrix( 0.586090087890625, 0, 0, 0.40118408203125, -436.05,-198.85) ">
		<g transform="matrix( 1.706207275390625, 0, 0, 2.49261474609375, 743.95,495.65) ">
			<path id="_________1_0_Layer0_2_1_STROKES_10_" fill="none" stroke="#33CC00" stroke-width="10" stroke-linecap="round" d="
				M788.82-358.629l-5.542,13.042"/>
		</g>
	</g>
</g>
<g transform="matrix( 1, 0, 0, 1, 1098.7,948.8) ">
	<g transform="matrix( 0.586090087890625, 0, 0, 0.40118408203125, -439.4,-200.75) ">
		<g transform="matrix( 1.706207275390625, 0, 0, 2.49261474609375, 749.7,500.35) ">
			<path id="_________1_0_Layer0_0_1_STROKES_11_" fill="none" stroke="#33CC00" stroke-width="10" stroke-linecap="round" d="
				M709.844-369.704l7.993,16.971"/>
		</g>
	</g>
	<g transform="matrix( 0.586090087890625, 0, 0, 0.40118408203125, -436.05,-196.7) ">
		<g transform="matrix( 1.706207275390625, 0, 0, 2.49261474609375, 743.95,490.25) ">
			<path id="_________1_0_Layer0_1_1_STROKES_11_" fill="none" stroke="#33CC00" stroke-width="10" stroke-linecap="round" d="
				M745.892-386.036v22.071"/>
		</g>
	</g>
	<g transform="matrix( 0.586090087890625, 0, 0, 0.40118408203125, -436.05,-198.85) ">
		<g transform="matrix( 1.706207275390625, 0, 0, 2.49261474609375, 743.95,495.65) ">
			<path id="_________1_0_Layer0_2_1_STROKES_11_" fill="none" stroke="#33CC00" stroke-width="10" stroke-linecap="round" d="
				M783.947-368.14l-5.54,13.045"/>
		</g>
	</g>
</g>
<g transform="matrix( 1, 0, 0, 1, 479.85,616.95) ">
	<g transform="matrix( 1, 0, 0, 1, -521.2,-474) ">
		<g>
			<path id="_________2_0_Layer0_0_1_STROKES" fill="none" stroke="#33CC00" stroke-width="10" stroke-linecap="round" d="
				M509.691,138.641l1.814,4.266"/>
		</g>
	</g>
	<g transform="matrix( 1, 0, 0, 1, -521.2,-474) ">
		<g>
			<path id="_________2_0_Layer0_1_1_STROKES" fill="none" stroke="#33CC00" stroke-width="10" stroke-linecap="round" d="
				M528.081,128.833v7.65"/>
		</g>
	</g>
	<g transform="matrix( 1, 0, 0, 1, -521.2,-474) ">
		<g>
			<path id="_________2_0_Layer0_2_1_STROKES" fill="none" stroke="#33CC00" stroke-width="10" stroke-linecap="round" d="
				M543.136,136.189l1.226,6.13"/>
		</g>
	</g>
	<g transform="matrix( 1, 0, 0, 1, -521.2,-474) ">
		<g>
			<path id="_________2_0_Layer0_3_1_STROKES" fill="none" stroke="#33CC00" stroke-width="10" stroke-linecap="round" d="
				M568.883,138.935l-4.904,4.61"/>
		</g>
	</g>
</g>
<g transform="matrix( 1, 0, 0, 1, 1277.05,642) ">
	<g transform="matrix( 1, 0, 0, 1, -521.2,-474) ">
		<g>
			<path id="_________2_0_Layer0_0_1_STROKES_1_" fill="none" stroke="#33CC00" stroke-width="10" stroke-linecap="round" d="
				M494.398,138.16l1.814,4.266"/>
		</g>
	</g>
	<g transform="matrix( 1, 0, 0, 1, -521.2,-474) ">
		<g>
			<path id="_________2_0_Layer0_1_1_STROKES_1_" fill="none" stroke="#33CC00" stroke-width="10" stroke-linecap="round" d="
				M512.789,128.352v7.65"/>
		</g>
	</g>
	<g transform="matrix( 1, 0, 0, 1, -521.2,-474) ">
		<g>
			<path id="_________2_0_Layer0_2_1_STROKES_1_" fill="none" stroke="#33CC00" stroke-width="10" stroke-linecap="round" d="
				M527.845,135.708l1.226,6.13"/>
		</g>
	</g>
	<g transform="matrix( 1, 0, 0, 1, -521.2,-474) ">
		<g>
			<path id="_________2_0_Layer0_3_1_STROKES_1_" fill="none" stroke="#33CC00" stroke-width="10" stroke-linecap="round" d="
				M553.591,138.454l-4.903,4.61"/>
		</g>
	</g>
</g>
<g transform="matrix( 1, 0, 0, 1, 1245.6,839.05) ">
	<g transform="matrix( 1, 0, 0, 1, -521.2,-474) ">
		<g>
			<path id="_________2_0_Layer0_0_1_STROKES_2_" fill="none" stroke="#33CC00" stroke-width="10" stroke-linecap="round" d="
				M495.003,134.381l1.813,4.266"/>
		</g>
	</g>
	<g transform="matrix( 1, 0, 0, 1, -521.2,-474) ">
		<g>
			<path id="_________2_0_Layer0_1_1_STROKES_2_" fill="none" stroke="#33CC00" stroke-width="10" stroke-linecap="round" d="
				M513.392,124.572v7.65"/>
		</g>
	</g>
	<g transform="matrix( 1, 0, 0, 1, -521.2,-474) ">
		<g>
			<path id="_________2_0_Layer0_2_1_STROKES_2_" fill="none" stroke="#33CC00" stroke-width="10" stroke-linecap="round" d="
				M528.448,131.929l1.226,6.13"/>
		</g>
	</g>
	<g transform="matrix( 1, 0, 0, 1, -521.2,-474) ">
		<g>
			<path id="_________2_0_Layer0_3_1_STROKES_2_" fill="none" stroke="#33CC00" stroke-width="10" stroke-linecap="round" d="
				M554.194,134.674l-4.904,4.611"/>
		</g>
	</g>
</g>
<g transform="matrix( 1, 0, 0, 1, 710.8,839.05) ">
	<g transform="matrix( 1, 0, 0, 1, -521.2,-474) ">
		<g>
			<path id="_________2_0_Layer0_0_1_STROKES_3_" fill="none" stroke="#33CC00" stroke-width="10" stroke-linecap="round" d="
				M505.26,134.381l1.815,4.266"/>
		</g>
	</g>
	<g transform="matrix( 1, 0, 0, 1, -521.2,-474) ">
		<g>
			<path id="_________2_0_Layer0_1_1_STROKES_3_" fill="none" stroke="#33CC00" stroke-width="10" stroke-linecap="round" d="
				M523.65,124.572v7.65"/>
		</g>
	</g>
	<g transform="matrix( 1, 0, 0, 1, -521.2,-474) ">
		<g>
			<path id="_________2_0_Layer0_2_1_STROKES_3_" fill="none" stroke="#33CC00" stroke-width="10" stroke-linecap="round" d="
				M538.706,131.929l1.226,6.13"/>
		</g>
	</g>
	<g transform="matrix( 1, 0, 0, 1, -521.2,-474) ">
		<g>
			<path id="_________2_0_Layer0_3_1_STROKES_3_" fill="none" stroke="#33CC00" stroke-width="10" stroke-linecap="round" d="
				M564.453,134.674l-4.904,4.611"/>
		</g>
	</g>
</g>
<g transform="matrix( 1, 0, 0, 1, 60.6,526.45) ">
	<g transform="matrix( 0.586090087890625, 0, 0, 0.40118408203125, -439.4,-200.75) ">
		<g transform="matrix( 1.706207275390625, 0, 0, 2.49261474609375, 749.7,500.35) ">
			<path id="_________3_0_Layer0_0_MEMBER_0_1_STROKES" fill="none" stroke="#8FD646" stroke-width="10" stroke-linecap="round" d="
				M743.82-349.508l7.994,16.968"/>
		</g>
	</g>
	<g transform="matrix( 0.586090087890625, 0, 0, 0.40118408203125, -436.05,-196.7) ">
		<g transform="matrix( 1.706207275390625, 0, 0, 2.49261474609375, 743.95,490.25) ">
			<path id="_________3_0_Layer0_0_MEMBER_1_1_STROKES" fill="none" stroke="#8FD646" stroke-width="10" stroke-linecap="round" d="
				M779.868-365.842v22.068"/>
		</g>
	</g>
	<g transform="matrix( 0.586090087890625, 0, 0, 0.40118408203125, -436.05,-198.85) ">
		<g transform="matrix( 1.706207275390625, 0, 0, 2.49261474609375, 743.95,495.65) ">
			<path id="_________3_0_Layer0_0_MEMBER_2_1_STROKES" fill="none" stroke="#8FD646" stroke-width="10" stroke-linecap="round" d="
				M817.924-347.946l-5.542,13.045"/>
		</g>
	</g>
</g>
<g transform="matrix( 1, 0, 0, 1, 1865.3,526.45) ">
	<g transform="matrix( 0.586090087890625, 0, 0, 0.40118408203125, -439.4,-200.75) ">
		<g transform="matrix( 1.706207275390625, 0, 0, 2.49261474609375, 749.7,500.35) ">
			
				<path id="_________3_0_Layer0_0_MEMBER_0_1_STROKES_1_" fill="none" stroke="#8FD646" stroke-width="10" stroke-linecap="round" d="
				M684.753-349.508l7.995,16.968"/>
		</g>
	</g>
	<g transform="matrix( 0.586090087890625, 0, 0, 0.40118408203125, -436.05,-196.7) ">
		<g transform="matrix( 1.706207275390625, 0, 0, 2.49261474609375, 743.95,490.25) ">
			
				<path id="_________3_0_Layer0_0_MEMBER_1_1_STROKES_1_" fill="none" stroke="#8FD646" stroke-width="10" stroke-linecap="round" d="
				M720.803-365.842v22.068"/>
		</g>
	</g>
	<g transform="matrix( 0.586090087890625, 0, 0, 0.40118408203125, -436.05,-198.85) ">
		<g transform="matrix( 1.706207275390625, 0, 0, 2.49261474609375, 743.95,495.65) ">
			
				<path id="_________3_0_Layer0_0_MEMBER_2_1_STROKES_1_" fill="none" stroke="#8FD646" stroke-width="10" stroke-linecap="round" d="
				M758.858-347.946l-5.542,13.045"/>
		</g>
	</g>
</g>
</svg>
