
<svg xmlns="http://www.w3.org/2000/svg" version="1.1" xmlns:xlink="http://www.w3.org/1999/xlink" preserveAspectRatio="none" x="0px" y="0px" width="400px" height="180px" viewBox="0 0 400 180">
<defs>
<g id="____0_Layer0_0_FILL">
<path fill="#FFFFFF" stroke="none" d="
M 932.25 756.2
L 732.2 756.2 732.2 956.25 932.25 956.25 932.25 756.2 Z"/>
</g>

<g id="Layer0_0_MEMBER_1_FILL">
<path fill="#006699" stroke="none" d="
M 1005.55 419.2
L 1005.8 418.75 1002.9 418.75
Q 1001.8 420.2 1000.35 422.5 994.75 431.55 994.75 440.6 994.75 447.65 998.15 454.8 1000.15 459.05 1002.9 462.45
L 1005.8 462.45
Q 999.05 451.55 999.05 440.55 999.05 433.85 1001.2 427.95 1002.55 424.2 1005.55 419.2
M 1026.95 418.45
Q 1026.95 417.95 1026.25 417.95
L 1012.2 417.95
Q 1011.5 417.95 1011.5 418.65
L 1011.5 449.7
Q 1011.5 450.3 1012.2 450.3
L 1014.05 450.3
Q 1014.75 450.3 1014.75 449.7
L 1014.75 444.45 1023.65 444.45 1023.65 445.9
Q 1023.65 446.45 1024.4 446.45
L 1026.25 446.45
Q 1026.95 446.45 1026.95 445.9
L 1026.95 418.45
M 1023.65 420.8
L 1023.65 429.6 1014.75 429.6 1014.75 420.8 1023.65 420.8
M 1014.75 432.45
L 1023.65 432.45 1023.65 441.55 1014.75 441.55 1014.75 432.45
M 1049.35 417.35
Q 1049.35 416.65 1048.45 416.65
L 1031.85 416.65
Q 1031.15 416.65 1031.15 417.35
L 1031.15 434.1
Q 1031.15 439.3 1030.35 442.95 1029.6 446.4 1027.75 449.55 1025.95 452.55 1023.65 454.3 1023.65 454.7 1023.9 454.95 1024.85 455.45 1025.6 456.2 1025.7 456.35 1026.05 456.35 1028.45 454.4 1029.75 452.3 1032.25 448.9 1033.1 445.4 1033.55 444 1033.85 442.3
L 1046.1 442.3 1046.1 450.7
Q 1046.1 451.9 1045.25 452.35 1044.45 452.95 1040.5 452.95 1040.05 452.95 1040.05 453.2 1041 455.15 1041.15 456.1 1041.2 456.7 1041.7 456.7 1045.05 456.4 1047.15 455.4 1049.35 454.2 1049.35 452.05
L 1049.35 417.35
M 1034.45 419.55
L 1046.1 419.55 1046.1 427.7 1034.45 427.7 1034.45 419.55
M 1046.1 439.35
L 1034.2 439.35
Q 1034.45 437 1034.45 434.1
L 1034.45 430.65 1046.1 430.65 1046.1 439.35
M 1097.55 422.45
Q 1097.55 421.9 1097 421.9
L 1079.35 421.9 1079.35 416.65
Q 1079.35 415.75 1079.8 415.7 1080.3 415.65 1080.3 415 1080.3 414.4 1076.65 414.4 1075.9 414.4 1075.9 415
L 1075.9 421.9 1057 421.9
Q 1056.45 421.9 1056.45 422.45
L 1056.45 424.25
Q 1056.45 425 1057 425
L 1064.55 425
Q 1066.15 431.35 1068.35 435.3 1069.8 439.1 1073 442.6 1073.6 443.4 1074.3 444.1 1072.05 446.15 1069.35 447.75 1066.7 449.45 1063.4 450.85 1060.15 452.05 1056 452.95 1055.5 453.15 1055.5 453.35 1055.5 453.6 1055.85 453.95 1056.75 454.85 1057.5 456 1057.85 456.35 1058.25 456.35 1061.95 455.3 1065.15 454 1068.7 452.55 1072.35 450.1 1074.85 448.6 1077 446.55 1078.25 447.65 1079.6 448.75 1083.25 451.25 1087.65 453.3 1091.35 454.8 1094.4 455.8 1095.5 456.35 1095.75 456.35 1095.95 456.35 1096.3 455.8 1097.25 454.8 1098.25 454 1098.5 453.75 1098.5 453.35 1098.5 453.15 1097.75 452.95 1091.15 451.3 1087.05 449.15 1082.5 447.05 1079.6 444.45 1079.45 444.4 1079.3 444.2 1082.15 441.25 1084 438.3 1086.25 435.1 1087.65 430.8 1088.65 428 1089.45 425
L 1097 425
Q 1097.55 425 1097.55 424.25
L 1097.55 422.45
M 1069.95 431.35
Q 1068.75 428.65 1067.9 425
L 1086.25 425
Q 1085.35 427.8 1084.45 430.15 1083.2 433.2 1081.25 435.9 1079.25 439.3 1076.65 441.8 1075.4 440.5 1074.3 439.1 1071.6 435.55 1069.95 431.35
M 1101.95 418.75
Q 1108.75 429.7 1108.75 440.65 1108.75 447.4 1106.55 453.3 1105.25 457.05 1102.25 461.95
L 1101.95 462.45 1104.85 462.45
Q 1106.05 460.95 1107.45 458.75 1113 449.65 1113 440.6 1113 433.6 1109.65 426.45 1107.7 422.2 1104.85 418.75
L 1101.95 418.75
M 844.05 435.75
Q 844.05 435.4 841.15 435.4 840.4 435.4 840.4 435.75
L 840.4 449.7
Q 840.4 450.3 841.15 450.3
L 842.6 450.3
Q 843.3 450.3 843.3 449.7
L 843.3 437.25
Q 843.3 436.45 843.7 436.35 844.05 436.25 844.05 435.75
M 850.15 434.05
L 846.8 433.55
Q 846.05 433.55 846.05 433.75 846.05 434.05 846.2 434.55 846.4 435.2 846.4 436.45
L 846.4 452.9
Q 846.4 454.1 844.6 454.1 843.45 454.1 842.05 453.95 841.7 453.95 841.7 454.1 842.3 455.3 842.45 456.05 842.45 456.85 842.75 456.85
L 844.95 456.85
Q 849.4 456.85 849.4 453.95
L 849.4 436.65
Q 849.4 435.15 850.15 434.8 850.6 434.8 850.6 434.45 850.6 434.25 850.15 434.05
M 845.15 431.4
Q 845.5 431.4 845.5 430.65
L 845.5 429.25
Q 845.5 428.65 845.15 428.65
L 831.3 428.65
Q 830.95 428.65 830.95 429.25
L 830.95 430.65
Q 830.95 431.4 831.3 431.4
L 845.15 431.4
M 827.85 434.6
Q 827.15 434.6 827.15 435.2
L 827.15 456.35
Q 827.15 456.85 827.85 456.85
L 829.3 456.85
Q 830.05 456.85 830.05 456.35
L 830.05 449.35 835.15 449.35 835.15 452.7
Q 835.15 453.3 834.7 453.5 834.35 453.8 832.3 453.8 832.05 453.8 832.05 453.95 832.9 455.65 833 456.55 833.05 457.05 833.5 457.05 835.45 456.85 836.75 456.4 838.05 455.65 838.05 454.5
L 838.05 435.4
Q 838.05 434.6 837.3 434.6
L 827.85 434.6
M 830.05 440.9
L 830.05 437.25 835.15 437.25 835.15 440.9 830.05 440.9
M 830.05 443.4
L 835.15 443.4 835.15 446.85 830.05 446.85 830.05 443.4
M 814.95 415
L 814.95 419.35 808.05 419.35
Q 807.65 419.35 807.65 419.9
L 807.65 421.4
Q 807.65 422.1 808.05 422.1
L 814.95 422.1 814.95 426.05 809.1 426.05
Q 808.4 426.05 808.4 426.65
L 808.4 442.65
Q 808.4 443.2 809.1 443.2
L 814.95 443.2 814.95 447.4 807.65 447.4
Q 807.3 447.4 807.3 447.9
L 807.3 449.35
Q 807.3 450.1 807.65 450.1
L 814.95 450.1 814.95 456.35
Q 814.95 456.85 815.5 456.85
L 817.3 456.85
Q 818.05 456.85 818.05 456.35
L 818.05 450.1 825.5 450.1
Q 825.85 450.1 825.85 449.35
L 825.85 447.9
Q 825.85 447.4 825.5 447.4
L 818.05 447.4 818.05 443.2 823.85 443.2
Q 824.55 443.2 824.55 442.65
L 824.55 426.65
Q 824.55 426.05 823.85 426.05
L 818.05 426.05 818.05 422.1 825.15 422.1
Q 825.5 422.1 825.5 421.4
L 825.5 419.9
Q 825.5 419.35 825.15 419.35
L 818.05 419.35 818.05 416.65
Q 818.05 415.85 818.4 415.8 818.75 415.75 818.75 415.2 818.75 414.6 815.5 414.6 814.95 414.6 814.95 415
M 811.5 428.8
L 814.95 428.8 814.95 433.2 811.5 433.2 811.5 428.8
M 818.05 440.45
L 818.05 435.9 821.5 435.9 821.5 440.45 818.05 440.45
M 814.95 435.9
L 814.95 440.45 811.5 440.45 811.5 435.9 814.95 435.9
M 818.05 433.2
L 818.05 428.8 821.5 428.8 821.5 433.2 818.05 433.2
M 851.1 427.65
Q 851.3 427.5 851.3 427.25 851.3 427 850.9 426.9 847.75 425.7 845.4 423.8 843.75 422.55 842.1 420.55 840.85 419 839.65 417 839.95 416.8 840.4 416.8 841.15 416.8 841.15 416.25 841.15 416.05 840.7 415.75
L 837.75 414.25
Q 837.45 414.25 837.2 414.65 836.45 416.45 835.45 418 834.65 419.45 833.3 420.9 831.3 423.2 829.3 424.8 827.85 425.85 825.65 426.95 825.5 427.05 825.5 427.25 825.5 427.4 825.9 427.65 826.65 428.3 827.2 429.15 827.45 429.6 827.85 429.6 828.85 429 830.4 427.75 832 426.45 833.55 424.85 835.1 423.25 836.2 421.8 837.1 420.7 838.1 419.2 839.65 421.75 840.95 423.25 842.9 425.6 845.1 427.05 846.7 428.35 849.15 429.4 849.4 429.4 849.55 429.05 850.25 428.35 851.1 427.65
M 897.35 453.9
Q 897.55 453.6 897.55 453.2 891.7 450.95 887.4 446.55 884.1 443.45 881.7 439.1 879.6 435.5 878.85 432.35 878.05 428.65 878.05 424.5 878.05 422.3 878.5 418.1 878.5 417.15 877.7 417.15
L 865.15 417.15
Q 864.6 417.15 864.6 417.75
L 864.6 419.55
Q 864.6 420.25 865.15 420.25
L 875.05 420.25
Q 874.95 421.25 874.9 422.2 874.25 425.85 873.5 428.8 872.7 432.1 871.4 435 869.9 438.9 868 441.7 865.95 445.2 863.4 447.65 861.55 449.5 859.4 450.95 857.2 452.35 854.35 453.25 854.05 453.45 854.05 453.75 854.05 453.95 854.35 454.25 855.2 455.15 855.95 456.15 856.2 456.5 856.6 456.5 859.15 455.4 861.35 454 863.65 452.55 866.15 449.9 868.65 447.45 870.7 444.05 872.7 440.65 874.05 437.35 874.95 435.3 875.75 432.75 876.55 436.45 878.65 440.65 881.3 445.5 885.15 449.25 889.65 453.6 894.65 456.35 895.25 456.35 895.5 455.95 896.35 454.8 897.35 453.9
M 912.15 416.45
Q 912.45 416.45 912.45 416.05 912.45 415.75 908.8 413.95 908.7 413.95 908.65 414.25 908 416.3 906.8 418.4 905.55 420.75 903.75 422.75 902.35 424.2 901 425.6 901 425.85 901.3 426.05 902.05 426.65 902.7 427.1 903.05 427.6 903.55 427.6 906.2 425 907.25 423.6 908.05 422.65 908.9 421.4
L 911.95 421.4
Q 913.2 423.75 914.65 427.25 915.55 427.25 917.05 426.05 917.35 426.05 917.35 425.4 916.35 423.25 915.15 421.4
L 921.55 421.4
Q 921.9 421.4 921.9 420.6
L 921.9 419.15
Q 921.9 418.65 921.55 418.65
L 910.45 418.65
Q 910.8 417.9 911.2 417 911.45 416.6 912.15 416.45
M 948.35 443.4
L 948.35 444.85
Q 948.35 445.55 948.85 445.55
L 965.7 445.55
Q 963.65 447.15 962.25 447.95 959.1 449.65 955.9 450.7 952.65 451.7 948.15 452.7 948.15 452.9 948.55 453.25 949.4 454.15 950.05 455 950.4 455.55 950.65 455.55 951.25 455.55 955.4 454.15 958.8 452.95 961.55 451.6 964.05 450.3 966.3 448.6 966.75 448.3 967.25 447.95
L 967.25 456.35
Q 967.25 456.85 967.95 456.85
L 969.8 456.85
Q 970.5 456.85 970.5 456.35
L 970.5 447.25
Q 971.85 448.3 973.1 449.15 975.7 450.95 979.35 452.6 982.5 454 987.6 455.4 987.8 455.4 988.1 455 988.8 454.05 989.9 453.05 990.35 452.9 990.35 452.55 986.9 451.95 983.65 450.95 979.6 449.7 976.75 448.25 974.65 447.25 972.05 445.55
L 988.15 445.55
Q 988.7 445.55 988.7 444.85
L 988.7 443.4
Q 988.7 442.65 988.15 442.65
L 970.5 442.65 970.5 441.05
Q 970.5 440.1 971 440.05 971.4 440 971.4 439.35 971.4 438.9 967.95 438.9 967.25 438.9 967.25 439.35
L 967.25 442.65 948.85 442.65
Q 948.35 442.65 948.35 443.4
M 935.75 443.4
Q 935.75 442.85 935.05 442.85
L 909.55 442.85
Q 908.8 442.85 908.8 443.55
L 908.8 456.5
Q 908.8 457.05 909.55 457.05
L 911.4 457.05
Q 912.1 457.05 912.1 456.5
L 912.1 455.4 932.45 455.4 932.45 456.35
Q 932.45 456.85 933.2 456.85
L 935.05 456.85
Q 935.75 456.85 935.75 456.35
L 935.75 443.4
M 912.1 452.55
L 912.1 445.75 932.45 445.75 932.45 452.55 912.1 452.55
M 940.85 439.25
Q 941.4 439.25 941.55 438.9 942.1 438.2 943.6 437 943.95 436.85 943.95 436.45 940.25 436 936.45 434.6 933.15 433.5 929.65 431.7 927.35 430.5 924.45 428.5 924.7 428.45 925.1 428.45 925.95 428.45 925.95 427.9 925.95 427.65 925.5 427.3
L 921.9 425.6
Q 921.65 425.6 921.05 425.95 919.7 427.7 917.95 429.25 916.35 430.6 913.95 432.1 910.35 434.4 906.65 435.9 904.1 437 900.1 438.1 899.75 438.2 899.75 438.3 899.75 438.5 900.25 438.75 901.1 439.55 901.65 440.55 902 441.05 902.5 441.05 904.25 440.45 907.05 439.3 909.85 437.95 912.7 436.35 915.55 434.8 917.45 433.4 919.45 432 921.65 430.1 926.15 433.45 928.85 434.75 934.55 437.7 940.85 439.25
M 933.95 437.7
Q 933.95 437.05 933.4 437.05
L 911.9 437.05
Q 911.4 437.05 911.4 437.7
L 911.4 439.25
Q 911.4 439.9 911.9 439.9
L 933.4 439.9
Q 933.95 439.9 933.95 439.25
L 933.95 437.7
M 941.4 420.6
L 941.4 419.15
Q 941.4 418.65 941.05 418.65
L 929.35 418.65
Q 929.6 418 929.95 417.15 930.2 416.75 930.9 416.65 931.25 416.65 931.25 416.25 931.25 415.95 927.55 414.05 927.5 414.05 927.35 414.4 926.95 416 926.2 417.65 925.3 419.35 924.1 420.85 923.2 421.95 922.3 423 922.3 423.25 922.6 423.55 923.35 424.1 923.95 424.6 924.35 425 924.85 425 926.55 423.1 927.35 422.1 927.55 421.8 927.85 421.4
L 931.65 421.4
Q 933.5 423.75 935.55 427.25 936.45 427.25 938 426.05 938.3 426.05 938.3 425.4 936.9 423.25 935.25 421.4
L 941.05 421.4
Q 941.4 421.4 941.4 420.6
M 967.75 413.75
Q 967.05 413.75 967.05 414.25
L 967.05 417.95 948.5 417.95
Q 947.75 417.95 947.75 418.45
L 947.75 426.25
Q 947.75 426.85 948.5 426.85
L 950.3 426.85
Q 951 426.85 951 426.25
L 951 420.6 967.25 420.6
Q 966.85 421.45 965.7 422.75 964.7 424 963.45 425.4
L 953.4 425.4
Q 953.05 425.4 953.05 425.9
L 953.05 427.4
Q 953.05 428.1 953.4 428.1
L 960.6 428.1
Q 958.5 430.1 954.7 433.2 954.7 433.55 954.9 433.6 955.8 433.85 956.65 434.25 956.85 434.45 957.25 434.45 958.15 433.8 959 433.2 962.75 433.95 966.15 434.7 963.45 435.6 959.75 436.35 956.75 436.95 954.25 437.25 952.25 437.55 951 437.55 951 437.85 951.45 438.2 952.25 439.5 952.85 440.3 952.9 440.65 953.4 440.65 959.35 439.7 963.65 438.5 967.1 437.5 969.6 436.45 970.2 436.2 970.75 435.9 972.1 436.3 973.4 436.7 978.1 438.2 982.3 440.1 982.65 440.3 983.05 440.3 985.45 438.75 985.45 438.5 985.45 438.3 985.25 438.25 982.65 436.9 979.1 435.65 976.75 434.75 974.05 433.9 975.9 432.55 977.35 430.6 978.35 429.45 979 428.1
L 983.8 428.1
Q 984.15 428.1 984.15 427.4
L 984.15 425.9
Q 984.15 425.4 983.8 425.4
L 967.9 425.4
Q 968.7 424.55 969.4 423.8 969.6 423.4 970.75 423.25 971.2 423.2 971.2 422.8 971.2 422.75 971 422.4
L 968.2 420.6 986.15 420.6 986.15 426.45
Q 986.15 427 986.9 427
L 988.7 427
Q 989.45 427 989.45 426.45
L 989.45 418.45
Q 989.45 417.95 988.7 417.95
L 970.35 417.95 970.35 415.95
Q 970.35 415.05 970.8 414.95 971.2 414.9 971.2 414.25 971.2 413.75 967.75 413.75
M 961.95 430.8
Q 963.55 429.5 964.7 428.4 964.9 428.3 965.1 428.1
L 975.55 428.1
Q 974.7 429.4 973.8 430.3 972.4 431.75 970.4 432.85 969.4 432.55 968.4 432.35 965.05 431.5 961.95 430.8 Z"/>
</g>

<path id="____0_Layer0_0_1_STROKES" stroke="#66CCFF" stroke-width="8" stroke-linejoin="round" stroke-linecap="round" fill="none" d="
M 0.01740417480459655 0.0172576904296875
L 907.1868888854979 0.0172576904296875 907.1868888854979 224.42332077026367 0.01740417480459655 224.42332077026367 0.01740417480459655 0.0172576904296875 Z"/>
</defs>

<g transform="matrix( 0.43182373046875, 0, 0, 0.47625732421875, 4.15,67.35) ">
<g transform="matrix( 4.5347137451171875, 0, 0, 1.1217498779296875, -3320.3,-848.25) ">
<use xlink:href="#____0_Layer0_0_FILL"/>

<use xlink:href="#____0_Layer0_0_1_STROKES" transform="matrix( 0.22052001953125, 0, 0, 0.8914642333984375, 732.15,756.15) "/>
</g>
</g>

<g transform="matrix( 1.0623779296875, 0, 0, 1.0623779296875, -819.15,-433.65) ">
<use xlink:href="#Layer0_0_MEMBER_1_FILL"/>
</g>
</svg>
