<?xml version="1.0" encoding="utf-8"?>
<!-- Generator: Adobe Illustrator 16.0.3, SVG Export Plug-In . SVG Version: 6.00 Build 0)  -->
<!DOCTYPE svg PUBLIC "-//W3C//DTD SVG 1.1//EN" "http://www.w3.org/Graphics/SVG/1.1/DTD/svg11.dtd">
<svg version="1.1" id="圖層_1" xmlns="http://www.w3.org/2000/svg" xmlns:xlink="http://www.w3.org/1999/xlink" x="0px" y="0px"
	 width="900px" height="900px" viewBox="0 0 900 900" enable-background="new 0 0 900 900" xml:space="preserve">
<g>
	<path fill="#FFFFFF" d="M753.68,144.707c-83.84-83.84-185.076-125.76-303.709-125.76c-54.279,0-104.946,8.786-152.001,26.358
		c-24.172,9.06-47.388,20.423-69.646,34.09c-28.976,17.846-56.31,39.616-82.005,65.311C62.48,228.585,20.56,329.822,20.56,448.417
		c0,118.593,41.92,219.81,125.76,303.65s185.057,125.76,303.651,125.76c118.633,0,219.869-41.92,303.709-125.76
		s125.76-185.057,125.76-303.65C879.44,329.822,837.52,228.585,753.68,144.707z M658.712,655.882
		c-58.341,58.342-128.788,87.512-211.34,87.512c-82.526,0-152.959-29.17-211.3-87.512c-58.341-58.341-87.512-128.774-87.512-211.298
		c0-82.526,29.171-152.973,87.512-211.342c17.88-17.88,36.901-33.03,57.064-45.448c15.488-9.511,31.643-17.418,48.464-23.722
		c32.744-12.228,68-18.342,105.772-18.342c82.552,0,153,29.171,211.34,87.512c58.341,58.369,87.512,128.815,87.512,211.342
		C746.224,527.107,717.053,597.541,658.712,655.882z"/>
	<g>
		
			<path id="____0_Layer1_0_1_STROKES" fill="none" stroke="#999999" stroke-width="10" stroke-linecap="round" stroke-linejoin="round" d="
			M879.44,448.417c0,118.593-41.92,219.81-125.76,303.65s-185.076,125.76-303.709,125.76c-118.595,0-219.812-41.92-303.651-125.76
			S20.56,567.01,20.56,448.417c0-118.595,41.92-219.831,125.76-303.71c25.695-25.695,53.029-47.465,82.005-65.311
			c22.258-13.667,45.474-25.031,69.646-34.09c47.055-17.572,97.722-26.358,152.001-26.358c118.633,0,219.869,41.92,303.709,125.76
			C837.52,228.585,879.44,329.822,879.44,448.417z"/>
	</g>
	<g transform="matrix( 1, 0, 0, 1, 818,456) ">
		<g>
			<g id="____0_Layer0_0_MEMBER_0_MEMBER_0_FILL">
				<path fill="#999999" d="M-340.968-430.962l0.059-1.171c-47.017-3.007-93.056,1.601-138.119,13.824
					c-43.735,11.832-84.66,30.283-122.772,55.353c-37.762,24.836-70.759,54.962-98.991,90.381
					c-28.663,35.887-50.921,75.463-66.775,118.731l1.113,0.41c8.2-22.375,18.197-43.833,29.99-64.374
					c33.427-58.301,78.451-106.118,135.073-143.449c56.622-37.371,118.32-59.961,185.096-67.771
					c16.557-1.875,32.763-2.812,48.617-2.812C-358.696-431.84-349.793-431.547-340.968-430.962z"/>
			</g>
		</g>
	</g>
	<g transform="matrix( 1, 0, 0, 1, 818,456) ">
		<g>
			<g id="____0_Layer0_0_MEMBER_0_MEMBER_1_FILL">
				<path fill="#999999" d="M-220.948-407.004v-0.059l-0.41,1.113c37.175,13.667,71.754,32.196,103.735,55.587
					c48.969,35.848,88.585,80.345,118.848,133.492c30.459,53.498,48.48,110.589,54.064,171.272
					c1.133,12.301,1.699,25.109,1.699,38.425v1.758c0,8.082-0.273,16.381-0.82,24.893l1.172,0.059
					c3.007-46.976-1.602-92.996-13.824-138.06c-11.832-43.736-30.283-84.66-55.353-122.772
					c-24.836-37.761-54.963-70.758-90.381-98.991C-138.143-368.99-177.72-391.229-220.948-407.004z"/>
			</g>
		</g>
	</g>
	<g transform="matrix( 1, 0, 0, 1, 818,456) ">
		<g>
			<g id="____0_Layer0_0_MEMBER_0_MEMBER_2_FILL">
				<path fill="#999999" d="M-791.466-33.826l-1.172-0.059c-3.007,46.978,1.602,92.998,13.824,138.06
					c11.832,43.775,30.283,84.699,55.353,122.773c24.875,37.801,55.002,70.797,90.381,98.99
					c35.926,28.703,75.503,50.941,118.73,66.717l0.41-1.055c-37.136-13.666-71.715-32.195-103.735-55.586
					c-49.008-35.926-88.643-80.482-118.906-133.668C-767.04,148.811-785.042,91.66-790.587,30.9
					c-1.172-12.652-1.758-25.344-1.758-38.075l0.059-1.698C-792.286-16.995-792.012-25.313-791.466-33.826z"/>
			</g>
		</g>
	</g>
	<g transform="matrix( 1, 0, 0, 1, 818,456) ">
		<g>
			<g id="____0_Layer0_0_MEMBER_0_MEMBER_3_FILL">
				<path fill="#999999" d="M32.27,139.496l-1.112-0.408c-8.162,22.297-18.139,43.754-29.933,64.373
					c-33.387,58.301-78.431,106.137-135.131,143.508c-56.623,37.332-118.321,59.902-185.097,67.713
					c-16.557,1.873-32.782,2.811-48.675,2.811c-8.904,0-17.788-0.293-26.652-0.879l-0.059,1.172
					c9.138,0.586,18.275,0.879,27.413,0.879c37.605,0,74.507-4.9,110.706-14.703c43.775-11.832,84.699-30.283,122.772-55.352
					c37.801-24.836,70.798-54.963,98.991-90.381C-5.843,222.342,16.416,182.764,32.27,139.496z"/>
			</g>
		</g>
	</g>
	<g transform="matrix( 1, 0, 0, 1, 818,456) ">
		<g>
			<g id="____0_Layer0_0_MEMBER_0_MEMBER_4_FILL">
				<path fill="#999999" d="M-340.909-432.133l-0.059,1.171c8.864,0.547,17.611,1.367,26.241,2.46
					c32.255,4.061,63.378,11.578,93.368,22.551l0.41-1.113C-259.607-421.238-299.594-429.595-340.909-432.133z"/>
			</g>
		</g>
	</g>
	<g transform="matrix( 1, 0, 0, 1, 818,456) ">
		<g>
			<g id="____0_Layer0_0_MEMBER_0_MEMBER_5_FILL">
				<path fill="#999999" d="M57.34,19.535l-1.172-0.059c-0.547,8.865-1.366,17.613-2.46,26.242
					c-4.062,32.217-11.578,63.34-22.551,93.369l1.112,0.408C46.445,100.838,54.802,60.852,57.34,19.535z"/>
			</g>
		</g>
	</g>
	<g transform="matrix( 1, 0, 0, 1, 818,456) ">
		<g>
			<g id="____0_Layer0_0_MEMBER_0_MEMBER_6_FILL">
				<path fill="#999999" d="M-513.939,391.602l-0.41,1.055c38.621,14.215,78.607,22.592,119.961,25.129l0.059-1.172
					c-8.864-0.547-17.611-1.365-26.241-2.459C-452.787,410.092-483.91,402.576-513.939,391.602z"/>
			</g>
		</g>
	</g>
	<g transform="matrix( 1, 0, 0, 1, 818,456) ">
		<g>
			<g id="____0_Layer0_0_MEMBER_0_MEMBER_7_FILL">
				<path fill="#999999" d="M-766.454-153.435l-1.113-0.41c-14.175,38.659-22.531,78.646-25.07,119.96l1.172,0.059
					c0.547-8.864,1.367-17.611,2.46-26.241C-784.944-92.283-777.427-123.406-766.454-153.435z"/>
			</g>
		</g>
	</g>
	<g transform="matrix( 1, 0, 0, 1, 818,456) ">
		<g>
			<g id="____0_Layer0_0_MEMBER_0_MEMBER_8_FILL">
				<path fill="#999999" d="M-593.307-208.729l0.352-0.468l-91.903-82.063l-0.352,0.41c-36.238,40.534-63.69,86.202-82.356,137.006
					c-11.012,30.224-18.549,61.445-22.609,93.661c-1.172,9.528-1.992,18.295-2.461,26.3c-0.546,8.513-0.819,16.851-0.819,25.012
					v0.586l124.178,0.469l-0.059-1.699c0-23.859,2.851-47.582,8.552-71.168l0.059-0.059c5.78-23.82,14.371-46.508,25.773-68.064
					C-623.512-170.48-609.631-190.454-593.307-208.729 M-766.454-153.435c6.638-18.041,14.37-35.418,23.195-52.131l107.016,56.7
					c-11.285,21.478-19.798,43.931-25.538,67.361l-117.677-29.521C-775.787-125.553-771.453-139.689-766.454-153.435
					 M-594.596-209.081c-16.244,18.314-29.951,38.035-41.119,59.161l-106.957-56.7c15.815-29.795,35.125-57.462,57.93-83
					L-594.596-209.081 M-791.466-33.826c0.547-8.864,1.367-17.611,2.46-26.241c2.108-16.674,5.194-33.29,9.255-49.847
					l117.735,29.522c-5.662,23.313-8.493,46.938-8.493,70.875l0.059,0.527l-121.836-0.469
					C-792.286-17.385-792.012-25.507-791.466-33.826z"/>
			</g>
		</g>
	</g>
	<g transform="matrix( 1, 0, 0, 1, 818,456) ">
		<g>
			<g id="____0_Layer0_0_MEMBER_0_MEMBER_9_FILL">
				<path fill="#999999" d="M-47.743-288.215l-0.41-0.469l-95.184,83.704l0.352,0.41c15.814,18.393,29.15,38.308,40.006,59.746
					l0.059,0.117c10.935,21.556,19.115,44.068,24.543,67.537c5.115,22.103,7.673,44.654,7.673,67.654v4.16L58.16-4.83v-2.344
					c0-51.741-9.118-101.802-27.354-150.185C12.57-205.781-13.613-249.4-47.743-288.215 M-141.697-204.863l93.427-82.122
					c22.415,25.578,41.49,53.42,57.228,83.528L-102.1-145.762C-113.073-167.161-126.272-186.862-141.697-204.863 M-69.533-6.53
					v-2.987c0-22.922-2.519-45.375-7.556-67.361l122.362-29.639c7.81,32.606,11.715,65.721,11.715,99.342v1.172L-69.533-6.53
					 M-101.573-144.708L9.485-202.462c15.581,30.029,27.413,61.64,35.496,94.833l-122.362,29.58
					C-82.693-100.972-90.757-123.191-101.573-144.708z"/>
			</g>
		</g>
	</g>
	<g transform="matrix( 1, 0, 0, 1, 818,456) ">
		<g>
			<g id="____0_Layer0_0_MEMBER_0_MEMBER_10_FILL">
				<path fill="#999999" d="M-592.253,190.926l-0.41-0.469c-16.206-18.002-30.029-37.723-41.471-59.16
					c-11.56-21.557-20.268-44.107-26.125-67.654c-5.936-23.586-8.942-47.602-9.021-72.046V-8.99l-124.178-0.469l-0.059,2.284
					c0,51.741,9.118,101.803,27.354,150.186c18.275,48.422,44.478,92.041,78.606,130.855l0.41,0.469L-592.253,190.926
					 M-792.344-7.174l0.059-1.112l121.836,0.469c0.117,24.171,3.085,47.894,8.903,71.167l-119.024,28.818
					C-788.42,59.406-792.344,26.291-792.344-7.174 M-780.278,93.281l119.024-28.76c5.896,23.313,14.487,45.57,25.772,66.775
					l-109.301,56.816C-760.362,158.084-772.194,126.475-780.278,93.281 M-744.255,189.109l109.359-56.758
					c11.285,21.008,24.953,40.494,41.002,58.457l-93.134,81.828C-709.441,247.1-728.517,219.256-744.255,189.109z"/>
			</g>
		</g>
	</g>
	<g transform="matrix( 1, 0, 0, 1, 818,456) ">
		<g>
			<g id="____0_Layer0_0_MEMBER_0_MEMBER_11_FILL">
				<path fill="#999999" d="M-592.663,190.457l-0.352-0.41l-94.949,83.352l0.409,0.469c23.47,26.672,49.906,50.102,79.311,70.289
					c29.443,20.189,60.742,36.355,93.895,48.5c30.146,11.051,61.367,18.607,93.661,22.668l0.527,0.059l16.05-127.574l-0.586-0.059
					c-24.094-2.773-47.348-8.357-69.763-16.752c-22.531-8.396-43.833-19.408-63.904-33.037
					C-558.358,224.332-576.458,208.498-592.663,190.457 M-474.343,272.285c22.181,8.279,45.161,13.805,68.942,16.578
					l-15.757,125.232c-31.942-4.063-62.87-11.559-92.782-22.494l-5.447-2.049L-474.343,272.285 M-538.54,239.25
					c19.72,13.395,40.748,24.27,63.085,32.625l-44.985,117.268c-31.631-12.223-61.426-28.057-89.386-47.504L-538.54,239.25
					 M-593.132,191.688c16.089,17.807,33.954,33.445,53.596,46.918l-71.285,102.33c-27.882-19.486-53.029-41.959-75.444-67.42
					L-593.132,191.688z"/>
			</g>
		</g>
	</g>
	<g transform="matrix( 1, 0, 0, 1, 818,456) ">
		<g>
			<g id="____0_Layer0_0_MEMBER_0_MEMBER_12_FILL">
				<path fill="#999999" d="M-70.705-6.53v0.586c-0.312,24.29-3.416,47.915-9.313,70.875c-5.936,23.156-14.566,45.316-25.891,66.482
					l-0.059,0.117c-11.324,21.125-24.972,40.611-40.943,58.457l-0.41,0.41l96.883,86.516l0.352-0.41
					c36.238-40.535,63.689-86.203,82.355-137.008c11.012-30.223,18.549-61.443,22.61-93.66c1.171-9.527,1.991-18.295,2.46-26.301
					c0.547-8.512,0.82-16.83,0.82-24.951v-0.586L-70.705-6.53 M-78.729,64.639c5.779-22.883,8.845-46.215,9.196-69.996L56.989-4.83
					c0,7.887-0.273,15.99-0.82,24.307c-0.547,8.865-1.366,17.613-2.46,26.242C51.6,62.393,48.515,79.01,44.453,95.566
					L-78.729,64.639 M-79.022,65.811L44.16,96.68c-3.671,14.525-8.005,28.662-13.003,42.408
					c-6.639,18.041-14.371,35.418-23.196,52.131l-112.58-59.688C-93.49,110.561-84.958,88.654-79.022,65.811 M-145.621,190.34
					c15.814-17.768,29.287-37.02,40.416-57.754l112.58,59.688c-15.814,29.795-35.125,57.461-57.93,83L-145.621,190.34z"/>
			</g>
		</g>
	</g>
	<g transform="matrix( 1, 0, 0, 1, 818,456) ">
		<g>
			<g id="____0_Layer0_0_MEMBER_0_MEMBER_13_FILL">
				<path fill="#999999" d="M-314.609-429.673l-0.527-0.059l-15.522,123.476l0.586,0.117c24.25,3.241,47.66,9.333,70.231,18.275
					c22.336,8.825,43.501,20.345,63.494,34.559l0.059,0.059c19.643,14.019,37.41,30.244,53.304,48.675l0.409,0.469l95.243-83.645
					l-0.41-0.469c-23.469-26.671-49.905-50.101-79.311-70.29c-29.404-20.189-60.702-36.375-93.895-48.558
					C-251.173-418.075-282.393-425.612-314.609-429.673 M-221.358-405.95l5.447,2.05l-44.048,114.689
					c-22.454-8.786-45.591-14.8-69.411-18.041l15.229-121.191C-282.198-424.382-251.27-416.884-221.358-405.95 M-195.117-253.891
					l70.641-101.393c27.882,19.486,53.03,41.959,75.444,67.419l-93.427,82.122C-158-223.783-175.552-239.833-195.117-253.891
					 M-125.471-355.986l-70.583,101.452c-19.837-14.058-40.787-25.46-62.851-34.208l44.049-114.748
					C-183.226-391.268-153.431-375.433-125.471-355.986z"/>
			</g>
		</g>
	</g>
	<g transform="matrix( 1, 0, 0, 1, 818,456) ">
		<g>
			<g id="____0_Layer0_0_MEMBER_0_MEMBER_14_FILL">
				<path fill="#999999" d="M-314.023-429.615l-0.586-0.059c-9.528-1.171-18.295-1.991-26.3-2.46
					c-8.825-0.586-17.749-0.878-26.769-0.878c-61.895,0-120.84,12.789-176.837,38.366
					c-54.123,24.758-101.022,59.356-140.696,103.794l-0.41,0.469l91.903,82.063l0.41-0.41
					c16.323-18.314,34.578-34.364,54.768-48.148c20.306-13.824,41.92-24.972,64.842-33.446
					c22.844-8.474,46.469-14.039,70.875-16.694c11.325-1.21,22.259-1.816,32.802-1.816c13.121,0,26.438,0.898,39.948,2.694
					l0.586,0.059L-314.023-429.615 M-516.048-404.955c31.669-11.871,64.452-19.837,98.347-23.898l14.176,120.723
					c-24.328,2.733-47.681,8.239-70.056,16.518L-516.048-404.955 M-340.968-430.962c8.474,0.508,17.025,1.308,25.655,2.402
					l-15.229,121.191c-13.042-1.757-26.202-2.636-39.479-2.636c-10.191,0-20.97,0.585-32.333,1.757l-14.175-120.723
					c16.518-1.914,32.802-2.87,48.852-2.87C-358.696-431.84-349.793-431.547-340.968-430.962 M-539.653-257.522
					c-19.954,13.667-38.015,29.521-54.182,47.563l-90.146-80.54c22.688-25.304,48.051-47.563,76.089-66.775L-539.653-257.522
					 M-474.694-291.203c-22.766,8.474-44.106,19.486-64.021,33.036l-68.239-99.752c28.076-19.134,58.008-34.676,89.794-46.625
					L-474.694-291.203z"/>
			</g>
		</g>
	</g>
	<g transform="matrix( 1, 0, 0, 1, 818,456) ">
		<g>
			<g id="____0_Layer0_0_MEMBER_0_MEMBER_15_FILL">
				<path fill="#999999" d="M-146.5,189.52l-0.41,0.469c-15.933,17.807-33.778,33.523-53.537,47.152
					c-19.76,13.59-40.847,24.66-63.261,33.213c-22.493,8.512-45.63,14.232-69.411,17.162c-12.652,1.523-24.953,2.283-36.902,2.283
					c-11.363,0-22.922-0.682-34.676-2.049l-0.586-0.059l-15.991,127.576l0.586,0.057c9.528,1.172,18.295,1.992,26.3,2.461
					c8.865,0.586,17.768,0.879,26.711,0.879c61.933,0,120.897-12.789,176.896-38.367c54.122-24.758,101.021-59.355,140.696-103.793
					l0.41-0.469L-146.5,189.52 M-199.335,237.785c19.564-13.551,37.195-29.072,52.894-46.566l95.125,84.934
					c-22.688,25.303-48.051,47.563-76.089,66.775L-199.335,237.785 M-200.271,238.43l71.93,105.141
					c-28.077,19.135-58.009,34.678-89.795,46.627l-44.576-118.965C-240.649,262.758-219.836,251.824-200.271,238.43
					 M-404.228,288.98c11.754,1.326,23.156,1.99,34.207,1.99c12.105,0,24.27-0.742,36.492-2.225l14.761,125.877
					c-16.518,1.912-32.821,2.869-48.909,2.869c-8.904,0-17.788-0.293-26.652-0.879c-8.474-0.508-17.025-1.309-25.655-2.4
					L-404.228,288.98 M-332.357,288.57c23.313-2.852,46.156-8.494,68.532-16.93l44.575,118.967
					c-31.669,11.871-64.451,19.836-98.347,23.898L-332.357,288.57z"/>
			</g>
		</g>
	</g>
	<g transform="matrix( 1, 0, 0, 1, 818,456) ">
		<g>
			<g id="____0_Layer0_0_MEMBER_1_MEMBER_0_FILL">
				<path d="M-246.194-305.436l9.021,4.744l17.455-17.396l24.953,13.062l-4.511,24.25l9.431,4.979l12.945-80.892l-10.017-5.272
					L-246.194-305.436 M-193.243-313.227l-20.501-10.836l8.728-8.61c5.74-5.701,12.066-12.223,18.979-19.564l0.41,0.176
					c-1.797,7.966-3.573,16.889-5.33,26.769L-193.243-313.227z"/>
			</g>
		</g>
	</g>
	<g transform="matrix( 1, 0, 0, 1, 818,456) ">
		<g>
			<g id="____0_Layer0_0_MEMBER_1_MEMBER_1_FILL">
				<path d="M-112.176-256.526c-0.273-4.334-2.265-8.747-5.975-13.238l0.352-0.352c4.062,2.109,8.045,2.753,11.949,1.933
					c3.632-0.703,6.775-2.578,9.431-5.624c4.335-4.842,5.721-10.094,4.159-15.756c-1.445-5.155-5.291-10.504-11.539-16.049
					l-16.46-14.585l-51.487,58.106l17.807,15.756c6.756,5.975,13.277,9.255,19.564,9.841c6.678,0.585,12.477-1.894,17.396-7.439
					C-113.503-247.838-111.902-252.036-112.176-256.526 M-110.183-300.165c4.607,4.062,7.419,7.693,8.435,10.895
					c1.093,3.397,0.273,6.619-2.46,9.665c-2.929,3.319-6.15,4.784-9.665,4.394c-3.632-0.352-7.907-2.695-12.828-7.029l-7.849-7.029
					l16.166-18.217L-110.183-300.165 M-149.487-253.48l-9.372-8.318l18.803-21.262l9.371,8.317
					c5.233,4.608,8.436,8.845,9.606,12.711c1.211,4.022,0.254,7.791-2.87,11.305C-130.549-243.308-139.061-244.226-149.487-253.48z"
					/>
			</g>
		</g>
	</g>
	<g transform="matrix( 1, 0, 0, 1, 818,456) ">
		<g>
			<g id="____0_Layer0_0_MEMBER_1_MEMBER_2_FILL">
				<path d="M-57.467-232.159c7.107,0.429,12.77,3.709,16.986,9.84c3.476,4.92,4.53,10.524,3.163,16.811l8.377,1.113
					c0.819-3.67,0.956-7.361,0.409-11.07c-0.663-4.296-2.245-8.24-4.744-11.832c-5.818-8.435-13.492-13.238-23.02-14.41
					c-9.763-1.21-19.701,1.699-29.814,8.728c-10.192,7.029-16.479,15.308-18.861,24.836c-2.265,9.138-0.586,17.748,5.037,25.832
					c5.506,7.966,13.141,12.417,22.903,13.355l1.698-8.083c-7.497-0.898-13.121-4.042-16.869-9.431
					c-4.218-6.131-5.253-12.632-3.104-19.505c2.147-6.951,7.224-13.179,15.229-18.685
					C-72.188-230.128-64.652-232.628-57.467-232.159z"/>
			</g>
		</g>
	</g>
	<g transform="matrix( 1, 0, 0, 1, 818,456) ">
		<g>
			<g id="____0_Layer0_0_MEMBER_1_MEMBER_3_FILL">
				<path d="M4.447-152.439l-6.794-17.924l-72.574,27.647l7.029,18.334c4.021,10.622,10.348,17.592,18.978,20.911
					c8.552,3.319,18.627,2.772,30.225-1.64c11.559-4.413,19.33-10.68,23.313-18.802C8.645-132.075,8.586-141.583,4.447-152.439
					 M-6.448-158.121l3.046,7.966c3.124,8.162,3.026,15.249-0.293,21.263c-3.241,5.936-9.47,10.641-18.686,14.116
					c-9.293,3.554-17.182,4.218-23.664,1.992c-6.678-2.265-11.559-7.458-14.644-15.581l-3.046-7.966L-6.448-158.121z"/>
			</g>
		</g>
	</g>
	<g transform="matrix( 1, 0, 0, 1, 818,456) ">
		<g>
			<g id="____0_Layer0_0_MEMBER_1_MEMBER_4_FILL">
				<path d="M-49.91-65.397l5.916,48.851l8.317-0.995l-4.687-39.011l27.94-3.397l3.866,31.981l8.317-1.054l-3.866-31.923
					l24.074-2.929l4.628,37.839l8.317-1.055l-5.799-47.68L-49.91-65.397z"/>
			</g>
		</g>
	</g>
	<g transform="matrix( 1, 0, 0, 1, 818,456) ">
		<g>
			<g id="____0_Layer0_0_MEMBER_1_MEMBER_5_FILL">
				<path d="M-44.873,14.674l-1.172,9.9l34.442,4.1l-3.749,31.689l8.317,0.996l3.808-31.689l25.948,3.045l-4.451,37.488l8.317,0.996
					l5.623-47.328L-44.873,14.674z"/>
			</g>
		</g>
	</g>
	<g transform="matrix( 1, 0, 0, 1, 818,456) ">
		<g>
			<g id="____0_Layer0_0_MEMBER_1_MEMBER_6_FILL">
				<path d="M-19.042,96.328c-11.598-4.414-21.945-4.939-31.044-1.582c-8.786,3.201-14.937,9.469-18.451,18.803
					c-1.68,4.451-2.46,8.98-2.343,13.59c0.155,4.139,1.015,7.887,2.577,11.246l30.518,11.539l8.728-23.02l-7.674-2.871l-5.389,14.41
					l-18.92-7.146c-0.819-1.836-1.19-4.002-1.112-6.502c0.117-2.5,0.644-5.037,1.581-7.615c2.655-7.029,7.4-11.5,14.233-13.414
					c6.678-1.873,14.625-1.092,23.84,2.344c8.981,3.396,15.347,8.143,19.096,14.234c3.671,6.014,4.218,12.438,1.641,19.27
					c-1.211,3.242-2.93,5.916-5.155,8.025c-1.835,1.68-4.139,3.105-6.911,4.275l3.865,7.498c8.006-3.357,13.473-8.922,16.401-16.693
					c3.593-9.566,3.163-18.549-1.289-26.945C0.581,107.184-7.483,100.701-19.042,96.328z"/>
			</g>
		</g>
	</g>
	<g transform="matrix( 1, 0, 0, 1, 818,456) ">
		<g>
			<g id="____0_Layer0_0_MEMBER_1_MEMBER_7_FILL">
				<path d="M-80.896,212.832l-29.99-20.676l-5.74,8.316l63.963,43.99l5.683-8.26l-26.71-18.393l18.274-26.533l26.71,18.393
					l5.683-8.26l-63.905-44.047l-5.74,8.316l30.049,20.678L-80.896,212.832z"/>
			</g>
		</g>
	</g>
	<g transform="matrix( 1, 0, 0, 1, 818,456) ">
		<g>
			<g id="____0_Layer0_0_MEMBER_1_MEMBER_8_FILL">
				<path d="M-129.631,227.477l-5.564-6.268l-36.258,32.215l5.564,6.268l14.409-12.826l40.476,45.453l-14.409,12.828l5.564,6.268
					l36.258-32.275l-5.623-6.268l-14.409,12.828l-40.417-45.395L-129.631,227.477z"/>
			</g>
		</g>
	</g>
	<g transform="matrix( 1, 0, 0, 1, 818,456) ">
		<g>
			<g id="____0_Layer0_0_MEMBER_1_MEMBER_9_FILL">
				<path d="M-188.908,279.725c-4.296-2.537-8.884-3.807-13.766-3.807c-4.49,0-8.747,1.074-12.769,3.221
					c-8.006,4.217-12.73,9.627-14.175,16.225c-1.289,5.742-0.078,12.086,3.631,19.037l24.719,46.803l37.547-19.857l-3.925-7.439
					l-28.644,15.172l-20.384-38.602c-2.968-5.623-4.003-10.348-3.104-14.176c0.859-3.787,3.729-6.971,8.61-9.547
					c2.733-1.445,5.761-2.09,9.079-1.934c3.476,0.156,6.951,1.211,10.427,3.164L-188.908,279.725z"/>
			</g>
		</g>
	</g>
	<g transform="matrix( 1, 0, 0, 1, 818,456) ">
		<g>
			<g id="____0_Layer0_0_MEMBER_1_MEMBER_10_FILL">
				<path d="M-311.27,314.811l-10.896,2.695l38.25,40.182l-16.812,34.5l11.013-2.752l22.258-45.514l0.352-0.059l9.313,37.664
					l9.782-2.459l-18.744-75.328l-9.724,2.461l5.975,23.957l-9.138,18.744L-311.27,314.811z"/>
			</g>
		</g>
	</g>
	<g transform="matrix( 1, 0, 0, 1, 818,456) ">
		<g>
			<g id="____0_Layer0_0_MEMBER_1_MEMBER_11_FILL">
				<path d="M-395.852,319.496l0.117,8.436l38.366-0.645l1.113,69.236l9.781-0.176l-1.229-77.611L-395.852,319.496z"/>
			</g>
		</g>
	</g>
	<g transform="matrix( 1, 0, 0, 1, 818,456) ">
		<g>
			<g id="____0_Layer0_0_MEMBER_1_MEMBER_12_FILL">
				<path d="M-461.749,305.85l-9.196-2.227l-18.275,75.445l11.715,2.811l18.51-29.58l6.561-11.363l0.41,0.117l3.514,47.855
					l11.716,2.869l18.333-75.443l-9.02-2.168l-9.138,37.723c-0.82,3.438-1.738,8.045-2.754,13.824
					c-0.937,5.193-1.64,9.605-2.108,13.238l-0.234-0.059l-0.762-15.816l-3.396-32.215l-6.912-1.699l-17.982,27.061l-7.85,13.707
					l-0.351-0.117c1.757-5.271,3.144-9.527,4.158-12.77c1.875-5.896,3.183-10.387,3.925-13.473L-461.749,305.85z"/>
			</g>
		</g>
	</g>
	<g transform="matrix( 1, 0, 0, 1, 818,456) ">
		<g>
			<g id="____0_Layer0_0_MEMBER_1_MEMBER_13_FILL">
				<path d="M-503.102,290.15l-18.803,35.965c-1.405,2.734-3.124,6.424-5.154,11.072c-2.538,5.896-4.159,9.566-4.861,11.012
					l-0.234-0.059l0.819-17.748l0.527-54.709l-9.665-5.037l-35.906,68.824l8.436,4.393l18.567-35.672
					c1.523-2.889,3.3-6.658,5.331-11.305c3.007-6.795,4.646-10.504,4.92-11.129l0.234,0.117l-0.879,17.689l-0.527,54.709
					l9.665,5.037l35.906-68.824L-503.102,290.15z"/>
			</g>
		</g>
	</g>
	<g transform="matrix( 1, 0, 0, 1, 818,456) ">
		<g>
			<g id="____0_Layer0_0_MEMBER_1_MEMBER_14_FILL">
				<path d="M-571.81,259.691c0.664-8.98-2.343-16.4-9.021-22.258c-6.678-5.896-14.429-7.928-23.254-6.092
					c-9.021,1.836-17.67,7.459-25.949,16.869c-8.161,9.256-12.535,18.432-13.12,27.531c-0.586,8.824,2.46,16.186,9.138,22.082
					c6.677,5.857,14.37,7.947,23.078,6.268c8.942-1.719,17.494-7.225,25.655-16.518
					C-577.004,278.162-572.513,268.869-571.81,259.691 M-586.63,243.994c4.451,3.904,6.131,9.139,5.037,15.697
					c-1.094,6.678-4.9,13.707-11.422,21.088c-6.365,7.264-12.75,11.813-19.154,13.648c-6.248,1.795-11.598,0.742-16.049-3.164
					c-4.452-3.904-6.189-9.078-5.214-15.521c1.016-6.6,4.726-13.512,11.13-20.736c6.482-7.381,12.964-12.047,19.446-13.998
					C-596.49,239.094-591.082,240.09-586.63,243.994z"/>
			</g>
		</g>
	</g>
	<g transform="matrix( 1, 0, 0, 1, 818,456) ">
		<g>
			<g id="____0_Layer0_0_MEMBER_1_MEMBER_15_FILL">
				<path d="M-651.179,209.025l-7.731-11.07c-5.037-7.225-10.583-11.773-16.636-13.648c-6.481-1.992-12.983-0.723-19.505,3.807
					c-6.678,4.648-10.036,10.232-10.075,16.754c-0.039,5.779,2.558,12.418,7.791,19.914l13.354,19.213l63.671-44.4l-5.682-8.141
					L-651.179,209.025 M-664.827,203.578l7.028,10.074l-25.245,17.572l-7.029-10.074c-3.943-5.662-5.936-10.387-5.975-14.176
					c0-4.021,2.227-7.594,6.678-10.719c4.491-3.123,8.747-4.061,12.77-2.813C-672.657,194.615-668.732,197.994-664.827,203.578z"/>
			</g>
		</g>
	</g>
	<g transform="matrix( 1, 0, 0, 1, 818,456) ">
		<g>
			<g id="____0_Layer0_0_MEMBER_1_MEMBER_16_FILL">
				<path d="M-659.848,84.672c-1.015-2.656-2.577-5.176-4.686-7.557l-6.795,4.51c1.25,1.328,2.284,2.988,3.104,4.979
					c1.601,4.141,2.03,7.947,1.289,11.422c-0.635,3.07-2.138,5.688-4.511,7.85c-3.428-5.404-8.485-9.076-15.171-11.012
					c-8.864-2.539-19.134-1.563-30.811,2.928c-11.52,4.414-19.661,10.506-24.426,18.275c-4.607,7.576-5.311,15.523-2.108,23.84
					c3.202,8.318,9.04,13.746,17.514,16.285c8.747,2.615,18.881,1.697,30.4-2.754c11.676-4.451,19.955-10.602,24.836-18.451
					c3.862-6.174,5.093-12.576,3.69-19.213c4.302-3.795,7.191-8.148,8.669-13.061C-657.095,96.973-657.427,90.959-659.848,84.672
					 M-676.6,114.018c2.147,5.545,1.229,10.953-2.753,16.225c-4.101,5.428-10.896,9.957-20.385,13.59
					c-9.02,3.475-16.791,4.549-23.313,3.221c-6.365-1.328-10.621-4.764-12.769-10.309c-2.109-5.506-1.23-10.895,2.636-16.166
					c3.943-5.35,10.426-9.744,19.446-13.18c9.45-3.633,17.514-4.803,24.191-3.516C-683.063,105.094-678.749,108.473-676.6,114.018z"
					/>
			</g>
		</g>
	</g>
	<g transform="matrix( 1, 0, 0, 1, 818,456) ">
		<g>
			<g id="____0_Layer0_0_MEMBER_1_MEMBER_17_FILL">
				<path d="M-692.767,6.357l-31.161,23.723c-1.387-3.652-3.3-6.697-5.741-9.139c-4.646-4.568-10.68-6.404-18.1-5.506
					c-14.487,1.836-20.618,11.754-18.392,29.756l2.987,24.016l77.025-9.547l-1.23-10.018l-32.509,4.102l-1.698-13.648l30.225-22.609
					L-692.767,6.357 M-734.883,28.732c2.851,2.85,4.667,7.283,5.447,13.297l1.523,12.711l-28.526,3.514l-1.581-12.652
					c-0.742-6.209-0.273-10.934,1.405-14.176c1.797-3.475,5.155-5.506,10.075-6.09C-741.658,24.711-737.772,25.842-734.883,28.732z"
					/>
			</g>
		</g>
	</g>
	<g transform="matrix( 1, 0, 0, 1, 818,456) ">
		<g>
			<g id="____0_Layer0_0_MEMBER_1_MEMBER_18_FILL">
				<path d="M-740.974-38.335c-2.499,2.694-5.389,3.846-8.669,3.456c-3.437-0.391-5.994-2.07-7.673-5.038
					c-1.719-2.929-2.305-6.658-1.758-11.188c0.859-7.146,3.983-13.179,9.372-18.1l-5.74-5.857c-3.28,2.577-5.975,5.76-8.083,9.548
					c-2.265,4.061-3.671,8.415-4.218,13.062c-0.859,7.341,0.391,13.628,3.749,18.861c3.319,5.193,7.907,8.123,13.765,8.786
					c5.155,0.625,9.724-0.663,13.707-3.865c2.929-2.383,5.623-5.858,8.083-10.427l6.268-10.602c2.655-4.686,4.725-7.732,6.209-9.138
					c2.46-2.421,5.545-3.417,9.255-2.987c3.593,0.43,6.307,2.226,8.142,5.389c1.913,3.28,2.577,7.517,1.991,12.71
					c-0.468,4.256-1.815,8.279-4.041,12.067c-2.069,3.592-4.765,6.716-8.084,9.371l6.15,6.678c3.983-3.124,7.225-6.912,9.724-11.363
					c2.616-4.686,4.257-9.782,4.921-15.288c0.937-8.278-0.43-15.19-4.101-20.735c-3.554-5.311-8.474-8.337-14.761-9.079
					c-5.271-0.586-9.841,0.566-13.707,3.456c-3.124,2.343-6.053,6.092-8.786,11.246l-6.092,10.25
					C-737.655-42.826-739.529-39.897-740.974-38.335z"/>
			</g>
		</g>
	</g>
	<g transform="matrix( 1, 0, 0, 1, 818,456) ">
		<g>
			<g id="____0_Layer0_0_MEMBER_1_MEMBER_19_FILL">
				<path d="M-734.238-146.406l8.962-24.074l-7.849-2.929l-21.497,57.403l7.907,2.929l8.962-24.016l64.843,24.25l3.455-9.313
					L-734.238-146.406z"/>
			</g>
		</g>
	</g>
	<g transform="matrix( 1, 0, 0, 1, 818,456) ">
		<g>
			<g id="____0_Layer0_0_MEMBER_1_MEMBER_20_FILL">
				<path d="M-708.407-217.164l-5.682,8.317l39.831,27.237c8.786,6.014,16.713,8.455,23.781,7.322
					c6.404-1.015,11.891-4.881,16.46-11.598c4.529-6.678,6.111-13.16,4.744-19.447c-1.523-6.951-6.658-13.433-15.405-19.447
					l-39.831-27.237l-5.447,7.908l40.065,27.413c6.248,4.257,9.996,8.728,11.246,13.414c1.133,4.139,0.273,8.278-2.577,12.417
					c-2.812,4.1-6.326,6.365-10.544,6.795c-4.803,0.468-10.328-1.425-16.576-5.682L-708.407-217.164z"/>
			</g>
		</g>
	</g>
	<g transform="matrix( 1, 0, 0, 1, 818,456) ">
		<g>
			<g id="____0_Layer0_0_MEMBER_1_MEMBER_21_FILL">
				<path d="M-590.32-253.012l-0.352,0.292c-5.428-3.202-12.965-7.888-22.609-14.058l-37.195-22.903l-7.907,7.087l70.289,41.237
					l8.61-7.732l-33.445-74.214l-7.557,6.794l18.686,39.479c2.655,5.389,4.607,9.372,5.857,11.949
					C-593.796-260.587-591.921-256.565-590.32-253.012z"/>
			</g>
		</g>
	</g>
	<g transform="matrix( 1, 0, 0, 1, 818,456) ">
		<g>
			<g id="____0_Layer0_0_MEMBER_1_MEMBER_22_FILL">
				<path d="M-526.298-374.496l-9.431,4.979l18.217,45.688c1.562,4.022,3.943,9.509,7.146,16.459l-0.41,0.234
					c-4.803-6.014-8.728-10.68-11.773-14l-20.032-22.024l-8.376,4.452l6.912,28.994c1.483,5.702,3.162,11.559,5.037,17.573
					l-0.293,0.176c-2.03-3.437-5.311-8.494-9.841-15.171l-27.939-40.358l-9.782,5.271l46.977,63.026l10.661-5.682l-8.025-31.103
					c-0.741-3.007-2.128-7.556-4.158-13.648l0.352-0.117c2.421,3.28,5.447,6.931,9.079,10.953l21.32,24.016l10.896-5.799
					L-526.298-374.496z"/>
			</g>
		</g>
	</g>
	<g transform="matrix( 1, 0, 0, 1, 818,456) ">
		<g>
			<g id="____0_Layer0_0_MEMBER_1_MEMBER_23_FILL">
				<path d="M-455.247-375.492c-0.781,3.319-1.641,7.439-2.577,12.359l-0.469,0.117c-1.641-1.796-4.589-4.959-8.845-9.489
					l-15.405-16.459l-10.661,2.636l30.166,31.103l-12.71,44.575l10.191-2.577l6.209-23.02c1.328-5.701,2.323-10.27,2.987-13.707
					l0.469-0.117l26.065,27.881l10.778-2.753l-32.158-32.744l11.716-42.115l-10.251,2.577L-455.247-375.492z"/>
			</g>
		</g>
	</g>
	<g transform="matrix( 1, 0, 0, 1, 818,456) ">
		<g>
			<g id="____0_Layer0_0_MEMBER_1_MEMBER_24_FILL">
				<path d="M-361.411-382.345c-1.327,2.851-4.256,8.923-8.786,18.217l-0.468,0.059c-1.367-2.5-2.929-5.526-4.687-9.079
					c-1.016-1.953-2.519-4.92-4.51-8.903l-11.949-22.786l-10.544,0.176l26.827,49.496l0.469,27.706l9.958-0.176l-0.469-27.647
					l25.187-50.375l-10.133,0.176L-361.411-382.345z"/>
			</g>
		</g>
	</g>
	<g transform="matrix( 1, 0, 0, 1, 818,456) ">
		<g>
			<g id="____0_Layer0_0_MEMBER_1_MEMBER_25_FILL">
				<path d="M-297.974-399.858l-1.991,8.142l38.366,9.196l-56.759,51.487l-1.405,5.857l54.532,13.062l1.992-8.142l-42.701-10.251
					l56.817-51.487l1.406-5.857L-297.974-399.858z"/>
			</g>
		</g>
	</g>
</g>
</svg>
