<?xml version="1.0" encoding="utf-8"?>
<!-- Generator: Adobe Illustrator 24.0.1, SVG Export Plug-In . SVG Version: 6.00 Build 0)  -->
<svg version="1.1" xmlns="http://www.w3.org/2000/svg" xmlns:xlink="http://www.w3.org/1999/xlink" x="0px" y="0px"
	 viewBox="0 0 600 600" style="enable-background:new 0 0 600 600;" xml:space="preserve">
<style type="text/css">
	.st0{fill:#FCFCFC;}
	.st1{fill:#FFFFCC;}
	.st2{fill:none;stroke:#FFCC00;stroke-width:7.9677;stroke-linecap:round;stroke-linejoin:round;stroke-miterlimit:3.1871;}
	.st3{fill:#996600;}
	.st4{fill:#993300;}
</style>
<g id="圖層_2">
	<circle class="st0" cx="299.8" cy="299.6" r="200.7"/>
</g>
<g id="圖層_1">
	<g transform="matrix( 0.7967681884765625, 0, 0, 0.7967681884765625, 10.65,10.75) ">
		<g transform="matrix( 1, 0, 0, 1, 0,0) ">
			<g>
				<g id="____0_Layer1_0_FILL">
					<path class="st1" d="M233.3,18.5c-20.7,7.7-40.5,17.5-59.6,29.2c-24.8,15.3-48.1,33.9-70.1,55.9C31.9,175.2-4,261.7-4,363.1
						C-4,464.5,31.9,551,103.6,622.7c71.7,71.7,158.2,107.5,259.6,107.5c101.4,0,188-35.8,259.7-107.5
						c71.7-71.7,107.5-158.2,107.5-259.6c0-101.4-35.8-187.9-107.5-259.6S464.6-4.1,363.2-4.1C316.8-4.1,273.5,3.5,233.3,18.5
						 M538.9,183.5c49.1,49.2,73.7,108.5,73.7,178c0,69.5-24.6,128.8-73.7,178s-108.5,73.7-178,73.7c-69.5,0-128.8-24.6-178-73.7
						c-49.1-49.1-73.7-108.5-73.7-178c0-69.5,24.6-128.8,73.7-178c15.1-15,31.1-27.8,48.1-38.3c13.1-8,26.7-14.7,40.8-20
						c27.6-10.3,57.3-15.4,89.1-15.5C430.4,109.8,489.7,134.4,538.9,183.5z"/>
				</g>
			</g>
			<g>
				<path id="____0_Layer1_0_1_STROKES" class="st2" d="M608.7,405.5c-12.2,68.4-46.8,122.5-103.7,162.3s-119.7,53.6-188.2,41.4
					c-68.4-12.2-122.5-46.8-162.3-103.7c-39.7-57-53.5-119.7-41.3-188.1c12.2-68.4,46.7-122.5,103.7-162.3
					c17.5-12.2,35.5-21.9,54-29.2c14.3-5.6,28.8-9.8,43.7-12.5c28.9-5.3,59.1-5.2,90.4,0.4c68.5,12.2,122.6,46.8,162.3,103.7
					C607,274.4,620.8,337.2,608.7,405.5z M730.3,363.1c0,101.4-35.8,187.9-107.5,259.6c-71.7,71.7-158.2,107.5-259.7,107.5
					c-101.4,0-187.9-35.8-259.6-107.5C31.9,551-4,464.5-4,363.1c0-101.4,35.8-187.9,107.5-259.6c22-22,45.3-40.6,70.1-55.9
					c19.1-11.7,38.9-21.4,59.6-29.2c40.2-15,83.5-22.6,129.9-22.6c101.4,0,188,35.9,259.7,107.6S730.3,261.7,730.3,363.1z"/>
			</g>
		</g>
		<g transform="matrix( 1, 0, 0, 1, 818,456) ">
			<g>
				<g id="____0_Layer0_0_MEMBER_0_FILL">
					<path class="st3" d="M-431.7-454.3l0.1-1c-40.1-2.6-79.4,1.4-117.9,11.8c-37.3,10.1-72.3,25.9-104.8,47.3
						c-32.2,21.2-60.4,46.9-84.5,77.2c-24.5,30.6-43.5,64.4-57,101.4l0.9,0.3c7-19.1,15.5-37.4,25.6-54.9
						c28.5-49.8,67-90.6,115.3-122.5c48.3-31.9,101-51.2,158-57.9c14.1-1.6,28-2.4,41.5-2.4C-446.8-455-439.2-454.8-431.7-454.3z"/>
				</g>
			</g>
		</g>
		<g transform="matrix( 1, 0, 0, 1, 818,456) ">
			<g>
				<g id="____0_Layer0_0_MEMBER_1_FILL">
					<path class="st3" d="M-329.2-433.8L-329.2-433.8l-0.4,0.9c31.7,11.7,61.3,27.5,88.6,47.4c41.8,30.6,75.6,68.6,101.5,114
						c26,45.7,41.4,94.4,46.2,146.2c1,10.5,1.4,21.4,1.4,32.8v1.5c0,6.9-0.2,14-0.7,21.3l1,0.1c2.6-40.1-1.4-79.4-11.8-117.9
						c-10.1-37.3-25.8-72.3-47.3-104.8c-21.2-32.2-46.9-60.4-77.2-84.5C-258.6-401.4-292.3-420.3-329.2-433.8z"/>
				</g>
			</g>
		</g>
		<g transform="matrix( 1, 0, 0, 1, 818,456) ">
			<g>
				<g id="____0_Layer0_0_MEMBER_2_FILL">
					<path class="st3" d="M-816.3-115.2l-1-0.1c-2.6,40.1,1.4,79.4,11.8,117.9c10.1,37.4,25.8,72.3,47.3,104.8
						c21.2,32.3,47,60.4,77.2,84.5c30.7,24.5,64.4,43.5,101.3,57l0.4-0.9c-31.7-11.7-61.2-27.5-88.6-47.4
						c-41.8-30.7-75.7-68.7-101.5-114.1c-26-45.7-41.4-94.5-46.1-146.4c-1-10.8-1.5-21.6-1.5-32.5l0-1.4
						C-817-100.9-816.7-108-816.3-115.2z"/>
				</g>
			</g>
		</g>
		<g transform="matrix( 1, 0, 0, 1, 818,456) ">
			<g>
				<g id="____0_Layer0_0_MEMBER_3_FILL">
					<path class="st3" d="M-113.1,32.7l-1-0.4c-7,19-15.5,37.4-25.6,55c-28.5,49.8-67,90.6-115.4,122.5
						c-48.3,31.9-101,51.1-158,57.8c-14.1,1.6-28,2.4-41.5,2.4c-7.6,0-15.2-0.3-22.8-0.8l0,1c7.8,0.5,15.6,0.8,23.4,0.8
						c32.1,0,63.6-4.2,94.5-12.5c37.4-10.1,72.3-25.9,104.8-47.3c32.3-21.2,60.4-46.9,84.5-77.2C-145.6,103.4-126.6,69.6-113.1,32.7
						z"/>
				</g>
			</g>
		</g>
		<g transform="matrix( 1, 0, 0, 1, 818,456) ">
			<g>
				<g id="____0_Layer0_0_MEMBER_4_FILL">
					<path class="st3" d="M-431.6-455.3l-0.1,1c7.6,0.5,15,1.2,22.4,2.1c27.5,3.5,54.1,9.9,79.7,19.3l0.4-1
						C-362.2-445.9-396.4-453.1-431.6-455.3z"/>
				</g>
			</g>
		</g>
		<g transform="matrix( 1, 0, 0, 1, 818,456) ">
			<g>
				<g id="____0_Layer0_0_MEMBER_5_FILL">
					<path class="st3" d="M-91.7-69.7l-1-0.1c-0.5,7.6-1.2,15-2.1,22.4c-3.5,27.5-9.9,54.1-19.3,79.7l1,0.4
						C-101-0.3-93.9-34.4-91.7-69.7z"/>
				</g>
			</g>
		</g>
		<g transform="matrix( 1, 0, 0, 1, 818,456) ">
			<g>
				<g id="____0_Layer0_0_MEMBER_6_FILL">
					<path class="st3" d="M-579.3,247.9l-0.4,0.9c33,12.1,67.1,19.3,102.4,21.4l0-1c-7.6-0.5-15-1.2-22.4-2.1
						C-527.1,263.7-553.7,257.3-579.3,247.9z"/>
				</g>
			</g>
		</g>
		<g transform="matrix( 1, 0, 0, 1, 818,456) ">
			<g>
				<g id="____0_Layer0_0_MEMBER_7_FILL">
					<path class="st3" d="M-794.9-217.3l-0.9-0.3c-12.1,33-19.2,67.1-21.4,102.4l1,0.1c0.5-7.6,1.2-15,2.1-22.4
						C-810.7-165.1-804.3-191.7-794.9-217.3z"/>
				</g>
			</g>
		</g>
		<g transform="matrix( 1, 0, 0, 1, 818,456) ">
			<g>
				<g id="____0_Layer0_0_MEMBER_8_FILL">
					<path class="st3" d="M-647.1-264.5l0.3-0.4l-78.5-70l-0.3,0.4c-30.9,34.6-54.4,73.6-70.3,117c-9.4,25.8-15.8,52.5-19.3,80
						c-1,8.1-1.7,15.6-2.1,22.5c-0.5,7.3-0.7,14.4-0.7,21.4v0.5l106,0.4l0-1.4c0-20.4,2.4-40.6,7.3-60.8l0-0.1
						c4.9-20.3,12.3-39.7,22-58.1C-672.9-231.9-661-248.9-647.1-264.5 M-794.9-217.3c5.7-15.4,12.3-30.2,19.8-44.5l91.4,48.4
						c-9.6,18.3-16.9,37.5-21.8,57.5L-806-181.1C-802.9-193.5-799.2-205.6-794.9-217.3 M-648.2-264.8
						c-13.9,15.6-25.6,32.5-35.1,50.5l-91.3-48.4c13.5-25.4,30-49.1,49.4-70.9L-648.2-264.8 M-816.3-115.2c0.5-7.6,1.2-15,2.1-22.4
						c1.8-14.2,4.4-28.4,7.9-42.6l100.5,25.2c-4.8,19.9-7.3,40.1-7.3,60.5l0,0.4l-104-0.4C-817-101.2-816.7-108.1-816.3-115.2z"/>
				</g>
			</g>
		</g>
		<g transform="matrix( 1, 0, 0, 1, 818,456) ">
			<g>
				<g id="____0_Layer0_0_MEMBER_9_FILL">
					<path class="st3" d="M-181.4-332.4l-0.4-0.4l-81.3,71.4l0.3,0.4c13.5,15.7,24.9,32.7,34.2,51l0.1,0.1
						c9.3,18.4,16.3,37.6,20.9,57.7c4.4,18.9,6.6,38.1,6.6,57.8v3.6l110,0.4v-2c0-44.2-7.8-86.9-23.3-128.2
						C-129.9-262-152.3-299.3-181.4-332.4 M-261.6-261.2l79.8-70.1c19.1,21.8,35.4,45.6,48.9,71.3l-94.8,49.3
						C-237.2-229.1-248.4-245.9-261.6-261.2 M-200-91.9v-2.6c0-19.6-2.2-38.7-6.5-57.5l104.5-25.3c6.7,27.8,10,56.1,10,84.8v1
						L-200-91.9 M-227.3-209.9l94.8-49.3c13.3,25.6,23.4,52.6,30.3,81L-206.7-153C-211.2-172.6-218.1-191.5-227.3-209.9z"/>
				</g>
			</g>
		</g>
		<g transform="matrix( 1, 0, 0, 1, 818,456) ">
			<g>
				<g id="____0_Layer0_0_MEMBER_10_FILL">
					<path class="st3" d="M-818-94.4l0,1.9c0,44.2,7.8,86.9,23.3,128.2c15.6,41.3,38,78.6,67.1,111.7l0.3,0.4l81-71.2l-0.3-0.4
						c-13.8-15.4-25.6-32.2-35.4-50.5c-9.9-18.4-17.3-37.7-22.3-57.8c-5.1-20.1-7.6-40.6-7.7-61.5V-94L-818-94.4 M-817-92.5l0-0.9
						l104,0.4c0.1,20.6,2.6,40.9,7.6,60.8L-807-7.7C-813.6-35.7-817-63.9-817-92.5 M-806.7-6.7l101.6-24.6c5,19.9,12.4,38.9,22,57
						l-93.3,48.5C-789.7,48.6-799.8,21.6-806.7-6.7 M-776,75.1l93.4-48.5c9.6,17.9,21.3,34.6,35,49.9l-79.5,69.9
						C-746.2,124.6-762.5,100.8-776,75.1z"/>
				</g>
			</g>
		</g>
		<g transform="matrix( 1, 0, 0, 1, 818,456) ">
			<g>
				<g id="____0_Layer0_0_MEMBER_11_FILL">
					<path class="st3" d="M-646.5,76.2l-0.3-0.3l-81.1,71.2l0.4,0.4c20,22.8,42.6,42.8,67.7,60c25.1,17.2,51.8,31,80.1,41.4
						c25.7,9.4,52.4,15.9,80,19.3l0.5,0.1l13.7-108.9l-0.5-0.1c-20.6-2.4-40.4-7.1-59.6-14.3c-19.2-7.2-37.4-16.6-54.5-28.2
						C-617.3,105.1-632.7,91.6-646.5,76.2 M-545.5,146.1c18.9,7.1,38.5,11.8,58.9,14.1l-13.5,106.9c-27.3-3.5-53.7-9.9-79.2-19.2
						l-4.7-1.8L-545.5,146.1 M-646.9,77.3c13.7,15.2,29,28.6,45.8,40.1l-60.8,87.4c-23.8-16.6-45.3-35.8-64.4-57.6L-646.9,77.3
						 M-600.3,117.9c16.8,11.4,34.8,20.7,53.8,27.9l-38.4,100.1c-27-10.4-52.4-24-76.3-40.6L-600.3,117.9z"/>
				</g>
			</g>
		</g>
		<g transform="matrix( 1, 0, 0, 1, 818,456) ">
			<g>
				<g id="____0_Layer0_0_MEMBER_12_FILL">
					<path class="st3" d="M-201-91.9v0.5c-0.3,20.7-2.9,40.9-8,60.5C-214-11.2-221.4,7.7-231,25.8l-0.1,0.1
						c-9.7,18-21.3,34.7-34.9,49.9l-0.4,0.3l82.7,73.9l0.3-0.4c30.9-34.6,54.4-73.6,70.3-117c9.4-25.8,15.8-52.5,19.3-80
						c1-8.1,1.7-15.6,2.1-22.5C-91.2-77-91-84.1-91-91v-0.5L-201-91.9 M-207.8-31.2c4.9-19.5,7.6-39.5,7.9-59.8l108,0.4
						c0,6.7-0.2,13.7-0.7,20.8c-0.5,7.6-1.2,15-2.1,22.4c-1.8,14.2-4.4,28.4-7.9,42.6L-207.8-31.2 M-208.1-30.2l105.2,26.4
						c-3.1,12.4-6.8,24.5-11.1,36.2c-5.7,15.4-12.3,30.2-19.8,44.5l-96.1-51C-220.4,8-213.2-10.7-208.1-30.2 M-264.9,76.1
						c13.5-15.2,25-31.6,34.5-49.3l96.1,51c-13.5,25.4-30,49.1-49.5,70.9L-264.9,76.1z"/>
				</g>
			</g>
		</g>
		<g transform="matrix( 1, 0, 0, 1, 818,456) ">
			<g>
				<g id="____0_Layer0_0_MEMBER_13_FILL">
					<path class="st3" d="M-409.2-453.1l-0.4-0.1l-13.3,105.4l0.5,0.1c20.7,2.8,40.7,8,60,15.6c19.1,7.5,37.1,17.4,54.2,29.5l0,0.1
						c16.8,12,31.9,25.8,45.5,41.5l0.4,0.4L-181-332l-0.3-0.4c-20-22.8-42.6-42.8-67.7-60s-51.8-31-80.2-41.5
						C-355-443.3-381.7-449.7-409.2-453.1 M-329.6-432.9l4.6,1.8l-37.6,97.9c-19.2-7.5-38.9-12.6-59.3-15.4l13-103.5
						C-381.5-448.6-355.1-442.2-329.6-432.9 M-247.7-390.3l-60.3,86.6c-16.9-12-34.8-21.7-53.6-29.2l37.6-98
						C-297-420.4-271.6-406.9-247.7-390.3 M-307.2-303.1l60.3-86.6c23.8,16.6,45.3,35.8,64.4,57.6l-79.8,70.1
						C-275.5-277.4-290.5-291.1-307.2-303.1z"/>
				</g>
			</g>
		</g>
		<g transform="matrix( 1, 0, 0, 1, 818,456) ">
			<g>
				<g id="____0_Layer0_0_MEMBER_14_FILL">
					<path class="st3" d="M-408.7-453.1l-0.5,0c-8.1-1-15.6-1.7-22.4-2.1c-7.5-0.5-15.2-0.8-22.9-0.8c-52.8,0-103.1,10.9-151,32.8
						c-46.2,21.1-86.2,50.7-120.1,88.6l-0.4,0.4l78.5,70l0.4-0.3c13.9-15.6,29.5-29.3,46.8-41.1c17.3-11.8,35.8-21.3,55.3-28.6
						c19.5-7.2,39.7-12,60.5-14.3c9.7-1,19-1.5,28-1.5c11.2,0,22.6,0.8,34.1,2.3l0.5,0.1L-408.7-453.1 M-581.1-432
						c27-10.1,55-16.9,84-20.4l12.1,103.1c-20.8,2.3-40.7,7-59.8,14.1L-581.1-432 M-431.7-454.3c7.2,0.4,14.5,1.1,21.9,2l-13,103.5
						c-11.1-1.5-22.4-2.3-33.7-2.3c-8.7,0-17.9,0.5-27.6,1.5l-12.1-103.1c14.1-1.6,28-2.5,41.7-2.5
						C-446.8-455-439.2-454.8-431.7-454.3 M-545.8-334.9c-19.4,7.2-37.7,16.6-54.7,28.2l-58.3-85.2c24-16.3,49.5-29.6,76.7-39.8
						L-545.8-334.9 M-601.3-306.2c-17,11.7-32.5,25.2-46.3,40.6l-77-68.8c19.4-21.6,41-40.6,65-57L-601.3-306.2z"/>
				</g>
			</g>
		</g>
		<g transform="matrix( 1, 0, 0, 1, 818,456) ">
			<g>
				<g id="____0_Layer0_0_MEMBER_15_FILL">
					<path class="st3" d="M-265.7,75.4l-0.3,0.4c-13.6,15.2-28.8,28.6-45.7,40.3c-16.9,11.6-34.9,21-54,28.3
						c-19.2,7.3-38.9,12.2-59.3,14.7c-10.8,1.3-21.3,1.9-31.5,1.9c-9.7,0-19.6-0.6-29.6-1.8l-0.5-0.1l-13.7,108.9l0.5,0
						c8.1,1,15.6,1.7,22.5,2.1c7.6,0.5,15.2,0.8,22.8,0.8c52.9,0,103.2-10.9,151-32.8c46.2-21.1,86.2-50.7,120.1-88.6l0.3-0.4
						L-265.7,75.4 M-310.8,116.6c16.7-11.6,31.7-24.8,45.1-39.8l81.2,72.5c-19.4,21.6-41,40.6-65,57L-310.8,116.6 M-311.6,117.2
						l61.4,89.8c-24,16.3-49.5,29.6-76.7,39.8l-38.1-101.6C-346.1,137.9-328.3,128.6-311.6,117.2 M-485.7,160.3
						c10,1.1,19.8,1.7,29.2,1.7c10.3,0,20.7-0.6,31.1-1.9l12.6,107.4c-14.1,1.6-28,2.5-41.8,2.5c-7.6,0-15.2-0.3-22.8-0.8
						c-7.2-0.4-14.5-1.1-21.9-2L-485.7,160.3 M-424.3,160c19.9-2.4,39.4-7.3,58.5-14.4l38.1,101.6c-27,10.1-55,16.9-84,20.4
						L-424.3,160z"/>
				</g>
			</g>
		</g>
		<g transform="matrix( 1, 0, 0, 1, 818,456) ">
			<g>
				<g id="____0_Layer0_1_MEMBER_0_FILL">
					<path class="st4" d="M-350.8-347.1l7.7,4.1l14.9-14.9l21.3,11.2l-3.9,20.7l8,4.3l11.1-69.1l-8.6-4.5L-350.8-347.1
						 M-305.6-353.7l-17.5-9.3l7.5-7.4c4.9-4.9,10.3-10.4,16.2-16.7l0.4,0.1c-1.5,6.8-3,14.4-4.5,22.9L-305.6-353.7z"/>
				</g>
			</g>
		</g>
		<g transform="matrix( 1, 0, 0, 1, 818,456) ">
			<g>
				<g id="____0_Layer0_1_MEMBER_1_FILL">
					<path class="st4" d="M-236.4-305.3c-0.2-3.7-1.9-7.5-5.1-11.3l0.3-0.3c3.5,1.8,6.9,2.4,10.2,1.7c3.1-0.6,5.8-2.2,8.1-4.8
						c3.7-4.1,4.9-8.6,3.6-13.4c-1.2-4.4-4.5-9-9.9-13.7l-14.1-12.5l-44,49.6l15.2,13.5c5.8,5.1,11.3,7.9,16.7,8.4
						c5.7,0.5,10.7-1.6,14.9-6.4C-237.5-297.9-236.2-301.5-236.4-305.3 M-234.7-342.6c3.9,3.5,6.3,6.6,7.2,9.3
						c0.9,2.9,0.2,5.6-2.1,8.3c-2.5,2.8-5.3,4.1-8.3,3.8c-3.1-0.3-6.7-2.3-10.9-6l-6.7-6l13.8-15.6L-234.7-342.6 M-268.2-302.7
						l-8-7.1l16-18.1l8,7.1c4.5,3.9,7.2,7.5,8.2,10.9c1,3.4,0.2,6.6-2.4,9.6C-252.1-294.1-259.3-294.8-268.2-302.7z"/>
				</g>
			</g>
		</g>
		<g transform="matrix( 1, 0, 0, 1, 818,456) ">
			<g>
				<g id="____0_Layer0_1_MEMBER_2_FILL">
					<path class="st4" d="M-189.7-284.5c6.1,0.4,10.9,3.2,14.5,8.4c3,4.2,3.9,9,2.7,14.4l7.1,0.9c0.7-3.1,0.8-6.3,0.4-9.4
						c-0.6-3.7-1.9-7-4.1-10.1c-5-7.2-11.5-11.3-19.6-12.3c-8.3-1-16.8,1.5-25.5,7.5c-8.7,6-14.1,13.1-16.1,21.2
						c-1.9,7.8-0.5,15.1,4.3,22.1c4.7,6.8,11.2,10.6,19.6,11.4l1.4-6.9c-6.4-0.8-11.2-3.4-14.4-8.1c-3.6-5.2-4.5-10.8-2.6-16.7
						c1.8-5.9,6.2-11.2,13-15.9C-202.3-282.8-195.8-284.9-189.7-284.5z"/>
				</g>
			</g>
		</g>
		<g transform="matrix( 1, 0, 0, 1, 818,456) ">
			<g>
				<g id="____0_Layer0_1_MEMBER_3_FILL">
					<path class="st4" d="M-136.8-216.5l-5.8-15.3l-62,23.6l6,15.7c3.4,9.1,8.8,15,16.2,17.9c7.3,2.8,15.9,2.4,25.8-1.4
						c9.9-3.8,16.5-9.1,19.9-16C-133.3-199.1-133.3-207.2-136.8-216.5 M-146.1-221.3l2.6,6.8c2.7,7,2.6,13-0.3,18.2
						c-2.8,5.1-8.1,9.1-15.9,12.1c-7.9,3-14.7,3.6-20.2,1.7c-5.7-1.9-9.9-6.4-12.5-13.3l-2.6-6.8L-146.1-221.3z"/>
				</g>
			</g>
		</g>
		<g transform="matrix( 1, 0, 0, 1, 818,456) ">
			<g>
				<g id="____0_Layer0_1_MEMBER_4_FILL">
					<path class="st4" d="M-183.2-142.2l5.1,41.7l7.1-0.8l-4-33.3l23.9-2.9l3.3,27.3l7.1-0.9l-3.3-27.3l20.6-2.5l4,32.3l7.1-0.9
						l-4.9-40.7L-183.2-142.2z"/>
				</g>
			</g>
		</g>
		<g transform="matrix( 1, 0, 0, 1, 818,456) ">
			<g>
				<g id="____0_Layer0_1_MEMBER_5_FILL">
					<path class="st4" d="M-178.9-73.8l-1,8.4l29.4,3.5l-3.2,27.1l7.1,0.8l3.3-27.1l22.2,2.6l-3.8,32l7.1,0.9l4.8-40.4L-178.9-73.8z
						"/>
				</g>
			</g>
		</g>
		<g transform="matrix( 1, 0, 0, 1, 818,456) ">
			<g>
				<g id="____0_Layer0_1_MEMBER_6_FILL">
					<path class="st4" d="M-156.9-4.1c-9.9-3.8-18.7-4.2-26.5-1.3c-7.5,2.7-12.7,8.1-15.8,16.1c-1.4,3.8-2.1,7.7-2,11.6
						c0.1,3.5,0.9,6.7,2.2,9.6l26.1,9.9l7.4-19.7l-6.6-2.5l-4.6,12.3l-16.1-6.1c-0.7-1.6-1-3.4-0.9-5.6c0.1-2.1,0.5-4.3,1.3-6.5
						c2.3-6,6.3-9.8,12.2-11.5c5.7-1.6,12.5-0.9,20.3,2c7.7,2.9,13.1,7,16.3,12.2c3.1,5.1,3.6,10.6,1.4,16.5c-1,2.8-2.5,5.1-4.4,6.9
						c-1.6,1.4-3.5,2.6-5.9,3.6l3.3,6.4c6.8-2.9,11.5-7.6,14-14.3c3.1-8.2,2.7-15.8-1.1-23C-140.1,5.1-147-0.4-156.9-4.1z"/>
				</g>
			</g>
		</g>
		<g transform="matrix( 1, 0, 0, 1, 818,456) ">
			<g>
				<g id="____0_Layer0_1_MEMBER_7_FILL">
					<path class="st4" d="M-209.7,95.3l-25.6-17.7l-4.9,7.1l54.6,37.6l4.9-7.1l-22.8-15.7l15.6-22.7l22.8,15.7l4.8-7L-214.8,48
						l-4.9,7.1l25.7,17.7L-209.7,95.3z"/>
				</g>
			</g>
		</g>
		<g transform="matrix( 1, 0, 0, 1, 818,456) ">
			<g>
				<g id="____0_Layer0_1_MEMBER_8_FILL">
					<path class="st4" d="M-251.3,107.8l-4.8-5.4l-31,27.5l4.8,5.4l12.3-11l34.6,38.8l-12.3,11l4.8,5.3l30.9-27.6l-4.8-5.3
						l-12.3,10.9l-34.5-38.8L-251.3,107.8z"/>
				</g>
			</g>
		</g>
		<g transform="matrix( 1, 0, 0, 1, 818,456) ">
			<g>
				<g id="____0_Layer0_1_MEMBER_9_FILL">
					<path class="st4" d="M-301.9,152.4c-3.7-2.2-7.6-3.3-11.8-3.3c-3.8,0-7.5,0.9-10.9,2.8c-6.8,3.6-10.9,8.2-12.1,13.9
						c-1.1,4.9-0.1,10.3,3.1,16.3l21.1,40l32.1-16.9l-3.4-6.4l-24.5,13l-17.4-33c-2.5-4.8-3.4-8.8-2.6-12.1c0.7-3.2,3.2-6,7.4-8.2
						c2.3-1.2,4.9-1.8,7.8-1.6c3,0.1,5.9,1,8.9,2.7L-301.9,152.4z"/>
				</g>
			</g>
		</g>
		<g transform="matrix( 1, 0, 0, 1, 818,456) ">
			<g>
				<g id="____0_Layer0_1_MEMBER_10_FILL">
					<path class="st4" d="M-406.3,182.4l-9.3,2.3L-383,219l-14.4,29.4l9.4-2.3l19-38.9l0.3-0.1l8,32.2l8.4-2.1l-16-64.3l-8.3,2.1
						l5.1,20.5l-7.8,16L-406.3,182.4z"/>
				</g>
			</g>
		</g>
		<g transform="matrix( 1, 0, 0, 1, 818,456) ">
			<g>
				<g id="____0_Layer0_1_MEMBER_11_FILL">
					<path class="st4" d="M-478.5,186.4l0.1,7.2l32.8-0.6l1,59.1l8.4-0.2l-1.1-66.3L-478.5,186.4z"/>
				</g>
			</g>
		</g>
		<g transform="matrix( 1, 0, 0, 1, 818,456) ">
			<g>
				<g id="____0_Layer0_1_MEMBER_12_FILL">
					<path class="st4" d="M-534.8,174.7l-7.9-1.9l-15.6,64.4l10,2.4l15.8-25.3l5.6-9.7l0.3,0.1l3,40.9l10,2.4l15.6-64.4l-7.7-1.8
						l-7.8,32.2c-0.7,2.9-1.5,6.9-2.4,11.8c-0.8,4.4-1.4,8.2-1.8,11.3l-0.2-0.1l-0.6-13.5l-2.9-27.5l-5.9-1.4l-15.3,23.1l-6.7,11.7
						l-0.3-0.1c1.5-4.5,2.7-8.1,3.5-10.9c1.6-5,2.7-8.9,3.4-11.5L-534.8,174.7z"/>
				</g>
			</g>
		</g>
		<g transform="matrix( 1, 0, 0, 1, 818,456) ">
			<g>
				<g id="____0_Layer0_1_MEMBER_13_FILL">
					<path class="st4" d="M-570.1,161.3l-16.1,30.7c-1.2,2.3-2.7,5.5-4.4,9.5c-2.2,5-3.6,8.2-4.2,9.4l-0.2-0.1l0.7-15.2l0.5-46.7
						l-8.3-4.3l-30.7,58.8l7.2,3.8l15.9-30.5c1.3-2.5,2.8-5.7,4.5-9.6c2.6-5.8,4-9,4.2-9.5l0.2,0.1l-0.8,15.1l-0.4,46.7l8.3,4.3
						l30.6-58.8L-570.1,161.3z"/>
				</g>
			</g>
		</g>
		<g transform="matrix( 1, 0, 0, 1, 818,456) ">
			<g>
				<g id="____0_Layer0_1_MEMBER_14_FILL">
					<path class="st4" d="M-628.7,135.3c0.6-7.7-2-14-7.7-19c-5.7-5-12.3-6.8-19.8-5.2c-7.7,1.6-15.1,6.4-22.2,14.4
						c-7,7.9-10.7,15.7-11.2,23.5c-0.5,7.5,2.1,13.8,7.8,18.9c5.7,5,12.3,6.8,19.7,5.3c7.6-1.5,14.9-6.2,21.9-14.1
						C-633.2,151.1-629.3,143.1-628.7,135.3 M-641.4,121.9c3.8,3.3,5.2,7.8,4.3,13.4c-0.9,5.7-4.2,11.7-9.8,18
						c-5.4,6.2-10.9,10.1-16.4,11.6c-5.3,1.5-9.9,0.6-13.7-2.7s-5.3-7.8-4.4-13.3c0.9-5.6,4-11.5,9.5-17.7
						c5.5-6.3,11.1-10.3,16.6-12C-649.8,117.7-645.2,118.6-641.4,121.9z"/>
				</g>
			</g>
		</g>
		<g transform="matrix( 1, 0, 0, 1, 818,456) ">
			<g>
				<g id="____0_Layer0_1_MEMBER_15_FILL">
					<path class="st4" d="M-696.5,92.1l-6.6-9.5c-4.3-6.2-9-10.1-14.2-11.7c-5.5-1.7-11.1-0.6-16.7,3.3c-5.7,4-8.6,8.7-8.6,14.3
						c0,4.9,2.2,10.6,6.6,17l11.4,16.4l54.4-37.9l-4.8-7L-696.5,92.1 M-708.2,87.4l6,8.6l-21.5,15l-6-8.6c-3.4-4.8-5.1-8.9-5.1-12.1
						c0-3.4,1.9-6.5,5.7-9.2c3.8-2.7,7.5-3.5,10.9-2.4C-714.8,79.8-711.5,82.6-708.2,87.4z"/>
				</g>
			</g>
		</g>
		<g transform="matrix( 1, 0, 0, 1, 818,456) ">
			<g>
				<g id="____0_Layer0_1_MEMBER_16_FILL">
					<path class="st4" d="M-703.9-14.1c-0.9-2.3-2.2-4.4-4-6.4l-5.8,3.8c1.1,1.1,2,2.6,2.7,4.3c1.4,3.5,1.7,6.8,1.1,9.8
						c-0.5,2.6-1.8,4.9-3.8,6.7c-2.9-4.6-7.2-7.7-13-9.4c-7.6-2.2-16.3-1.3-26.3,2.5c-9.8,3.8-16.8,9-20.9,15.6
						c-3.9,6.5-4.5,13.3-1.8,20.4c2.7,7.1,7.7,11.7,15,13.9c7.5,2.2,16.1,1.4,26-2.4c10-3.8,17-9.1,21.2-15.8
						c3.3-5.3,4.3-10.7,3.1-16.4c3.7-3.2,6.1-7,7.4-11.2C-701.5-3.6-701.8-8.7-703.9-14.1 M-718.2,11c1.8,4.7,1.1,9.4-2.3,13.9
						c-3.5,4.6-9.3,8.5-17.4,11.6c-7.7,3-14.3,3.9-19.9,2.8c-5.4-1.1-9.1-4.1-10.9-8.8c-1.8-4.7-1-9.3,2.3-13.8
						c3.4-4.6,8.9-8.3,16.6-11.3c8.1-3.1,15-4.1,20.7-3C-723.7,3.3-720,6.2-718.2,11z"/>
				</g>
			</g>
		</g>
		<g transform="matrix( 1, 0, 0, 1, 818,456) ">
			<g>
				<g id="____0_Layer0_1_MEMBER_17_FILL">
					<path class="st4" d="M-732-80.9l-26.6,20.2c-1.2-3.1-2.8-5.7-4.9-7.8c-4-3.9-9.1-5.5-15.5-4.7c-12.4,1.6-17.6,10-15.7,25.4
						l2.6,20.5l65.8-8.2l-1.1-8.6l-27.8,3.5l-1.4-11.7l25.8-19.3L-732-80.9 M-768-61.8c2.4,2.4,4,6.2,4.7,11.4l1.3,10.9l-24.3,3
						l-1.4-10.8c-0.6-5.3-0.2-9.3,1.2-12.1c1.5-3,4.4-4.7,8.6-5.2C-773.7-65.3-770.4-64.3-768-61.8z"/>
				</g>
			</g>
		</g>
		<g transform="matrix( 1, 0, 0, 1, 818,456) ">
			<g>
				<g id="____0_Layer0_1_MEMBER_18_FILL">
					<path class="st4" d="M-773.2-119.1c-2.1,2.3-4.6,3.3-7.4,2.9c-2.9-0.3-5.1-1.8-6.5-4.3c-1.5-2.5-2-5.7-1.5-9.5
						c0.7-6.1,3.4-11.3,8-15.5l-4.9-5c-2.8,2.2-5.1,4.9-6.9,8.1c-1.9,3.5-3.1,7.2-3.6,11.2c-0.7,6.3,0.3,11.6,3.2,16.1
						c2.8,4.4,6.8,6.9,11.8,7.5c4.4,0.5,8.3-0.6,11.7-3.3c2.5-2,4.8-5,6.9-8.9l5.4-9c2.3-4,4-6.6,5.3-7.8c2.1-2.1,4.7-2.9,7.9-2.5
						c3.1,0.4,5.4,1.9,7,4.6c1.6,2.8,2.2,6.4,1.7,10.9c-0.4,3.6-1.5,7.1-3.5,10.3c-1.8,3.1-4.1,5.7-6.9,8l5.3,5.7
						c3.4-2.7,6.2-5.9,8.3-9.7c2.2-4,3.6-8.4,4.2-13.1c0.8-7.1-0.4-13-3.5-17.7c-3-4.5-7.2-7.1-12.6-7.8c-4.5-0.5-8.4,0.5-11.7,2.9
						c-2.7,2-5.2,5.2-7.5,9.6l-5.2,8.8C-770.3-122.9-771.9-120.4-773.2-119.1z"/>
				</g>
			</g>
		</g>
		<g transform="matrix( 1, 0, 0, 1, 818,456) ">
			<g>
				<g id="____0_Layer0_1_MEMBER_19_FILL">
					<path class="st4" d="M-767.4-211.3l7.7-20.5l-6.7-2.5l-18.3,49l6.8,2.5l7.6-20.5l55.4,20.7l3-7.9L-767.4-211.3z"/>
				</g>
			</g>
		</g>
		<g transform="matrix( 1, 0, 0, 1, 818,456) ">
			<g>
				<g id="____0_Layer0_1_MEMBER_20_FILL">
					<path class="st4" d="M-745.3-271.7l-4.9,7.1l34,23.3c7.5,5.1,14.3,7.2,20.3,6.3c5.5-0.9,10.2-4.2,14.1-9.9
						c3.9-5.7,5.2-11.2,4-16.6c-1.3-5.9-5.7-11.5-13.2-16.6l-34-23.3l-4.6,6.8l34.2,23.4c5.3,3.6,8.5,7.5,9.6,11.5
						c1,3.5,0.2,7.1-2.2,10.6c-2.4,3.5-5.4,5.4-9,5.8c-4.1,0.4-8.8-1.2-14.2-4.9L-745.3-271.7z"/>
				</g>
			</g>
		</g>
		<g transform="matrix( 1, 0, 0, 1, 818,456) ">
			<g>
				<g id="____0_Layer0_1_MEMBER_21_FILL">
					<path class="st4" d="M-644.5-302.3l-0.3,0.3c-4.6-2.7-11.1-6.7-19.3-12l-31.8-19.5l-6.8,6l60,35.2l7.4-6.6l-28.5-63.4l-6.5,5.8
						l16,33.7c2.3,4.6,3.9,8,5,10.2C-647.5-308.8-645.9-305.4-644.5-302.3z"/>
				</g>
			</g>
		</g>
		<g transform="matrix( 1, 0, 0, 1, 818,456) ">
			<g>
				<g id="____0_Layer0_1_MEMBER_22_FILL">
					<path class="st4" d="M-589.9-406l-8,4.3l15.5,39c1.3,3.4,3.4,8.1,6.1,14.1l-0.4,0.2c-4.1-5.1-7.5-9.1-10-12l-17.1-18.8
						l-7.2,3.8l5.9,24.8c1.3,4.9,2.7,9.9,4.3,15l-0.3,0.1c-1.7-2.9-4.5-7.3-8.4-12.9l-23.8-34.5l-8.3,4.5l40.1,53.8l9.1-4.8
						l-6.8-26.6c-0.6-2.6-1.8-6.5-3.5-11.6l0.3-0.1c2.1,2.8,4.6,5.9,7.8,9.4l18.2,20.5l9.3-5L-589.9-406z"/>
				</g>
			</g>
		</g>
		<g transform="matrix( 1, 0, 0, 1, 818,456) ">
			<g>
				<g id="____0_Layer0_1_MEMBER_23_FILL">
					<path class="st4" d="M-529.2-406.9c-0.7,2.8-1.4,6.3-2.2,10.5l-0.4,0.1c-1.4-1.5-3.9-4.2-7.6-8.1l-13.1-14l-9.1,2.3l25.8,26.5
						l-10.8,38.1l8.7-2.2l5.3-19.7c1.1-4.9,2-8.8,2.5-11.7l0.4-0.1l22.3,23.8l9.2-2.4l-27.4-28l10-35.9l-8.8,2.2L-529.2-406.9z"/>
				</g>
			</g>
		</g>
		<g transform="matrix( 1, 0, 0, 1, 818,456) ">
			<g>
				<g id="____0_Layer0_1_MEMBER_24_FILL">
					<path class="st4" d="M-449.1-412.8c-1.1,2.4-3.6,7.6-7.5,15.5l-0.4,0.1c-1.2-2.1-2.5-4.7-4-7.8c-0.9-1.7-2.1-4.2-3.9-7.6
						l-10.2-19.5l-9,0.2l22.9,42.3l0.4,23.6l8.5-0.1l-0.4-23.6l21.5-43l-8.6,0.1L-449.1-412.8z"/>
				</g>
			</g>
		</g>
		<g transform="matrix( 1, 0, 0, 1, 818,456) ">
			<g>
				<g id="____0_Layer0_1_MEMBER_25_FILL">
					<path class="st4" d="M-395-427.7l-1.7,7l32.8,7.9l-48.5,43.9l-1.2,5l46.6,11.2l1.7-7l-36.4-8.8l48.5-44l1.2-5L-395-427.7z"/>
				</g>
			</g>
		</g>
	</g>
</g>
</svg>
