
<svg xmlns="http://www.w3.org/2000/svg" version="1.1" xmlns:xlink="http://www.w3.org/1999/xlink" preserveAspectRatio="none" x="0px" y="0px" width="500px" height="370px" viewBox="0 0 500 370">
<defs>
<g id="___0_Layer1_0_FILL">
<path fill="#69E2E2" stroke="none" d="
M 540.15 193.65
Q 540.15 181.25 531.35 172.45 522.55 163.65 510.15 163.65
L 30 163.65
Q 17.6 163.65 8.8 172.45 0 181.25 0 193.65
L 0 474.7
Q 0 487.1 8.8 495.9 17.6 504.7 30 504.7
L 510.15 504.7
Q 522.55 504.7 531.35 495.9 540.15 487.1 540.15 474.7
L 540.15 193.65
M 500.8 185.75
Q 508 185.75 513.05 190.8 518.15 195.9 518.15 203.1 518.15 210.3 513.05 215.35 508 220.45 500.8 220.45 493.6 220.45 488.5 215.35 483.4 210.3 483.4 203.1 483.4 195.9 488.5 190.8 493.6 185.75 500.8 185.75
M 42.8 185.75
Q 50 185.75 55.05 190.8 60.15 195.9 60.15 203.1 60.15 210.3 55.05 215.35 50 220.45 42.8 220.45 35.6 220.45 30.5 215.35 25.4 210.3 25.4 203.1 25.4 195.9 30.5 190.8 35.6 185.75 42.8 185.75 Z"/>
</g>

<g id="___0_Layer0_0_FILL">
<path fill="#CCCCCC" stroke="none" d="
M 23.7 -45.05
Q 20.6 -45.05 18.4 -42.85 16.2 -40.65 16.2 -37.55
L 16.2 187.55
Q 16.2 190.7 18.4 192.9 20.6 195.05 23.7 195.05 26.8 195.05 29 192.9 31.2 190.7 31.2 187.55
L 31.2 -37.55
Q 31.2 -40.65 29 -42.85 26.8 -45.05 23.7 -45.05 Z"/>
</g>

<g id="___0_Layer0_1_FILL">
<path fill="#CCCCCC" stroke="none" d="
M 23.7 -45.05
Q 20.6 -45.05 18.4 -42.85 16.2 -40.65 16.2 -37.55
L 16.2 187.55
Q 16.2 190.7 18.4 192.9 20.6 195.05 23.7 195.05 26.8 195.05 29 192.9 31.2 190.7 31.2 187.55
L 31.2 -37.55
Q 31.2 -40.65 29 -42.85 26.8 -45.05 23.7 -45.05 Z"/>
</g>

<g id="______0_Layer1_0_FILL">
<path fill="#FFFFFF" stroke="none" d="
M 440.3 -25.4
Q 426.15 -25.4 416.1 -15.4 406.1 -5.35 406.1 8.8 406.1 23 416.1 33 426.15 43.05 440.3 43.05 454.5 43.05 464.5 33 474.55 23 474.55 8.8 474.55 -5.35 464.5 -15.4 454.5 -25.4 440.3 -25.4 Z"/>
</g>

<g id="______0_Layer1_1_FILL">
<path fill="#FF9900" stroke="none" d="
M 78 39
Q 78 31.05 74.95 23.8 71.95 16.8 66.55 11.45 61.15 6.05 54.15 3.05 46.9 0 38.95 0 31 0 23.8 3.05 16.8 6.05 11.4 11.45 6 16.8 3.05 23.8 0 31.05 0 39 0 46.9 3.05 54.15 6 61.15 11.4 66.55 16.8 71.95 23.8 74.95 31 78 38.95 78 46.9 78 54.15 74.95 61.15 71.95 66.55 66.55 71.95 61.15 74.95 54.15 78 46.9 78 39
M 51.15 10.25
Q 56.75 12.6 61.05 16.95 65.35 21.25 67.75 26.85 70.2 32.65 70.2 39 70.2 45.35 67.75 51.15 65.35 56.75 61.05 61.05 56.75 65.35 51.15 67.75 45.35 70.2 39 70.2 32.65 70.2 26.85 67.75 21.25 65.35 16.95 61.05 12.6 56.75 10.25 51.15 7.8 45.35 7.8 39 7.8 32.65 10.25 26.85 12.6 21.25 16.95 16.95 21.25 12.6 26.85 10.25 32.65 7.8 39 7.8 45.35 7.8 51.15 10.25 Z"/>
</g>

<g id="___0_Layer0_0_MEMBER_0_FILL">
<path fill="#FFCE00" stroke="none" d="
M 48.75 39.7
Q 48.6 38.7 49.3 38.05
L 62.8 24.9
Q 63.65 24.05 63.25 22.95 62.9 21.85 61.75 21.7
L 43.1 19
Q 42.1 18.85 41.7 17.95
L 33.35 1.05
Q 32.85 0 31.7 0 30.55 0 30 1.05
L 21.65 17.95
Q 21.25 18.85 20.25 19
L 1.6 21.7
Q 0.45 21.85 0.1 22.95 -0.3 24.05 0.55 24.9
L 14.05 38.05
Q 14.75 38.7 14.6 39.7
L 11.4 58.25
Q 11.2 59.4 12.15 60.1 13.1 60.8 14.15 60.25
L 30.8 51.45
Q 31.7 51.05 32.55 51.45
L 49.2 60.25
Q 50.25 60.8 51.2 60.1 52.15 59.4 51.95 58.25
L 48.75 39.7 Z"/>
</g>

<g id="___0_Layer0_0_MEMBER_1_FILL">
<path fill="#FFFF00" stroke="none" d="
M 48.75 39.7
Q 48.6 38.7 49.3 38.05
L 62.8 24.9
Q 63.65 24.05 63.25 22.95 62.9 21.85 61.75 21.7
L 43.1 19
Q 42.1 18.85 41.7 17.95
L 33.35 1.05
Q 32.85 0 31.7 0 30.55 0 30 1.05
L 21.65 17.95
Q 21.25 18.85 20.25 19
L 1.6 21.7
Q 0.45 21.85 0.1 22.95 -0.3 24.05 0.55 24.9
L 14.05 38.05
Q 14.75 38.7 14.6 39.7
L 11.4 58.25
Q 11.2 59.4 12.15 60.1 13.1 60.8 14.15 60.25
L 30.8 51.45
Q 31.7 51.05 32.55 51.45
L 49.2 60.25
Q 50.25 60.8 51.2 60.1 52.15 59.4 51.95 58.25
L 48.75 39.7 Z"/>
</g>

<g id="Layer0_0_MEMBER_3_MEMBER_0_FILL">
<path fill="#FFFFCC" stroke="none" d="
M 509.35 376.5
Q 500.55 367.7 488.15 367.7
L 54.05 367.7
Q 41.65 367.7 32.85 376.5 24.05 385.3 24.05 397.7
L 24.05 453.75
Q 24.05 466.15 32.85 474.95 41.65 483.75 54.05 483.75
L 488.15 483.75
Q 500.55 483.75 509.35 474.95 518.15 466.15 518.15 453.75
L 518.15 397.7
Q 518.15 385.3 509.35 376.5 Z"/>
</g>

<g id="___0_Layer0_0_MEMBER_0_MEMBER_0_MEMBER_0_FILL">
<path fill="#E19526" stroke="none" d="
M 328.35 114.3
Q 331.95 107.4 332.4 99.7 332.85 92.25 330.25 85.25 327.6 78.25 322.35 73.05
L 263.45 14.1
Q 258.55 9.2 252.2 6.6 245.85 4 238.85 4 230.5 4 223.1 7.65 215.65 11.25 210.45 17.9
L 176.8 60.65
Q 168.7 71 169.1 84 169.5 97 178.15 106.45
L 174.15 114.25
Q 171.95 118.45 173.55 122.95
L 169.05 127.45 165.3 123.75
Q 161.65 120.1 156.55 120.1 153.65 120.1 151 121.4 148.4 122.7 146.65 125.05 144.05 128.5 144.35 133.15 144.6 137.8 147.6 141.05 142.15 142.6 138.1 146.65 134.55 150.2 132.9 154.95 131.3 159.65 131.9 164.6
L 7.9 288.6
Q 4 292.5 4 298.1 4 301.35 5.4 304.15 6.8 306.95 9.4 308.9 12.9 311.5 17.3 311.5 20.05 311.5 22.6 310.45 25.15 309.35 27.1 307.4
L 31.15 303.35
Q 32.95 304.4 35.2 304.4
L 35.5 304.4
Q 34.9 307.6 37.2 309.9
L 41.6 314.3
Q 43.4 316.1 46 316.1 48.55 316.1 50.45 314.3
L 56.15 308.55
Q 58.25 306.45 57.95 303.45
L 58.4 303.5
Q 61.05 303.5 62.8 301.65
L 67.55 296.95
Q 68.9 295.55 69.25 293.65 69.55 291.75 68.8 290 70.2 290.65 71.5 290.65 74.15 290.65 75.9 288.8
L 82.5 282.2
Q 84.35 280.45 84.35 277.8 84.35 275.25 82.5 273.4
L 80.2 271.1
Q 78.35 269.25 75.8 269.25 73.65 269.25 71.9 270.6 72.85 268.7 72.85 266.85 72.85 264.45 71.75 262.8
L 150.95 183.6
Q 152.1 183.8 153.55 183.8 157.9 183.8 161.85 182.15 165.8 180.5 168.9 177.4 172.85 173.5 174.45 167.9 178.05 171.35 183.05 171.35 186 171.35 188.6 170.05 191.2 168.75 193 166.35 195.75 162.7 195.35 158.05 194.95 153.35 191.6 150.05
L 188.05 146.5 192.55 142
Q 194.5 142.65 196.25 142.65 198.9 142.65 201.3 141.4
L 209.05 137.4 228.95 157.3
Q 233.85 162.2 240.2 164.8 246.55 167.4 253.55 167.4 259.55 167.4 265.3 165.4 271.05 163.4 275.8 159.65
L 318.6 126
Q 324.7 121.2 328.35 114.3
M 289.55 94.05
Q 289.55 96.8 287.6 98.8 285.65 100.75 282.85 100.75 280.05 100.75 278.1 98.8
L 237.55 58.25
Q 235.6 56.3 235.6 53.5 235.6 50.75 237.55 48.75 239.5 46.8 242.3 46.8 245.1 46.8 247.05 48.75
L 287.6 89.3
Q 289.55 91.25 289.55 94.05 Z"/>
</g>

<g id="___0_Layer0_0_MEMBER_0_MEMBER_1_MEMBER_0_FILL">
<path fill="#663300" stroke="none" d="
M 333.95 83.8
Q 331 76.05 325.15 70.2
L 266.25 11.3
Q 260.8 5.85 253.7 2.9 246.65 0 238.85 0 229.6 0 221.35 4.05 213.05 8.05 207.3 15.4
L 173.65 58.2
Q 165.1 69.05 165.05 82.8 165 96.45 173.35 107
L 170.55 112.45
Q 168.3 116.8 169.1 121.75
L 169 121.8 168.1 120.9
Q 163.4 116.2 156.55 116.1 152.65 116.15 149.25 117.85 145.8 119.55 143.45 122.65 140.8 126.1 140.35 130.65 139.9 135.05 141.65 139.15 138.1 141 135.25 143.8 131.4 147.7 129.45 152.7 127.5 157.75 127.75 163.1
L 5.1 285.75
Q 0 290.85 0 298.1 0 302.25 1.85 305.95 3.65 309.6 7 312.1 11.65 315.5 17.3 315.5 20.8 315.5 24.15 314.1 27.45 312.75 29.95 310.25
L 31.8 308.35
Q 32.5 310.75 34.4 312.75
L 38.75 317.1
Q 41.75 320.1 46 320.1 50.25 320.1 53.25 317.1
L 58.95 311.4
Q 60.85 309.5 61.55 306.95 64 306.15 65.6 304.45
L 70.35 299.75
Q 72.5 297.5 73.15 294.5 76.4 293.95 78.7 291.6
L 85.3 285
Q 88.3 282.05 88.3 277.8 88.3 273.55 85.3 270.55
L 83 268.25
Q 80.35 265.6 76.75 265.3 76.65 264.45 76.45 263.7
L 152.45 187.75 153.5 187.75
Q 158.7 187.75 163.35 185.8 168.05 183.9 171.7 180.25 174.55 177.4 176.35 173.95 179.55 175.35 183 175.35 186.95 175.35 190.35 173.65 193.8 171.9 196.15 168.75 199.8 163.9 199.3 157.75 198.8 151.55 194.4 147.2
L 193.7 146.5 193.8 146.4
Q 194.85 146.6 196.2 146.6 199.95 146.6 203.1 144.95
L 208.3 142.25 226.1 160.1
Q 231.55 165.55 238.65 168.5 245.75 171.4 253.55 171.4 260.2 171.4 266.6 169.2 272.95 166.95 278.25 162.8
L 321.05 129.15
Q 327.85 123.8 331.85 116.15 335.9 108.5 336.4 99.95 336.9 91.6 333.95 83.8
M 250.45 10.25
Q 256.2 12.55 260.6 16.95
L 319.5 75.85
Q 329.4 85.75 328.4 99.9 327.35 114 316.1 122.85
L 273.3 156.5
Q 268.95 159.9 263.8 161.7 258.8 163.4 253.55 163.4 247.45 163.4 241.9 161.15 236.15 158.85 231.75 154.45
L 210.85 133.5
Q 210.2 132.95 209.4 132.95 208.9 132.95 208.5 133.15
L 199.4 137.85
Q 197.9 138.6 196.2 138.6 193.65 138.6 191.8 137.05
L 182.4 146.5 188.75 152.85
Q 191 155.1 191.3 158.25 191.6 161.45 189.75 163.95 187.2 167.35 183 167.35 179.5 167.35 177.1 164.9
L 170.95 158.75
Q 171.75 163 170.5 167.15 169.25 171.4 166.05 174.6 163.5 177.15 160.2 178.5 157 179.8 153.5 179.8 151.5 179.8 149.55 179.35
L 66.25 262.65
Q 66.65 263 67.3 263.75 68.35 264.75 68.65 265.4 68.85 265.9 68.85 266.85 68.85 268.55 67.5 270 67.05 270.4 67.05 271 67.05 271.6 67.45 272.05
L 70.75 275.35
Q 71.25 275.75 71.75 275.75 72.3 275.75 72.8 275.35
L 74.2 273.9
Q 74.95 273.25 75.8 273.25 76.6 273.25 77.35 273.9
L 79.7 276.25
Q 80.35 276.9 80.35 277.8 80.35 278.75 79.7 279.4
L 73.1 286
Q 72.35 286.65 71.5 286.65 70.6 286.65 69.95 286
L 67.05 283.1
Q 66.6 282.65 66.05 282.65 65.45 282.65 65 283.1
L 61.95 286.15
Q 61.5 286.6 61.5 287.2 61.5 287.8 61.95 288.2
L 64.7 290.95
Q 65.35 291.6 65.35 292.55 65.35 293.45 64.7 294.1
L 59.95 298.85
Q 59.2 299.5 58.4 299.5 57.55 299.5 56.8 298.85
L 54.05 296.1
Q 53.7 295.65 53.05 295.65 52.45 295.65 52 296.1
L 50.45 297.65
Q 50 298.1 50 298.7 50 299.3 50.45 299.7
L 53.3 302.6
Q 53.95 303.25 53.95 304.15 53.95 305.1 53.3 305.75
L 47.6 311.45
Q 46.95 312.1 46 312.1 45.05 312.1 44.45 311.45
L 40.05 307.1
Q 39.4 306.45 39.4 305.5 39.4 304.6 40.05 303.95
L 43.3 300.7
Q 43.7 300.3 43.7 299.7 43.7 299.05 43.3 298.65
L 42.05 297.4
Q 41.65 297 41.05 297 40.45 297 40.05 297.4
L 38.3 299.15
Q 36.95 300.4 35.2 300.4 33.5 300.4 32.2 299.2
L 30.9 297.95 24.3 304.55
Q 21.35 307.5 17.3 307.5 14.3 307.5 11.8 305.7 8 302.85 8 298.1 8 294.15 10.75 291.4
L 136.2 165.95
Q 135.2 161.55 136.4 157.25 137.65 152.8 140.95 149.45 143.5 146.9 146.8 145.55 150.05 144.25 153.5 144.25 155.2 144.25 156.75 144.55
L 150.8 138.6
Q 148.65 136.45 148.35 133.15 148.05 129.85 149.85 127.45 151.1 125.85 152.9 124.95 154.65 124.1 156.55 124.1 159.95 124.1 162.5 126.55
L 169.05 133.1 178.45 123.7
Q 177.15 122.05 176.95 120 176.75 117.9 177.7 116.1
L 182.35 107
Q 183 105.65 182 104.65 173.65 96.3 173.1 84.45 172.5 72.6 179.95 63.1
L 213.55 20.35
Q 218.3 14.35 225.1 11.1 231.65 8 238.85 8 244.9 8 250.45 10.25 Z"/>
</g>

<g id="Mask_flash0_ai____0_Key__Clip_Group__0_2_MASK_0_FILL">
<path fill="#FFFFFF" stroke="none" d="
M 320.35 91.9
Q 321.35 77.75 311.5 67.85
L 252.6 8.95
Q 242.7 -0.95 228.55 0.1 214.4 1.1 205.6 12.35
L 171.95 55.15
Q 164.5 64.6 165.1 76.5 165.7 88.35 174 96.65 175.1 97.75 174.4 99
L 169.7 108.1
Q 168.75 109.95 168.95 112.05 169.15 114.05 170.45 115.7
L 161.05 125.15 154.5 118.6
Q 152.1 116.2 148.55 116.1 144.35 116.2 141.85 119.5 140.05 121.9 140.35 125.2 140.65 128.5 142.8 130.6
L 148.8 136.6
Q 144.55 135.8 140.4 137.05 136.15 138.35 132.95 141.5 129.65 144.75 128.4 149.25 127.2 153.6 128.2 158
L 2.75 283.4
Q 0 286.15 0 290.1 0 294.85 3.8 297.7 6.6 299.8 10.2 299.45 13.75 299.1 16.3 296.6
L 22.9 289.95 36.45 303.45
Q 37.1 304.15 38 304.15 38.9 304.15 39.55 303.45
L 45.3 297.75
Q 45.95 297.1 45.95 296.2 45.95 295.25 45.3 294.6
L 42.4 291.7
Q 42 291.3 42 290.7 42 290.1 42.4 289.7
L 44 288.1
Q 44.4 287.7 45 287.7 45.6 287.7 46.05 288.1
L 48.8 290.85
Q 49.45 291.5 50.35 291.5 51.3 291.5 51.95 290.85
L 56.65 286.1
Q 57.3 285.45 57.3 284.55 57.3 283.65 56.65 282.95
L 53.9 280.2
Q 53.5 279.8 53.5 279.2 53.5 278.6 53.9 278.2
L 57 275.1
Q 57.4 274.7 58 274.7 58.6 274.7 59.05 275.1
L 61.9 278
Q 62.55 278.65 63.5 278.65 64.4 278.65 65.05 278
L 71.65 271.4
Q 72.3 270.75 72.3 269.85 72.3 268.9 71.65 268.25
L 58.25 254.65 141.55 171.35
Q 145.95 172.35 150.25 171.15 154.75 169.9 158.05 166.6 161.2 163.45 162.5 159.15 163.7 155.05 162.9 150.75
L 169.05 156.9
Q 171.75 159.6 175.55 159.35 179.4 159.1 181.75 156 183.6 153.5 183.3 150.3 183 147.15 180.75 144.85
L 174.35 138.5 183.8 129.05
Q 185.4 130.35 187.45 130.6 189.55 130.8 191.4 129.85
L 200.45 125.15
Q 201.05 124.85 201.7 124.95 202.35 125.05 202.8 125.55
L 223.75 146.45
Q 232.1 154.8 243.95 155.4 255.85 156 265.3 148.55
L 308.05 114.9
Q 319.3 106.05 320.35 91.9 Z"/>
</g>

<g id="flash0_ai____0_Key__Clip_Group__0_Layer2_0_MEMBER_0_FILL">
<path fill="#E5BD41" stroke="none" d="
M 323.7 95.25
Q 324.7 81.1 314.8 71.2
L 255.9 12.3
Q 246 2.4 231.85 3.45 217.7 4.45 208.85 15.7
L 175.25 58.5
Q 167.8 67.95 168.4 79.85 169 91.75 177.3 100.05 178.4 101.05 177.7 102.4
L 173 111.45
Q 172.05 113.3 172.25 115.4 172.45 117.45 173.75 119.05
L 164.35 128.5 157.8 121.95
Q 155.35 119.5 151.85 119.5 147.7 119.5 145.15 122.85 143.35 125.25 143.65 128.55 143.95 131.85 146.1 133.95
L 152.1 139.95
Q 147.85 139.15 143.7 140.4 139.45 141.7 136.25 144.85 132.95 148.15 131.7 152.6 130.5 156.95 131.5 161.35
L 6.05 286.8
Q 3.3 289.5 3.3 293.45 3.3 295.65 4.25 297.6 5.25 299.65 7.1 301.05 9.9 303.15 13.5 302.85 17.05 302.5 19.6 299.95
L 26.2 293.3 27.5 294.55
Q 28.75 295.8 30.55 295.75 32.35 295.75 33.6 294.5
L 35.35 292.8
Q 35.75 292.35 36.35 292.35 36.95 292.35 37.35 292.8
L 38.6 294
Q 39 294.45 39 295.05 39 295.65 38.6 296.05
L 35.35 299.3
Q 34.7 299.95 34.7 300.9 34.7 301.8 35.35 302.45
L 39.75 306.85
Q 40.4 307.5 41.3 307.5 42.25 307.5 42.9 306.85
L 48.6 301.1
Q 49.25 300.45 49.25 299.55 49.25 298.6 48.6 297.95
L 45.7 295.05
Q 45.3 294.65 45.3 294.05 45.3 293.45 45.7 293.05
L 47.3 291.45
Q 47.75 291.05 48.35 291.05 48.95 291.05 49.35 291.45
L 52.1 294.2
Q 52.75 294.85 53.7 294.85 54.6 294.85 55.25 294.2
L 59.95 289.45
Q 60.65 288.8 60.65 287.9 60.65 287 59.95 286.3
L 57.2 283.55
Q 56.8 283.15 56.8 282.55 56.8 281.95 57.2 281.55
L 60.3 278.45
Q 60.7 278.05 61.3 278.05 61.9 278.05 62.35 278.45
L 65.25 281.35
Q 65.9 282 66.8 282 67.7 282 68.35 281.35
L 74.95 274.75
Q 75.65 274.1 75.65 273.2 75.65 272.25 74.95 271.6
L 72.65 269.25
Q 72 268.6 71.1 268.6 70.15 268.6 69.5 269.25
L 68.1 270.7
Q 67.65 271.1 67.05 271.1 66.45 271.1 66.05 270.7
L 62.75 267.4
Q 62.3 267 62.3 266.4 62.35 265.75 62.75 265.35 64.15 263.85 64.15 262.2 64.15 261.25 63.95 260.75 63.65 260.1 62.6 259.1
L 61.55 258 144.85 174.7
Q 149.25 175.7 153.55 174.5 158.05 173.25 161.35 169.95 164.5 166.8 165.8 162.5 167 158.35 166.25 154.1
L 172.35 160.25
Q 175.05 162.95 178.85 162.7 182.7 162.45 185.05 159.3 186.9 156.8 186.6 153.6 186.3 150.5 184.05 148.2
L 177.65 141.85 187.1 132.4
Q 188.7 133.7 190.75 133.95 192.85 134.15 194.7 133.2
L 203.8 128.5
Q 205.05 127.8 206.15 128.9
L 227.05 149.8
Q 235.4 158.15 247.25 158.7 259.15 159.3 268.6 151.85
L 311.4 118.25
Q 322.65 109.4 323.7 95.25
M 278.15 96.1
Q 275.35 96.1 273.4 94.15
L 232.85 53.6
Q 230.9 51.65 230.9 48.85 230.9 46.1 232.85 44.1 234.8 42.15 237.6 42.15 240.4 42.15 242.35 44.1
L 282.9 84.65
Q 284.85 86.6 284.85 89.4 284.85 92.15 282.9 94.15 280.95 96.1 278.15 96.1 Z"/>
</g>

<g id="___0_Layer0_0_MEMBER_2_MEMBER_0_FILL">
<path fill="#E19526" stroke="none" d="
M 67.45 261.4
L 64.1 258.1 25.8 296.4 29.15 299.7 67.45 261.4 Z"/>
</g>

<g id="___0_Layer0_0_MEMBER_3_FILL">
<path fill="#DE8026" stroke="none" d="
M 67.65 264.05
L 66.25 262.6 30.9 297.95 32.35 299.35 67.65 264.05 Z"/>
</g>

<g id="___0_Layer0_0_MEMBER_4_MEMBER_0_FILL">
<path fill="#F3E0AF" stroke="none" d="
M 231.75 62.4
Q 230.55 61.2 228.9 61.2 227.25 61.2 226.05 62.4 224.9 63.55 224.9 65.25 224.9 66.9 226.05 68.05
L 267.75 109.7
Q 270.8 112.8 274.8 114.4 278.7 115.95 282.9 115.95 287.1 115.95 290.95 114.4 294.95 112.8 298.05 109.7 299.2 108.55 299.2 106.9 299.2 105.2 298.05 104.05 296.85 102.9 295.2 102.9 293.55 102.9 292.35 104.05 288.45 108 282.9 108 277.35 108 273.4 104.05
L 231.75 62.4 Z"/>
</g>

<g id="___0_Layer0_0_MEMBER_4_MEMBER_1_FILL">
<path fill="#F3E0AF" stroke="none" d="
M 116.6 196.85
Q 117.75 195.7 117.75 194.05 117.75 192.35 116.6 191.2 115.45 190.05 113.8 190.05 112.1 190.05 110.95 191.2
L 10.9 291.25
Q 9.75 292.4 9.75 294.1 9.75 295.75 10.9 296.9 12.05 298.05 13.75 298.05 15.45 298.05 16.55 296.9
L 116.6 196.85 Z"/>
</g>

<g id="___0_Layer0_0_MEMBER_4_MEMBER_2_FILL">
<path fill="#F3E0AF" stroke="none" d="
M 150.05 148.3
Q 149.25 146.85 147.7 146.35 146.1 145.85 144.65 146.65 139.2 149.45 136.9 155 134.75 160.15 136.1 165.75 136.45 167.1 137.55 167.95 138.65 168.75 140 168.75
L 141 168.6
Q 142.6 168.2 143.45 166.75 144.25 165.3 143.85 163.7 143.15 160.7 144.25 158.1 145.45 155.3 148.35 153.7 149.8 152.95 150.3 151.4 150.8 149.8 150.05 148.3 Z"/>
</g>

<g id="___0_Layer0_0_MEMBER_4_MEMBER_3_FILL">
<path fill="#F3E0AF" stroke="none" d="
M 152.4 127.3
Q 150.7 127.3 149.55 128.5 148.4 129.65 148.4 131.3 148.4 132.95 149.55 134.15 150.7 135.3 152.4 135.3 154.05 135.3 155.25 134.15 156.4 132.95 156.4 131.3 156.4 129.65 155.25 128.5 154.05 127.3 152.4 127.3 Z"/>
</g>

<g id="___0_Layer0_0_MEMBER_4_MEMBER_4_FILL">
<path fill="#F3E0AF" stroke="none" d="
M 260.55 17
Q 255.2 11.65 249.2 9.1 243.15 6.55 236.85 6.9 230.3 7.3 224.25 10.8 218.25 14.3 213.2 20.7
L 180.25 62.7
Q 179.25 64 179.45 65.65 179.65 67.3 180.95 68.3 181.95 69.15 183.4 69.15 185.35 69.15 186.55 67.65
L 219.5 25.65
Q 227.55 15.45 237.3 14.9 246.55 14.3 254.9 22.65
L 289.5 57.25
Q 290.65 58.4 292.35 58.4 294 58.4 295.15 57.25 296.35 56.1 296.35 54.45 296.35 52.75 295.15 51.6
L 260.55 17 Z"/>
</g>

<g id="___0_Layer0_0_MEMBER_5_MEMBER_0_FILL">
<path fill="#663300" stroke="none" d="
M 297.55 94.05
Q 297.55 87.95 293.25 83.65
L 252.7 43.1
Q 248.4 38.8 242.3 38.8 236.2 38.8 231.9 43.1 227.65 47.4 227.65 53.5 227.65 59.65 231.9 63.9
L 272.45 104.45
Q 276.75 108.75 282.85 108.75 288.95 108.75 293.25 104.45 297.55 100.15 297.55 94.05
M 290.4 86.45
Q 293.55 89.6 293.55 94.05 293.55 98.5 290.4 101.6 287.3 104.75 282.85 104.75 278.4 104.75 275.25 101.6
L 234.75 61.1
Q 231.6 57.95 231.6 53.5 231.6 49.05 234.75 45.95 237.85 42.8 242.3 42.8 246.75 42.8 249.9 45.95
L 290.4 86.45 Z"/>
</g>

<g id="___0_Layer0_0_MEMBER_5_MEMBER_1_FILL">
<path fill="#663300" stroke="none" d="
M 293.55 94.05
Q 293.55 89.6 290.4 86.45
L 249.9 45.95
Q 246.75 42.8 242.3 42.8 237.85 42.8 234.75 45.95 231.6 49.05 231.6 53.5 231.6 57.95 234.75 61.1
L 275.25 101.6
Q 278.4 104.75 282.85 104.75 287.3 104.75 290.4 101.6 293.55 98.5 293.55 94.05
M 289.55 94.05
Q 289.55 96.8 287.6 98.8 285.65 100.75 282.85 100.75 280.05 100.75 278.1 98.8
L 237.55 58.25
Q 235.6 56.3 235.6 53.5 235.6 50.75 237.55 48.75 239.5 46.8 242.3 46.8 245.1 46.8 247.05 48.75
L 287.6 89.3
Q 289.55 91.25 289.55 94.05 Z"/>
</g>

<path id="___0_Layer1_0_1_STROKES" stroke="#009999" stroke-width="10" stroke-linejoin="round" stroke-linecap="round" fill="none" d="
M 30 163.65
L 510.15 163.65
Q 522.55 163.65 531.35 172.45 540.15 181.25 540.15 193.65
L 540.15 474.7
Q 540.15 487.1 531.35 495.9 522.55 504.7 510.15 504.7
L 30 504.7
Q 17.6 504.7 8.8 495.9 0 487.1 0 474.7
L 0 193.65
Q 0 181.25 8.8 172.45 17.6 163.65 30 163.65 Z"/>

<path id="___0_Layer1_0_2_STROKES" stroke="#009999" stroke-width="5" stroke-linejoin="round" stroke-linecap="round" fill="none" d="
M 518.15 203.1
Q 518.15 210.3 513.05 215.35 508 220.45 500.8 220.45 493.6 220.45 488.5 215.35 483.4 210.3 483.4 203.1 483.4 195.9 488.5 190.8 493.6 185.75 500.8 185.75 508 185.75 513.05 190.8 518.15 195.9 518.15 203.1 Z
M 60.15 203.1
Q 60.15 210.3 55.05 215.35 50 220.45 42.8 220.45 35.6 220.45 30.5 215.35 25.4 210.3 25.4 203.1 25.4 195.9 30.5 190.8 35.6 185.75 42.8 185.75 50 185.75 55.05 190.8 60.15 195.9 60.15 203.1 Z"/>

<path id="___0_Layer0_0_1_STROKES" stroke="#666666" stroke-width="5" stroke-linejoin="round" stroke-linecap="round" fill="none" d="
M 23.7 -45.05
Q 26.8 -45.05 29 -42.85 31.2 -40.65 31.2 -37.55
L 31.2 187.55
Q 31.2 190.7 29 192.9 26.8 195.05 23.7 195.05 20.6 195.05 18.4 192.9 16.2 190.7 16.2 187.55
L 16.2 -37.55
Q 16.2 -40.65 18.4 -42.85 20.6 -45.05 23.7 -45.05 Z"/>

<path id="___0_Layer0_1_1_STROKES" stroke="#666666" stroke-width="5" stroke-linejoin="round" stroke-linecap="round" fill="none" d="
M 23.7 -45.05
Q 26.8 -45.05 29 -42.85 31.2 -40.65 31.2 -37.55
L 31.2 187.55
Q 31.2 190.7 29 192.9 26.8 195.05 23.7 195.05 20.6 195.05 18.4 192.9 16.2 190.7 16.2 187.55
L 16.2 -37.55
Q 16.2 -40.65 18.4 -42.85 20.6 -45.05 23.7 -45.05 Z"/>

<path id="______0_Layer1_1_MEMBER_0_1_STROKES" stroke="#FF6699" stroke-width="5" stroke-linejoin="round" stroke-linecap="round" fill="none" d="
M 39.75 19.65
L 39.75 42.4"/>

<path id="______0_Layer1_1_MEMBER_1_1_STROKES" stroke="#FF6699" stroke-width="5" stroke-linejoin="round" stroke-linecap="round" fill="none" d="
M 39.75 44.25
L 54 34.8"/>

<path id="Layer0_0_MEMBER_2_1_STROKES" stroke="#66FFFF" stroke-width="6" stroke-linejoin="round" stroke-linecap="round" fill="none" d="
M 30.81234741210892 223.09955978393558
L 469.6058837890628 223.09955978393558"/>
</defs>

<g transform="matrix( 0.90399169921875, 0, 0, 0.90399169921875, 6.65,-91.6) ">
<g transform="matrix( 1, 0, 0, 1, 0,0) ">
<use xlink:href="#___0_Layer1_0_FILL"/>

<use xlink:href="#___0_Layer1_0_1_STROKES"/>

<use xlink:href="#___0_Layer1_0_2_STROKES"/>
</g>

<g transform="matrix( 1, 0, 0, 0.4450225830078125, 18.45,111.7) ">
<use xlink:href="#___0_Layer0_0_FILL"/>

<use xlink:href="#___0_Layer0_0_1_STROKES"/>
</g>

<g transform="matrix( 1, 0, 0, 0.4450225830078125, 476.65,111.7) ">
<use xlink:href="#___0_Layer0_1_FILL"/>

<use xlink:href="#___0_Layer0_1_1_STROKES"/>
</g>
</g>

<g transform="matrix( 1.776641845703125, 0, 0, 1.776641845703125, 128.4,87.15) ">
<g transform="matrix( 0.5035400390625, 0, 0, 0.5035400390625, -52.15,23.15) ">
<g transform="matrix( 1, 0, 0, 1, -400.85,29.6) ">
<use xlink:href="#______0_Layer1_0_FILL"/>
</g>

<g transform="matrix( 1, 0, 0, 1, 0,0) ">
<use xlink:href="#______0_Layer1_1_FILL"/>
</g>

<g transform="matrix( 1, 0, 0, 1, 0,-4) ">
<use xlink:href="#______0_Layer1_1_MEMBER_0_1_STROKES"/>
</g>

<g transform="matrix( 1, 0, 0, 1, 0,-4) ">
<use xlink:href="#______0_Layer1_1_MEMBER_1_1_STROKES"/>
</g>
</g>

<g transform="matrix( 0.65826416015625, 0, 0, 0.65826416015625, 74.9,21.15) ">
<use xlink:href="#___0_Layer0_0_MEMBER_0_FILL"/>
</g>

<g transform="matrix( 0.4281005859375, 0, 0, 0.4281005859375, 82.2,28.1) ">
<use xlink:href="#___0_Layer0_0_MEMBER_1_FILL"/>
</g>
</g>

<g transform="matrix( 1.6129150390625, 0, 0, 1.4774627685546875, -2535.9,-47.35) ">
<use xlink:href="#Layer0_0_MEMBER_2_1_STROKES" transform="matrix( 0.6199951171875, 0, 0, 0.6768341064453125, 1572.2,32) "/>
</g>

<g transform="matrix( 0.922088623046875, 0, 0, 0.922088623046875, 1,-98.35) ">
<use xlink:href="#Layer0_0_MEMBER_3_MEMBER_0_FILL"/>
</g>

<g transform="matrix( -0.58843994140625, 1.78594970703125, 1.78594970703125, 0.58843994140625, 29.15,225) ">
<g transform="matrix( -0.0600738525390625, -0.1177520751953125, 0.1177520751953125, -0.0600738525390625, 18.6,56.9) ">
<use xlink:href="#___0_Layer0_0_MEMBER_0_MEMBER_0_MEMBER_0_FILL"/>
</g>

<g transform="matrix( -0.0601043701171875, -0.1177978515625, 0.1177978515625, -0.0601043701171875, 18.6,56.9) ">
<use xlink:href="#___0_Layer0_0_MEMBER_0_MEMBER_1_MEMBER_0_FILL"/>
</g>

<g transform="matrix( -0.060089111328125, -0.1177825927734375, 0.1177825927734375, -0.060089111328125, 18.8,56.05) ">
<mask id="Mask_Mask_1">
<g transform="matrix( 1, 0, 0, 1, 0,0) ">
<use xlink:href="#Mask_flash0_ai____0_Key__Clip_Group__0_2_MASK_0_FILL"/>
</g>
</mask>

<g mask="url(#Mask_Mask_1)">
<g transform="matrix( 1, 0, 0, 1, 0,0) ">
<use xlink:href="#flash0_ai____0_Key__Clip_Group__0_Layer2_0_MEMBER_0_FILL"/>
</g>
</g>
</g>

<g transform="matrix( -0.0600738525390625, -0.1177520751953125, 0.1177520751953125, -0.0600738525390625, 18.6,56.9) ">
<use xlink:href="#___0_Layer0_0_MEMBER_2_MEMBER_0_FILL"/>
</g>

<g transform="matrix( -0.06011962890625, -0.117828369140625, 0.117828369140625, -0.06011962890625, 18.6,56.9) ">
<use xlink:href="#___0_Layer0_0_MEMBER_3_FILL"/>
</g>

<g transform="matrix( -0.0600738525390625, -0.1177520751953125, 0.1177520751953125, -0.0600738525390625, 18.6,56.9) ">
<use xlink:href="#___0_Layer0_0_MEMBER_4_MEMBER_0_FILL"/>
</g>

<g transform="matrix( -0.0600738525390625, -0.1177520751953125, 0.1177520751953125, -0.0600738525390625, 18.6,56.9) ">
<use xlink:href="#___0_Layer0_0_MEMBER_4_MEMBER_1_FILL"/>
</g>

<g transform="matrix( -0.0600738525390625, -0.1177520751953125, 0.1177520751953125, -0.0600738525390625, 18.6,56.9) ">
<use xlink:href="#___0_Layer0_0_MEMBER_4_MEMBER_2_FILL"/>
</g>

<g transform="matrix( -0.0600738525390625, -0.1177520751953125, 0.1177520751953125, -0.0600738525390625, 18.6,56.9) ">
<use xlink:href="#___0_Layer0_0_MEMBER_4_MEMBER_3_FILL"/>
</g>

<g transform="matrix( -0.0600738525390625, -0.1177520751953125, 0.1177520751953125, -0.0600738525390625, 18.6,56.9) ">
<use xlink:href="#___0_Layer0_0_MEMBER_4_MEMBER_4_FILL"/>
</g>

<g transform="matrix( -0.0601043701171875, -0.1177978515625, 0.1177978515625, -0.0601043701171875, 18.6,56.9) ">
<use xlink:href="#___0_Layer0_0_MEMBER_5_MEMBER_0_FILL"/>
</g>

<g transform="matrix( -0.0601043701171875, -0.1177978515625, 0.1177978515625, -0.0601043701171875, 18.6,56.9) ">
<use xlink:href="#___0_Layer0_0_MEMBER_5_MEMBER_1_FILL"/>
</g>
</g>
</svg>
