
<svg xmlns="http://www.w3.org/2000/svg" version="1.1" xmlns:xlink="http://www.w3.org/1999/xlink" preserveAspectRatio="none" x="0px" y="0px" width="350px" height="320px" viewBox="0 0 350 320">
<defs>
<g id="flash0_ai____Illustrator_________0_Layer0_0_FILL">
<path fill="#999999" stroke="none" d="
M 47.75 -8.15
Q 27.95 -11.5 0 -11.5 -27.95 -11.5 -47.7 -8.15 -67.5 -4.75 -67.5 0 -67.5 4.8 -47.7 8.15 -28 11.5 0 11.5 28 11.5 47.75 8.15 67.5 4.8 67.5 0 67.5 -4.75 47.75 -8.15 Z"/>
</g>

<g id="______0_Layer1_0_MEMBER_0_MEMBER_0_MEMBER_0_MEMBER_0_FILL">
<path fill="#BD7C18" stroke="none" d="
M 294.75 188.35
Q 297.25 162.25 286.75 133.3 274.65 97.1 248.65 77.7 226.65 64.7 194.6 64.7 168.1 64.7 141.5 77.7 118.5 88.75 104.45 126.3 92.45 158.4 92.95 186.35 93.5 239.5 142.5 259.95 166.4 270.45 191.1 270 258.25 271.95 283.2 230.45 290.75 217.5 293.75 201.4
L 294.75 188.35 Z"/>
</g>

<g id="______0_Layer1_0_MEMBER_1_MEMBER_0_MEMBER_0_MEMBER_0_FILL">
<path fill="#FBEBBB" stroke="none" d="
M 177.4 148.3
Q 188.9 137 188.9 121.25 188.9 105.7 177.4 94.25 166.1 82.9 150.35 82.9 134.8 82.9 123.3 94.25 112 105.7 112 121.25 112 137 123.3 148.3 134.8 159.8 150.35 159.8 166.1 159.8 177.4 148.3 Z"/>
</g>

<g id="______0_Layer1_0_MEMBER_2_MEMBER_0_MEMBER_0_MEMBER_0_FILL">
<path fill="#FFFFFF" stroke="none" d="
M 178.05 143.8
Q 187.6 134.25 187.6 121.25 187.6 108.3 178.05 98.75 169.05 89.2 155.55 89.2 142.55 89.2 133 98.75 123.5 108.25 123.5 121.25 123.5 134.3 133 143.8 142.5 153.3 155.55 153.3 169.05 153.3 178.05 143.8 Z"/>
</g>

<g id="______0_Layer1_0_MEMBER_3_MEMBER_0_MEMBER_0_MEMBER_0_FILL">
<path fill="#FBEBBB" stroke="none" d="
M 237.2 82.9
Q 221.6 82.9 210.2 94.3 198.75 105.7 198.75 121.35 198.75 137 210.2 148.35 221.6 159.8 237.2 159.8 252.9 159.8 264.25 148.35 275.7 136.9 275.7 121.35 275.7 105.75 264.25 94.3 252.85 82.9 237.2 82.9 Z"/>
</g>

<g id="______0_Layer1_0_MEMBER_4_MEMBER_0_MEMBER_0_MEMBER_0_FILL">
<path fill="#FFFFFF" stroke="none" d="
M 232.15 89.2
Q 219.15 89.2 209.6 98.75 200.1 108.25 200.1 121.25 200.1 134.3 209.6 143.8 219.1 153.3 232.15 153.3 245.2 153.3 254.7 143.8 264.2 134.25 264.2 121.25 264.2 108.35 254.7 98.75 245.15 89.2 232.15 89.2 Z"/>
</g>

<g id="______0_Layer1_0_MEMBER_5_MEMBER_0_MEMBER_0_MEMBER_0_FILL">
<path fill="#234DC3" stroke="none" d="
M 294.75 188.35
Q 295.9 175.6 294.05 162.5 282.2 187.5 257.35 200.55 238.25 210.55 218.3 211.9 211.9 206.65 204.6 200.55
L 194.25 191.7 170.25 211.9
Q 150.1 210.55 131.15 200.7 106.75 187.95 94.6 163 92.8 175 92.95 186.35 93.5 239.5 142.5 259.95 166.4 270.45 191.1 270 258.25 271.95 283.2 230.45 290.75 217.5 293.75 201.4
L 294.75 188.35 Z"/>
</g>

<g id="______0_Layer1_0_MEMBER_5_MEMBER_0_MEMBER_0_MEMBER_1_FILL">
<path fill="#FFFFFF" stroke="none" d="
M 195.25 190.85
L 193.25 190.85
Q 143.7 190.85 99.45 167.15 97.35 166.05 94.6 162.85
L 94.3 162.35 94.6 163
Q 106.75 187.95 131.15 200.7 150.1 210.55 170.25 211.9
L 194.25 191.7 204.6 200.55
Q 211.9 206.65 218.3 211.9 238.25 210.55 257.35 200.55 282.2 187.5 294.05 162.5 291.45 165.75 288.9 167 244.8 190.85 195.25 190.85 Z"/>
</g>

<g id="______0_Layer1_0_MEMBER_6_MEMBER_0_MEMBER_0_MEMBER_0_FILL">
<path fill="#F74F51" stroke="none" d="
M 195.75 216.4
L 190.25 215.9 189.75 218.4
Q 183.8 223.4 181.75 234.45 180.75 240.2 179.75 252.95
L 192.75 263.95 206.3 253.95 203.25 225.9 195.75 217.9 195.75 216.4 Z"/>
</g>

<g id="______0_Layer1_0_MEMBER_7_MEMBER_0_MEMBER_0_MEMBER_0_FILL">
<path fill="#F74F51" stroke="none" d="
M 198.75 191.85
L 187.75 191.85 179.25 199.4
Q 176.75 205.3 176.75 206.4 176.75 207.95 179.75 213.4
L 188.75 221.9 195.25 221.9 207.8 211.9
Q 210.8 205.95 208.3 201.4 207.15 199.75 202.75 195.35
L 198.75 191.85 Z"/>
</g>

<g id="______0_Layer1_0_MEMBER_8_MEMBER_0_MEMBER_0_MEMBER_0_FILL">
<path fill="#630008" stroke="none" d="
M 241.65 86.2
Q 230.6 86.2 221.15 91.75 212.15 97.15 208.1 105.75 191.6 98.7 182.6 107.25 178 97.7 169.05 92.25 159.5 85.7 149.05 85.7 137.45 85.25 127 91.75 117 98.15 113 107.75
L 108.95 107.75
Q 107 108.3 106.45 110.75 106 114.8 111.45 115.75
L 111.45 119.25
Q 112 132.85 122 143.3 132 153.85 146.5 154.3 161.55 154.8 173.75 145.15 186.55 134.3 186.1 120.75 186.1 116.9 184.1 110.75 190.55 106.25 196.6 106.25 199.15 106.8 206.6 109.25 204.65 116.25 205.1 119.75 205.1 133.8 216.65 144.3 227.6 154.35 243.15 154.8 259.2 155.35 270.2 145.3 281.75 135.8 281.2 121.25 289.7 121.25 289.25 116.25 288.75 112.25 285.75 111.75
L 279.2 111.75
Q 275.25 100.75 265.2 93.75 254.75 86.75 241.65 86.2
M 219.65 141.3
Q 210.1 132.3 210.1 119.75 209.65 107.7 219.15 99.25 228.1 90.75 242.15 91.2 255.6 91.2 265.7 100.25 275.7 108.75 275.7 121.25 276.25 133.75 266.7 142.3 257.1 150.8 243.15 150.3 229.7 149.85 219.65 141.3
M 171.05 99.75
Q 180.6 108.8 181.05 120.25 181.6 132.3 170.55 141.3 159.5 150.3 146.5 149.8 134.05 149.35 125 140.3 116.45 131.3 116 119.25 115.5 107.75 126 99.25 136 91.2 149.05 91.2 161.55 91.2 171.05 99.75 Z"/>
</g>

<g id="______0_Layer1_0_MEMBER_9_MEMBER_0_MEMBER_0_MEMBER_0_FILL">
<path fill="#FFFFFF" stroke="none" d="
M 195.25 190.85
L 193.25 190.85
Q 143.7 190.85 99.45 167.15 97.35 166.05 94.6 162.85
L 94.3 162.35 94.6 163
Q 106.75 187.95 131.15 200.7 150.1 210.55 170.25 211.9
L 194.25 191.7 204.6 200.55
Q 211.9 206.65 218.3 211.9 238.25 210.55 257.35 200.55 282.2 187.5 294.05 162.5 291.45 165.75 288.9 167 244.8 190.85 195.25 190.85 Z"/>
</g>

<g id="______0_Layer1_0_MEMBER_10_MEMBER_0_MEMBER_0_MEMBER_0_MEMBER_0_FILL">
<path fill="#2047B3" stroke="none" d="
M 196.9 63.3
L 269.1 42.3 199.35 11.4 122.9 40 196.9 63.3 Z"/>
</g>

<g id="______0_Layer1_0_MEMBER_10_MEMBER_1_MEMBER_0_MEMBER_0_MEMBER_0_FILL">
<path fill="#295CEC" stroke="none" d="
M 232.9 70.75
L 234.2 70.75 234.2 43.5
Q 213.35 37 194.2 37 171.6 37 158.15 43.5
L 157.35 70.75 158.15 70.75
Q 193.4 62.15 232.9 70.75 Z"/>
</g>

<g id="______0_Layer1_0_MEMBER_10_MEMBER_2_MEMBER_0_MEMBER_0_MEMBER_0_FILL">
<path fill="#FBCE00" stroke="none" d="
M 266.1 70.3
L 266 70.05
Q 265 67 262.1 67 257.85 67.65 257.85 72.9
L 257 86.65
Q 257 88.55 257.55 89.25 258.1 90.25 258.6 89.25 258.8 89 259.05 88.85 259.45 88.55 260.25 88.5 261.15 88.4 261.35 88.85
L 261.55 89.25
Q 262.5 90.2 263.3 89.25 264.05 88.5 264.9 88.5 265.9 88.5 266.2 88.95 266.95 90 267.75 88.95
L 267.75 88.85 267.85 88.6 267.85 87.65
Q 267.4 82.85 267.4 80.25
L 267.3 78.5
Q 267.05 74.25 266.1 70.3
M 266.85 84.8
L 266.85 85.55 266.75 85.55 266.85 84.8 Z"/>
</g>

<g id="______0_Layer1_0_MEMBER_10_MEMBER_3_MEMBER_0_MEMBER_0_MEMBER_0_FILL">
<path fill="#C79A00" stroke="none" d="
M 261.6 62.75
Q 258.9 62.75 258.9 65.75 258.9 68.35 261.85 68.35 265.15 68.35 264.55 65.35 264.55 62.75 261.6 62.75 Z"/>
</g>

<g id="______0_Layer1_0_MEMBER_10_MEMBER_4_MEMBER_0_MEMBER_0_MEMBER_0_FILL">
<path fill="#FBCE00" stroke="none" d="
M 261.6 55.3
Q 257.65 55.9 257.65 60.8 257.65 63.15 258.9 64.4 260.05 66 261.85 66 263.65 66 264.6 64.4 265.85 62.7 265.85 60.5 265.35 55.3 261.6 55.3 Z"/>
</g>

<g id="______0_Layer1_0_MEMBER_10_MEMBER_5_MEMBER_0_MEMBER_0_MEMBER_0_FILL">
<path fill="#C79A00" stroke="none" d="
M 262.55 39.3
L 259.85 38.1 260.35 56.95
Q 260.35 58 261.85 58 263.1 58 263.1 56.65
L 262.55 39.3 Z"/>
</g>

<g id="______0_Layer1_0_MEMBER_11_MEMBER_0_MEMBER_0_MEMBER_0_MEMBER_0_FILL">
<path fill="#FBCE00" stroke="none" d="
M 176.4 150.65
Q 176.25 151.35 176.4 152.15 178.75 167.35 185.9 174.5 190 178.2 193.1 178.5 203.55 176.2 208.45 163.65
L 211.6 151.65
Q 211.45 151.5 211.45 151.3 211.1 150.55 210.6 148.95 195.1 124.45 176.9 148.95 176.5 150.2 176.4 150.65 Z"/>
</g>

<g id="______0_Layer1_0_MEMBER_11_MEMBER_0_MEMBER_1_MEMBER_0_FILL">
<path fill="#633702" stroke="none" d="
M 183.5 151.3
Q 187.05 150.45 191.85 150.25 203.85 149.7 210.95 153.65 211.8 154.1 212.35 153.2 212.55 152.85 212.4 152.45 212.3 152.1 211.95 151.85 204.35 147.7 191.75 148.25 186.6 148.5 183.05 149.35 180.6 149.9 176.5 151.95
L 175.95 152.25
Q 175.6 152.45 175.45 152.85 175.3 153.25 175.5 153.6 175.8 154.15 176.4 154.15
L 176.85 154.05 177.4 153.75
Q 181.15 151.85 183.5 151.3 Z"/>
</g>

<g id="_____2_0_Layer0_0_MEMBER_0_MEMBER_0_MEMBER_0_FILL">
<path fill="#934D09" stroke="none" d="
M 241.5 157.55
Q 237.05 154.05 234.85 158.8 228.25 172 245.8 181.6 228.6 174.4 238.85 190.15 249.35 199.75 262.6 204.2 286.1 211.9 293.8 197.2
L 294.1 196.7
Q 294.5 194.25 294.55 191.9 294.55 187.4 293.05 184 291.75 181.1 289.5 178.25 287.95 176.25 285.9 174.2 278.6 167.55 266.55 163.15
L 255.75 154.45
Q 247.05 144.45 246.2 162
L 241.5 157.55 Z"/>
</g>

<g id="____0_Layer0_0_MEMBER_0_MEMBER_0_MEMBER_0_FILL">
<path fill="#130B0B" stroke="none" d="
M 242.75 113.65
Q 242.75 106.05 239.25 101.15 235.75 96.15 230.75 96.15 225.2 96.15 221.75 101.15 218.25 106.05 218.25 113.65 218.25 120.7 221.75 126.15 225.75 131.2 230.75 131.2 235.7 131.2 239.25 126.15 242.75 120.7 242.75 113.65 Z"/>
</g>

<g id="____0_Layer0_1_MEMBER_0_MEMBER_0_MEMBER_0_FILL">
<path fill="#130B0B" stroke="none" d="
M 150.35 112.65
Q 150.35 105.05 146.85 100.15 143.35 95.15 138.35 95.15 132.8 95.15 129.3 100.15 125.8 105.15 125.8 112.65 125.8 119.6 129.3 125.15 133.35 130.2 138.35 130.2 143.3 130.2 146.85 125.15 150.35 119.7 150.35 112.65 Z"/>
</g>

<g id="______0_Layer0_0_MEMBER_0_MEMBER_0_FILL">
<path fill="#FFFFFF" stroke="none" d="
M 295.95 1.4
L 271.15 42.9 366.05 1.4 295.95 1.4 Z"/>
</g>

<g id="______0_Layer0_1_FILL">
<path fill="#FFFFFF" stroke="none" d="
M 119.15 -163.6
Q 92.95 -163.6 92.95 -137.4
L 92.95 -27.4
Q 92.95 -1.25 119.15 -1.25
L 451.7 -1.25
Q 477.85 -1.25 477.85 -27.4
L 477.85 -137.4
Q 477.85 -163.6 451.7 -163.6
L 119.15 -163.6 Z"/>
</g>

<g id="______0_Layer0_2_FILL">
<path fill="#0000FF" stroke="none" d="
M 352.6 -50.7
Q 350.95 -52.25 348.7 -52.25 346.85 -52.25 345.2 -50.9 343.55 -49.5 343.55 -46.9 343.55 -44.1 345.15 -42.7 346.8 -41.35 348.9 -41.35 351.25 -41.35 352.7 -42.9 354.2 -44.45 354.2 -46.8 354.2 -49.15 352.6 -50.7
M 352 -46.75
Q 352 -45.35 351.1 -44.45 350.15 -43.55 348.75 -43.55 347.3 -43.55 346.45 -44.55 345.6 -45.6 345.6 -46.75 345.6 -48 346.5 -48.95 347.4 -49.9 348.7 -49.9 350.05 -49.9 351 -49 352 -48.15 352 -46.75
M 314.95 -39.75
L 314.95 -48.95 288.45 -48.95 288.45 -39.75 296.6 -39.75
Q 292.05 -34.45 284.25 -31
L 285.6 -28.7
Q 287.75 -29.7 291.7 -32.15
L 291.7 -27.6
Q 291.7 -26.5 290.55 -25.6
L 291.65 -23.05
Q 296.1 -24.5 303.7 -27.4
L 303.15 -29.95
Q 298.8 -28.2 294.4 -26.95
L 294.4 -34.2
Q 297.6 -36.75 299.7 -39.75
L 314.95 -39.75
M 312.2 -46.35
L 312.2 -42.25 291.15 -42.25 291.15 -46.35 312.2 -46.35
M 318.1 -25.6
Q 312.55 -27.65 309.65 -30.85 314.05 -33.4 316.35 -35.75
L 314.4 -37.45
Q 311.65 -34.7 307.85 -32.95 306.35 -34.9 305.1 -37.75
L 302.8 -36.9
Q 304.2 -32.55 308.15 -28.75 312.1 -24.9 316.8 -23.1
L 318.1 -25.6
M 285.8 -55
L 285.8 -52.35 317.8 -52.35 317.8 -55 285.8 -55
M 285.2 -64.3
L 285.2 -66.9 270.8 -66.9 270.8 -64.3 276.75 -64.3 276.75 -51.85 271.45 -51.85 271.45 -49.3 276.75 -49.3 276.75 -33.8
Q 273.55 -31.9 270.5 -30.4
L 271.7 -27.95
Q 276.9 -30.45 286.2 -36.3
L 285.7 -39.2
Q 283 -37.4 279.5 -35.35
L 279.5 -49.3 284.55 -49.3 284.55 -51.85 279.5 -51.85 279.5 -64.3 285.2 -64.3
M 287.6 -69.2
L 287.6 -58.65 315.7 -58.65 315.7 -69.2 287.6 -69.2
M 298.9 -61.2
L 298.9 -66.7 304.55 -66.7 304.55 -61.2 298.9 -61.2
M 296.15 -66.7
L 296.15 -61.2 290.35 -61.2 290.35 -66.7 296.15 -66.7
M 312.9 -66.7
L 312.9 -61.2 307.45 -61.2 307.45 -66.7 312.9 -66.7
M 249.7 -54.85
L 249.7 -70.55 246.8 -70.55 246.8 -23 249.7 -23 249.7 -51.1
Q 257.3 -45.45 262.45 -39.4
L 263.9 -42.15
Q 258.1 -48.55 249.7 -54.85
M 241.75 -63.4
L 228.4 -63.4
Q 229.75 -68.1 230.15 -69.95
L 227.25 -70.7
Q 224.55 -57.05 216.8 -47.45
L 219 -45.4
Q 221.5 -48.7 222.75 -50.9 228.5 -45.8 232.65 -39.15 228.5 -31.45 217.7 -25.7
L 219.55 -23.3
Q 231.6 -29.6 236.55 -40.1 241.5 -50.6 241.75 -63.4
M 224.4 -53.6
Q 225.8 -56.15 227.5 -60.65
L 238.65 -60.65
Q 237.95 -50.4 234.2 -42.2 230.55 -47.75 224.4 -53.6
M 199.05 -59.9
Q 199.2 -63.9 199.3 -70.5
L 196.6 -70.5 196.4 -59.9 190.5 -59.85 190.5 -57.15 196.3 -57.2
Q 195.95 -37.2 188.3 -24.1
L 190.75 -22.9
Q 198.8 -37.2 199 -57.2
L 204.7 -57.2
Q 204.7 -48.4 204.3 -39.65
L 203.8 -29.2
Q 203.7 -27.55 202.9 -26.75 202.05 -26 201.05 -26 198.8 -26 195.8 -26.1
L 196.7 -23.3
Q 197.55 -23.2 198.65 -23.2 202.6 -23.2 204 -24.1 205.4 -25 206 -26.65 206.5 -28.35 206.9 -38.1 207.3 -47.9 207.3 -59.9
L 199.05 -59.9
M 174.95 -65.9
L 174.95 -62.05 163.1 -62.05 163.1 -59.45 174.95 -59.45 174.95 -55.5 165 -55.5 165 -39.7 174.95 -39.7 174.95 -35.85 164.9 -35.85 164.9 -33.3 174.95 -33.3 174.95 -27.45
Q 168.15 -26.65 162.2 -26.2
L 162.9 -23.45
Q 172.95 -24.5 187.55 -26.4
L 187.55 -29.1
Q 182.35 -28.25 177.65 -27.85
L 177.65 -33.3 187.55 -33.3 187.55 -35.85 177.65 -35.85 177.65 -39.7 187.55 -39.7 187.55 -55.5 177.65 -55.5 177.65 -59.45 188.4 -59.45 188.4 -62.05 177.65 -62.05 177.65 -66.3
Q 184.55 -67.1 188.55 -68.3
L 187.1 -70.55
Q 176.3 -67.85 164 -68
L 164.9 -65.55
Q 170.45 -65.55 174.95 -65.9
M 167.75 -52.8
L 174.95 -52.8 174.95 -49.05 167.75 -49.05 167.75 -52.8
M 177.65 -52.8
L 184.85 -52.8 184.85 -49.05 177.65 -49.05 177.65 -52.8
M 184.85 -46.45
L 184.85 -42.3 177.65 -42.3 177.65 -46.45 184.85 -46.45
M 174.95 -46.45
L 174.95 -42.3 167.75 -42.3 167.75 -46.45 174.95 -46.45
M 137.85 -26.7
Q 136.2 -29.5 133.3 -32.05
L 131.25 -30.6
Q 133.95 -28.05 135.6 -25.25
L 137.85 -26.7
M 149.05 -38.3
L 146.4 -38.3 146.4 -36.25 129.05 -36.25 129.05 -33.7 146.4 -33.7 146.4 -27.3
Q 146.4 -26.85 146 -26.4 145.55 -25.95 145 -25.9 144.45 -25.85 140.55 -25.85
L 141.4 -23.3
Q 145.6 -23.3 146.45 -23.4 147.25 -23.45 148.15 -24.4 149.05 -25.4 149.05 -27
L 149.05 -33.7 155.3 -33.7 155.3 -36.25 149.05 -36.25 149.05 -38.3
M 127.05 -63.25
L 127.05 -65.8 119.85 -65.8 119.85 -70.55 117.2 -70.55 117.2 -65.8 109.05 -65.8 109.05 -63.25 117.2 -63.25 117.2 -58.8 110.5 -58.8 110.5 -38.45 117.2 -38.45 117.2 -33.45 108.3 -33.45 108.3 -30.7 117.2 -30.7 117.2 -23.4 119.85 -23.4 119.85 -30.7 127.1 -30.7 127.1 -33.45 119.85 -33.45 119.85 -38.45 126.65 -38.45 126.65 -58.8 119.85 -58.8 119.85 -63.25 127.05 -63.25
M 123.85 -56.25
L 123.85 -50.15 119.85 -50.15 119.85 -56.25 123.85 -56.25
M 113.2 -50.15
L 113.2 -56.25 117.2 -56.25 117.2 -50.15 113.2 -50.15
M 117.2 -41
L 113.2 -41 113.2 -47.5 117.2 -47.5 117.2 -41
M 119.85 -41
L 119.85 -47.5 123.85 -47.5 123.85 -41 119.85 -41
M 139.9 -70.55
L 139.9 -66.95 129.3 -66.95 129.3 -64.4 139.9 -64.4 139.9 -60.7 130.4 -60.7 130.4 -45.7 139.9 -45.7 139.9 -41.85
Q 136.2 -41.65 128.9 -41.45
L 129.65 -38.95
Q 141.2 -39.5 151.7 -40.5 152.5 -39.45 153.1 -38.3
L 155.1 -40
Q 153.35 -42.75 150.45 -45.7
L 152.25 -45.7 152.25 -60.7 142.75 -60.7 142.75 -64.4 153.9 -64.4 153.9 -66.95 142.75 -66.95 142.75 -70.55 139.9 -70.55
M 133.1 -54.65
L 133.1 -58.2 139.9 -58.2 139.9 -54.65 133.1 -54.65
M 133.1 -52.3
L 139.9 -52.3 139.9 -48.3 133.1 -48.3 133.1 -52.3
M 142.75 -52.3
L 149.55 -52.3 149.55 -48.3 142.75 -48.3 142.75 -52.3
M 149.55 -54.65
L 142.75 -54.65 142.75 -58.2 149.55 -58.2 149.55 -54.65
M 149.95 -45.7
L 148.25 -44.45
Q 148.65 -44.05 149.75 -42.75 146.2 -42.35 142.75 -42.1
L 142.75 -45.7 149.95 -45.7
M 454.3 -109.85
Q 454.3 -108.25 456.25 -107.25 456.25 -106.15 455.05 -104.5
L 456.2 -103.65
Q 459.4 -106.2 459.4 -108.9 459.4 -112.25 456.85 -112.25 455.65 -112.25 455 -111.4 454.3 -110.65 454.3 -109.85
M 394.9 -111.2
L 392.25 -112.7
Q 385.8 -101.65 378.8 -95.65
L 380.95 -93.6
Q 387.9 -99.9 394.9 -111.2
M 420.35 -131.95
L 420.35 -134.85 384.8 -134.85 384.8 -131.95 420.35 -131.95
M 426.25 -118.8
L 426.25 -121.65 378.95 -121.65 378.95 -118.8 401.3 -118.8 401.3 -88.4 404.2 -88.4 404.2 -118.8 426.25 -118.8
M 413.35 -112.55
L 410.75 -110.9
Q 418.3 -103.25 423.95 -93.7
L 426.35 -95.1
Q 422.6 -102.35 413.35 -112.55
M 344.2 -134.7
L 344.2 -116.55 367.7 -116.55 367.7 -134.7 344.2 -134.7
M 347.05 -127.25
L 347.05 -132 365 -132 365 -127.25 347.05 -127.25
M 347.05 -119.3
L 347.05 -124.6 365 -124.6 365 -119.3 347.05 -119.3
M 340.4 -112.4
L 340.4 -109.6 354.35 -109.6 354.35 -92.95
Q 349.8 -94 346.75 -100.2 347.35 -103.2 347.55 -106.15
L 344.85 -106.4
Q 344.45 -96.9 338.4 -90.15
L 340.75 -88.4
Q 343.6 -91.45 345.8 -96.65 348.9 -91.55 353.1 -90.3 357.3 -89.1 364.3 -89.1
L 371.45 -89.1 372.35 -91.95 363.7 -91.95
Q 359.65 -91.95 357.2 -92.45
L 357.2 -100.6 369.15 -100.6 369.15 -103.3 357.2 -103.3 357.2 -109.6 370.9 -109.6 370.9 -112.4 340.4 -112.4
M 325.5 -123.95
L 332.5 -123.95 332.5 -112.45
Q 329.7 -110.55 324.8 -108.05
L 325.85 -105.5
Q 330.15 -107.5 332.5 -109.2
L 332.5 -92.95
Q 332.5 -92.5 332.05 -92 331.6 -91.5 331.15 -91.5 327 -91.5 326.3 -91.55
L 327.2 -88.7
Q 328.3 -88.65 329.65 -88.65 332.25 -88.65 333.05 -88.9 333.85 -89.15 334.55 -90 335.2 -90.8 335.2 -92
L 335.2 -110.8
Q 337.7 -112.2 340.7 -114.35
L 340.1 -117.15
Q 337.25 -115.15 335.2 -114.05
L 335.2 -123.95 341.25 -123.95 341.25 -126.65 335.2 -126.65 335.2 -136 332.5 -136 332.5 -126.65 325.5 -126.65 325.5 -123.95
M 303.25 -135.8
L 300.35 -135.95 300.35 -101.4
Q 300.35 -100.05 301.4 -98.85 302.45 -97.65 304.05 -97.65
L 317.65 -97.65 317.65 -100.35 304.75 -100.35
Q 304.3 -100.35 303.8 -100.85 303.25 -101.35 303.25 -101.85
L 303.25 -119.9 316.8 -119.9 316.8 -122.7 303.25 -122.7 303.25 -135.8
M 274.9 -134.7
L 274.9 -116.5 294.25 -116.5 294.25 -134.7 274.9 -134.7
M 277.7 -127.2
L 277.7 -131.95 291.45 -131.95 291.45 -127.2 277.7 -127.2
M 277.7 -119.25
L 277.7 -124.45 291.45 -124.45 291.45 -119.25 277.7 -119.25
M 271.85 -112.45
L 271.85 -109.85 284.6 -109.85 284.6 -94.6
Q 280.45 -96.45 278.25 -99.75 278.85 -102.25 279.55 -106.8
L 276.7 -107.3
Q 275.3 -96.4 270.85 -90.15
L 273.05 -88.3
Q 275.55 -91.45 277.4 -96.65 280 -93.65 283.8 -92 287.6 -90.35 291.6 -90 295.6 -89.7 306 -89.7 310.7 -89.7 317.15 -89.8
L 318.1 -92.7
Q 312.3 -92.35 304.6 -92.35 293.1 -92.35 287.45 -93.75
L 287.45 -100.7 295.8 -100.7 295.8 -103.4 287.45 -103.4 287.45 -109.85 297.35 -109.85 297.35 -112.45 271.85 -112.45
M 238.5 -88.6
L 238.5 -98 243.65 -98 243.65 -90.5 246.15 -90.5 246.15 -98 251.15 -98 251.15 -90.5 253.6 -90.5 253.6 -98 258.7 -98 258.7 -92.6
Q 258.7 -91.2 257.35 -91.2 255.75 -91.2 255.45 -91.25
L 256.05 -88.65
Q 256.55 -88.6 257.85 -88.6 261.3 -88.6 261.3 -92.45
L 261.3 -108.6 236 -108.6 236 -88.6 238.5 -88.6
M 243.55 -106.15
L 243.55 -100.4 238.5 -100.4 238.5 -106.15 243.55 -106.15
M 251.15 -100.4
L 246.15 -100.4 246.15 -106.15 251.15 -106.15 251.15 -100.4
M 258.7 -100.4
L 253.6 -100.4 253.6 -106.15 258.7 -106.15 258.7 -100.4
M 233 -107.55
L 230.65 -108.1
Q 229.9 -102.05 228.8 -98.9
L 231.3 -98.25
Q 232.3 -101.4 233 -107.55
M 242.8 -111.65
L 242.8 -120.2 235.25 -120.2 235.25 -111.65 242.8 -111.65
M 240.6 -113.85
L 237.55 -113.85 237.55 -117.8 240.6 -117.8 240.6 -113.85
M 220.15 -108.15
L 217.8 -107.25
Q 219.35 -102.7 220.15 -96.6
L 222.6 -97.35
Q 222 -102 220.15 -108.15
M 227.9 -135.45
L 225.6 -136.3
Q 222.3 -128.8 216.45 -122.3
L 218.25 -120.35 220.05 -122.4 220.05 -120.45 224.5 -120.45 224.5 -114.25 217.6 -114.25 217.6 -111.75 224.5 -111.75 224.5 -94.35
Q 220.95 -93.15 216.45 -92.05
L 217.3 -89.65
Q 224.5 -91.6 233.65 -94.85
L 233.4 -97.25
Q 230.45 -96.15 227.1 -95.15
L 227.1 -111.75 232.75 -111.75 232.75 -114.25 227.1 -114.25 227.1 -120.45 231.25 -120.45 231.25 -122.95 220.5 -122.95
Q 224.5 -128.3 226.25 -131.65 228.85 -129.3 231.7 -125.45
L 233.5 -127.4
Q 230.55 -131.1 227.35 -133.9 227.75 -134.7 227.9 -135.45
M 252.3 -111.65
L 252.3 -120.2 244.95 -120.2 244.95 -111.65 252.3 -111.65
M 250.1 -113.85
L 247.15 -113.85 247.15 -117.75 250.1 -117.75 250.1 -113.85
M 254.4 -111.65
L 261.95 -111.65 261.95 -120.2 254.4 -120.2 254.4 -111.65
M 259.6 -117.75
L 259.6 -113.85 256.6 -113.85 256.6 -117.75 259.6 -117.75
M 250.7 -135.15
L 248.4 -136.4
Q 242.05 -128.45 232.3 -123.1
L 233.95 -121.1
Q 236.8 -122.65 240.25 -125.1
L 240.25 -123.5 255.95 -123.5 255.95 -125.5
Q 258.3 -123.85 262.75 -121.2
L 264.1 -123.45
Q 255.9 -127.7 250 -134.2 250.15 -134.35 250.35 -134.7 250.55 -135 250.7 -135.15
M 248.3 -132.3
Q 251.45 -128.8 255.2 -126.05
L 241.45 -126.05
Q 245.65 -129.35 248.3 -132.3
M 182.3 -104.35
L 183.75 -102.05
Q 189.15 -103.4 193.7 -105.85 194.6 -104.95 195.2 -104.2 190.3 -100.45 181.9 -97.85
L 183.3 -95.7
Q 190.55 -97.9 196.3 -102.05 197 -100.85 197.15 -99.3 191.75 -94.85 181.2 -91.6
L 182.65 -89.35
Q 192.05 -92.55 197.55 -96.85 197.7 -93.15 197.05 -92.1 196.35 -91.05 194.6 -91.05 193.1 -91.05 191.3 -91.25
L 191.95 -88.7
Q 193.1 -88.55 194.45 -88.55 198.4 -88.55 199.4 -90.6 200.45 -92.7 200.25 -96.75 203.3 -93.2 208.15 -89.65
L 209.85 -91.6
Q 203.15 -96.2 199.65 -101 205.2 -103.15 208.55 -105.25
L 207 -107.3
Q 202.65 -104.6 198.55 -103.25 197.25 -105.7 195.9 -107.1 197.6 -108.25 199.2 -109.65
L 208.9 -109.65 208.9 -112.3 183.5 -112.3 183.5 -109.65 195.6 -109.65
Q 190.1 -106 182.3 -104.35
M 162.45 -123.85
L 169 -123.85 169 -110.85
Q 166.5 -109.75 161.95 -108.3
L 162.9 -105.6
Q 165.4 -106.35 169 -107.85
L 169 -92.75
Q 169 -92.05 168.55 -91.7 168.1 -91.4 166.65 -91.4 165.2 -91.4 163.25 -91.45
L 164.1 -88.7
Q 164.7 -88.65 165.6 -88.65 169.3 -88.65 170.5 -89.35 171.7 -90.1 171.7 -92.3
L 171.7 -109.05
Q 174.95 -110.4 177 -111.55
L 176.2 -114.05
Q 173.6 -112.75 171.7 -111.95
L 171.7 -123.85 176.65 -123.85 176.65 -126.4 171.7 -126.4 171.7 -136 169 -136 169 -126.4 162.45 -126.4 162.45 -123.85
M 193.6 -128
L 193.6 -130.9 206.25 -130.9 206.25 -133.4 193.6 -133.4 193.6 -136.05 190.8 -136.05 190.8 -128 178.8 -128 178.8 -114.5
Q 178.8 -104.15 177.5 -98.8 176.2 -93.45 174.15 -90.2
L 176.6 -88.75
Q 178.75 -92.1 180.15 -98.2 181.55 -104.35 181.55 -116.3
L 181.55 -125.45 189.6 -125.45 189.6 -122.4 183.1 -122 183.35 -119.65 189.6 -120.1 189.6 -118.3
Q 189.6 -114.85 192.75 -114.85
L 206.3 -114.85 206.3 -117.4 193.5 -117.4
Q 193 -117.4 192.65 -117.8 192.3 -118.25 192.3 -118.75
L 192.3 -120.3 201.7 -120.85 201.6 -123.15 192.3 -122.65 192.3 -125.45 205.4 -125.45
Q 204.9 -123.35 203.75 -120.4
L 206.25 -119.75
Q 208.1 -124.8 208.5 -128
L 193.6 -128
M 131.95 -113.55
L 151.7 -113.55 151.7 -134.6 129.05 -134.6 129.05 -92.95
Q 129.05 -91.75 128.1 -91.1
L 129.45 -88.4
Q 135.15 -90.1 142 -92.95
L 141.45 -95.75
Q 135.65 -93.2 131.95 -92.25
L 131.95 -113.55
M 148.8 -131.9
L 148.8 -125.6 131.95 -125.6 131.95 -131.9 148.8 -131.9
M 131.95 -116.35
L 131.95 -122.85 148.8 -122.85 148.8 -116.35 131.95 -116.35
M 141.6 -110.45
L 139.1 -109.75
Q 141.45 -97.2 153.5 -88.1
L 155.65 -90.15
Q 148.85 -95.15 145.3 -100.85 150.65 -104.4 154.55 -108.95
L 152.05 -110.55
Q 148.25 -106.15 144.05 -103.5 142.7 -105.85 141.6 -110.45
M 116.9 -124.9
L 109.3 -124.9 109.3 -122.05 116.8 -122.05
Q 114.45 -114.1 107.9 -105.3
L 109.8 -102.9
Q 113.7 -108.2 116.9 -115
L 116.9 -88.65 119.8 -88.65 119.8 -117.4
Q 122.45 -113.7 124.3 -109.8
L 126.5 -111.85
Q 123.55 -117.3 119.8 -121.8
L 119.8 -122.05 126.35 -122.05 126.35 -124.9 119.8 -124.9 119.8 -136 116.9 -136 116.9 -124.9 Z"/>
</g>
</defs>

<g transform="matrix( 0.76409912109375, 0, 0, 0.76409912109375, -25.7,125.1) ">
<g id="____" transform="matrix( 1.3129119873046875, 0, 0, 0.918365478515625, 178.15,239.6) ">
<g transform="matrix( 1, 0, 0, 1, 0,0) ">
<use xlink:href="#flash0_ai____Illustrator_________0_Layer0_0_FILL"/>
</g>
</g>

<g transform="matrix( 0.918365478515625, 0, 0, 0.918365478515625, 0,0) ">
<use xlink:href="#______0_Layer1_0_MEMBER_0_MEMBER_0_MEMBER_0_MEMBER_0_FILL"/>
</g>

<g transform="matrix( 0.918365478515625, 0, 0, 0.918365478515625, 0,0) ">
<use xlink:href="#______0_Layer1_0_MEMBER_1_MEMBER_0_MEMBER_0_MEMBER_0_FILL"/>
</g>

<g transform="matrix( 0.918365478515625, 0, 0, 0.918365478515625, 0,0) ">
<use xlink:href="#______0_Layer1_0_MEMBER_2_MEMBER_0_MEMBER_0_MEMBER_0_FILL"/>
</g>

<g transform="matrix( 0.918365478515625, 0, 0, 0.918365478515625, 0,0) ">
<use xlink:href="#______0_Layer1_0_MEMBER_3_MEMBER_0_MEMBER_0_MEMBER_0_FILL"/>
</g>

<g transform="matrix( 0.918365478515625, 0, 0, 0.918365478515625, 0,0) ">
<use xlink:href="#______0_Layer1_0_MEMBER_4_MEMBER_0_MEMBER_0_MEMBER_0_FILL"/>
</g>

<g transform="matrix( 0.918365478515625, 0, 0, 0.918365478515625, 0,0) ">
<use xlink:href="#______0_Layer1_0_MEMBER_5_MEMBER_0_MEMBER_0_MEMBER_0_FILL"/>
</g>

<g transform="matrix( 0.918365478515625, 0, 0, 0.918365478515625, 0,0) ">
<use xlink:href="#______0_Layer1_0_MEMBER_5_MEMBER_0_MEMBER_0_MEMBER_1_FILL"/>
</g>

<g transform="matrix( 0.918365478515625, 0, 0, 0.918365478515625, 0,0) ">
<use xlink:href="#______0_Layer1_0_MEMBER_6_MEMBER_0_MEMBER_0_MEMBER_0_FILL"/>
</g>

<g transform="matrix( 0.918365478515625, 0, 0, 0.918365478515625, 0,0) ">
<use xlink:href="#______0_Layer1_0_MEMBER_7_MEMBER_0_MEMBER_0_MEMBER_0_FILL"/>
</g>

<g transform="matrix( 0.918365478515625, 0, 0, 0.918365478515625, 0,0) ">
<use xlink:href="#______0_Layer1_0_MEMBER_8_MEMBER_0_MEMBER_0_MEMBER_0_FILL"/>
</g>

<g transform="matrix( 0.918365478515625, 0, 0, 0.918365478515625, 0,0) ">
<use xlink:href="#______0_Layer1_0_MEMBER_9_MEMBER_0_MEMBER_0_MEMBER_0_FILL"/>
</g>

<g transform="matrix( 0.918365478515625, 0, 0, 0.918365478515625, 0,0) ">
<use xlink:href="#______0_Layer1_0_MEMBER_10_MEMBER_0_MEMBER_0_MEMBER_0_MEMBER_0_FILL"/>
</g>

<g transform="matrix( 0.918365478515625, 0, 0, 0.918365478515625, 0,0) ">
<use xlink:href="#______0_Layer1_0_MEMBER_10_MEMBER_1_MEMBER_0_MEMBER_0_MEMBER_0_FILL"/>
</g>

<g transform="matrix( 0.918365478515625, 0, 0, 0.918365478515625, 0,0) ">
<use xlink:href="#______0_Layer1_0_MEMBER_10_MEMBER_2_MEMBER_0_MEMBER_0_MEMBER_0_FILL"/>
</g>

<g transform="matrix( 0.918365478515625, 0, 0, 0.918365478515625, 0,0) ">
<use xlink:href="#______0_Layer1_0_MEMBER_10_MEMBER_3_MEMBER_0_MEMBER_0_MEMBER_0_FILL"/>
</g>

<g transform="matrix( 0.918365478515625, 0, 0, 0.918365478515625, 0,0) ">
<use xlink:href="#______0_Layer1_0_MEMBER_10_MEMBER_4_MEMBER_0_MEMBER_0_MEMBER_0_FILL"/>
</g>

<g transform="matrix( 0.918365478515625, 0, 0, 0.918365478515625, 0,0) ">
<use xlink:href="#______0_Layer1_0_MEMBER_10_MEMBER_5_MEMBER_0_MEMBER_0_MEMBER_0_FILL"/>
</g>

<g transform="matrix( 0.918365478515625, 0, 0, 0.918365478515625, 0,0) ">
<use xlink:href="#______0_Layer1_0_MEMBER_11_MEMBER_0_MEMBER_0_MEMBER_0_MEMBER_0_FILL"/>
</g>

<g transform="matrix( 0.918365478515625, 0, 0, -0.918365478515625, 0,277.6) ">
<use xlink:href="#______0_Layer1_0_MEMBER_11_MEMBER_0_MEMBER_1_MEMBER_0_FILL"/>
</g>

<g transform="matrix( -0.0594024658203125, -0.9982147216796875, 0.9982147216796875, -0.0594024658203125, 54.05,232.65) ">
<g transform="matrix( 1, 0, 0, 1, 0,0) ">
<g transform="matrix( 0.918365478515625, 0, 0, 0.918365478515625, -214.05,-138.5) ">
<use xlink:href="#_____2_0_Layer0_0_MEMBER_0_MEMBER_0_MEMBER_0_FILL"/>
</g>
</g>
</g>

<g transform="matrix( -0.9565277099609375, -0.29150390625, -0.29150390625, 0.9565277099609375, 330.7,140) ">
<g transform="matrix( 1, 0, 0, 1, 0,0) ">
<g transform="matrix( 0.918365478515625, 0, 0, 0.918365478515625, -214.05,-138.5) ">
<use xlink:href="#_____2_0_Layer0_0_MEMBER_0_MEMBER_0_MEMBER_0_FILL"/>
</g>
</g>
</g>

<g transform="matrix( 1, 0, 0, 1, 134.9,89.7) ">
<g transform="matrix( 0.918365478515625, 0, 0, 0.918365478515625, -119.55,-88.3) ">
<use xlink:href="#____0_Layer0_0_MEMBER_0_MEMBER_0_MEMBER_0_FILL"/>
</g>

<g transform="matrix( 0.918365478515625, 0, 0, 0.918365478515625, -115.55,-87.35) ">
<use xlink:href="#____0_Layer0_1_MEMBER_0_MEMBER_0_MEMBER_0_FILL"/>
</g>
</g>

<g transform="matrix( 1, 0, 0, 1.201263427734375, -4.4,-1.7) ">
<use xlink:href="#______0_Layer0_0_MEMBER_0_MEMBER_0_FILL"/>
</g>

<g transform="matrix( 1, 0, 0, 1, 0,6.8) ">
<use xlink:href="#______0_Layer0_1_FILL"/>
</g>

<g transform="matrix( 0.9312744140625, 0, 0, 0.9312744140625, 22.9,-3.75) ">
<use xlink:href="#______0_Layer0_2_FILL"/>
</g>
</g>
</svg>
