
<svg xmlns="http://www.w3.org/2000/svg" version="1.1" xmlns:xlink="http://www.w3.org/1999/xlink" preserveAspectRatio="none" x="0px" y="0px" width="632px" height="345px" viewBox="0 0 632 345">
<defs>
<linearGradient id="Gradient_1" gradientUnits="userSpaceOnUse" x1="160.6375" y1="144.5875" x2="250.8625" y2="234.4125" spreadMethod="pad">
<stop  offset="0%" stop-color="#00CCFF"/>

<stop  offset="100%" stop-color="#0099CC"/>
</linearGradient>

<g id="___0_Layer3_0_FILL">
<path fill="#FFFFFF" stroke="none" d="
M 944.3 396.5
L 944.3 72.55 46.3 72.55 46.3 396.5 944.3 396.5 Z"/>
</g>

<g id="___0_Layer3_1_FILL">
<path fill="#6699CC" stroke="none" d="
M 953.05 397.75
L 953.05 369 33.8 369 33.8 397.75 953.05 397.75 Z"/>
</g>

<g id="___0_Layer3_2_FILL">
<path fill="#FF9933" stroke="none" d="
M 929.3 -51.65
Q 929.3 -71.35 919.1 -85.3 909 -99.2 894.65 -99.2
L 34.65 -99.2
Q 20.3 -99.2 10.15 -85.3 0 -71.35 0 -51.65
L 0 38.5 929.3 38.5 929.3 -51.65 Z"/>
</g>

<g id="__0_Layer0_0_FILL">
<path fill="url(#Gradient_1)" stroke="none" d="
M 331.45 232.65
L 331.45 146.35
Q 331.45 126.35 311.45 126.35
L 100.05 126.35
Q 80.05 126.35 80.05 146.35
L 80.05 232.65
Q 80.05 252.65 100.05 252.65
L 311.45 252.65
Q 331.45 252.65 331.45 232.65 Z"/>
</g>

<g id="__0_Layer0_1_FILL">
<path fill="#99FFFF" stroke="none" d="
M -98.85 -33.9
L -106.15 -44.3 -136.5 107.7 -122.85 98.15 -98.85 -33.9 Z"/>
</g>

<g id="__0_Layer0_2_FILL">
<path fill="#99FFFF" stroke="none" d="
M 325.1 163.05
Q 325.1 160.6 324.7 158.5
L 236.1 247.15 309.25 247.15
Q 325.1 247.15 325.1 231.3
L 325.1 163.05 Z"/>
</g>

<g id="__0_Layer0_3_FILL">
<path fill="#99FFFF" stroke="none" d="
M 325.1 163.05
Q 325.1 160.6 324.7 158.5
L 236.1 247.15 309.25 247.15
Q 325.1 247.15 325.1 231.3
L 325.1 163.05 Z"/>
</g>

<g id="___0_Layer3_6_FILL">
<path fill="#89B7E5" stroke="none" d="
M 953.05 397.75
L 953.05 369 33.8 369 33.8 397.75 953.05 397.75 Z"/>
</g>

<g id="___0_Layer1_0_FILL">
<path fill="#D7EBFF" stroke="none" d="
M 324.05 316.3
L 324.05 1.95 304.6 1.95 304.6 316.3 324.05 316.3 Z"/>
</g>

<g id="___0_Layer1_1_FILL">
<path fill="#D7EBFF" stroke="none" d="
M 324.05 316.3
L 324.05 1.95 304.6 1.95 304.6 316.3 324.05 316.3 Z"/>
</g>

<g id="___0_Layer1_2_FILL">
<path fill="#D7EBFF" stroke="none" d="
M 324.05 316.3
L 324.05 1.95 304.6 1.95 304.6 316.3 324.05 316.3 Z"/>
</g>

<g id="___0_Layer1_3_FILL">
<path fill="#CC6600" stroke="none" d="
M 324.05 316.3
L 324.05 1.95 304.6 1.95 304.6 316.3 324.05 316.3 Z"/>
</g>

<g id="___0_Layer1_4_FILL">
<path fill="#FFCC66" stroke="none" d="
M 894.65 -26.6
Q 909 -26.6 919.1 -12.7 928.7142578125 0.4490234375 929.25 18.7
L 929.3 3
Q 929.3 -16.7 919.1 -30.65 909 -44.55 894.65 -44.55
L 34.65 -44.55
Q 20.3 -44.55 10.15 -30.65 0 -16.7 0 3
L 0 18.7
Q 0.5826171875 0.44921875 10.15 -12.7 20.3 -26.6 34.65 -26.6
L 894.65 -26.6 Z"/>
</g>

<g id="___0_Layer0_0_MEMBER_0_FILL">
<path fill="#CC6600" stroke="none" d="
M 863.55 227.35
Q 863.55 211.85 848.05 211.85
L 496.8 211.85
Q 481.3 211.85 481.3 227.35
L 481.3 303.6
Q 481.3 319.1 496.8 319.1
L 848.05 319.1
Q 863.55 319.1 863.55 303.6
L 863.55 227.35 Z"/>
</g>

<g id="___0_Layer0_0_MEMBER_1_FILL">
<path fill="#666666" stroke="none" d="
M 589.95 302.6
Q 581.025 296.7369140625 572.1 302.6
L 572.1 397.5 589.95 397.5 589.95 302.6 Z"/>
</g>

<g id="___0_Layer0_0_MEMBER_2_FILL">
<path fill="#666666" stroke="none" d="
M 589.95 302.6
Q 581.375 296.566015625 572.1 302.6
L 572.1 397.5 589.95 397.5 589.95 302.6 Z"/>
</g>

<g id="___0_Layer0_0_MEMBER_3_FILL">
<path fill="#FFCC00" stroke="none" d="
M 863.55 227.35
Q 863.55 211.85 848.05 211.85
L 496.8 211.85
Q 481.3 211.85 481.3 227.35
L 481.3 303.6
Q 481.3 319.1 496.8 319.1
L 848.05 319.1
Q 863.55 319.1 863.55 303.6
L 863.55 227.35 Z"/>
</g>

<g id="___0_Layer0_0_MEMBER_4_FILL">
<path fill="#CC6600" stroke="none" d="
M 405.25 21.95
L 415.7 21.95
Q 419.25 21.95 419.25 18.5 419.25 15.1 415.7 15.1
L 405.25 15.1 405.25 4.45
Q 405.25 2.65 404.2 1.65 403.1 0.5 401.35 0.5 399.6 0.5 398.65 1.65 397.6 2.75 397.6 4.45
L 397.6 15.1 388.6 15.1
Q 387.25 15.1 386.45 16.05 385.55 17 385.55 18.5 385.55 21.95 388.5 21.95
L 397.6 21.95 397.6 39.4
Q 397.6 45.3 400.95 48.35 404 51.25 409.25 51.25 413.05 51.25 417.15 49.4 422.2 47.2 422.2 44 422.2 42.75 421.3 41.7 420.4 40.65 419.25 40.65 418.2 40.65 415.4 42.45 412.65 44.25 410.5 44.25 405.25 44.25 405.25 39.4
L 405.25 21.95
M 458.9 16.25
Q 454.45 13.7 447.45 13.7 426.5 13.7 426.5 21.65 426.5 23 427.4 23.9 428.4 24.85 429.65 24.85 430.9 24.85 436.35 22.8 441.9 20.7 445.35 20.7 449.4 20.7 452.15 22 455.75 23.7 455.85 27.2 446.9 27.65 442.85 28 434.75 28.65 430.95 30.4 424.65 33.25 424.65 39.9 424.65 51.15 441.15 51.15 446 51.15 449.2 50.25 452.65 49.25 456.4 46.7 458.25 51.15 462.5 51.15 464.65 51.15 466.25 49.9 467.85 48.65 467.85 46.55 467.85 46.5 466.1 42.4 464.35 38.15 464.35 35.75
L 464.35 25.9
Q 464.35 19.45 458.9 16.25
M 455.85 34.35
L 455.85 40.8
Q 448.55 44.15 442.3 44.15 434.05 44.15 434.05 39.85 434.05 35.55 444.05 34.7 448.2 34.35 455.85 34.35
M 488.9 1.65
Q 487.8 0.5 486.05 0.5 484.3 0.5 483.35 1.65 482.3 2.75 482.3 4.45
L 482.3 15.1 473.3 15.1
Q 471.95 15.1 471.15 16.05 470.25 17 470.25 18.5 470.25 21.95 473.2 21.95
L 482.3 21.95 482.3 39.4
Q 482.3 45.3 485.65 48.35 488.7 51.25 493.95 51.25 497.75 51.25 501.85 49.4 506.9 47.2 506.9 44 506.9 42.75 506 41.7 505.1 40.65 503.95 40.65 502.9 40.65 500.1 42.45 497.35 44.25 495.2 44.25 489.95 44.25 489.95 39.4
L 489.95 21.95 500.4 21.95
Q 503.95 21.95 503.95 18.5 503.95 15.1 500.4 15.1
L 489.95 15.1 489.95 4.45
Q 489.95 2.65 488.9 1.65
M 516.15 13.9
Q 512.25 13.9 512.25 17.65
L 512.25 47.45
Q 512.25 51.25 516.15 51.25 519.95 51.25 519.95 47.45
L 519.95 17.65
Q 519.95 13.9 516.15 13.9
M 561.35 18.75
Q 555.1 13.7 546.8 13.7 538.4 13.7 532.2 18.75 525.65 24.1 525.65 32.35 525.65 40.55 532.2 46 538.4 51.15 546.8 51.15 555.05 51.15 561.3 46 567.85 40.55 567.85 32.35 567.85 24.1 561.35 18.75
M 546.8 20.65
Q 552 20.65 555.8 23.8 559.8 27.35 559.8 32.4 559.8 37.6 555.95 40.95 552 44.35 546.8 44.35 541.5 44.35 537.65 41 533.7 37.6 533.7 32.4 533.7 27.35 537.7 23.8 541.5 20.65 546.8 20.65
M 611.6 46.35
L 611.6 29.7
Q 611.6 21.95 607.3 17.8 602.9 13.7 595.05 13.7 589.7 13.7 586.65 14.85 583 16.45 580.05 20.65 580.05 17 579.65 15.75 578.9 13.7 576.4 13.7 572.1 13.7 572.1 17.7
L 572.1 45.95
Q 572.1 51.25 576.05 51.25 578.45 51.25 579.25 49.7 579.85 48.65 579.85 46.05
L 579.85 32.15
Q 579.85 27.55 583.45 24.5 587.15 21.3 592.4 21.3 603.9 21.3 603.9 32.55
L 603.9 46.4
Q 603.9 48.8 604.45 49.75 605.25 51.25 607.5 51.25 611.6 51.25 611.6 46.35
M 516.15 -4.15
Q 513.9 -4.15 512.3 -2.6 510.8 -1 510.8 1.2 510.8 3.35 512.3 4.95 513.9 6.5 516.15 6.5 518.35 6.5 519.9 4.95 521.45 3.35 521.45 1.2 521.45 -1 519.9 -2.6 518.35 -4.15 516.15 -4.15
M 357.1 -4.2
Q 348.2 -4.2 342.65 -1.5 335.1 2.05 335.1 9.95 335.1 19.25 355.75 26.15 359.15 27.35 362.55 28.4 367.7 30.05 370.45 31.8 374.15 34.1 374.15 36.55 374.15 44.25 359.45 44.25 355 44.25 349.8 41.55 346.9 40.2 341.9 36.85 338.1 34.35 337.1 34.35 335.4 34.35 334.35 35.55 333.25 36.8 333.25 38.45 333.25 40.6 338.45 44.5 347.4 51.35 358.75 51.35 369.3 51.35 375.05 48.85 383.1 45.4 383.1 36.5 383.1 30.75 379.6 27 376.85 24.1 371.35 21.95 371 21.8 361.75 18.75 350.65 15.15 350.55 15.1 343.9 12.3 343.9 9 343.9 2.8 357.1 2.8 360.4 2.8 366.6 5.1 372.75 7.4 374.9 7.4 379.2 7.4 379.2 4 379.2 1.65 377.2 0.45 369.5 -4.2 357.1 -4.2 Z"/>
</g>
</defs>

<g transform="matrix( 0.64483642578125, 0, 0, 0.64483642578125, 16.55,93.5) ">
<g transform="matrix( 1.0534515380859375, 0, 0, 1.31146240234375, -57.8,-134.65) ">
<use xlink:href="#___0_Layer3_0_FILL"/>
</g>

<g transform="matrix( 1.0534515380859375, 0, 0, 1.5713043212890625, -56.1,-238.25) ">
<use xlink:href="#___0_Layer3_1_FILL"/>
</g>

<g transform="matrix( 1.0534515380859375, 0, 0, 1, -24.8,-42) ">
<use xlink:href="#___0_Layer3_2_FILL"/>
</g>

<g transform="matrix( 1.0534515380859375, 0, 0, 1.3388671875, 26.5,33.75) ">
<g transform="matrix( 1, 0, 0, 1, -80.05,-126.35) ">
<use xlink:href="#__0_Layer0_0_FILL"/>
</g>

<g transform="matrix( 0.83941650390625, 0.5760498046875, -0.5760498046875, 0.83941650390625, 304.25,106.95) ">
<use xlink:href="#__0_Layer0_1_FILL"/>
</g>

<g transform="matrix( 0.929779052734375, 0, 0, 0.929779052734375, -59.7,-111.45) ">
<use xlink:href="#__0_Layer0_2_FILL"/>
</g>

<g transform="matrix( -0.929779052734375, 0, 0, -0.929779052734375, 312.05,238.35) ">
<use xlink:href="#__0_Layer0_3_FILL"/>
</g>
</g>

<g transform="matrix( 1.0534515380859375, 0, 0, 1.3388671875, 333.45,33.75) ">
<g transform="matrix( 1, 0, 0, 1, -80.05,-126.35) ">
<use xlink:href="#__0_Layer0_0_FILL"/>
</g>

<g transform="matrix( 0.83941650390625, 0.5760498046875, -0.5760498046875, 0.83941650390625, 304.25,106.95) ">
<use xlink:href="#__0_Layer0_1_FILL"/>
</g>

<g transform="matrix( 0.929779052734375, 0, 0, 0.929779052734375, -59.7,-111.45) ">
<use xlink:href="#__0_Layer0_2_FILL"/>
</g>

<g transform="matrix( -0.929779052734375, 0, 0, -0.929779052734375, 312.05,238.35) ">
<use xlink:href="#__0_Layer0_3_FILL"/>
</g>
</g>

<g transform="matrix( 1.0534515380859375, 0, 0, 1.3388671875, 632.55,33.75) ">
<g transform="matrix( 1, 0, 0, 1, -80.05,-126.35) ">
<use xlink:href="#__0_Layer0_0_FILL"/>
</g>

<g transform="matrix( 0.83941650390625, 0.5760498046875, -0.5760498046875, 0.83941650390625, 304.25,106.95) ">
<use xlink:href="#__0_Layer0_1_FILL"/>
</g>

<g transform="matrix( 0.929779052734375, 0, 0, 0.929779052734375, -59.7,-111.45) ">
<use xlink:href="#__0_Layer0_2_FILL"/>
</g>

<g transform="matrix( -0.929779052734375, 0, 0, -0.929779052734375, 312.05,238.35) ">
<use xlink:href="#__0_Layer0_3_FILL"/>
</g>
</g>

<g transform="matrix( 1.0534515380859375, 0, 0, 0.33612060546875, -56.1,207.8) ">
<use xlink:href="#___0_Layer3_6_FILL"/>
</g>

<g transform="matrix( 0.5294189453125, 0, 0, 0.67901611328125, 449.65,2.05) ">
<use xlink:href="#___0_Layer1_0_FILL"/>
</g>

<g transform="matrix( 0.5294189453125, 0, 0, 0.67901611328125, 144.1,2.05) ">
<use xlink:href="#___0_Layer1_1_FILL"/>
</g>

<g transform="matrix( 0, 0.5025634765625, -2.8603973388671875, 0, 919.8,72.75) ">
<use xlink:href="#___0_Layer1_2_FILL"/>
</g>

<g transform="matrix( 0, 1.02325439453125, -3.1150054931640625, 0, 960.05,-335) ">
<use xlink:href="#___0_Layer1_3_FILL"/>
</g>

<g transform="matrix( 1.0534515380859375, 0, 0, 1, -24.8,-97.15) ">
<use xlink:href="#___0_Layer1_4_FILL"/>
</g>

<g transform="matrix( 0.727325439453125, 0, 0, 0.727325439453125, 253.2,110) ">
<use xlink:href="#___0_Layer0_0_MEMBER_0_FILL"/>
</g>

<g transform="matrix( 0.8348236083984375, 0, 0, 0.4958648681640625, 144.35,188.75) ">
<use xlink:href="#___0_Layer0_0_MEMBER_1_FILL"/>
</g>

<g transform="matrix( 0.8348236083984375, 0, 0, 0.4958648681640625, 365.8,188.75) ">
<use xlink:href="#___0_Layer0_0_MEMBER_2_FILL"/>
</g>

<g transform="matrix( 0.727325439453125, 0, 0, 0.727325439453125, 253.4,102.5) ">
<use xlink:href="#___0_Layer0_0_MEMBER_3_FILL"/>
</g>

<g transform="matrix( 0.7522735595703125, 0, 0, 0.7522735595703125, 391.5,278.2) ">
<use xlink:href="#___0_Layer0_0_MEMBER_4_FILL"/>
</g>
</g>
</svg>
