
<svg xmlns="http://www.w3.org/2000/svg" version="1.1" xmlns:xlink="http://www.w3.org/1999/xlink" preserveAspectRatio="none" x="0px" y="0px" width="335px" height="90px" viewBox="0 0 335 90">
<defs>
<g id="_____0_Layer3_0_FILL">
<path fill="#FFFFFF" stroke="none" d="
M 283.05 -7.5
L 281.15 -9.2
Q 280.05 -10.05 278.9 -9.15
L 273.5 -4.5
Q 272.85 -3.8 273.5 -3.55
L 274.7 -3.5 274.7 0.25 285.6 0.25 285.6 -3.5 286.55 -3.5
Q 287.25 -3.8 286.55 -4.55
L 285.75 -5.2 285.75 -8.2
Q 285.75 -9.05 284.95 -9.05
L 283.85 -9.05
Q 283.05 -9.05 283.05 -8.2
L 283.05 -7.5 Z"/>
</g>

<g id="_____0_Layer3_0_MEMBER_0_FILL">
<path fill="#8CC7FC" stroke="none" d="
M 322.05 -3.25
Q 320.9 -3.25 320.1 -2.45 319.3 -1.65 319.3 -0.5
L 319.3 3.25 324.8 3.25 324.8 -0.5
Q 324.8 -1.65 324 -2.45 323.2 -3.25 322.05 -3.25 Z"/>
</g>

<g id="_____0_Layer2_0_FILL">
<path fill="#FF6699" stroke="none" d="
M 63.65 53.6
Q 63.4 51.3 61.8 50.05 59.95 49.05 57.95 49.25 55.65 49.45 54.2 51.05 53.25 52.5 53.45 54.55 53.6 56.35 55 57.85 56.7 59.5 58.85 59.35 60.55 59.15 62.2 57.7 63.85 55.95 63.65 53.6
M 50.3 6.7
L 49.05 6.75
Q 42.65 7.4 35 9.25 32.05 10 29.1 10.7 29.65 9.7 30.3 8.75
L 23.05 5.85
Q 18.35 13.9 11.55 23
L 18.5 26.6
Q 21.65 22.35 24.5 18.2 31.05 16.1 36.55 14.9 44 13.35 47.65 13 48.5 12.95 48.55 13.55 48.6 13.6 48.1 14 45.15 17.15 42.65 19.3
L 46.75 22.2
Q 34.85 23.8 14.8 28.05
L 14.65 26.05 7.15 26.75 9.6 53.65 17.1 52.95 16.95 51.45 21.6 51.05
Q 16.6 59.65 10.6 68
L 17.75 72
Q 24.4 61.85 30.65 50.85 30.9 50.55 31.05 50.2
L 40 49.35
Q 39.75 57.3 40 59.75 40.5 64.1 43.3 66.3 46.05 68.65 51.85 68.15 59.8 67.4 71.55 64
L 71.75 57.6
Q 60.2 61.25 52.7 61.95 48 62.4 47.65 58.45 47.45 56.35 47.8 48.65
L 67.7 46.8 67.1 40.15 66.05 40.25
Q 66.5 33.9 66.05 28.85 65.7 24.85 63.35 22.85 60.95 20.7 55.65 21.2
L 53.25 21.4
Q 51.85 21.55 50.15 21.75 53.5 17.65 56.05 14.2 57.8 11.55 57.75 10.8 57.2 6.1 50.3 6.7
M 42.15 29.35
Q 49.7 28.15 55.65 27.6 58.15 27.4 58.35 29.6 58.8 34.45 58.3 41
L 34.95 43.1
Q 38.3 37 42.15 29.35
M 16.35 44.8
L 15.4 34.45
Q 24.9 32.45 32.95 31 29.55 37.65 25.85 43.95
L 16.35 44.8
M 132.8 52.05
Q 130.55 51.9 128.9 53.25 127.7 54.55 127.55 56.65 127.45 58.45 128.6 60.15 130.05 62 132.15 62.15 133.85 62.25 135.7 61.15 137.6 59.65 137.75 57.3 137.9 54.95 136.5 53.45 134.8 52.2 132.8 52.05
M 128.3 14.65
Q 129.15 14.7 129.1 15.3 129.1 15.35 128.6 15.7 125.2 18.4 122.4 20.15
L 125.95 23.65
Q 113.95 23.4 93.5 24.45
L 93.6 22.45 86.1 22 84.35 48.95 91.85 49.4 91.95 47.9 96.65 48.2
Q 90.35 56 83.15 63.2
L 89.55 68.35
Q 97.75 59.3 105.65 49.45 105.9 49.15 106.1 48.85
L 115.05 49.4
Q 113.6 57.25 113.45 59.7 113.25 64 115.7 66.65 118.1 69.45 123.9 69.8 131.85 70.3 144 68.8
L 145.2 62.45
Q 133.2 64.3 125.7 63.8 121 63.5 121.25 59.6 121.4 57.5 122.9 49.9
L 142.85 51.2 143.3 44.55 142.2 44.5
Q 143.7 38.25 144.05 33.25 144.3 29.2 142.25 26.85 140.2 24.35 134.9 24.05
L 132.55 23.85
Q 131.1 23.8 129.4 23.7 133.35 20.2 136.4 17.15 138.55 14.75 138.6 14 138.8 9.35 131.9 8.9
L 130.65 8.75
Q 124.25 8.45 116.35 9 113.35 9.35 110.3 9.6 111 8.7 111.8 7.85
L 105.1 3.8
Q 99.2 11 91 19
L 97.4 23.6
Q 101.15 19.9 104.6 16.2 111.4 15.15 117 14.8 124.65 14.45 128.3 14.65
M 133.9 30.35
Q 136.4 30.5 136.3 32.75 135.95 37.55 134.45 44
L 111.05 42.45
Q 115.3 36.9 120.35 29.95 127.95 29.95 133.9 30.35
M 92.4 41.25
L 93.05 30.9
Q 102.8 30.4 110.95 30.2 106.6 36.2 101.95 41.9
L 92.4 41.25
M 211.35 17.3
Q 210.4 10.25 202.95 10.25
L 201.7 10.25
Q 188.25 10.25 166.25 12.55
L 166.25 9.5 159.75 9.5 159.75 65.25 166.25 65.25 166.25 63.3 213.05 63.3 213.05 57.35 210.55 57.35
Q 212.1 45.15 212.1 36.8 211.95 21.9 211.35 17.3
M 204.85 18.4
Q 205.6 22.5 205.6 36.8 205.75 45.15 204 57.35
L 166.25 57.35 166.25 17.7
Q 188 15.55 201 15.55 204.5 15.55 204.85 18.4
M 190.6 22.8
L 189.85 22.8
Q 186.35 22.8 179.25 24.45
L 179.25 22.8 172.8 22.8 172.8 52.05 179.25 52.05 179.25 50.05 199.8 50.05 199.8 44.1 197.95 44.1
Q 198.85 36.15 198.85 30.05 198.85 26.65 196.95 24.8 195.1 22.8 190.6 22.8
M 179.25 44.1
L 179.25 29.8
Q 185.95 28.1 190.15 28.1 192.3 28.1 192.3 30.05 192.3 35.8 191.4 44.1
L 179.25 44.1
M 254.2 37.25
Q 255.55 37.25 256.05 37.85 256.3 38.15 256.4 38.8 243.75 52.1 232.3 61.85
L 237.35 65.75
Q 240.3 63.1 243.55 60
L 244.35 64.6
Q 250.4 65.25 254.2 65.25
L 255.45 65.25
Q 259.1 65.15 260.6 63.9 262.3 62.45 262.7 59.2 262.9 56.25 263.05 52.65 268.2 59.2 274 65.25
L 280.05 62.2
Q 272 53.95 266.35 47.05 271.15 42.35 277.1 36.1
L 272.1 31.75
Q 267.4 37.05 263.05 41.45 262.75 35.1 261.7 33.95 259.8 31.95 256.55 31.95
L 255.2 31.95
Q 250.95 31.95 245.15 32.85 247.4 30.7 249.9 28.35
L 270.4 28.35 270.4 22.3 234.2 22.3 234.2 28.35 240.55 28.35
Q 232.3 36.65 224.55 43.05
L 229.65 47
Q 233.45 43.6 237.8 39.7 241.5 38.95 244.45 38.45 234.25 48.1 224.8 55.6
L 229.85 59.55
Q 240.55 50.45 254.2 37.25
M 256.35 57.8
Q 256.2 59.8 254.2 59.8 249.95 59.8 244.45 59.1 250.15 53.6 256.65 47.1 256.65 53.8 256.35 57.8
M 270.75 19.35
Q 273.4 19.95 273.5 22.8 273.5 24.45 271.65 30.5
L 278.1 31.55
Q 280.05 26 280.05 21.8 279.9 16.3 274.45 14.6 270.35 13.45 261.35 13.45
L 257.1 13.45
Q 256.7 13.45 256.2 13.45
L 256.2 9.05 249.4 9.05 249.4 13.75
Q 242.5 14.3 232 15.7
L 232 13.45 225.5 13.45 225.5 32.2 232 32.2 232 20.75
Q 250.15 18.5 260.4 18.5 266.5 18.5 270.75 19.35 Z"/>
</g>

<g id="_____0_Layer1_0_FILL">
<path fill="#FF6699" stroke="none" d="
M 63.65 53.6
Q 63.4 51.3 61.8 50.05 59.95 49.05 57.95 49.25 55.65 49.45 54.2 51.05 53.25 52.5 53.45 54.55 53.6 56.35 55 57.85 56.7 59.5 58.85 59.35 60.55 59.15 62.2 57.7 63.85 55.95 63.65 53.6
M 50.3 6.7
L 49.05 6.75
Q 42.65 7.4 35 9.25 32.05 10 29.1 10.7 29.65 9.7 30.3 8.75
L 23.05 5.85
Q 18.35 13.9 11.55 23
L 18.5 26.6
Q 21.65 22.35 24.5 18.2 31.05 16.1 36.55 14.9 44 13.35 47.65 13 48.5 12.95 48.55 13.55 48.6 13.6 48.1 14 45.15 17.15 42.65 19.3
L 46.75 22.2
Q 34.85 23.8 14.8 28.05
L 14.65 26.05 7.15 26.75 9.6 53.65 17.1 52.95 16.95 51.45 21.6 51.05
Q 16.6 59.65 10.6 68
L 17.75 72
Q 24.4 61.85 30.65 50.85 30.9 50.55 31.05 50.2
L 40 49.35
Q 39.75 57.3 40 59.75 40.5 64.1 43.3 66.3 46.05 68.65 51.85 68.15 59.8 67.4 71.55 64
L 71.75 57.6
Q 60.2 61.25 52.7 61.95 48 62.4 47.65 58.45 47.45 56.35 47.8 48.65
L 67.7 46.8 67.1 40.15 66.05 40.25
Q 66.5 33.9 66.05 28.85 65.7 24.85 63.35 22.85 60.95 20.7 55.65 21.2
L 53.25 21.4
Q 51.85 21.55 50.15 21.75 53.5 17.65 56.05 14.2 57.8 11.55 57.75 10.8 57.2 6.1 50.3 6.7
M 42.15 29.35
Q 49.7 28.15 55.65 27.6 58.15 27.4 58.35 29.6 58.8 34.45 58.3 41
L 34.95 43.1
Q 38.3 37 42.15 29.35
M 16.35 44.8
L 15.4 34.45
Q 24.9 32.45 32.95 31 29.55 37.65 25.85 43.95
L 16.35 44.8
M 132.8 52.05
Q 130.55 51.9 128.9 53.25 127.7 54.55 127.55 56.65 127.45 58.45 128.6 60.15 130.05 62 132.15 62.15 133.85 62.25 135.7 61.15 137.6 59.65 137.75 57.3 137.9 54.95 136.5 53.45 134.8 52.2 132.8 52.05
M 128.3 14.65
Q 129.15 14.7 129.1 15.3 129.1 15.35 128.6 15.7 125.2 18.4 122.4 20.15
L 125.95 23.65
Q 113.95 23.4 93.5 24.45
L 93.6 22.45 86.1 22 84.35 48.95 91.85 49.4 91.95 47.9 96.65 48.2
Q 90.35 56 83.15 63.2
L 89.55 68.35
Q 97.75 59.3 105.65 49.45 105.9 49.15 106.1 48.85
L 115.05 49.4
Q 113.6 57.25 113.45 59.7 113.25 64 115.7 66.65 118.1 69.45 123.9 69.8 131.85 70.3 144 68.8
L 145.2 62.45
Q 133.2 64.3 125.7 63.8 121 63.5 121.25 59.6 121.4 57.5 122.9 49.9
L 142.85 51.2 143.3 44.55 142.2 44.5
Q 143.7 38.25 144.05 33.25 144.3 29.2 142.25 26.85 140.2 24.35 134.9 24.05
L 132.55 23.85
Q 131.1 23.8 129.4 23.7 133.35 20.2 136.4 17.15 138.55 14.75 138.6 14 138.8 9.35 131.9 8.9
L 130.65 8.75
Q 124.25 8.45 116.35 9 113.35 9.35 110.3 9.6 111 8.7 111.8 7.85
L 105.1 3.8
Q 99.2 11 91 19
L 97.4 23.6
Q 101.15 19.9 104.6 16.2 111.4 15.15 117 14.8 124.65 14.45 128.3 14.65
M 133.9 30.35
Q 136.4 30.5 136.3 32.75 135.95 37.55 134.45 44
L 111.05 42.45
Q 115.3 36.9 120.35 29.95 127.95 29.95 133.9 30.35
M 92.4 41.25
L 93.05 30.9
Q 102.8 30.4 110.95 30.2 106.6 36.2 101.95 41.9
L 92.4 41.25 Z"/>

<path fill="#FFFFFF" stroke="none" d="
M 4.55 11.55
Q 3.9 10.15 2.75 9.3 2.3 9.05 1.9 8.85
L 1.65 8.7
Q 1.4 8.65 1.25 8.7 0.85 8.8 0.7 9.35 0.6 10.05 0.8 10.75 0.95 11.55 1.5 12.8 2.15 14 2.85 14.9 2.95 15 3 15.15 2.7 15.3 2.4 15.5 2.1 15.65 1.85 15.95 1.7 15.7 1.6 15.5 0.85 14.6 -0.05 13.7 -1 12.8 -1.7 12.45 -2.25 12.1 -2.95 12.05 -3.55 11.9 -3.7 12.3 -3.75 12.4 -3.75 12.5
L -3.8 12.65
Q -3.75 12.75 -3.75 13 -3.7 13.35 -3.55 13.8 -3.1 15.15 -2 16.15 -0.85 17.15 0.4 17.4 0.6 17.5 0.85 17.5 0.6 17.95 0.5 18.45 0.35 19.25 0.45 20 0.65 20.85 1.05 21.35 1.85 22.55 3.4 22.25 4.65 22 6.3 20.85 7.95 19.6 8.55 18.4 9.2 17.05 8.4 15.95 7.95 15.35 7.2 15.05 6.55 14.65 5.7 14.55 5.4 14.55 5.1 14.55 5.1 14.4 5.15 14.25 5.2 13 4.55 11.55
M 83 9.1
Q 82.05 9.45 81.35 10.15 80.4 10.85 79.1 12.35 78.15 13.9 77.35 15.35 77.3 15.5 77.2 15.65 76.75 15.4 76.35 15.1 75.95 14.85 75.4 14.75 75.65 14.4 75.8 14.15 76.55 12.65 77.1 11 77.6 9.15 77.6 8.05 77.7 7.1 77.4 6.25 77.15 5.45 76.55 5.45 76.35 5.4 76.25 5.5
L 76.05 5.55
Q 75.95 5.65 75.65 5.75 75.2 6.05 74.75 6.55 73.3 7.9 72.75 10.05 72.2 12.1 72.6 13.85 72.75 14.15 72.9 14.4 72.15 14.45 71.5 14.7 70.3 14.85 69.45 15.55 68.55 16.3 68.1 17.1 67.2 18.9 68.45 20.7 69.55 22.05 72.1 23.45 74.65 24.75 76.6 24.75 78.6 24.75 79.6 23 80 22.05 80 20.9 80 19.8 79.6 18.75 79.5 18.35 79.3 17.95 79.5 17.9 79.65 17.8 81.25 17.1 82.65 15.45 84 13.65 84.4 11.7 84.45 11 84.5 10.35
L 84.45 9.9
Q 84.35 9.6 84.2 9.4 83.8 8.95 83 9.1 Z"/>

<path fill="#00C684" stroke="none" d="
M 211.35 17.3
Q 210.4 10.25 202.95 10.25
L 201.7 10.25
Q 188.25 10.25 166.25 12.55
L 166.25 9.5 159.75 9.5 159.75 65.25 166.25 65.25 166.25 63.3 213.05 63.3 213.05 57.35 210.55 57.35
Q 212.1 45.15 212.1 36.8 211.95 21.9 211.35 17.3
M 204.85 18.4
Q 205.6 22.5 205.6 36.8 205.75 45.15 204 57.35
L 166.25 57.35 166.25 17.7
Q 188 15.55 201 15.55 204.5 15.55 204.85 18.4
M 190.6 22.8
L 189.85 22.8
Q 186.35 22.8 179.25 24.45
L 179.25 22.8 172.8 22.8 172.8 52.05 179.25 52.05 179.25 50.05 199.8 50.05 199.8 44.1 197.95 44.1
Q 198.85 36.15 198.85 30.05 198.85 26.65 196.95 24.8 195.1 22.8 190.6 22.8
M 179.25 44.1
L 179.25 29.8
Q 185.95 28.1 190.15 28.1 192.3 28.1 192.3 30.05 192.3 35.8 191.4 44.1
L 179.25 44.1
M 256.55 31.95
L 255.2 31.95
Q 252.248828125 31.95 248.55 32.35 246.9224609375 32.575 245.15 32.85 246.783984375 31.288671875 248.55 29.6 249.215625 28.993359375 249.9 28.35
L 270.4 28.35 270.4 22.3 234.2 22.3 234.2 28.35 240.55 28.35
Q 232.3 36.65 224.55 43.05
L 229.65 47
Q 233.45 43.6 237.8 39.7 241.5 38.95 244.45 38.45 234.25 48.1 224.8 55.6
L 229.85 59.55
Q 238.28359375 52.3775390625 248.55 42.65 251.3087890625 40.0458984375 254.2 37.25 255.55 37.25 256.05 37.85 256.3 38.15 256.4 38.8 252.4154296875 42.9892578125 248.55 46.8 240.143359375 55.17109375 232.3 61.85
L 237.35 65.75
Q 240.3 63.1 243.55 60
L 244.35 64.6
Q 246.606640625 64.8423828125 248.55 65 251.8173828125 65.25 254.2 65.25
L 255.45 65.25
Q 259.1 65.15 260.6 63.9 262.3 62.45 262.7 59.2 262.9 56.25 263.05 52.65 268.2 59.2 274 65.25
L 280.05 62.2
Q 272 53.95 266.35 47.05 271.15 42.35 277.1 36.1
L 272.1 31.75
Q 267.4 37.05 263.05 41.45 262.75 35.1 261.7 33.95 259.8 31.95 256.55 31.95
M 256.35 57.8
Q 256.2 59.8 254.2 59.8 251.6076171875 59.8 248.55 59.55 246.5951171875 59.373046875 244.45 59.1 246.45078125 57.16953125 248.55 55.1 252.4314453125 51.3185546875 256.65 47.1 256.65 53.8 256.35 57.8
M 270.75 19.35
Q 273.4 19.95 273.5 22.8 273.5 24.45 271.65 30.5
L 278.1 31.55
Q 280.05 26 280.05 21.8 279.9 16.3 274.45 14.6 270.35 13.45 261.35 13.45
L 257.1 13.45
Q 256.7 13.45 256.2 13.45
L 256.2 9.05 249.4 9.05 249.4 13.75
Q 248.981640625 13.7833984375 248.55 13.8 241.8634765625 14.3849609375 232 15.7
L 232 13.45 225.5 13.45 225.5 32.2 232 32.2 232 20.75
Q 241.315625 19.5951171875 248.55 19 255.4109375 18.5 260.4 18.5 266.5 18.5 270.75 19.35 Z"/>
</g>

<path id="_____0_Layer2_0_1_STROKES" stroke="#FFFFFF" stroke-width="7" stroke-linejoin="round" stroke-linecap="round" fill="none" d="
M 249.4 9.05
L 256.2 9.05 256.2 13.45
Q 256.7 13.45 257.1 13.45
L 261.35 13.45
Q 270.35 13.45 274.45 14.6 279.9 16.3 280.05 21.8 280.05 26 278.1 31.55
L 271.65 30.5
Q 273.5 24.45 273.5 22.8 273.4 19.95 270.75 19.35 266.5 18.5 260.4 18.5 250.15 18.5 232 20.75
L 232 32.2 225.5 32.2 225.5 13.45 232 13.45 232 15.7
Q 242.5 14.3 249.4 13.75
L 249.4 9.05 Z
M 234.2 22.3
L 270.4 22.3 270.4 28.35 249.9 28.35
Q 247.4 30.7 245.15 32.85 250.95 31.95 255.2 31.95
L 256.55 31.95
Q 259.8 31.95 261.7 33.95 262.75 35.1 263.05 41.45 267.4 37.05 272.1 31.75
L 277.1 36.1
Q 271.15 42.35 266.35 47.05 272 53.95 280.05 62.2
L 274 65.25
Q 268.2 59.2 263.05 52.65 262.9 56.25 262.7 59.2 262.3 62.45 260.6 63.9 259.1 65.15 255.45 65.25
L 254.2 65.25
Q 250.4 65.25 244.35 64.6
L 243.55 60
Q 240.3 63.1 237.35 65.75
L 232.3 61.85
Q 243.75 52.1 256.4 38.8 256.3 38.15 256.05 37.85 255.55 37.25 254.2 37.25 240.55 50.45 229.85 59.55
L 224.8 55.6
Q 234.25 48.1 244.45 38.45 241.5 38.95 237.8 39.7 233.45 43.6 229.65 47
L 224.55 43.05
Q 232.3 36.65 240.55 28.35
L 234.2 28.35 234.2 22.3 Z
M 256.65 47.1
Q 250.15 53.6 244.45 59.1 249.95 59.8 254.2 59.8 256.2 59.8 256.35 57.8 256.65 53.8 256.65 47.1 Z
M 159.75 9.5
L 166.25 9.5 166.25 12.55
Q 188.25 10.25 201.7 10.25
L 202.95 10.25
Q 210.4 10.25 211.35 17.3 211.95 21.9 212.1 36.8 212.1 45.15 210.55 57.35
L 213.05 57.35 213.05 63.3 166.25 63.3 166.25 65.25 159.75 65.25 159.75 9.5 Z
M 166.25 57.35
L 204 57.35
Q 205.75 45.15 205.6 36.8 205.6 22.5 204.85 18.4 204.5 15.55 201 15.55 188 15.55 166.25 17.7
L 166.25 57.35 Z
M 172.8 22.8
L 179.25 22.8 179.25 24.45
Q 186.35 22.8 189.85 22.8
L 190.6 22.8
Q 195.1 22.8 196.95 24.8 198.85 26.65 198.85 30.05 198.85 36.15 197.95 44.1
L 199.8 44.1 199.8 50.05 179.25 50.05 179.25 52.05 172.8 52.05 172.8 22.8 Z
M 179.25 44.1
L 191.4 44.1
Q 192.3 35.8 192.3 30.05 192.3 28.1 190.15 28.1 185.95 28.1 179.25 29.8
L 179.25 44.1 Z
M 105.1 3.8
L 111.8 7.85
Q 111 8.7 110.3 9.6 113.35 9.35 116.35 9 124.25 8.45 130.65 8.75
L 131.9 8.9
Q 138.8 9.35 138.6 14 138.55 14.75 136.4 17.15 133.35 20.2 129.4 23.7 131.1 23.8 132.55 23.85
L 134.9 24.05
Q 140.2 24.35 142.25 26.85 144.3 29.2 144.05 33.25 143.7 38.25 142.2 44.5
L 143.3 44.55 142.85 51.2 122.9 49.9
Q 121.4 57.5 121.25 59.6 121 63.5 125.7 63.8 133.2 64.3 145.2 62.45
L 144 68.8
Q 131.85 70.3 123.9 69.8 118.1 69.45 115.7 66.65 113.25 64 113.45 59.7 113.6 57.25 115.05 49.4
L 106.1 48.85
Q 105.9 49.15 105.65 49.45 97.75 59.3 89.55 68.35
L 83.15 63.2
Q 90.35 56 96.65 48.2
L 91.95 47.9 91.85 49.4 84.35 48.95 86.1 22 93.6 22.45 93.5 24.45
Q 113.95 23.4 125.95 23.65
L 122.4 20.15
Q 125.2 18.4 128.6 15.7 129.1 15.35 129.1 15.3 129.15 14.7 128.3 14.65 124.65 14.45 117 14.8 111.4 15.15 104.6 16.2 101.15 19.9 97.4 23.6
L 91 19
Q 99.2 11 105.1 3.8 Z
M 111.05 42.45
L 134.45 44
Q 135.95 37.55 136.3 32.75 136.4 30.5 133.9 30.35 127.95 29.95 120.35 29.95 115.3 36.9 111.05 42.45 Z
M 92.4 41.25
L 101.95 41.9
Q 106.6 36.2 110.95 30.2 102.8 30.4 93.05 30.9
L 92.4 41.25 Z
M 132.8 52.05
Q 134.8 52.2 136.5 53.45 137.9 54.95 137.75 57.3 137.6 59.65 135.7 61.15 133.85 62.25 132.15 62.15 130.05 62 128.6 60.15 127.45 58.45 127.55 56.65 127.7 54.55 128.9 53.25 130.55 51.9 132.8 52.05 Z
M 23.05 5.85
L 30.3 8.75
Q 29.65 9.7 29.1 10.7 32.05 10 35 9.25 42.65 7.4 49.05 6.75
L 50.3 6.7
Q 57.2 6.1 57.75 10.8 57.8 11.55 56.05 14.2 53.5 17.65 50.15 21.75 51.85 21.55 53.25 21.4
L 55.65 21.2
Q 60.95 20.7 63.35 22.85 65.7 24.85 66.05 28.85 66.5 33.9 66.05 40.25
L 67.1 40.15 67.7 46.8 47.8 48.65
Q 47.45 56.35 47.65 58.45 48 62.4 52.7 61.95 60.2 61.25 71.75 57.6
L 71.55 64
Q 59.8 67.4 51.85 68.15 46.05 68.65 43.3 66.3 40.5 64.1 40 59.75 39.75 57.3 40 49.35
L 31.05 50.2
Q 30.9 50.55 30.65 50.85 24.4 61.85 17.75 72
L 10.6 68
Q 16.6 59.65 21.6 51.05
L 16.95 51.45 17.1 52.95 9.6 53.65 7.15 26.75 14.65 26.05 14.8 28.05
Q 34.85 23.8 46.75 22.2
L 42.65 19.3
Q 45.15 17.15 48.1 14 48.6 13.6 48.55 13.55 48.5 12.95 47.65 13 44 13.35 36.55 14.9 31.05 16.1 24.5 18.2 21.65 22.35 18.5 26.6
L 11.55 23
Q 18.35 13.9 23.05 5.85 Z
M 34.95 43.1
L 58.3 41
Q 58.8 34.45 58.35 29.6 58.15 27.4 55.65 27.6 49.7 28.15 42.15 29.35 38.3 37 34.95 43.1 Z
M 16.35 44.8
L 25.85 43.95
Q 29.55 37.65 32.95 31 24.9 32.45 15.4 34.45
L 16.35 44.8 Z
M 57.95 49.25
Q 59.95 49.05 61.8 50.05 63.4 51.3 63.65 53.6 63.85 55.95 62.2 57.7 60.55 59.15 58.85 59.35 56.7 59.5 55 57.85 53.6 56.35 53.45 54.55 53.25 52.5 54.2 51.05 55.65 49.45 57.95 49.25 Z"/>
</defs>

<g transform="matrix( 1.1504058837890625, 0, 0, 1.1504058837890625, 7.3,2.65) ">
<g transform="matrix( 1.07269287109375, 0.2373504638671875, -0.2373504638671875, 1.07269287109375, -26.35,-54.5) ">
<use xlink:href="#_____0_Layer3_0_FILL"/>
</g>

<g transform="matrix( 0.7552642822265625, 0.1671142578125, -0.1294403076171875, 0.585052490234375, 31.2,-44.05) ">
<use xlink:href="#_____0_Layer3_0_MEMBER_0_FILL"/>
</g>

<g transform="matrix( 1, 0, 0, 1, 0,0) ">
<use xlink:href="#_____0_Layer2_0_FILL"/>

<use xlink:href="#_____0_Layer2_0_1_STROKES"/>
</g>

<g transform="matrix( 1, 0, 0, 1, 0,0) ">
<use xlink:href="#_____0_Layer1_0_FILL"/>
</g>
</g>
</svg>
