
<svg xmlns="http://www.w3.org/2000/svg" version="1.1" xmlns:xlink="http://www.w3.org/1999/xlink" preserveAspectRatio="none" x="0px" y="0px" width="500px" height="370px" viewBox="0 0 500 370">
<defs>
<g id="___0_Layer1_0_FILL">
<path fill="#69E2E2" stroke="none" d="
M 540.15 193.65
Q 540.15 181.25 531.35 172.45 522.55 163.65 510.15 163.65
L 30 163.65
Q 17.6 163.65 8.8 172.45 0 181.25 0 193.65
L 0 474.7
Q 0 487.1 8.8 495.9 17.6 504.7 30 504.7
L 510.15 504.7
Q 522.55 504.7 531.35 495.9 540.15 487.1 540.15 474.7
L 540.15 193.65
M 500.8 185.75
Q 508 185.75 513.05 190.8 518.15 195.9 518.15 203.1 518.15 210.3 513.05 215.35 508 220.45 500.8 220.45 493.6 220.45 488.5 215.35 483.4 210.3 483.4 203.1 483.4 195.9 488.5 190.8 493.6 185.75 500.8 185.75
M 42.8 185.75
Q 50 185.75 55.05 190.8 60.15 195.9 60.15 203.1 60.15 210.3 55.05 215.35 50 220.45 42.8 220.45 35.6 220.45 30.5 215.35 25.4 210.3 25.4 203.1 25.4 195.9 30.5 190.8 35.6 185.75 42.8 185.75 Z"/>
</g>

<g id="___0_Layer0_0_FILL">
<path fill="#CCCCCC" stroke="none" d="
M 23.7 -45.05
Q 20.6 -45.05 18.4 -42.85 16.2 -40.65 16.2 -37.55
L 16.2 187.55
Q 16.2 190.7 18.4 192.9 20.6 195.05 23.7 195.05 26.8 195.05 29 192.9 31.2 190.7 31.2 187.55
L 31.2 -37.55
Q 31.2 -40.65 29 -42.85 26.8 -45.05 23.7 -45.05 Z"/>
</g>

<g id="___0_Layer0_1_FILL">
<path fill="#CCCCCC" stroke="none" d="
M 23.7 -45.05
Q 20.6 -45.05 18.4 -42.85 16.2 -40.65 16.2 -37.55
L 16.2 187.55
Q 16.2 190.7 18.4 192.9 20.6 195.05 23.7 195.05 26.8 195.05 29 192.9 31.2 190.7 31.2 187.55
L 31.2 -37.55
Q 31.2 -40.65 29 -42.85 26.8 -45.05 23.7 -45.05 Z"/>
</g>

<path id="___0_Layer1_0_1_STROKES" stroke="#009999" stroke-width="10" stroke-linejoin="round" stroke-linecap="round" fill="none" d="
M 30 163.65
L 510.15 163.65
Q 522.55 163.65 531.35 172.45 540.15 181.25 540.15 193.65
L 540.15 474.7
Q 540.15 487.1 531.35 495.9 522.55 504.7 510.15 504.7
L 30 504.7
Q 17.6 504.7 8.8 495.9 0 487.1 0 474.7
L 0 193.65
Q 0 181.25 8.8 172.45 17.6 163.65 30 163.65 Z"/>

<path id="___0_Layer1_0_2_STROKES" stroke="#009999" stroke-width="5" stroke-linejoin="round" stroke-linecap="round" fill="none" d="
M 518.15 203.1
Q 518.15 210.3 513.05 215.35 508 220.45 500.8 220.45 493.6 220.45 488.5 215.35 483.4 210.3 483.4 203.1 483.4 195.9 488.5 190.8 493.6 185.75 500.8 185.75 508 185.75 513.05 190.8 518.15 195.9 518.15 203.1 Z
M 60.15 203.1
Q 60.15 210.3 55.05 215.35 50 220.45 42.8 220.45 35.6 220.45 30.5 215.35 25.4 210.3 25.4 203.1 25.4 195.9 30.5 190.8 35.6 185.75 42.8 185.75 50 185.75 55.05 190.8 60.15 195.9 60.15 203.1 Z"/>

<path id="___0_Layer0_0_1_STROKES" stroke="#666666" stroke-width="5" stroke-linejoin="round" stroke-linecap="round" fill="none" d="
M 23.7 -45.05
Q 26.8 -45.05 29 -42.85 31.2 -40.65 31.2 -37.55
L 31.2 187.55
Q 31.2 190.7 29 192.9 26.8 195.05 23.7 195.05 20.6 195.05 18.4 192.9 16.2 190.7 16.2 187.55
L 16.2 -37.55
Q 16.2 -40.65 18.4 -42.85 20.6 -45.05 23.7 -45.05 Z"/>

<path id="___0_Layer0_1_1_STROKES" stroke="#666666" stroke-width="5" stroke-linejoin="round" stroke-linecap="round" fill="none" d="
M 23.7 -45.05
Q 26.8 -45.05 29 -42.85 31.2 -40.65 31.2 -37.55
L 31.2 187.55
Q 31.2 190.7 29 192.9 26.8 195.05 23.7 195.05 20.6 195.05 18.4 192.9 16.2 190.7 16.2 187.55
L 16.2 -37.55
Q 16.2 -40.65 18.4 -42.85 20.6 -45.05 23.7 -45.05 Z"/>

<path id="Layer0_1_1_STROKES" stroke="#66FFFF" stroke-width="6" stroke-linejoin="round" stroke-linecap="round" fill="none" d="
M 27.53029327392551 230.35000000000002
L 475.18239135742215 230.35000000000002"/>
</defs>

<g transform="matrix( 0.89532470703125, 0, 0, 0.89532470703125, 10.15,-88.35) ">
<g transform="matrix( 1, 0, 0, 1, 0,0) ">
<use xlink:href="#___0_Layer1_0_FILL"/>

<use xlink:href="#___0_Layer1_0_1_STROKES"/>

<use xlink:href="#___0_Layer1_0_2_STROKES"/>
</g>

<g transform="matrix( 1, 0, 0, 0.4420928955078125, 18.45,112.3) ">
<use xlink:href="#___0_Layer0_0_FILL"/>

<use xlink:href="#___0_Layer0_0_1_STROKES"/>
</g>

<g transform="matrix( 1, 0, 0, 0.4420928955078125, 476.65,112.3) ">
<use xlink:href="#___0_Layer0_1_FILL"/>

<use xlink:href="#___0_Layer0_1_1_STROKES"/>
</g>
</g>

<g transform="matrix( 1.645477294921875, 0, 0, 1, -2591,47.3) ">
<use xlink:href="#Layer0_1_1_STROKES" transform="matrix( 0.6077117919921875, 0, 0, 1, 1574.6,-47.3) "/>
</g>
</svg>
