
<svg xmlns="http://www.w3.org/2000/svg" version="1.1" xmlns:xlink="http://www.w3.org/1999/xlink" preserveAspectRatio="none" x="0px" y="0px" width="1920px" height="1000px" viewBox="0 0 1920 1000">
<defs>
<g id="Layer0_0_FILL">
<path fill="#E7F5F5" stroke="none" d="
M 1280 719.95
L 1280 0.05 0.15 0.05 0.15 719.95 1280 719.95 Z"/>
</g>

<g id="Layer0_2_FILL">
<path fill="#99FFCC" stroke="none" d="
M 1960.25 777.7
Q 1956.2 775.1 1952.05 772.7 1940.55 766.45 1928.1 761.9 1917.25 757.55 1905.25 755.3 1878.5 748.15 1847.25 748.15 1820.65 748.15 1804.15 757.05 1788.2 765.1 1780.35 780.6 1779.25 762.3 1770.2 737.9 1758.25 706.05 1737.5 680.6 1680.15 608.9 1573.6 608.9 1479.05 608.9 1411.35 662.35 1370.6 694.75 1349.2 736.9 1340.75 754.8 1335.6 774.45 1334.1 780.2 1333.05 786.25 1331.2 797.4 1331.1 810.15 1331.5 819.15 1333.2 837.85 1323.75 824.2 1307.25 817.6 1284.85 809.3 1248.8 809.3 1193.55 809.3 1145.45 835.9 1097.7 862.2 1076.2 902.55 1065.45 888.6 1037.35 877.3 1009.55 866.35 989.25 866.35 965.15 866.35 926.95 897.5 912.4 909.15 902.75 919.05 893.15 928.45 888.65 935.45 889.25 927.05 889.15 919.05 889.6 780.6 760.25 756.65 579.5 742.65 505.8 890.85 523.15 820.05 495.55 782 468.1 744 421.65 744 394.3 744 376.2 752.5 374.9 752.9 349.55 768.35
L 348.4 772.7
Q 310.25 605.15 111.05 645.5 33 659.05 -8.2 720.5 -17.15 733.75 -22.8 749.05 -29.6 762.8 -36.4 778.6 -38.3 776.15 -40.25 774.15
L -40.25 1034.25 1960.25 1034.25 1960.25 777.7 Z"/>

<path fill="#CCFFCC" stroke="none" d="
M 1960.25 723
Q 1953.7 719.6 1947.35 716.8 1932.75 710.6 1917.65 707.8 1901.55 704.15 1885.75 704.15 1832.95 705.05 1826.35 707.8 1819.4 711.1 1812.7 711.1 1813.3 702.75 1805.05 682 1796.65 661.85 1783.2 648.3 1769.95 634.25 1744.05 618.2 1719.85 602.3 1676.9 588.75 1625.4 572.25 1565.55 572.25 1513.8 572.25 1454.6 586.85 1407.7 598.55 1381.45 613.45 1373.55 618.2 1367.35 623.35 1361.05 627.2 1354.3 631.35 1266.3 690 1267.8 770.3 1269.4 770.3 1270.45 770.3
L 1268.2 774.95
Q 1268.4 772.2 1267.8 770.3 1262.9 769.9 1250.15 768.35 1233.2 766.05 1230.45 766.05 1165.3 766.05 1115.75 807.3 1077.3 839.25 1070.85 870.7 1066.65 859.4 1046.1 843.9 1020.15 823.7 992.35 823.7 976.9 823.7 955.1 833.6 943.7 838.35 928.2 846.25 937.65 831.75 931.2 810.15 924.55 788 903.15 768.85 849.35 719.1 773.4 719.1 697.3 719.1 647.95 740.75 600.35 761.4 549.45 813.95 560 767.45 523.75 732.35 484.9 694.75 414.9 694.75 393 694.75 375.9 703.25 363.25 709.7 358.65 717.2
L 357.5 717.2
Q 356.35 717.7 356.1 718.5 358.85 709 347.15 681.5 336.15 652.95 282.7 624.45 230.15 595.75 164.9 599.95 99.4 604.1 55.55 624.85 27.7 637.5 0.5 663.8 -3.1 667.55 -7.35 671.25 -22.75 686.25 -31 702.75
L -36.4 723.35
Q -38.3 722 -40.25 720.7
L -40.25 774.15
Q -38.3 776.15 -36.4 778.6 -29.6 762.8 -22.8 749.05 -17.15 733.75 -8.2 720.5 33 659.05 111.05 645.5 310.25 605.15 348.4 772.7
L 349.55 768.35
Q 374.9 752.9 376.2 752.5 394.3 744 421.65 744 468.1 744 495.55 782 523.15 820.05 505.8 890.85 579.5 742.65 760.25 756.65 889.6 780.6 889.15 919.05 889.25 927.05 888.65 935.45 893.15 928.45 902.75 919.05 912.4 909.15 926.95 897.5 965.15 866.35 989.25 866.35 1009.55 866.35 1037.35 877.3 1065.45 888.6 1076.2 902.55 1097.7 862.2 1145.45 835.9 1193.55 809.3 1248.8 809.3 1284.85 809.3 1307.25 817.6 1323.75 824.2 1333.2 837.85 1331.5 819.15 1331.1 810.15 1331.2 797.4 1333.05 786.25 1334.1 780.2 1335.6 774.45 1340.75 754.8 1349.2 736.9 1370.6 694.75 1411.35 662.35 1479.05 608.9 1573.6 608.9 1680.15 608.9 1737.5 680.6 1758.25 706.05 1770.2 737.9 1779.25 762.3 1780.35 780.6 1788.2 765.1 1804.15 757.05 1820.65 748.15 1847.25 748.15 1878.5 748.15 1905.25 755.3 1917.25 757.55 1928.1 761.9 1940.55 766.45 1952.05 772.7 1956.2 775.1 1960.25 777.7
L 1960.25 723 Z"/>
</g>

<path id="Layer0_1_1_STROKES" stroke="#009966" stroke-opacity="0.12156862745098039" stroke-width="0.5" stroke-linejoin="round" stroke-linecap="round" fill="none" d="
M 1946.004647064209 53.87536315917969
L 1946.004647064209 -7.604106140136716 1874.1748367309572 -7.604106140136716 1874.1748367309572 53.87536315917969 1946.004647064209 53.87536315917969 Z
M 1946.004647064209 53.87536315917969
L 1946.004647064209 115.43265457153319 1946.004647064209 176.9121238708496 1946.004647064209 238.39159317016598 1946.004647064209 299.8710624694824 1946.004647064209 361.3505317687988 1946.004647064209 422.8300010681152 1946.004647064209 484.30947036743163 1946.004647064209 545.7889396667481 1946.004647064209 607.3462310791016 1946.004647064209 668.825700378418 1946.004647064209 730.0717033386231 1946.004647064209 791.5511726379395 1946.004647064209 853.1084640502929 1946.004647064209 914.5879333496093 1946.004647064209 976.0674026489257 1946.004647064209 1037.5468719482421 1946.004647064209 1099.8045623779296 1874.1748367309572 1099.8045623779296 1797.5200553894044 1099.8045623779296 1720.8652740478517 1099.8045623779296 1644.5217811584473 1099.8045623779296 1567.6335334777832 1099.8045623779296 1490.9787521362305 1099.8045623779296 1414.4017929077147 1099.8045623779296 1337.747011566162 1099.8045623779296 1260.9365859985353 1099.8045623779296 1184.2818046569826 1099.8045623779296 1107.6270233154298 1099.8045623779296 1031.050064086914 1099.8045623779296 963.422647857666 1099.8045623779296 891.515015411377 1099.8045623779296 814.9380561828613 1099.8045623779296 738.2832748413085 1099.8045623779296 661.6284934997558 1099.8045623779296 584.8180679321289 1099.8045623779296 508.16328659057615 1099.8045623779296 431.58632736206056 1099.8045623779296 354.9315460205078 1099.8045623779296 278.5102310180664 1099.8045623779296 201.69980545043947 1099.8045623779296 125.04502410888674 1099.8045623779296 48.39024276733399 1099.8045623779296 -21.805303192138673 1099.8045623779296 -21.805303192138673 1037.5468719482421 -21.805303192138673 976.0674026489257 -21.805303192138673 914.5879333496093 -21.805303192138673 853.1084640502929 -21.805303192138673 791.5511726379395 -21.805303192138673 730.0717033386231 -21.805303192138673 668.825700378418 -21.805303192138673 607.3462310791016 -21.805303192138673 545.7889396667481 -21.805303192138673 484.30947036743163 -21.805303192138673 422.8300010681152 -21.805303192138673 361.3505317687988 -21.805303192138673 299.8710624694824 -21.805303192138673 238.39159317016598 -21.805303192138673 176.9121238708496 -21.805303192138673 115.43265457153319 -21.805303192138673 53.87536315917969 -21.805303192138673 -7.604106140136716 48.39024276733399 -7.604106140136716 125.04502410888674 -7.604106140136716 201.69980545043947 -7.604106140136716 278.5102310180664 -7.604106140136716 354.9315460205078 -7.604106140136716 431.58632736206056 -7.604106140136716 508.16328659057615 -7.604106140136716 584.8180679321289 -7.604106140136716 661.6284934997558 -7.604106140136716 738.2832748413085 -7.604106140136716 814.9380561828613 -7.604106140136716 891.515015411377 -7.604106140136716 963.422647857666 -7.604106140136716 1031.050064086914 -7.604106140136716 1107.6270233154298 -7.604106140136716 1184.2818046569826 -7.604106140136716 1260.9365859985353 -7.604106140136716 1337.747011566162 -7.604106140136716 1414.4017929077147 -7.604106140136716 1490.9787521362305 -7.604106140136716 1567.6335334777832 -7.604106140136716 1644.5217811584473 -7.604106140136716 1720.8652740478517 -7.604106140136716 1797.5200553894044 -7.604106140136716 1874.1748367309572 -7.604106140136716
M 1874.1748367309572 53.87536315917969
L 1874.1748367309572 115.43265457153319 1946.004647064209 115.43265457153319
M 1797.5200553894044 -7.604106140136716
L 1797.5200553894044 53.87536315917969 1874.1748367309572 53.87536315917969
M 1797.5200553894044 53.87536315917969
L 1797.5200553894044 115.43265457153319 1874.1748367309572 115.43265457153319 1874.1748367309572 176.9121238708496 1946.004647064209 176.9121238708496
M 1797.5200553894044 238.39159317016598
L 1797.5200553894044 176.9121238708496 1720.8652740478517 176.9121238708496 1720.8652740478517 238.39159317016598 1797.5200553894044 238.39159317016598 Z
M 1797.5200553894044 238.39159317016598
L 1874.1748367309572 238.39159317016598 1874.1748367309572 176.9121238708496 1797.5200553894044 176.9121238708496 1797.5200553894044 115.43265457153319 1720.8652740478517 115.43265457153319 1720.8652740478517 176.9121238708496 1644.5217811584473 176.9121238708496 1644.5217811584473 238.39159317016598 1720.8652740478517 238.39159317016598 1720.8652740478517 299.8710624694824 1797.5200553894044 299.8710624694824 1797.5200553894044 238.39159317016598 Z
M 1874.1748367309572 238.39159317016598
L 1946.004647064209 238.39159317016598
M 1720.8652740478517 -7.604106140136716
L 1720.8652740478517 53.87536315917969 1797.5200553894044 53.87536315917969
M 1567.6335334777832 -7.604106140136716
L 1567.6335334777832 53.87536315917969 1644.5217811584473 53.87536315917969 1644.5217811584473 -7.604106140136716
M 1644.5217811584473 53.87536315917969
L 1644.5217811584473 115.43265457153319 1720.8652740478517 115.43265457153319 1720.8652740478517 53.87536315917969 1644.5217811584473 53.87536315917969 Z
M 1490.9787521362305 -7.604106140136716
L 1490.9787521362305 53.87536315917969 1567.6335334777832 53.87536315917969 1567.6335334777832 115.43265457153319 1644.5217811584473 115.43265457153319 1644.5217811584473 176.9121238708496 1567.6335334777832 176.9121238708496 1567.6335334777832 238.39159317016598 1644.5217811584473 238.39159317016598 1644.5217811584473 299.8710624694824 1720.8652740478517 299.8710624694824 1720.8652740478517 361.3505317687988 1797.5200553894044 361.3505317687988 1797.5200553894044 299.8710624694824 1874.1748367309572 299.8710624694824 1874.1748367309572 238.39159317016598
M 1490.9787521362305 53.87536315917969
L 1490.9787521362305 115.43265457153319 1567.6335334777832 115.43265457153319 1567.6335334777832 176.9121238708496 1490.9787521362305 176.9121238708496 1490.9787521362305 238.39159317016598 1567.6335334777832 238.39159317016598 1567.6335334777832 299.8710624694824 1644.5217811584473 299.8710624694824 1644.5217811584473 361.3505317687988 1720.8652740478517 361.3505317687988 1720.8652740478517 422.8300010681152 1797.5200553894044 422.8300010681152 1797.5200553894044 361.3505317687988 1874.1748367309572 361.3505317687988 1874.1748367309572 299.8710624694824 1946.004647064209 299.8710624694824
M 1490.9787521362305 176.9121238708496
L 1490.9787521362305 115.43265457153319 1414.4017929077147 115.43265457153319 1414.4017929077147 176.9121238708496 1490.9787521362305 176.9121238708496 Z
M 1644.5217811584473 361.3505317687988
L 1644.5217811584473 422.8300010681152 1720.8652740478517 422.8300010681152 1720.8652740478517 484.30947036743163 1797.5200553894044 484.30947036743163 1797.5200553894044 422.8300010681152 1874.1748367309572 422.8300010681152 1874.1748367309572 361.3505317687988 1946.004647064209 361.3505317687988
M 1567.6335334777832 299.8710624694824
L 1567.6335334777832 361.3505317687988 1644.5217811584473 361.3505317687988
M 1490.9787521362305 361.3505317687988
L 1490.9787521362305 299.8710624694824 1414.4017929077147 299.8710624694824 1414.4017929077147 361.3505317687988 1490.9787521362305 361.3505317687988 Z
M 1490.9787521362305 361.3505317687988
L 1567.6335334777832 361.3505317687988 1567.6335334777832 422.8300010681152 1644.5217811584473 422.8300010681152 1644.5217811584473 484.30947036743163 1720.8652740478517 484.30947036743163 1720.8652740478517 545.7889396667481 1797.5200553894044 545.7889396667481 1797.5200553894044 484.30947036743163 1874.1748367309572 484.30947036743163 1874.1748367309572 422.8300010681152 1946.004647064209 422.8300010681152
M 1490.9787521362305 238.39159317016598
L 1490.9787521362305 299.8710624694824 1567.6335334777832 299.8710624694824
M 1490.9787521362305 361.3505317687988
L 1490.9787521362305 422.8300010681152 1567.6335334777832 422.8300010681152 1567.6335334777832 484.30947036743163 1644.5217811584473 484.30947036743163 1644.5217811584473 545.7889396667481 1720.8652740478517 545.7889396667481 1720.8652740478517 607.3462310791016 1797.5200553894044 607.3462310791016 1797.5200553894044 545.7889396667481 1874.1748367309572 545.7889396667481 1874.1748367309572 484.30947036743163 1946.004647064209 484.30947036743163
M 1490.9787521362305 422.8300010681152
L 1490.9787521362305 484.30947036743163 1567.6335334777832 484.30947036743163 1567.6335334777832 545.7889396667481 1644.5217811584473 545.7889396667481 1644.5217811584473 607.3462310791016 1720.8652740478517 607.3462310791016 1720.8652740478517 668.825700378418 1797.5200553894044 668.825700378418 1797.5200553894044 607.3462310791016 1874.1748367309572 607.3462310791016 1874.1748367309572 545.7889396667481 1946.004647064209 545.7889396667481
M 1567.6335334777832 545.7889396667481
L 1490.9787521362305 545.7889396667481 1490.9787521362305 607.3462310791016 1567.6335334777832 607.3462310791016 1567.6335334777832 545.7889396667481 Z
M 1490.9787521362305 545.7889396667481
L 1490.9787521362305 484.30947036743163 1414.4017929077147 484.30947036743163 1414.4017929077147 545.7889396667481 1490.9787521362305 545.7889396667481 Z
M 1414.4017929077147 -7.604106140136716
L 1414.4017929077147 53.87536315917969 1490.9787521362305 53.87536315917969
M 1414.4017929077147 115.43265457153319
L 1414.4017929077147 53.87536315917969 1337.747011566162 53.87536315917969 1337.747011566162 115.43265457153319 1414.4017929077147 115.43265457153319 Z
M 1337.747011566162 -7.604106140136716
L 1337.747011566162 53.87536315917969 1260.9365859985353 53.87536315917969 1260.9365859985353 115.43265457153319 1337.747011566162 115.43265457153319 1337.747011566162 176.9121238708496 1414.4017929077147 176.9121238708496 1414.4017929077147 238.39159317016598 1490.9787521362305 238.39159317016598
M 1184.2818046569826 -7.604106140136716
L 1184.2818046569826 53.87536315917969 1260.9365859985353 53.87536315917969 1260.9365859985353 -7.604106140136716
M 1260.9365859985353 115.43265457153319
L 1260.9365859985353 176.9121238708496 1337.747011566162 176.9121238708496 1337.747011566162 238.39159317016598 1414.4017929077147 238.39159317016598 1414.4017929077147 299.8710624694824 1337.747011566162 299.8710624694824 1337.747011566162 361.3505317687988 1414.4017929077147 361.3505317687988 1414.4017929077147 422.8300010681152 1490.9787521362305 422.8300010681152
M 1337.747011566162 238.39159317016598
L 1260.9365859985353 238.39159317016598 1260.9365859985353 299.8710624694824 1337.747011566162 299.8710624694824 1337.747011566162 238.39159317016598 Z
M 1260.9365859985353 238.39159317016598
L 1260.9365859985353 176.9121238708496 1184.2818046569826 176.9121238708496 1184.2818046569826 238.39159317016598 1260.9365859985353 238.39159317016598 Z
M 1107.6270233154298 -7.604106140136716
L 1107.6270233154298 53.87536315917969 1184.2818046569826 53.87536315917969 1184.2818046569826 115.43265457153319 1260.9365859985353 115.43265457153319
M 1184.2818046569826 115.43265457153319
L 1107.6270233154298 115.43265457153319 1107.6270233154298 176.9121238708496 1184.2818046569826 176.9121238708496 1184.2818046569826 115.43265457153319 Z
M 1107.6270233154298 115.43265457153319
L 1107.6270233154298 53.87536315917969 1031.050064086914 53.87536315917969 1031.050064086914 115.43265457153319 1107.6270233154298 115.43265457153319 Z
M 963.422647857666 -7.604106140136716
L 963.422647857666 53.87536315917969 1031.050064086914 53.87536315917969 1031.050064086914 -7.604106140136716
M 1031.050064086914 176.9121238708496
L 1031.050064086914 238.39159317016598 1107.6270233154298 238.39159317016598 1107.6270233154298 176.9121238708496 1031.050064086914 176.9121238708496 Z
M 1031.050064086914 176.9121238708496
L 1031.050064086914 115.43265457153319 963.422647857666 115.43265457153319 963.422647857666 176.9121238708496 1031.050064086914 176.9121238708496 Z
M 1184.2818046569826 238.39159317016598
L 1107.6270233154298 238.39159317016598 1107.6270233154298 299.8710624694824 1184.2818046569826 299.8710624694824 1184.2818046569826 238.39159317016598 Z
M 1107.6270233154298 299.8710624694824
L 1107.6270233154298 361.3505317687988 1184.2818046569826 361.3505317687988 1184.2818046569826 299.8710624694824 1260.9365859985353 299.8710624694824 1260.9365859985353 361.3505317687988 1337.747011566162 361.3505317687988 1337.747011566162 422.8300010681152 1414.4017929077147 422.8300010681152 1414.4017929077147 484.30947036743163 1337.747011566162 484.30947036743163 1337.747011566162 545.7889396667481 1414.4017929077147 545.7889396667481 1414.4017929077147 607.3462310791016 1490.9787521362305 607.3462310791016 1490.9787521362305 668.825700378418 1567.6335334777832 668.825700378418 1567.6335334777832 607.3462310791016 1644.5217811584473 607.3462310791016 1644.5217811584473 668.825700378418 1720.8652740478517 668.825700378418 1720.8652740478517 730.0717033386231 1797.5200553894044 730.0717033386231 1797.5200553894044 668.825700378418 1874.1748367309572 668.825700378418 1874.1748367309572 607.3462310791016 1946.004647064209 607.3462310791016
M 1107.6270233154298 361.3505317687988
L 1107.6270233154298 422.8300010681152 1184.2818046569826 422.8300010681152 1184.2818046569826 361.3505317687988 1260.9365859985353 361.3505317687988 1260.9365859985353 422.8300010681152 1337.747011566162 422.8300010681152 1337.747011566162 484.30947036743163 1260.9365859985353 484.30947036743163 1260.9365859985353 545.7889396667481 1337.747011566162 545.7889396667481 1337.747011566162 607.3462310791016 1414.4017929077147 607.3462310791016 1414.4017929077147 668.825700378418 1490.9787521362305 668.825700378418 1490.9787521362305 730.0717033386231 1567.6335334777832 730.0717033386231 1567.6335334777832 668.825700378418 1644.5217811584473 668.825700378418 1644.5217811584473 730.0717033386231 1720.8652740478517 730.0717033386231 1720.8652740478517 791.5511726379395 1797.5200553894044 791.5511726379395 1797.5200553894044 730.0717033386231 1874.1748367309572 730.0717033386231 1874.1748367309572 668.825700378418 1946.004647064209 668.825700378418
M 1031.050064086914 361.3505317687988
L 1031.050064086914 299.8710624694824 963.422647857666 299.8710624694824 963.422647857666 361.3505317687988 1031.050064086914 361.3505317687988 Z
M 1031.050064086914 361.3505317687988
L 1107.6270233154298 361.3505317687988
M 1031.050064086914 361.3505317687988
L 1031.050064086914 422.8300010681152 1107.6270233154298 422.8300010681152 1107.6270233154298 484.30947036743163 1184.2818046569826 484.30947036743163 1184.2818046569826 422.8300010681152 1260.9365859985353 422.8300010681152 1260.9365859985353 484.30947036743163 1184.2818046569826 484.30947036743163 1184.2818046569826 545.7889396667481 1260.9365859985353 545.7889396667481 1260.9365859985353 607.3462310791016 1337.747011566162 607.3462310791016 1337.747011566162 668.825700378418 1414.4017929077147 668.825700378418 1414.4017929077147 730.0717033386231 1490.9787521362305 730.0717033386231 1490.9787521362305 791.5511726379395 1567.6335334777832 791.5511726379395 1567.6335334777832 730.0717033386231 1644.5217811584473 730.0717033386231 1644.5217811584473 791.5511726379395 1720.8652740478517 791.5511726379395 1720.8652740478517 853.1084640502929 1797.5200553894044 853.1084640502929 1797.5200553894044 791.5511726379395 1874.1748367309572 791.5511726379395 1874.1748367309572 730.0717033386231 1946.004647064209 730.0717033386231
M 1031.050064086914 545.7889396667481
L 1031.050064086914 484.30947036743163 963.422647857666 484.30947036743163 963.422647857666 545.7889396667481 1031.050064086914 545.7889396667481 Z
M 1031.050064086914 545.7889396667481
L 1107.6270233154298 545.7889396667481 1107.6270233154298 484.30947036743163 1031.050064086914 484.30947036743163 1031.050064086914 422.8300010681152 963.422647857666 422.8300010681152 963.422647857666 484.30947036743163 891.515015411377 484.30947036743163 891.515015411377 545.7889396667481 963.422647857666 545.7889396667481 963.422647857666 607.3462310791016 1031.050064086914 607.3462310791016 1031.050064086914 545.7889396667481 Z
M 1107.6270233154298 545.7889396667481
L 1184.2818046569826 545.7889396667481 1184.2818046569826 607.3462310791016 1260.9365859985353 607.3462310791016 1260.9365859985353 668.825700378418 1337.747011566162 668.825700378418 1337.747011566162 730.0717033386231 1414.4017929077147 730.0717033386231 1414.4017929077147 791.5511726379395 1490.9787521362305 791.5511726379395 1490.9787521362305 853.1084640502929 1567.6335334777832 853.1084640502929 1567.6335334777832 791.5511726379395 1644.5217811584473 791.5511726379395 1644.5217811584473 853.1084640502929 1720.8652740478517 853.1084640502929 1720.8652740478517 914.5879333496093 1797.5200553894044 914.5879333496093 1797.5200553894044 853.1084640502929 1874.1748367309572 853.1084640502929 1874.1748367309572 791.5511726379395 1946.004647064209 791.5511726379395
M 1031.050064086914 238.39159317016598
L 1031.050064086914 299.8710624694824 1107.6270233154298 299.8710624694824
M 1260.9365859985353 668.825700378418
L 1260.9365859985353 730.0717033386231 1337.747011566162 730.0717033386231 1337.747011566162 791.5511726379395 1414.4017929077147 791.5511726379395 1414.4017929077147 853.1084640502929 1490.9787521362305 853.1084640502929 1490.9787521362305 914.5879333496093 1567.6335334777832 914.5879333496093 1567.6335334777832 853.1084640502929 1644.5217811584473 853.1084640502929 1644.5217811584473 914.5879333496093 1720.8652740478517 914.5879333496093 1720.8652740478517 976.0674026489257 1797.5200553894044 976.0674026489257 1797.5200553894044 914.5879333496093 1874.1748367309572 914.5879333496093 1874.1748367309572 853.1084640502929 1946.004647064209 853.1084640502929
M 1260.9365859985353 791.5511726379395
L 1260.9365859985353 853.1084640502929 1337.747011566162 853.1084640502929 1337.747011566162 791.5511726379395 1260.9365859985353 791.5511726379395 Z
M 1260.9365859985353 791.5511726379395
L 1260.9365859985353 730.0717033386231 1184.2818046569826 730.0717033386231 1184.2818046569826 791.5511726379395 1260.9365859985353 791.5511726379395 Z
M 1414.4017929077147 853.1084640502929
L 1337.747011566162 853.1084640502929 1337.747011566162 914.5879333496093 1414.4017929077147 914.5879333496093 1414.4017929077147 853.1084640502929 Z
M 1184.2818046569826 668.825700378418
L 1184.2818046569826 607.3462310791016 1107.6270233154298 607.3462310791016 1107.6270233154298 668.825700378418 1184.2818046569826 668.825700378418 Z
M 1184.2818046569826 668.825700378418
L 1260.9365859985353 668.825700378418
M 1184.2818046569826 730.0717033386231
L 1107.6270233154298 730.0717033386231 1107.6270233154298 791.5511726379395 1184.2818046569826 791.5511726379395 1184.2818046569826 853.1084640502929 1260.9365859985353 853.1084640502929 1260.9365859985353 914.5879333496093 1337.747011566162 914.5879333496093 1337.747011566162 976.0674026489257 1414.4017929077147 976.0674026489257 1414.4017929077147 914.5879333496093 1490.9787521362305 914.5879333496093 1490.9787521362305 976.0674026489257 1567.6335334777832 976.0674026489257 1567.6335334777832 914.5879333496093 1644.5217811584473 914.5879333496093 1644.5217811584473 976.0674026489257 1720.8652740478517 976.0674026489257 1720.8652740478517 1037.5468719482421 1797.5200553894044 1037.5468719482421 1797.5200553894044 976.0674026489257 1874.1748367309572 976.0674026489257 1874.1748367309572 914.5879333496093 1946.004647064209 914.5879333496093
M 1184.2818046569826 668.825700378418
L 1184.2818046569826 730.0717033386231
M 1107.6270233154298 730.0717033386231
L 1107.6270233154298 668.825700378418 1031.050064086914 668.825700378418 1031.050064086914 730.0717033386231 1107.6270233154298 730.0717033386231 Z
M 963.422647857666 607.3462310791016
L 963.422647857666 668.825700378418 1031.050064086914 668.825700378418 1031.050064086914 607.3462310791016 1107.6270233154298 607.3462310791016 1107.6270233154298 545.7889396667481
M 1031.050064086914 853.1084640502929
L 1031.050064086914 791.5511726379395 963.422647857666 791.5511726379395 963.422647857666 853.1084640502929 1031.050064086914 853.1084640502929 Z
M 1031.050064086914 853.1084640502929
L 1107.6270233154298 853.1084640502929 1107.6270233154298 791.5511726379395 1031.050064086914 791.5511726379395 1031.050064086914 730.0717033386231 963.422647857666 730.0717033386231 963.422647857666 791.5511726379395 891.515015411377 791.5511726379395 891.515015411377 853.1084640502929 963.422647857666 853.1084640502929 963.422647857666 914.5879333496093 1031.050064086914 914.5879333496093 1031.050064086914 853.1084640502929 Z
M 1107.6270233154298 853.1084640502929
L 1184.2818046569826 853.1084640502929 1184.2818046569826 914.5879333496093 1260.9365859985353 914.5879333496093 1260.9365859985353 976.0674026489257 1337.747011566162 976.0674026489257 1337.747011566162 1037.5468719482421 1414.4017929077147 1037.5468719482421 1414.4017929077147 976.0674026489257 1490.9787521362305 976.0674026489257 1490.9787521362305 1037.5468719482421 1567.6335334777832 1037.5468719482421 1567.6335334777832 976.0674026489257 1644.5217811584473 976.0674026489257 1644.5217811584473 1037.5468719482421 1720.8652740478517 1037.5468719482421 1720.8652740478517 1099.8045623779296
M 1184.2818046569826 914.5879333496093
L 1184.2818046569826 976.0674026489257 1260.9365859985353 976.0674026489257 1260.9365859985353 1037.5468719482421 1337.747011566162 1037.5468719482421 1337.747011566162 1099.8045623779296
M 1107.6270233154298 976.0674026489257
L 1107.6270233154298 914.5879333496093 1031.050064086914 914.5879333496093 1031.050064086914 976.0674026489257 1107.6270233154298 976.0674026489257 Z
M 1107.6270233154298 976.0674026489257
L 1184.2818046569826 976.0674026489257 1184.2818046569826 1037.5468719482421 1260.9365859985353 1037.5468719482421 1260.9365859985353 1099.8045623779296
M 1107.6270233154298 976.0674026489257
L 1107.6270233154298 1037.5468719482421 1184.2818046569826 1037.5468719482421 1184.2818046569826 1099.8045623779296
M 1107.6270233154298 914.5879333496093
L 1107.6270233154298 853.1084640502929
M 1107.6270233154298 914.5879333496093
L 1184.2818046569826 914.5879333496093
M 1031.050064086914 1037.5468719482421
L 1031.050064086914 976.0674026489257 963.422647857666 976.0674026489257 963.422647857666 1037.5468719482421 1031.050064086914 1037.5468719482421 Z
M 1031.050064086914 1037.5468719482421
L 1107.6270233154298 1037.5468719482421 1107.6270233154298 1099.8045623779296
M 1031.050064086914 1037.5468719482421
L 1031.050064086914 1099.8045623779296
M 1414.4017929077147 1099.8045623779296
L 1414.4017929077147 1037.5468719482421 1490.9787521362305 1037.5468719482421 1490.9787521362305 1099.8045623779296
M 1644.5217811584473 1037.5468719482421
L 1644.5217811584473 1099.8045623779296
M 1567.6335334777832 1037.5468719482421
L 1644.5217811584473 1037.5468719482421
M 1567.6335334777832 1099.8045623779296
L 1567.6335334777832 1037.5468719482421
M 1874.1748367309572 976.0674026489257
L 1946.004647064209 976.0674026489257
M 1874.1748367309572 976.0674026489257
L 1874.1748367309572 1037.5468719482421 1946.004647064209 1037.5468719482421
M 1874.1748367309572 1099.8045623779296
L 1874.1748367309572 1037.5468719482421 1797.5200553894044 1037.5468719482421 1797.5200553894044 1099.8045623779296
M 891.515015411377 -7.604106140136716
L 891.515015411377 53.87536315917969 963.422647857666 53.87536315917969 963.422647857666 115.43265457153319 891.515015411377 115.43265457153319 891.515015411377 176.9121238708496 963.422647857666 176.9121238708496 963.422647857666 238.39159317016598 1031.050064086914 238.39159317016598
M 891.515015411377 53.87536315917969
L 891.515015411377 115.43265457153319 814.9380561828613 115.43265457153319 814.9380561828613 176.9121238708496 891.515015411377 176.9121238708496 891.515015411377 238.39159317016598 963.422647857666 238.39159317016598 963.422647857666 299.8710624694824 891.515015411377 299.8710624694824 891.515015411377 361.3505317687988 963.422647857666 361.3505317687988 963.422647857666 422.8300010681152 891.515015411377 422.8300010681152 891.515015411377 484.30947036743163 814.9380561828613 484.30947036743163 814.9380561828613 545.7889396667481 891.515015411377 545.7889396667481 891.515015411377 607.3462310791016 963.422647857666 607.3462310791016
M 814.9380561828613 -7.604106140136716
L 814.9380561828613 53.87536315917969 891.515015411377 53.87536315917969
M 738.2832748413085 -7.604106140136716
L 738.2832748413085 53.87536315917969 814.9380561828613 53.87536315917969 814.9380561828613 115.43265457153319 738.2832748413085 115.43265457153319 738.2832748413085 176.9121238708496 814.9380561828613 176.9121238708496 814.9380561828613 238.39159317016598 891.515015411377 238.39159317016598 891.515015411377 299.8710624694824 814.9380561828613 299.8710624694824 814.9380561828613 361.3505317687988 891.515015411377 361.3505317687988 891.515015411377 422.8300010681152 814.9380561828613 422.8300010681152 814.9380561828613 484.30947036743163 738.2832748413085 484.30947036743163 738.2832748413085 545.7889396667481 814.9380561828613 545.7889396667481 814.9380561828613 607.3462310791016 891.515015411377 607.3462310791016 891.515015411377 668.825700378418 963.422647857666 668.825700378418 963.422647857666 730.0717033386231 891.515015411377 730.0717033386231 891.515015411377 791.5511726379395 814.9380561828613 791.5511726379395 814.9380561828613 853.1084640502929 891.515015411377 853.1084640502929 891.515015411377 914.5879333496093 963.422647857666 914.5879333496093 963.422647857666 976.0674026489257 891.515015411377 976.0674026489257 891.515015411377 1037.5468719482421 963.422647857666 1037.5468719482421 963.422647857666 1099.8045623779296
M 738.2832748413085 53.87536315917969
L 738.2832748413085 115.43265457153319 661.6284934997558 115.43265457153319 661.6284934997558 176.9121238708496 738.2832748413085 176.9121238708496 738.2832748413085 238.39159317016598 814.9380561828613 238.39159317016598 814.9380561828613 299.8710624694824 738.2832748413085 299.8710624694824 738.2832748413085 361.3505317687988 814.9380561828613 361.3505317687988 814.9380561828613 422.8300010681152 738.2832748413085 422.8300010681152 738.2832748413085 484.30947036743163 661.6284934997558 484.30947036743163 661.6284934997558 545.7889396667481 738.2832748413085 545.7889396667481 738.2832748413085 607.3462310791016 814.9380561828613 607.3462310791016 814.9380561828613 668.825700378418 891.515015411377 668.825700378418 891.515015411377 730.0717033386231 814.9380561828613 730.0717033386231 814.9380561828613 791.5511726379395 738.2832748413085 791.5511726379395 738.2832748413085 853.1084640502929 814.9380561828613 853.1084640502929 814.9380561828613 914.5879333496093 891.515015411377 914.5879333496093 891.515015411377 976.0674026489257 814.9380561828613 976.0674026489257 814.9380561828613 1037.5468719482421 891.515015411377 1037.5468719482421 891.515015411377 1099.8045623779296
M 584.8180679321289 -7.604106140136716
L 584.8180679321289 53.87536315917969 661.6284934997558 53.87536315917969 661.6284934997558 -7.604106140136716
M 738.2832748413085 53.87536315917969
L 661.6284934997558 53.87536315917969 661.6284934997558 115.43265457153319 584.8180679321289 115.43265457153319 584.8180679321289 176.9121238708496 661.6284934997558 176.9121238708496 661.6284934997558 238.39159317016598 738.2832748413085 238.39159317016598 738.2832748413085 299.8710624694824 661.6284934997558 299.8710624694824 661.6284934997558 361.3505317687988 738.2832748413085 361.3505317687988 738.2832748413085 422.8300010681152 661.6284934997558 422.8300010681152 661.6284934997558 484.30947036743163 584.8180679321289 484.30947036743163 584.8180679321289 545.7889396667481 661.6284934997558 545.7889396667481 661.6284934997558 607.3462310791016 738.2832748413085 607.3462310791016 738.2832748413085 668.825700378418 814.9380561828613 668.825700378418 814.9380561828613 730.0717033386231 738.2832748413085 730.0717033386231 738.2832748413085 791.5511726379395 661.6284934997558 791.5511726379395 661.6284934997558 853.1084640502929 738.2832748413085 853.1084640502929 738.2832748413085 914.5879333496093 814.9380561828613 914.5879333496093 814.9380561828613 976.0674026489257 738.2832748413085 976.0674026489257 738.2832748413085 1037.5468719482421 814.9380561828613 1037.5468719482421 814.9380561828613 1099.8045623779296
M 508.16328659057615 -7.604106140136716
L 508.16328659057615 53.87536315917969 584.8180679321289 53.87536315917969 584.8180679321289 115.43265457153319 508.16328659057615 115.43265457153319 508.16328659057615 176.9121238708496 584.8180679321289 176.9121238708496 584.8180679321289 238.39159317016598 661.6284934997558 238.39159317016598 661.6284934997558 299.8710624694824 584.8180679321289 299.8710624694824 584.8180679321289 361.3505317687988 661.6284934997558 361.3505317687988 661.6284934997558 422.8300010681152 584.8180679321289 422.8300010681152 584.8180679321289 484.30947036743163 508.16328659057615 484.30947036743163 508.16328659057615 545.7889396667481 584.8180679321289 545.7889396667481 584.8180679321289 607.3462310791016 661.6284934997558 607.3462310791016 661.6284934997558 668.825700378418 738.2832748413085 668.825700378418 738.2832748413085 730.0717033386231 661.6284934997558 730.0717033386231 661.6284934997558 791.5511726379395 584.8180679321289 791.5511726379395 584.8180679321289 853.1084640502929 661.6284934997558 853.1084640502929 661.6284934997558 914.5879333496093 738.2832748413085 914.5879333496093 738.2832748413085 976.0674026489257 661.6284934997558 976.0674026489257 661.6284934997558 1037.5468719482421 738.2832748413085 1037.5468719482421 738.2832748413085 1099.8045623779296
M 508.16328659057615 53.87536315917969
L 508.16328659057615 115.43265457153319 431.58632736206056 115.43265457153319 431.58632736206056 176.9121238708496 508.16328659057615 176.9121238708496 508.16328659057615 238.39159317016598 584.8180679321289 238.39159317016598 584.8180679321289 299.8710624694824 508.16328659057615 299.8710624694824 508.16328659057615 361.3505317687988 584.8180679321289 361.3505317687988 584.8180679321289 422.8300010681152 508.16328659057615 422.8300010681152 508.16328659057615 484.30947036743163 431.58632736206056 484.30947036743163 431.58632736206056 545.7889396667481 508.16328659057615 545.7889396667481 508.16328659057615 607.3462310791016 584.8180679321289 607.3462310791016 584.8180679321289 668.825700378418 661.6284934997558 668.825700378418 661.6284934997558 730.0717033386231 584.8180679321289 730.0717033386231 584.8180679321289 791.5511726379395 508.16328659057615 791.5511726379395 508.16328659057615 853.1084640502929 584.8180679321289 853.1084640502929 584.8180679321289 914.5879333496093 661.6284934997558 914.5879333496093 661.6284934997558 976.0674026489257 584.8180679321289 976.0674026489257 584.8180679321289 1037.5468719482421 661.6284934997558 1037.5468719482421 661.6284934997558 1099.8045623779296
M 508.16328659057615 361.3505317687988
L 508.16328659057615 422.8300010681152 431.58632736206056 422.8300010681152 431.58632736206056 484.30947036743163 354.9315460205078 484.30947036743163 354.9315460205078 545.7889396667481 431.58632736206056 545.7889396667481 431.58632736206056 607.3462310791016 508.16328659057615 607.3462310791016 508.16328659057615 668.825700378418 584.8180679321289 668.825700378418 584.8180679321289 730.0717033386231 508.16328659057615 730.0717033386231 508.16328659057615 791.5511726379395 431.58632736206056 791.5511726379395 431.58632736206056 853.1084640502929 508.16328659057615 853.1084640502929 508.16328659057615 914.5879333496093 584.8180679321289 914.5879333496093 584.8180679321289 976.0674026489257 508.16328659057615 976.0674026489257 508.16328659057615 1037.5468719482421 584.8180679321289 1037.5468719482421 584.8180679321289 1099.8045623779296
M 508.16328659057615 238.39159317016598
L 508.16328659057615 299.8710624694824 431.58632736206056 299.8710624694824 431.58632736206056 361.3505317687988 508.16328659057615 361.3505317687988
M 431.58632736206056 -7.604106140136716
L 431.58632736206056 53.87536315917969 508.16328659057615 53.87536315917969
M 354.9315460205078 -7.604106140136716
L 354.9315460205078 53.87536315917969 431.58632736206056 53.87536315917969 431.58632736206056 115.43265457153319 354.9315460205078 115.43265457153319 354.9315460205078 176.9121238708496 431.58632736206056 176.9121238708496 431.58632736206056 238.39159317016598 508.16328659057615 238.39159317016598
M 354.9315460205078 53.87536315917969
L 354.9315460205078 115.43265457153319 278.5102310180664 115.43265457153319 278.5102310180664 176.9121238708496 354.9315460205078 176.9121238708496 354.9315460205078 238.39159317016598 431.58632736206056 238.39159317016598 431.58632736206056 299.8710624694824 354.9315460205078 299.8710624694824 354.9315460205078 361.3505317687988 431.58632736206056 361.3505317687988 431.58632736206056 422.8300010681152 354.9315460205078 422.8300010681152 354.9315460205078 484.30947036743163 278.5102310180664 484.30947036743163 278.5102310180664 545.7889396667481 354.9315460205078 545.7889396667481 354.9315460205078 607.3462310791016 431.58632736206056 607.3462310791016 431.58632736206056 668.825700378418 508.16328659057615 668.825700378418 508.16328659057615 730.0717033386231 431.58632736206056 730.0717033386231 431.58632736206056 791.5511726379395 354.9315460205078 791.5511726379395 354.9315460205078 853.1084640502929 431.58632736206056 853.1084640502929 431.58632736206056 914.5879333496093 508.16328659057615 914.5879333496093 508.16328659057615 976.0674026489257 431.58632736206056 976.0674026489257 431.58632736206056 1037.5468719482421 508.16328659057615 1037.5468719482421 508.16328659057615 1099.8045623779296
M 278.5102310180664 -7.604106140136716
L 278.5102310180664 53.87536315917969 354.9315460205078 53.87536315917969
M 278.5102310180664 115.43265457153319
L 278.5102310180664 53.87536315917969 201.69980545043947 53.87536315917969 201.69980545043947 115.43265457153319 278.5102310180664 115.43265457153319 Z
M 278.5102310180664 238.39159317016598
L 278.5102310180664 176.9121238708496 201.69980545043947 176.9121238708496 201.69980545043947 238.39159317016598 278.5102310180664 238.39159317016598 Z
M 278.5102310180664 238.39159317016598
L 354.9315460205078 238.39159317016598 354.9315460205078 299.8710624694824 278.5102310180664 299.8710624694824 278.5102310180664 361.3505317687988 354.9315460205078 361.3505317687988 354.9315460205078 422.8300010681152 278.5102310180664 422.8300010681152 278.5102310180664 484.30947036743163 201.69980545043947 484.30947036743163 201.69980545043947 545.7889396667481 278.5102310180664 545.7889396667481 278.5102310180664 607.3462310791016 354.9315460205078 607.3462310791016 354.9315460205078 668.825700378418 431.58632736206056 668.825700378418 431.58632736206056 730.0717033386231 354.9315460205078 730.0717033386231 354.9315460205078 791.5511726379395 278.5102310180664 791.5511726379395 278.5102310180664 853.1084640502929 354.9315460205078 853.1084640502929 354.9315460205078 914.5879333496093 431.58632736206056 914.5879333496093 431.58632736206056 976.0674026489257 354.9315460205078 976.0674026489257 354.9315460205078 1037.5468719482421 431.58632736206056 1037.5468719482421 431.58632736206056 1099.8045623779296
M 201.69980545043947 -7.604106140136716
L 201.69980545043947 53.87536315917969 125.04502410888674 53.87536315917969 125.04502410888674 115.43265457153319 201.69980545043947 115.43265457153319 201.69980545043947 176.9121238708496 125.04502410888674 176.9121238708496 125.04502410888674 238.39159317016598 201.69980545043947 238.39159317016598 201.69980545043947 299.8710624694824 278.5102310180664 299.8710624694824 278.5102310180664 238.39159317016598
M 125.04502410888674 -7.604106140136716
L 125.04502410888674 53.87536315917969 48.39024276733399 53.87536315917969 48.39024276733399 115.43265457153319 125.04502410888674 115.43265457153319 125.04502410888674 176.9121238708496 48.39024276733399 176.9121238708496 48.39024276733399 238.39159317016598 125.04502410888674 238.39159317016598 125.04502410888674 299.8710624694824 201.69980545043947 299.8710624694824 201.69980545043947 361.3505317687988 278.5102310180664 361.3505317687988 278.5102310180664 422.8300010681152 201.69980545043947 422.8300010681152 201.69980545043947 484.30947036743163 125.04502410888674 484.30947036743163 125.04502410888674 545.7889396667481 201.69980545043947 545.7889396667481 201.69980545043947 607.3462310791016 278.5102310180664 607.3462310791016 278.5102310180664 668.825700378418 354.9315460205078 668.825700378418 354.9315460205078 730.0717033386231 278.5102310180664 730.0717033386231 278.5102310180664 791.5511726379395 201.69980545043947 791.5511726379395 201.69980545043947 853.1084640502929 278.5102310180664 853.1084640502929 278.5102310180664 914.5879333496093 354.9315460205078 914.5879333496093 354.9315460205078 976.0674026489257 278.5102310180664 976.0674026489257 278.5102310180664 1037.5468719482421 354.9315460205078 1037.5468719482421 354.9315460205078 1099.8045623779296
M -21.805303192138673 53.87536315917969
L 48.39024276733399 53.87536315917969 48.39024276733399 -7.604106140136716
M -21.805303192138673 115.43265457153319
L 48.39024276733399 115.43265457153319 48.39024276733399 176.9121238708496 -21.805303192138673 176.9121238708496
M -21.805303192138673 299.8710624694824
L 48.39024276733399 299.8710624694824 48.39024276733399 238.39159317016598 -21.805303192138673 238.39159317016598
M 125.04502410888674 299.8710624694824
L 125.04502410888674 361.3505317687988 201.69980545043947 361.3505317687988 201.69980545043947 422.8300010681152 125.04502410888674 422.8300010681152 125.04502410888674 484.30947036743163 48.39024276733399 484.30947036743163 48.39024276733399 545.7889396667481 125.04502410888674 545.7889396667481 125.04502410888674 607.3462310791016 201.69980545043947 607.3462310791016 201.69980545043947 668.825700378418 278.5102310180664 668.825700378418 278.5102310180664 730.0717033386231 201.69980545043947 730.0717033386231 201.69980545043947 791.5511726379395 125.04502410888674 791.5511726379395 125.04502410888674 853.1084640502929 201.69980545043947 853.1084640502929 201.69980545043947 914.5879333496093 278.5102310180664 914.5879333496093 278.5102310180664 976.0674026489257 201.69980545043947 976.0674026489257 201.69980545043947 1037.5468719482421 278.5102310180664 1037.5468719482421 278.5102310180664 1099.8045623779296
M 125.04502410888674 361.3505317687988
L 125.04502410888674 422.8300010681152 48.39024276733399 422.8300010681152 48.39024276733399 484.30947036743163 -21.805303192138673 484.30947036743163
M -21.805303192138673 361.3505317687988
L 48.39024276733399 361.3505317687988 48.39024276733399 299.8710624694824 125.04502410888674 299.8710624694824
M -21.805303192138673 422.8300010681152
L 48.39024276733399 422.8300010681152 48.39024276733399 361.3505317687988 125.04502410888674 361.3505317687988
M -21.805303192138673 545.7889396667481
L 48.39024276733399 545.7889396667481 48.39024276733399 607.3462310791016 125.04502410888674 607.3462310791016 125.04502410888674 668.825700378418 201.69980545043947 668.825700378418 201.69980545043947 730.0717033386231 125.04502410888674 730.0717033386231 125.04502410888674 791.5511726379395 48.39024276733399 791.5511726379395 48.39024276733399 853.1084640502929 125.04502410888674 853.1084640502929 125.04502410888674 914.5879333496093 201.69980545043947 914.5879333496093 201.69980545043947 976.0674026489257 125.04502410888674 976.0674026489257 125.04502410888674 1037.5468719482421 201.69980545043947 1037.5468719482421 201.69980545043947 1099.8045623779296
M 125.04502410888674 730.0717033386231
L 125.04502410888674 668.825700378418 48.39024276733399 668.825700378418 48.39024276733399 730.0717033386231 125.04502410888674 730.0717033386231 Z
M -21.805303192138673 668.825700378418
L 48.39024276733399 668.825700378418 48.39024276733399 607.3462310791016 -21.805303192138673 607.3462310791016
M -21.805303192138673 791.5511726379395
L 48.39024276733399 791.5511726379395 48.39024276733399 730.0717033386231 -21.805303192138673 730.0717033386231
M -21.805303192138673 853.1084640502929
L 48.39024276733399 853.1084640502929 48.39024276733399 914.5879333496093 125.04502410888674 914.5879333496093 125.04502410888674 976.0674026489257 48.39024276733399 976.0674026489257 48.39024276733399 1037.5468719482421 125.04502410888674 1037.5468719482421 125.04502410888674 1099.8045623779296
M 48.39024276733399 914.5879333496093
L 48.39024276733399 976.0674026489257 -21.805303192138673 976.0674026489257
M -21.805303192138673 1037.5468719482421
L 48.39024276733399 1037.5468719482421 48.39024276733399 1099.8045623779296
M -21.805303192138673 914.5879333496093
L 48.39024276733399 914.5879333496093"/>
</defs>

<g transform="matrix( 1.5564422607421875, 0, 0, 1.5564422607421875, -32,-19.9) ">
<use xlink:href="#Layer0_0_FILL"/>
</g>

<g transform="matrix( 1.5564422607421875, 0, 0, 1.5564422607421875, -32,-19.9) ">
<use xlink:href="#Layer0_1_1_STROKES" transform="matrix( 0.642486572265625, 0, 0, 0.642486572265625, 20.55,12.75) "/>
</g>

<g transform="matrix( 1, 0, 0, 1, 0,0) ">
<use xlink:href="#Layer0_2_FILL"/>
</g>
</svg>
