
<svg xmlns="http://www.w3.org/2000/svg" version="1.1" xmlns:xlink="http://www.w3.org/1999/xlink" preserveAspectRatio="none" x="0px" y="0px" width="900px" height="900px" viewBox="0 0 900 900">
<defs>
<g id="____0_Layer1_0_FILL">
<path fill="#FFFFFF" stroke="none" d="
M 233.45 19.05
Q 202.5 30.65 174 48.15 136.9 71 104 103.9 -3.35 211.3 -3.35 363.15 -3.35 515 104 622.35 211.35 729.7 363.2 729.7 515.1 729.7 622.45 622.35 729.8 515 729.8 363.15 729.8 211.3 622.45 103.9 515.1 -3.45 363.2 -3.45 293.7 -3.45 233.45 19.05 Z"/>
</g>

<g id="____0_Layer0_0_MEMBER_0_MEMBER_0_FILL">
<path fill="#999999" stroke="none" d="
M -431.7 -454.25
L -431.65 -455.25
Q -491.85 -459.1 -549.55 -443.45 -605.55 -428.3 -654.35 -396.2 -702.7 -364.4 -738.85 -319.05 -775.55 -273.1 -795.85 -217.7
L -794.9 -217.35
Q -784.4 -246 -769.3 -272.3 -726.5 -346.95 -654 -394.75 -581.5 -442.6 -496 -452.6 -474.8 -455 -454.5 -455 -443 -455 -431.7 -454.25 Z"/>
</g>

<g id="____0_Layer0_0_MEMBER_0_MEMBER_1_FILL">
<path fill="#999999" stroke="none" d="
M -329.25 -433.8
L -329.25 -433.85 -329.6 -432.9
Q -282 -415.4 -241.05 -385.45 -178.35 -339.55 -139.6 -271.5 -100.6 -203 -93.45 -125.3 -92 -109.55 -92 -92.5
L -92 -91
Q -92 -80.65 -92.7 -69.75
L -91.7 -69.7
Q -87.85 -129.85 -103.5 -187.55 -118.65 -243.55 -150.75 -292.35 -182.55 -340.7 -227.9 -376.85 -273.9 -413.6 -329.25 -433.8 Z"/>
</g>

<g id="____0_Layer0_0_MEMBER_0_MEMBER_2_FILL">
<path fill="#999999" stroke="none" d="
M -816.25 -115.25
L -817.25 -115.3
Q -821.1 -55.15 -805.45 2.55 -790.3 58.6 -758.2 107.35 -726.35 155.75 -681.05 191.85 -635.05 228.6 -579.7 248.8
L -579.35 247.9
Q -626.9 230.4 -667.9 200.45 -730.65 154.45 -769.4 86.35 -808.4 17.8 -815.5 -60 -817 -76.2 -817 -92.5
L -816.95 -93.95
Q -816.95 -104.35 -816.25 -115.25 Z"/>
</g>

<g id="____0_Layer0_0_MEMBER_0_MEMBER_3_FILL">
<path fill="#999999" stroke="none" d="
M -113.1 32.7
L -114.05 32.35
Q -124.5 60.9 -139.6 87.3 -182.35 161.95 -254.95 209.8 -327.45 257.6 -412.95 267.6 -434.15 270 -454.5 270 -465.9 270 -477.25 269.25
L -477.3 270.25
Q -465.6 271 -453.9 271 -405.75 271 -359.4 258.45 -303.35 243.3 -254.6 211.2 -206.2 179.4 -170.1 134.05 -133.4 88.1 -113.1 32.7 Z"/>
</g>

<g id="____0_Layer0_0_MEMBER_0_MEMBER_4_FILL">
<path fill="#999999" stroke="none" d="
M -431.65 -455.25
L -431.7 -454.25
Q -420.35 -453.55 -409.3 -452.15 -368 -446.95 -329.6 -432.9
L -329.25 -433.85
Q -378.75 -452 -431.65 -455.25 Z"/>
</g>

<g id="____0_Layer0_0_MEMBER_0_MEMBER_5_FILL">
<path fill="#999999" stroke="none" d="
M -91.7 -69.7
L -92.7 -69.75
Q -93.4 -58.4 -94.8 -47.35 -100 -6.1 -114.05 32.35
L -113.1 32.7
Q -94.95 -16.8 -91.7 -69.7 Z"/>
</g>

<g id="____0_Layer0_0_MEMBER_0_MEMBER_6_FILL">
<path fill="#999999" stroke="none" d="
M -579.35 247.9
L -579.7 248.8
Q -530.25 267 -477.3 270.25
L -477.25 269.25
Q -488.6 268.55 -499.65 267.15 -540.9 261.95 -579.35 247.9 Z"/>
</g>

<g id="____0_Layer0_0_MEMBER_0_MEMBER_7_FILL">
<path fill="#999999" stroke="none" d="
M -794.9 -217.35
L -795.85 -217.7
Q -814 -168.2 -817.25 -115.3
L -816.25 -115.25
Q -815.55 -126.6 -814.15 -137.65 -808.95 -178.9 -794.9 -217.35 Z"/>
</g>

<g id="____0_Layer0_0_MEMBER_0_MEMBER_8_FILL">
<path fill="#999999" stroke="none" d="
M -647.1 -264.55
L -646.8 -264.95 -725.25 -335 -725.55 -334.65
Q -771.95 -282.75 -795.85 -217.7 -809.95 -179 -815.15 -137.75 -816.65 -125.55 -817.25 -115.3 -817.95 -104.4 -817.95 -93.95
L -817.95 -93.45 -711.95 -93.05 -712 -94.5
Q -712 -125.05 -704.7 -155.25
L -704.65 -155.3
Q -697.25 -185.8 -682.65 -213.4 -668 -241.15 -647.1 -264.55
M -794.9 -217.35
Q -786.4 -240.45 -775.1 -261.85
L -683.75 -213.45
Q -698.2 -185.95 -705.55 -155.95
L -806 -181.15
Q -801.3 -199.75 -794.9 -217.35
M -648.2 -264.85
Q -669 -241.4 -683.3 -214.35
L -774.6 -262.75
Q -754.35 -300.9 -725.15 -333.6
L -648.2 -264.85
M -816.25 -115.25
Q -815.55 -126.6 -814.15 -137.65 -811.45 -159 -806.25 -180.2
L -705.75 -155
Q -713 -125.15 -713 -94.5
L -712.95 -94.05 -816.95 -94.45
Q -816.95 -104.6 -816.25 -115.25 Z"/>
</g>

<g id="____0_Layer0_0_MEMBER_0_MEMBER_9_FILL">
<path fill="#999999" stroke="none" d="
M -181.4 -332.4
L -181.75 -332.8 -263 -261.35 -262.7 -261
Q -242.45 -237.45 -228.55 -210
L -228.5 -209.9
Q -214.5 -182.3 -207.55 -152.25 -201 -123.95 -201 -94.5
L -201 -90.95 -91 -90.5 -91 -92.5
Q -91 -158.75 -114.35 -220.7 -137.7 -282.7 -181.4 -332.4
M -261.6 -261.25
L -181.85 -331.35
Q -153.15 -298.6 -133 -260.05
L -227.8 -210.8
Q -241.85 -238.2 -261.6 -261.25
M -200 -91.95
L -200 -94.5
Q -200 -123.85 -206.45 -152
L -102 -177.3
Q -92 -135.55 -92 -92.5
L -92 -91.5 -200 -91.95
M -227.35 -209.9
L -132.55 -259.2
Q -112.6 -220.75 -102.25 -178.25
L -206.7 -153
Q -213.5 -182.35 -227.35 -209.9 Z"/>
</g>

<g id="____0_Layer0_0_MEMBER_0_MEMBER_10_FILL">
<path fill="#999999" stroke="none" d="
M -646.2 76.6
L -646.55 76.2
Q -667.3 53.15 -681.95 25.7 -696.75 -1.9 -704.25 -32.05 -711.85 -62.25 -711.95 -93.55
L -711.95 -94.05 -817.95 -94.45 -818 -92.5
Q -818 -26.25 -794.65 35.7 -771.25 97.7 -727.55 147.4
L -727.2 147.8 -646.2 76.6
M -817 -92.5
L -816.95 -93.45 -712.95 -93.05
Q -712.8 -62.1 -705.35 -32.3
L -806.95 -7.7
Q -817 -49.65 -817 -92.5
M -806.7 -6.75
L -705.1 -31.3
Q -697.55 -1.45 -683.1 25.7
L -776.4 74.2
Q -796.35 35.75 -806.7 -6.75
M -775.95 75.05
L -682.6 26.6
Q -668.15 53.5 -647.6 76.5
L -727.1 146.35
Q -755.8 113.65 -775.95 75.05 Z"/>
</g>

<g id="____0_Layer0_0_MEMBER_0_MEMBER_11_FILL">
<path fill="#999999" stroke="none" d="
M -646.55 76.2
L -646.85 75.85 -727.9 147 -727.55 147.4
Q -697.5 181.55 -659.85 207.4 -622.15 233.25 -579.7 248.8 -541.1 262.95 -499.75 268.15
L -499.3 268.2 -485.6 159.3 -486.1 159.25
Q -516.95 155.7 -545.65 144.95 -574.5 134.2 -600.2 116.75 -625.8 99.3 -646.55 76.2
M -545.55 146.05
Q -517.15 156.65 -486.7 160.2
L -500.15 267.1
Q -541.05 261.9 -579.35 247.9
L -584 246.15 -545.55 146.05
M -600.35 117.85
Q -575.1 135 -546.5 145.7
L -584.9 245.8
Q -625.4 230.15 -661.2 205.25
L -600.35 117.85
M -646.95 77.25
Q -626.35 100.05 -601.2 117.3
L -662.05 204.65
Q -697.75 179.7 -726.45 147.1
L -646.95 77.25 Z"/>
</g>

<g id="____0_Layer0_0_MEMBER_0_MEMBER_12_FILL">
<path fill="#999999" stroke="none" d="
M -201 -91.95
L -201 -91.45
Q -201.4 -60.35 -208.95 -30.95 -216.55 -1.3 -231.05 25.8
L -231.1 25.9
Q -245.6 52.95 -266.05 75.8
L -266.4 76.15 -183.7 150 -183.4 149.65
Q -137 97.75 -113.1 32.7 -99 -6 -93.8 -47.25 -92.3 -59.45 -91.7 -69.7 -91 -80.6 -91 -91
L -91 -91.5 -201 -91.95
M -207.85 -31.2
Q -200.45 -60.5 -200 -90.95
L -92 -90.5
Q -92 -80.4 -92.7 -69.75 -93.4 -58.4 -94.8 -47.35 -97.5 -26 -102.7 -4.8
L -207.85 -31.2
M -208.1 -30.2
L -102.95 -3.85
Q -107.65 14.75 -114.05 32.35 -122.55 55.45 -133.85 76.85
L -229.95 25.9
Q -215.7 -0.95 -208.1 -30.2
M -264.95 76.1
Q -244.7 53.35 -230.45 26.8
L -134.35 77.75
Q -154.6 115.9 -183.8 148.6
L -264.95 76.1 Z"/>
</g>

<g id="____0_Layer0_0_MEMBER_0_MEMBER_13_FILL">
<path fill="#999999" stroke="none" d="
M -409.2 -453.15
L -409.65 -453.2 -422.9 -347.8 -422.4 -347.7
Q -391.35 -343.55 -362.45 -332.1 -333.85 -320.8 -308.25 -302.6
L -308.2 -302.55
Q -283.05 -284.6 -262.7 -261
L -262.35 -260.6 -181.05 -332 -181.4 -332.4
Q -211.45 -366.55 -249.1 -392.4 -286.75 -418.25 -329.25 -433.85 -367.95 -447.95 -409.2 -453.15
M -329.6 -432.9
L -324.95 -431.15 -362.55 -333.25
Q -391.3 -344.5 -421.8 -348.65
L -408.8 -452.1
Q -367.9 -446.9 -329.6 -432.9
M -307.2 -303.1
L -246.9 -389.65
Q -211.2 -364.7 -182.5 -332.1
L -262.25 -262
Q -282.15 -285.1 -307.2 -303.1
M -247.75 -390.25
L -308 -303.65
Q -333.4 -321.65 -361.65 -332.85
L -324.05 -430.8
Q -283.55 -415.15 -247.75 -390.25 Z"/>
</g>

<g id="____0_Layer0_0_MEMBER_0_MEMBER_14_FILL">
<path fill="#999999" stroke="none" d="
M -408.7 -453.1
L -409.2 -453.15
Q -421.4 -454.65 -431.65 -455.25 -442.95 -456 -454.5 -456 -533.75 -456 -605.45 -423.25 -674.75 -391.55 -725.55 -334.65
L -725.9 -334.25 -647.45 -264.2 -647.1 -264.55
Q -626.2 -288 -600.35 -305.65 -574.35 -323.35 -545 -334.2 -515.75 -345.05 -484.5 -348.45 -470 -350 -456.5 -350 -439.7 -350 -422.4 -347.7
L -421.9 -347.65 -408.7 -453.1
M -581.15 -432.05
Q -540.6 -447.25 -497.2 -452.45
L -485.1 -349.4
Q -516.25 -345.9 -544.9 -335.3
L -581.15 -432.05
M -431.7 -454.25
Q -420.85 -453.6 -409.8 -452.2
L -422.8 -348.75
Q -439.5 -351 -456.5 -351 -469.55 -351 -484.1 -349.5
L -496.2 -452.55
Q -475.05 -455 -454.5 -455 -443 -455 -431.7 -454.25
M -601.3 -306.2
Q -626.85 -288.7 -647.55 -265.6
L -724.5 -334.35
Q -695.45 -366.75 -659.55 -391.35
L -601.3 -306.2
M -545.85 -334.95
Q -575 -324.1 -600.5 -306.75
L -658.75 -391.9
Q -622.8 -416.4 -582.1 -431.7
L -545.85 -334.95 Z"/>
</g>

<g id="____0_Layer0_0_MEMBER_0_MEMBER_15_FILL">
<path fill="#999999" stroke="none" d="
M -265.7 75.4
L -266.05 75.8
Q -286.45 98.6 -311.75 116.05 -337.05 133.45 -365.75 144.4 -394.55 155.3 -425 159.05 -441.2 161 -456.5 161 -471.05 161 -486.1 159.25
L -486.6 159.2 -500.25 268.1 -499.75 268.15
Q -487.55 269.65 -477.3 270.25 -465.95 271 -454.5 271 -375.2 271 -303.5 238.25 -234.2 206.55 -183.4 149.65
L -183.05 149.25 -265.7 75.4
M -310.8 116.6
Q -285.75 99.25 -265.65 76.85
L -184.45 149.35
Q -213.5 181.75 -249.4 206.35
L -310.8 116.6
M -311.6 117.15
L -250.2 206.9
Q -286.15 231.4 -326.85 246.7
L -364.9 145.15
Q -336.65 134.3 -311.6 117.15
M -485.7 160.3
Q -470.65 162 -456.5 162 -441 162 -425.35 160.1
L -412.75 267.55
Q -433.9 270 -454.5 270 -465.9 270 -477.25 269.25 -488.1 268.6 -499.15 267.2
L -485.7 160.3
M -424.35 159.95
Q -394.5 156.3 -365.85 145.5
L -327.8 247.05
Q -368.35 262.25 -411.75 267.45
L -424.35 159.95 Z"/>
</g>

<g id="____0_Layer0_0_MEMBER_1_MEMBER_0_FILL">
<path fill="#000000" stroke="none" d="
M -350.8 -347.1
L -343.1 -343.05 -328.2 -357.9 -306.9 -346.75 -310.75 -326.05 -302.7 -321.8 -291.65 -390.85 -300.2 -395.35 -350.8 -347.1
M -305.6 -353.75
L -323.1 -363 -315.65 -370.35
Q -308.3 -377.65 -299.45 -387.05
L -299.1 -386.9
Q -301.4 -376.7 -303.65 -364.05
L -305.6 -353.75 Z"/>
</g>

<g id="____0_Layer0_0_MEMBER_1_MEMBER_1_FILL">
<path fill="#000000" stroke="none" d="
M -236.4 -305.35
Q -236.75 -310.9 -241.5 -316.65
L -241.2 -316.95
Q -236 -314.25 -231 -315.3 -226.35 -316.2 -222.95 -320.1 -217.4 -326.3 -219.4 -333.55 -221.25 -340.15 -229.25 -347.25
L -243.3 -359.7 -287.25 -310.1 -272.05 -296.65
Q -263.4 -289 -255.35 -288.25 -246.8 -287.5 -240.5 -294.6 -236.05 -299.6 -236.4 -305.35
M -234.7 -342.6
Q -228.8 -337.4 -227.5 -333.3 -226.1 -328.95 -229.6 -325.05 -233.35 -320.8 -237.85 -321.3 -242.5 -321.75 -248.8 -327.3
L -255.5 -333.3 -241.7 -348.85 -234.7 -342.6
M -268.25 -302.75
L -276.25 -309.85 -260.2 -328 -252.2 -320.9
Q -245.5 -315 -244 -310.05 -242.45 -304.9 -246.45 -300.4 -254.9 -290.9 -268.25 -302.75 Z"/>
</g>

<g id="____0_Layer0_0_MEMBER_1_MEMBER_2_FILL">
<path fill="#000000" stroke="none" d="
M -189.7 -284.55
Q -180.6 -284 -175.2 -276.15 -170.75 -269.85 -172.5 -261.8
L -165.35 -260.85
Q -164.3 -265.55 -165 -270.3 -165.85 -275.8 -169.05 -280.4 -176.5 -291.2 -188.7 -292.7 -201.2 -294.25 -214.15 -285.25 -227.2 -276.25 -230.25 -264.05 -233.15 -252.35 -225.95 -242 -218.9 -231.8 -206.4 -230.6
L -204.95 -237.5
Q -214.55 -238.65 -219.35 -245.55 -224.75 -253.4 -222 -262.2 -219.25 -271.1 -209 -278.15 -198.9 -285.15 -189.7 -284.55 Z"/>
</g>

<g id="____0_Layer0_0_MEMBER_1_MEMBER_3_FILL">
<path fill="#000000" stroke="none" d="
M -136.85 -216.5
L -142.65 -231.8 -204.6 -208.2 -198.6 -192.55
Q -193.45 -178.95 -182.4 -174.7 -171.45 -170.45 -156.6 -176.1 -141.8 -181.75 -136.7 -192.15 -131.55 -202.6 -136.85 -216.5
M -146.15 -221.35
L -143.55 -214.55
Q -139.55 -204.1 -143.8 -196.4 -147.95 -188.8 -159.75 -184.35 -171.65 -179.8 -179.95 -182.65 -188.5 -185.55 -192.45 -195.95
L -195.05 -202.75 -146.15 -221.35 Z"/>
</g>

<g id="____0_Layer0_0_MEMBER_1_MEMBER_4_FILL">
<path fill="#000000" stroke="none" d="
M -183.25 -142.2
L -178.2 -100.5 -171.1 -101.35 -175.1 -134.65 -151.25 -137.55 -147.95 -110.25 -140.85 -111.15 -144.15 -138.4 -123.6 -140.9 -119.65 -108.6 -112.55 -109.5 -117.5 -150.2 -183.25 -142.2 Z"/>
</g>

<g id="____0_Layer0_0_MEMBER_1_MEMBER_5_FILL">
<path fill="#000000" stroke="none" d="
M -178.95 -73.85
L -179.95 -65.4 -150.55 -61.9 -153.75 -34.85 -146.65 -34 -143.4 -61.05 -121.25 -58.45 -125.05 -26.45 -117.95 -25.6 -113.15 -66 -178.95 -73.85 Z"/>
</g>

<g id="____0_Layer0_0_MEMBER_1_MEMBER_6_FILL">
<path fill="#000000" stroke="none" d="
M -156.9 -4.15
Q -171.75 -9.8 -183.4 -5.5 -194.65 -1.4 -199.15 10.55 -201.3 16.25 -201.15 22.15 -200.95 27.45 -198.95 31.75
L -172.9 41.6 -165.45 21.95 -172 19.5 -176.6 31.8 -192.75 25.7
Q -193.8 23.35 -193.7 20.15 -193.55 16.95 -192.35 13.65 -188.95 4.65 -180.2 2.2 -171.65 -0.2 -159.85 4.2 -148.35 8.55 -143.55 16.35 -138.85 24.05 -142.15 32.8 -143.7 36.95 -146.55 39.65 -148.9 41.8 -152.45 43.3
L -149.15 49.7
Q -138.9 45.4 -135.15 35.45 -130.55 23.2 -136.25 12.45 -142.1 1.45 -156.9 -4.15 Z"/>
</g>

<g id="____0_Layer0_0_MEMBER_1_MEMBER_7_FILL">
<path fill="#000000" stroke="none" d="
M -209.7 95.3
L -235.3 77.65 -240.2 84.75 -185.6 122.3 -180.75 115.25 -203.55 99.55 -187.95 76.9 -165.15 92.6 -160.3 85.55 -214.85 47.95 -219.75 55.05 -194.1 72.7 -209.7 95.3 Z"/>
</g>

<g id="____0_Layer0_0_MEMBER_1_MEMBER_8_FILL">
<path fill="#000000" stroke="none" d="
M -251.3 107.8
L -256.05 102.45 -287 129.95 -282.25 135.3 -269.95 124.35 -235.4 163.15 -247.7 174.1 -242.95 179.45 -212 151.9 -216.8 146.55 -229.1 157.5 -263.6 118.75 -251.3 107.8 Z"/>
</g>

<g id="____0_Layer0_0_MEMBER_1_MEMBER_9_FILL">
<path fill="#000000" stroke="none" d="
M -301.9 152.4
Q -307.4 149.15 -313.65 149.15 -319.4 149.15 -324.55 151.9 -334.8 157.3 -336.65 165.75 -338.3 173.1 -333.55 182
L -312.45 221.95 -280.4 205 -283.75 198.65 -308.2 211.6 -325.6 178.65
Q -329.4 171.45 -328.25 166.55 -327.15 161.7 -320.9 158.4 -317.4 156.55 -313.15 156.75 -308.7 156.95 -304.25 159.45
L -301.9 152.4 Z"/>
</g>

<g id="____0_Layer0_0_MEMBER_1_MEMBER_10_FILL">
<path fill="#000000" stroke="none" d="
M -406.35 182.35
L -415.65 184.65 -383 218.95 -397.35 248.4 -387.95 246.05 -368.95 207.2 -368.65 207.15 -360.7 239.3 -352.35 237.2 -368.35 172.9 -376.65 175 -371.55 195.45 -379.35 211.45 -406.35 182.35 Z"/>
</g>

<g id="____0_Layer0_0_MEMBER_1_MEMBER_11_FILL">
<path fill="#000000" stroke="none" d="
M -478.55 186.35
L -478.45 193.55 -445.7 193 -444.75 252.1 -436.4 251.95 -437.45 185.7 -478.55 186.35 Z"/>
</g>

<g id="____0_Layer0_0_MEMBER_1_MEMBER_12_FILL">
<path fill="#000000" stroke="none" d="
M -534.8 174.7
L -542.65 172.8 -558.25 237.2 -548.25 239.6 -532.45 214.35 -526.85 204.65 -526.5 204.75 -523.5 245.6 -513.5 248.05 -497.85 183.65 -505.55 181.8 -513.35 214
Q -514.4 218.4 -515.7 225.8 -516.9 232.45 -517.5 237.1
L -517.7 237.05 -518.35 223.55 -521.25 196.05 -527.15 194.6 -542.5 217.7 -549.2 229.4 -549.5 229.3
Q -547.25 222.55 -545.95 218.4 -543.55 210.85 -542.6 206.9
L -534.8 174.7 Z"/>
</g>

<g id="____0_Layer0_0_MEMBER_1_MEMBER_13_FILL">
<path fill="#000000" stroke="none" d="
M -570.1 161.3
L -586.15 192
Q -587.95 195.5 -590.55 201.45 -593.8 209 -594.7 210.85
L -594.9 210.8 -594.2 195.65 -593.75 148.95 -602 144.65 -632.65 203.4 -625.45 207.15 -609.6 176.7
Q -607.65 173 -605.05 167.05 -601.2 158.35 -600.85 157.55
L -600.65 157.65 -601.4 172.75 -601.85 219.45 -593.6 223.75 -562.95 165 -570.1 161.3 Z"/>
</g>

<g id="____0_Layer0_0_MEMBER_1_MEMBER_14_FILL">
<path fill="#000000" stroke="none" d="
M -628.75 135.3
Q -627.9 123.8 -636.45 116.3 -645 108.75 -656.3 111.1 -667.85 113.45 -678.45 125.5 -688.9 137.35 -689.65 149 -690.4 160.3 -681.85 167.85 -673.3 175.35 -662.15 173.2 -650.7 171 -640.25 159.1 -629.65 147.05 -628.75 135.3
M -641.4 121.9
Q -635.7 126.9 -637.1 135.3 -638.5 143.85 -646.85 153.3 -655 162.6 -663.2 164.95 -671.2 167.25 -676.9 162.25 -682.6 157.25 -681.35 149 -680.05 140.55 -671.85 131.3 -663.55 121.85 -655.25 119.35 -647.1 116.9 -641.4 121.9 Z"/>
</g>

<g id="____0_Layer0_0_MEMBER_1_MEMBER_15_FILL">
<path fill="#000000" stroke="none" d="
M -696.5 92.05
L -703.1 82.6
Q -709.55 73.35 -717.3 70.95 -725.6 68.4 -733.95 74.2 -742.5 80.15 -742.55 88.5 -742.6 95.9 -735.9 105.5
L -724.5 121.9 -670.15 84 -675 77.05 -696.5 92.05
M -708.15 87.4
L -702.15 96 -723.7 111 -729.7 102.4
Q -734.75 95.15 -734.8 90.3 -734.8 85.15 -729.1 81.15 -723.35 77.15 -718.2 78.75 -713.15 80.25 -708.15 87.4 Z"/>
</g>

<g id="____0_Layer0_0_MEMBER_1_MEMBER_16_FILL">
<path fill="#000000" stroke="none" d="
M -703.9 -14.1
Q -705.2 -17.5 -707.9 -20.55
L -713.7 -16.7
Q -712.1 -15 -711.05 -12.45 -709 -7.15 -709.95 -2.7 -710.76171875 1.23046875 -713.8 4 -718.1896484375 -2.9208984375 -726.75 -5.4 -738.1 -8.65 -753.05 -2.9 -767.8 2.75 -773.9 12.7 -779.8 22.4 -775.7 33.05 -771.6 43.7 -760.75 46.95 -749.55 50.3 -734.8 44.6 -719.85 38.9 -713.6 28.85 -708.6546875 20.9455078125 -710.45 12.45 -704.9419921875 7.590625 -703.05 1.3 -700.8 -6.05 -703.9 -14.1
M -718.2 10.95
Q -715.45 18.05 -720.55 24.8 -725.8 31.75 -737.95 36.4 -749.5 40.85 -757.85 39.15 -766 37.45 -768.75 30.35 -771.45 23.3 -766.5 16.55 -761.45 9.7 -749.9 5.3 -737.8 0.65 -729.25 2.3 -720.95 3.85 -718.2 10.95 Z"/>
</g>

<g id="____0_Layer0_0_MEMBER_1_MEMBER_17_FILL">
<path fill="#000000" stroke="none" d="
M -732 -80.95
L -758.6 -60.7
Q -760.374609375 -65.374609375 -763.5 -68.5 -769.45 -74.35 -778.95 -73.2 -797.5 -70.85 -794.65 -47.8
L -792.1 -27.3 -726.35 -35.45 -727.4 -44 -755.15 -40.5 -756.6 -52.15 -730.8 -71.45 -732 -80.95
M -767.95 -61.85
Q -764.3 -58.2 -763.3 -50.5
L -762 -39.65 -786.35 -36.65 -787.7 -47.45
Q -788.65 -55.4 -786.5 -59.55 -784.2 -64 -777.9 -64.75 -771.65 -65.55 -767.95 -61.85 Z"/>
</g>

<g id="____0_Layer0_0_MEMBER_1_MEMBER_18_FILL">
<path fill="#000000" stroke="none" d="
M -773.15 -119.1
Q -776.35 -115.65 -780.55 -116.15 -784.95 -116.65 -787.1 -120.45 -789.3 -124.2 -788.6 -130 -787.5 -139.15 -780.6 -145.45
L -785.5 -150.45
Q -789.7 -147.15 -792.4 -142.3 -795.3 -137.1 -796 -131.15 -797.1 -121.75 -792.8 -115.05 -788.55 -108.4 -781.05 -107.55 -774.45 -106.75 -769.35 -110.85 -765.6 -113.9 -762.45 -119.75
L -757.1 -128.8
Q -753.7 -134.8 -751.8 -136.6 -748.65 -139.7 -743.9 -139.15 -739.3 -138.6 -736.95 -134.55 -734.5 -130.35 -735.25 -123.7 -735.85 -118.25 -738.7 -113.4 -741.35 -108.8 -745.6 -105.4
L -740.35 -99.7
Q -735.25 -103.7 -732.05 -109.4 -728.7 -115.4 -727.85 -122.45 -726.65 -133.05 -731.35 -140.15 -735.9 -146.95 -743.95 -147.9 -750.7 -148.65 -755.65 -144.95 -759.65 -141.95 -763.15 -135.35
L -768.35 -126.6
Q -771.3 -121.1 -773.15 -119.1 Z"/>
</g>

<g id="____0_Layer0_0_MEMBER_1_MEMBER_19_FILL">
<path fill="#000000" stroke="none" d="
M -767.4 -211.35
L -759.75 -231.9 -766.45 -234.4 -784.8 -185.4 -778.05 -182.9 -770.4 -203.4 -715.05 -182.7 -712.1 -190.65 -767.4 -211.35 Z"/>
</g>

<g id="____0_Layer0_0_MEMBER_1_MEMBER_20_FILL">
<path fill="#000000" stroke="none" d="
M -745.35 -271.75
L -750.2 -264.65 -716.2 -241.4
Q -704.95 -233.7 -695.9 -235.15 -687.7 -236.45 -681.85 -245.05 -676.05 -253.6 -677.8 -261.65 -679.75 -270.55 -690.95 -278.25
L -724.95 -301.5 -729.6 -294.75 -695.4 -271.35
Q -687.4 -265.9 -685.8 -259.9 -684.35 -254.6 -688 -249.3 -691.6 -244.05 -697 -243.5 -703.15 -242.9 -711.15 -248.35
L -745.35 -271.75 Z"/>
</g>

<g id="____0_Layer0_0_MEMBER_1_MEMBER_21_FILL">
<path fill="#000000" stroke="none" d="
M -644.55 -302.35
L -644.85 -302.1
Q -651.8 -306.2 -664.15 -314.1
L -695.9 -333.65 -702.65 -327.6 -642.65 -292.4 -635.3 -299 -663.85 -362.35 -670.3 -356.55 -654.35 -322.85
Q -650.95 -315.95 -649.35 -312.65 -646.6 -306.9 -644.55 -302.35 Z"/>
</g>

<g id="____0_Layer0_0_MEMBER_1_MEMBER_22_FILL">
<path fill="#000000" stroke="none" d="
M -589.9 -406.05
L -597.95 -401.8 -582.4 -362.8
Q -580.4 -357.65 -576.3 -348.75
L -576.65 -348.55
Q -582.8 -356.25 -586.7 -360.5
L -603.8 -379.3 -610.95 -375.5 -605.05 -350.75
Q -603.15 -343.45 -600.75 -335.75
L -601 -335.6
Q -603.6 -340 -609.4 -348.55
L -633.25 -383 -641.6 -378.5 -601.5 -324.7 -592.4 -329.55 -599.25 -356.1
Q -600.2 -359.95 -602.8 -367.75
L -602.5 -367.85
Q -599.4 -363.65 -594.75 -358.5
L -576.55 -338 -567.25 -342.95 -589.9 -406.05 Z"/>
</g>

<g id="____0_Layer0_0_MEMBER_1_MEMBER_23_FILL">
<path fill="#000000" stroke="none" d="
M -529.25 -406.9
Q -530.25 -402.65 -531.45 -396.35
L -531.85 -396.25
Q -533.95 -398.55 -539.4 -404.35
L -552.55 -418.4 -561.65 -416.15 -535.9 -389.6 -546.75 -351.55 -538.05 -353.75 -532.75 -373.4
Q -531.05 -380.7 -530.2 -385.1
L -529.8 -385.2 -507.55 -361.4 -498.35 -363.75 -525.8 -391.7 -515.8 -427.65 -524.55 -425.45 -529.25 -406.9 Z"/>
</g>

<g id="____0_Layer0_0_MEMBER_1_MEMBER_24_FILL">
<path fill="#000000" stroke="none" d="
M -449.15 -412.75
Q -450.85 -409.1 -456.65 -397.2
L -457.05 -397.15
Q -458.8 -400.35 -461.05 -404.9 -462.35 -407.4 -464.9 -412.5
L -475.1 -431.95 -484.1 -431.8 -461.2 -389.55 -460.8 -365.9 -452.3 -366.05 -452.7 -389.65 -431.2 -432.65 -439.85 -432.5 -449.15 -412.75 Z"/>
</g>

<g id="____0_Layer0_0_MEMBER_1_MEMBER_25_FILL">
<path fill="#000000" stroke="none" d="
M -395 -427.7
L -396.7 -420.75 -363.95 -412.9 -412.4 -368.95 -413.6 -363.95 -367.05 -352.8 -365.35 -359.75 -401.8 -368.5 -353.3 -412.45 -352.1 -417.45 -395 -427.7 Z"/>
</g>

<path id="____0_Layer1_0_1_STROKES" stroke="#999999" stroke-width="10" stroke-linejoin="round" stroke-linecap="round" fill="none" d="
M 729.8 363.15
Q 729.8 515 622.45 622.35 515.1 729.7 363.2 729.7 211.35 729.7 104 622.35 -3.35 515 -3.35 363.15 -3.35 211.3 104 103.9 136.9 71 174 48.15 202.5 30.65 233.45 19.05 293.7 -3.45 363.2 -3.45 515.1 -3.45 622.45 103.9 729.8 211.3 729.8 363.15 Z"/>
</defs>

<g transform="matrix( 1.1714935302734375, 0, 0, 1.1714935302734375, 24.5,24.6) ">
<g transform="matrix( 1, 0, 0, 1, 0,0) ">
<use xlink:href="#____0_Layer1_0_FILL"/>

<use xlink:href="#____0_Layer1_0_1_STROKES"/>
</g>

<g transform="matrix( 1, 0, 0, 1, 818,456) ">
<use xlink:href="#____0_Layer0_0_MEMBER_0_MEMBER_0_FILL"/>
</g>

<g transform="matrix( 1, 0, 0, 1, 818,456) ">
<use xlink:href="#____0_Layer0_0_MEMBER_0_MEMBER_1_FILL"/>
</g>

<g transform="matrix( 1, 0, 0, 1, 818,456) ">
<use xlink:href="#____0_Layer0_0_MEMBER_0_MEMBER_2_FILL"/>
</g>

<g transform="matrix( 1, 0, 0, 1, 818,456) ">
<use xlink:href="#____0_Layer0_0_MEMBER_0_MEMBER_3_FILL"/>
</g>

<g transform="matrix( 1, 0, 0, 1, 818,456) ">
<use xlink:href="#____0_Layer0_0_MEMBER_0_MEMBER_4_FILL"/>
</g>

<g transform="matrix( 1, 0, 0, 1, 818,456) ">
<use xlink:href="#____0_Layer0_0_MEMBER_0_MEMBER_5_FILL"/>
</g>

<g transform="matrix( 1, 0, 0, 1, 818,456) ">
<use xlink:href="#____0_Layer0_0_MEMBER_0_MEMBER_6_FILL"/>
</g>

<g transform="matrix( 1, 0, 0, 1, 818,456) ">
<use xlink:href="#____0_Layer0_0_MEMBER_0_MEMBER_7_FILL"/>
</g>

<g transform="matrix( 1, 0, 0, 1, 818,456) ">
<use xlink:href="#____0_Layer0_0_MEMBER_0_MEMBER_8_FILL"/>
</g>

<g transform="matrix( 1, 0, 0, 1, 818,456) ">
<use xlink:href="#____0_Layer0_0_MEMBER_0_MEMBER_9_FILL"/>
</g>

<g transform="matrix( 1, 0, 0, 1, 818,456) ">
<use xlink:href="#____0_Layer0_0_MEMBER_0_MEMBER_10_FILL"/>
</g>

<g transform="matrix( 1, 0, 0, 1, 818,456) ">
<use xlink:href="#____0_Layer0_0_MEMBER_0_MEMBER_11_FILL"/>
</g>

<g transform="matrix( 1, 0, 0, 1, 818,456) ">
<use xlink:href="#____0_Layer0_0_MEMBER_0_MEMBER_12_FILL"/>
</g>

<g transform="matrix( 1, 0, 0, 1, 818,456) ">
<use xlink:href="#____0_Layer0_0_MEMBER_0_MEMBER_13_FILL"/>
</g>

<g transform="matrix( 1, 0, 0, 1, 818,456) ">
<use xlink:href="#____0_Layer0_0_MEMBER_0_MEMBER_14_FILL"/>
</g>

<g transform="matrix( 1, 0, 0, 1, 818,456) ">
<use xlink:href="#____0_Layer0_0_MEMBER_0_MEMBER_15_FILL"/>
</g>

<g transform="matrix( 1, 0, 0, 1, 818,456) ">
<use xlink:href="#____0_Layer0_0_MEMBER_1_MEMBER_0_FILL"/>
</g>

<g transform="matrix( 1, 0, 0, 1, 818,456) ">
<use xlink:href="#____0_Layer0_0_MEMBER_1_MEMBER_1_FILL"/>
</g>

<g transform="matrix( 1, 0, 0, 1, 818,456) ">
<use xlink:href="#____0_Layer0_0_MEMBER_1_MEMBER_2_FILL"/>
</g>

<g transform="matrix( 1, 0, 0, 1, 818,456) ">
<use xlink:href="#____0_Layer0_0_MEMBER_1_MEMBER_3_FILL"/>
</g>

<g transform="matrix( 1, 0, 0, 1, 818,456) ">
<use xlink:href="#____0_Layer0_0_MEMBER_1_MEMBER_4_FILL"/>
</g>

<g transform="matrix( 1, 0, 0, 1, 818,456) ">
<use xlink:href="#____0_Layer0_0_MEMBER_1_MEMBER_5_FILL"/>
</g>

<g transform="matrix( 1, 0, 0, 1, 818,456) ">
<use xlink:href="#____0_Layer0_0_MEMBER_1_MEMBER_6_FILL"/>
</g>

<g transform="matrix( 1, 0, 0, 1, 818,456) ">
<use xlink:href="#____0_Layer0_0_MEMBER_1_MEMBER_7_FILL"/>
</g>

<g transform="matrix( 1, 0, 0, 1, 818,456) ">
<use xlink:href="#____0_Layer0_0_MEMBER_1_MEMBER_8_FILL"/>
</g>

<g transform="matrix( 1, 0, 0, 1, 818,456) ">
<use xlink:href="#____0_Layer0_0_MEMBER_1_MEMBER_9_FILL"/>
</g>

<g transform="matrix( 1, 0, 0, 1, 818,456) ">
<use xlink:href="#____0_Layer0_0_MEMBER_1_MEMBER_10_FILL"/>
</g>

<g transform="matrix( 1, 0, 0, 1, 818,456) ">
<use xlink:href="#____0_Layer0_0_MEMBER_1_MEMBER_11_FILL"/>
</g>

<g transform="matrix( 1, 0, 0, 1, 818,456) ">
<use xlink:href="#____0_Layer0_0_MEMBER_1_MEMBER_12_FILL"/>
</g>

<g transform="matrix( 1, 0, 0, 1, 818,456) ">
<use xlink:href="#____0_Layer0_0_MEMBER_1_MEMBER_13_FILL"/>
</g>

<g transform="matrix( 1, 0, 0, 1, 818,456) ">
<use xlink:href="#____0_Layer0_0_MEMBER_1_MEMBER_14_FILL"/>
</g>

<g transform="matrix( 1, 0, 0, 1, 818,456) ">
<use xlink:href="#____0_Layer0_0_MEMBER_1_MEMBER_15_FILL"/>
</g>

<g transform="matrix( 1, 0, 0, 1, 818,456) ">
<use xlink:href="#____0_Layer0_0_MEMBER_1_MEMBER_16_FILL"/>
</g>

<g transform="matrix( 1, 0, 0, 1, 818,456) ">
<use xlink:href="#____0_Layer0_0_MEMBER_1_MEMBER_17_FILL"/>
</g>

<g transform="matrix( 1, 0, 0, 1, 818,456) ">
<use xlink:href="#____0_Layer0_0_MEMBER_1_MEMBER_18_FILL"/>
</g>

<g transform="matrix( 1, 0, 0, 1, 818,456) ">
<use xlink:href="#____0_Layer0_0_MEMBER_1_MEMBER_19_FILL"/>
</g>

<g transform="matrix( 1, 0, 0, 1, 818,456) ">
<use xlink:href="#____0_Layer0_0_MEMBER_1_MEMBER_20_FILL"/>
</g>

<g transform="matrix( 1, 0, 0, 1, 818,456) ">
<use xlink:href="#____0_Layer0_0_MEMBER_1_MEMBER_21_FILL"/>
</g>

<g transform="matrix( 1, 0, 0, 1, 818,456) ">
<use xlink:href="#____0_Layer0_0_MEMBER_1_MEMBER_22_FILL"/>
</g>

<g transform="matrix( 1, 0, 0, 1, 818,456) ">
<use xlink:href="#____0_Layer0_0_MEMBER_1_MEMBER_23_FILL"/>
</g>

<g transform="matrix( 1, 0, 0, 1, 818,456) ">
<use xlink:href="#____0_Layer0_0_MEMBER_1_MEMBER_24_FILL"/>
</g>

<g transform="matrix( 1, 0, 0, 1, 818,456) ">
<use xlink:href="#____0_Layer0_0_MEMBER_1_MEMBER_25_FILL"/>
</g>
</g>
</svg>
