
<svg xmlns="http://www.w3.org/2000/svg" version="1.1" xmlns:xlink="http://www.w3.org/1999/xlink" preserveAspectRatio="none" x="0px" y="0px" width="100px" height="100px" viewBox="0 0 100 100">
<defs>
<g id="Layer0_0_MEMBER_0_FILL">
<path fill="#000000" stroke="none" d="
M 0 0
L 0 317.05 317.05 317.05 317.05 0 0 0 Z"/>
</g>

<g id="Layer0_0_MEMBER_1_FILL">
<path fill="#7FC31C" stroke="none" d="
M 255.5 16.15
L 255.5 34.1 281.1 34.1 281.1 63.6 299.05 63.6 299.05 16.15 255.5 16.15 Z"/>
</g>

<g id="Layer0_0_MEMBER_2_FILL">
<path fill="#FF0000" stroke="none" d="
M 61.55 34.1
L 61.55 16.15 18 16.15 18 63.6 35.95 63.6 35.95 34.1 61.55 34.1 Z"/>
</g>

<g id="Layer0_0_MEMBER_3_FILL">
<path fill="#FFFF00" stroke="none" d="
M 35.95 171.05
L 18 171.05 18 218.5 61.55 218.5 61.55 200.55 35.95 200.55 35.95 171.05 Z"/>
</g>

<g id="Layer0_0_MEMBER_4_FILL">
<path fill="#00A0C6" stroke="none" d="
M 299.05 171.05
L 281.1 171.05 281.1 200.55 255.5 200.55 255.5 218.5 299.05 218.5 299.05 171.05 Z"/>
</g>

<g id="Layer0_0_MEMBER_5_MEMBER_0_FILL">
<path fill="#FFFF00" stroke="none" d="
M 223.25 63.6
Q 216.1 63.6 211.05 68.65 206 73.7 206 80.85 206 88 211.05 93.05 216.1 98.1 223.25 98.1 230.4 98.1 235.45 93.05 240.5 88 240.5 80.85 240.5 73.7 235.45 68.65 230.4 63.6 223.25 63.6 Z"/>
</g>

<g id="Layer0_0_MEMBER_5_MEMBER_1_FILL">
<path fill="#FFFF00" stroke="none" d="
M 173 179.65
Q 181.9 179.8 192.6 176.4 198 174.7 201.55 173 206.4 170.55 211.8 169.3 214.5 168.7 216.2 168.55 226.6 167.75 233.1 172.7 236.35 175.15 237.5 177.8 240.4 183.85 235.55 192.9 233.1 197.45 230.1 200.8
L 249.2 212.85
Q 261.95 199.9 262.6 184.85 262.8 180.2 261.75 175.85
L 260.7 172.45
Q 253.15 158.4 236.2 152 230.9 149.95 225.35 148.95
L 220.8 148.35
Q 213.25 148 200 151.45
L 188.2 155
Q 181.9 157.7 176.45 158.4
L 172.25 158.55
Q 166.2 158.55 161.05 151.95
L 157.05 145.35 135.15 156.5
Q 145.95 172.15 160.55 177.45 167.85 180.1 173 179.65 Z"/>
</g>

<g id="Layer0_0_MEMBER_5_MEMBER_2_FILL">
<path fill="#FFFF00" stroke="none" d="
M 200.8 97.35
Q 189.8 89.5 175.4 85.95 170.9 84.85 166.55 84.3
L 163.15 84 167.6 110.9
Q 178.75 109.75 188.65 114.4 193.6 116.7 196.35 119.25 202.1 123.85 212.3 129.6 220.75 134.15 236.85 134.75 244.9 135.05 251.25 134.45 267.6 131 280.25 117.45 286.55 110.7 289.6 104.6
L 268.5 97.15
Q 260.85 109 249.9 112.7 246.5 113.85 243.15 114.05
L 240.5 114.05
Q 229.25 114.85 213.9 106.2 209.1 103.45 204.45 100.15
L 200.8 97.35 Z"/>
</g>

<g id="Layer0_0_MEMBER_6_FILL">
<path fill="#FFFFFF" stroke="none" d="
M 171.85 80.3
L 171.85 78.6 75.8 78.6 75.8 80.3 171.85 80.3 Z"/>
</g>

<g id="Layer0_0_MEMBER_7_FILL">
<path fill="#FFFFFF" stroke="none" d="
M 177.8 111.05
L 177.8 109.6 82.7 109.6 82.7 111.05 177.8 111.05 Z"/>
</g>

<g id="Layer0_0_MEMBER_8_FILL">
<path fill="#FFFFFF" stroke="none" d="
M 185.75 113.1
L 185.75 111.8 99.75 111.8 99.75 113.1 185.75 113.1 Z"/>
</g>

<g id="Layer0_0_MEMBER_9_FILL">
<path fill="#FFFFFF" stroke="none" d="
M 174.3 122.95
L 174.3 121.25 74.35 121.25 74.35 122.95 174.3 122.95 Z"/>
</g>

<g id="Layer0_0_MEMBER_10_FILL">
<path fill="#FFFFFF" stroke="none" d="
M 71.95 138.9
L 71.95 140.2 160 140.2 160 138.9 71.95 138.9 Z"/>
</g>

<g id="Layer0_0_MEMBER_11_FILL">
<path fill="#FFFFFF" stroke="none" d="
M 163.35 142.2
L 163.35 141.1 108.1 141.1 108.1 142.2 163.35 142.2 Z"/>
</g>

<g id="Layer0_0_MEMBER_12_FILL">
<path fill="#FFFFFF" stroke="none" d="
M 76.95 151.1
L 76.95 152.8 114.4 152.8 114.4 151.1 76.95 151.1 Z"/>
</g>

<g id="Layer0_0_MEMBER_13_FILL">
<path fill="#FFFFFF" stroke="none" d="
M 10.55 173.55
L 10.55 174.85 106.6 174.85 106.6 173.55 10.55 173.55 Z"/>
</g>

<g id="Layer0_0_MEMBER_14_MEMBER_0_FILL">
<path fill="#FFFFFF" stroke="none" d="
M 78.3 204.95
L 76 204.95 74.8 212.85 73.65 204.95 71.15 204.95 73.65 218.8 75.95 218.8 77.15 211.05 78.35 218.8 80.6 218.8 83.15 204.95 80.65 204.95 79.55 212.9 78.3 204.95 Z"/>
</g>

<g id="Layer0_0_MEMBER_14_MEMBER_1_FILL">
<path fill="#FFFFFF" stroke="none" d="
M 94.95 204.95
L 92.45 204.95 91.35 212.9 90.1 204.95 87.8 204.95 86.6 212.85 85.45 204.95 82.95 204.95 85.45 218.8 87.75 218.8 88.95 211.05 90.15 218.8 92.4 218.8 94.95 204.95 Z"/>
</g>

<g id="Layer0_0_MEMBER_14_MEMBER_2_FILL">
<path fill="#FFFFFF" stroke="none" d="
M 106.75 204.95
L 104.25 204.95 103.15 212.9 101.9 204.95 99.6 204.95 98.4 212.85 97.25 204.95 94.75 204.95 97.25 218.8 99.55 218.8 100.75 211.05 101.95 218.8 104.2 218.8 106.75 204.95 Z"/>
</g>

<g id="Layer0_0_MEMBER_14_MEMBER_3_FILL">
<path fill="#FFFFFF" stroke="none" d="
M 109.8 218.8
L 109.8 214.3 107.35 214.3 107.35 218.8 109.8 218.8 Z"/>
</g>

<g id="Layer0_0_MEMBER_14_MEMBER_4_FILL">
<path fill="#FFFFFF" stroke="none" d="
M 114.8 204.65
Q 113 204.65 111.95 206.9 111.1 209 111.1 211.9 111.1 213.5 111.4 214.9 111.85 217.05 112.8 218.15 113.6 219.1 115 219.1 116.7 219.1 117.6 217.65 118.25 216.6 118.6 214.75
L 116.1 214.15
Q 115.7 215.75 115 215.75 113.8 215.75 113.65 213.3
L 118.65 213.3
Q 118.8 204.65 114.8 204.65
M 114.05 208.7
Q 114.45 208 114.9 208 115.95 208 116.15 210.4
L 113.65 210.4
Q 113.75 209.25 114.05 208.7 Z"/>
</g>

<g id="Layer0_0_MEMBER_14_MEMBER_5_FILL">
<path fill="#FFFFFF" stroke="none" d="
M 127 199.65
L 124.45 199.65 124.45 205.85
Q 123.7 204.5 122.55 204.5 121.3 204.5 120.5 206.05 119.5 207.95 119.5 211.65 119.5 214.95 120.3 217 121.2 219.1 122.5 219.1 124.05 219.1 124.65 217.15
L 124.65 218.75 127 218.75 127 199.65
M 123.3 208.25
Q 123.85 208.25 124.2 209.25 124.5 210.25 124.5 211.75 124.5 213.75 124.05 214.65 123.7 215.25 123.25 215.25 122.9 215.25 122.55 214.75 122.05 213.95 122.05 211.8 122.05 208.25 123.3 208.25 Z"/>
</g>

<g id="Layer0_0_MEMBER_14_MEMBER_6_FILL">
<path fill="#FFFFFF" stroke="none" d="
M 135.65 205
L 133.15 205 133.15 211.25
Q 133.15 213.4 132.9 214.15 132.6 215.25 131.95 215.25 131.35 215.25 131.15 214.15 131.05 213.35 131.05 211.9
L 131.05 204.95 128.5 204.95 128.5 213.65
Q 128.5 215.5 128.8 216.75 129 217.7 129.55 218.3 130.1 219 130.9 219 132.5 219 133.25 217.05
L 133.25 218.75 135.65 218.75 135.65 205 Z"/>
</g>

<g id="Layer0_0_MEMBER_14_MEMBER_7_FILL">
<path fill="#FFFFFF" stroke="none" d="
M 148.35 204.95
L 145.85 204.95 144.75 212.9 143.5 204.95 141.2 204.95 140 212.85 138.85 204.95 136.35 204.95 138.85 218.8 141.15 218.8 142.35 211.05 143.55 218.8 145.85 218.8 148.35 204.95 Z"/>
</g>

<g id="Layer0_0_MEMBER_14_MEMBER_8_FILL">
<path fill="#FFFFFF" stroke="none" d="
M 148.6 211.9
Q 148.6 213.5 148.9 214.9 149.25 216.95 150.3 218.15 151.1 219.1 152.5 219.1 154.1 219.1 155.1 217.65 155.75 216.6 156.1 214.75
L 153.6 214.15
Q 153.2 215.75 152.5 215.75 151.3 215.75 151.15 213.3
L 156.15 213.3
Q 156.3 204.65 152.3 204.65 150.5 204.65 149.45 206.9 148.6 209 148.6 211.9
M 153.65 210.4
L 151.15 210.4
Q 151.25 209.45 151.55 208.7 151.95 208 152.4 208 153.5 208 153.65 210.4 Z"/>
</g>

<g id="Layer0_0_MEMBER_14_MEMBER_9_FILL">
<path fill="#FFFFFF" stroke="none" d="
M 161.8 204.5
Q 160.65 204.5 159.9 205.85
L 159.9 199.65 157.35 199.65 157.35 218.75 159.7 218.75 159.7 217.2
Q 160.05 218.1 160.4 218.5 160.95 219.1 161.8 219.1 163.15 219.1 164.05 217.05 164.85 215 164.85 211.65 164.85 208.4 164.05 206.5 163.25 204.5 161.8 204.5
M 161.15 215.25
Q 160.65 215.25 160.45 214.75 159.9 214 159.9 211.8 159.9 208.25 161.15 208.25 162.3 208.25 162.3 211.75 162.3 215.25 161.15 215.25 Z"/>
</g>

<g id="Layer0_0_MEMBER_14_MEMBER_10_FILL">
<path fill="#FFFFFF" stroke="none" d="
M 168.5 218.8
L 168.5 214.3 166 214.3 166 218.8 168.5 218.8 Z"/>
</g>

<g id="Layer0_0_MEMBER_14_MEMBER_11_FILL">
<path fill="#FFFFFF" stroke="none" d="
M 177.3 209.8
Q 176.95 207.25 176.2 206.1 175.35 204.65 173.6 204.65 171.65 204.65 170.6 206.9 169.8 208.8 169.8 211.9 169.8 215.15 170.65 216.9 171.65 219.1 173.7 219.1 175.45 219.1 176.35 217.35 177 216.25 177.4 213.7
L 174.95 213
Q 174.65 215.4 173.65 215.4 172.35 215.4 172.35 211.85 172.35 208.35 173.65 208.35 174.6 208.35 174.9 210.45
L 177.3 209.8 Z"/>
</g>

<g id="Layer0_0_MEMBER_14_MEMBER_12_FILL">
<path fill="#FFFFFF" stroke="none" d="
M 185.1 216.75
Q 186 214.75 186 211.85 186 209 185.1 206.95 184 204.65 182.05 204.65 180.25 204.65 179.1 206.85 178.1 208.95 178.1 211.9 178.1 215 179.15 216.95 180.2 219.1 182.05 219.1 183.95 219.1 185.1 216.75
M 183.45 211.9
Q 183.45 213.6 183.05 214.55 182.65 215.4 182.05 215.4 181.35 215.4 181.05 214.45 180.7 213.55 180.7 211.9 180.7 210.05 181.1 209.2 181.5 208.35 182.05 208.35 182.8 208.35 183.15 209.45 183.45 210.35 183.45 211.9 Z"/>
</g>

<g id="Layer0_0_MEMBER_14_MEMBER_13_FILL">
<path fill="#FFFFFF" stroke="none" d="
M 198.7 210.1
Q 198.7 208.25 198.55 207.4 197.95 204.65 196.15 204.65 194.85 204.65 193.9 206.65 193.25 204.65 191.8 204.65 190.45 204.65 189.6 206.4
L 189.6 204.95 187.2 204.95 187.2 218.8 189.75 218.8 189.85 209.85
Q 190.15 208.45 190.9 208.45 191.4 208.45 191.55 209.35 191.65 209.7 191.65 211.25
L 191.65 218.8 194.2 218.8 194.2 211.9
Q 194.2 208.45 195.3 208.45 196.1 208.45 196.1 210.95
L 196.1 218.8 198.7 218.8 198.7 210.1 Z"/>
</g>

<g id="Layer0_0_MEMBER_14_MEMBER_14_FILL">
<path fill="#FFFFFF" stroke="none" d="
M 202.6 218.8
L 202.6 214.3 200.1 214.3 200.1 218.8 202.6 218.8 Z"/>
</g>

<g id="Layer0_0_MEMBER_14_MEMBER_15_FILL">
<path fill="#FFFFFF" stroke="none" d="
M 207 199.85
L 204.5 202.4 204.5 204.9 203.6 204.9 203.6 208.55 204.5 208.55 204.5 213.7
Q 204.5 216.5 204.8 217.45 205.35 219.1 206.8 219.1 207.3 219.1 208.3 218.6
L 208.5 218.5 208.25 214.85
Q 207.75 215.3 207.4 215.3 207.05 215.3 207.05 214.8
L 207 208.55 208.35 208.55 208.35 204.9 207 204.9 207 199.85 Z"/>
</g>

<g id="Layer0_0_MEMBER_14_MEMBER_16_FILL">
<path fill="#FFFFFF" stroke="none" d="
M 220.65 204.95
L 218.15 204.95 217.05 212.9 215.85 204.95 213.5 204.95 212.3 212.85 211.15 204.95 208.7 204.95 211.2 218.8 213.45 218.8 214.65 211.05 215.85 218.8 218.15 218.8 220.65 204.95 Z"/>
</g>

<g id="Layer0_0_MEMBER_15_MEMBER_0_FILL">
<path fill="#FFFFFF" stroke="none" d="
M 84.5 38.4
L 84.5 17.25 80.25 17.25 80.25 24.9 75.15 24.9 75.15 17.25 71 17.25 71 38.4 75.15 38.4 75.15 29.75 80.25 29.75 80.25 38.4 84.5 38.4 Z"/>
</g>

<g id="Layer0_0_MEMBER_15_MEMBER_1_FILL">
<path fill="#FFFFFF" stroke="none" d="
M 96 17.25
L 91.6 17.25 85.75 38.4 90.1 38.4 91.1 34.35 96.4 34.35 97.45 38.4 101.9 38.4 96 17.25
M 95.3 29.85
L 92.25 29.85 93.8 23.35 95.3 29.85 Z"/>
</g>

<g id="Layer0_0_MEMBER_15_MEMBER_2_FILL">
<path fill="#FFFFFF" stroke="none" d="
M 115.6 23.85
Q 115.6 20.65 114.15 18.9 113.35 17.85 112.2 17.55 111.3 17.25 109.45 17.25
L 103.15 17.25 103.15 38.4 107.35 38.4 107.35 30.7 109.4 30.7
Q 111.95 30.7 113.2 29.85 115.6 28.05 115.6 23.85
M 107.35 21.65
L 108.55 21.65
Q 110.4 21.65 110.85 22.35 111.4 23.05 111.4 24 111.4 25.55 110.3 26.05 109.85 26.3 108.55 26.3
L 107.35 26.3 107.35 21.65 Z"/>
</g>

<g id="Layer0_0_MEMBER_15_MEMBER_3_FILL">
<path fill="#FFFFFF" stroke="none" d="
M 126.85 17.55
Q 125.95 17.25 124.15 17.25
L 117.8 17.25 117.8 38.4 122 38.4 122 30.7 124.05 30.7
Q 126.6 30.7 127.85 29.85 130.25 28.05 130.25 23.85 130.25 20.6 128.85 18.9 127.95 17.85 126.85 17.55
M 122 21.65
L 123.2 21.65
Q 125 21.65 125.55 22.35 126.05 23 126.05 24 126.05 25.55 125 26.05 124.5 26.3 123.2 26.3
L 122 26.3 122 21.65 Z"/>
</g>

<g id="Layer0_0_MEMBER_15_MEMBER_4_FILL">
<path fill="#FFFFFF" stroke="none" d="
M 135.5 17.25
L 130.85 17.25 136.45 29.55 136.45 38.4 140.65 38.4 140.65 29.55 146.35 17.25 141.7 17.25 138.65 24.5 135.5 17.25 Z"/>
</g>

<g id="Layer0_0_MEMBER_15_MEMBER_5_FILL">
<path fill="#FFFFFF" stroke="none" d="
M 166.5 31.7
Q 166.5 28.3 164.45 26.55 163.2 25.5 160.9 24.75 158.7 24 158.55 23.9 157.75 23.4 157.75 22.6 157.75 21.1 159.65 21.1 160.8 21.1 161.45 22.05 161.8 22.75 162 23.85
L 166.05 23.6
Q 165.75 20.65 164.95 19.4 163.45 16.9 159.75 16.9 157.3 16.9 155.7 18.3 153.7 20 153.7 23 153.7 27.9 158.8 29.55 161.05 30.3 161.5 30.6 162.3 31.05 162.3 32.15 162.3 33.15 161.65 33.75 161.1 34.3 160 34.3 157.7 34.3 157.25 30.65
L 153.25 31.05
Q 153.4 34.05 154.2 35.55 155.85 38.7 160.05 38.7 164 38.7 165.55 35.65 166.5 33.95 166.5 31.7 Z"/>
</g>

<g id="Layer0_0_MEMBER_15_MEMBER_6_FILL">
<path fill="#FFFFFF" stroke="none" d="
M 175.6 16.9
Q 172.4 16.9 170.4 19.5 168.15 22.5 168.15 27.85 168.15 32.45 169.8 35.3 171.7 38.7 175.6 38.7 181 38.7 182.35 31.4
L 178.5 29.75
Q 177.75 33.95 175.5 33.95 172.45 33.95 172.45 27.75 172.45 21.6 175.6 21.6 177.55 21.6 178.4 24.8
L 182.3 23.55
Q 180.8 16.9 175.6 16.9 Z"/>
</g>

<g id="Layer0_0_MEMBER_15_MEMBER_7_FILL">
<path fill="#FFFFFF" stroke="none" d="
M 198.05 17.25
L 193.8 17.25 193.8 24.9 188.7 24.9 188.7 17.25 184.5 17.25 184.5 38.4 188.7 38.4 188.7 29.75 193.8 29.75 193.8 38.4 198.05 38.4 198.05 17.25 Z"/>
</g>

<g id="Layer0_0_MEMBER_15_MEMBER_8_FILL">
<path fill="#FFFFFF" stroke="none" d="
M 213.8 20.1
Q 211.8 16.9 207.85 16.9 204.15 16.9 202.1 20 200.2 22.85 200.2 27.85 200.2 32.6 202 35.5 204.05 38.75 207.95 38.75 211.75 38.75 213.8 35.55 215.65 32.65 215.65 27.75 215.65 22.85 213.8 20.1
M 211.35 27.75
Q 211.35 31.15 210.2 32.7 209.3 34 207.9 34 206.5 34 205.6 32.7 204.55 31.05 204.55 27.8 204.55 21.65 207.9 21.65 211.35 21.65 211.35 27.75 Z"/>
</g>

<g id="Layer0_0_MEMBER_15_MEMBER_9_FILL">
<path fill="#FFFFFF" stroke="none" d="
M 230.65 20.1
Q 228.65 16.9 224.7 16.9 221 16.9 218.95 20 217.05 22.95 217.05 27.85 217.05 32.6 218.85 35.5 220.9 38.75 224.8 38.75 228.6 38.75 230.65 35.55 232.5 32.65 232.5 27.75 232.5 22.85 230.65 20.1
M 222.5 32.7
Q 221.4 31.1 221.4 27.8 221.4 21.65 224.75 21.65 228.2 21.65 228.2 27.75 228.2 31.15 227.1 32.7 226.1 34 224.75 34 223.35 34 222.5 32.7 Z"/>
</g>

<g id="Layer0_0_MEMBER_15_MEMBER_10_FILL">
<path fill="#FFFFFF" stroke="none" d="
M 246.05 38.4
L 246.05 33.55 238.75 33.55 238.75 17.25 234.55 17.25 234.55 38.4 246.05 38.4 Z"/>
</g>

<g id="Layer0_0_MEMBER_16_FILL">
<path fill="#FFFFFF" stroke="none" d="
M 35.7 270.9
Q 36.3 275.05 40.25 275.05
L 44.4 275.05 44.4 270.3
Q 43.15 270.3 42.85 268.8
L 40.9 247.15 33.6 247.15 35.7 270.9
M 24.95 247.15
L 17.4 247.15 15.6 268.3
Q 15.55 270.1 14 270.1
L 14 275.2 16.9 275.2
Q 19.5 275.2 21.2 274.05 22.9 272.95 23.05 270.6
L 24.95 247.15
M 42.15 245
L 42.15 239.7 33.4 239.7 33.4 235.5 25.3 235.5 25.3 239.7 15.45 239.7 15.45 245 25.3 245 25.3 277.25 33.4 277.25 33.4 245 42.15 245
M 51.05 244.45
L 49.3 247.45
Q 48.95 248.35 47.85 248.35
L 44.4 248.35 44.4 252.95 51.35 252.95
Q 54.55 252.95 55.95 250.8
L 60.3 244.45 51.05 244.45
M 81.15 277.4
L 81.15 272.55 78.55 272.55
Q 76.5 272.55 75.05 271.25
L 68.75 266.2 81.15 254.55 69.55 254.55 62.4 261.05 54.5 254.75 42.9 254.75 56.6 266.35 53.5 269.15
Q 50.35 271.95 47.55 271.95
L 44.65 271.95 44.65 277 53.35 277
Q 56.75 277 59.5 274.65
L 62.9 271.5 67.8 275.7
Q 70 277.4 73.05 277.4
L 81.15 277.4
M 81.7 252.95
L 81.7 248.35 76.75 248.35
Q 75.65 248.35 75.2 247.4
L 73.85 244.45 64.3 244.45 68.35 250.75
Q 69.85 252.95 72.15 252.95
L 81.7 252.95
M 81.7 242.9
L 81.7 237.35 67.75 237.35 67.75 235.55 57.7 235.55 57.7 237.35 44.1 237.35 44.1 242.9 81.7 242.9 Z"/>
</g>

<g id="Layer0_0_MEMBER_17_FILL">
<path fill="#FFFFFF" stroke="none" d="
M 224.85 247.1
L 211.35 247.1 196.55 256.65 181.15 247.1 167.65 247.1 188.85 261.8 177.5 269.1
Q 174.6 271 170.55 271
L 162.95 271 162.95 277.1 173.75 277.1
Q 180.35 277.1 185.1 273.9
L 195.95 266.65 208.15 275
Q 211.7 277.4 216.55 277.4
L 229.55 277.4 229.55 271.4 223.5 271.4
Q 219.95 271.4 217.35 269.7
L 203.9 261.3 224.85 247.1
M 229.6 244.7
L 229.6 238.85 202.95 238.85 202.95 235.4 190.55 235.4 190.55 238.85 163.1 238.85 163.1 244.7 229.6 244.7 Z"/>
</g>

<g id="Layer0_0_MEMBER_18_FILL">
<path fill="#FFFFFF" stroke="none" d="
M 250.35 235.65
L 245.55 244.7
Q 244.65 246.5 243.1 246.5
L 237 246.5 237 252.9 244.25 252.9 244.25 277.2 254.4 277.2 254.4 248.2 261.25 235.65 250.35 235.65
M 300 239.7
L 289.6 239.7 289.6 250.95
Q 289.6 253.6 287.6 253.6
L 275.8 253.6 275.8 236.45 265.4 236.45 265.4 273.75
Q 265.4 277.25 271.45 277.25
L 303 277.25 303 271.4 277.75 271.4
Q 275.8 271.4 275.8 270.4
L 275.8 259.3 291.35 259.3
Q 295.25 259.3 297.4 257.85 300 256.05 300 253.45
L 300 239.7 Z"/>
</g>

<g id="Layer0_0_MEMBER_19_MEMBER_0_FILL">
<path fill="#FFFFFF" stroke="none" d="
M 24.55 296.4
Q 24.85 296.05 24.85 295.35
L 24.85 293.75
Q 24.85 292.05 22.5 292.05
L 15.7 292.05 15.7 293.95 22.6 293.95 22.6 296.2 16.9 296.2 16.9 297.8 22.6 297.8 22.6 300.15 15.7 300.15 15.7 302.05 22.5 302.05
Q 24.85 302.05 24.85 300.35
L 24.85 298.7
Q 24.85 298.2 24.6 297.7 24.3 297.4 23.6 297.05 24.2 296.85 24.55 296.4 Z"/>
</g>

<g id="Layer0_0_MEMBER_19_MEMBER_1_FILL">
<path fill="#FFFFFF" stroke="none" d="
M 38.7 296.3
L 38.7 293.9 45.7 293.9 45.7 292.05 38.85 292.05
Q 37.5 292.05 37 292.55 36.45 293.05 36.45 294.35
L 36.45 299.6
Q 36.45 301.1 37.1 301.55 37.6 302.05 39.15 302.05
L 43.8 302.05
Q 46.2 302.05 46.2 299.8
L 46.2 298.25
Q 46.2 297.05 45.65 296.65 45.05 296.3 43.6 296.3
L 38.7 296.3
M 43.95 297.8
L 43.95 300.15 38.7 300.15 38.7 297.8 43.95 297.8 Z"/>
</g>

<g id="Layer0_0_MEMBER_19_MEMBER_2_FILL">
<path fill="#FFFFFF" stroke="none" d="
M 66.6 296.65
Q 66.1 296.25 65.05 296.25
L 60.15 296.25 60.15 293.9 66.65 293.9 66.65 292.05 57.9 292.05 57.9 297.75 64.8 297.75 64.8 300.15 57.9 300.15 57.9 302.05 64.9 302.05
Q 65.9 302.05 66.4 301.6 67.05 301.1 67.05 300.15
L 67.05 298.1
Q 67.05 297.1 66.6 296.65 Z"/>
</g>

<g id="Layer0_0_MEMBER_19_MEMBER_3_FILL">
<path fill="#FFFFFF" stroke="none" d="
M 82.5 292.55
L 82.5 295.35 77.45 295.35 77.45 297.15 81.95 297.15 79.85 300.9
Q 79.4 301.35 78.7 301.35
L 77.4 301.35 77.4 303.2 79.8 303.2
Q 81.1 303.2 81.7 301.95
L 83.6 298.6 85.15 301.9
Q 85.85 303.2 87.2 303.2
L 89.85 303.2 89.85 301.35 88.3 301.35
Q 87.65 301.35 87.2 300.9
L 85.2 297.15 89.85 297.15 89.85 295.35 84.7 295.35 84.7 292.55 89.4 292.55 89.4 290.8 77.85 290.8 77.85 292.55 82.5 292.55 Z"/>
</g>

<g id="Layer0_0_MEMBER_19_MEMBER_4_FILL">
<path fill="#FFFFFF" stroke="none" d="
M 106.4 303.05
L 106.4 301.85 104.9 301.85
Q 104.75 301.85 104.75 301.7
L 104.55 301.25 102.55 301.25 103.2 302.6
Q 103.5 303.05 103.9 303.05
L 106.4 303.05
M 110.85 299.55
L 110.3 299.55 110.3 299.25 108.65 299.25 108.65 299.55 101.85 299.55 101.85 300.9 108.65 300.9 108.65 301.45
Q 108.65 302.05 108.3 302.05
L 106.8 302.05 106.8 303.3 108.9 303.3
Q 109.55 303.3 109.9 302.95 110.3 302.45 110.3 301.85
L 110.3 300.95 110.85 300.95 110.85 299.55
M 100.1 290.65
L 99.4 292.8
Q 99.25 293.2 99.05 293.2
L 98.65 293.2 98.65 294.9 99.25 294.9 99.25 303.25 101 303.25 101 293.35 101.55 291.8 101.55 292.45 105.3 292.45 105.3 292.85 101.9 292.85 101.9 297.35 105.3 297.35 105.3 297.8 101.6 297.8 101.6 299.1 109.6 299.1
Q 110.25 299.1 110.65 298.7 111.05 298.25 111.1 297.25
L 110.15 297.25
Q 110.7 297 110.7 296.4
L 110.7 292.85 107.05 292.85 107.05 292.45 110.95 292.45 110.95 291.1 107.05 291.1 107.05 290.7 105.3 290.7 105.3 291.1 101.8 291.1 101.95 290.65 100.1 290.65
M 103.6 294.55
L 103.6 294.05 105.3 294.05 105.3 294.55 103.6 294.55
M 103.6 296.15
L 103.6 295.7 105.3 295.7 105.3 296.15 103.6 296.15
M 108.65 296.15
L 107.05 296.15 107.05 295.7 108.95 295.7 108.95 295.8
Q 108.95 296.15 108.65 296.15
M 107.05 294.55
L 107.05 294.05 108.95 294.05 108.95 294.55 107.05 294.55
M 109.4 297.35
Q 109.25 297.8 108.95 297.8
L 107.05 297.8 107.05 297.35 109.4 297.35 Z"/>
</g>

<g id="Layer0_0_MEMBER_19_MEMBER_5_FILL">
<path fill="#FFFFFF" stroke="none" d="
M 129.95 290.75
L 128.35 290.75 128.35 291.8 127.5 291.8 127.5 293.35 128.3 293.35 127.95 300.9
Q 127.95 301.8 127.6 301.8
L 127.25 301.8 127.25 303.3 128.05 303.3
Q 128.7 303.3 129.1 302.75 129.5 302.25 129.5 301.25
L 129.85 293.35 130.3 293.35 130.3 301.65
Q 130.3 301.9 129.9 301.9
L 129.75 301.9 129.75 303.35 130.45 303.35
Q 131.9 303.35 131.9 302.05
L 131.9 291.8 129.9 291.8 129.95 290.75
M 119.9 291.15
L 119.9 292.5 122.65 292.5 122.65 292.9 119.75 292.9 119.75 294.3 122.65 294.3 122.65 294.7 120 294.7 120 299.9 122.65 299.9 122.65 300.25 119.85 300.25 119.85 301.55 122.65 301.55 122.65 301.95 119.65 301.95 119.65 303.3 127.05 303.3 127.05 301.95 124.3 301.95 124.3 301.55 127.15 301.55 127.15 300.25 124.3 300.25 124.3 299.9 125.8 299.9
Q 127 299.9 127 298.9
L 127 294.7 124.3 294.7 124.3 294.3 127.3 294.3 127.3 292.9 124.3 292.9 124.3 292.5 125.65 292.5
Q 126.45 292.5 126.8 292.15 127.25 291.75 127.3 290.75
L 125.5 290.75
Q 125.35 291.15 124.95 291.15
L 119.9 291.15
M 122.65 296.7
L 121.65 296.7 121.65 296 122.65 296 122.65 296.7
M 124.3 295.95
L 125.35 295.95 125.35 296.7 124.3 296.7 124.3 295.95
M 124.95 298.6
L 124.3 298.6 124.3 297.95 125.35 297.95 125.35 298.25
Q 125.35 298.6 124.95 298.6
M 122.65 298.6
L 121.65 298.6 121.65 297.95 122.65 297.95 122.65 298.6 Z"/>
</g>

<g id="Layer0_0_MEMBER_19_MEMBER_6_FILL">
<path fill="#FFFFFF" stroke="none" d="
M 144.7 290.75
L 143 290.75 143 292.85 142.5 292.85 142.5 291.35 140.9 291.35 140.9 302.4 142.5 302.4 142.5 294.5 143 294.5 143 303.3 144.7 303.3 144.7 294.5 145.3 294.5 145.3 292.85 144.7 292.85 144.7 290.75
M 149.6 290.7
L 147.7 290.7 147.7 291.55 145.85 291.55 145.85 293.1 147.7 293.1 147.7 296.6 145.1 296.6 145.1 298.15 147.35 298.15 146.25 301.25
Q 146.05 301.7 145.6 301.7
L 145 301.7 145 303.25 146.7 303.25
Q 147.35 303.25 147.65 302.3
L 148.6 299.75 149.6 302.3
Q 150.05 303.25 150.95 303.25
L 153.15 303.25 153.15 301.7 152.05 301.7
Q 151.6 301.7 151.3 301.25
L 149.95 298.15 153.35 298.15 153.35 296.6 152.65 296.6 152.65 291.55 149.6 291.55 149.6 290.7
M 149.6 293.1
L 150.75 293.1 150.75 296.6 149.6 296.6 149.6 293.1 Z"/>
</g>

<g id="Layer0_0_MEMBER_19_MEMBER_7_FILL">
<path fill="#FFFFFF" stroke="none" d="
M 164.65 300.5
L 164.2 301.6
Q 164.15 301.8 163.9 301.8
L 162.15 301.8 162.15 303.25 164.55 303.25
Q 165.65 303.25 165.85 302.5
L 166.55 300.5 164.65 300.5
M 174.5 300.05
L 174.5 298.5 169.2 298.5 169.2 298.05 167.25 298.05 167.25 298.5 162 298.5 162 300.05 167.25 300.05 167.25 303.35 169.2 303.35 169.2 300.05 174.5 300.05
M 174.25 303.2
L 174.25 301.8 172.75 301.8
Q 172.5 301.8 172.45 301.6
L 171.95 300.5 170.05 300.5 170.85 302.55
Q 171.05 303.2 172 303.2
L 174.25 303.2
M 170.55 292.8
L 170.45 293.2 170.45 294.5 171.7 294.5 170.55 296.2 170.4 296.7 170.4 297.7 173.2 297.7
Q 174.45 297.7 174.45 296.75
L 174.45 295.55 173.05 295.55 173.05 296.15
Q 173.05 296.3 172.9 296.3
L 172.3 296.3 173.95 294.15 174.1 293.75 174.1 293.1 172.4 293.1 174 290.75 172.05 290.75 170.55 292.8
M 165.85 290.75
L 163.85 290.75 162.25 292.8
Q 162.1 293.05 162.1 293.2
L 162.1 294.5 163.45 294.5 162.2 296.2 162.05 296.7 162.05 297.7 164.75 297.7
Q 166 297.7 166 296.75
L 166 295.55 164.65 295.55 164.65 296.15
Q 164.65 296.3 164.5 296.3
L 163.95 296.3 165.65 294.15
Q 165.85 293.95 165.85 293.75
L 165.85 293.1 164.05 293.1 165.85 290.75
M 168.85 290.65
L 167.1 290.65 166.9 291.35 166.2 291.35 166.2 297.8 169.1 297.8
Q 170.15 297.8 170.15 296.7
L 170.15 291.35 168.6 291.35 168.85 290.65
M 167.65 293.9
L 167.65 292.75 168.65 292.75 168.65 293.9 167.65 293.9
M 168.4 296.5
L 167.65 296.5 167.65 295.25 168.65 295.25 168.65 296.05
Q 168.65 296.5 168.4 296.5 Z"/>
</g>

<g id="Layer0_0_MEMBER_19_MEMBER_8_FILL">
<path fill="#FFFFFF" stroke="none" d="
M 187.25 291.05
L 187.25 291 185.65 291
Q 185.5 291.3 185.25 291.3
L 183.75 291.3 183.75 296.55 183.25 296.55 183.25 298.5 184.1 298.5 184.1 299.55 192.3 299.55 191.65 300.05 183.2 300.05 183.2 301.35 191.4 301.35 191.4 301.75
Q 191.4 302.05 191.15 302.05
L 184.8 302.05 184.8 303.3 192.25 303.3
Q 193.45 303.3 193.45 302.55
L 193.45 301.35 195.65 301.35 195.65 300.05 193.65 300.05 194.8 299.1 194.8 298.45 195.6 298.45 195.6 296.5 195.15 296.5 195.15 291.15 192.35 291.15 192.5 291.05 190.3 291.05 189.5 291.6 188.8 291.05 187.25 291.05
M 187.25 291.6
L 187.25 291.55 188.25 292.4 187.1 293.15 187.1 293.05 185.55 293.05 185.55 292.65 185.9 292.65
Q 187.25 292.65 187.25 291.6
M 185.55 296.5
L 185.55 295.95 187.15 295.95 187.15 294.75 185.55 294.75 185.55 294.25 187.15 294.25 188.35 295.15 186.75 296.25 188.9 296.25 189.45 295.9 190.05 296.3 192.2 296.3 191.65 295.9 193.35 295.9 193.35 296.5 185.55 296.5
M 187.1 294
L 187.1 293.7 188.6 293.7 189.3 293.2 189.9 293.7 191.6 293.7 191.6 294 190.05 294 189.45 294.4 188.85 294 187.1 294
M 191.6 293.3
L 190.5 292.4 191.6 291.7 191.6 292.5 193.35 292.5 193.35 292.95 191.6 292.95 191.6 293.3
M 191.6 295.9
L 190.55 295.15 191.85 294.25 193.35 294.25 193.35 294.75 191.6 294.75 191.6 295.9
M 193.6 297.8
L 193.6 298.3 185.25 298.3 185.25 297.8 193.6 297.8 Z"/>
</g>

<g id="Layer0_0_MEMBER_19_MEMBER_9_FILL">
<path fill="#FFFFFF" stroke="none" d="
M 210.6 290.7
L 210.6 292.25 214.8 292.25 214.8 296.8 216.55 296.8 216.55 290.7 210.6 290.7
M 208.3 296.75
L 209.25 296.75 209 297.45 204.7 297.45 204.7 303.25 214.9 303.25
Q 216.3 303.25 216.3 302.25
L 216.3 297.45 211.1 297.45 211.25 296.95 212.9 296.95
Q 213.55 296.95 213.85 296.45
L 214.75 294.85 212.85 294.85 212.5 295.45
Q 212.35 295.65 212.2 295.65
L 210.65 295.65 210.65 296.75 210 296.75 210 290.7 204.3 290.7 204.3 292.25 208.3 292.25 208.3 296.75
M 214.4 301.1
L 214.4 301.55
Q 214.4 301.85 214 301.85
L 206.5 301.85 206.5 301.1 214.4 301.1
M 214.4 298.85
L 214.4 299.75 206.55 299.75 206.55 298.85 214.4 298.85
M 211.8 293.45
L 210.7 293.45 210.7 294.7 212.5 294.7
Q 213.1 294.7 213.35 294.15
L 214.15 292.65 212.35 292.65 212.05 293.25
Q 212 293.45 211.8 293.45
M 206.1 295.5
Q 206.05 295.65 205.85 295.65
L 204.45 295.65 204.45 297 206.5 297
Q 207.15 297 207.4 296.45
L 208.25 294.9 206.45 294.9 206.1 295.5
M 206.05 292.65
L 205.75 293.2
Q 205.7 293.4 205.45 293.4
L 204.55 293.4 204.55 294.7 206.15 294.7
Q 206.75 294.7 207.05 294.15
L 207.85 292.65 206.05 292.65 Z"/>
</g>

<g id="Layer0_0_MEMBER_19_MEMBER_10_FILL">
<path fill="#FFFFFF" stroke="none" d="
M 233.55 295.3
L 231.65 295.3 232.6 299.55
Q 232.85 300.55 233.7 300.55
L 235.55 300.55 235.55 298.8 234.65 298.8
Q 234.25 298.8 234.2 298.3
L 233.55 295.3
M 227.2 291.7
L 225.55 291.7 225.55 303.2 229.75 303.2
Q 231.1 303.2 231.1 301.95
L 231.1 294.85 232.1 294.85
Q 233.1 294.85 233.3 293.8
L 233.35 293.5 235.9 293.5 235.9 301.2
Q 235.9 301.5 235.5 301.5
L 232.55 301.5 232.55 303.2 236.15 303.2
Q 237.85 303.2 237.85 301.7
L 237.85 291.75 233.7 291.75 233.9 290.75 232.05 290.75 231.7 292.9
Q 231.65 293.35 231.45 293.35
L 231.1 293.35 231.1 291.7 229.25 291.7 229.5 290.8 227.45 290.8 227.2 291.7
M 227.4 296.5
L 227.4 293.4 229.25 293.4 229.25 296.5 227.4 296.5
M 228.8 301.55
L 227.4 301.55 227.4 298.25 229.25 298.25 229.25 301.15
Q 229.25 301.55 228.8 301.55 Z"/>
</g>

<g id="Layer0_0_MEMBER_19_MEMBER_11_FILL">
<path fill="#FFFFFF" stroke="none" d="
M 252.35 290.95
L 252.35 292.6 256.5 292.6 255.8 294.05 253 294.05 253 295.7 255.6 295.7 255.6 297.4 252 297.4 252 299.2 255.65 299.2 255.6 301
Q 255.6 301.65 255.25 301.65
L 252.3 301.65 252.3 303.35 256.4 303.35
Q 257.5 303.35 257.5 302.05
L 257.5 299.2 259.05 299.2 259.05 297.4 257.5 297.4 257.5 294.65 258.85 292.25 258.85 290.95 252.35 290.95
M 251.55 290.8
L 249.8 290.8 249.8 292.25 248.95 292.25 248.95 290.8 247.2 290.8 247.2 292.25 246.5 292.25 246.5 293.95 247.2 293.95 247.2 298.35
Q 247.2 298.65 247.35 298.85
L 248.2 300.35 247.5 301.4 247.1 301.6 246.7 301.6 246.7 303.15 247.95 303.15
Q 248.35 303.15 248.65 302.85
L 249.2 302.1 249.6 302.85
Q 249.85 303.15 250.15 303.15
L 251.55 303.15 251.55 301.6 251 301.6
Q 250.8 301.5 250.7 301.35
L 250.3 300.55 251.4 298.95 251.55 298.5 251.55 294 252.25 294 252.25 292.25 251.55 292.25 251.55 290.8
M 248.95 294
L 249.8 294 249.8 297.85
Q 249.8 298.1 249.65 298.25
L 249.35 298.65 249.1 298.15 248.95 297.7 248.95 294 Z"/>
</g>

<g id="Layer0_0_MEMBER_19_MEMBER_12_FILL">
<path fill="#FFFFFF" stroke="none" d="
M 272.8 291.05
L 272.8 293 272.05 293.1 272.05 294.9 272.8 294.75 272.8 301.5
Q 272.8 303.2 274.55 303.2
L 280.2 303.2 280.2 301.5 275 301.5
Q 274.6 301.5 274.6 301.1
L 274.6 294.5 275.5 294.35 275.5 300.85 277.25 300.85 277.25 294.05 278.2 293.9 278.2 298.7
Q 278.2 299.05 278.05 299.05
L 277.8 299.05 277.8 300.55 278.35 300.55
Q 279.95 300.55 279.95 299
L 279.95 291.95 277.25 292.35 277.25 290.75 275.5 290.75 275.5 292.6 274.55 292.75 274.55 291.05 272.8 291.05
M 270.85 290.75
L 269 290.75 269 292.25 267.75 292.25 267.75 294 269 294 269 301.25 267.65 301.25 267.65 303 272.1 303 272.1 301.25 270.85 301.25 270.85 294 272 294 272 292.25 270.85 292.25 270.85 290.75 Z"/>
</g>

<g id="Layer0_0_MEMBER_19_MEMBER_13_FILL">
<path fill="#FFFFFF" stroke="none" d="
M 288.8 291.8
L 288.8 293.55 290.85 293.55 290.3 300.45
Q 290.2 301.6 289.9 301.6
L 288.8 301.6 288.8 303.3 291.25 303.3
Q 292 303.3 292.15 301.55
L 292.55 296.75 298.85 296.75 298.85 301.1
Q 298.85 301.45 298.4 301.45
L 294.35 301.45 294.35 303.2 299.1 303.2
Q 300.85 303.2 300.85 301.65
L 300.85 295.05 292.7 295.05 292.85 293.55 301.3 293.55 301.3 291.8 296.15 291.8 296.15 290.75 293.9 290.75 293.9 291.8 288.8 291.8 Z"/>
</g>

<g id="Layer0_0_MEMBER_20_FILL">
<path fill="#FFFFFF" stroke="none" d="
M 146.4 277.55
Q 154 277.55 154 274.05
L 154 235.8 90.3 235.8 90.3 277.55 146.4 277.55
M 143.75 263
L 143.75 271.8
Q 143.75 272.8 141.3 272.8
L 100.4 272.8 100.4 240.55 143.75 240.55 143.75 262.65 136.7 262.65
Q 135.8 263.9 134.35 263.9
L 133.85 263.9 133.2 262.65 123.85 262.65 128.6 269.5
Q 130.5 271.7 133.2 271.7
L 141.3 271.7 141.3 267.8 137.85 267.8
Q 136.25 267.8 135.45 266.7
L 136.7 266.7
Q 138.9 266.7 140.6 265.95 142 265.45 143.75 263
M 103.65 261.25
L 107.7 261.25 106.3 265.55
Q 105.7 267.4 104.25 267.4
L 101.6 267.4 101.6 271.55 108.05 271.55
Q 111.8 271.55 113.4 268.6
L 113.9 267.65 113.9 269.9
Q 113.9 272.25 118.65 272.25
L 127.15 272.25 127.15 268.05 123.25 268.05
Q 121.85 268.05 121.85 267.1
L 121.85 263.6 116.15 263.6 117.35 261.25 135.5 261.25
Q 139.95 261.25 139.95 258.65
L 139.95 252.9 103.65 252.9 103.65 261.25
M 112.5 257.8
L 112.5 256.55 131.2 256.55 131.2 257.55
Q 131.2 257.8 130.35 257.8
L 112.5 257.8
M 140.85 246.4
L 140.85 242.65 126.15 242.65 126.15 241.1 117.15 241.1 117.15 242.65 103.2 242.65 103.2 246.5 117.15 246.5 117.15 247.65 102.05 247.65 102.05 251.65 142.25 251.65 142.25 247.65 126.15 247.65 126.15 246.4 140.85 246.4 Z"/>
</g>
</defs>

<g transform="matrix( 0.3018035888671875, 0, 0, 0.3018035888671875, 2.15,2.15) ">
<use xlink:href="#Layer0_0_MEMBER_0_FILL"/>
</g>

<g transform="matrix( 0.3018035888671875, 0, 0, 0.3018035888671875, 2.15,2.15) ">
<use xlink:href="#Layer0_0_MEMBER_1_FILL"/>
</g>

<g transform="matrix( 0.3018035888671875, 0, 0, 0.3018035888671875, 2.15,2.15) ">
<use xlink:href="#Layer0_0_MEMBER_2_FILL"/>
</g>

<g transform="matrix( 0.3018035888671875, 0, 0, 0.3018035888671875, 2.15,2.15) ">
<use xlink:href="#Layer0_0_MEMBER_3_FILL"/>
</g>

<g transform="matrix( 0.3018035888671875, 0, 0, 0.3018035888671875, 2.15,2.15) ">
<use xlink:href="#Layer0_0_MEMBER_4_FILL"/>
</g>

<g transform="matrix( 0.301788330078125, 0, 0, 0.301788330078125, 2.15,2.15) ">
<use xlink:href="#Layer0_0_MEMBER_5_MEMBER_0_FILL"/>
</g>

<g transform="matrix( 0.301788330078125, 0, 0, 0.301788330078125, 2.15,2.15) ">
<use xlink:href="#Layer0_0_MEMBER_5_MEMBER_1_FILL"/>
</g>

<g transform="matrix( 0.301788330078125, 0, 0, 0.301788330078125, 2.15,2.15) ">
<use xlink:href="#Layer0_0_MEMBER_5_MEMBER_2_FILL"/>
</g>

<g transform="matrix( 0.3018035888671875, 0, 0, 0.3018035888671875, 2.15,2.15) ">
<use xlink:href="#Layer0_0_MEMBER_6_FILL"/>
</g>

<g transform="matrix( 0.3018035888671875, 0, 0, 0.3018035888671875, 2.15,2.15) ">
<use xlink:href="#Layer0_0_MEMBER_7_FILL"/>
</g>

<g transform="matrix( 0.3018035888671875, 0, 0, 0.3018035888671875, 2.15,2.15) ">
<use xlink:href="#Layer0_0_MEMBER_8_FILL"/>
</g>

<g transform="matrix( 0.3018035888671875, 0, 0, 0.3018035888671875, 2.15,2.15) ">
<use xlink:href="#Layer0_0_MEMBER_9_FILL"/>
</g>

<g transform="matrix( 0.3018035888671875, 0, 0, 0.3018035888671875, 2.15,2.15) ">
<use xlink:href="#Layer0_0_MEMBER_10_FILL"/>
</g>

<g transform="matrix( 0.3018035888671875, 0, 0, 0.3018035888671875, 2.15,2.15) ">
<use xlink:href="#Layer0_0_MEMBER_11_FILL"/>
</g>

<g transform="matrix( 0.3018035888671875, 0, 0, 0.3018035888671875, 2.15,2.15) ">
<use xlink:href="#Layer0_0_MEMBER_12_FILL"/>
</g>

<g transform="matrix( 0.3018035888671875, 0, 0, 0.3018035888671875, 2.15,2.15) ">
<use xlink:href="#Layer0_0_MEMBER_13_FILL"/>
</g>

<g transform="matrix( 0.301788330078125, 0, 0, 0.301788330078125, 2.15,2.15) ">
<use xlink:href="#Layer0_0_MEMBER_14_MEMBER_0_FILL"/>
</g>

<g transform="matrix( 0.301788330078125, 0, 0, 0.301788330078125, 2.15,2.15) ">
<use xlink:href="#Layer0_0_MEMBER_14_MEMBER_1_FILL"/>
</g>

<g transform="matrix( 0.301788330078125, 0, 0, 0.301788330078125, 2.15,2.15) ">
<use xlink:href="#Layer0_0_MEMBER_14_MEMBER_2_FILL"/>
</g>

<g transform="matrix( 0.301788330078125, 0, 0, 0.301788330078125, 2.15,2.15) ">
<use xlink:href="#Layer0_0_MEMBER_14_MEMBER_3_FILL"/>
</g>

<g transform="matrix( 0.301788330078125, 0, 0, 0.301788330078125, 2.15,2.15) ">
<use xlink:href="#Layer0_0_MEMBER_14_MEMBER_4_FILL"/>
</g>

<g transform="matrix( 0.301788330078125, 0, 0, 0.301788330078125, 2.15,2.15) ">
<use xlink:href="#Layer0_0_MEMBER_14_MEMBER_5_FILL"/>
</g>

<g transform="matrix( 0.301788330078125, 0, 0, 0.301788330078125, 2.15,2.15) ">
<use xlink:href="#Layer0_0_MEMBER_14_MEMBER_6_FILL"/>
</g>

<g transform="matrix( 0.301788330078125, 0, 0, 0.301788330078125, 2.15,2.15) ">
<use xlink:href="#Layer0_0_MEMBER_14_MEMBER_7_FILL"/>
</g>

<g transform="matrix( 0.301788330078125, 0, 0, 0.301788330078125, 2.15,2.15) ">
<use xlink:href="#Layer0_0_MEMBER_14_MEMBER_8_FILL"/>
</g>

<g transform="matrix( 0.301788330078125, 0, 0, 0.301788330078125, 2.15,2.15) ">
<use xlink:href="#Layer0_0_MEMBER_14_MEMBER_9_FILL"/>
</g>

<g transform="matrix( 0.301788330078125, 0, 0, 0.301788330078125, 2.15,2.15) ">
<use xlink:href="#Layer0_0_MEMBER_14_MEMBER_10_FILL"/>
</g>

<g transform="matrix( 0.301788330078125, 0, 0, 0.301788330078125, 2.15,2.15) ">
<use xlink:href="#Layer0_0_MEMBER_14_MEMBER_11_FILL"/>
</g>

<g transform="matrix( 0.301788330078125, 0, 0, 0.301788330078125, 2.15,2.15) ">
<use xlink:href="#Layer0_0_MEMBER_14_MEMBER_12_FILL"/>
</g>

<g transform="matrix( 0.301788330078125, 0, 0, 0.301788330078125, 2.15,2.15) ">
<use xlink:href="#Layer0_0_MEMBER_14_MEMBER_13_FILL"/>
</g>

<g transform="matrix( 0.301788330078125, 0, 0, 0.301788330078125, 2.15,2.15) ">
<use xlink:href="#Layer0_0_MEMBER_14_MEMBER_14_FILL"/>
</g>

<g transform="matrix( 0.301788330078125, 0, 0, 0.301788330078125, 2.15,2.15) ">
<use xlink:href="#Layer0_0_MEMBER_14_MEMBER_15_FILL"/>
</g>

<g transform="matrix( 0.301788330078125, 0, 0, 0.301788330078125, 2.15,2.15) ">
<use xlink:href="#Layer0_0_MEMBER_14_MEMBER_16_FILL"/>
</g>

<g transform="matrix( 0.301788330078125, 0, 0, 0.301788330078125, 2.15,2.15) ">
<use xlink:href="#Layer0_0_MEMBER_15_MEMBER_0_FILL"/>
</g>

<g transform="matrix( 0.301788330078125, 0, 0, 0.301788330078125, 2.15,2.15) ">
<use xlink:href="#Layer0_0_MEMBER_15_MEMBER_1_FILL"/>
</g>

<g transform="matrix( 0.301788330078125, 0, 0, 0.301788330078125, 2.15,2.15) ">
<use xlink:href="#Layer0_0_MEMBER_15_MEMBER_2_FILL"/>
</g>

<g transform="matrix( 0.301788330078125, 0, 0, 0.301788330078125, 2.15,2.15) ">
<use xlink:href="#Layer0_0_MEMBER_15_MEMBER_3_FILL"/>
</g>

<g transform="matrix( 0.301788330078125, 0, 0, 0.301788330078125, 2.15,2.15) ">
<use xlink:href="#Layer0_0_MEMBER_15_MEMBER_4_FILL"/>
</g>

<g transform="matrix( 0.301788330078125, 0, 0, 0.301788330078125, 2.15,2.15) ">
<use xlink:href="#Layer0_0_MEMBER_15_MEMBER_5_FILL"/>
</g>

<g transform="matrix( 0.301788330078125, 0, 0, 0.301788330078125, 2.15,2.15) ">
<use xlink:href="#Layer0_0_MEMBER_15_MEMBER_6_FILL"/>
</g>

<g transform="matrix( 0.301788330078125, 0, 0, 0.301788330078125, 2.15,2.15) ">
<use xlink:href="#Layer0_0_MEMBER_15_MEMBER_7_FILL"/>
</g>

<g transform="matrix( 0.301788330078125, 0, 0, 0.301788330078125, 2.15,2.15) ">
<use xlink:href="#Layer0_0_MEMBER_15_MEMBER_8_FILL"/>
</g>

<g transform="matrix( 0.301788330078125, 0, 0, 0.301788330078125, 2.15,2.15) ">
<use xlink:href="#Layer0_0_MEMBER_15_MEMBER_9_FILL"/>
</g>

<g transform="matrix( 0.301788330078125, 0, 0, 0.301788330078125, 2.15,2.15) ">
<use xlink:href="#Layer0_0_MEMBER_15_MEMBER_10_FILL"/>
</g>

<g transform="matrix( 0.3018035888671875, 0, 0, 0.3018035888671875, 2.15,2.15) ">
<use xlink:href="#Layer0_0_MEMBER_16_FILL"/>
</g>

<g transform="matrix( 0.3018035888671875, 0, 0, 0.3018035888671875, 2.15,2.15) ">
<use xlink:href="#Layer0_0_MEMBER_17_FILL"/>
</g>

<g transform="matrix( 0.3018035888671875, 0, 0, 0.3018035888671875, 2.15,2.15) ">
<use xlink:href="#Layer0_0_MEMBER_18_FILL"/>
</g>

<g transform="matrix( 0.301788330078125, 0, 0, 0.301788330078125, 2.15,2.15) ">
<use xlink:href="#Layer0_0_MEMBER_19_MEMBER_0_FILL"/>
</g>

<g transform="matrix( 0.301788330078125, 0, 0, 0.301788330078125, 2.15,2.15) ">
<use xlink:href="#Layer0_0_MEMBER_19_MEMBER_1_FILL"/>
</g>

<g transform="matrix( 0.301788330078125, 0, 0, 0.301788330078125, 2.15,2.15) ">
<use xlink:href="#Layer0_0_MEMBER_19_MEMBER_2_FILL"/>
</g>

<g transform="matrix( 0.301788330078125, 0, 0, 0.301788330078125, 2.15,2.15) ">
<use xlink:href="#Layer0_0_MEMBER_19_MEMBER_3_FILL"/>
</g>

<g transform="matrix( 0.301788330078125, 0, 0, 0.301788330078125, 2.15,2.15) ">
<use xlink:href="#Layer0_0_MEMBER_19_MEMBER_4_FILL"/>
</g>

<g transform="matrix( 0.301788330078125, 0, 0, 0.301788330078125, 2.15,2.15) ">
<use xlink:href="#Layer0_0_MEMBER_19_MEMBER_5_FILL"/>
</g>

<g transform="matrix( 0.301788330078125, 0, 0, 0.301788330078125, 2.15,2.15) ">
<use xlink:href="#Layer0_0_MEMBER_19_MEMBER_6_FILL"/>
</g>

<g transform="matrix( 0.301788330078125, 0, 0, 0.301788330078125, 2.15,2.15) ">
<use xlink:href="#Layer0_0_MEMBER_19_MEMBER_7_FILL"/>
</g>

<g transform="matrix( 0.301788330078125, 0, 0, 0.301788330078125, 2.15,2.15) ">
<use xlink:href="#Layer0_0_MEMBER_19_MEMBER_8_FILL"/>
</g>

<g transform="matrix( 0.301788330078125, 0, 0, 0.301788330078125, 2.15,2.15) ">
<use xlink:href="#Layer0_0_MEMBER_19_MEMBER_9_FILL"/>
</g>

<g transform="matrix( 0.301788330078125, 0, 0, 0.301788330078125, 2.15,2.15) ">
<use xlink:href="#Layer0_0_MEMBER_19_MEMBER_10_FILL"/>
</g>

<g transform="matrix( 0.301788330078125, 0, 0, 0.301788330078125, 2.15,2.15) ">
<use xlink:href="#Layer0_0_MEMBER_19_MEMBER_11_FILL"/>
</g>

<g transform="matrix( 0.301788330078125, 0, 0, 0.301788330078125, 2.15,2.15) ">
<use xlink:href="#Layer0_0_MEMBER_19_MEMBER_12_FILL"/>
</g>

<g transform="matrix( 0.301788330078125, 0, 0, 0.301788330078125, 2.15,2.15) ">
<use xlink:href="#Layer0_0_MEMBER_19_MEMBER_13_FILL"/>
</g>

<g transform="matrix( 0.3018035888671875, 0, 0, 0.3018035888671875, 2.15,2.15) ">
<use xlink:href="#Layer0_0_MEMBER_20_FILL"/>
</g>
</svg>
