
<svg xmlns="http://www.w3.org/2000/svg" version="1.1" xmlns:xlink="http://www.w3.org/1999/xlink" preserveAspectRatio="none" x="0px" y="0px" width="350px" height="270px" viewBox="0 0 350 270">
<defs>
<g id="flash0_ai____Illustrator_________0_Layer0_0_FILL">
<path fill="#999999" stroke="none" d="
M 47.75 -8.15
Q 27.95 -11.5 0 -11.5 -27.95 -11.5 -47.7 -8.15 -67.5 -4.75 -67.5 0 -67.5 4.8 -47.7 8.15 -28 11.5 0 11.5 28 11.5 47.75 8.15 67.5 4.8 67.5 0 67.5 -4.75 47.75 -8.15 Z"/>
</g>

<g id="______0_Layer1_0_MEMBER_0_MEMBER_0_MEMBER_0_MEMBER_0_FILL">
<path fill="#BD7C18" stroke="none" d="
M 294.75 188.35
Q 297.25 162.25 286.75 133.3 274.65 97.1 248.65 77.7 226.65 64.7 194.6 64.7 168.1 64.7 141.5 77.7 118.5 88.75 104.45 126.3 92.45 158.4 92.95 186.35 93.5 239.5 142.5 259.95 166.4 270.45 191.1 270 258.25 271.95 283.2 230.45 290.75 217.5 293.75 201.4
L 294.75 188.35 Z"/>
</g>

<g id="______0_Layer1_0_MEMBER_1_MEMBER_0_MEMBER_0_MEMBER_0_FILL">
<path fill="#FBEBBB" stroke="none" d="
M 177.4 148.3
Q 188.9 137 188.9 121.25 188.9 105.7 177.4 94.25 166.1 82.9 150.35 82.9 134.8 82.9 123.3 94.25 112 105.7 112 121.25 112 137 123.3 148.3 134.8 159.8 150.35 159.8 166.1 159.8 177.4 148.3 Z"/>
</g>

<g id="______0_Layer1_0_MEMBER_2_MEMBER_0_MEMBER_0_MEMBER_0_FILL">
<path fill="#FFFFFF" stroke="none" d="
M 178.05 143.8
Q 187.6 134.25 187.6 121.25 187.6 108.3 178.05 98.75 169.05 89.2 155.55 89.2 142.55 89.2 133 98.75 123.5 108.25 123.5 121.25 123.5 134.3 133 143.8 142.5 153.3 155.55 153.3 169.05 153.3 178.05 143.8 Z"/>
</g>

<g id="______0_Layer1_0_MEMBER_3_MEMBER_0_MEMBER_0_MEMBER_0_FILL">
<path fill="#FBEBBB" stroke="none" d="
M 237.2 82.9
Q 221.6 82.9 210.2 94.3 198.75 105.7 198.75 121.35 198.75 137 210.2 148.35 221.6 159.8 237.2 159.8 252.9 159.8 264.25 148.35 275.7 136.9 275.7 121.35 275.7 105.75 264.25 94.3 252.85 82.9 237.2 82.9 Z"/>
</g>

<g id="______0_Layer1_0_MEMBER_4_MEMBER_0_MEMBER_0_MEMBER_0_FILL">
<path fill="#FFFFFF" stroke="none" d="
M 232.15 89.2
Q 219.15 89.2 209.6 98.75 200.1 108.25 200.1 121.25 200.1 134.3 209.6 143.8 219.1 153.3 232.15 153.3 245.2 153.3 254.7 143.8 264.2 134.25 264.2 121.25 264.2 108.35 254.7 98.75 245.15 89.2 232.15 89.2 Z"/>
</g>

<g id="______0_Layer1_0_MEMBER_5_MEMBER_0_MEMBER_0_MEMBER_0_FILL">
<path fill="#234DC3" stroke="none" d="
M 294.75 188.35
Q 295.9 175.6 294.05 162.5 282.2 187.5 257.35 200.55 238.25 210.55 218.3 211.9 211.9 206.65 204.6 200.55
L 194.25 191.7 170.25 211.9
Q 150.1 210.55 131.15 200.7 106.75 187.95 94.6 163 92.8 175 92.95 186.35 93.5 239.5 142.5 259.95 166.4 270.45 191.1 270 258.25 271.95 283.2 230.45 290.75 217.5 293.75 201.4
L 294.75 188.35 Z"/>
</g>

<g id="______0_Layer1_0_MEMBER_5_MEMBER_0_MEMBER_0_MEMBER_1_FILL">
<path fill="#FFFFFF" stroke="none" d="
M 195.25 190.85
L 193.25 190.85
Q 143.7 190.85 99.45 167.15 97.35 166.05 94.6 162.85
L 94.3 162.35 94.6 163
Q 106.75 187.95 131.15 200.7 150.1 210.55 170.25 211.9
L 194.25 191.7 204.6 200.55
Q 211.9 206.65 218.3 211.9 238.25 210.55 257.35 200.55 282.2 187.5 294.05 162.5 291.45 165.75 288.9 167 244.8 190.85 195.25 190.85 Z"/>
</g>

<g id="______0_Layer1_0_MEMBER_6_MEMBER_0_MEMBER_0_MEMBER_0_FILL">
<path fill="#F74F51" stroke="none" d="
M 195.75 216.4
L 190.25 215.9 189.75 218.4
Q 183.8 223.4 181.75 234.45 180.75 240.2 179.75 252.95
L 192.75 263.95 206.3 253.95 203.25 225.9 195.75 217.9 195.75 216.4 Z"/>
</g>

<g id="______0_Layer1_0_MEMBER_7_MEMBER_0_MEMBER_0_MEMBER_0_FILL">
<path fill="#F74F51" stroke="none" d="
M 198.75 191.85
L 187.75 191.85 179.25 199.4
Q 176.75 205.3 176.75 206.4 176.75 207.95 179.75 213.4
L 188.75 221.9 195.25 221.9 207.8 211.9
Q 210.8 205.95 208.3 201.4 207.15 199.75 202.75 195.35
L 198.75 191.85 Z"/>
</g>

<g id="______0_Layer1_0_MEMBER_8_MEMBER_0_MEMBER_0_MEMBER_0_FILL">
<path fill="#630008" stroke="none" d="
M 241.65 86.2
Q 230.6 86.2 221.15 91.75 212.15 97.15 208.1 105.75 191.6 98.7 182.6 107.25 178 97.7 169.05 92.25 159.5 85.7 149.05 85.7 137.45 85.25 127 91.75 117 98.15 113 107.75
L 108.95 107.75
Q 107 108.3 106.45 110.75 106 114.8 111.45 115.75
L 111.45 119.25
Q 112 132.85 122 143.3 132 153.85 146.5 154.3 161.55 154.8 173.75 145.15 186.55 134.3 186.1 120.75 186.1 116.9 184.1 110.75 190.55 106.25 196.6 106.25 199.15 106.8 206.6 109.25 204.65 116.25 205.1 119.75 205.1 133.8 216.65 144.3 227.6 154.35 243.15 154.8 259.2 155.35 270.2 145.3 281.75 135.8 281.2 121.25 289.7 121.25 289.25 116.25 288.75 112.25 285.75 111.75
L 279.2 111.75
Q 275.25 100.75 265.2 93.75 254.75 86.75 241.65 86.2
M 219.65 141.3
Q 210.1 132.3 210.1 119.75 209.65 107.7 219.15 99.25 228.1 90.75 242.15 91.2 255.6 91.2 265.7 100.25 275.7 108.75 275.7 121.25 276.25 133.75 266.7 142.3 257.1 150.8 243.15 150.3 229.7 149.85 219.65 141.3
M 171.05 99.75
Q 180.6 108.8 181.05 120.25 181.6 132.3 170.55 141.3 159.5 150.3 146.5 149.8 134.05 149.35 125 140.3 116.45 131.3 116 119.25 115.5 107.75 126 99.25 136 91.2 149.05 91.2 161.55 91.2 171.05 99.75 Z"/>
</g>

<g id="______0_Layer1_0_MEMBER_9_MEMBER_0_MEMBER_0_MEMBER_0_FILL">
<path fill="#FFFFFF" stroke="none" d="
M 195.25 190.85
L 193.25 190.85
Q 143.7 190.85 99.45 167.15 97.35 166.05 94.6 162.85
L 94.3 162.35 94.6 163
Q 106.75 187.95 131.15 200.7 150.1 210.55 170.25 211.9
L 194.25 191.7 204.6 200.55
Q 211.9 206.65 218.3 211.9 238.25 210.55 257.35 200.55 282.2 187.5 294.05 162.5 291.45 165.75 288.9 167 244.8 190.85 195.25 190.85 Z"/>
</g>

<g id="______0_Layer1_0_MEMBER_10_MEMBER_0_MEMBER_0_MEMBER_0_MEMBER_0_FILL">
<path fill="#2047B3" stroke="none" d="
M 196.9 63.3
L 269.1 42.3 199.35 11.4 122.9 40 196.9 63.3 Z"/>
</g>

<g id="______0_Layer1_0_MEMBER_10_MEMBER_1_MEMBER_0_MEMBER_0_MEMBER_0_FILL">
<path fill="#295CEC" stroke="none" d="
M 232.9 70.75
L 234.2 70.75 234.2 43.5
Q 213.35 37 194.2 37 171.6 37 158.15 43.5
L 157.35 70.75 158.15 70.75
Q 193.4 62.15 232.9 70.75 Z"/>
</g>

<g id="______0_Layer1_0_MEMBER_10_MEMBER_2_MEMBER_0_MEMBER_0_MEMBER_0_FILL">
<path fill="#FBCE00" stroke="none" d="
M 266.1 70.3
L 266 70.05
Q 265 67 262.1 67 257.85 67.65 257.85 72.9
L 257 86.65
Q 257 88.55 257.55 89.25 258.1 90.25 258.6 89.25 258.8 89 259.05 88.85 259.45 88.55 260.25 88.5 261.15 88.4 261.35 88.85
L 261.55 89.25
Q 262.5 90.2 263.3 89.25 264.05 88.5 264.9 88.5 265.9 88.5 266.2 88.95 266.95 90 267.75 88.95
L 267.75 88.85 267.85 88.6 267.85 87.65
Q 267.4 82.85 267.4 80.25
L 267.3 78.5
Q 267.05 74.25 266.1 70.3
M 266.85 84.8
L 266.85 85.55 266.75 85.55 266.85 84.8 Z"/>
</g>

<g id="______0_Layer1_0_MEMBER_10_MEMBER_3_MEMBER_0_MEMBER_0_MEMBER_0_FILL">
<path fill="#C79A00" stroke="none" d="
M 261.6 62.75
Q 258.9 62.75 258.9 65.75 258.9 68.35 261.85 68.35 265.15 68.35 264.55 65.35 264.55 62.75 261.6 62.75 Z"/>
</g>

<g id="______0_Layer1_0_MEMBER_10_MEMBER_4_MEMBER_0_MEMBER_0_MEMBER_0_FILL">
<path fill="#FBCE00" stroke="none" d="
M 261.6 55.3
Q 257.65 55.9 257.65 60.8 257.65 63.15 258.9 64.4 260.05 66 261.85 66 263.65 66 264.6 64.4 265.85 62.7 265.85 60.5 265.35 55.3 261.6 55.3 Z"/>
</g>

<g id="______0_Layer1_0_MEMBER_10_MEMBER_5_MEMBER_0_MEMBER_0_MEMBER_0_FILL">
<path fill="#C79A00" stroke="none" d="
M 262.55 39.3
L 259.85 38.1 260.35 56.95
Q 260.35 58 261.85 58 263.1 58 263.1 56.65
L 262.55 39.3 Z"/>
</g>

<g id="______0_Layer1_0_MEMBER_11_MEMBER_0_MEMBER_0_MEMBER_0_MEMBER_0_FILL">
<path fill="#FBCE00" stroke="none" d="
M 176.4 150.65
Q 176.25 151.35 176.4 152.15 178.75 167.35 185.9 174.5 190 178.2 193.1 178.5 203.55 176.2 208.45 163.65
L 211.6 151.65
Q 211.45 151.5 211.45 151.3 211.1 150.55 210.6 148.95 195.1 124.45 176.9 148.95 176.5 150.2 176.4 150.65 Z"/>
</g>

<g id="______0_Layer1_0_MEMBER_11_MEMBER_0_MEMBER_1_MEMBER_0_FILL">
<path fill="#633702" stroke="none" d="
M 183.5 151.3
Q 187.05 150.45 191.85 150.25 203.85 149.7 210.95 153.65 211.8 154.1 212.35 153.2 212.55 152.85 212.4 152.45 212.3 152.1 211.95 151.85 204.35 147.7 191.75 148.25 186.6 148.5 183.05 149.35 180.6 149.9 176.5 151.95
L 175.95 152.25
Q 175.6 152.45 175.45 152.85 175.3 153.25 175.5 153.6 175.8 154.15 176.4 154.15
L 176.85 154.05 177.4 153.75
Q 181.15 151.85 183.5 151.3 Z"/>
</g>

<g id="_____2_0_Layer0_0_MEMBER_0_MEMBER_0_MEMBER_0_FILL">
<path fill="#934D09" stroke="none" d="
M 241.5 157.55
Q 237.05 154.05 234.85 158.8 228.25 172 245.8 181.6 228.6 174.4 238.85 190.15 249.35 199.75 262.6 204.2 286.1 211.9 293.8 197.2
L 294.1 196.7
Q 294.5 194.25 294.55 191.9 294.55 187.4 293.05 184 291.75 181.1 289.5 178.25 287.95 176.25 285.9 174.2 278.6 167.55 266.55 163.15
L 255.75 154.45
Q 247.05 144.45 246.2 162
L 241.5 157.55 Z"/>
</g>

<g id="____0_Layer0_0_MEMBER_0_MEMBER_0_MEMBER_0_FILL">
<path fill="#130B0B" stroke="none" d="
M 242.75 113.65
Q 242.75 106.05 239.25 101.15 235.75 96.15 230.75 96.15 225.2 96.15 221.75 101.15 218.25 106.05 218.25 113.65 218.25 120.7 221.75 126.15 225.75 131.2 230.75 131.2 235.7 131.2 239.25 126.15 242.75 120.7 242.75 113.65 Z"/>
</g>

<g id="____0_Layer0_1_MEMBER_0_MEMBER_0_MEMBER_0_FILL">
<path fill="#130B0B" stroke="none" d="
M 150.35 112.65
Q 150.35 105.05 146.85 100.15 143.35 95.15 138.35 95.15 132.8 95.15 129.3 100.15 125.8 105.15 125.8 112.65 125.8 119.6 129.3 125.15 133.35 130.2 138.35 130.2 143.3 130.2 146.85 125.15 150.35 119.7 150.35 112.65 Z"/>
</g>

<g id="______0_Layer0_0_FILL">
<path fill="#FFFFFF" stroke="none" d="
M 446.95 -61.75
Q 447.85 -57.8 449.15 -54.85 451 -50.3 453.9 -46.4 455.1 -44.9 456.4 -43.45 459.25 -46.15 461.45 -49.9 463.6 -52.8 464.95 -56.1 465.9 -58.7 466.85 -61.75
L 446.95 -61.75
M 287.05 -43.15
L 292.2 -43.15 292.2 -49.1 287.25 -49.1
Q 287.2 -45.75 287.05 -43.15
M 295.75 -43.15
L 300.3 -43.15 300.3 -49.1 295.75 -49.1 295.75 -43.15
M 251.1 -31.1
L 257.6 -31.1 257.6 -38.4 251.1 -38.4 251.1 -31.1
M 267.45 -31.1
L 267.45 -38.4 260.95 -38.4 260.95 -31.1 267.45 -31.1
M 260.55 -55.2
Q 261 -54.05 261.55 -53.2 262.5 -51.7 263.95 -50.4 264.3 -50.05 264.65 -49.8 265.35 -50.35 266.05 -50.85 267.4 -52.25 268.35 -54 268.7 -54.55 269 -55.2
L 260.55 -55.2
M 295.75 -57.8
L 295.75 -52.25 300.3 -52.25 300.3 -57.8 295.75 -57.8
M 287.25 -52.25
L 292.2 -52.25 292.2 -57.8 287.25 -57.8 287.25 -52.25
M 289.65 -66.5
Q 288.55 -64.7 287.5 -63.55 286.7 -62.55 285.15 -60.95
L 293.95 -60.95 297.6 -66.5 289.65 -66.5
M 187 -32.65
L 220.45 -32.65 220.45 -68.3 187 -68.3 187 -32.65
M 212.9 -65.9
Q 213.7 -65.9 213.7 -65.25
L 213.7 -58.95
Q 213.7 -58.4 212.9 -58.4
L 194.5 -58.4
Q 193.75 -58.4 193.75 -58.95
L 193.75 -65.25
Q 193.75 -65.9 194.5 -65.9
L 212.9 -65.9
M 215.5 -55.8
Q 216.3 -55.8 216.3 -55.2
L 216.3 -40.35
Q 216.3 -39.8 215.5 -39.8
L 209.35 -39.8
Q 212.3 -38.8 214.25 -37.9 216.5 -36.9 218.05 -36 218.05 -35.95 217.85 -35.65 216.55 -33.8 216.5 -33.8 214.05 -35.2 211.3 -36.35 209.05 -37.2 207.6 -37.6 207.6 -37.8 209 -39.5 209.196875 -39.7953125 209.35 -39.8
L 198.3 -39.8 200.7 -37.95
Q 201.05 -37.65 201.05 -37.4 201.05 -37.3 200.7 -37.25 200.1 -37.2 199.8 -37.1 198.45 -36.15 196.8 -35.4 194.9 -34.55 191.95 -33.6 191.4 -33.6 191.25 -34 190.35 -34.75 189.65 -35.3 189.4 -35.45 189.4 -35.65 189.4 -35.7 189.6 -35.75 190.95 -36 191.85 -36.4 193.85 -37.05 195.25 -37.85 196.55 -38.6 198 -39.6 198.14765625 -39.796875 198.3 -39.8
L 191.95 -39.8
Q 191.15 -39.8 191.15 -40.35
L 191.15 -55.2
Q 191.15 -55.8 191.95 -55.8
L 215.5 -55.8
M 194.5 -48.9
L 194.5 -46.65 212.9 -46.65 212.9 -48.9 194.5 -48.9
M 194.5 -44.3
L 194.5 -42.1 212.9 -42.1 212.9 -44.3 194.5 -44.3
M 212.9 -51.25
L 212.9 -53.45 194.5 -53.45 194.5 -51.25 212.9 -51.25
M 210.35 -60.75
L 210.35 -63.5 197.1 -63.5 197.1 -60.75 210.35 -60.75
M 240.95 -38.4
L 240.95 -31.1 247.7 -31.1 247.7 -38.4 240.95 -38.4
M 238.6 -66.9
L 238.6 -58
Q 239.9 -58.15 241.25 -58.3 244.9 -58.75 248.3 -59.25
L 248.3 -66.9 238.6 -66.9
M 240.55 -64.1
Q 240.55 -64.55 242.55 -65.45 242.9 -65.45 242.95 -65.25 244.5 -63.65 245.7 -61.75 245.7 -61.05 245.4 -61 243.85 -59.95 242.95 -59.95 241.7 -62.5 240.55 -64.1
M 141.1 -45.75
L 141.1 -49.1 135.15 -49.1 135.15 -45.75 141.1 -45.75
M 150.4 -45.75
L 150.4 -49.1 144.65 -49.1 144.65 -45.75 150.4 -45.75
M 119.9 -49.1
L 114.8 -49.1 114.8 -46.15
Q 117.15 -46.35 119.95 -46.55 120.85 -46.6 121.55 -46.65 120.85 -47.9 119.9 -49.1
M 114.8 -54.8
L 114.8 -51.85 120.5 -51.85 120.5 -54.8 114.8 -54.8
M 120.5 -57.4
L 120.5 -60.55 114.8 -60.55 114.8 -57.4 120.5 -57.4
M 105.9 -54.8
L 105.9 -51.85 111.4 -51.85 111.4 -54.8 105.9 -54.8
M 105.9 -60.55
L 105.9 -57.4 111.4 -57.4 111.4 -60.55 105.9 -60.55
M 95.2 -51.85
L 91.25 -51.85 91.25 -45.95 95.2 -45.95 95.2 -51.85
M 91.25 -59.95
L 91.25 -54.65 95.2 -54.65 95.2 -59.95 91.25 -59.95
M 87.9 -51.85
L 83.9 -51.85 83.9 -45.95 87.9 -45.95 87.9 -51.85
M 83.9 -54.65
L 87.9 -54.65 87.9 -59.95 83.9 -59.95 83.9 -54.65
M 144.65 -55.4
L 144.65 -52.05 150.4 -52.05 150.4 -55.4 144.65 -55.4
M 135.15 -52.05
L 141.1 -52.05 141.1 -55.4 135.15 -55.4 135.15 -52.05 Z"/>
</g>

<g id="______0_Layer0_0_MEMBER_0_FILL">
<path fill="#FFFFFF" stroke="none" d="
M 71 -84.7
Q 59.5 -73.2 59.5 -57
L 59.5 -37.7 59.85 -37.7
Q 61.546484375 -25.103515625 71 -15.65 82.45 -4.15 98.7 -4.15
L 299.3 -4.15 271.15 42.9 378.75 -4.15 459.4 -4.15
Q 475.6 -4.15 487.1 -15.65 496.553515625 -25.103515625 498.2 -37.7
L 498.6 -37.7 498.6 -57
Q 498.6 -73.2 487.1 -84.7 475.6 -96.15 459.4 -96.15
L 98.7 -96.15
Q 82.45 -96.15 71 -84.7
M 79.95 -66.7
Q 79.55 -66.7 79.55 -67.45
L 79.55 -69.05
Q 79.55 -69.6 79.95 -69.6
L 87.9 -69.6 87.9 -72.65
Q 87.9 -73.05 88.45 -73.05 92.05 -73.05 92.05 -72.45 92.05 -71.8 91.65 -71.75 91.25 -71.7 91.25 -70.85
L 91.25 -69.6 98.95 -69.6
Q 99.35 -69.6 99.35 -69.05
L 99.35 -67.45
Q 99.35 -66.7 98.95 -66.7
L 91.25 -66.7 91.25 -63.1 97.75 -63.1
Q 98.55 -63.1 98.55 -62.55
L 98.55 -43.35
Q 98.55 -42.75 97.75 -42.75
L 91.25 -42.75 91.25 -38.8 98.75 -38.8
Q 99.35 -38.8 99.35 -37.95
L 99.35 -36.45
Q 99.35 -35.65 98.75 -35.65
L 91.25 -35.65 91.25 -27.7
Q 91.25 -27.15 90.45 -27.15
L 88.45 -27.15
Q 87.9 -27.15 87.9 -27.7
L 87.9 -35.65 80.2 -35.65
Q 79.55 -35.65 79.55 -36.45
L 79.55 -37.95
Q 79.55 -38.8 80.2 -38.8
L 87.9 -38.8 87.9 -42.75 81.35 -42.75
Q 80.55 -42.75 80.55 -43.35
L 80.55 -62.55
Q 80.55 -63.1 81.35 -63.1
L 87.9 -63.1 87.9 -66.7 79.95 -66.7
M 141.1 -64.5
L 141.1 -67.6
Q 136.65 -67.1 132 -67.1 131.2 -67.1 131 -67.6 130.9 -68.5 130.35 -69.35 130.2 -69.65 130.2 -70.05 137.4 -70.15 141.45 -70.7 146.3 -71.3 150.2 -72.95 150.65 -73.2 151 -73.2 151.3 -73.2 151.55 -72.95 153.95 -70.85 153.95 -70.25 153.95 -69.4 153.35 -69.4
L 152.2 -70.05
Q 151.7 -70.05 151.3 -69.95 148.25 -68.8 144.65 -68.15
L 144.65 -64.5 154.95 -64.5
Q 155.35 -64.5 155.35 -63.95
L 155.35 -62.35
Q 155.35 -61.55 154.95 -61.55
L 144.65 -61.55 144.65 -58.4 153.15 -58.4
Q 153.95 -58.4 153.95 -57.8
L 153.95 -43.35
Q 153.95 -42.75 153.15 -42.75
L 144.65 -42.75 144.65 -39.2 153.55 -39.2
Q 153.95 -39.2 153.95 -38.6
L 153.95 -37
Q 153.95 -36.25 153.55 -36.25
L 144.65 -36.25 144.65 -32.75
Q 147.35 -33.1 150.45 -33.5 153.15 -33.95 154.75 -34.25 154.95 -34.25 154.95 -33.8 154.7 -32.7 154.6 -31.55 154.6 -31.1 154.35 -31.1 152 -30.85 149.35 -30.45 141.1 -29.1 132.4 -27.7 131.9 -26.25 131.4 -26.15 131.15 -26.15 130.85 -26.45
L 129.65 -30.9
Q 132.05 -31.1 141.1 -32.35
L 141.1 -36.25 132 -36.25
Q 131.6 -36.25 131.6 -37
L 131.6 -38.6
Q 131.6 -39.2 132 -39.2
L 141.1 -39.2 141.1 -42.75 132.4 -42.75
Q 131.6 -42.75 131.6 -43.35
L 131.6 -57.8
Q 131.6 -58.4 132.4 -58.4
L 141.1 -58.4 141.1 -61.55 130.6 -61.55
Q 130.2 -61.55 130.2 -62.35
L 130.2 -63.95
Q 130.2 -64.5 130.6 -64.5
L 141.1 -64.5
M 124.65 -70.05
Q 125.05 -70.05 125.05 -69.4
L 125.05 -67.9
Q 125.05 -67.1 124.65 -67.1
L 114.8 -67.1 114.8 -63.3 123.1 -63.3
Q 123.9 -63.3 123.9 -62.75
L 123.9 -49.7
Q 123.9 -49.1 123.1 -49.1 124.05 -47.75 124.7 -46.55 125.7 -44.9 126.45 -42.95 126.45 -42.8 123.7 -42.1 123.5 -43 123 -44.1 121.1 -44 119.15 -43.8 111.5 -43.2 103.5 -42.55 103.1 -41.3 102.7 -41.2 102.45 -41.2 102.2 -41.45
L 101.15 -45.35
Q 103.3 -45.45 111.4 -45.95
L 111.4 -49.1 103.3 -49.1
Q 102.5 -49.1 102.5 -49.7
L 102.5 -62.75
Q 102.5 -63.3 103.3 -63.3
L 111.4 -63.3 111.4 -67.1 102.1 -67.1
Q 101.75 -67.1 101.75 -67.9
L 101.75 -69.4
Q 101.75 -70.05 102.1 -70.05
L 111.4 -70.05 111.4 -72.65
Q 111.4 -73.05 112 -73.05 115.55 -73.05 115.55 -72.45 115.55 -71.8 115.2 -71.75 114.8 -71.7 114.8 -70.85
L 114.8 -70.05 124.65 -70.05
M 156.95 -58.6
Q 156.35 -58.6 156.35 -59.35
L 156.35 -60.95
Q 156.35 -61.75 156.95 -61.75
L 162.35 -61.75
Q 162.5 -64.95 162.5 -68.65 162.5 -69.75 162.25 -72.65 162.25 -73.05 162.85 -73.05
L 166.45 -72.7
Q 167.2 -72.55 167.2 -72.25 167.2 -71.6 166.75 -71.4 165.85 -71.15 165.85 -70.25 165.85 -65.6 165.75 -61.75
L 174.55 -61.75
Q 175.2 -61.75 175.2 -60.95 175.05 -47.5 174.55 -41.6 173.95 -34.6 172.9 -31.2 171.95 -27.5 167.8 -27.5 164.35 -27.5 164.25 -28.45 164 -29.55 162.85 -31.1
L 162.85 -31.45
Q 165.6 -31.3 167.8 -31.3 169.75 -31.3 170.3 -33.85 170.85 -36.05 171.3 -42.05 171.75 -47.05 171.9 -58.6
L 165.7 -58.6
Q 165.5 -52 165.05 -48 164.15 -40.25 162 -34.55 160.6 -30.5 158.5 -27.15
L 157.9 -27.15
Q 156.3 -27.6 154.8 -28.15 154.55 -28.3 154.55 -28.7 157.2 -32.2 158.8 -36.25 160.6 -40.25 161.45 -46.45 162.05 -50.65 162.3 -58.6
L 156.95 -58.6
M 115.75 -42.75
Q 115.75 -42.95 116.55 -42.95
L 120.35 -42.4
Q 120.9 -42.1 120.9 -41.95 120.9 -41.5 120.3 -41.5 119.5 -41.25 119.4 -39.95
L 124.85 -39.95
Q 125.25 -39.95 125.25 -39.4
L 125.25 -37.75
Q 125.25 -37 124.85 -37
L 119.35 -37 119.35 -29.9
Q 119.35 -26.55 114.4 -26.55
L 113 -26.55
Q 112.65 -26.55 112.65 -27.35 112.5 -28.25 111.85 -29.45 111.85 -29.9 112.2 -29.9 113.2 -29.45 114 -29.45 115.95 -29.45 115.95 -31.1
L 115.95 -37 101.9 -37
Q 101.55 -37 101.55 -37.75
L 101.55 -39.4
Q 101.55 -39.95 101.9 -39.95
L 115.95 -39.95
Q 115.9 -41.15 115.85 -41.75 115.75 -42.35 115.75 -42.75
M 105.3 -36
Q 106.75 -34.95 107.75 -33.95 108.85 -32.8 109.65 -31.85 109.65 -31.8 109.4 -31.5 107.95 -29.45 107.85 -29.45 106.65 -31 105.3 -32.25 104.25 -33.2 103.5 -33.6 103.5 -33.9 104.9 -35.7 105.1 -36 105.3 -36
M 235.25 -69.25
Q 235.25 -69.8 235.8 -69.8
L 240 -69.8
Q 241.55 -71.8 242.75 -73.95
L 245.7 -72.25
Q 246.3 -71.85 246.3 -71.45 246.3 -71.3 245.75 -71.3 245.5 -71.25 244 -69.8
L 250.65 -69.8
Q 251.65 -69.8 251.65 -69.05
L 251.65 -59.75
Q 252.2 -59.8 252.7 -59.9 252.85 -59.95 253.05 -59.95 253.45 -59.95 253.45 -59.55 253.45 -57.4 253.25 -57.15 252.45 -57.05 251.65 -56.95
L 251.65 -46
Q 251.65 -44.55 249.8 -43.75 248.1 -43.15 245.3 -42.95 244.75 -42.95 244.7 -43.5 244.6 -44.5 243.55 -46.45 243.55 -46.65 243.9 -46.65 247.1 -46.65 247.65 -47 248.3 -47.3 248.3 -48
L 248.3 -56.45
Q 246.6 -56.25 244.9 -56
L 244.9 -48.65
Q 244.9 -48.1 244.15 -48.1
L 242.55 -48.1
Q 241.75 -48.1 241.75 -48.65
L 241.75 -55.6
Q 240.2 -55.4 238.6 -55.2 238.55 -51.25 237.8 -48.9 237.25 -46.75 235.7 -44.65 234.95 -43.35 233.45 -42.1 233.1 -42.1 232.95 -42.2 232.1 -42.95 231.15 -43.5 230.9 -43.75 230.9 -44.1 232.2 -45.15 233.25 -46.9 234.35 -48.7 234.75 -50.65 235.15 -52.45 235.25 -54.8 234.45 -54.7 233.65 -54.65 233.05 -53.45 232.65 -53.45 232.25 -53.45 230.9 -57.15 232.85 -57.35 235.25 -57.6
L 235.25 -69.25
M 223.2 -71.25
Q 224 -71.25 224 -70.65
L 224 -27.9
Q 224 -27.3 223.2 -27.3
L 221.25 -27.3
Q 220.45 -27.3 220.45 -27.9
L 220.45 -29.65 187 -29.65 187 -27.9
Q 187 -27.3 186.2 -27.3
L 184.25 -27.3
Q 183.45 -27.3 183.45 -27.9
L 183.45 -70.65
Q 183.45 -71.25 184.25 -71.25
L 223.2 -71.25
M 237.4 -40.8
Q 237.4 -41.4 238.2 -41.4
L 270.25 -41.4
Q 271.05 -41.4 271.05 -40.8
L 271.05 -31.1 276 -31.1
Q 276.45 -31.1 276.45 -30.5
L 276.45 -28.9
Q 276.45 -28.1 276 -28.1
L 232.65 -28.1
Q 232.25 -28.1 232.25 -28.9
L 232.25 -30.5
Q 232.25 -31.1 232.65 -31.1
L 237.4 -31.1 237.4 -40.8
M 300.3 -69.4
Q 300.95 -69.4 301.15 -69.25 302.1 -68.5 302.1 -68.1
L 297.7 -60.95 302.9 -60.95
Q 303.9 -60.95 303.9 -60.15
L 303.9 -44.35
Q 303.90625 -44.5109375 304.1 -44.85 305.65 -47.5 306.5 -49.55 307.65 -52.15 308.25 -54.8 308.45 -55.6 308.65 -55.6
L 311.65 -54.4
Q 312.4 -54.05 312.4 -53.65 312.4 -53.15 311.9 -52.9 311.25 -52.9 311.1 -52.15 310.9 -51.5 310.7 -50.8
L 316.15 -50.8 316.15 -55.2
Q 316.15 -55.8 316.95 -55.8 320.75 -55.8 320.75 -55.2 320.75 -54.55 320.2 -54.45 319.7 -54.4 319.7 -53.45
L 319.7 -50.8 327.1 -50.8
Q 327.6 -50.8 327.6 -50.1
L 327.6 -48.45
Q 327.6 -47.7 327.1 -47.7
L 319.7 -47.7 319.7 -40.6 328 -40.6
Q 328.6 -40.6 328.6 -39.8
L 328.6 -38.15
Q 328.6 -37.4 328 -37.4
L 319.7 -37.4 319.7 -27.7
Q 319.7 -27.15 318.9 -27.15
L 316.95 -27.15
Q 316.15 -27.15 316.15 -27.7
L 316.15 -37.4 306.25 -37.4
Q 305.65 -37.4 305.65 -38.15
L 305.65 -39.8
Q 305.65 -40.6 306.25 -40.6
L 316.15 -40.6 316.15 -47.7 309.55 -47.7
Q 308.65 -45.3 307.65 -43.6 307.25 -42.95 307.05 -42.95 306.7 -42.95 306.2 -43.25 305.2 -43.7 304.35 -44.1 303.9 -44.25 303.9 -44.3
L 303.9 -30.5
Q 303.9 -28.6 301.6 -27.6 299.55 -26.8 296.15 -26.55 295.6 -26.55 295.55 -27.1 295.45 -28.15 294.4 -30.3 294.4 -30.5 294.85 -30.5 298.8 -30.5 299.5 -30.95 300.3 -31.35 300.3 -32.4
L 300.3 -39.95 286.75 -39.95
Q 286.7 -39.55 286.65 -39.1 286.3 -35.45 285.2 -31.75 284.55 -29.5 283.5 -27.5 283.15 -27.5 283 -27.6 282.15 -28.4 281.2 -29 280.95 -29.25 280.95 -29.65 281.8 -31.55 282.4 -34.7 283.1 -38 283.4 -41.7 283.7 -45.6 283.7 -51.05
L 283.7 -59.55
Q 283.6 -59.5 283.5 -59.35 283.05 -59.35 282.6 -59.8 281.95 -60.35 281.3 -60.95 280.95 -61.2 280.95 -61.55 282.4 -62.95 283.9 -64.5 285.9 -66.55 287.3 -69.05 288.55 -71.3 289.25 -73.4 289.35 -73.75 289.45 -73.75 293 -71.95 293 -71.6 293 -71.2 292.7 -71.2 292.05 -71.1 291.8 -70.65 291.55 -70.05 291.25 -69.4
L 300.3 -69.4
M 315.9 -68.1
Q 315.5 -66.25 314.85 -64.6 313.9 -62.55 312.4 -60.6 310.9 -58.75 309.05 -57.5 308.65 -57.15 308.45 -57.15 307.8 -57.15 307.5 -57.6 306.6 -58.2 305.8 -58.65 305.45 -58.85 305.45 -59.15 305.45 -59.25 305.6 -59.35 307.1 -60.1 308.1 -60.9 309.55 -62.35 310.7 -64.2 311.7 -65.8 312.35 -67.95 312.4 -68 312.4 -68.1
L 307.05 -68.1
Q 306.45 -68.1 306.45 -68.85
L 306.45 -70.45
Q 306.45 -71.05 307.05 -71.05
L 325.65 -71.05
Q 325.8 -71.05 325.95 -70.9 326.25 -70.35 326.25 -69.25 326.25 -67.15 325.75 -63.95 325.4 -61.25 324.85 -59.9 324.3 -58.3 322.75 -57.85 321.35 -57.4 320.1 -57.4 318.25 -57.4 318.1 -58.25 317.8 -59.45 316.35 -61.1 316.35 -61.55 316.55 -61.55
L 320.75 -61.3
Q 321.4 -61.3 321.7 -61.65 321.95 -61.7 322.1 -62.5 322.4 -63.65 322.55 -66.35 322.65 -67.15 322.75 -68.1
L 315.9 -68.1
M 260.55 -68.5
L 260.55 -67.95
Q 260.55 -65.95 259.95 -64.25 259.4 -62.8 257.9 -61.7 256.9 -60.9 255.2 -60.15 254.65 -60.15 254.35 -60.45 253.8 -61.25 253.15 -61.95 252.85 -62.25 252.85 -62.55 255.95 -63.8 256.85 -65.45 257.45 -66.7 257.45 -68.3
L 257.45 -70.85
Q 257.45 -71.45 258.2 -71.45
L 268.45 -71.45
Q 269.25 -71.45 269.25 -70.85
L 269.25 -64.15
Q 269.25 -63.85 269.55 -63.75 270 -63.5 270.85 -63.5
L 272.2 -63.5
Q 273.25 -63.5 273.55 -64.15 273.95 -65 274.4 -67.4 274.4 -67.65 274.8 -67.65 275 -67.65 275.4 -67.5 276.05 -67.25 276.9 -67 277.55 -66.85 277.55 -66.3 276.9 -63.25 276.1 -61.45 275.55 -60.35 273.6 -60.35
L 269.25 -60.35
Q 267.5 -60.35 266.65 -60.7 266.1 -60.95 266.1 -61.6
L 266.1 -68.5 260.55 -68.5
M 259.75 -50.5
Q 258.6 -52.1 257.5 -55.2
L 255.2 -55.2
Q 254.8 -55.2 254.8 -56
L 254.8 -57.6
Q 254.8 -58.2 255.2 -58.2
L 271.45 -58.2
Q 271.9 -58.2 272.1 -57.95 273 -56.85 273 -56.6 271.8 -53.7 270.8 -52.1 269.5 -50.1 268.15 -48.8 267.75 -48.4 267.4 -48.1 267.45 -48.05 267.55 -48 269.7 -47.05 272.2 -46.5 273.95 -46.1 276 -46.1 276 -45.8 275.65 -45.4 275.15 -44.25 274.75 -43.25 274.65 -42.75 274.4 -42.75 271.85 -43.05 269.95 -43.55 267.75 -44.2 266.1 -45.1 265.15 -45.55 264.4 -46 262.3 -44.85 259.8 -44 258 -43.3 255 -42.75 254.45 -42.75 254.2 -43.15 253.8 -43.9 253.3 -44.7 253.05 -44.95 253.05 -45.15 253.05 -45.3 253.35 -45.35 255.1 -45.65 256.85 -46.05 259.85 -46.9 261.9 -48 260.65 -49.25 259.75 -50.5
M 369.95 -55.2
L 369.95 -68.3
Q 369.95 -68.85 370.75 -68.85 374.5 -68.85 374.5 -68.3 374.5 -67.6 374 -67.5 373.5 -67.45 373.5 -66.5
L 373.5 -49.7
Q 373.5 -49.1 372.75 -49.1
L 370.75 -49.1
Q 369.95 -49.1 369.95 -49.7
L 369.95 -52.05 357.7 -52.05 357.7 -33.6 371.55 -33.6 371.55 -45.75
Q 371.55 -46.25 372.35 -46.25 376.1 -46.25 376.1 -45.75 376.1 -45.05 375.6 -45 375.1 -44.95 375.1 -43.95
L 375.1 -27.9
Q 375.1 -27.3 374.3 -27.3
L 372.35 -27.3
Q 371.55 -27.3 371.55 -27.9
L 371.55 -30.5 339.5 -30.5 339.5 -27.9
Q 339.5 -27.3 338.7 -27.3
L 336.75 -27.3
Q 335.95 -27.3 335.95 -27.9
L 335.95 -45.75
Q 335.95 -46.25 336.75 -46.25 340.5 -46.25 340.5 -45.75 340.5 -45.05 340 -45 339.5 -44.95 339.5 -43.95
L 339.5 -33.6 354.15 -33.6 354.15 -52.05 341.1 -52.05 341.1 -49.7
Q 341.1 -49.1 340.3 -49.1
L 338.3 -49.1
Q 337.5 -49.1 337.5 -49.7
L 337.5 -68.5
Q 337.5 -69.05 338.3 -69.05 342.05 -69.05 342.05 -68.5 342.05 -67.8 341.55 -67.7 341.1 -67.65 341.1 -66.7
L 341.1 -55.2 354.15 -55.2 354.15 -72.45
Q 354.15 -73.05 354.95 -73.05 358.75 -73.05 358.75 -72.45 358.75 -71.75 358.2 -71.65 357.7 -71.6 357.7 -70.65
L 357.7 -55.2 369.95 -55.2
M 404.8 -68.5
L 404.8 -72.25
Q 404.8 -72.85 405.6 -72.85 409.4 -72.85 409.4 -72.25 409.4 -71.55 408.85 -71.45 408.35 -71.4 408.35 -70.45
L 408.35 -68.5 426.55 -68.5
Q 427.35 -68.5 427.35 -67.9
L 427.35 -58.2
Q 427.35 -57.6 426.55 -57.6
L 424.55 -57.6
Q 423.8 -57.6 423.8 -58.2
L 423.8 -65.25 388.55 -65.25 388.55 -58
Q 388.55 -57.4 387.75 -57.4
L 385.8 -57.4
Q 385 -57.4 385 -58
L 385 -67.65
Q 385 -68.5 385.8 -68.5
L 404.8 -68.5
M 391.1 -59.95
Q 391.1 -60.35 391.75 -60.35 395.5 -59.55 395.5 -59.15 395.5 -58.65 394.9 -58.4 394.2 -58.1 394.15 -57.7 393.6 -54.35 392.7 -52.2 392.15 -51 391.4 -49.8 391.15 -49.5 390.95 -49.5 389.25 -50 388 -50.2 387.6 -50.3 387.6 -50.6 388.8 -52.3 389.65 -54.25 390.6 -56.2 391.1 -59.95
M 398.85 -61.1
L 402.2 -60.7
Q 402.8 -60.6 402.8 -60.35 402.8 -59.85 402.45 -59.75 402 -59.7 402 -59.15
L 402 -50.4
Q 405.3 -51.95 408.75 -54.05 412.05 -56.1 414.3 -58.05 416.2 -59.5 417.9 -61.35 418.2 -61.75 418.45 -61.75 418.7 -61.75 419.35 -61.45 422.05 -59.05 422.05 -58.8 422.05 -58.2 421.4 -58.2
L 420.6 -58.4
Q 420.05 -58.4 419.5 -57.9 414.7 -54.3 412 -52.35 409.15 -50.55 405.6 -48.7 404.6 -48.25 403.6 -47.8 404.1 -47.7 404.8 -47.7
L 412.3 -47.7
Q 415.6 -47.7 416.25 -48.4 417.05 -49.05 418.25 -53 418.9 -52 420.35 -51.15 421 -50.85 421 -50.45 419.35 -45.85 418.55 -45.4 417.65 -44.3 414.85 -44.3
L 404.4 -44.3
Q 400.3 -44.3 399.05 -46 398.6 -45.9 398.25 -45.8 393.15 -44.05 386.2 -42.55 385.25 -42.55 385.1 -42.9 384.55 -43.85 383.35 -44.75 383.05 -45.05 383.05 -45.35 383.05 -45.6 383.55 -45.6 387.2 -45.95 388.55 -46.2 391.6 -46.75 394.65 -47.65 396.7 -48.25 398.45 -48.95
L 398.45 -60.55
Q 398.45 -61.1 398.85 -61.1
M 388.55 -39.95
Q 388.55 -40.6 389.35 -40.6 393.1 -40.6 393.1 -39.95 393.1 -39.3 392.6 -39.25 392.15 -39.15 392.15 -38.15
L 392.15 -33.05 404.6 -33.05 404.6 -41.55
Q 404.6 -42.1 405.4 -42.1 409.15 -42.1 409.15 -41.55 409.15 -40.9 408.65 -40.85 408.15 -40.8 408.15 -39.8
L 408.15 -33.05 420.2 -33.05 420.2 -39.95
Q 420.2 -40.6 421 -40.6 424.75 -40.6 424.75 -39.95 424.75 -39.3 424.25 -39.25 423.8 -39.15 423.8 -38.15
L 423.8 -27.5
Q 423.8 -26.95 423 -26.95
L 421 -26.95
Q 420.2 -26.95 420.2 -27.5
L 420.2 -29.9 392.15 -29.9 392.15 -27.5
Q 392.15 -26.95 391.35 -26.95
L 389.35 -26.95
Q 388.55 -26.95 388.55 -27.5
L 388.55 -39.95
M 455.65 -72.65
Q 455.65 -73.2 456.4 -73.2 460.4 -73.2 460.4 -72.65 460.4 -71.95 459.9 -71.85 459.4 -71.8 459.4 -70.85
L 459.4 -65.1 478.6 -65.1
Q 479.15 -65.1 479.15 -64.5
L 479.15 -62.55
Q 479.15 -61.75 478.6 -61.75
L 470.35 -61.75
Q 469.5 -58.5 468.4 -55.4 466.85 -50.75 464.45 -47.3 462.4 -44.1 459.35 -40.85 459.5 -40.7 459.65 -40.6 462.8 -37.75 467.8 -35.5 472.25 -33.15 479.35 -31.4 480.15 -31.15 480.15 -30.9 480.15 -30.5 479.9 -30.25 478.85 -29.35 477.85 -28.2 477.45 -27.7 477.2 -27.7 476.95 -27.7 475.7 -28.25 472.4 -29.35 468.4 -31 463.65 -33.2 459.65 -35.95 458.15 -37.1 456.8 -38.3 454.45 -36.1 451.8 -34.45 447.75 -31.8 443.95 -30.25 440.45 -28.8 436.45 -27.7 436 -27.7 435.65 -28.05 434.8 -29.25 433.8 -30.3 433.5 -30.65 433.5 -30.9 433.5 -31.15 433.95 -31.4 438.45 -32.35 442.05 -33.65 445.65 -35.2 448.5 -37 451.45 -38.75 453.9 -41 453.1 -41.75 452.45 -42.6 449 -46.4 447.4 -50.5 445.05 -54.85 443.25 -61.75
L 435.05 -61.75
Q 434.45 -61.75 434.45 -62.55
L 434.45 -64.5
Q 434.45 -65.1 435.05 -65.1
L 455.65 -65.1 455.65 -72.65
M 405.95 -62.8
Q 406.2 -63.1 406.35 -63.1 408.7 -62.2 410.2 -61.35 411.9 -60.35 413.1 -59.55
L 412.85 -59.2
Q 411.35 -57.15 411.3 -57.15 409.5 -58.5 407.4 -59.55 405.75 -60.4 404.6 -60.75 404.6 -61 405.95 -62.8
M 424.05 -50.55
Q 422.85 -53.1 420.8 -55.6 420.8 -55.9 423.4 -57.15 425.4 -54.5 426.7 -52.25 427.9 -50.25 428.7 -47.9 428.7 -47.7 425.55 -46.9 425.2 -48.4 424.05 -50.55 Z"/>
</g>

<g id="______0_Layer0_0_MEMBER_0_MEMBER_0_FILL">
<path fill="#FFFFFF" stroke="none" d="
M 76.6 -76.6
L 76.6 -22.75 220.15 -22.75 220.15 -76.6 76.6 -76.6 Z"/>
</g>

<g id="______0_Layer0_0_MEMBER_0_MEMBER_1_FILL">
<path fill="#FFFFFF" stroke="none" d="
M 203.4 -76.6
L 203.4 -23.05 454.3 -23.05 454.3 -76.6 203.4 -76.6 Z"/>
</g>

<g id="______0_Layer0_0_MEMBER_0_MEMBER_2_FILL">
<path fill="#FFFFFF" stroke="none" d="
M 482.6 -76.6
L 448.85 -76.6 448.85 -22.4 482.6 -22.4 482.6 -76.6 Z"/>
</g>

<g id="______0_Layer0_1_FILL">
<path fill="#234DC3" stroke="none" d="
M 420.8 -55.6
Q 422.85 -53.1 424.05 -50.55 425.2 -48.4 425.55 -46.9 428.7 -47.7 428.7 -47.9 427.9 -50.25 426.7 -52.25 425.4 -54.5 423.4 -57.15 420.8 -55.9 420.8 -55.6
M 406.35 -63.1
Q 406.2 -63.1 405.95 -62.8 404.6 -61 404.6 -60.75 405.75 -60.4 407.4 -59.55 409.5 -58.5 411.3 -57.15 411.35 -57.15 412.85 -59.2
L 413.1 -59.55
Q 411.9 -60.35 410.2 -61.35 408.7 -62.2 406.35 -63.1
M 456.4 -73.2
Q 455.65 -73.2 455.65 -72.65
L 455.65 -65.1 435.05 -65.1
Q 434.45 -65.1 434.45 -64.5
L 434.45 -62.55
Q 434.45 -61.75 435.05 -61.75
L 443.25 -61.75
Q 445.05 -54.85 447.4 -50.5 449 -46.4 452.45 -42.6 453.1 -41.75 453.9 -41 451.45 -38.75 448.5 -37 445.65 -35.2 442.05 -33.65 438.45 -32.35 433.95 -31.4 433.5 -31.15 433.5 -30.9 433.5 -30.65 433.8 -30.3 434.8 -29.25 435.65 -28.05 436 -27.7 436.45 -27.7 440.45 -28.8 443.95 -30.25 447.75 -31.8 451.8 -34.45 454.45 -36.1 456.8 -38.3 458.15 -37.1 459.65 -35.95 463.65 -33.2 468.4 -31 472.4 -29.35 475.7 -28.25 476.95 -27.7 477.2 -27.7 477.45 -27.7 477.85 -28.2 478.85 -29.35 479.9 -30.25 480.15 -30.5 480.15 -30.9 480.15 -31.15 479.35 -31.4 472.25 -33.15 467.8 -35.5 462.8 -37.75 459.65 -40.6 459.5 -40.7 459.35 -40.85 462.4 -44.1 464.45 -47.3 466.85 -50.75 468.4 -55.4 469.5 -58.5 470.35 -61.75
L 478.6 -61.75
Q 479.15 -61.75 479.15 -62.55
L 479.15 -64.5
Q 479.15 -65.1 478.6 -65.1
L 459.4 -65.1 459.4 -70.85
Q 459.4 -71.8 459.9 -71.85 460.4 -71.95 460.4 -72.65 460.4 -73.2 456.4 -73.2
M 464.95 -56.1
Q 463.6 -52.8 461.45 -49.9 459.25 -46.15 456.4 -43.45 455.1 -44.9 453.9 -46.4 451 -50.3 449.15 -54.85 447.85 -57.8 446.95 -61.75
L 466.85 -61.75
Q 465.9 -58.7 464.95 -56.1
M 389.35 -40.6
Q 388.55 -40.6 388.55 -39.95
L 388.55 -27.5
Q 388.55 -26.95 389.35 -26.95
L 391.35 -26.95
Q 392.15 -26.95 392.15 -27.5
L 392.15 -29.9 420.2 -29.9 420.2 -27.5
Q 420.2 -26.95 421 -26.95
L 423 -26.95
Q 423.8 -26.95 423.8 -27.5
L 423.8 -38.15
Q 423.8 -39.15 424.25 -39.25 424.75 -39.3 424.75 -39.95 424.75 -40.6 421 -40.6 420.2 -40.6 420.2 -39.95
L 420.2 -33.05 408.15 -33.05 408.15 -39.8
Q 408.15 -40.8 408.65 -40.85 409.15 -40.9 409.15 -41.55 409.15 -42.1 405.4 -42.1 404.6 -42.1 404.6 -41.55
L 404.6 -33.05 392.15 -33.05 392.15 -38.15
Q 392.15 -39.15 392.6 -39.25 393.1 -39.3 393.1 -39.95 393.1 -40.6 389.35 -40.6
M 402.2 -60.7
L 398.85 -61.1
Q 398.45 -61.1 398.45 -60.55
L 398.45 -48.95
Q 396.7 -48.25 394.65 -47.65 391.6 -46.75 388.55 -46.2 387.2 -45.95 383.55 -45.6 383.05 -45.6 383.05 -45.35 383.05 -45.05 383.35 -44.75 384.55 -43.85 385.1 -42.9 385.25 -42.55 386.2 -42.55 393.15 -44.05 398.25 -45.8 398.6 -45.9 399.05 -46 400.3 -44.3 404.4 -44.3
L 414.85 -44.3
Q 417.65 -44.3 418.55 -45.4 419.35 -45.85 421 -50.45 421 -50.85 420.35 -51.15 418.9 -52 418.25 -53 417.05 -49.05 416.25 -48.4 415.6 -47.7 412.3 -47.7
L 404.8 -47.7
Q 404.1 -47.7 403.6 -47.8 404.6 -48.25 405.6 -48.7 409.15 -50.55 412 -52.35 414.7 -54.3 419.5 -57.9 420.05 -58.4 420.6 -58.4
L 421.4 -58.2
Q 422.05 -58.2 422.05 -58.8 422.05 -59.05 419.35 -61.45 418.7 -61.75 418.45 -61.75 418.2 -61.75 417.9 -61.35 416.2 -59.5 414.3 -58.05 412.05 -56.1 408.75 -54.05 405.3 -51.95 402 -50.4
L 402 -59.15
Q 402 -59.7 402.45 -59.75 402.8 -59.85 402.8 -60.35 402.8 -60.6 402.2 -60.7
M 391.75 -60.35
Q 391.1 -60.35 391.1 -59.95 390.6 -56.2 389.65 -54.25 388.8 -52.3 387.6 -50.6 387.6 -50.3 388 -50.2 389.25 -50 390.95 -49.5 391.15 -49.5 391.4 -49.8 392.15 -51 392.7 -52.2 393.6 -54.35 394.15 -57.7 394.2 -58.1 394.9 -58.4 395.5 -58.65 395.5 -59.15 395.5 -59.55 391.75 -60.35
M 404.8 -72.25
L 404.8 -68.5 385.8 -68.5
Q 385 -68.5 385 -67.65
L 385 -58
Q 385 -57.4 385.8 -57.4
L 387.75 -57.4
Q 388.55 -57.4 388.55 -58
L 388.55 -65.25 423.8 -65.25 423.8 -58.2
Q 423.8 -57.6 424.55 -57.6
L 426.55 -57.6
Q 427.35 -57.6 427.35 -58.2
L 427.35 -67.9
Q 427.35 -68.5 426.55 -68.5
L 408.35 -68.5 408.35 -70.45
Q 408.35 -71.4 408.85 -71.45 409.4 -71.55 409.4 -72.25 409.4 -72.85 405.6 -72.85 404.8 -72.85 404.8 -72.25
M 369.95 -68.3
L 369.95 -55.2 357.7 -55.2 357.7 -70.65
Q 357.7 -71.6 358.2 -71.65 358.75 -71.75 358.75 -72.45 358.75 -73.05 354.95 -73.05 354.15 -73.05 354.15 -72.45
L 354.15 -55.2 341.1 -55.2 341.1 -66.7
Q 341.1 -67.65 341.55 -67.7 342.05 -67.8 342.05 -68.5 342.05 -69.05 338.3 -69.05 337.5 -69.05 337.5 -68.5
L 337.5 -49.7
Q 337.5 -49.1 338.3 -49.1
L 340.3 -49.1
Q 341.1 -49.1 341.1 -49.7
L 341.1 -52.05 354.15 -52.05 354.15 -33.6 339.5 -33.6 339.5 -43.95
Q 339.5 -44.95 340 -45 340.5 -45.05 340.5 -45.75 340.5 -46.25 336.75 -46.25 335.95 -46.25 335.95 -45.75
L 335.95 -27.9
Q 335.95 -27.3 336.75 -27.3
L 338.7 -27.3
Q 339.5 -27.3 339.5 -27.9
L 339.5 -30.5 371.55 -30.5 371.55 -27.9
Q 371.55 -27.3 372.35 -27.3
L 374.3 -27.3
Q 375.1 -27.3 375.1 -27.9
L 375.1 -43.95
Q 375.1 -44.95 375.6 -45 376.1 -45.05 376.1 -45.75 376.1 -46.25 372.35 -46.25 371.55 -46.25 371.55 -45.75
L 371.55 -33.6 357.7 -33.6 357.7 -52.05 369.95 -52.05 369.95 -49.7
Q 369.95 -49.1 370.75 -49.1
L 372.75 -49.1
Q 373.5 -49.1 373.5 -49.7
L 373.5 -66.5
Q 373.5 -67.45 374 -67.5 374.5 -67.6 374.5 -68.3 374.5 -68.85 370.75 -68.85 369.95 -68.85 369.95 -68.3
M 254.8 -57.6
L 254.8 -56
Q 254.8 -55.2 255.2 -55.2
L 257.5 -55.2
Q 258.6 -52.1 259.75 -50.5 260.65 -49.25 261.9 -48 259.85 -46.9 256.85 -46.05 255.1 -45.65 253.35 -45.35 253.05 -45.3 253.05 -45.15 253.05 -44.95 253.3 -44.7 253.8 -43.9 254.2 -43.15 254.45 -42.75 255 -42.75 258 -43.3 259.8 -44 262.3 -44.85 264.4 -46 265.15 -45.55 266.1 -45.1 267.75 -44.2 269.95 -43.55 271.85 -43.05 274.4 -42.75 274.65 -42.75 274.75 -43.25 275.15 -44.25 275.65 -45.4 276 -45.8 276 -46.1 273.95 -46.1 272.2 -46.5 269.7 -47.05 267.55 -48 267.45 -48.05 267.4 -48.1 267.75 -48.4 268.15 -48.8 269.5 -50.1 270.8 -52.1 271.8 -53.7 273 -56.6 273 -56.85 272.1 -57.95 271.9 -58.2 271.45 -58.2
L 255.2 -58.2
Q 254.8 -58.2 254.8 -57.6
M 261.55 -53.2
Q 261 -54.05 260.55 -55.2
L 269 -55.2
Q 268.7 -54.55 268.35 -54 267.4 -52.25 266.05 -50.85 265.35 -50.35 264.65 -49.8 264.3 -50.05 263.95 -50.4 262.5 -51.7 261.55 -53.2
M 260.55 -67.95
L 260.55 -68.5 266.1 -68.5 266.1 -61.6
Q 266.1 -60.95 266.65 -60.7 267.5 -60.35 269.25 -60.35
L 273.6 -60.35
Q 275.55 -60.35 276.1 -61.45 276.9 -63.25 277.55 -66.3 277.55 -66.85 276.9 -67 276.05 -67.25 275.4 -67.5 275 -67.65 274.8 -67.65 274.4 -67.65 274.4 -67.4 273.95 -65 273.55 -64.15 273.25 -63.5 272.2 -63.5
L 270.85 -63.5
Q 270 -63.5 269.55 -63.75 269.25 -63.85 269.25 -64.15
L 269.25 -70.85
Q 269.25 -71.45 268.45 -71.45
L 258.2 -71.45
Q 257.45 -71.45 257.45 -70.85
L 257.45 -68.3
Q 257.45 -66.7 256.85 -65.45 255.95 -63.8 252.85 -62.55 252.85 -62.25 253.15 -61.95 253.8 -61.25 254.35 -60.45 254.65 -60.15 255.2 -60.15 256.9 -60.9 257.9 -61.7 259.4 -62.8 259.95 -64.25 260.55 -65.95 260.55 -67.95
M 314.85 -64.6
Q 315.5 -66.25 315.9 -68.1
L 322.75 -68.1
Q 322.65 -67.15 322.55 -66.35 322.4 -63.65 322.1 -62.5 321.95 -61.7 321.7 -61.65 321.4 -61.3 320.75 -61.3
L 316.55 -61.55
Q 316.35 -61.55 316.35 -61.1 317.8 -59.45 318.1 -58.25 318.25 -57.4 320.1 -57.4 321.35 -57.4 322.75 -57.85 324.3 -58.3 324.85 -59.9 325.4 -61.25 325.75 -63.95 326.25 -67.15 326.25 -69.25 326.25 -70.35 325.95 -70.9 325.8 -71.05 325.65 -71.05
L 307.05 -71.05
Q 306.45 -71.05 306.45 -70.45
L 306.45 -68.85
Q 306.45 -68.1 307.05 -68.1
L 312.4 -68.1
Q 312.4 -68 312.35 -67.95 311.7 -65.8 310.7 -64.2 309.55 -62.35 308.1 -60.9 307.1 -60.1 305.6 -59.35 305.45 -59.25 305.45 -59.15 305.45 -58.85 305.8 -58.65 306.6 -58.2 307.5 -57.6 307.8 -57.15 308.45 -57.15 308.65 -57.15 309.05 -57.5 310.9 -58.75 312.4 -60.6 313.9 -62.55 314.85 -64.6
M 301.15 -69.25
Q 300.95 -69.4 300.3 -69.4
L 291.25 -69.4
Q 291.55 -70.05 291.8 -70.65 292.05 -71.1 292.7 -71.2 293 -71.2 293 -71.6 293 -71.95 289.45 -73.75 289.35 -73.75 289.25 -73.4 288.55 -71.3 287.3 -69.05 285.9 -66.55 283.9 -64.5 282.4 -62.95 280.95 -61.55 280.95 -61.2 281.3 -60.95 281.95 -60.35 282.6 -59.8 283.05 -59.35 283.5 -59.35 283.6 -59.5 283.7 -59.55
L 283.7 -51.05
Q 283.7 -45.6 283.4 -41.7 283.1 -38 282.4 -34.7 281.8 -31.55 280.95 -29.65 280.95 -29.25 281.2 -29 282.15 -28.4 283 -27.6 283.15 -27.5 283.5 -27.5 284.55 -29.5 285.2 -31.75 286.3 -35.45 286.65 -39.1 286.7 -39.55 286.75 -39.95
L 300.3 -39.95 300.3 -32.4
Q 300.3 -31.35 299.5 -30.95 298.8 -30.5 294.85 -30.5 294.4 -30.5 294.4 -30.3 295.45 -28.15 295.55 -27.1 295.6 -26.55 296.15 -26.55 299.55 -26.8 301.6 -27.6 303.9 -28.6 303.9 -30.5
L 303.9 -44.3
Q 303.9 -44.25 304.35 -44.1 305.2 -43.7 306.2 -43.25 306.7 -42.95 307.05 -42.95 307.25 -42.95 307.65 -43.6 308.65 -45.3 309.55 -47.7
L 316.15 -47.7 316.15 -40.6 306.25 -40.6
Q 305.65 -40.6 305.65 -39.8
L 305.65 -38.15
Q 305.65 -37.4 306.25 -37.4
L 316.15 -37.4 316.15 -27.7
Q 316.15 -27.15 316.95 -27.15
L 318.9 -27.15
Q 319.7 -27.15 319.7 -27.7
L 319.7 -37.4 328 -37.4
Q 328.6 -37.4 328.6 -38.15
L 328.6 -39.8
Q 328.6 -40.6 328 -40.6
L 319.7 -40.6 319.7 -47.7 327.1 -47.7
Q 327.6 -47.7 327.6 -48.45
L 327.6 -50.1
Q 327.6 -50.8 327.1 -50.8
L 319.7 -50.8 319.7 -53.45
Q 319.7 -54.4 320.2 -54.45 320.75 -54.55 320.75 -55.2 320.75 -55.8 316.95 -55.8 316.15 -55.8 316.15 -55.2
L 316.15 -50.8 310.7 -50.8
Q 310.9 -51.5 311.1 -52.15 311.25 -52.9 311.9 -52.9 312.4 -53.15 312.4 -53.65 312.4 -54.05 311.65 -54.4
L 308.65 -55.6
Q 308.45 -55.6 308.25 -54.8 307.65 -52.15 306.5 -49.55 305.65 -47.5 304.1 -44.85 303.90625 -44.5109375 303.9 -44.35
L 303.9 -60.15
Q 303.9 -60.95 302.9 -60.95
L 297.7 -60.95 302.1 -68.1
Q 302.1 -68.5 301.15 -69.25
M 287.5 -63.55
Q 288.55 -64.7 289.65 -66.5
L 297.6 -66.5 293.95 -60.95 285.15 -60.95
Q 286.7 -62.55 287.5 -63.55
M 292.2 -52.25
L 287.25 -52.25 287.25 -57.8 292.2 -57.8 292.2 -52.25
M 295.75 -52.25
L 295.75 -57.8 300.3 -57.8 300.3 -52.25 295.75 -52.25
M 295.75 -43.15
L 295.75 -49.1 300.3 -49.1 300.3 -43.15 295.75 -43.15
M 287.05 -43.15
Q 287.2 -45.75 287.25 -49.1
L 292.2 -49.1 292.2 -43.15 287.05 -43.15
M 238.2 -41.4
Q 237.4 -41.4 237.4 -40.8
L 237.4 -31.1 232.65 -31.1
Q 232.25 -31.1 232.25 -30.5
L 232.25 -28.9
Q 232.25 -28.1 232.65 -28.1
L 276 -28.1
Q 276.45 -28.1 276.45 -28.9
L 276.45 -30.5
Q 276.45 -31.1 276 -31.1
L 271.05 -31.1 271.05 -40.8
Q 271.05 -41.4 270.25 -41.4
L 238.2 -41.4
M 240.95 -31.1
L 240.95 -38.4 247.7 -38.4 247.7 -31.1 240.95 -31.1
M 267.45 -38.4
L 267.45 -31.1 260.95 -31.1 260.95 -38.4 267.45 -38.4
M 257.6 -31.1
L 251.1 -31.1 251.1 -38.4 257.6 -38.4 257.6 -31.1
M 224 -70.65
Q 224 -71.25 223.2 -71.25
L 184.25 -71.25
Q 183.45 -71.25 183.45 -70.65
L 183.45 -27.9
Q 183.45 -27.3 184.25 -27.3
L 186.2 -27.3
Q 187 -27.3 187 -27.9
L 187 -29.65 220.45 -29.65 220.45 -27.9
Q 220.45 -27.3 221.25 -27.3
L 223.2 -27.3
Q 224 -27.3 224 -27.9
L 224 -70.65
M 220.45 -32.65
L 187 -32.65 187 -68.3 220.45 -68.3 220.45 -32.65
M 209.35 -39.8
Q 209.196875 -39.7953125 209 -39.5 207.6 -37.8 207.6 -37.6 209.05 -37.2 211.3 -36.35 214.05 -35.2 216.5 -33.8 216.55 -33.8 217.85 -35.65 218.05 -35.95 218.05 -36 216.5 -36.9 214.25 -37.9 212.3 -38.8 209.35 -39.8
M 200.7 -37.25
Q 201.05 -37.3 201.05 -37.4 201.05 -37.65 200.7 -37.95
L 198.3 -39.8
Q 198.14765625 -39.796875 198 -39.6 196.55 -38.6 195.25 -37.85 193.85 -37.05 191.85 -36.4 190.95 -36 189.6 -35.75 189.4 -35.7 189.4 -35.65 189.4 -35.45 189.65 -35.3 190.35 -34.75 191.25 -34 191.4 -33.6 191.95 -33.6 194.9 -34.55 196.8 -35.4 198.45 -36.15 199.8 -37.1 200.1 -37.2 200.7 -37.25
M 216.3 -55.2
Q 216.3 -55.8 215.5 -55.8
L 191.95 -55.8
Q 191.15 -55.8 191.15 -55.2
L 191.15 -40.35
Q 191.15 -39.8 191.95 -39.8
L 198.3 -39.8 209.35 -39.8 215.5 -39.8
Q 216.3 -39.8 216.3 -40.35
L 216.3 -55.2
M 212.9 -53.45
L 212.9 -51.25 194.5 -51.25 194.5 -53.45 212.9 -53.45
M 194.5 -46.65
L 194.5 -48.9 212.9 -48.9 212.9 -46.65 194.5 -46.65
M 194.5 -42.1
L 194.5 -44.3 212.9 -44.3 212.9 -42.1 194.5 -42.1
M 213.7 -65.25
Q 213.7 -65.9 212.9 -65.9
L 194.5 -65.9
Q 193.75 -65.9 193.75 -65.25
L 193.75 -58.95
Q 193.75 -58.4 194.5 -58.4
L 212.9 -58.4
Q 213.7 -58.4 213.7 -58.95
L 213.7 -65.25
M 210.35 -63.5
L 210.35 -60.75 197.1 -60.75 197.1 -63.5 210.35 -63.5
M 242.75 -73.95
Q 241.55 -71.8 240 -69.8
L 235.8 -69.8
Q 235.25 -69.8 235.25 -69.25
L 235.25 -57.6
Q 232.85 -57.35 230.9 -57.15 232.25 -53.45 232.65 -53.45 233.05 -53.45 233.65 -54.65 234.45 -54.7 235.25 -54.8 235.15 -52.45 234.75 -50.65 234.35 -48.7 233.25 -46.9 232.2 -45.15 230.9 -44.1 230.9 -43.75 231.15 -43.5 232.1 -42.95 232.95 -42.2 233.1 -42.1 233.45 -42.1 234.95 -43.35 235.7 -44.65 237.25 -46.75 237.8 -48.9 238.55 -51.25 238.6 -55.2 240.2 -55.4 241.75 -55.6
L 241.75 -48.65
Q 241.75 -48.1 242.55 -48.1
L 244.15 -48.1
Q 244.9 -48.1 244.9 -48.65
L 244.9 -56
Q 246.6 -56.25 248.3 -56.45
L 248.3 -48
Q 248.3 -47.3 247.65 -47 247.1 -46.65 243.9 -46.65 243.55 -46.65 243.55 -46.45 244.6 -44.5 244.7 -43.5 244.75 -42.95 245.3 -42.95 248.1 -43.15 249.8 -43.75 251.65 -44.55 251.65 -46
L 251.65 -56.95
Q 252.45 -57.05 253.25 -57.15 253.45 -57.4 253.45 -59.55 253.45 -59.95 253.05 -59.95 252.85 -59.95 252.7 -59.9 252.2 -59.8 251.65 -59.75
L 251.65 -69.05
Q 251.65 -69.8 250.65 -69.8
L 244 -69.8
Q 245.5 -71.25 245.75 -71.3 246.3 -71.3 246.3 -71.45 246.3 -71.85 245.7 -72.25
L 242.75 -73.95
M 241.25 -58.3
Q 239.9 -58.15 238.6 -58
L 238.6 -66.9 248.3 -66.9 248.3 -59.25
Q 244.9 -58.75 241.25 -58.3
M 242.95 -65.25
Q 242.9 -65.45 242.55 -65.45 240.55 -64.55 240.55 -64.1 241.7 -62.5 242.95 -59.95 243.85 -59.95 245.4 -61 245.7 -61.05 245.7 -61.75 244.5 -63.65 242.95 -65.25
M 107.75 -33.95
Q 106.75 -34.95 105.3 -36 105.1 -36 104.9 -35.7 103.5 -33.9 103.5 -33.6 104.25 -33.2 105.3 -32.25 106.65 -31 107.85 -29.45 107.95 -29.45 109.4 -31.5 109.65 -31.8 109.65 -31.85 108.85 -32.8 107.75 -33.95
M 115.85 -41.75
Q 115.9 -41.15 115.95 -39.95
L 101.9 -39.95
Q 101.55 -39.95 101.55 -39.4
L 101.55 -37.75
Q 101.55 -37 101.9 -37
L 115.95 -37 115.95 -31.1
Q 115.95 -29.45 114 -29.45 113.2 -29.45 112.2 -29.9 111.85 -29.9 111.85 -29.45 112.5 -28.25 112.65 -27.35 112.65 -26.55 113 -26.55
L 114.4 -26.55
Q 119.35 -26.55 119.35 -29.9
L 119.35 -37 124.85 -37
Q 125.25 -37 125.25 -37.75
L 125.25 -39.4
Q 125.25 -39.95 124.85 -39.95
L 119.4 -39.95
Q 119.5 -41.25 120.3 -41.5 120.9 -41.5 120.9 -41.95 120.9 -42.1 120.35 -42.4
L 116.55 -42.95
Q 115.75 -42.95 115.75 -42.75 115.75 -42.35 115.85 -41.75
M 156.35 -59.35
Q 156.35 -58.6 156.95 -58.6
L 162.3 -58.6
Q 162.05 -50.65 161.45 -46.45 160.6 -40.25 158.8 -36.25 157.2 -32.2 154.55 -28.7 154.55 -28.3 154.8 -28.15 156.3 -27.6 157.9 -27.15
L 158.5 -27.15
Q 160.6 -30.5 162 -34.55 164.15 -40.25 165.05 -48 165.5 -52 165.7 -58.6
L 171.9 -58.6
Q 171.75 -47.05 171.3 -42.05 170.85 -36.05 170.3 -33.85 169.75 -31.3 167.8 -31.3 165.6 -31.3 162.85 -31.45
L 162.85 -31.1
Q 164 -29.55 164.25 -28.45 164.35 -27.5 167.8 -27.5 171.95 -27.5 172.9 -31.2 173.95 -34.6 174.55 -41.6 175.05 -47.5 175.2 -60.95 175.2 -61.75 174.55 -61.75
L 165.75 -61.75
Q 165.85 -65.6 165.85 -70.25 165.85 -71.15 166.75 -71.4 167.2 -71.6 167.2 -72.25 167.2 -72.55 166.45 -72.7
L 162.85 -73.05
Q 162.25 -73.05 162.25 -72.65 162.5 -69.75 162.5 -68.65 162.5 -64.95 162.35 -61.75
L 156.95 -61.75
Q 156.35 -61.75 156.35 -60.95
L 156.35 -59.35
M 125.05 -69.4
Q 125.05 -70.05 124.65 -70.05
L 114.8 -70.05 114.8 -70.85
Q 114.8 -71.7 115.2 -71.75 115.55 -71.8 115.55 -72.45 115.55 -73.05 112 -73.05 111.4 -73.05 111.4 -72.65
L 111.4 -70.05 102.1 -70.05
Q 101.75 -70.05 101.75 -69.4
L 101.75 -67.9
Q 101.75 -67.1 102.1 -67.1
L 111.4 -67.1 111.4 -63.3 103.3 -63.3
Q 102.5 -63.3 102.5 -62.75
L 102.5 -49.7
Q 102.5 -49.1 103.3 -49.1
L 111.4 -49.1 111.4 -45.95
Q 103.3 -45.45 101.15 -45.35
L 102.2 -41.45
Q 102.45 -41.2 102.7 -41.2 103.1 -41.3 103.5 -42.55 111.5 -43.2 119.15 -43.8 121.1 -44 123 -44.1 123.5 -43 123.7 -42.1 126.45 -42.8 126.45 -42.95 125.7 -44.9 124.7 -46.55 124.05 -47.75 123.1 -49.1 123.9 -49.1 123.9 -49.7
L 123.9 -62.75
Q 123.9 -63.3 123.1 -63.3
L 114.8 -63.3 114.8 -67.1 124.65 -67.1
Q 125.05 -67.1 125.05 -67.9
L 125.05 -69.4
M 105.9 -57.4
L 105.9 -60.55 111.4 -60.55 111.4 -57.4 105.9 -57.4
M 105.9 -51.85
L 105.9 -54.8 111.4 -54.8 111.4 -51.85 105.9 -51.85
M 120.5 -60.55
L 120.5 -57.4 114.8 -57.4 114.8 -60.55 120.5 -60.55
M 114.8 -51.85
L 114.8 -54.8 120.5 -54.8 120.5 -51.85 114.8 -51.85
M 114.8 -46.15
L 114.8 -49.1 119.9 -49.1
Q 120.85 -47.9 121.55 -46.65 120.85 -46.6 119.95 -46.55 117.15 -46.35 114.8 -46.15
M 141.1 -67.6
L 141.1 -64.5 130.6 -64.5
Q 130.2 -64.5 130.2 -63.95
L 130.2 -62.35
Q 130.2 -61.55 130.6 -61.55
L 141.1 -61.55 141.1 -58.4 132.4 -58.4
Q 131.6 -58.4 131.6 -57.8
L 131.6 -43.35
Q 131.6 -42.75 132.4 -42.75
L 141.1 -42.75 141.1 -39.2 132 -39.2
Q 131.6 -39.2 131.6 -38.6
L 131.6 -37
Q 131.6 -36.25 132 -36.25
L 141.1 -36.25 141.1 -32.35
Q 132.05 -31.1 129.65 -30.9
L 130.85 -26.45
Q 131.15 -26.15 131.4 -26.15 131.9 -26.25 132.4 -27.7 141.1 -29.1 149.35 -30.45 152 -30.85 154.35 -31.1 154.6 -31.1 154.6 -31.55 154.7 -32.7 154.95 -33.8 154.95 -34.25 154.75 -34.25 153.15 -33.95 150.45 -33.5 147.35 -33.1 144.65 -32.75
L 144.65 -36.25 153.55 -36.25
Q 153.95 -36.25 153.95 -37
L 153.95 -38.6
Q 153.95 -39.2 153.55 -39.2
L 144.65 -39.2 144.65 -42.75 153.15 -42.75
Q 153.95 -42.75 153.95 -43.35
L 153.95 -57.8
Q 153.95 -58.4 153.15 -58.4
L 144.65 -58.4 144.65 -61.55 154.95 -61.55
Q 155.35 -61.55 155.35 -62.35
L 155.35 -63.95
Q 155.35 -64.5 154.95 -64.5
L 144.65 -64.5 144.65 -68.15
Q 148.25 -68.8 151.3 -69.95 151.7 -70.05 152.2 -70.05
L 153.35 -69.4
Q 153.95 -69.4 153.95 -70.25 153.95 -70.85 151.55 -72.95 151.3 -73.2 151 -73.2 150.65 -73.2 150.2 -72.95 146.3 -71.3 141.45 -70.7 137.4 -70.15 130.2 -70.05 130.2 -69.65 130.35 -69.35 130.9 -68.5 131 -67.6 131.2 -67.1 132 -67.1 136.65 -67.1 141.1 -67.6
M 141.1 -52.05
L 135.15 -52.05 135.15 -55.4 141.1 -55.4 141.1 -52.05
M 144.65 -52.05
L 144.65 -55.4 150.4 -55.4 150.4 -52.05 144.65 -52.05
M 150.4 -49.1
L 150.4 -45.75 144.65 -45.75 144.65 -49.1 150.4 -49.1
M 141.1 -45.75
L 135.15 -45.75 135.15 -49.1 141.1 -49.1 141.1 -45.75
M 79.55 -67.45
Q 79.55 -66.7 79.95 -66.7
L 87.9 -66.7 87.9 -63.1 81.35 -63.1
Q 80.55 -63.1 80.55 -62.55
L 80.55 -43.35
Q 80.55 -42.75 81.35 -42.75
L 87.9 -42.75 87.9 -38.8 80.2 -38.8
Q 79.55 -38.8 79.55 -37.95
L 79.55 -36.45
Q 79.55 -35.65 80.2 -35.65
L 87.9 -35.65 87.9 -27.7
Q 87.9 -27.15 88.45 -27.15
L 90.45 -27.15
Q 91.25 -27.15 91.25 -27.7
L 91.25 -35.65 98.75 -35.65
Q 99.35 -35.65 99.35 -36.45
L 99.35 -37.95
Q 99.35 -38.8 98.75 -38.8
L 91.25 -38.8 91.25 -42.75 97.75 -42.75
Q 98.55 -42.75 98.55 -43.35
L 98.55 -62.55
Q 98.55 -63.1 97.75 -63.1
L 91.25 -63.1 91.25 -66.7 98.95 -66.7
Q 99.35 -66.7 99.35 -67.45
L 99.35 -69.05
Q 99.35 -69.6 98.95 -69.6
L 91.25 -69.6 91.25 -70.85
Q 91.25 -71.7 91.65 -71.75 92.05 -71.8 92.05 -72.45 92.05 -73.05 88.45 -73.05 87.9 -73.05 87.9 -72.65
L 87.9 -69.6 79.95 -69.6
Q 79.55 -69.6 79.55 -69.05
L 79.55 -67.45
M 87.9 -54.65
L 83.9 -54.65 83.9 -59.95 87.9 -59.95 87.9 -54.65
M 83.9 -51.85
L 87.9 -51.85 87.9 -45.95 83.9 -45.95 83.9 -51.85
M 91.25 -54.65
L 91.25 -59.95 95.2 -59.95 95.2 -54.65 91.25 -54.65
M 91.25 -51.85
L 95.2 -51.85 95.2 -45.95 91.25 -45.95 91.25 -51.85 Z"/>
</g>
</defs>

<g transform="matrix( 0.76409912109375, 0, 0, 0.76409912109375, -34.7,77.1) ">
<g id="____" transform="matrix( 1.3129119873046875, 0, 0, 0.918365478515625, 178.15,239.6) ">
<g transform="matrix( 1, 0, 0, 1, 0,0) ">
<use xlink:href="#flash0_ai____Illustrator_________0_Layer0_0_FILL"/>
</g>
</g>

<g transform="matrix( 0.918365478515625, 0, 0, 0.918365478515625, 0,0) ">
<use xlink:href="#______0_Layer1_0_MEMBER_0_MEMBER_0_MEMBER_0_MEMBER_0_FILL"/>
</g>

<g transform="matrix( 0.918365478515625, 0, 0, 0.918365478515625, 0,0) ">
<use xlink:href="#______0_Layer1_0_MEMBER_1_MEMBER_0_MEMBER_0_MEMBER_0_FILL"/>
</g>

<g transform="matrix( 0.918365478515625, 0, 0, 0.918365478515625, 0,0) ">
<use xlink:href="#______0_Layer1_0_MEMBER_2_MEMBER_0_MEMBER_0_MEMBER_0_FILL"/>
</g>

<g transform="matrix( 0.918365478515625, 0, 0, 0.918365478515625, 0,0) ">
<use xlink:href="#______0_Layer1_0_MEMBER_3_MEMBER_0_MEMBER_0_MEMBER_0_FILL"/>
</g>

<g transform="matrix( 0.918365478515625, 0, 0, 0.918365478515625, 0,0) ">
<use xlink:href="#______0_Layer1_0_MEMBER_4_MEMBER_0_MEMBER_0_MEMBER_0_FILL"/>
</g>

<g transform="matrix( 0.918365478515625, 0, 0, 0.918365478515625, 0,0) ">
<use xlink:href="#______0_Layer1_0_MEMBER_5_MEMBER_0_MEMBER_0_MEMBER_0_FILL"/>
</g>

<g transform="matrix( 0.918365478515625, 0, 0, 0.918365478515625, 0,0) ">
<use xlink:href="#______0_Layer1_0_MEMBER_5_MEMBER_0_MEMBER_0_MEMBER_1_FILL"/>
</g>

<g transform="matrix( 0.918365478515625, 0, 0, 0.918365478515625, 0,0) ">
<use xlink:href="#______0_Layer1_0_MEMBER_6_MEMBER_0_MEMBER_0_MEMBER_0_FILL"/>
</g>

<g transform="matrix( 0.918365478515625, 0, 0, 0.918365478515625, 0,0) ">
<use xlink:href="#______0_Layer1_0_MEMBER_7_MEMBER_0_MEMBER_0_MEMBER_0_FILL"/>
</g>

<g transform="matrix( 0.918365478515625, 0, 0, 0.918365478515625, 0,0) ">
<use xlink:href="#______0_Layer1_0_MEMBER_8_MEMBER_0_MEMBER_0_MEMBER_0_FILL"/>
</g>

<g transform="matrix( 0.918365478515625, 0, 0, 0.918365478515625, 0,0) ">
<use xlink:href="#______0_Layer1_0_MEMBER_9_MEMBER_0_MEMBER_0_MEMBER_0_FILL"/>
</g>

<g transform="matrix( 0.918365478515625, 0, 0, 0.918365478515625, 0,0) ">
<use xlink:href="#______0_Layer1_0_MEMBER_10_MEMBER_0_MEMBER_0_MEMBER_0_MEMBER_0_FILL"/>
</g>

<g transform="matrix( 0.918365478515625, 0, 0, 0.918365478515625, 0,0) ">
<use xlink:href="#______0_Layer1_0_MEMBER_10_MEMBER_1_MEMBER_0_MEMBER_0_MEMBER_0_FILL"/>
</g>

<g transform="matrix( 0.918365478515625, 0, 0, 0.918365478515625, 0,0) ">
<use xlink:href="#______0_Layer1_0_MEMBER_10_MEMBER_2_MEMBER_0_MEMBER_0_MEMBER_0_FILL"/>
</g>

<g transform="matrix( 0.918365478515625, 0, 0, 0.918365478515625, 0,0) ">
<use xlink:href="#______0_Layer1_0_MEMBER_10_MEMBER_3_MEMBER_0_MEMBER_0_MEMBER_0_FILL"/>
</g>

<g transform="matrix( 0.918365478515625, 0, 0, 0.918365478515625, 0,0) ">
<use xlink:href="#______0_Layer1_0_MEMBER_10_MEMBER_4_MEMBER_0_MEMBER_0_MEMBER_0_FILL"/>
</g>

<g transform="matrix( 0.918365478515625, 0, 0, 0.918365478515625, 0,0) ">
<use xlink:href="#______0_Layer1_0_MEMBER_10_MEMBER_5_MEMBER_0_MEMBER_0_MEMBER_0_FILL"/>
</g>

<g transform="matrix( 0.918365478515625, 0, 0, 0.918365478515625, 0,0) ">
<use xlink:href="#______0_Layer1_0_MEMBER_11_MEMBER_0_MEMBER_0_MEMBER_0_MEMBER_0_FILL"/>
</g>

<g transform="matrix( 0.918365478515625, 0, 0, -0.918365478515625, 0,277.6) ">
<use xlink:href="#______0_Layer1_0_MEMBER_11_MEMBER_0_MEMBER_1_MEMBER_0_FILL"/>
</g>

<g transform="matrix( -0.0594024658203125, -0.9982147216796875, 0.9982147216796875, -0.0594024658203125, 54.05,232.65) ">
<g transform="matrix( 1, 0, 0, 1, 0,0) ">
<g transform="matrix( 0.918365478515625, 0, 0, 0.918365478515625, -214.05,-138.5) ">
<use xlink:href="#_____2_0_Layer0_0_MEMBER_0_MEMBER_0_MEMBER_0_FILL"/>
</g>
</g>
</g>

<g transform="matrix( -0.9565277099609375, -0.29150390625, -0.29150390625, 0.9565277099609375, 330.7,140) ">
<g transform="matrix( 1, 0, 0, 1, 0,0) ">
<g transform="matrix( 0.918365478515625, 0, 0, 0.918365478515625, -214.05,-138.5) ">
<use xlink:href="#_____2_0_Layer0_0_MEMBER_0_MEMBER_0_MEMBER_0_FILL"/>
</g>
</g>
</g>

<g transform="matrix( 1, 0, 0, 1, 134.9,89.7) ">
<g transform="matrix( 0.918365478515625, 0, 0, 0.918365478515625, -119.55,-88.3) ">
<use xlink:href="#____0_Layer0_0_MEMBER_0_MEMBER_0_MEMBER_0_FILL"/>
</g>

<g transform="matrix( 0.918365478515625, 0, 0, 0.918365478515625, -115.55,-87.35) ">
<use xlink:href="#____0_Layer0_1_MEMBER_0_MEMBER_0_MEMBER_0_FILL"/>
</g>
</g>

<g transform="matrix( 1, 0, 0, 1, 0,0) ">
<use xlink:href="#______0_Layer0_0_FILL"/>
</g>

<g transform="matrix( 1, 0, 0, 1, 0,0) ">
<use xlink:href="#______0_Layer0_0_MEMBER_0_FILL"/>
</g>

<g transform="matrix( 1, 0, 0, 1, 0,0) ">
<use xlink:href="#______0_Layer0_0_MEMBER_0_MEMBER_0_FILL"/>
</g>

<g transform="matrix( 1, 0, 0, 1, 0,0) ">
<use xlink:href="#______0_Layer0_0_MEMBER_0_MEMBER_1_FILL"/>
</g>

<g transform="matrix( 1, 0, 0, 1, 0,0) ">
<use xlink:href="#______0_Layer0_0_MEMBER_0_MEMBER_2_FILL"/>
</g>

<g transform="matrix( 1, 0, 0, 1, 0,0) ">
<use xlink:href="#______0_Layer0_1_FILL"/>
</g>
</g>
</svg>
