
<svg xmlns="http://www.w3.org/2000/svg" version="1.1" xmlns:xlink="http://www.w3.org/1999/xlink" preserveAspectRatio="none" x="0px" y="0px" width="500px" height="125px" viewBox="0 0 500 125">
<defs>
<filter id="Filter_1" x="-20%" y="-20%" width="140%" height="140%" color-interpolation-filters="sRGB">
<feColorMatrix in="SourceGraphic" type="matrix" values="1 0 0 0 0 0 1 0 0 0 0 0 1 0 0 0 0 0 0.55 0" result="result1"/>
</filter>

<g id="_____0_Layer4_0_MEMBER_0_FILL">
<path fill="#D2230E" stroke="none" d="
M 91.6 45.55
Q 87.95 39.3 83.6 36.85 81.1 35.4 76.75 35.45 73.1 35.5 69.65 36.55 60.25 39.35 41.25 40.65 26.6 41.65 19.7 46.3 15.55 49.1 12 54.7 8.45 60.15 7.4 65.2 6.2 70.9 7.4 78.5 8.6 85.95 11.5 91.25 14.2 96.2 21.9 102.15 26.2 105.45 34.3 111.35 38.5 114.8 47.9 124 56.6 131.8 63.15 133.1 66.6 133.8 71.1 132.7 75.65 131.55 78.2 129.25 82.7 125.25 85.6 115.5 88.25 104.2 89.45 99.55 94.6 79.9 94.95 78.25 97.7 64.95 96.05 56.8 94.9 51.15 91.6 45.55 Z"/>
</g>

<g id="_____0_Layer4_0_MEMBER_1_FILL">
<path fill="#D2230E" stroke="none" d="
M 54.4 53.8
Q 53.7 54.1 53.5 55.4 53.3 56.7 53.7 58.25
L 53.9 59.05
Q 54.35 60.6 55.15 61.4 56 62.25 56.7 61.85 57.4 61.5 57.6 60.2 57.8 58.9 57.35 57.35
L 57.15 56.7
Q 56.75 55.15 55.95 54.3 55.1 53.45 54.4 53.8 Z"/>
</g>

<g id="_____0_Layer4_0_MEMBER_2_MEMBER_0_FILL">
<path fill="#E2973A" stroke="none" d="
M 57.35 57.35
L 56.85 55.55
Q 56.35 54.3 55.6 53.8 54.9 53.25 54.35 53.8 53.8 54.35 53.75 55.6 53.65 56.85 54.15 58.1 54.5 59.8 54.9 60.65 55.45 61.85 56.15 62.25 56.9 62.65 57.4 61.95 57.9 61.3 57.9 59.95 57.85 58.55 57.35 57.35 Z"/>
</g>

<g id="_____0_Layer4_0_MEMBER_2_MEMBER_1_FILL">
<path fill="#FFFFFF" stroke="none" d="
M 56.1 55.05
L 56.1 55
Q 55.35 54.25 54.65 54.65 54.4 54.85 54.45 55.25 54.45 55.65 54.8 56 55.1 56.35 55.5 56.5 55.95 56.6 56.2 56.4 56.45 56.2 56.45 55.8 56.4 55.4 56.1 55.05 Z"/>
</g>

<g id="flash0_ai____1_svg8_path43863_0_Layer0_0_FILL">
<path fill="#2E3436" stroke="none" d="
M 65.95 3.35
Q 69.2 2.65 71.45 1.8
L 70.7 1.35
Q 68.2 -0.05 63.9 0 60.2 0.05 56.75 1.1 47.5 3.8 34.75 4.75 20.7 5.8 16.9 6.65 11.05 7.95 6.8 10.85 3.2 13.25 0 17.85 3.15 17.85 7.45 16.3 19 12.15 23.55 10.35
L 23.55 10.45
Q 22.3 14.15 23.4 15.45 24.15 16.35 27.35 19.1 28.55 18.35 33.3 17.3 35.9 16.7 36.7 13.45 37.85 8.85 38.1 6.9 41.05 8.45 41.05 8.5 43.2 9.9 44.5 11.95 46.5 15.1 48.25 15.05 49.4 15 53.6 14.25 53.95 12.45 55.9 9.25 57.2 7.1 56.3 5.25
L 65.95 3.35 Z"/>
</g>

<g id="_____0_Layer4_0_MEMBER_4_FILL">
<path fill="#96C622" stroke="none" d="
M 40.6 3.9
Q 44.45 8.3 46.05 20.35 46.85 26.35 46.85 31.5
L 35.35 40.8
Q 65.8 34.65 67.35 34.85 68.9 35.05 65.95 32.7
L 53.35 31.3 45.35 0 40.6 3.9 Z"/>
</g>

<g id="_____0_Layer4_0_MEMBER_5_FILL">
<path fill="#55860D" stroke="none" d="
M 41 41.4
Q 42.15 41.1 46 39.4 45.9 38.05 47.05 33.3 47.65 30.7 45.1 28.55 38.3 22.9 36.85 23.3 36.55 23.35 35.5 24.4 34.4 25.45 32.9 25.8 33.15 28.55 31.4 30.95 30.9 33.3 36.6 39.05 39.35 41.8 41 41.4 Z"/>
</g>

<g id="_____0_Layer4_0_MEMBER_6_FILL">
<path fill="#55860D" stroke="none" d="
M 92.55 26.2
Q 93.8 23.25 95 21.5 91.1 21.05 88.85 23.05 85.5 25.95 79.9 27.3 76.8 28.05 70.95 28.55 66.4 28.9 64.7 29.85 60.1 32.35 56.75 34.65 56.6 34.8 50.55 39.25 54.4 39.7 58.35 40.35 63 40.25 80.1 36.7 87.75 35.1 90.55 30.5 91.25 29.4 92.55 26.2 Z"/>
</g>

<g id="_____0_Layer4_0_MEMBER_7_FILL">
<path fill="#55860D" stroke="none" d="
M 46.55 37.85
Q 44.7 37.7 42.6 37.1 40.95 36.6 39.5 36.7 35.4 36.95 17.75 42.7 12.85 44.3 6.95 44.6 3.25 44.75 0 47.35 2.35 47.55 5.2 48.85 6.8 49.6 9.85 51.05 15.5 53.25 22 49.4 31.65 43.65 38.55 41.55 44.05 39.85 46.55 37.85 Z"/>
</g>

<g id="_____0_Layer4_0_MEMBER_8_FILL">
<path fill="#55860D" stroke="none" d="
M 45 35.5
Q 42.9 35.5 42.7 35.55 40.35 36.15 37.7 43.8 36.45 47.5 37.55 48.8 38.35 49.65 41.55 52.4 42.7 51.7 47.45 50.65 50.05 50.05 50.85 46.8 52.95 38.2 52 37.1 51.8 36.9 50.35 36.35 48.95 35.85 47.95 34.65 46.55 35.5 45 35.5 Z"/>
</g>

<g id="_____0_Layer4_0_MEMBER_9_FILL">
<path fill="#55860D" stroke="none" d="
M 59.9 31.7
Q 55.2 34.15 52.45 34.2 52.25 35.65 52.1 37.15 51.95 38.2 51.45 39.3 51.25 39.75 53.75 41 57 42.65 58.65 45.3 60.65 48.45 62.4 48.4 63.6 48.35 67.8 47.6 68.05 46.3 70.3 42.2 71.6 39.9 69.6 37.35 64.45 30.75 59.9 31.7 Z"/>
</g>

<g id="_____0_Layer4_0_MEMBER_10_MEMBER_0_FILL">
<path fill="#E2973A" stroke="none" d="
M 76.8 48.25
Q 76.05 47.7 75.5 48.25 74.95 48.8 74.9 50.05 74.8 51.35 75.3 52.6 75.7 54.3 76.05 55.1 76.6 56.3 77.35 56.7 78.05 57.05 78.55 56.4 79.05 55.75 79.05 54.4 79.05 52.95 78.5 51.8 78.3 50.7 78 50 77.5 48.75 76.8 48.25 Z"/>
</g>

<g id="_____0_Layer4_0_MEMBER_10_MEMBER_1_FILL">
<path fill="#FFFFFF" stroke="none" d="
M 77.25 49.45
Q 76.95 49.1 76.55 49 76.1 48.9 75.85 49.1 75.55 49.35 75.6 49.7 75.6 50.1 75.95 50.45 76.25 50.8 76.65 50.95 77.1 51.05 77.35 50.85 77.65 50.65 77.6 50.25 77.6 49.85 77.25 49.5
L 77.25 49.45 Z"/>
</g>

<g id="_____0_Layer4_0_MEMBER_11_MEMBER_0_FILL">
<path fill="#E2973A" stroke="none" d="
M 84.7 66
Q 84.55 64.85 84.2 64.15 83.7 62.9 83 62.4 82.25 61.85 81.7 62.4 81.15 62.95 81.1 64.2 81 65.5 81.5 66.75 81.9 68.45 82.25 69.3 82.8 70.5 83.55 70.85 84.25 71.2 84.75 70.55 85.25 69.9 85.25 68.55 85.25 67.15 84.7 66 Z"/>
</g>

<g id="_____0_Layer4_0_MEMBER_11_MEMBER_1_FILL">
<path fill="#FFFFFF" stroke="none" d="
M 83.45 63.65
Q 83.15 63.3 82.75 63.15 82.3 63.05 82.05 63.25 81.75 63.5 81.8 63.85 81.8 64.25 82.15 64.6 82.45 64.95 82.85 65.1 83.3 65.2 83.55 65 83.85 64.8 83.8 64.4 83.8 64 83.45 63.65 Z"/>
</g>

<g id="_____0_Layer4_0_MEMBER_12_MEMBER_0_FILL">
<path fill="#E2973A" stroke="none" d="
M 93.8 60.65
Q 93.8 59.35 93.7 58.75 93.5 57.45 92.85 56.8 92.25 56.15 91.6 56.5 90.95 56.9 90.65 58.15 90.3 59.4 90.5 60.7 90.5 62.55 90.7 63.35 90.95 64.6 91.6 65.15 92.25 65.7 92.85 65.15 93.5 64.65 93.8 63.3 94.05 61.9 93.8 60.65 Z"/>
</g>

<g id="_____0_Layer4_0_MEMBER_12_MEMBER_1_FILL">
<path fill="#FFFFFF" stroke="none" d="
M 93.05 58.1
Q 92.85 57.7 92.45 57.5 92.05 57.3 91.75 57.45 91.45 57.6 91.4 58 91.35 58.4 91.55 58.8 92.15 59.8 92.9 59.45 93.2 59.3 93.25 58.9 93.3 58.5 93.05 58.1 Z"/>
</g>

<g id="_____0_Layer4_0_MEMBER_13_MEMBER_0_FILL">
<path fill="#E2973A" stroke="none" d="
M 70.85 73.9
Q 70.9 73.25 70.8 72 70.6 70.65 70 70 69.4 69.35 68.7 69.7 68.05 70.1 67.7 71.35 67.4 72.6 67.6 73.9 67.55 75.35 67.75 76.55 68 77.85 68.65 78.35 69.3 78.9 69.9 78.35 70.55 77.8 70.85 76.5 71.15 75.15 70.85 73.9 Z"/>
</g>

<g id="_____0_Layer4_0_MEMBER_13_MEMBER_1_FILL">
<path fill="#FFFFFF" stroke="none" d="
M 70.15 71.35
L 70.15 71.3
Q 69.95 70.9 69.55 70.7 69.15 70.5 68.85 70.65 68.55 70.8 68.5 71.2 68.45 71.6 68.65 72 69.25 73 70 72.65 70.3 72.55 70.35 72.15 70.4 71.75 70.15 71.35 Z"/>
</g>

<g id="_____0_Layer4_0_MEMBER_14_MEMBER_0_FILL">
<path fill="#E2973A" stroke="none" d="
M 47.7 73.75
Q 47.7 72.45 47.6 71.85 47.4 70.5 46.8 69.85 46.2 69.2 45.55 69.6 44.9 70 44.55 71.2 44.2 72.45 44.4 73.8 44.4 75.6 44.55 76.45 44.85 77.75 45.5 78.25 46.1 78.8 46.7 78.25 47.35 77.7 47.65 76.35 47.95 75 47.7 73.75 Z"/>
</g>

<g id="_____0_Layer4_0_MEMBER_14_MEMBER_1_FILL">
<path fill="#FFFFFF" stroke="none" d="
M 47 71.2
Q 46.4 70.25 45.65 70.5 45.35 70.65 45.3 71.05 45.25 71.45 45.5 71.85 45.7 72.25 46.1 72.45 46.5 72.65 46.8 72.55 47.1 72.4 47.15 72 47.25 71.6 47 71.2 Z"/>
</g>

<g id="_____0_Layer4_0_MEMBER_15_MEMBER_0_FILL">
<path fill="#E2973A" stroke="none" d="
M 37.1 59.65
Q 37.5 58.45 37.55 57.8 37.75 56.5 37.35 55.7 36.95 54.85 36.25 55.05 35.5 55.25 34.8 56.35 34.15 57.45 33.95 58.75 33.4 60.4 33.35 61.35 33.25 62.65 33.7 63.35 34.15 64 34.9 63.7 35.65 63.35 36.3 62.15 37 60.95 37.1 59.65 Z"/>
</g>

<g id="_____0_Layer4_0_MEMBER_15_MEMBER_1_FILL">
<path fill="#FFFFFF" stroke="none" d="
M 37.15 57
Q 37.1 56.55 36.75 56.25 36.45 55.95 36.1 56 35.75 56.05 35.6 56.4 35.45 56.75 35.55 57.2 35.65 57.7 35.95 58 36.25 58.3 36.6 58.25 36.95 58.2 37.1 57.85 37.25 57.5 37.15 57 Z"/>
</g>

<g id="_____0_Layer4_0_MEMBER_16_MEMBER_0_FILL">
<path fill="#E2973A" stroke="none" d="
M 25.55 54.35
Q 26 53.1 25.8 52.25 25.6 51.35 24.85 51.4 24.1 51.45 23.2 52.35 22.3 53.3 21.8 54.55 20.9 56 20.7 56.9 20.3 58.15 20.6 58.95 20.9 59.7 21.7 59.55 22.5 59.35 23.4 58.35 24.35 57.3 24.7 56.1 25.3 55.05 25.55 54.35 Z"/>
</g>

<g id="_____0_Layer4_0_MEMBER_16_MEMBER_1_FILL">
<path fill="#FFFFFF" stroke="none" d="
M 25.35 53.5
Q 25.35 53 25.1 52.65 24.85 52.3 24.5 52.25 23.7 52.25 23.7 53.35 23.7 53.85 23.95 54.2 24.15 54.55 24.5 54.6 24.85 54.6 25.1 54.3 25.35 54 25.35 53.5 Z"/>
</g>

<g id="_____0_Layer4_0_MEMBER_17_MEMBER_0_FILL">
<path fill="#E2973A" stroke="none" d="
M 16.35 67.5
Q 16.6 66.6 16.7 65.6 16.8 64.3 16.35 63.5 15.9 62.75 15.2 62.95 14.5 63.2 13.9 64.35 13.25 65.5 13.15 66.85 12.75 68.55 12.75 69.45 12.75 70.75 13.25 71.4 13.75 72.05 14.45 71.65 15.2 71.25 15.8 70.05 16.35 68.8 16.35 67.5 Z"/>
</g>

<g id="_____0_Layer4_0_MEMBER_17_MEMBER_1_FILL">
<path fill="#FFFFFF" stroke="none" d="
M 16.25 65.7
Q 16.4 65.3 16.25 64.85 16.1 64.4 15.75 64.1 15.45 63.85 15.1 63.9 14.75 64 14.65 64.35 14.5 64.7 14.65 65.15
L 14.65 65.2
Q 14.75 65.65 15.1 65.9 15.4 66.2 15.75 66.1 16.1 66.05 16.25 65.7 Z"/>
</g>

<g id="_____0_Layer4_0_MEMBER_18_MEMBER_0_FILL">
<path fill="#E2973A" stroke="none" d="
M 27.2 72.9
Q 27.3 71.65 27.25 71 27.15 69.7 26.6 69 26 68.25 25.35 68.6 24.65 69 24.25 70.2 23.8 71.4 23.9 72.75 23.8 74.55 23.9 75.4 24.1 76.7 24.7 77.25 25.3 77.8 25.95 77.3 26.6 76.8 27 75.5 27.4 74.2 27.2 72.9 Z"/>
</g>

<g id="_____0_Layer4_0_MEMBER_18_MEMBER_1_FILL">
<path fill="#FFFFFF" stroke="none" d="
M 26.65 70.3
Q 26.45 69.9 26.1 69.65 25.75 69.45 25.4 69.55 25.1 69.65 25 70.05 24.9 70.45 25.1 70.9 25.65 71.9 26.4 71.65 26.7 71.55 26.8 71.15 26.85 70.75 26.65 70.3 Z"/>
</g>

<g id="_____0_Layer4_0_MEMBER_19_MEMBER_0_FILL">
<path fill="#E2973A" stroke="none" d="
M 18.25 86.25
Q 17.8 84.75 17.65 84.45 17.1 83.2 16.35 82.75 15.6 82.25 15.05 82.8 14.5 83.35 14.55 84.65 14.55 85.95 15.1 87.15 15.45 88.8 15.95 89.65 16.55 90.8 17.3 91.15 18.05 91.55 18.5 90.85 18.95 90.1 18.9 88.8 18.85 87.4 18.25 86.25 Z"/>
</g>

<g id="_____0_Layer4_0_MEMBER_19_MEMBER_1_FILL">
<path fill="#FFFFFF" stroke="none" d="
M 17.25 84.75
Q 17.2 84.35 16.85 84
L 16.85 83.95
Q 16.5 83.6 16.1 83.55 15.65 83.45 15.4 83.65 15.15 83.9 15.2 84.25 15.25 84.65 15.6 85
L 15.6 85.05
Q 15.95 85.4 16.35 85.45 16.8 85.55 17.05 85.3 17.3 85.1 17.25 84.75 Z"/>
</g>

<g id="_____0_Layer4_0_MEMBER_20_MEMBER_0_FILL">
<path fill="#E2973A" stroke="none" d="
M 35.95 86.55
Q 35.95 85.25 35.85 84.65 35.65 83.35 35.05 82.65 34.45 82 33.8 82.4 33.15 82.8 32.8 84 32.5 85.25 32.7 86.6 32.6 88.3 32.85 89.25 33.1 90.55 33.75 91.05 34.35 91.6 35 91.05 35.6 90.5 35.9 89.15 36.2 87.8 35.95 86.55 Z"/>
</g>

<g id="_____0_Layer4_0_MEMBER_20_MEMBER_1_FILL">
<path fill="#FFFFFF" stroke="none" d="
M 35.25 84
Q 35.05 83.6 34.65 83.4 34.25 83.2 33.95 83.3 33.65 83.45 33.6 83.85 33.55 84.25 33.75 84.65 33.95 85.1 34.35 85.3 34.75 85.5 35.05 85.35 35.8 85 35.25 84 Z"/>
</g>

<g id="_____0_Layer4_0_MEMBER_21_MEMBER_0_FILL">
<path fill="#E2973A" stroke="none" d="
M 58.45 86.15
Q 58.5 85.5 58.4 84.25 58.15 82.9 57.6 82.25 56.95 81.6 56.3 82 55.65 82.4 55.3 83.6 55 84.85 55.2 86.2 55.15 87.55 55.35 88.85 55.6 90.1 56.25 90.65 56.9 91.2 57.5 90.65 58.15 90.1 58.45 88.75 58.75 87.4 58.45 86.15 Z"/>
</g>

<g id="_____0_Layer4_0_MEMBER_21_MEMBER_1_FILL">
<path fill="#FFFFFF" stroke="none" d="
M 57.75 83.6
Q 57.55 83.2 57.15 83 56.75 82.8 56.45 82.9 56.15 83.05 56.1 83.45 56.05 83.85 56.25 84.25 56.45 84.65 56.85 84.85 57.25 85.05 57.55 84.95 57.9 84.8 57.95 84.4 58 84 57.75 83.6 Z"/>
</g>

<g id="_____0_Layer4_0_MEMBER_22_MEMBER_0_FILL">
<path fill="#E2973A" stroke="none" d="
M 28.75 98
Q 28.3 97.3 27.6 96.5 26.65 95.55 25.8 95.35 24.9 95.2 24.6 95.85 24.3 96.55 24.75 97.75 25.15 99 26.1 99.95 27.3 101.55 27.8 102 28.75 102.9 29.55 102.95 30.4 103 30.6 102.2 30.8 101.4 30.25 100.15 29.7 98.9 28.75 98 Z"/>
</g>

<g id="_____0_Layer4_0_MEMBER_22_MEMBER_1_FILL">
<path fill="#FFFFFF" stroke="none" d="
M 25.25 96.55
Q 25.05 96.85 25.25 97.2 25.45 97.55 25.85 97.75
L 25.9 97.75
Q 26.3 98 26.75 97.9 27.15 97.85 27.35 97.55 27.5 97.25 27.35 96.9 27.15 96.55 26.7 96.35 26.3 96.15 25.85 96.2 25.45 96.25 25.25 96.55 Z"/>
</g>

<g id="_____0_Layer4_0_MEMBER_23_MEMBER_0_FILL">
<path fill="#E2973A" stroke="none" d="
M 42.7 105.9
Q 42.35 104.85 41.9 104.15 41.2 103 40.45 102.6 39.65 102.2 39.2 102.85 38.7 103.45 38.85 104.7 39 106 39.7 107.15 40.25 108.7 40.8 109.55 41.5 110.65 42.3 110.9 43.1 111.15 43.45 110.4 43.85 109.7 43.65 108.35 43.45 106.95 42.7 105.9 Z"/>
</g>

<g id="_____0_Layer4_0_MEMBER_23_MEMBER_1_FILL">
<path fill="#FFFFFF" stroke="none" d="
M 41.45 105.1
Q 41.7 104.85 41.6 104.5 41.45 104.1 41.1 103.8 40.75 103.45 40.3 103.45 39.9 103.4 39.65 103.65 39.4 103.9 39.5 104.25 39.55 104.65 39.95 104.95 40.85 105.7 41.45 105.1 Z"/>
</g>

<g id="_____0_Layer4_0_MEMBER_24_MEMBER_0_FILL">
<path fill="#E2973A" stroke="none" d="
M 52 98.2
Q 51.4 96.95 50.65 96.5 49.9 96.05 49.35 96.6 48.85 97.15 48.9 98.45 48.9 99.75 49.45 100.95 49.9 102.65 50.35 103.45 51 104.6 51.75 104.9 52.5 105.2 52.95 104.55 53.4 103.85 53.3 102.5 53.25 101.1 52.6 100 52.4 99.05 52 98.2 Z"/>
</g>

<g id="_____0_Layer4_0_MEMBER_24_MEMBER_1_FILL">
<path fill="#FFFFFF" stroke="none" d="
M 51.2 97.7
Q 50.85 97.35 50.45 97.3 50 97.2 49.75 97.45 49.5 97.7 49.55 98.05 49.6 98.45 49.95 98.8 50.3 99.15 50.7 99.2 51.15 99.3 51.4 99.05 51.65 98.85 51.6 98.45 51.55 98.05 51.2 97.7 Z"/>
</g>

<g id="_____0_Layer4_0_MEMBER_25_MEMBER_0_FILL">
<path fill="#E2973A" stroke="none" d="
M 72.7 85.5
Q 72.05 84.85 71.4 85.25 70.75 85.65 70.4 86.85 70.1 88.1 70.3 89.45 70.2 91.1 70.45 92.05 70.7 93.35 71.35 93.85 72 94.4 72.6 93.85 73.25 93.3 73.55 92 73.85 90.65 73.55 89.4 73.6 88.75 73.5 87.5 73.3 86.15 72.7 85.5 Z"/>
</g>

<g id="_____0_Layer4_0_MEMBER_25_MEMBER_1_FILL">
<path fill="#FFFFFF" stroke="none" d="
M 72.25 86.2
Q 71.85 86 71.55 86.15 71.25 86.3 71.2 86.7 71.15 87.1 71.35 87.5 71.6 87.9 71.95 88.1 72.35 88.3 72.65 88.15 73 88.05 73.05 87.65 73.1 87.25 72.85 86.85
L 72.85 86.8
Q 72.65 86.4 72.25 86.2 Z"/>
</g>

<g id="_____0_Layer4_0_MEMBER_26_MEMBER_0_FILL">
<path fill="#E2973A" stroke="none" d="
M 87.45 86.4
Q 87.65 85.05 87.25 84.25 86.85 83.45 86.15 83.65 85.4 83.85 84.7 84.9 84.05 86 83.85 87.35 83.35 88.8 83.2 89.9 83.1 91.2 83.55 91.9 84 92.6 84.75 92.25 85.5 91.9 86.2 90.75 86.9 89.55 87 88.25 87.3 87.4 87.45 86.4 Z"/>
</g>

<g id="_____0_Layer4_0_MEMBER_26_MEMBER_1_FILL">
<path fill="#FFFFFF" stroke="none" d="
M 87.05 85.6
Q 86.8 84.45 86 84.55 85.2 84.65 85.4 85.8 85.5 86.25 85.85 86.55 86.15 86.9 86.5 86.85 86.85 86.8 87 86.4 87.15 86.05 87.05 85.6 Z"/>
</g>

<g id="_____0_Layer4_0_MEMBER_27_MEMBER_0_FILL">
<path fill="#E2973A" stroke="none" d="
M 63.8 97.25
Q 63.15 96.6 62.5 96.95 61.85 97.35 61.5 98.6 61.2 99.85 61.4 101.15 61.3 102.6 61.55 103.8 61.8 105.05 62.45 105.6 63.1 106.15 63.7 105.6 64.35 105.05 64.65 103.75 64.95 102.35 64.65 101.1 64.7 100.45 64.6 99.2 64.4 97.9 63.8 97.25 Z"/>
</g>

<g id="_____0_Layer4_0_MEMBER_27_MEMBER_1_FILL">
<path fill="#FFFFFF" stroke="none" d="
M 63.95 98.55
Q 63.75 98.15 63.35 97.95 62.95 97.75 62.65 97.9 62.35 98 62.3 98.4 62.25 98.8 62.45 99.2
L 62.45 99.25
Q 62.7 99.65 63.05 99.85 63.45 100.05 63.8 99.9 64.1 99.75 64.15 99.35 64.2 98.95 63.95 98.55 Z"/>
</g>

<g id="_____0_Layer4_0_MEMBER_28_MEMBER_0_FILL">
<path fill="#E2973A" stroke="none" d="
M 74.65 109.75
Q 74.65 108.45 74.55 107.85 74.35 106.5 73.75 105.85 73.15 105.2 72.5 105.6 71.85 106 71.5 107.2 71.15 108.45 71.35 109.8 71.35 111.6 71.55 112.4 71.8 113.7 72.45 114.25 73.05 114.75 73.7 114.2 74.3 113.65 74.6 112.35 74.9 111 74.65 109.75 Z"/>
</g>

<g id="_____0_Layer4_0_MEMBER_28_MEMBER_1_FILL">
<path fill="#FFFFFF" stroke="none" d="
M 73.95 107.2
L 73.95 107.15
Q 73.75 106.75 73.35 106.55 72.95 106.35 72.65 106.5 71.9 106.85 72.45 107.85 72.65 108.25 73.05 108.45 73.45 108.65 73.75 108.55 74.05 108.4 74.1 108 74.2 107.6 73.95 107.2 Z"/>
</g>

<g id="_____0_Layer4_0_MEMBER_29_MEMBER_0_FILL">
<path fill="#E2973A" stroke="none" d="
M 61.15 113.25
Q 61.2 112.35 61.05 111.35 60.85 110 60.25 109.35 59.7 108.7 59 109.1 58.35 109.5 58 110.7 57.7 111.95 57.9 113.3 57.8 114.95 58.05 115.95 58.3 117.2 58.95 117.75 59.6 118.3 60.2 117.75 60.85 117.2 61.15 115.85 61.45 114.5 61.15 113.25 Z"/>
</g>

<g id="_____0_Layer4_0_MEMBER_29_MEMBER_1_FILL">
<path fill="#FFFFFF" stroke="none" d="
M 60.45 110.7
Q 60.25 110.25 59.85 110.05 59.45 109.85 59.15 110 58.85 110.15 58.8 110.55 58.75 110.95 58.95 111.35 59.15 111.75 59.55 111.95 59.95 112.15 60.25 112.05 61 111.7 60.45 110.7 Z"/>
</g>

<g id="_____0_Layer4_0_MEMBER_30_MEMBER_0_FILL">
<path fill="#E2973A" stroke="none" d="
M 68.7 121.05
Q 68.75 120.15 68.6 119.15 68.4 117.85 67.8 117.2 67.25 116.55 66.55 116.9 65.9 117.3 65.55 118.55 65.25 119.8 65.45 121.1 65.35 122.8 65.6 123.75 65.85 125 66.5 125.55 67.15 126.1 67.75 125.55 68.4 125 68.7 123.7 69 122.3 68.7 121.05 Z"/>
</g>

<g id="_____0_Layer4_0_MEMBER_30_MEMBER_1_FILL">
<path fill="#FFFFFF" stroke="none" d="
M 68 118.5
Q 67.8 118.1 67.4 117.9 67 117.7 66.7 117.85 66.4 117.95 66.35 118.35 66.3 118.75 66.5 119.15
L 66.5 119.2
Q 66.75 119.6 67.1 119.8 67.5 120 67.8 119.85 68.55 119.5 68 118.5 Z"/>
</g>

<g id="_____0_Layer4_0_MEMBER_31_MEMBER_0_FILL">
<path fill="#E2973A" stroke="none" d="
M 50.5 116.2
Q 49.55 115.2 48.7 115.05 47.8 114.85 47.5 115.55 47.25 116.3 47.7 117.45 48.15 118.7 49.05 119.6 49.9 121 50.7 121.7 51.7 122.55 52.5 122.65 53.3 122.7 53.5 121.9 53.7 121.1 53.15 119.85 52.6 118.55 51.7 117.7 50.9 116.6 50.5 116.2 Z"/>
</g>

<g id="_____0_Layer4_0_MEMBER_31_MEMBER_1_FILL">
<path fill="#FFFFFF" stroke="none" d="
M 49.65 116
L 49.6 116
Q 49.2 115.8 48.75 115.9 48.35 115.95 48.15 116.2 47.8 116.95 48.8 117.45 49.8 117.9 50.25 117.2 50.45 116.95 50.25 116.6 50.05 116.25 49.65 116 Z"/>
</g>

<g id="_____0_Layer4_0_MEMBER_32_MEMBER_0_FILL">
<path fill="#E2973A" stroke="none" d="
M 80.65 103.3
Q 80.35 104.55 80.55 105.85 80.45 107.55 80.7 108.5 80.95 109.8 81.6 110.3 82.2 110.85 82.85 110.3 83.5 109.75 83.8 108.45 84.05 107.1 83.8 105.85 83.8 104.55 83.7 103.95 83.5 102.6 82.9 101.95 82.35 101.3 81.65 101.65 81 102.05 80.65 103.3 Z"/>
</g>

<g id="_____0_Layer4_0_MEMBER_32_MEMBER_1_FILL">
<path fill="#FFFFFF" stroke="none" d="
M 83.1 103.25
Q 82.9 102.85 82.5 102.65 82.1 102.45 81.8 102.6 81.5 102.75 81.45 103.15 81.4 103.55 81.6 103.95 81.85 104.35 82.2 104.55 82.6 104.75 82.9 104.6 83.65 104.35 83.1 103.25 Z"/>
</g>

<g id="_____0_Layer3_0_MEMBER_0_MEMBER_0_MEMBER_0_FILL">
<path fill="#DBDB00" stroke="none" d="
M 187.5 89.7
Q 196.55 81.4 199.3 76.25 201.35 72.35 200.6 70.3 199.45 67.1 192.05 64.75 188.45 63.6 178.7 65.65 177.9 65.8 158 70.65 126.8 78.25 110.7 75.5 87.9 71.65 74.25 58.2 69.7 53.7 64.35 46.3 57.4 36.6 55.95 34.85 53.3 31.65 41.5 25.1 29.85 18.65 28.6 16.95 27.35 15.25 24.8 8.7 22.6 3 21.35 2.3 18.45 0.65 13.7 4.4 9.3 7.95 9.1 10.55 9.05 11.7 11.8 14.25 16.4 18.55 17.75 20.05 26.35 29.7 25.35 42.25 24.65 50.9 27.55 61.1 30.95 72.85 38.3 83.3 57 109.85 94.4 119.5 127.35 128.05 163.6 107.1 176.65 99.6 187.5 89.7 Z"/>
</g>

<g id="_____0_Layer3_0_MEMBER_0_MEMBER_1_FILL">
<path fill="#FFFF55" stroke="none" d="
M 174 78.2
Q 197.25 69.95 196.95 68.2 196.5 65.1 190.65 64.35 186.5 63.85 183.85 64.4 143.65 73.4 138.95 74.15 126.75 76.1 109.35 74.7 91.65 73.25 78.3 61.15 73.3 56.6 67 48.85 59.75 39.7 55.85 34.9 52.05 30.25 42.05 25.1 32.4 20.15 30.05 16.85 26.8 12.3 24.25 7.1 22.6 3.75 22.05 3.8 19.85 4.15 21 8.3 22.05 12.3 25.45 17.3 27.9 20.95 29.3 22.25 32.35 25.05 36.85 30.95 39.35 34.2 46 43.55 49.15 48 56 58.1 62.4 67.1 68.05 72.9 80.45 85.5 99.7 89.95 118.85 94.4 138.85 89.35 151.9 86.05 174 78.2 Z"/>
</g>

<g id="_____0_Layer3_0_MEMBER_0_MEMBER_2_FILL">
<path fill="#DBC200" stroke="none" d="
M 178.65 97.15
Q 193.8 85.9 200.15 74.4 189.65 82.4 184.7 85.9 176.35 91.8 169.05 94.85 148.55 103.45 136.95 106.4 118.75 111.1 101.85 109.15 82.65 106.95 67.1 95.1 56.75 87.2 42.05 69.15 37.1 63.25 33 54.2 29.5 46.5 25.9 35.1 24.95 48.6 26.15 56.45 27.15 62.8 30.65 70.7 35.3 81.2 42.7 89.05 49.3 96.05 61.75 104.65 78.85 116.5 97.6 120.5 120.45 125.35 141.5 117.2 162.75 109 178.65 97.15 Z"/>
</g>

<g id="_____0_Layer3_0_MEMBER_0_MEMBER_3_FILL">
<path fill="#765000" stroke="none" d="
M 21.35 2.3
Q 19.15 1.1 15.65 3.1 13.2 4.5 11.15 6.85 9.2 9.15 9.1 10.55 9.1 11 9.3 11.4 12.75 10.9 16.3 9.1 20.5 6.9 22.8 4.2 21.95 2.65 21.35 2.3 Z"/>
</g>

<g id="_____0_Layer3_0_MEMBER_0_MEMBER_4_FILL">
<path fill="#765000" stroke="none" d="
M 201.65 74.4
Q 202.8 72.7 201.4 70.15 200.35 68.4 198.5 67 196.7 65.65 195.5 65.7
L 194.8 65.85
Q 194.95 68.3 196.3 71 197.8 74.05 199.95 75.6 201.25 74.95 201.65 74.4 Z"/>
</g>

<g id="_____0_Layer3_0_MEMBER_1_MEMBER_0_MEMBER_0_FILL">
<path fill="#DBDB00" stroke="none" d="
M 174.45 119.2
Q 177.45 116 177.3 113.8 177.05 110.4 170.5 106.2 167.35 104.2 157.4 103.55 156.55 103.5 136.1 102.95 103.95 102.1 89.15 95.25 68.2 85.5 58.55 68.95 55.3 63.4 52.1 54.85 47.9 43.6 47 41.6 45.3 37.8 35.6 28.4 26.1 19.1 25.35 17.15 24.55 15.15 23.85 8.25 23.2 2.15 22.15 1.15 19.8 -1.2 14.25 1.15 9.05 3.4 8.2 5.9 7.85 7 9.8 10.15 13.15 15.55 14.05 17.35 19.75 28.85 15.5 40.7 12.6 48.85 12.7 59.45 12.9 71.7 17.25 83.7 28.3 114.25 61.9 133.4 91.45 150.25 131.9 139.6 146.5 135.8 159.5 129.1 170.45 123.45 174.45 119.2 Z"/>
</g>

<g id="_____0_Layer3_0_MEMBER_1_MEMBER_1_FILL">
<path fill="#FFFF55" stroke="none" d="
M 174.35 110.8
Q 174.7 107.7 169.25 105.45 165.45 103.9 162.65 103.7 121.35 101.85 116.8 101.35 104.45 100.05 88.05 94.1 71.4 88.05 61.65 72.85 58.05 67.15 54 58 49.4 47.25 46.9 41.6 44.45 36.15 36.15 28.55 28.15 21.25 26.75 17.45 24.8 12.25 23.7 6.55 23 2.8 22.45 2.75 20.25 2.45 20.2 6.8 20.2 10.95 22.15 16.65 23.55 20.75 24.6 22.45 26.8 25.95 29.6 32.8 31.2 36.85 35.1 47.4 37 52.55 40.95 64.05 44.75 74.45 48.7 81.5 57.35 96.9 74.75 106.25 92.1 115.6 112.7 116 126.15 116.25 149.55 114.45 174.15 112.55 174.35 110.8 Z"/>
</g>

<g id="_____0_Layer3_0_MEMBER_1_MEMBER_2_FILL">
<path fill="#DBC200" stroke="none" d="
M 12.6 54.6
Q 11.9 61 13.2 69.55 14.95 80.85 20 90.4 24.5 98.9 34.25 110.45 47.7 126.4 64.7 135.15 85.5 145.85 107.9 143.55 130.6 141.2 149.05 133.95 166.6 127.1 175.75 117.65 163.55 122.6 157.85 124.65 148.15 128.2 140.35 129.2 118.35 132.1 106.35 131.95 87.55 131.7 71.75 125.35 53.85 118.2 41.95 102.65 34.1 92.4 24.6 71.1 21.4 64.05 19.8 54.25 18.4 45.9 17.95 33.95 13.5 46.75 12.6 54.6 Z"/>
</g>

<g id="_____0_Layer3_0_MEMBER_1_MEMBER_3_FILL">
<path fill="#765000" stroke="none" d="
M 22.15 1.15
Q 20.35 -0.65 16.45 0.4 13.75 1.1 11.15 2.85 8.65 4.55 8.2 5.9 8.1 6.2 8.15 6.75 11.75 7.15 15.5 6.35 20.15 5.35 23.1 3.35 22.7 1.7 22.15 1.15 Z"/>
</g>

<g id="_____0_Layer3_0_MEMBER_1_MEMBER_4_FILL">
<path fill="#765000" stroke="none" d="
M 177.2 118.05
Q 178.8 116.65 178.05 113.9 177.55 111.9 176.15 110.1 174.75 108.3 173.6 108 173.25 107.95 172.85 108 172.3 110.45 172.95 113.35 173.55 116.6 175.25 118.75 176.8 118.4 177.2 118.05 Z"/>
</g>

<g id="_____0_Layer3_0_MEMBER_2_MEMBER_0_MEMBER_0_FILL">
<path fill="#DBDB00" stroke="none" d="
M 23.15 10.5
Q 23.75 4.45 22.95 3.2 21.15 0.4 15.2 1.65 9.6 2.75 8.3 5 7.75 6 9 9.5 11.15 15.45 11.7 17.4 14.9 29.9 8.3 40.6 3.75 48 1.7 58.4 -0.6 70.35 1.15 83.05 5.7 115.2 34.6 140.85 60.05 163.4 101.9 161.3 116.9 160.55 131.05 156.7 142.9 153.45 147.7 150.1 151.3 147.55 151.6 145.4 152.05 142 146.5 136.55 143.85 133.95 134.2 131.3 133.45 131.1 113.5 126.3 82.25 118.85 69.15 109.1 50.65 95.25 44.6 77.05 42.6 71 41.2 61.95 39.4 50.05 38.95 47.95 38.05 43.9 30.5 32.65 23.1 21.6 22.75 19.55 22.4 17.45 23.15 10.5 Z"/>
</g>

<g id="_____0_Layer3_0_MEMBER_2_MEMBER_1_FILL">
<path fill="#FFFF55" stroke="none" d="
M 23.35 8.85
Q 23.4 5.05 22.9 4.85 20.8 4.1 19.9 8.35 19.05 12.4 19.8 18.4 19.95 19.4 20.15 21.45 20.45 23.25 20.95 24.6 22.45 28.5 23.75 35.75 24.5 40 26.1 51.2 26.9 56.6 28.4 68.65 30 79.65 32.4 87.35 37.75 104.2 52.8 116.9 67.85 129.65 87.95 134.25 101 137.25 124.3 140.3 148.75 143.5 149.3 141.85 150.3 138.9 145.45 135.6 142.05 133.25 139.35 132.5 99.1 122.1 94.95 120.75 83.1 116.9 68.3 107.75 53.25 98.4 46.85 81.55 44.5 75.2 42.4 65.45 40.15 54 38.85 47.95 37.6 42.05 31.05 32.95 24.7 24.15 24.1 20.15 23.25 14.65 23.35 8.85 Z"/>
</g>

<g id="_____0_Layer3_0_MEMBER_2_MEMBER_2_FILL">
<path fill="#DBC200" stroke="none" d="
M 2.6 53.6
Q 0.6 59.7 0.1 68.35 -0.5 79.75 2.5 90.15 5.15 99.35 12.3 112.7 22.15 131.05 37 143.15 55.15 157.9 77.55 160.2 100.25 162.6 119.8 159.3 138.4 156.2 149.3 148.85 136.35 151.2 130.35 152.05 120.15 153.5 112.3 152.9 90.05 151.15 78.45 148.55 60.1 144.4 45.95 135 29.9 124.25 21.45 106.65 15.85 94.95 10.95 72.15 9.25 64.6 9.7 54.7 10.1 46.3 12.1 34.5 5.1 46.1 2.6 53.6 Z"/>
</g>

<g id="_____0_Layer3_0_MEMBER_2_MEMBER_3_FILL">
<path fill="#765000" stroke="none" d="
M 22.95 3.2
Q 21.55 1.15 17.55 1.3 14.7 1.45 11.85 2.65 9.05 3.75 8.3 5 8.1 5.5 8.1 5.85 11.3 6.95 15.4 6.95 20.05 6.95 23.4 5.55 23.4 3.95 22.95 3.2 Z"/>
</g>

<g id="_____0_Layer3_0_MEMBER_2_MEMBER_4_FILL">
<path fill="#765000" stroke="none" d="
M 148.45 138.8
Q 147.5 141.05 147.4 144.05 147.4 147.55 148.6 149.85 150 149.85 150.65 149.55 152.45 148.5 152.3 145.65 152.2 143.6 151.2 141.5 150.2 139.5 149.15 138.95
L 148.45 138.8 Z"/>
</g>

<g id="_____0_Layer2_0_MEMBER_0_FILL">
<path fill="#FB8B00" stroke="none" d="
M 120.05 35.6
Q 115.8 26.6 107.1 18.25 86.5 -1.45 62.35 0.1 40.5 1.5 25.2 11.75 13.5 19.55 6.85 31.2 0 43.25 0 57.05 0 64.85 4.55 74.05 7.65 80.35 14 89.05 32.15 113.95 62.35 113.95 63.9 113.95 66.05 113.05 68.5 112.05 69.7 111.9 93 109.05 108.6 93.9 124.7 78.3 124.7 57.05 124.7 45.4 120.05 35.6 Z"/>
</g>

<g id="_____0_Layer2_0_MEMBER_1_FILL">
<path fill="#FFFCD9" stroke="none" d="
M 117.2 36.7
Q 113.1 28.1 104.85 20.2 85.4 1.5 62.35 2.95 41.75 4.3 27.05 14 15.95 21.45 9.65 32.5 3.15 43.95 3.15 57.05 3.15 64.45 7.45 73.15 10.4 79.15 16.45 87.45 33.7 111.1 62.35 111.1 63.8 111.1 65.85 110.25 68.15 109.3 69.3 109.15 91.45 106.45 106.3 92.05 121.6 77.25 121.6 57.05 121.6 46 117.2 36.7 Z"/>
</g>

<g id="_____0_Layer2_0_MEMBER_2_FILL">
<path fill="#FAA10F" stroke="none" d="
M 16 32.2
Q 12.65 38.35 11.9 43.25 11 48.95 14.15 50.7 29.8 54.25 36.45 55.55 45.45 57.25 55.3 58.35 56.9 58.3 57.15 57.15
L 57.05 56
Q 49 45.5 43.5 38.45 33.1 25.05 28.65 21.1 26.7 19.4 22.85 23 19.25 26.35 16 32.2 Z"/>
</g>

<g id="_____0_Layer2_0_MEMBER_3_FILL">
<path fill="#FAA10F" stroke="none" d="
M 113.85 76.65
Q 119.45 66.6 114.45 60 112.55 57.55 96.75 56.6 85.05 55.95 72.05 56.25 70.35 56.3 69.55 58 68.8 59.7 70.15 60.6 81.35 67.9 87.85 73.95 92.5 78.3 102 89.4 109.15 85.05 113.85 76.65 Z"/>
</g>

<g id="_____0_Layer2_0_MEMBER_4_FILL">
<path fill="#FAA10F" stroke="none" d="
M 96 82.95
Q 92.85 77.8 87.95 72.55 75.1 58.9 67.55 62.15 65.3 62.75 64.4 64 63.65 65 63.55 66.85 63.3 71.45 60.9 85.5 59.5 93.6 61.55 102.15 68.45 105.35 82.4 100.25 95.75 95.3 98.4 89.75 99.15 88.15 96 82.95 Z"/>
</g>

<g id="_____0_Layer2_0_MEMBER_5_FILL">
<path fill="#FAA10F" stroke="none" d="
M 61.6 9.95
Q 54.4 7.6 40.9 12.45 35.1 14.5 32.3 16.85 29.15 19.5 30.9 21.55 46.7 40.4 56.35 53.45 57.3 54.75 59.15 53.45 60.1 52.85 60.85 51.95 62.75 41.05 63.45 33.65 64.75 19.9 61.6 9.95 Z"/>
</g>

<g id="_____0_Layer2_0_MEMBER_6_FILL">
<path fill="#FAA10F" stroke="none" d="
M 13.75 70.65
Q 17.75 82.45 25.05 85.8 27.5 86.9 39.5 77.75 57.9 63.75 58.15 63.6 59.45 62.75 59.25 61.1 59.05 59.45 57.6 58.9 46.25 54.95 28.7 52.5 11.4 50.15 11.8 52.4 10.15 59.95 13.75 70.65 Z"/>
</g>

<g id="_____0_Layer2_0_MEMBER_7_FILL">
<path fill="#FAA10F" stroke="none" d="
M 114.95 39.9
Q 111.7 28.35 103.05 25.55 100.55 24.7 89.4 35.25 75.5 48.35 70.25 51.55 68.9 52.4 69.55 54.45 69.9 55.45 70.5 56.3 75.9 58.35 89 58.35 94.7 58.3 113.8 57.4 118.05 50.85 114.95 39.9 Z"/>
</g>

<g id="_____0_Layer2_0_MEMBER_8_FILL">
<path fill="#FAA10F" stroke="none" d="
M 99.8 23.2
Q 97.9 16.55 85.6 11.3 72.9 5.95 64.65 9.3 61.8 10.45 62.1 24.2 62.3 32.85 63.95 48.5 64.15 50.25 65.15 51.2 66.25 52.15 67.7 51.45 77.2 46.6 85.4 38.25 90.15 33.5 99.8 23.2 Z"/>
</g>

<g id="_____0_Layer2_0_MEMBER_9_FILL">
<path fill="#FAA10F" stroke="none" d="
M 59.85 63
Q 52.8 66.15 43.8 72.6 33.05 80.25 25.35 88.75 28.45 94.65 38.6 100 50.25 106.1 57.95 102.25 60.35 101 61.05 88.45 62 71.85 63.4 66.15 63.8 64.6 61.85 63.65
L 59.85 63 Z"/>
</g>

<g id="_____0_Layer2_0_MEMBER_10_FILL">
<path fill="#FCFCBE" stroke="none" d="
M 91.25 32.55
Q 84 39.95 81.45 42.45 77.35 46.4 67.9 51.4 63.15 54.1 62.85 40.65 63.3 22.95 62.45 15.8
L 60.8 52.25
Q 58.05 53.95 48.75 43.55 37.45 29.95 32.5 24.05
L 55.5 54.8
Q 46.5 53.2 35.8 52.4 30.95 52.05 15.5 51.3 39.75 54.45 57.45 58.55 57.55 63.8 47.15 71.45 44.25 73.55 37.95 77.8 32.45 81.65 29.6 84.3
L 60.35 62.65
Q 63.5 63.9 61.85 82.95 60.3474609375 100.008984375 61.05 102.55 60.8259765625 100.0138671875 62.35 83.65 64.3 63.3 65.35 63.2 73.95 61.55 81.1 67.55 83.25 69.35 87.5 73.9 92.05 78.75 94.8 81.15 87.6 72.25 84.25 68.65 78.75 62.85 69.35 57.95
L 107.15 58.05 70.45 55.15 91.25 32.55 Z"/>
</g>

<g id="_____0_Layer1_0_FILL">
<path fill="#CCFFCC" stroke="none" d="
M 0.15 57.3
Q 2.95 47.35 4.35 34.45
L -4.85 34.15
Q -6.1 46.9 -8.75 56.2
L 0.15 57.3
M 51.2 31.05
L 44.55 24.75
Q 37.55 31.1 30.95 36.65 31.95 35 31.85 33.15 31.7 30.45 29.8 28.95 27.85 27.6 25.55 27.7 23 27.85 21.25 29.7 20.1 31.35 20.2 33.7 20.3 35.65 21.8 37.5 23.65 39.5 26.15 39.35 27 39.35 27.85 38.95 22.4 43.25 17.15 46.9 16.65 47.3 16.05 47.7 16.1 43.25 17.2 30.6
L 8.05 30.4
Q 6.7 46 6.9 50.15 7.05 51.85 7.5 53.35 -3.4 60.1 -18.4 68.35
L -14.85 76.35
Q -11.15 74.4 -7.65 72.45 -8.95 81.75 -8.8 84.45 -8.35 89.35 -4.9 92.05 -1.25 94.8 6.5 94.45 24.35 93.6 50.55 87.6 51.45 90.25 52.3 92.85
L 61.7 89.25
Q 56.9 75.4 53.05 63.15
L 43.95 65.75
Q 46 73 48.3 80.2 38.15 82.55 29.3 84.05
L 28.35 63.95 18.8 64.45 19.8 85.4
Q 13.5 86.35 7.95 86.6 0.9 86.95 0.7 83.4 0.55 80.4 2.45 68.75
L -0.8 68.7
Q 7.25 64.15 14.05 59.65 17.25 60.65 22.15 60.4 30.45 60 42.85 57.25
L 43.55 49.8
Q 31.45 52.9 23.6 53.25 23.35 53.3 23.15 53.3 37.9 43 51.2 31.05
M 47.3 38.7
L 40.5 44.3
Q 45.95 51.85 53.2 58.95
L 60.35 52.6
Q 53.1 45.85 47.3 38.7
M 48.7 25
Q 52.9 25.6 53.2 29.2 53.35 31.95 51.35 42.05
L 60.6 43.1
Q 62.6 34 62.3 27.5 61.6 19.6 53.55 17.5 47.25 16.1 33.75 16.75
L 27.6 17.05
Q 26.65 17.1 25.4 17.15
L 25.15 11.85 15.3 12.35 15.6 18.45
Q 5.5 19.85 -9.65 23
L -9.8 19.65 -19.2 20.1 -17.9 47.5 -8.5 47.05 -9.25 31
Q 17.7 25.25 32.75 24.55 42.3 24.05 48.7 25
M 131.5 64
L 124.5 65.8
Q 126.95 72.75 130.55 80.3
L 137.85 78.5
Q 134.15 71.25 131.5 64
M 115.05 68.3
Q 117.2 77.85 120.25 87.85
L 127.55 86.1
Q 124.35 76.35 122.05 66.65
L 115.05 68.3
M 113.65 68.05
L 105.95 68.4
Q 106.35 77.45 105.55 90.05
L 113.6 89.95
Q 114.15 78.8 113.65 68.05
M 103.7 21.6
L 103.3 12.75 70.5 14.3 70.9 23.15 80.75 22.7
Q 78.25 33.45 76.15 40.95 73.25 50.6 69.45 60.25
L 75.95 63.15 77.25 90.25 86.45 89.8 86.35 88.05 105.4 87.15 105 78.4 103.3 78.5
Q 104.1 66.65 103.65 57.35 103.05 44.7 101.85 40.55 100.5 35.85 95.6 36.05
L 93.8 36.15
Q 91.35 36.25 86.8 38 88.65 31.25 90.45 22.25
L 103.7 21.6
M 84.4 46.55
Q 89.3 44.15 90.65 44.05 92.6 44 93 45.55 93.9 47.8 94.45 57.75 94.85 66.4 94.15 78.95
L 85.95 79.3 84.4 46.55
M 149.7 17.25
L 149.3 8.85 113.75 10.55 113.65 8.7 104.55 9.15 107.25 65.15 116.35 64.7 116.2 62.45
Q 134.35 58.7 141.1 58.35 143.05 58.25 143.75 58.8 144.7 59.45 145.05 66.7 145.2 69.7 145.3 72.1 142.25 66.3 140.15 60.45
L 133.5 62.3
Q 136.05 69.45 139.85 77.1
L 145.2 75.7
Q 145.2 77.55 145.15 78.95 145.1 81 142.55 81.15 137.7 81.35 131.25 80.75
L 132.65 88.45
Q 138.95 89.1 142.95 88.9
L 144.6 88.8
Q 145.95 88.7 147.1 88.55 150.15 88 151.65 86.9 153.95 85.1 154.15 81.5 154.55 75.15 154.15 66.25 153.55 54.3 151.4 52.55 149.1 50.75 145.3 50.7 144.75 50.65 144.15 50.7
L 142.2 50.8
Q 139.7 50.9 136.9 51.25
L 136.7 46.9 149.75 46.3 149.35 37.75 136.3 38.35 136 32.35 149.05 31.75 148.65 23.4 135.6 24 135.3 17.95 149.7 17.25
M 126.5 18.35
L 126.8 24.4 114.45 25 114.15 18.95 126.5 18.35
M 127.2 32.75
L 127.5 38.75 115.15 39.35 114.85 33.35 127.2 32.75
M 115.55 47.9
L 127.9 47.3 128.15 52.45
Q 122.5 53.35 115.85 54.8
L 115.55 47.9 Z"/>

<path fill="#FFFF99" stroke="none" d="
M 202.95 42.1
Q 206.25 34.45 206.25 32.4 206.25 24.85 197.3 24.85
L 195.05 24.85
Q 188.85 24.85 171.4 28.8
L 172.95 37.1
Q 189.85 33.85 193.35 33.85 195.15 33.85 195.15 35.75 195.15 36.35 193.35 40.3 188.3 52.1 183.35 60.6 178.6 69.15 170 81.35
L 178.6 86.65
Q 187.85 73.1 193.5 62.6 198.75 52.8 202.95 42.1
M 253 26.65
L 245.45 18.75
Q 241.6 23.15 236.45 27.75 230.8 32.7 221.65 38.45 221.55 38.25 221.35 38.05
L 221.35 6.55 211.3 6.55 211.3 76.6
Q 211.3 79.55 210.6 80.65 209.05 82.1 204.5 82.1 198.9 82.1 189.4 80.9
L 190.45 89.3
Q 201.7 90.25 207.45 90.25
L 210.25 90.25
Q 216.25 90.25 219.1 87.2 221.35 84.35 221.35 79.15
L 221.35 54.25
Q 234.1 72.2 247.95 87.75
L 255.85 80.2
Q 240.4 63.75 227.1 45.95 236.75 40.4 242.95 35.65 248.05 31.4 253 26.65
M 327 7.95
L 324.25 7.95
Q 311.05 7.95 282.1 10.75
L 282.1 7.6 272.4 7.6 272.4 52.55 282.1 52.55 282.1 51.2 300.45 51.2 300.45 56.5 263.4 56.5 263.4 65.45 277.7 65.45
Q 272.6 75.55 265.95 85.7
L 274.9 90.25
Q 282.1 78.95 288.65 65.45
L 300.45 65.45 300.45 90.25 310.15 90.25 310.15 65.45 322.55 65.45
Q 327.2 76.5 335.3 89.9
L 344.65 86.3
Q 337.8 75.55 333.05 65.45
L 346.45 65.45 346.45 56.5 310.15 56.5 310.15 51.2 338.9 51.2 338.9 42.1 337.6 42.1
Q 339.25 29 339.25 18.75 339.25 13.7 336.45 10.95 333.65 7.95 327 7.95
M 326.3 15.5
Q 329.55 15.5 329.55 18.4 329.55 21.45 329.35 24.85
L 310.15 24.85 310.15 16.05
Q 319.2 15.5 326.3 15.5
M 328.75 33.85
Q 328.35 37.8 327.9 42.1
L 310.15 42.1 310.15 33.85 328.75 33.85
M 300.45 33.85
L 300.45 42.1 282.1 42.1 282.1 33.85 300.45 33.85
M 300.45 16.75
L 300.45 24.85 282.1 24.85 282.1 18.4
Q 292 17.4 300.45 16.75
M 384.5 10.5
L 383.45 10.5
Q 382.45 10.5 380.65 10.65 381.4 8.6 382 6.15
L 372.3 5.45
Q 371.65 9.15 370.8 12 369.5 12.35 368 12.55
L 368 10.85 358.65 10.85 358.65 30.6 355.05 30.6 355.05 39.3 358.65 39.3 358.65 60.45 368 60.45 368 39.3 373.4 39.3 373.4 49.65 382.35 49.65 382.35 39.3 387.95 39.3
Q 387.65 43.9 386.95 49.75 386.7 52.55 383.8 52.55 381.45 52.55 376.6 51.8
L 377 59.7
Q 384.35 60.45 389.55 60.45 395.85 60.45 396.55 52.6 397.2 46.05 397.35 39.3
L 401.05 39.3 401.05 30.6 397.35 30.6
Q 397 19.9 395.75 15.7 393.8 10.5 384.5 10.5
M 381.75 20.9
Q 379.95 19.45 377.7 19.45 375 19.45 373.3 21.25 371.95 22.9 371.95 25.2 371.95 27.2 373.4 29 374.35 30.15 375.65 30.6
L 368 30.6 368 19.3
Q 379.2 17.65 384.15 17.65 386.75 17.65 387.2 19.65 387.95 22.45 388.1 30.6
L 379.6 30.6
Q 380.55 30.25 381.45 29.55 383.45 27.8 383.45 25.2 383.45 22.5 381.75 20.9
M 424.4 62.3
L 421.2 62.3
Q 397.75 62.3 370.85 64.65
L 370.85 62.95 361.15 62.95 361.15 79.85 356.15 79.85 356.15 88.9 438.05 88.9 438.05 79.85 432.3 79.85
Q 433.05 72.2 433.05 69.4 433.05 62.3 424.4 62.3
M 421.55 70.25
Q 423.35 70.25 423.35 72.65 423.35 75 422.8 79.85
L 411.85 79.85 411.85 70.3
Q 416.8 70.25 421.55 70.25
M 391.45 70.85
Q 397.1 70.7 402.5 70.5
L 402.5 79.85 391.45 79.85 391.45 70.85
M 370.85 72.05
Q 376.55 71.65 382 71.3
L 382 79.85 370.85 79.85 370.85 72.05
M 422.55 40.15
Q 420.1 41.85 417.5 43.65 414.6 41.65 411.85 39.7
L 405 44.65
Q 407.5 46.5 410.15 48.6 404.85 51.9 398.9 55.4
L 403.95 62.3
Q 411.65 57.75 417.65 53.7 424.5 58.1 432.3 62.7
L 439.5 56.85
Q 431.95 52.7 425.15 48.5 428.45 45.95 431.15 43.65 438.45 37.9 438.45 34.2 438.15 28.8 430.9 28.8
L 429.8 28.8
Q 420.2 28.8 401.75 33.15
L 403.2 40.3
Q 420.45 36.35 425.15 36.35 425.95 36.35 425.95 37.1 425.95 37.6 422.55 40.15
M 427.1 6.55
L 425.95 6.55
Q 420.3 6.55 410.05 9.5
L 410.05 7.6 400.7 7.6 400.7 29.15 410.05 29.15 410.05 16.15
Q 418.65 13.7 422.25 13.7 423.35 13.7 423.35 15.5
L 423.35 23.05
Q 423.35 27 429.45 27
L 431.25 27
Q 434.5 27 439.5 25.95
L 439.85 18.75
Q 435.9 19.9 435.2 19.9 432.7 19.9 432.7 19.1
L 432.7 11.2
Q 432.7 6.55 427.1 6.55 Z"/>
</g>

<g id="_____0_Layer0_0_FILL">
<path fill="#CCFFCC" stroke="none" d="
M 0.15 57.3
Q 2.95 47.35 4.35 34.45
L -4.85 34.15
Q -6.1 46.9 -8.75 56.2
L 0.15 57.3
M 51.2 31.05
L 44.55 24.75
Q 37.55 31.1 30.95 36.65 31.95 35 31.85 33.15 31.7 30.45 29.8 28.95 27.85 27.6 25.55 27.7 23 27.85 21.25 29.7 20.1 31.35 20.2 33.7 20.3 35.65 21.8 37.5 23.65 39.5 26.15 39.35 27 39.35 27.85 38.95 22.4 43.25 17.15 46.9 16.65 47.3 16.05 47.7 16.1 43.25 17.2 30.6
L 8.05 30.4
Q 6.7 46 6.9 50.15 7.05 51.85 7.5 53.35 -3.4 60.1 -18.4 68.35
L -14.85 76.35
Q -11.15 74.4 -7.65 72.45 -8.95 81.75 -8.8 84.45 -8.35 89.35 -4.9 92.05 -1.25 94.8 6.5 94.45 24.35 93.6 50.55 87.6 51.45 90.25 52.3 92.85
L 61.7 89.25
Q 56.9 75.4 53.05 63.15
L 43.95 65.75
Q 46 73 48.3 80.2 38.15 82.55 29.3 84.05
L 28.35 63.95 18.8 64.45 19.8 85.4
Q 13.5 86.35 7.95 86.6 0.9 86.95 0.7 83.4 0.55 80.4 2.45 68.75
L -0.8 68.7
Q 7.25 64.15 14.05 59.65 17.25 60.65 22.15 60.4 30.45 60 42.85 57.25
L 43.55 49.8
Q 31.45 52.9 23.6 53.25 23.35 53.3 23.15 53.3 37.9 43 51.2 31.05
M 51.35 42.05
L 60.6 43.1
Q 62.6 34 62.3 27.5 61.6 19.6 53.55 17.5 47.25 16.1 33.75 16.75
L 27.6 17.05
Q 26.65 17.1 25.4 17.15
L 25.15 11.85 15.3 12.35 15.6 18.45
Q 5.5 19.85 -9.65 23
L -9.8 19.65 -19.2 20.1 -17.9 47.5 -8.5 47.05 -9.25 31
Q 17.7 25.25 32.75 24.55 42.3 24.05 48.7 25 52.9 25.6 53.2 29.2 53.35 31.95 51.35 42.05
M 47.3 38.7
L 40.5 44.3
Q 45.95 51.85 53.2 58.95
L 60.35 52.6
Q 53.1 45.85 47.3 38.7
M 131.5 64
L 124.5 65.8
Q 126.95 72.75 130.55 80.3
L 137.85 78.5
Q 134.15 71.25 131.5 64
M 115.05 68.3
Q 117.2 77.85 120.25 87.85
L 127.55 86.1
Q 124.35 76.35 122.05 66.65
L 115.05 68.3
M 113.65 68.05
L 105.95 68.4
Q 106.35 77.45 105.55 90.05
L 113.6 89.95
Q 114.15 78.8 113.65 68.05
M 103.7 21.6
L 103.3 12.75 70.5 14.3 70.9 23.15 80.75 22.7
Q 78.25 33.45 76.15 40.95 73.25 50.6 69.45 60.25
L 75.95 63.15 77.25 90.25 86.45 89.8 86.35 88.05 105.4 87.15 105 78.4 103.3 78.5
Q 104.1 66.65 103.65 57.35 103.05 44.7 101.85 40.55 100.5 35.85 95.6 36.05
L 93.8 36.15
Q 91.35 36.25 86.8 38 88.65 31.25 90.45 22.25
L 103.7 21.6
M 84.4 46.55
Q 89.3 44.15 90.65 44.05 92.6 44 93 45.55 93.9 47.8 94.45 57.75 94.85 66.4 94.15 78.95
L 85.95 79.3 84.4 46.55
M 149.7 17.25
L 149.3 8.85 113.75 10.55 113.65 8.7 104.55 9.15 107.25 65.15 116.35 64.7 116.2 62.45
Q 134.35 58.7 141.1 58.35 143.05 58.25 143.75 58.8 144.7 59.45 145.05 66.7 145.2 69.7 145.3 72.1 142.25 66.3 140.15 60.45
L 133.5 62.3
Q 136.05 69.45 139.85 77.1
L 145.2 75.7
Q 145.2 77.55 145.15 78.95 145.1 81 142.55 81.15 137.7 81.35 131.25 80.75
L 132.65 88.45
Q 138.95 89.1 142.95 88.9
L 144.6 88.8
Q 149.65 88.45 151.65 86.9 153.95 85.1 154.15 81.5 154.55 75.15 154.15 66.25 153.55 54.3 151.4 52.55 148.8 50.5 144.15 50.7
L 142.2 50.8
Q 139.7 50.9 136.9 51.25
L 136.7 46.9 149.75 46.3 149.35 37.75 136.3 38.35 136 32.35 149.05 31.75 148.65 23.4 135.6 24 135.3 17.95 149.7 17.25
M 126.5 18.35
L 126.8 24.4 114.45 25 114.15 18.95 126.5 18.35
M 127.2 32.75
L 127.5 38.75 115.15 39.35 114.85 33.35 127.2 32.75
M 115.55 47.9
L 127.9 47.3 128.15 52.45
Q 122.5 53.35 115.85 54.8
L 115.55 47.9 Z"/>

<path fill="#FFFF99" stroke="none" d="
M 202.95 42.1
Q 206.25 34.45 206.25 32.4 206.25 24.85 197.3 24.85
L 195.05 24.85
Q 188.85 24.85 171.4 28.8
L 172.95 37.1
Q 189.85 33.85 193.35 33.85 195.15 33.85 195.15 35.75 195.15 36.35 193.35 40.3 188.3 52.1 183.35 60.6 178.6 69.15 170 81.35
L 178.6 86.65
Q 187.85 73.1 193.5 62.6 198.75 52.8 202.95 42.1
M 253 26.65
L 245.45 18.75
Q 241.6 23.15 236.45 27.75 230.8 32.7 221.65 38.45 221.55 38.25 221.35 38.05
L 221.35 6.55 211.3 6.55 211.3 76.6
Q 211.3 79.55 210.6 80.65 209.05 82.1 204.5 82.1 198.9 82.1 189.4 80.9
L 190.45 89.3
Q 201.7 90.25 207.45 90.25
L 210.25 90.25
Q 216.25 90.25 219.1 87.2 221.35 84.35 221.35 79.15
L 221.35 54.25
Q 234.1 72.2 247.95 87.75
L 255.85 80.2
Q 240.4 63.75 227.1 45.95 236.75 40.4 242.95 35.65 248.05 31.4 253 26.65
M 327 7.95
L 324.25 7.95
Q 311.05 7.95 282.1 10.75
L 282.1 7.6 272.4 7.6 272.4 52.55 282.1 52.55 282.1 51.2 300.45 51.2 300.45 56.5 263.4 56.5 263.4 65.45 277.7 65.45
Q 272.6 75.55 265.95 85.7
L 274.9 90.25
Q 282.1 78.95 288.65 65.45
L 300.45 65.45 300.45 90.25 310.15 90.25 310.15 65.45 322.55 65.45
Q 327.2 76.5 335.3 89.9
L 344.65 86.3
Q 337.8 75.55 333.05 65.45
L 346.45 65.45 346.45 56.5 310.15 56.5 310.15 51.2 338.9 51.2 338.9 42.1 337.6 42.1
Q 339.25 29 339.25 18.75 339.25 13.7 336.45 10.95 333.65 7.95 327 7.95
M 326.3 15.5
Q 329.55 15.5 329.55 18.4 329.55 21.45 329.35 24.85
L 310.15 24.85 310.15 16.05
Q 319.2 15.5 326.3 15.5
M 328.75 33.85
Q 328.35 37.8 327.9 42.1
L 310.15 42.1 310.15 33.85 328.75 33.85
M 300.45 16.75
L 300.45 24.85 282.1 24.85 282.1 18.4
Q 292 17.4 300.45 16.75
M 300.45 33.85
L 300.45 42.1 282.1 42.1 282.1 33.85 300.45 33.85
M 384.5 10.5
L 383.45 10.5
Q 382.45 10.5 380.65 10.65 381.4 8.6 382 6.15
L 372.3 5.45
Q 371.65 9.15 370.8 12 369.5 12.35 368 12.55
L 368 10.85 358.65 10.85 358.65 30.6 355.05 30.6 355.05 39.3 358.65 39.3 358.65 60.45 368 60.45 368 39.3 373.4 39.3 373.4 49.65 382.35 49.65 382.35 39.3 387.95 39.3
Q 387.65 43.9 386.95 49.75 386.7 52.55 383.8 52.55 381.45 52.55 376.6 51.8
L 377 59.7
Q 384.35 60.45 389.55 60.45 395.85 60.45 396.55 52.6 397.2 46.05 397.35 39.3
L 401.05 39.3 401.05 30.6 397.35 30.6
Q 397 19.9 395.75 15.7 393.8 10.5 384.5 10.5
M 381.75 20.9
Q 379.95 19.45 377.7 19.45 375 19.45 373.3 21.25 371.95 22.9 371.95 25.2 371.95 27.2 373.4 29 374.35 30.15 375.65 30.6
L 368 30.6 368 19.3
Q 379.2 17.65 384.15 17.65 386.75 17.65 387.2 19.65 387.95 22.45 388.1 30.6
L 379.6 30.6
Q 380.55 30.25 381.45 29.55 383.45 27.8 383.45 25.2 383.45 22.5 381.75 20.9
M 424.4 62.3
L 421.2 62.3
Q 397.75 62.3 370.85 64.65
L 370.85 62.95 361.15 62.95 361.15 79.85 356.15 79.85 356.15 88.9 438.05 88.9 438.05 79.85 432.3 79.85
Q 433.05 72.2 433.05 69.4 433.05 62.3 424.4 62.3
M 421.55 70.25
Q 423.35 70.25 423.35 72.65 423.35 75 422.8 79.85
L 411.85 79.85 411.85 70.3
Q 416.8 70.25 421.55 70.25
M 391.45 70.85
Q 397.1 70.7 402.5 70.5
L 402.5 79.85 391.45 79.85 391.45 70.85
M 370.85 72.05
Q 376.55 71.65 382 71.3
L 382 79.85 370.85 79.85 370.85 72.05
M 422.55 40.15
Q 420.1 41.85 417.5 43.65 414.6 41.65 411.85 39.7
L 405 44.65
Q 407.5 46.5 410.15 48.6 404.85 51.9 398.9 55.4
L 403.95 62.3
Q 411.65 57.75 417.65 53.7 424.5 58.1 432.3 62.7
L 439.5 56.85
Q 431.95 52.7 425.15 48.5 428.45 45.95 431.15 43.65 438.45 37.9 438.45 34.2 438.15 28.8 430.9 28.8
L 429.8 28.8
Q 420.2 28.8 401.75 33.15
L 403.2 40.3
Q 420.45 36.35 425.15 36.35 425.95 36.35 425.95 37.1 425.95 37.6 422.55 40.15
M 427.1 6.55
L 425.95 6.55
Q 420.3 6.55 410.05 9.5
L 410.05 7.6 400.7 7.6 400.7 29.15 410.05 29.15 410.05 16.15
Q 418.65 13.7 422.25 13.7 423.35 13.7 423.35 15.5
L 423.35 23.05
Q 423.35 27 429.45 27
L 431.25 27
Q 434.5 27 439.5 25.95
L 439.85 18.75
Q 435.9 19.9 435.2 19.9 432.7 19.9 432.7 19.1
L 432.7 11.2
Q 432.7 6.55 427.1 6.55 Z"/>
</g>

<path id="_____0_Layer2_0_MEMBER_2_1_STROKES" stroke="#FCC627" stroke-width="0.15" stroke-linejoin="miter" stroke-linecap="butt" stroke-miterlimit="4" fill="none" d="
M 393.65237960815426 17.022483825683597
Q 403.8302764892578 19.33120803833008 408.155069732666 20.176656341552732 414.0081733703613 21.282242584228516 420.41407012939453 21.99762191772461 421.454621887207 21.965104675292967 421.6172080993652 21.217208099365234
L 421.55217361450195 20.4693115234375
Q 416.3168975830078 13.64069061279297 412.74000091552733 9.055759429931644 405.9764144897461 0.34113845825195455 403.08237991333004 -2.227723693847654 401.81420745849607 -3.333309936523438 399.3103797912598 -0.9920684814453118 396.96913833618163 1.1865867614746115 394.855517578125 4.991104125976566 392.67686233520504 8.990724945068362 392.18910369873043 12.177414703369141 391.6037933349609 15.884380340576175 393.65237960815426 17.022483825683597 Z"/>

<path id="_____0_Layer2_0_MEMBER_3_1_STROKES" stroke="#FCC627" stroke-width="0.15" stroke-linejoin="miter" stroke-linecap="butt" stroke-miterlimit="4" fill="none" d="
M 458.88196792602537 23.07069091796875
Q 457.64631271362305 21.477346038818357 447.3708641052246 20.85951843261719 439.7618293762207 20.436794281005863 431.30734634399414 20.631897735595704 430.2017601013183 20.66441497802734 429.6814842224121 21.770001220703126 429.1937255859375 22.87558746337891 430.0716911315918 23.46089782714844 437.35555343627925 28.208415222167975 441.58279495239253 32.143001556396484 444.60689849853514 34.97200164794921 450.78517456054686 42.19082946777344 455.4351402282715 39.3618293762207 458.49176101684566 33.89893264770508 462.13369216918943 27.362966918945308 458.88196792602537 23.07069091796875 Z"/>

<path id="_____0_Layer2_0_MEMBER_4_1_STROKES" stroke="#FCC627" stroke-width="0.15" stroke-linejoin="miter" stroke-linecap="butt" stroke-miterlimit="4" fill="none" d="
M 448.4439331054688 42.41845016479492
Q 448.9316917419434 41.377898406982425 446.88310546875 37.9961051940918 444.8345191955566 34.64682922363281 441.64782943725584 31.232518768310545 433.2908981323242 22.355311584472656 428.3807945251465 24.468932342529296 426.91751861572266 24.859139251708985 426.33220825195315 25.6720703125 425.8444496154785 26.322415161132813 425.77941513061523 27.52555313110351 425.61682891845703 30.517139434814457 424.05600128173825 39.654484558105466 423.14551849365233 44.92227783203124 424.4787254333496 50.4827262878418 428.966104888916 52.56382980346679 438.0384155273438 49.24707107543945 446.7205192565918 46.027864074707026 448.4439331054688 42.41845016479492 Z"/>

<path id="_____0_Layer2_0_MEMBER_5_1_STROKES" stroke="#FCC627" stroke-width="0.15" stroke-linejoin="miter" stroke-linecap="butt" stroke-miterlimit="4" fill="none" d="
M 404.5456558227539 -1.9350685119628892
Q 414.8211044311523 10.323931884765624 421.096932220459 18.81093215942383 421.71475982666016 19.656380462646485 422.9178977966308 18.81093215942383 423.53572540283204 18.420725250244143 424.02348403930665 17.835414886474613 425.259139251709 10.746656036376951 425.71438064575193 5.93410415649414 426.5598289489746 -3.008137512207032 424.51124267578126 -9.479068756103516 419.82875976562497 -11.007379150390625 411.049104309082 -7.853206634521484 407.27710418701173 -6.519999694824218 405.45613861083984 -4.991689300537107 403.40755233764645 -3.2682754516601555 404.5456558227539 -1.9350685119628892 Z"/>

<path id="_____0_Layer2_0_MEMBER_6_1_STROKES" stroke="#FCC627" stroke-width="0.3" stroke-linejoin="miter" stroke-linecap="butt" stroke-miterlimit="4" fill="none" d="
M 400.74113845825195 39.84958801269531
Q 402.33448333740233 40.56496734619141 410.1386215209961 34.61431198120117 422.1049667358398 25.509484100341798 422.267552947998 25.411932373046877 423.1130012512207 24.859139251708985 422.98293228149413 23.786070251464846 422.8528633117676 22.713001251220707 421.90986328125 22.355311584472656 414.52844924926757 19.78644943237305 403.1148971557617 18.193104553222657 391.863931274414 16.664794158935546 392.1240692138672 18.128070068359374 391.051000213623 23.038173675537113 393.39224166870116 29.99686355590821 395.9936210632324 37.67093276977539 400.74113845825195 39.84958801269531 Z"/>

<path id="_____0_Layer2_0_MEMBER_7_1_STROKES" stroke="#FCC627" stroke-width="0.15" stroke-linejoin="miter" stroke-linecap="butt" stroke-miterlimit="4" fill="none" d="
M 451.4680366516113 0.6663108825683608
Q 449.8421745300293 0.11351776123046875 442.59082946777346 6.974655914306641 433.55103607177733 15.494173431396487 430.13672561645507 17.575276947021482 429.2587600708008 18.128070068359374 429.6814842224121 19.461277008056644 429.9091049194336 20.111621856689457 430.29931182861327 20.66441497802734 433.8111740112305 21.99762191772461 442.3306915283203 21.99762191772461 446.0376571655273 21.965104675292967 458.45924377441406 21.379794311523437 461.2232093811035 17.120035552978518 459.2071403503418 9.998759460449218 457.09351959228513 2.4872764587402365 451.4680366516113 0.6663108825683608 Z"/>

<path id="_____0_Layer2_0_MEMBER_8_1_STROKES" stroke="#FCC627" stroke-width="0.15" stroke-linejoin="miter" stroke-linecap="butt" stroke-miterlimit="4" fill="none" d="
M 426.49479446411135 -9.901792907714842
Q 424.6413116455078 -9.15389633178711 424.83641510009767 -0.2116546630859375 424.9664840698242 5.413828277587893 426.03955307006834 15.591725158691407 426.16962203979494 16.72982864379883 426.81996688842776 17.347656250000004 427.5353462219238 17.96548385620117 428.4783462524414 17.510242462158207 434.6566223144531 14.356069946289065 439.9894500732422 8.925690460205079 443.07858810424807 5.8365524291992195 449.3544158935547 -0.86199951171875 448.11876068115237 -5.186792755126952 440.1195190429687 -8.601103210449217 431.86013946533205 -12.080448150634766 426.49479446411135 -9.901792907714842 Z"/>

<path id="_____0_Layer2_0_MEMBER_9_1_STROKES" stroke="#FCC627" stroke-width="0.15" stroke-linejoin="miter" stroke-linecap="butt" stroke-miterlimit="4" fill="none" d="
M 422.13748397827146 50.547760772705075
Q 423.69831161499025 49.73482971191406 424.1535530090332 41.573001861572266 424.77138061523436 30.777277374267573 425.6818634033203 27.070311737060553 425.94200134277344 26.062277221679683 424.67382888793946 25.444449615478515
L 423.37313919067384 25.021725463867188
Q 418.7882080078125 27.070311737060553 412.9351043701172 31.265036010742183 405.94389724731445 36.2401741027832 400.9362419128418 41.76810531616211 402.9523109436035 45.605139923095706 409.5533111572266 49.08448486328125 417.1298286437988 53.0515884399414 422.13748397827146 50.547760772705075 Z"/>

<path id="_____0_Layer2_0_MEMBER_10_1_STROKES" stroke="#FCC627" stroke-width="0.3" stroke-linejoin="miter" stroke-linecap="butt" stroke-miterlimit="4" fill="none" d="
M 424.169811630249 50.75912284851074
Q 423.696660348773 49.09032780528068 424.67382888793946 37.9961051940918 425.7468978881836 25.607035827636718 423.69831161499025 24.794104766845702
L 403.70020751953126 38.87407073974609
Q 405.55369033813474 37.15065689086914 409.1305870056152 34.64682922363281 413.22775955200194 31.882863616943357 415.1137596130371 30.517139434814457 421.87734603881836 25.542001342773435 421.81231155395506 22.12769088745117 410.3012077331543 19.461277008056644 394.5303451538086 17.41269073486328 404.5781730651855 17.90044937133789 407.7323455810547 18.128070068359374 414.69103546142577 18.64834594726563 420.5441390991211 19.688897705078123
L 405.5862075805664 -0.30920639038085795
Q 408.8054145812988 3.5278282165527344 416.1543113708496 12.372518157958982 422.20251846313477 19.136104583740238 423.990966796875 18.030518341064454
L 425.0640357971191 -5.674551391601561
Q 425.61682891845703 -1.0245857238769531 425.3241737365723 10.486518096923827 425.5192771911621 19.23365631103516 428.608415222168 17.477725219726562 434.754174041748 14.2260009765625 437.42058792114256 11.657138824462894 439.07896728515624 10.031276702880863 443.79396743774413 5.218724822998045
L 430.2667945861816 19.91651840209961 454.1344505310059 21.802518463134763 429.5514152526855 21.737483978271488
Q 435.664656829834 24.924173736572268 439.24155349731444 28.696173858642585 441.42020874023433 31.037415313720704 446.1026916503906 36.82548446655274 444.3142433166504 35.26465682983398 441.3551742553711 32.11048431396485 438.59120864868163 29.151415252685542 437.19296722412105 27.980794525146482 432.54300155639646 24.078725433349607 426.95003585815425 25.151794433593754 426.26717376708984 25.21682891845703 424.99900131225587 38.45134658813477 424.00786052048204 49.093503317236895 424.169811630249 50.75912284851074 Z
M 424.169811630249 50.75912284851074
Q 424.20677458941935 51.170669198036194 424.3161392211914 51.035519409179685"/>

<path id="_____0_Layer1_0_1_STROKES" stroke="#CC6600" stroke-width="10" stroke-linejoin="round" stroke-linecap="round" fill="none" d="
M 400.7 7.6
L 410.05 7.6 410.05 9.5
Q 420.3 6.55 425.95 6.55
L 427.1 6.55
Q 432.7 6.55 432.7 11.2
L 432.7 19.1
Q 432.7 19.9 435.2 19.9 435.9 19.9 439.85 18.75
L 439.5 25.95
Q 434.5 27 431.25 27
L 429.45 27
Q 423.35 27 423.35 23.05
L 423.35 15.5
Q 423.35 13.7 422.25 13.7 418.65 13.7 410.05 16.15
L 410.05 29.15 400.7 29.15 400.7 7.6 Z
M 429.8 28.8
L 430.9 28.8
Q 438.15 28.8 438.45 34.2 438.45 37.9 431.15 43.65 428.45 45.95 425.15 48.5 431.95 52.7 439.5 56.85
L 432.3 62.7
Q 424.5 58.1 417.65 53.7 411.65 57.75 403.95 62.3
L 398.9 55.4
Q 404.85 51.9 410.15 48.6 407.5 46.5 405 44.65
L 411.85 39.7
Q 414.6 41.65 417.5 43.65 420.1 41.85 422.55 40.15 425.95 37.6 425.95 37.1 425.95 36.35 425.15 36.35 420.45 36.35 403.2 40.3
L 401.75 33.15
Q 420.2 28.8 429.8 28.8 Z
M 411.85 79.85
L 422.8 79.85
Q 423.35 75 423.35 72.65 423.35 70.25 421.55 70.25 416.8 70.25 411.85 70.3
L 411.85 79.85 Z
M 361.15 62.95
L 370.85 62.95 370.85 64.65
Q 397.75 62.3 421.2 62.3
L 424.4 62.3
Q 433.05 62.3 433.05 69.4 433.05 72.2 432.3 79.85
L 438.05 79.85 438.05 88.9 356.15 88.9 356.15 79.85 361.15 79.85 361.15 62.95 Z
M 372.3 5.45
L 382 6.15
Q 381.4 8.6 380.65 10.65 382.45 10.5 383.45 10.5
L 384.5 10.5
Q 393.8 10.5 395.75 15.7 397 19.9 397.35 30.6
L 401.05 30.6 401.05 39.3 397.35 39.3
Q 397.2 46.05 396.55 52.6 395.85 60.45 389.55 60.45 384.35 60.45 377 59.7
L 376.6 51.8
Q 381.45 52.55 383.8 52.55 386.7 52.55 386.95 49.75 387.65 43.9 387.95 39.3
L 382.35 39.3 382.35 49.65 373.4 49.65 373.4 39.3 368 39.3 368 60.45 358.65 60.45 358.65 39.3 355.05 39.3 355.05 30.6 358.65 30.6 358.65 10.85 368 10.85 368 12.55
Q 369.5 12.35 370.8 12 371.65 9.15 372.3 5.45 Z
M 368 30.6
L 375.65 30.6
Q 374.35 30.15 373.4 29 371.95 27.2 371.95 25.2 371.95 22.9 373.3 21.25 375 19.45 377.7 19.45 379.95 19.45 381.75 20.9 383.45 22.5 383.45 25.2 383.45 27.8 381.45 29.55 380.55 30.25 379.6 30.6
L 388.1 30.6
Q 387.95 22.45 387.2 19.65 386.75 17.65 384.15 17.65 379.2 17.65 368 19.3
L 368 30.6 Z
M 310.15 16.05
L 310.15 24.85 329.35 24.85
Q 329.55 21.45 329.55 18.4 329.55 15.5 326.3 15.5 319.2 15.5 310.15 16.05 Z
M 272.4 7.6
L 282.1 7.6 282.1 10.75
Q 311.05 7.95 324.25 7.95
L 327 7.95
Q 333.65 7.95 336.45 10.95 339.25 13.7 339.25 18.75 339.25 29 337.6 42.1
L 338.9 42.1 338.9 51.2 310.15 51.2 310.15 56.5 346.45 56.5 346.45 65.45 333.05 65.45
Q 337.8 75.55 344.65 86.3
L 335.3 89.9
Q 327.2 76.5 322.55 65.45
L 310.15 65.45 310.15 90.25 300.45 90.25 300.45 65.45 288.65 65.45
Q 282.1 78.95 274.9 90.25
L 265.95 85.7
Q 272.6 75.55 277.7 65.45
L 263.4 65.45 263.4 56.5 300.45 56.5 300.45 51.2 282.1 51.2 282.1 52.55 272.4 52.55 272.4 7.6 Z
M 310.15 33.85
L 310.15 42.1 327.9 42.1
Q 328.35 37.8 328.75 33.85
L 310.15 33.85 Z
M 391.45 79.85
L 402.5 79.85 402.5 70.5
Q 397.1 70.7 391.45 70.85
L 391.45 79.85 Z
M 370.85 79.85
L 382 79.85 382 71.3
Q 376.55 71.65 370.85 72.05
L 370.85 79.85 Z
M 282.1 42.1
L 300.45 42.1 300.45 33.85 282.1 33.85 282.1 42.1 Z
M 282.1 24.85
L 300.45 24.85 300.45 16.75
Q 292 17.4 282.1 18.4
L 282.1 24.85 Z
M 211.3 6.55
L 221.35 6.55 221.35 38.05
Q 221.55 38.25 221.65 38.45 230.8 32.7 236.45 27.75 241.6 23.15 245.45 18.75
L 253 26.65
Q 248.05 31.4 242.95 35.65 236.75 40.4 227.1 45.95 240.4 63.75 255.85 80.2
L 247.95 87.75
Q 234.1 72.2 221.35 54.25
L 221.35 79.15
Q 221.35 84.35 219.1 87.2 216.25 90.25 210.25 90.25
L 207.45 90.25
Q 201.7 90.25 190.45 89.3
L 189.4 80.9
Q 198.9 82.1 204.5 82.1 209.05 82.1 210.6 80.65 211.3 79.55 211.3 76.6
L 211.3 6.55 Z
M 195.05 24.85
L 197.3 24.85
Q 206.25 24.85 206.25 32.4 206.25 34.45 202.95 42.1 198.75 52.8 193.5 62.6 187.85 73.1 178.6 86.65
L 170 81.35
Q 178.6 69.15 183.35 60.6 188.3 52.1 193.35 40.3 195.15 36.35 195.15 35.75 195.15 33.85 193.35 33.85 189.85 33.85 172.95 37.1
L 171.4 28.8
Q 188.85 24.85 195.05 24.85 Z"/>

<path id="_____0_Layer1_0_2_STROKES" stroke="#339900" stroke-width="10" stroke-linejoin="round" stroke-linecap="round" fill="none" d="
M 136.9 51.25
Q 139.7 50.9 142.2 50.8
L 144.15 50.7
Q 144.75 50.65 145.3 50.7 149.1 50.75 151.4 52.55 153.55 54.3 154.15 66.25 154.55 75.15 154.15 81.5 153.95 85.1 151.65 86.9 150.15 88 147.1 88.55 145.95 88.7 144.6 88.8
L 142.95 88.9
Q 138.95 89.1 132.65 88.45
L 131.25 80.75
Q 137.7 81.35 142.55 81.15 145.1 81 145.15 78.95 145.2 77.55 145.2 75.7
L 139.85 77.1
Q 136.05 69.45 133.5 62.3
L 140.15 60.45
Q 142.25 66.3 145.3 72.1 145.2 69.7 145.05 66.7 144.7 59.45 143.75 58.8 143.05 58.25 141.1 58.35 134.35 58.7 116.2 62.45
L 116.35 64.7 107.25 65.15 104.55 9.15 113.65 8.7 113.75 10.55 149.3 8.85 149.7 17.25 135.3 17.95 135.6 24 148.65 23.4 149.05 31.75 136 32.35 136.3 38.35 149.35 37.75 149.75 46.3 136.7 46.9 136.9 51.25 Z
M 114.15 18.95
L 114.45 25 126.8 24.4 126.5 18.35 114.15 18.95 Z
M 114.85 33.35
L 115.15 39.35 127.5 38.75 127.2 32.75 114.85 33.35 Z
M 70.5 14.3
L 103.3 12.75 103.7 21.6 90.45 22.25
Q 88.65 31.25 86.8 38 91.35 36.25 93.8 36.15
L 95.6 36.05
Q 100.5 35.85 101.85 40.55 103.05 44.7 103.65 57.35 104.1 66.65 103.3 78.5
L 105 78.4 105.4 87.15 86.35 88.05 86.45 89.8 77.25 90.25 75.95 63.15 69.45 60.25
Q 73.25 50.6 76.15 40.95 78.25 33.45 80.75 22.7
L 70.9 23.15 70.5 14.3 Z
M 85.95 79.3
L 94.15 78.95
Q 94.85 66.4 94.45 57.75 93.9 47.8 93 45.55 92.6 44 90.65 44.05 89.3 44.15 84.4 46.55
L 85.95 79.3 Z
M 105.95 68.4
L 113.65 68.05
Q 114.15 78.8 113.6 89.95
L 105.55 90.05
Q 106.35 77.45 105.95 68.4 Z
M 122.05 66.65
Q 124.35 76.35 127.55 86.1
L 120.25 87.85
Q 117.2 77.85 115.05 68.3
L 122.05 66.65 Z
M 131.5 64
Q 134.15 71.25 137.85 78.5
L 130.55 80.3
Q 126.95 72.75 124.5 65.8
L 131.5 64 Z
M 115.55 47.9
L 115.85 54.8
Q 122.5 53.35 128.15 52.45
L 127.9 47.3 115.55 47.9 Z
M 15.3 12.35
L 25.15 11.85 25.4 17.15
Q 26.65 17.1 27.6 17.05
L 33.75 16.75
Q 47.25 16.1 53.55 17.5 61.6 19.6 62.3 27.5 62.6 34 60.6 43.1
L 51.35 42.05
Q 53.35 31.95 53.2 29.2 52.9 25.6 48.7 25 42.3 24.05 32.75 24.55 17.7 25.25 -9.25 31
L -8.5 47.05 -17.9 47.5 -19.2 20.1 -9.8 19.65 -9.65 23
Q 5.5 19.85 15.6 18.45
L 15.3 12.35 Z
M 47.3 38.7
Q 53.1 45.85 60.35 52.6
L 53.2 58.95
Q 45.95 51.85 40.5 44.3
L 47.3 38.7 Z
M 8.05 30.4
L 17.2 30.6
Q 16.1 43.25 16.05 47.7 16.65 47.3 17.15 46.9 22.4 43.25 27.85 38.95 27 39.35 26.15 39.35 23.65 39.5 21.8 37.5 20.3 35.65 20.2 33.7 20.1 31.35 21.25 29.7 23 27.85 25.55 27.7 27.85 27.6 29.8 28.95 31.7 30.45 31.85 33.15 31.95 35 30.95 36.65 37.55 31.1 44.55 24.75
L 51.2 31.05
Q 37.9 43 23.15 53.3 23.35 53.3 23.6 53.25 31.45 52.9 43.55 49.8
L 42.85 57.25
Q 30.45 60 22.15 60.4 17.25 60.65 14.05 59.65 7.25 64.15 -0.8 68.7
L 2.45 68.75
Q 0.55 80.4 0.7 83.4 0.9 86.95 7.95 86.6 13.5 86.35 19.8 85.4
L 18.8 64.45 28.35 63.95 29.3 84.05
Q 38.15 82.55 48.3 80.2 46 73 43.95 65.75
L 53.05 63.15
Q 56.9 75.4 61.7 89.25
L 52.3 92.85
Q 51.45 90.25 50.55 87.6 24.35 93.6 6.5 94.45 -1.25 94.8 -4.9 92.05 -8.35 89.35 -8.8 84.45 -8.95 81.75 -7.65 72.45 -11.15 74.4 -14.85 76.35
L -18.4 68.35
Q -3.4 60.1 7.5 53.35 7.05 51.85 6.9 50.15 6.7 46 8.05 30.4 Z
M -4.85 34.15
L 4.35 34.45
Q 2.95 47.35 0.15 57.3
L -8.75 56.2
Q -6.1 46.9 -4.85 34.15 Z"/>
</defs>

<g transform="matrix( 0.96307373046875, 0, 0, 0.96307373046875, 47.05,16.65) ">
<g transform="matrix( 0.2724761962890625, -0.1327362060546875, 0.1327362060546875, 0.2724761962890625, 146.75,-8.2) ">
<use xlink:href="#_____0_Layer4_0_MEMBER_0_FILL"/>
</g>

<g transform="matrix( 0.2724761962890625, -0.1327362060546875, 0.1327362060546875, 0.2724761962890625, 146.75,-8.2) ">
<use xlink:href="#_____0_Layer4_0_MEMBER_1_FILL"/>
</g>

<g transform="matrix( 0.2724609375, -0.1327362060546875, 0.1327362060546875, 0.2724609375, 146.75,-8.2) ">
<use xlink:href="#_____0_Layer4_0_MEMBER_2_MEMBER_0_FILL"/>
</g>

<g transform="matrix( 0.2724609375, -0.1327362060546875, 0.1327362060546875, 0.2724609375, 146.75,-8.2) ">
<use xlink:href="#_____0_Layer4_0_MEMBER_2_MEMBER_1_FILL"/>
</g>

<g transform="matrix( 0.2724761962890625, -0.1327362060546875, 0.1327362060546875, 0.2724761962890625, 154.95,-0.25) ">
<g transform="matrix( 1, 0, 0, 1, 0,0) ">
<use filter="url(#Filter_1)" xlink:href="#flash0_ai____1_svg8_path43863_0_Layer0_0_FILL"/>
</g>
</g>

<g transform="matrix( 0.2724761962890625, -0.1327362060546875, 0.1327362060546875, 0.2724761962890625, 146.75,-8.2) ">
<use xlink:href="#_____0_Layer4_0_MEMBER_4_FILL"/>
</g>

<g transform="matrix( 0.2724761962890625, -0.1327362060546875, 0.1327362060546875, 0.2724761962890625, 146.75,-8.2) ">
<use xlink:href="#_____0_Layer4_0_MEMBER_5_FILL"/>
</g>

<g transform="matrix( 0.2724761962890625, -0.1327362060546875, 0.1327362060546875, 0.2724761962890625, 146.75,-8.2) ">
<use xlink:href="#_____0_Layer4_0_MEMBER_6_FILL"/>
</g>

<g transform="matrix( 0.2724761962890625, -0.1327362060546875, 0.1327362060546875, 0.2724761962890625, 146.75,-8.2) ">
<use xlink:href="#_____0_Layer4_0_MEMBER_7_FILL"/>
</g>

<g transform="matrix( 0.2724761962890625, -0.1327362060546875, 0.1327362060546875, 0.2724761962890625, 146.75,-8.2) ">
<use xlink:href="#_____0_Layer4_0_MEMBER_8_FILL"/>
</g>

<g transform="matrix( 0.2724761962890625, -0.1327362060546875, 0.1327362060546875, 0.2724761962890625, 146.75,-8.2) ">
<use xlink:href="#_____0_Layer4_0_MEMBER_9_FILL"/>
</g>

<g transform="matrix( 0.2724609375, -0.1327362060546875, 0.1327362060546875, 0.2724609375, 146.75,-8.2) ">
<use xlink:href="#_____0_Layer4_0_MEMBER_10_MEMBER_0_FILL"/>
</g>

<g transform="matrix( 0.2724609375, -0.1327362060546875, 0.1327362060546875, 0.2724609375, 146.75,-8.2) ">
<use xlink:href="#_____0_Layer4_0_MEMBER_10_MEMBER_1_FILL"/>
</g>

<g transform="matrix( 0.2724609375, -0.1327362060546875, 0.1327362060546875, 0.2724609375, 146.75,-8.2) ">
<use xlink:href="#_____0_Layer4_0_MEMBER_11_MEMBER_0_FILL"/>
</g>

<g transform="matrix( 0.2724609375, -0.1327362060546875, 0.1327362060546875, 0.2724609375, 146.75,-8.2) ">
<use xlink:href="#_____0_Layer4_0_MEMBER_11_MEMBER_1_FILL"/>
</g>

<g transform="matrix( 0.2724609375, -0.1327362060546875, 0.1327362060546875, 0.2724609375, 146.75,-8.2) ">
<use xlink:href="#_____0_Layer4_0_MEMBER_12_MEMBER_0_FILL"/>
</g>

<g transform="matrix( 0.2724609375, -0.1327362060546875, 0.1327362060546875, 0.2724609375, 146.75,-8.2) ">
<use xlink:href="#_____0_Layer4_0_MEMBER_12_MEMBER_1_FILL"/>
</g>

<g transform="matrix( 0.2724609375, -0.1327362060546875, 0.1327362060546875, 0.2724609375, 146.75,-8.2) ">
<use xlink:href="#_____0_Layer4_0_MEMBER_13_MEMBER_0_FILL"/>
</g>

<g transform="matrix( 0.2724609375, -0.1327362060546875, 0.1327362060546875, 0.2724609375, 146.75,-8.2) ">
<use xlink:href="#_____0_Layer4_0_MEMBER_13_MEMBER_1_FILL"/>
</g>

<g transform="matrix( 0.2724609375, -0.1327362060546875, 0.1327362060546875, 0.2724609375, 146.75,-8.2) ">
<use xlink:href="#_____0_Layer4_0_MEMBER_14_MEMBER_0_FILL"/>
</g>

<g transform="matrix( 0.2724609375, -0.1327362060546875, 0.1327362060546875, 0.2724609375, 146.75,-8.2) ">
<use xlink:href="#_____0_Layer4_0_MEMBER_14_MEMBER_1_FILL"/>
</g>

<g transform="matrix( 0.2724609375, -0.1327362060546875, 0.1327362060546875, 0.2724609375, 146.75,-8.2) ">
<use xlink:href="#_____0_Layer4_0_MEMBER_15_MEMBER_0_FILL"/>
</g>

<g transform="matrix( 0.2724609375, -0.1327362060546875, 0.1327362060546875, 0.2724609375, 146.75,-8.2) ">
<use xlink:href="#_____0_Layer4_0_MEMBER_15_MEMBER_1_FILL"/>
</g>

<g transform="matrix( 0.2724609375, -0.1327362060546875, 0.1327362060546875, 0.2724609375, 146.75,-8.2) ">
<use xlink:href="#_____0_Layer4_0_MEMBER_16_MEMBER_0_FILL"/>
</g>

<g transform="matrix( 0.2724609375, -0.1327362060546875, 0.1327362060546875, 0.2724609375, 146.75,-8.2) ">
<use xlink:href="#_____0_Layer4_0_MEMBER_16_MEMBER_1_FILL"/>
</g>

<g transform="matrix( 0.2724609375, -0.1327362060546875, 0.1327362060546875, 0.2724609375, 146.75,-8.2) ">
<use xlink:href="#_____0_Layer4_0_MEMBER_17_MEMBER_0_FILL"/>
</g>

<g transform="matrix( 0.2724609375, -0.1327362060546875, 0.1327362060546875, 0.2724609375, 146.75,-8.2) ">
<use xlink:href="#_____0_Layer4_0_MEMBER_17_MEMBER_1_FILL"/>
</g>

<g transform="matrix( 0.2724609375, -0.1327362060546875, 0.1327362060546875, 0.2724609375, 146.75,-8.2) ">
<use xlink:href="#_____0_Layer4_0_MEMBER_18_MEMBER_0_FILL"/>
</g>

<g transform="matrix( 0.2724609375, -0.1327362060546875, 0.1327362060546875, 0.2724609375, 146.75,-8.2) ">
<use xlink:href="#_____0_Layer4_0_MEMBER_18_MEMBER_1_FILL"/>
</g>

<g transform="matrix( 0.2724609375, -0.1327362060546875, 0.1327362060546875, 0.2724609375, 146.75,-8.2) ">
<use xlink:href="#_____0_Layer4_0_MEMBER_19_MEMBER_0_FILL"/>
</g>

<g transform="matrix( 0.2724609375, -0.1327362060546875, 0.1327362060546875, 0.2724609375, 146.75,-8.2) ">
<use xlink:href="#_____0_Layer4_0_MEMBER_19_MEMBER_1_FILL"/>
</g>

<g transform="matrix( 0.2724609375, -0.1327362060546875, 0.1327362060546875, 0.2724609375, 146.75,-8.2) ">
<use xlink:href="#_____0_Layer4_0_MEMBER_20_MEMBER_0_FILL"/>
</g>

<g transform="matrix( 0.2724609375, -0.1327362060546875, 0.1327362060546875, 0.2724609375, 146.75,-8.2) ">
<use xlink:href="#_____0_Layer4_0_MEMBER_20_MEMBER_1_FILL"/>
</g>

<g transform="matrix( 0.2724609375, -0.1327362060546875, 0.1327362060546875, 0.2724609375, 146.75,-8.2) ">
<use xlink:href="#_____0_Layer4_0_MEMBER_21_MEMBER_0_FILL"/>
</g>

<g transform="matrix( 0.2724609375, -0.1327362060546875, 0.1327362060546875, 0.2724609375, 146.75,-8.2) ">
<use xlink:href="#_____0_Layer4_0_MEMBER_21_MEMBER_1_FILL"/>
</g>

<g transform="matrix( 0.2724609375, -0.1327362060546875, 0.1327362060546875, 0.2724609375, 146.75,-8.2) ">
<use xlink:href="#_____0_Layer4_0_MEMBER_22_MEMBER_0_FILL"/>
</g>

<g transform="matrix( 0.2724609375, -0.1327362060546875, 0.1327362060546875, 0.2724609375, 146.75,-8.2) ">
<use xlink:href="#_____0_Layer4_0_MEMBER_22_MEMBER_1_FILL"/>
</g>

<g transform="matrix( 0.2724609375, -0.1327362060546875, 0.1327362060546875, 0.2724609375, 146.75,-8.2) ">
<use xlink:href="#_____0_Layer4_0_MEMBER_23_MEMBER_0_FILL"/>
</g>

<g transform="matrix( 0.2724609375, -0.1327362060546875, 0.1327362060546875, 0.2724609375, 146.75,-8.2) ">
<use xlink:href="#_____0_Layer4_0_MEMBER_23_MEMBER_1_FILL"/>
</g>

<g transform="matrix( 0.2724609375, -0.1327362060546875, 0.1327362060546875, 0.2724609375, 146.75,-8.2) ">
<use xlink:href="#_____0_Layer4_0_MEMBER_24_MEMBER_0_FILL"/>
</g>

<g transform="matrix( 0.2724609375, -0.1327362060546875, 0.1327362060546875, 0.2724609375, 146.75,-8.2) ">
<use xlink:href="#_____0_Layer4_0_MEMBER_24_MEMBER_1_FILL"/>
</g>

<g transform="matrix( 0.2724609375, -0.1327362060546875, 0.1327362060546875, 0.2724609375, 146.75,-8.2) ">
<use xlink:href="#_____0_Layer4_0_MEMBER_25_MEMBER_0_FILL"/>
</g>

<g transform="matrix( 0.2724609375, -0.1327362060546875, 0.1327362060546875, 0.2724609375, 146.75,-8.2) ">
<use xlink:href="#_____0_Layer4_0_MEMBER_25_MEMBER_1_FILL"/>
</g>

<g transform="matrix( 0.2724609375, -0.1327362060546875, 0.1327362060546875, 0.2724609375, 146.75,-8.2) ">
<use xlink:href="#_____0_Layer4_0_MEMBER_26_MEMBER_0_FILL"/>
</g>

<g transform="matrix( 0.2724609375, -0.1327362060546875, 0.1327362060546875, 0.2724609375, 146.75,-8.2) ">
<use xlink:href="#_____0_Layer4_0_MEMBER_26_MEMBER_1_FILL"/>
</g>

<g transform="matrix( 0.2724609375, -0.1327362060546875, 0.1327362060546875, 0.2724609375, 146.75,-8.2) ">
<use xlink:href="#_____0_Layer4_0_MEMBER_27_MEMBER_0_FILL"/>
</g>

<g transform="matrix( 0.2724609375, -0.1327362060546875, 0.1327362060546875, 0.2724609375, 146.75,-8.2) ">
<use xlink:href="#_____0_Layer4_0_MEMBER_27_MEMBER_1_FILL"/>
</g>

<g transform="matrix( 0.2724609375, -0.1327362060546875, 0.1327362060546875, 0.2724609375, 146.75,-8.2) ">
<use xlink:href="#_____0_Layer4_0_MEMBER_28_MEMBER_0_FILL"/>
</g>

<g transform="matrix( 0.2724609375, -0.1327362060546875, 0.1327362060546875, 0.2724609375, 146.75,-8.2) ">
<use xlink:href="#_____0_Layer4_0_MEMBER_28_MEMBER_1_FILL"/>
</g>

<g transform="matrix( 0.2724609375, -0.1327362060546875, 0.1327362060546875, 0.2724609375, 146.75,-8.2) ">
<use xlink:href="#_____0_Layer4_0_MEMBER_29_MEMBER_0_FILL"/>
</g>

<g transform="matrix( 0.2724609375, -0.1327362060546875, 0.1327362060546875, 0.2724609375, 146.75,-8.2) ">
<use xlink:href="#_____0_Layer4_0_MEMBER_29_MEMBER_1_FILL"/>
</g>

<g transform="matrix( 0.2724609375, -0.1327362060546875, 0.1327362060546875, 0.2724609375, 146.75,-8.2) ">
<use xlink:href="#_____0_Layer4_0_MEMBER_30_MEMBER_0_FILL"/>
</g>

<g transform="matrix( 0.2724609375, -0.1327362060546875, 0.1327362060546875, 0.2724609375, 146.75,-8.2) ">
<use xlink:href="#_____0_Layer4_0_MEMBER_30_MEMBER_1_FILL"/>
</g>

<g transform="matrix( 0.2724609375, -0.1327362060546875, 0.1327362060546875, 0.2724609375, 146.75,-8.2) ">
<use xlink:href="#_____0_Layer4_0_MEMBER_31_MEMBER_0_FILL"/>
</g>

<g transform="matrix( 0.2724609375, -0.1327362060546875, 0.1327362060546875, 0.2724609375, 146.75,-8.2) ">
<use xlink:href="#_____0_Layer4_0_MEMBER_31_MEMBER_1_FILL"/>
</g>

<g transform="matrix( 0.2724609375, -0.1327362060546875, 0.1327362060546875, 0.2724609375, 146.75,-8.2) ">
<use xlink:href="#_____0_Layer4_0_MEMBER_32_MEMBER_0_FILL"/>
</g>

<g transform="matrix( 0.2724609375, -0.1327362060546875, 0.1327362060546875, 0.2724609375, 146.75,-8.2) ">
<use xlink:href="#_____0_Layer4_0_MEMBER_32_MEMBER_1_FILL"/>
</g>

<g transform="matrix( 0.2810821533203125, 0.097747802734375, -0.097747802734375, 0.2810821533203125, -35.8,54.2) ">
<use xlink:href="#_____0_Layer3_0_MEMBER_0_MEMBER_0_MEMBER_0_FILL"/>
</g>

<g transform="matrix( 0.281097412109375, 0.097747802734375, -0.097747802734375, 0.281097412109375, -35.8,54.2) ">
<use xlink:href="#_____0_Layer3_0_MEMBER_0_MEMBER_1_FILL"/>
</g>

<g transform="matrix( 0.281097412109375, 0.097747802734375, -0.097747802734375, 0.281097412109375, -35.8,54.2) ">
<use xlink:href="#_____0_Layer3_0_MEMBER_0_MEMBER_2_FILL"/>
</g>

<g transform="matrix( 0.281097412109375, 0.097747802734375, -0.097747802734375, 0.281097412109375, -35.8,54.2) ">
<use xlink:href="#_____0_Layer3_0_MEMBER_0_MEMBER_3_FILL"/>
</g>

<g transform="matrix( 0.281097412109375, 0.097747802734375, -0.097747802734375, 0.281097412109375, -35.8,54.2) ">
<use xlink:href="#_____0_Layer3_0_MEMBER_0_MEMBER_4_FILL"/>
</g>

<g transform="matrix( 0.2810821533203125, 0.097747802734375, -0.097747802734375, 0.2810821533203125, -35.8,54.2) ">
<use xlink:href="#_____0_Layer3_0_MEMBER_1_MEMBER_0_MEMBER_0_FILL"/>
</g>

<g transform="matrix( 0.281097412109375, 0.097747802734375, -0.097747802734375, 0.281097412109375, -35.8,54.2) ">
<use xlink:href="#_____0_Layer3_0_MEMBER_1_MEMBER_1_FILL"/>
</g>

<g transform="matrix( 0.281097412109375, 0.097747802734375, -0.097747802734375, 0.281097412109375, -35.8,54.2) ">
<use xlink:href="#_____0_Layer3_0_MEMBER_1_MEMBER_2_FILL"/>
</g>

<g transform="matrix( 0.281097412109375, 0.097747802734375, -0.097747802734375, 0.281097412109375, -35.8,54.2) ">
<use xlink:href="#_____0_Layer3_0_MEMBER_1_MEMBER_3_FILL"/>
</g>

<g transform="matrix( 0.281097412109375, 0.097747802734375, -0.097747802734375, 0.281097412109375, -35.8,54.2) ">
<use xlink:href="#_____0_Layer3_0_MEMBER_1_MEMBER_4_FILL"/>
</g>

<g transform="matrix( 0.2810821533203125, 0.097747802734375, -0.097747802734375, 0.2810821533203125, -35.8,54.2) ">
<use xlink:href="#_____0_Layer3_0_MEMBER_2_MEMBER_0_MEMBER_0_FILL"/>
</g>

<g transform="matrix( 0.281097412109375, 0.097747802734375, -0.097747802734375, 0.281097412109375, -35.8,54.2) ">
<use xlink:href="#_____0_Layer3_0_MEMBER_2_MEMBER_1_FILL"/>
</g>

<g transform="matrix( 0.281097412109375, 0.097747802734375, -0.097747802734375, 0.281097412109375, -35.8,54.2) ">
<use xlink:href="#_____0_Layer3_0_MEMBER_2_MEMBER_2_FILL"/>
</g>

<g transform="matrix( 0.281097412109375, 0.097747802734375, -0.097747802734375, 0.281097412109375, -35.8,54.2) ">
<use xlink:href="#_____0_Layer3_0_MEMBER_2_MEMBER_3_FILL"/>
</g>

<g transform="matrix( 0.281097412109375, 0.097747802734375, -0.097747802734375, 0.281097412109375, -35.8,54.2) ">
<use xlink:href="#_____0_Layer3_0_MEMBER_2_MEMBER_4_FILL"/>
</g>

<g transform="matrix( 0.6503448486328125, 0, 0, 0.6503448486328125, 384.45,-15.95) ">
<use xlink:href="#_____0_Layer2_0_MEMBER_0_FILL"/>
</g>

<g transform="matrix( 0.6503448486328125, 0, 0, 0.6503448486328125, 384.45,-15.95) ">
<use xlink:href="#_____0_Layer2_0_MEMBER_1_FILL"/>
</g>

<g transform="matrix( 0.6503448486328125, 0, 0, 0.6503448486328125, 384.45,-15.95) ">
<use xlink:href="#_____0_Layer2_0_MEMBER_2_FILL"/>

<use xlink:href="#_____0_Layer2_0_MEMBER_2_1_STROKES" transform="matrix( 1.5376434326171875, 0, 0, 1.5376434326171875, -591.1,24.5) "/>
</g>

<g transform="matrix( 0.6503448486328125, 0, 0, 0.6503448486328125, 384.45,-15.95) ">
<use xlink:href="#_____0_Layer2_0_MEMBER_3_FILL"/>

<use xlink:href="#_____0_Layer2_0_MEMBER_3_1_STROKES" transform="matrix( 1.5376434326171875, 0, 0, 1.5376434326171875, -591.1,24.5) "/>
</g>

<g transform="matrix( 0.6503448486328125, 0, 0, 0.6503448486328125, 384.45,-15.95) ">
<use xlink:href="#_____0_Layer2_0_MEMBER_4_FILL"/>

<use xlink:href="#_____0_Layer2_0_MEMBER_4_1_STROKES" transform="matrix( 1.5376434326171875, 0, 0, 1.5376434326171875, -591.1,24.5) "/>
</g>

<g transform="matrix( 0.6503448486328125, 0, 0, 0.6503448486328125, 384.45,-15.95) ">
<use xlink:href="#_____0_Layer2_0_MEMBER_5_FILL"/>

<use xlink:href="#_____0_Layer2_0_MEMBER_5_1_STROKES" transform="matrix( 1.5376434326171875, 0, 0, 1.5376434326171875, -591.1,24.5) "/>
</g>

<g transform="matrix( 0.6503448486328125, 0, 0, 0.6503448486328125, 384.45,-15.95) ">
<use xlink:href="#_____0_Layer2_0_MEMBER_6_FILL"/>

<use xlink:href="#_____0_Layer2_0_MEMBER_6_1_STROKES" transform="matrix( 1.5376434326171875, 0, 0, 1.5376434326171875, -591.1,24.5) "/>
</g>

<g transform="matrix( 0.6503448486328125, 0, 0, 0.6503448486328125, 384.45,-15.95) ">
<use xlink:href="#_____0_Layer2_0_MEMBER_7_FILL"/>

<use xlink:href="#_____0_Layer2_0_MEMBER_7_1_STROKES" transform="matrix( 1.5376434326171875, 0, 0, 1.5376434326171875, -591.1,24.5) "/>
</g>

<g transform="matrix( 0.6503448486328125, 0, 0, 0.6503448486328125, 384.45,-15.95) ">
<use xlink:href="#_____0_Layer2_0_MEMBER_8_FILL"/>

<use xlink:href="#_____0_Layer2_0_MEMBER_8_1_STROKES" transform="matrix( 1.5376434326171875, 0, 0, 1.5376434326171875, -591.1,24.5) "/>
</g>

<g transform="matrix( 0.6503448486328125, 0, 0, 0.6503448486328125, 384.45,-15.95) ">
<use xlink:href="#_____0_Layer2_0_MEMBER_9_FILL"/>

<use xlink:href="#_____0_Layer2_0_MEMBER_9_1_STROKES" transform="matrix( 1.5376434326171875, 0, 0, 1.5376434326171875, -591.1,24.5) "/>
</g>

<g transform="matrix( 0.6503448486328125, 0, 0, 0.6503448486328125, 384.45,-15.95) ">
<use xlink:href="#_____0_Layer2_0_MEMBER_10_FILL"/>

<use xlink:href="#_____0_Layer2_0_MEMBER_10_1_STROKES" transform="matrix( 1.5376434326171875, 0, 0, 1.5376434326171875, -591.1,24.5) "/>
</g>

<g transform="matrix( 1, 0, 0, 1, 0,0) ">
<use xlink:href="#_____0_Layer1_0_FILL"/>

<use xlink:href="#_____0_Layer1_0_1_STROKES"/>

<use xlink:href="#_____0_Layer1_0_2_STROKES"/>
</g>

<g transform="matrix( 1, 0, 0, 1, 0,0) ">
<use xlink:href="#_____0_Layer0_0_FILL"/>
</g>
</g>
</svg>
