
<svg xmlns="http://www.w3.org/2000/svg" version="1.1" xmlns:xlink="http://www.w3.org/1999/xlink" preserveAspectRatio="none" x="0px" y="0px" width="300px" height="120px" viewBox="0 0 300 120">
<defs>
<linearGradient id="Gradient_1" gradientUnits="userSpaceOnUse" x1="146.5625" y1="132.05" x2="146.6375" y2="9.75" spreadMethod="pad">
<stop  offset="0%" stop-color="#FBC900"/>

<stop  offset="29.80392156862745%" stop-color="#FEF196"/>

<stop  offset="83.92156862745098%" stop-color="#FFFFD5"/>

<stop  offset="100%" stop-color="#FCE67E"/>
</linearGradient>

<linearGradient id="Gradient_2" gradientUnits="userSpaceOnUse" x1="127.75" y1="8.225000000000001" x2="165.55" y2="133.57500000000002" spreadMethod="pad">
<stop  offset="0%" stop-color="#FCDB78"/>

<stop  offset="100%" stop-color="#E4A807"/>
</linearGradient>

<g id="Layer0_0_MEMBER_0_FILL">
<path fill="#000000" fill-opacity="0.2980392156862745" stroke="none" d="
M 298.5 46.05
Q 298.5 33.65 289.7 24.85 280.9 16.05 268.5 16.05
L 45.55 16.05
Q 33.15 16.05 24.35 24.85 15.55 33.65 15.55 46.05
L 15.55 119.05
Q 15.55 131.45 24.35 140.25 33.15 149.05 45.55 149.05
L 268.5 149.05
Q 280.9 149.05 289.7 140.25 298.5 131.45 298.5 119.05
L 298.5 46.05 Z"/>
</g>

<g id="Layer0_0_MEMBER_1_FILL">
<path fill="url(#Gradient_1)" stroke="none" d="
M 273.2 17.55
Q 265.1 9.45 253.8 9.45
L 39.45 9.45
Q 28.15 9.45 20.15 17.55 12.05 25.55 12.05 36.85
L 12.05 104.9
Q 12.05 116.2 20.15 124.3 22.0162109375 126.1662109375 24.05 127.6 30.7859375 132.3 39.45 132.3
L 253.8 132.3
Q 265.1 132.3 273.2 124.3 281.25 116.2 281.25 104.9
L 281.25 36.85
Q 281.25 27.62890625 275.9 20.6 274.6810546875 19.021875 273.2 17.55 Z"/>
</g>

<g id="Layer0_0_MEMBER_1_MEMBER_0_FILL">
<path fill="url(#Gradient_2)" stroke="none" d="
M 276 14.75
Q 266.8 5.55 253.8 5.55
L 39.45 5.55
Q 26.5 5.55 17.35 14.75 8.15 23.9 8.15 36.85
L 8.15 104.9
Q 8.15 117.85 17.35 127.1 18.7337890625 128.4837890625 20.2 129.65 21.640234375 130.801171875 23.15 131.75 30.375390625 136.25 39.45 136.25
L 253.8 136.25
Q 266.8 136.25 276 127.1 285.15 117.85 285.15 104.9
L 285.15 36.85
Q 285.15 27.8228515625 280.7 20.65 280.5107421875 20.3427734375 280.3 20.05 278.499609375 17.249609375 276 14.75
M 275.9 20.6
Q 281.25 27.62890625 281.25 36.85
L 281.25 104.9
Q 281.25 116.2 273.2 124.3 265.1 132.3 253.8 132.3
L 39.45 132.3
Q 32.5560546875 132.3 26.85 129.3 25.426171875 128.5603515625 24.05 127.6 22.0162109375 126.1662109375 20.15 124.3 12.05 116.2 12.05 104.9
L 12.05 36.85
Q 12.05 25.55 20.15 17.55 28.15 9.45 39.45 9.45
L 253.8 9.45
Q 265.1 9.45 273.2 17.55 274.21015625 18.55390625 275.1 19.6 275.5123046875 20.0982421875 275.9 20.6 Z"/>
</g>
</defs>

<g transform="matrix( 0.9789886474609375, 0, 0, 0.7621917724609375, 2.2,0.95) ">
<use xlink:href="#Layer0_0_MEMBER_0_FILL"/>
</g>

<g transform="matrix( 1, 0, 0, 0.778564453125, 0,1.25) ">
<use xlink:href="#Layer0_0_MEMBER_1_FILL"/>
</g>

<g transform="matrix( 1, 0, 0, 0.778564453125, 0,1.25) ">
<use xlink:href="#Layer0_0_MEMBER_1_MEMBER_0_FILL"/>
</g>
</svg>
