
<svg xmlns="http://www.w3.org/2000/svg" version="1.1" xmlns:xlink="http://www.w3.org/1999/xlink" preserveAspectRatio="none" x="0px" y="0px" width="300px" height="120px" viewBox="0 0 300 120">
<defs>
<linearGradient id="Gradient_1" gradientUnits="userSpaceOnUse" x1="146.4625" y1="133.7" x2="146.5375" y2="7.8999999999999915" spreadMethod="pad">
<stop  offset="0%" stop-color="#FF9999"/>

<stop  offset="29.80392156862745%" stop-color="#FFCCCC"/>

<stop  offset="83.92156862745098%" stop-color="#FFEEEE"/>

<stop  offset="100%" stop-color="#FFBFBF"/>
</linearGradient>

<linearGradient id="Gradient_2" gradientUnits="userSpaceOnUse" x1="127.11250000000001" y1="6.3374999999999915" x2="165.9875" y2="135.2625" spreadMethod="pad">
<stop  offset="0%" stop-color="#FFCCCC"/>

<stop  offset="100%" stop-color="#FF8080"/>
</linearGradient>

<g id="Layer0_0_MEMBER_0_FILL">
<path fill="#000000" fill-opacity="0.2980392156862745" stroke="none" d="
M 298.5 46.05
Q 298.5 33.65 289.7 24.85 280.9 16.05 268.5 16.05
L 45.55 16.05
Q 33.15 16.05 24.35 24.85 15.55 33.65 15.55 46.05
L 15.55 119.05
Q 15.55 131.45 24.35 140.25 33.15 149.05 45.55 149.05
L 268.5 149.05
Q 280.9 149.05 289.7 140.25 298.5 131.45 298.5 119.05
L 298.5 46.05 Z"/>
</g>

<g id="Layer0_0_MEMBER_1_FILL">
<path fill="url(#Gradient_1)" stroke="none" d="
M 276.7 15.9
Q 268.35 7.55 256.75 7.55
L 36.3 7.55
Q 24.65 7.55 16.45 15.9 8.1 24.15 8.1 35.75
L 8.1 105.75
Q 8.1 117.35 16.45 125.7 18.35 127.6 20.45 129.1 27.4 133.95 36.3 133.95
L 256.75 133.95
Q 268.35 133.95 276.7 125.7 285 117.35 285 105.75
L 285 35.75
Q 285 26.3 279.5 19.05 278.25 17.4 276.7 15.9 Z"/>
</g>

<g id="Layer0_0_MEMBER_1_MEMBER_0_FILL">
<path fill="url(#Gradient_2)" stroke="none" d="
M 289 35.75
Q 289 26.45 284.4 19.1 284.2 18.8 284.05 18.45 282.15 15.6 279.6 13 270.1 3.55 256.75 3.55
L 36.3 3.55
Q 22.95 3.55 13.55 13 4.1 22.45 4.1 35.75
L 4.1 105.75
Q 4.1 119.05 13.55 128.6 15 130 16.5 131.2 17.95 132.4 19.55 133.35 26.95 138 36.3 138
L 256.75 138
Q 270.1 138 279.6 128.6 289 119.05 289 105.75
L 289 35.75
M 278.65 18
Q 279.05 18.5 279.5 19.05 285 26.3 285 35.75
L 285 105.75
Q 285 117.35 276.7 125.7 268.35 133.95 256.75 133.95
L 36.3 133.95
Q 29.2 133.95 23.35 130.9 21.9 130.05 20.45 129.1 18.35 127.6 16.45 125.7 8.1 117.35 8.1 105.75
L 8.1 35.75
Q 8.1 24.15 16.45 15.9 24.65 7.55 36.3 7.55
L 256.75 7.55
Q 268.35 7.55 276.7 15.9 277.75 16.95 278.65 18 Z"/>
</g>
</defs>

<g transform="matrix( 1.0069580078125, 0, 0, 0.803985595703125, -2.05,-1.15) ">
<use xlink:href="#Layer0_0_MEMBER_0_FILL"/>
</g>

<g transform="matrix( 1, 0, 0, 0.798431396484375, 0,0.75) ">
<use xlink:href="#Layer0_0_MEMBER_1_FILL"/>
</g>

<g transform="matrix( 1, 0, 0, 0.798431396484375, 0,0.75) ">
<use xlink:href="#Layer0_0_MEMBER_1_MEMBER_0_FILL"/>
</g>
</svg>
