
<svg xmlns="http://www.w3.org/2000/svg" version="1.1" xmlns:xlink="http://www.w3.org/1999/xlink" preserveAspectRatio="none" x="0px" y="0px" width="1000px" height="900px" viewBox="0 0 1000 900">
<defs>
<g id="______0_Layer0_0_FILL">
<path fill="#074DB4" stroke="none" d="
M 267.6 164.75
L 243.6 176.15 268.45 185.55 293.9 175.3 267.6 164.75 Z"/>
</g>

<g id="______0_Layer0_1_FILL">
<path fill="#C27B12" stroke="none" d="
M 269.25 183.8
Q 259.65 183.8 253.05 187.7 245.25 193.55 241.65 204.35 238.5 213.05 239.25 220.85
L 239.55 224.75
Q 240.45 229.55 242.7 233.45 250.2 245.9 270.3 245.3 277.65 245.45 284.85 242.3 299.55 236.15 299.7 220.25 299.85 211.85 296.25 202.25 292.05 191 285.15 187.7 277.2 183.8 269.25 183.8 Z"/>
</g>

<g id="______0_Layer0_2_FILL">
<path fill="#FDEABD" stroke="none" d="
M 282.5 189.25
Q 277.8 189.25 274.4 192.65 270.95 196.1 270.95 200.75 270.95 205.45 274.4 208.85 277.8 212.3 282.5 212.3 287.15 212.3 290.6 208.85 294 205.45 294 200.75 294 196.1 290.6 192.65 287.15 189.25 282.5 189.25 Z"/>
</g>

<g id="______0_Layer0_3_FILL">
<path fill="#FFFFFF" stroke="none" d="
M 22.45 17.45
Q 23.4 16.5 23.4 15.2 23.4 13.9 22.45 12.95 21.5 12 20.2 12 18.85 12 17.95 12.95 17 13.9 17 15.2 17 16.5 17.95 17.45 18.85 18.4 20.2 18.4 21.5 18.4 22.45 17.45 Z"/>
</g>

<g id="______0_Layer0_4_FILL">
<path fill="#FDEABD" stroke="none" d="
M 14.8 17.45
Q 15.75 16.5 15.75 15.2 15.75 13.9 14.8 12.95 13.85 12 12.55 12 11.25 12 10.3 12.95 9.35 13.9 9.35 15.2 9.35 16.5 10.3 17.45 11.25 18.4 12.55 18.4 13.85 18.4 14.8 17.45 Z"/>
</g>

<g id="______0_Layer0_5_FILL">
<path fill="#FFFFFF" stroke="none" d="
M 14.8 17.45
Q 15.75 16.5 15.75 15.2 15.75 13.9 14.8 12.95 13.85 12 12.55 12 11.25 12 10.3 12.95 9.35 13.9 9.35 15.2 9.35 16.5 10.3 17.45 11.25 18.4 12.55 18.4 13.85 18.4 14.8 17.45 Z"/>
</g>

<g id="______0_Layer0_6_FILL">
<path fill="#0B65EC" stroke="none" d="
M 256.85 185.65
L 257.25 185.65
Q 269.25 182.45 279.95 185.65
L 280.2 185.65 279.95 175.6
Q 275.85 173.2 269 173.2 263.2 173.2 256.85 175.6
L 256.85 185.65 Z"/>
</g>

<g id="______0_Layer0_7_FILL">
<path fill="#FFFFFF" stroke="none" d="
M 288.25 224.55
Q 295.6033203125 220.7005859375 299.2 213.25 299.2533203125 213.1486328125 299.3 213.05 299.244921875 213.1212890625 299.2 213.2 298.4046875 214.17265625 297.75 214.5 284.522265625 221.5810546875 269.65 221.6 269.6 221.6 269.55 221.6 269.3498046875 221.601171875 269.15 221.6 269.1 221.6 269.05 221.6 254.1787109375 221.5802734375 241 214.45 240.2662109375 214.1076171875 239.4 213.1 242.9751953125 220.6130859375 250.45 224.5 256.2 227.5 262.15 227.9 262.65 227.5 266.25 224.5 268.321484375 222.7306640625 269.35 221.85 270.384375 222.7365234375 272.5 224.55 276.05 227.5 276.55 227.9 282.55 227.5 288.25 224.55 Z"/>

<path fill="#0954C4" stroke="none" d="
M 284.85 242.3
Q 299.55 236.15 299.7 220.25 299.7607421875 216.8466796875 299.2 213.25 295.6033203125 220.7005859375 288.25 224.55 282.55 227.5 276.55 227.9 276.05 227.5 272.5 224.55 270.384375 222.7365234375 269.35 221.85 268.321484375 222.7306640625 266.25 224.5 262.65 227.5 262.15 227.9 256.2 227.5 250.45 224.5 242.9751953125 220.6130859375 239.4 213.1 238.8873046875 217.077734375 239.25 220.85
L 239.55 224.75
Q 240.45 229.55 242.7 233.45 250.2 245.9 270.3 245.3 277.65 245.45 284.85 242.3 Z"/>
</g>

<g id="______0_Layer0_8_FILL">
<path fill="#FE4E4E" stroke="none" d="
M 268.9 229.25
L 268.9 229.7 266.65 232.1 265.75 240.5 269.8 243.5 273.7 240.2
Q 273.4 236.45 273.1 234.65 272.5 231.35 270.7 229.85
L 270.55 229.1 268.9 229.25 Z"/>
</g>

<g id="______0_Layer0_9_FILL">
<path fill="#FE4E4E" stroke="none" d="
M 271.3 221.9
L 268 221.9 266.8 222.95
Q 265.45 224.3 265.15 224.75 264.4 226.1 265.3 227.9
L 269.05 230.9 271 230.9 273.7 228.35
Q 274.6 226.7 274.6 226.25 274.6 225.95 273.85 224.15
L 271.3 221.9 Z"/>
</g>

<g id="______0_Layer0_10_FILL">
<path fill="#660000" stroke="none" d="
M 233.2 196.9
Q 232 194.35 229.3 192.7 226.45 191.05 223.15 191.05 219.25 191.2 216.1 193.3 213.1 195.4 211.9 198.7 210.55 198.7 209.95 198.7 209.05 198.85 208.9 200.05 208.75 201.55 211.3 201.55 211.15 205.9 214.6 208.75 217.9 211.75 222.7 211.6 227.35 211.45 230.65 208.45 234.1 205.3 234.1 201.1 234.25 200.05 233.65 197.95 235.9 197.2 236.65 197.05 238.45 197.05 240.4 198.4 239.8 200.2 239.8 201.4 239.65 205.45 243.5 208.7 247.15 211.6 251.65 211.45 256 211.3 259 208.15 262 205 262.15 200.95
L 262.15 199.9
Q 263.8 199.6 263.65 198.4 263.5 197.65 262.9 197.5
L 261.7 197.5
Q 260.5 194.65 257.5 192.7 254.35 190.75 250.9 190.9 247.75 190.9 244.9 192.85 242.2 194.5 240.85 197.35 238.15 194.8 233.2 196.9
M 223 192.55
Q 227.2 192.4 229.9 194.95 232.75 197.5 232.6 201.1 232.6 204.85 229.75 207.55 226.75 210.1 222.7 210.25 218.5 210.4 215.65 207.85 212.8 205.3 212.95 201.55 212.95 197.8 215.95 195.25 218.95 192.55 223 192.55
M 250.9 192.55
Q 254.8 192.55 257.8 194.95 260.95 197.5 260.8 200.95 260.65 204.55 258.1 207.25 255.4 209.95 251.65 210.1 247.75 210.25 244.45 207.55 241.15 204.85 241.3 201.25 241.45 197.8 244.3 195.1 247.15 192.55 250.9 192.55 Z"/>
</g>

<g id="______0_Layer0_11_FILL">
<path fill="#FFFFFF" stroke="none" d="
M 299.3 213.05
Q 299.244921875 213.1212890625 299.2 213.2 298.4046875 214.17265625 297.75 214.5 284.522265625 221.5810546875 269.65 221.6 269.6 221.6 269.55 221.6 269.3498046875 221.601171875 269.15 221.6 269.1 221.6 269.05 221.6 254.1787109375 221.5802734375 241 214.45 240.2662109375 214.1076171875 239.4 213.1 242.9751953125 220.6130859375 250.45 224.5 256.2 227.5 262.15 227.9 262.65 227.5 266.25 224.5 268.321484375 222.7306640625 269.35 221.85 270.384375 222.7365234375 272.5 224.55 276.05 227.5 276.55 227.9 282.55 227.5 288.25 224.55 295.6033203125 220.7005859375 299.2 213.25 299.2533203125 213.1486328125 299.3 213.05 Z"/>
</g>

<g id="______0_Layer0_12_FILL">
<path fill="#FFCC00" stroke="none" d="
M 212.5 192.95
Q 212.45 193.35 212.45 193.75 212.45 194.95 212.25 197.15 212.25 197.2 212.25 197.6 212.25 197.65 212.3 197.7
L 212.3 197.75
Q 212.65 198.25 213 197.75 213.15 197.55 213.6 197.55 214 197.55 214.35 197.9 214.7 198.35 215.15 197.9 215.15 197.85 215.25 197.7 215.35 197.5 215.75 197.55 216.15 197.6 216.3 197.7 216.45 197.8 216.5 197.9 216.75 198.35 217 197.9 217.25 197.55 217.25 196.7 217.25 196.6 217 192.55
L 216.9 191.25
Q 216.85 190.8 216.85 190.35 216.85 187.95 214.9 187.65 213.55 187.65 213.1 189.05 213.05 189.1 213.05 189.15 212.6 191 212.5 192.95
M 212.7 195.85
Q 212.703515625 196.0142578125 212.75 196.2
L 212.7 196.2 212.7 195.85 Z"/>
</g>

<g id="______0_Layer0_13_FILL">
<path fill="#CC9900" stroke="none" d="
M 6.3 8
Q 5.7 8 5.7 8.4 5.6 8.85 6.25 8.85 6.85 8.85 6.85 8.45 6.85 8 6.3 8 Z"/>
</g>

<g id="______0_Layer0_14_FILL">
<path fill="#FFCC00" stroke="none" d="
M 6.3 6.85
Q 5.55 6.85 5.45 7.65 5.45 8 5.7 8.25 5.9 8.5 6.25 8.5 6.6 8.5 6.85 8.25 7.1 8.05 7.1 7.7 7.1 6.95 6.3 6.85 Z"/>
</g>

<g id="______0_Layer0_15_FILL">
<path fill="#CC9900" stroke="none" d="
M 215.95 174.2
L 214.7 174.75 214.45 182.75
Q 214.45 183.35 215 183.35 215.7 183.35 215.7 182.9
L 215.95 174.2 Z"/>
</g>

<g id="____0_Layer0_0_FILL">
<path fill="#CC0000" stroke="none" d="
M 9.7 3.85
Q 8.5 3.25 5.3 3.1 1.7083984375 3.344921875 0.05 4.3 1.458203125 5.306640625 2.25 5.95 3.05 6.65 4.95 6.8 6.85 6.95 8.5 5.7 9.9763671875 4.53671875 10.45 4.2 10.1029296875 4.043359375 9.7 3.85 Z"/>

<path fill="#FFCC00" stroke="none" d="
M 10.55 4.15
Q 10.4912109375 3.9279296875 10.4 3.7 4.95 -3.65 0.3 3.7 0.2111328125 4.011328125 0.05 4.3 1.7083984375 3.344921875 5.3 3.1 8.5 3.25 9.7 3.85 10.1029296875 4.043359375 10.45 4.2 9.9763671875 4.53671875 8.5 5.7 6.85 6.95 4.95 6.8 3.05 6.65 2.25 5.95 1.458203125 5.306640625 0.05 4.3 0.0666015625 4.361328125 0.05 4.4 0.05 4.45 0 4.5
L 0.95 8.1
Q 2.4 11.85 5.55 12.55 6.5 12.45 7.7 11.35 9.85 9.2 10.55 4.65 10.5923828125 4.43828125 10.55 4.25 10.5576171875 4.2306640625 10.55 4.2
L 10.55 4.15 Z"/>
</g>

<g id="____0_Layer0_0_FILL_FL">
<path fill="#EC8E02" stroke="none" d="
M 20.55 67.4
Q 21.45 68.75 23.4 67.55 25.05 66.2 23.85 64.85
L 9.25 46.6
Q -1.5 33.45 -2.4 32.5 -3.35 31.55 -4.2 32.1 -5.1 32.6 -0.6 38.4
L 20.55 67.4 Z"/>
</g>

<g id="____0_Layer0_1_FILL">
<path fill="#984B01" stroke="none" d="
M 205.05 231.35
Q 207 230.8 209.1 229.15
L 211.8 228.2
Q 214.5 227.75 211.5 225.7
L 212.8 225.35
Q 213.9 224.95 213.3 224.05 211.7 221.45 208.1 223.5 211.25 221.25 207.35 221.35 204.55 222.15 202.3 224 198.4 227.3 200.15 230.25 200.180859375 230.3015625 200.2 230.35 200.6 230.7 201 230.95 201.8 231.45 202.55 231.55 203.194140625 231.634375 203.95 231.55 204.4732421875 231.487890625 205.05 231.35 Z"/>
</g>

<g id="_____2_0_Layer0_0_FILL">
<path fill="#984B01" stroke="none" d="
M 5 1.3
Q 3.8 0 2.75 0 -1.15 1.85 0.5 11.05 1.25 15.55 3.2 19.25 6.05 22.95 4.85 17.15 7.4 22 9.2 21.1 10 20.15 8.75 17.15 13.1 18.85 11.1 15.25 10.5 14.2 10 13.2 8.75 10.85 8.1 8.3 6.9 3.55 5 1.3 Z"/>
</g>

<g id="_______0_Layer0_0_FILL">
<path fill="#0C0303" stroke="none" d="
M 20.85 16.6
Q 21.2 16.05 21.2 15.35 21.2 14.6 20.85 14.1 20.5 13.6 19.95 13.6 19.4 13.6 19.05 14.1 18.7 14.6 18.7 15.35 18.7 16.05 19.05 16.6 19.45 17.1 19.95 17.1 20.45 17.1 20.85 16.6 Z"/>
</g>

<g id="_______0_Layer0_1_FILL">
<path fill="#0C0303" stroke="none" d="
M 11.9 15.35
Q 11.9 16.05 12.25 16.6 12.6 17.1 13.1 17.1 13.6 17.1 14 16.6 14.35 16.05 14.35 15.35 14.35 14.6 14 14.1 13.65 13.6 13.1 13.6 12.6 13.6 12.25 14.1 11.9 14.6 11.9 15.35 Z"/>
</g>

<path id="____0_Layer0_0_1_STROKES" stroke="#663300" stroke-width="0.3" stroke-linejoin="round" stroke-linecap="round" fill="none" d="
M 0.075 4.325
Q 1.7083984375 3.344921875 5.3 3.1 8.5 3.25 9.7 3.85 10.1029296875 4.043359375 10.45 4.225 9.9763671875 4.53671875 8.5 5.7 6.85 6.95 4.95 6.8 3.05 6.65 2.25 5.95 1.458203125 5.306640625 0.075 4.325 Z"/>
</defs>

<g transform="matrix( 4.24267578125, 0, 0, 4.24267578125, -40.9,7.75) ">
<g transform="matrix( 2.5833740234375, 0, 0, 2.5833740234375, 12.9,0) ">
<g transform="matrix( 1, 0, 0, 1, 19.5,0) ">
<g transform="matrix( 1.071563720703125, 0, 0, 1, -258.4,-164.75) ">
<use xlink:href="#______0_Layer0_0_FILL"/>
</g>

<g transform="matrix( 1, 0, 0, 1, -239.1,-164.75) ">
<use xlink:href="#______0_Layer0_1_FILL"/>
</g>

<g transform="matrix( 1, 0, 0, 1, -239.1,-164.75) ">
<use xlink:href="#______0_Layer0_2_FILL"/>
</g>

<g transform="matrix( 3, 0, 0, 3, -18.75,-9.6) ">
<use xlink:href="#______0_Layer0_3_FILL"/>
</g>

<g transform="matrix( 3.5999755859375, 0, 0, 3.5999755859375, -27.8,-18.7) ">
<use xlink:href="#______0_Layer0_4_FILL"/>
</g>

<g transform="matrix( 3, 0, 0, 3, -18.75,-9.6) ">
<use xlink:href="#______0_Layer0_5_FILL"/>
</g>

<g transform="matrix( 1.214111328125, 0, 0, 1, -296.35,-163.75) ">
<use xlink:href="#______0_Layer0_6_FILL"/>
</g>

<g transform="matrix( 1, 0, 0, 1, -239.1,-164.75) ">
<use xlink:href="#______0_Layer0_7_FILL"/>
</g>

<g transform="matrix( 1, 0, 0, 1, -239.1,-164.75) ">
<use xlink:href="#______0_Layer0_8_FILL"/>
</g>

<g transform="matrix( 1, 0, 0, 1, -239.1,-164.75) ">
<use xlink:href="#______0_Layer0_9_FILL"/>
</g>

<g transform="matrix( 1, 0, 0, 1, -207.1,-165.55) ">
<use xlink:href="#______0_Layer0_10_FILL"/>
</g>

<g transform="matrix( 1, 0, 0, 1, -239.1,-164.75) ">
<use xlink:href="#______0_Layer0_11_FILL"/>
</g>

<g transform="matrix( -0.79998779296875, 0, 0, 0.79998779296875, 225.8,-130.35) ">
<use xlink:href="#______0_Layer0_12_FILL"/>
</g>

<g transform="matrix( -1.8320159912109375, 0, 0, 2.39996337890625, 65.25,-1) ">
<use xlink:href="#______0_Layer0_13_FILL"/>
</g>

<g transform="matrix( -1.8320159912109375, 0, 0, 2.39996337890625, 65.25,-1) ">
<use xlink:href="#______0_Layer0_14_FILL"/>
</g>

<g transform="matrix( -0.79998779296875, 0, 0, 0.79998779296875, 225.8,-130.25) ">
<use xlink:href="#______0_Layer0_15_FILL"/>
</g>

<g transform="matrix( 1, 0, 0, 1, 25.05,40.6) ">
<g transform="matrix( 1, 0, 0, 1, 0,0) ">
<use xlink:href="#____0_Layer0_0_FILL"/>

<use xlink:href="#____0_Layer0_0_1_STROKES"/>
</g>
</g>
</g>

<g transform="matrix( 1, 0, 0, 1, -0.95,14.25) ">
<g transform="matrix( 0.6843109130859375, -0.02142333984375, 0.021148681640625, 0.6758880615234375, 2.65,-4) ">
<use xlink:href="#____0_Layer0_0_FILL_FL"/>
</g>

<g transform="matrix( -0.6021881103515625, -1.098052978515625, 1.098052978515625, -0.6021881103515625, -107.1,401.9) ">
<use xlink:href="#____0_Layer0_1_FILL"/>
</g>
</g>

<g transform="matrix( 1.0044097900390625, 0.075347900390625, -0.0544586181640625, 0.7257537841796875, 77.05,49.5) ">
<g transform="matrix( 1, 0, 0, 1, 0,0) ">
<use xlink:href="#_____2_0_Layer0_0_FILL"/>
</g>
</g>

<g transform="matrix( 1, 0, 0, 1, 36.45,31.2) ">
<g transform="matrix( 3, 0, 0, 3, -35.7,-40.8) ">
<use xlink:href="#_______0_Layer0_0_FILL"/>
</g>

<g transform="matrix( 3, 0, 0, 3, -35.7,-40.8) ">
<use xlink:href="#_______0_Layer0_1_FILL"/>
</g>
</g>
</g>
</g>
</svg>
