
<svg xmlns="http://www.w3.org/2000/svg" version="1.1" xmlns:xlink="http://www.w3.org/1999/xlink" preserveAspectRatio="none" x="0px" y="0px" width="1000px" height="900px" viewBox="0 0 1000 900">
<defs>
<g id="Layer0_0_MEMBER_0_MEMBER_0_MEMBER_0_MEMBER_0_MEMBER_0_FILL">
<path fill="#C27B12" stroke="none" d="
M 755.05 392.9
Q 757.05 372.1 748.65 348.8 739 319.95 718.2 304.35 700.45 293.9 674.9 293.9 653.75 293.9 632.4 304.35 614 313.15 602.75 343.2 593.2 368.8 593.55 391.3 593.95 433.75 633.2 450.2 652.6 458.65 672.1 458.2 725.75 459.85 745.85 426.55 751.85 416.15 754.25 403.3
L 755.05 392.9 Z"/>
</g>

<g id="Layer0_0_MEMBER_0_MEMBER_1_MEMBER_0_MEMBER_0_MEMBER_0_FILL">
<path fill="#FDEABD" stroke="none" d="
M 670.35 339.2
Q 670.35 326.75 661.15 317.55 652.05 308.45 639.5 308.45 627.1 308.45 617.85 317.55 608.8 326.75 608.8 339.2 608.8 351.8 617.85 360.85 627.05 370.05 639.5 370.05 652.1 370.05 661.15 360.85 670.35 351.8 670.35 339.2 Z"/>
</g>

<g id="Layer0_0_MEMBER_0_MEMBER_2_MEMBER_0_MEMBER_0_MEMBER_0_FILL">
<path fill="#FFFFFF" stroke="none" d="
M 669.3 339.2
Q 669.3 328.8 661.65 321.15 654.45 313.55 643.65 313.55 633.3 313.55 625.6 321.15 618 328.85 618 339.2 618 349.6 625.6 357.25 633.3 364.85 643.65 364.85 654.45 364.85 661.65 357.25 669.3 349.6 669.3 339.2 Z"/>
</g>

<g id="Layer0_0_MEMBER_0_MEMBER_3_MEMBER_0_MEMBER_0_MEMBER_0_FILL">
<path fill="#FDEABD" stroke="none" d="
M 687.4 317.6
Q 678.25 326.75 678.25 339.25 678.25 351.75 687.4 360.9 696.45 370 709 370 721.55 370 730.65 360.9 739.8 351.75 739.8 339.25 739.8 326.75 730.65 317.6 721.5 308.45 709 308.45 696.5 308.45 687.4 317.6 Z"/>
</g>

<g id="Layer0_0_MEMBER_0_MEMBER_4_MEMBER_0_MEMBER_0_MEMBER_0_FILL">
<path fill="#FFFFFF" stroke="none" d="
M 723 321.15
Q 715.35 313.55 704.95 313.55 694.6 313.55 686.9 321.15 679.3 328.85 679.3 339.2 679.3 349.6 686.9 357.25 694.6 364.85 704.95 364.85 715.35 364.85 723 357.25 730.6 349.6 730.6 339.2 730.6 328.85 723 321.15 Z"/>
</g>

<g id="Layer0_0_MEMBER_0_MEMBER_5_MEMBER_0_MEMBER_0_MEMBER_0_FILL">
<path fill="#0954C4" stroke="none" d="
M 755.05 392.9
Q 755.95 382.65 754.5 372.2 745.05 392.25 725.1 402.65 709.9 410.6 693.85 411.75
L 674.65 395.55 655.4 411.75
Q 639.25 410.6 624.15 402.8 604.5 392.45 594.9 372.6 593.4 382.2 593.55 391.3 593.95 433.75 633.2 450.2 652.6 458.65 672.1 458.2 725.75 459.85 745.85 426.55 751.85 416.15 754.25 403.3
L 755.05 392.9 Z"/>
</g>

<g id="Layer0_0_MEMBER_0_MEMBER_5_MEMBER_0_MEMBER_0_MEMBER_1_FILL">
<path fill="#FFFFFF" stroke="none" d="
M 675.45 394.9
L 673.85 394.9
Q 634.25 394.9 598.75 375.95 596.95 374.95 594.9 372.45
L 594.6 372.05 594.9 372.6
Q 604.5 392.45 624.15 402.8 639.25 410.6 655.4 411.75
L 674.65 395.55 693.85 411.75
Q 709.9 410.6 725.1 402.65 745.05 392.25 754.5 372.2 752.4 374.8 750.35 375.8 715.15 394.9 675.45 394.9 Z"/>
</g>

<g id="Layer0_0_MEMBER_0_MEMBER_6_MEMBER_0_MEMBER_0_MEMBER_0_FILL">
<path fill="#FE4E4E" stroke="none" d="
M 675.85 415.35
L 671.45 414.95 671.05 416.95
Q 666.3 420.85 664.6 429.75 663.8 434.9 663 444.6
L 673.45 453.4 684.25 445.4 681.85 422.95 675.85 416.55 675.85 415.35 Z"/>
</g>

<g id="Layer0_0_MEMBER_0_MEMBER_7_MEMBER_0_MEMBER_0_MEMBER_0_FILL">
<path fill="#FE4E4E" stroke="none" d="
M 678.25 395.7
L 669.4 395.7 662.6 401.7
Q 660.6 406.45 660.6 407.3 660.6 408.55 663 412.95
L 670.2 419.75 675.45 419.75 685.45 411.75
Q 687.85 406.85 685.85 403.3 684.95 402 681.45 398.5
L 678.25 395.7 Z"/>
</g>

<g id="Layer0_0_MEMBER_0_MEMBER_8_MEMBER_0_MEMBER_0_MEMBER_0_FILL">
<path fill="#660000" stroke="none" d="
M 726.25 316.9
Q 718.25 311.55 708.15 311.1 699.85 311.1 692.4 315.35 685.5 319.55 682.4 326.1 669.65 320.75 662.8 327.25 659.35 319.95 652.45 315.75 645.15 310.75 637.05 310.75 628.1 310.35 620.15 315.35 612.45 320.4 609.35 327.65
L 606.3 327.65
Q 604.75 328 604.35 329.95 603.95 333.05 608.2 333.8
L 608.2 336.5
Q 608.6 346.85 616.3 354.95 623.9 363 635.1 363.4 646.7 363.8 656 356.35 665.9 348.05 665.5 337.65 665.5 334.55 663.95 329.95 669 326.5 673.55 326.5 675.05 326.8 681.25 328.8 679.75 334.25 680.1 336.9 680.1 347.7 688.95 355.7 697.45 363.45 709.3 363.8 721.6 364.15 730.1 356.5 738.95 349.15 738.55 338.05 745.1 338.05 744.7 334.2 744.35 331.15 742 330.75
L 737 330.75
Q 733.95 322.35 726.25 316.9
M 708.55 314.95
Q 718.95 314.95 726.65 321.9 734.3 328.45 734.3 338.05 734.7 347.7 727.4 354.2 720.05 360.7 709.3 360.35 699.05 360 691.25 353.4 683.95 346.5 683.95 336.9 683.6 327.7 690.85 321.1 697.85 314.6 708.55 314.95
M 653.95 321.5
Q 661.3 328.4 661.65 337.25 662.05 346.5 653.6 353.4 645.2 360.35 635.1 359.95 625.55 359.6 618.6 352.65 612.1 345.8 611.65 336.5 611.3 327.75 619.35 321.1 627.1 314.95 637.05 314.95 646.65 314.95 653.95 321.5 Z"/>
</g>

<g id="Layer0_0_MEMBER_0_MEMBER_9_MEMBER_0_MEMBER_0_MEMBER_0_FILL">
<path fill="#FFFFFF" stroke="none" d="
M 675.45 394.9
L 673.85 394.9
Q 634.25 394.9 598.75 375.95 596.95 374.95 594.9 372.45
L 594.6 372.05 594.9 372.6
Q 604.5 392.45 624.15 402.8 639.25 410.6 655.4 411.75
L 674.65 395.55 693.85 411.75
Q 709.9 410.6 725.1 402.65 745.05 392.25 754.5 372.2 752.4 374.8 750.35 375.8 715.15 394.9 675.45 394.9 Z"/>
</g>

<g id="Layer0_0_MEMBER_0_MEMBER_10_MEMBER_0_MEMBER_0_MEMBER_0_MEMBER_0_FILL">
<path fill="#074DB4" stroke="none" d="
M 676.75 292.8
L 734.5 276 678.7 251.25 617.55 274.15 676.75 292.8 Z"/>
</g>

<g id="Layer0_0_MEMBER_0_MEMBER_10_MEMBER_1_MEMBER_0_MEMBER_0_MEMBER_0_FILL">
<path fill="#0B65EC" stroke="none" d="
M 706.6 276.95
Q 689.8 271.75 674.6 271.75 656.6 271.75 645.75 276.95
L 645.05 298.8 645.75 298.8
Q 673.95 291.85 705.55 298.8
L 706.6 298.8 706.6 276.95 Z"/>
</g>

<g id="Layer0_0_MEMBER_0_MEMBER_10_MEMBER_2_MEMBER_0_MEMBER_0_MEMBER_0_FILL">
<path fill="#FFCC00" stroke="none" d="
M 724.85 311.5
Q 724.85 312.9 725.25 313.6 725.7 314.35 726.15 313.6 726.2 313.4 726.5 313.25 726.65 313.1 727.45 312.95 728.15 312.85 728.3 313.25 728.5 313.55 728.5 313.6 729.25 314.35 729.85 313.6 730.45 312.95 731.15 312.95 731.95 312.95 732.2 313.3 732.8 314.2 733.45 313.3
L 733.45 313.25 733.5 313.05 733.5 312.25
Q 733.15 307.9 733.15 306.35
L 733.1 305
Q 732.85 301.4 732.15 298.4
L 732.05 298.2
Q 731.25 295.8 728.9 295.8 725.55 296.25 725.55 300.45
L 724.85 311.5
M 732.75 310
L 732.75 310.6 732.65 310.6 732.75 310 Z"/>
</g>

<g id="Layer0_0_MEMBER_0_MEMBER_10_MEMBER_3_MEMBER_0_MEMBER_0_MEMBER_0_FILL">
<path fill="#CC9900" stroke="none" d="
M 728.5 292.35
Q 726.35 292.35 726.35 294.75 726.35 296.8 728.75 296.8 731.35 296.8 730.9 294.45 730.9 292.35 728.5 292.35 Z"/>
</g>

<g id="Layer0_0_MEMBER_0_MEMBER_10_MEMBER_4_MEMBER_0_MEMBER_0_MEMBER_0_FILL">
<path fill="#FFCC00" stroke="none" d="
M 730.9 293.7
Q 731.9 292.4 731.9 290.55 731.55 286.4 728.55 286.4 725.35 286.9 725.35 290.8 725.35 292.6 726.35 293.7 727.35 295 728.75 295 730.15 295 730.9 293.7 Z"/>
</g>

<g id="Layer0_0_MEMBER_0_MEMBER_10_MEMBER_5_MEMBER_0_MEMBER_0_MEMBER_0_FILL">
<path fill="#CC9900" stroke="none" d="
M 729.7 287.5
L 729.3 273.6 727.1 272.6 727.55 287.7
Q 727.55 288.6 728.75 288.6 729.7 288.6 729.7 287.5 Z"/>
</g>

<g id="Layer0_0_MEMBER_0_MEMBER_11_MEMBER_0_MEMBER_0_MEMBER_0_MEMBER_0_FILL">
<path fill="#FFCC00" stroke="none" d="
M 688.4 363.25
Q 688.05 362.5 687.7 361.35 675.3 341.75 660.75 361.35 660.55 361.8 660.35 362.7 660.2 363.25 660.35 363.9 662.25 376.1 667.95 381.8 671.25 384.8 673.7 385 682.1 383.1 686 373.1
L 688.5 363.5 688.4 363.25 Z"/>
</g>

<g id="Layer0_0_MEMBER_1_MEMBER_0_FILL">
<path fill="#009245" stroke="none" d="
M 822.25 418.7
Q 822.25 416.4 820.6 414.7 818.95 413.05 816.6 413.05
L 532.35 413.05
Q 530.05 413.05 528.35 414.7 526.7 416.4 526.7 418.7
L 526.7 504.4
Q 526.7 506.75 528.35 508.45 530 510.1 532.35 510.1
L 816.6 510.1
Q 818.95 510.1 820.6 508.45 822.25 506.75 822.25 504.4
L 822.25 418.7 Z"/>
</g>

<g id="Layer0_0_MEMBER_1_MEMBER_1_FILL">
<path fill="#A67C52" stroke="none" d="
M 824.3 516.7
Q 826.65 516.7 828.3 515.05 830 513.35 830 511.05
L 830 509.15
Q 830 506.8 828.3 505.1 826.65 503.45 824.3 503.45
L 524.65 503.45
Q 522.3 503.45 520.65 505.1 519 506.8 519 509.15
L 519 511.05
Q 519 513.4 520.65 515.05 522.35 516.7 524.65 516.7
L 824.3 516.7 Z"/>
</g>

<g id="Layer0_0_MEMBER_1_MEMBER_2_FILL">
<path fill="#FFFFFF" stroke="none" d="
M 320.9 611
L 320.75 640.75
Q 320.7 645.6 315 646.15 308.1 647.4 301.8 647.8 295.5 648.6 295.45 654.85
L 295.45 658
Q 295.4 664.3 303.25 663.7
L 313.5 662.95
Q 320 662.55 319.95 667.8
L 319.85 690.45
Q 319.8 695.5 314.75 697.95 306.6 701.3 298.4 705.25 291.45 708.3 293.95 715.25
L 298.25 727.45
Q 300.6 733.75 307.3 730.25 310.2 728.35 313.15 727.1 319.9 723.35 319.85 728.8
L 319.7 759.85
Q 319.7 765.1 314.45 765.05
L 303.55 765
Q 297.7 765 299.95 771.7
L 304.5 784.45
Q 306.75 790.8 313.05 790.8
L 327.75 790.9
Q 343.45 789.3 346.7 772.5 346 744.2 345.95 715.9 343.65 709.2 354.95 706.1 361.1 703.2 359.65 698.8 358.2 694.2 363.45 694.2
L 371 694.25
Q 376.25 694.25 374.75 699.9 373.25 704.95 373.2 710 372.75 716.5 367.5 716.45
L 360.35 716.45
Q 354.1 716.4 354.1 722.65
L 354.1 726.25
Q 354.05 732.1 360.95 731.5
L 363.25 731.5
Q 369.35 731.35 368.25 737 366.75 743.45 366.1 749.95 365.65 756.9 374.65 759.65
L 415.3 765.75
Q 421.4 766.85 420.1 772.7 419.05 777.05 418.55 781.45 417.5 787.75 423.8 788.45
L 441.35 790.85
Q 448.3 791.9 448.95 784.95
L 449.85 777
Q 451.1 770.75 456.15 771.4 462.45 772.05 468.7 773.3 475.2 774.2 476.1 766.45 476.1 762.7 476.75 759.55 477.6 752.85 470.3 752.15
L 459.4 751.05
Q 452.9 750.4 453.35 745.2
L 454.45 735.55
Q 455.3 729.05 460.55 728.85
L 473.1 728.5
Q 479.6 728.3 479.45 722.2 479.05 719.3 479.3 716.35 479.1 710.05 472.8 710.25
L 408.2 712.85
Q 401.5 713.05 402.35 708.05
L 404.1 698.8
Q 405.4 692.5 410.4 692.15
L 470.35 690.1
Q 477.3 690.15 477.35 684.05
L 477.35 677.8
Q 477.4 671.5 471.1 671.85
L 457.05 673.05
Q 450.75 673 451.6 668.05
L 455.05 647.7
Q 456.15 641.2 461.4 641.2
L 469.15 641.25
Q 474.8 641.3 474.65 633.95
L 474.65 629.35
Q 474.5 623.25 468 623.65
L 433.8 625.15
Q 427.3 625.35 427.35 620.1
L 427.4 610.45
Q 427.4 604.15 421.1 604.15
L 405.6 604.05
Q 399.5 604 399.5 610.5
L 399.45 622.25
Q 399.4 627.5 392.5 627.9 378.85 628.45 365.2 629.65 358.95 630.05 358.9 636.35 358.9 642.65 352.2 642.6 345.7 642.55 345.7 637.3
L 345.85 611.1
Q 345.85 604.8 339.55 604.8
L 327.15 604.7
Q 320.9 604.7 320.9 611
M 408.15 643.25
Q 415.05 643.5 422 643.15 427.25 643.35 426.75 648.4 425.85 658.45 424.15 668.5 423.3 675 418.05 674.95
L 409.7 674.9
Q 404.85 674.9 404.25 669.25 403.25 659.6 402.85 649.95 402.7 643.25 408.15 643.25
M 361 678.7
Q 354.5 678.85 354.5 680.55 354.05 682.4 350.1 684.3 345.65 686.35 345.7 681.1 345.1 673.35 345.1 666.25 344.95 659.95 350.4 659.8 355.85 659.8 355.9 653.05 355.9 646.15 361.15 645.8 365.35 645.35 369.55 645.6 375 645.6 375.4 650.85
L 376.95 673.1
Q 377.35 677.9 371.7 678.1 366 678.05 361 678.7
M 397.4 739
L 397.6 736.9
Q 398.7 730 403.5 730.05
L 421.55 729.95
Q 426.8 729.95 425.75 735.6
L 424.85 740.85
Q 423.6 747.15 418.55 746.65 411 745.6 403.45 745.15 397.15 744.65 397.4 739
M 151.4 622.3
Q 157.95 622.15 157.9 627.4 157.45 633.9 157.65 640.15 157.4 647.3 151.95 647.45
L 134.55 648.65
Q 129.5 648.8 128.9 648 128.65 647.35 122.4 647.5 114.2 647.3 106.65 647.7 99.1 647.85 98.65 653.7
L 95 721.4
Q 94.5 727.7 89.5 728.5
L 84.05 729.35
Q 77.75 730.1 77.7 736.4
L 77.7 740.2
Q 77.65 746.5 83.95 745.9 85.4 746.1 86.9 745.7 93.4 745.55 93.35 750.75 92.5 765.65 92.4 780.55 92.35 787.45 97.8 787.45 107.9 787.1 117.9 787.35 124.25 787.2 124.45 780.9
L 125.05 749.65
Q 125.3 743.35 130.75 743.15 171.6 741.7 212.3 740.85 218.8 740.7 218.8 745.9
L 218.75 755.75
Q 218.7 761 213.45 760.95
L 195 760.9
Q 188.7 760.85 192 767.35 195.35 774.75 199.3 782.1 202.4 788.35 208.7 788.4
L 232.35 788.5
Q 246.45 787.35 248.8 773.55
L 248.95 745.65
Q 248.95 740.4 254.2 740.4 258 740.9 261.75 740.65 268.25 740.95 268.3 735.05
L 268.3 728.55
Q 268.35 722.25 262.05 722.2
L 253.25 722.15
Q 248.05 722.15 248.05 716.95
L 247.05 658.85
Q 248.8 647.95 235.6 645.55
L 195.35 645.4
Q 190.1 645.35 190.15 640.1 189.75 633.6 190 627.1 190.05 621.85 195.3 621.65 226.7 621.45 258.15 622 264.45 622.2 264.45 615.95
L 264.5 612.15
Q 264.5 605.85 258.2 605.65 172.9 603.95 89.45 608.35 83.6 608.6 83.35 615.5
L 83.35 618.45
Q 83.05 624.1 89.8 623.9 120.6 622.8 151.4 622.3
M 127.4 685.3
L 127.95 672.7
Q 128.15 666.45 134.45 665.45 142 665.65 149.55 664.85 156.05 664.9 156.05 670.15
L 156.4 683.55
Q 156.35 688.8 150.9 688.95
L 133.9 690.15
Q 127.4 690.55 127.4 685.3
M 150.45 704.7
Q 155.7 704.3 155.65 709.55
L 155.6 719.2
Q 155.6 724.25 150.1 724.4
L 131.85 725.55
Q 125.35 725.95 125.4 720.75 125.8 716.35 125.65 711.95 125.85 706.05 131.75 705.85
L 150.45 704.7
M 194.3 687.3
Q 187.8 687.7 187.85 682.45
L 188.1 669.45
Q 188.35 663.15 193.6 662.95 202.85 663.45 211.45 663.25 218.15 663.55 218.1 668.75
L 218.45 681.35
Q 218.4 686.15 212.75 686.35 203.5 686.5 194.3 687.3
M 218.75 709
Q 218.5 712.6 218.9 715.95 219.1 722.45 213.85 722.4
L 193.95 722.7
Q 188.7 722.7 188.5 717.25 188.1 712.65 188.35 708.65 188.4 703.4 193.6 703.4
L 213.75 703.5
Q 218.8 703.55 218.75 709
M 693.8 618.05
L 693.85 614.25
Q 693.85 607.95 687.55 607.75 602.25 606.05 518.8 610.45 512.95 610.7 512.7 617.6
L 512.7 620.55
Q 512.4 626.2 519.15 626 549.95 624.9 580.75 624.4 587.3 624.25 587.25 629.5 586.8 636 587 642.25 586.75 649.4 581.3 649.55
L 563.9 650.75
Q 558.85 650.9 558.25 650.1 558 649.45 551.75 649.6 543.55 649.4 536 649.8 528.45 649.95 528 655.8
L 524.35 723.5
Q 523.85 729.8 518.85 730.6
L 513.4 731.45
Q 507.1 732.2 507.05 738.5
L 507.05 742.3
Q 507 748.6 513.3 748 514.75 748.2 516.25 747.8 522.75 747.65 522.7 752.85 521.85 767.75 521.75 782.65 521.7 789.55 527.15 789.55 537.25 789.2 547.25 789.45 553.6 789.3 553.8 783
L 554.4 751.75
Q 554.65 745.45 560.1 745.25 600.95 743.8 641.65 742.95 648.15 742.8 648.15 748
L 648.1 757.85
Q 648.05 763.1 642.8 763.05
L 624.35 763
Q 618.05 762.95 621.35 769.45 624.7 776.85 628.65 784.2 631.75 790.45 638.05 790.5
L 661.7 790.6
Q 675.8 789.45 678.15 775.65
L 678.3 747.75
Q 678.3 742.5 683.55 742.5 687.35 743 691.1 742.75 697.6 743.05 697.65 737.15
L 697.65 730.65
Q 697.7 724.35 691.4 724.3
L 682.6 724.25
Q 677.4 724.25 677.4 719.05
L 676.4 660.95
Q 678.15 650.05 664.95 647.65
L 624.7 647.5
Q 619.45 647.45 619.5 642.2 619.1 635.7 619.35 629.2 619.4 623.95 624.65 623.75 656.05 623.55 687.5 624.1 693.8 624.3 693.8 618.05
M 648.1 711.1
Q 647.85 714.7 648.25 718.05 648.45 724.55 643.2 724.5
L 623.3 724.8
Q 618.05 724.8 617.85 719.35 617.45 714.75 617.7 710.75 617.75 705.5 622.95 705.5
L 643.1 705.6
Q 648.15 705.65 648.1 711.1
M 578.9 666.95
Q 585.4 667 585.4 672.25
L 585.75 685.65
Q 585.7 690.9 580.25 691.05
L 563.25 692.25
Q 556.75 692.65 556.75 687.4
L 557.3 674.8
Q 557.5 668.55 563.8 667.55 571.35 667.75 578.9 666.95
M 640.8 665.35
Q 647.5 665.65 647.45 670.85
L 647.8 683.45
Q 647.75 688.25 642.1 688.45 632.85 688.6 623.65 689.4 617.15 689.8 617.2 684.55
L 617.45 671.55
Q 617.7 665.25 622.95 665.05 632.2 665.55 640.8 665.35
M 561.2 727.65
Q 554.7 728.05 554.75 722.85 555.15 718.45 555 714.05 555.2 708.15 561.1 707.95
L 579.8 706.8
Q 585.05 706.4 585 711.65
L 584.95 721.3
Q 584.95 726.35 579.45 726.5
L 561.2 727.65
M 805 677.25
Q 805.05 675.95 798.8 675.95
L 786 675.85
Q 780.1 675.85 779.25 684.05
L 775.05 719.65
Q 774.4 725.95 780.7 726
L 794.35 726.05
Q 800.6 726.1 801.05 724.6 801.45 722.95 806.7 722.95
L 818 723
Q 823.25 723.05 823.25 728.25
L 823.2 733.7
Q 823.2 738.55 817.55 738.7 805.95 739.05 795.05 740.05 788.55 740.5 788.6 737.55 788.6 734.85 782.35 734.8
L 770.6 734.75
Q 764.5 734.7 764.25 741.4
L 762.4 784.15
Q 762.1 790.65 768 790.7
L 782.25 790.75
Q 788.55 790.8 788.6 784.5
L 788.3 752.45
Q 788.35 747.2 793.6 747
L 817.9 746.45
Q 823.15 746.5 823.1 751.75
L 823.1 758.45
Q 823.05 763.7 816.15 764.3
L 803.15 765.5
Q 796.85 766.05 799.1 771.15 801.85 775.95 808.15 774.95 831 771.1 853.9 768.05 860.15 767.05 861.65 768.95 862.65 770.2 869.8 769.4 876.3 769 873.6 762.5
L 871.75 757.85
Q 869.45 751.95 862.95 753 857.3 753.6 857.7 756.7 857.9 759.25 851.35 759.85 844.85 760.05 844.9 754.8
L 844.9 750.4
Q 844.95 745.15 850.2 745.2 863.4 744.6 876.6 744.65 881.65 744.7 881.8 751.4 881.55 761.9 881.9 772.4 881.9 777.65 876.7 777.6
L 865.15 777.55
Q 859.5 777.55 861.95 784.85 864.2 791.15 870.5 791.2
L 894.6 791.3
Q 906.15 791.15 906 781.1 905.25 761.4 905.35 742.3 901 733.9 887.55 735.5 868.9 735.4 850.25 735.95 845 735.9 845 728.8 845.05 721.85 850.3 721.9
L 860.35 721.95
Q 865.4 721.95 865.8 723.45 866.05 724.5 872.3 724.55
L 890.35 724.6
Q 896.65 724.65 896.05 717.3 894.2 700.55 893.05 683.75 891.2 678.5 886.15 678.25 881.8 677 875.65 677.35 843.15 678.5 811.5 678.75 805 678.9 805 677.25
M 803.3 692.55
Q 803.3 687.5 808.55 687.55
L 818.4 687.6
Q 823.4 687.6 823.4 692.85 823.35 697.9 818.1 697.85
L 808.5 697.85
Q 803.25 697.8 803.3 692.55
M 803.2 709.7
Q 803.25 704.7 808.5 704.75
L 818.35 704.8
Q 823.35 704.8 823.3 710.05 823.3 714.85 818.05 714.8
L 808.45 714.8
Q 803.2 714.75 803.2 709.7
M 850.5 687.1
L 861.2 687.15
Q 866.25 687.15 866.6 692.6 866.55 698.1 861.3 698.1
L 850.4 698.05
Q 845.15 698 845.2 692.5 845.25 687.05 850.5 687.1
M 866.5 709.4
Q 866.5 714.2 861.25 714.2
L 850.35 714.15
Q 845.1 714.1 845.1 709.1 845.15 704.25 850.4 704.3
L 861.5 704.35
Q 866.55 704.35 866.5 709.4
M 807.95 637.2
Q 801.65 637.2 801.65 642.65 801.6 648.1 796.35 648.05
L 769.55 647.95
Q 764.5 647.9 764.95 642.45
L 765.8 636.8
Q 766.7 630.3 771.95 630.35
L 901.5 628.7
Q 907.8 628.45 908.05 622.2
L 908.05 615.7
Q 908.3 609.4 902 609.4 833.9 608.85 750.8 614.95 745.15 615.3 743.9 622.2 731.8 696.6 726.6 776.05 726.3 782.35 732.6 783.15
L 746.85 784.95
Q 753.15 785.8 753.2 779.5 754.85 729.2 761.65 668.25 762.35 661.5 767.6 661.55
L 795.25 661.65
Q 800.5 661.7 800.5 666.1 800.45 670.3 806.75 670.3
L 815.15 670.35
Q 821.4 670.4 821.45 666.2 821.45 662.05 826.7 662.05
L 842.2 662.15
Q 847.45 662.15 847.45 666.55 847.4 670.5 853.7 670.55
L 862.5 670.6
Q 868.8 670.6 868.85 666.4 868.85 662.25 874.1 662.3
L 899.65 662.4
Q 905.95 662.45 906 655.5 906 648.6 899.7 648.55
L 874.15 648.45
Q 868.9 648.4 868.95 642.75 868.95 637.5 862.65 637.5
L 853.85 637.45
Q 847.55 637.4 847.55 642.85 847.5 648.3 842.25 648.3
L 828 648.2
Q 822.8 648.2 822.85 642.55 822.85 637.3 816.55 637.25
L 807.95 637.2 Z"/>
</g>

<g id="Layer0_0_MEMBER_2_MEMBER_0_MEMBER_0_MEMBER_0_FILL">
<path fill="#984B01" stroke="none" d="
M 762.55 385.5
Q 759.55 385 757.05 385.2 754.05 385.4 750.8 387.25 749.45 388 747.55 389.45
L 747.3 389.85
Q 739.85 401.1 754.5 414.85 763.05 422.65 773.85 426.3 789.15 427.5 777.25 418 790.95 426.85 797.8 416.9 800.35 413.5 796.1 411.7
L 791.05 410.05
Q 803.25 402.55 792.75 400.25
L 782.3 396
Q 774.5 389.1 766.85 386.5 764.45 385.8 762.55 385.5 Z"/>
</g>

<g id="Layer0_0_MEMBER_3_MEMBER_0_MEMBER_0_MEMBER_0_FILL">
<path fill="#EC8E02" stroke="none" d="
M 547.75 391.4
Q 544.75 390 543.2 393.55 542 397.65 544.9 398.65
L 607.15 422.4
Q 619.75 427.65 620.2 425.75 620.75 423.95 618.6 422.7 615.45 421.05 587.6 408.7
L 547.75 391.4 Z"/>
</g>

<g id="Layer0_0_MEMBER_4_MEMBER_0_MEMBER_0_MEMBER_0_FILL">
<path fill="#984B01" stroke="none" d="
M 593.4 380.25
Q 590.95 380.05 587.75 380.5 586.15 380.75 583.35 381.45 575.5 384.05 567.4 390.95
L 556.65 395.25
Q 545.8 397.45 558.25 405.25
L 553.05 406.9
Q 548.65 408.65 551.25 412.2 558.1 422.45 572.3 413.6 559.9 423.2 575.65 422.15 586.85 418.45 595.6 410.7 610.8 396.75 603.3 385.15
L 603.1 384.75
Q 601.45 383.45 599.75 382.45 596.4 380.55 593.4 380.25 Z"/>
</g>

<g id="Layer0_0_MEMBER_5_FILL">
<path fill="#0C0303" stroke="none" d="
M 651.25 345.35
L 656 341.65
Q 654.2458984375 339.287890625 650.75 338.35
L 650.8 338.35
Q 648.0052734375 337.544921875 644.85 337.95
L 644.8 337.95
Q 641.15 338.3791015625 635.25 341.65 632.5486328125 343.2134765625 631.45 343.75 629.4955078125 344.6857421875 627.8 345.05
L 629.1 350.9
Q 631.4041015625 350.4142578125 634.05 349.15 635.2513671875 348.586328125 638.2 346.9 642.810546875 344.3431640625 645.6 343.9
L 645.65 343.9
Q 647.516796875 343.661328125 649.15 344.1
L 649.2 344.15 649.2 344.15
Q 650.5544921875 344.5123046875 651.25 345.35 Z"/>
</g>

<g id="Layer0_0_MEMBER_6_FILL">
<path fill="#0C0303" stroke="none" d="
M 691.9 341.65
L 696.65 345.35
Q 697.407421875 344.51484375 698.75 344.15
L 698.8 344.15 698.8 344.1
Q 700.476953125 343.6623046875 702.25 343.9
L 702.3 343.9
Q 705.139453125 344.3431640625 709.7 346.9
L 709.75 346.9
Q 712.9271484375 348.6662109375 713.85 349.1
L 713.9 349.15 713.9 349.15
Q 716.6107421875 350.4244140625 718.9 350.9
L 720.2 345.05
Q 718.4892578125 344.675390625 716.45 343.7
L 716.55 343.75
Q 715.67265625 343.3337890625 712.65 341.65
L 712.65 341.65
Q 706.8 338.3791015625 703.1 337.95 700.0228515625 337.5375 697.15 338.35
L 697.2 338.35
Q 693.6916015625 339.2853515625 691.9 341.65 Z"/>
</g>

<path id="Layer0_0_MEMBER_0_MEMBER_11_MEMBER_0_MEMBER_1_MEMBER_0_1_STROKES" stroke="#663300" stroke-width="2" stroke-linejoin="round" stroke-linecap="round" fill="none" d="
M 542.5193183898925 387.99881515502943
Q 525.7006980895997 402.4374420166016 497.6167755126951 400.533447265625 486.82747192382817 400.0574485778809 478.1008293151856 396.88412399291997 471.9128463745117 394.6627967834472 462.2342063903809 386.88815155029283"/>

<path id="Layer0_0_MEMBER_1_MEMBER_0_1_STROKES" stroke="#006837" stroke-width="2" stroke-linejoin="miter" stroke-linecap="butt" stroke-miterlimit="10" fill="none" d="
M 952.0368560791019 851.4628707885743
L 50.01934280395517 851.4628707885743
Q 42.56203002929692 851.4628707885743 37.32604446411142 846.2268852233885 32.09005889892592 840.8322334289551 32.09005889892592 833.3749206542968
L 32.09005889892592 561.4210037231444
Q 32.09005889892592 554.1223571777343 37.32604446411142 548.7277053833006 42.720696258544876 543.4917198181154 50.01934280395517 543.4917198181154
L 952.0368560791019 543.4917198181154
Q 959.4941688537599 543.4917198181154 964.7301544189456 548.7277053833006 969.9661399841309 554.1223571777343 969.9661399841309 561.4210037231444
L 969.9661399841309 833.3749206542968
Q 969.9661399841309 840.8322334289551 964.7301544189456 846.2268852233885 959.4941688537599 851.4628707885743 952.0368560791019 851.4628707885743 Z"/>

<path id="Layer0_0_MEMBER_1_MEMBER_1_1_STROKES" stroke="#603813" stroke-width="2" stroke-linejoin="miter" stroke-linecap="butt" stroke-miterlimit="10" fill="none" d="
M 976.4714553833007 872.4068130493165
L 25.58474349975586 872.4068130493165
Q 18.286096954345794 872.4068130493165 12.89144515991211 867.1708274841308 7.655459594726608 861.9348419189453 7.655459594726608 854.4775291442872
L 7.655459594726608 848.4482124328613
Q 7.655459594726608 840.9908996582033 12.89144515991211 835.5962478637696 18.12743072509761 830.3602622985838 25.58474349975586 830.3602622985838
L 976.4714553833007 830.3602622985838
Q 983.9287681579588 830.3602622985838 989.1647537231445 835.5962478637696 994.5594055175782 840.9908996582033 994.5594055175782 848.4482124328613
L 994.5594055175782 854.4775291442872
Q 994.5594055175782 861.7761756896973 989.1647537231445 867.1708274841308 983.9287681579588 872.4068130493165 976.4714553833007 872.4068130493165 Z"/>
</defs>

<g transform="matrix( 3.1733245849609375, 0, 0, 3.1733245849609375, -1639.3,-767.25) ">
<use xlink:href="#Layer0_0_MEMBER_0_MEMBER_0_MEMBER_0_MEMBER_0_MEMBER_0_FILL"/>
</g>

<g transform="matrix( 3.1733245849609375, 0, 0, 3.1733245849609375, -1639.3,-767.25) ">
<use xlink:href="#Layer0_0_MEMBER_0_MEMBER_1_MEMBER_0_MEMBER_0_MEMBER_0_FILL"/>
</g>

<g transform="matrix( 3.1733245849609375, 0, 0, 3.1733245849609375, -1639.3,-767.25) ">
<use xlink:href="#Layer0_0_MEMBER_0_MEMBER_2_MEMBER_0_MEMBER_0_MEMBER_0_FILL"/>
</g>

<g transform="matrix( 3.1733245849609375, 0, 0, 3.1733245849609375, -1639.3,-767.25) ">
<use xlink:href="#Layer0_0_MEMBER_0_MEMBER_3_MEMBER_0_MEMBER_0_MEMBER_0_FILL"/>
</g>

<g transform="matrix( 3.1733245849609375, 0, 0, 3.1733245849609375, -1639.3,-767.25) ">
<use xlink:href="#Layer0_0_MEMBER_0_MEMBER_4_MEMBER_0_MEMBER_0_MEMBER_0_FILL"/>
</g>

<g transform="matrix( 3.1733245849609375, 0, 0, 3.1733245849609375, -1639.3,-767.25) ">
<use xlink:href="#Layer0_0_MEMBER_0_MEMBER_5_MEMBER_0_MEMBER_0_MEMBER_0_FILL"/>
</g>

<g transform="matrix( 3.1733245849609375, 0, 0, 3.1733245849609375, -1639.3,-767.25) ">
<use xlink:href="#Layer0_0_MEMBER_0_MEMBER_5_MEMBER_0_MEMBER_0_MEMBER_1_FILL"/>
</g>

<g transform="matrix( 3.1733245849609375, 0, 0, 3.1733245849609375, -1639.3,-767.25) ">
<use xlink:href="#Layer0_0_MEMBER_0_MEMBER_6_MEMBER_0_MEMBER_0_MEMBER_0_FILL"/>
</g>

<g transform="matrix( 3.1733245849609375, 0, 0, 3.1733245849609375, -1639.3,-767.25) ">
<use xlink:href="#Layer0_0_MEMBER_0_MEMBER_7_MEMBER_0_MEMBER_0_MEMBER_0_FILL"/>
</g>

<g transform="matrix( 3.1733245849609375, 0, 0, 3.1733245849609375, -1639.3,-767.25) ">
<use xlink:href="#Layer0_0_MEMBER_0_MEMBER_8_MEMBER_0_MEMBER_0_MEMBER_0_FILL"/>
</g>

<g transform="matrix( 3.1733245849609375, 0, 0, 3.1733245849609375, -1639.3,-767.25) ">
<use xlink:href="#Layer0_0_MEMBER_0_MEMBER_9_MEMBER_0_MEMBER_0_MEMBER_0_FILL"/>
</g>

<g transform="matrix( 3.1733245849609375, 0, 0, 3.1733245849609375, -1639.3,-767.25) ">
<use xlink:href="#Layer0_0_MEMBER_0_MEMBER_10_MEMBER_0_MEMBER_0_MEMBER_0_MEMBER_0_FILL"/>
</g>

<g transform="matrix( 3.1733245849609375, 0, 0, 3.1733245849609375, -1639.3,-767.25) ">
<use xlink:href="#Layer0_0_MEMBER_0_MEMBER_10_MEMBER_1_MEMBER_0_MEMBER_0_MEMBER_0_FILL"/>
</g>

<g transform="matrix( 3.1733245849609375, 0, 0, 3.1733245849609375, -1639.3,-767.25) ">
<use xlink:href="#Layer0_0_MEMBER_0_MEMBER_10_MEMBER_2_MEMBER_0_MEMBER_0_MEMBER_0_FILL"/>
</g>

<g transform="matrix( 3.1733245849609375, 0, 0, 3.1733245849609375, -1639.3,-767.25) ">
<use xlink:href="#Layer0_0_MEMBER_0_MEMBER_10_MEMBER_3_MEMBER_0_MEMBER_0_MEMBER_0_FILL"/>
</g>

<g transform="matrix( 3.1733245849609375, 0, 0, 3.1733245849609375, -1639.3,-767.25) ">
<use xlink:href="#Layer0_0_MEMBER_0_MEMBER_10_MEMBER_4_MEMBER_0_MEMBER_0_MEMBER_0_FILL"/>
</g>

<g transform="matrix( 3.1733245849609375, 0, 0, 3.1733245849609375, -1639.3,-767.25) ">
<use xlink:href="#Layer0_0_MEMBER_0_MEMBER_10_MEMBER_5_MEMBER_0_MEMBER_0_MEMBER_0_FILL"/>
</g>

<g transform="matrix( 3.1733245849609375, 0, 0, 3.1733245849609375, -1639.3,-767.25) ">
<use xlink:href="#Layer0_0_MEMBER_0_MEMBER_11_MEMBER_0_MEMBER_0_MEMBER_0_MEMBER_0_FILL"/>
</g>

<g transform="matrix( 3.1733245849609375, 0, 0, 3.1733245849609375, -1639.3,-767.25) ">
<use xlink:href="#Layer0_0_MEMBER_0_MEMBER_11_MEMBER_0_MEMBER_1_MEMBER_0_1_STROKES" transform="matrix( 0.31512451171875, 0, 0, 0.31512451171875, 516.55,241.75) "/>
</g>

<g transform="matrix( 3.1733245849609375, 0, 0, 3.1733245849609375, -1639.3,-767.25) ">
<use xlink:href="#Layer0_0_MEMBER_1_MEMBER_0_FILL"/>

<use xlink:href="#Layer0_0_MEMBER_1_MEMBER_0_1_STROKES" transform="matrix( 0.31512451171875, 0, 0, 0.31512451171875, 516.55,241.75) "/>
</g>

<g transform="matrix( 3.1733245849609375, 0, 0, 3.1733245849609375, -1639.3,-767.25) ">
<use xlink:href="#Layer0_0_MEMBER_1_MEMBER_1_FILL"/>

<use xlink:href="#Layer0_0_MEMBER_1_MEMBER_1_1_STROKES" transform="matrix( 0.31512451171875, 0, 0, 0.31512451171875, 516.55,241.75) "/>
</g>

<g transform="matrix( 1, 0, 0, 1, 0,0) ">
<use xlink:href="#Layer0_0_MEMBER_1_MEMBER_2_FILL"/>
</g>

<g transform="matrix( 3.1733245849609375, 0, 0, 3.1733245849609375, -1639.3,-767.25) ">
<use xlink:href="#Layer0_0_MEMBER_2_MEMBER_0_MEMBER_0_MEMBER_0_FILL"/>
</g>

<g transform="matrix( 3.1733245849609375, 0, 0, 3.1733245849609375, -1639.3,-767.25) ">
<use xlink:href="#Layer0_0_MEMBER_3_MEMBER_0_MEMBER_0_MEMBER_0_FILL"/>
</g>

<g transform="matrix( 3.1733245849609375, 0, 0, 3.1733245849609375, -1639.3,-767.25) ">
<use xlink:href="#Layer0_0_MEMBER_4_MEMBER_0_MEMBER_0_MEMBER_0_FILL"/>
</g>

<g transform="matrix( 3.1733245849609375, 0, 0, 3.1733245849609375, -1639.3,-767.25) ">
<use xlink:href="#Layer0_0_MEMBER_5_FILL"/>
</g>

<g transform="matrix( 3.1733245849609375, 0, 0, 3.1733245849609375, -1639.3,-767.25) ">
<use xlink:href="#Layer0_0_MEMBER_6_FILL"/>
</g>
</svg>
