
<svg xmlns="http://www.w3.org/2000/svg" version="1.1" xmlns:xlink="http://www.w3.org/1999/xlink" preserveAspectRatio="none" x="0px" y="0px" width="122px" height="100px" viewBox="0 0 122 100">
<defs>
<g id="___0_Layer2_0_FILL">
<path fill="#666666" stroke="none" d="
M 10.8 98.5
L 0.05 98.5 0.05 107.3 10.8 107.3 10.8 98.5 Z"/>
</g>

<g id="___0_Layer1_0_FILL">
<path fill="#CC6600" stroke="none" d="
M 8.55 113.25
L 161.6 113.25 162.6 66.2
Q 87.35 55.8 7.7 66.2
L 8.55 113.25 Z"/>

<path fill="#FF9900" stroke="none" d="
M 162.6 66.2
L 163.65 17.1
Q 84.55 8.35 6.85 17.1
L 7.7 66.2
Q 87.35 55.8 162.6 66.2 Z"/>

<path fill="#BD8633" stroke="none" d="
M 163.65 17.1
L 163.8 9.7
Q 85.1 -2.25 6.7 10.25
L 6.85 17.1
Q 84.55 8.35 163.65 17.1 Z"/>
</g>

<g id="___0_Layer1_0_MEMBER_0_FILL">
<path fill="#FFCC00" stroke="none" d="
M 808.3 -28.9
Q 798.95 -28.05 789.65 -27
L 789.9 -17.95
Q 899.5 -25.65 1003.4 -17.95
L 1003.7 -27.5
Q 999.6 -27.95 995.5 -28.35 901.9 -33.45 808.3 -28.9 Z"/>
</g>

<g id="___0_Layer0_0_FILL">
<path fill="#9999FF" stroke="none" d="
M 60.3 30.15
Q 60.3 17.65 51.45 8.8 42.65 0 30.15 0 17.65 0 8.8 8.8 0 17.65 0 30.15 0 42.65 8.8 51.45 17.65 60.3 30.15 60.3 42.65 60.3 51.45 51.45 60.3 42.65 60.3 30.15 Z"/>
</g>

<path id="___0_Layer0_0_1_STROKES" stroke="#336699" stroke-width="15" stroke-linejoin="miter" stroke-linecap="butt" stroke-miterlimit="4" fill="none" d="
M 60.3 30.15
Q 60.3 42.65 51.45 51.45 42.65 60.3 30.15 60.3 17.65 60.3 8.8 51.45 0 42.65 0 30.15 0 17.65 8.8 8.8 17.65 0 30.15 0 42.65 0 51.45 8.8 60.3 17.65 60.3 30.15 Z"/>
</defs>

<g transform="matrix( 0.69866943359375, 0, 0, 0.69866943359375, 0.15,0.05) ">
<g transform="matrix( 16.242446899414062, 0, 0, 1, -1.05,0) ">
<use xlink:href="#___0_Layer2_0_FILL"/>
</g>

<g transform="matrix( 1, 0, 0, 1, 0,0) ">
<use xlink:href="#___0_Layer1_0_FILL"/>
</g>

<g transform="matrix( 0.7475433349609375, 0, 0, 1.0650634765625, -585.1,33.05) ">
<use xlink:href="#___0_Layer1_0_MEMBER_0_FILL"/>
</g>

<g transform="matrix( 0.73382568359375, 0, 0, 0.73382568359375, 20.35,91.35) ">
<g transform="matrix( 1, 0, 0, 1, 0,0) ">
<use xlink:href="#___0_Layer0_0_FILL"/>

<use xlink:href="#___0_Layer0_0_1_STROKES"/>
</g>
</g>

<g transform="matrix( 0.73382568359375, 0, 0, 0.73382568359375, 103.85,91.35) ">
<g transform="matrix( 1, 0, 0, 1, 0,0) ">
<use xlink:href="#___0_Layer0_0_FILL"/>

<use xlink:href="#___0_Layer0_0_1_STROKES"/>
</g>
</g>
</g>
</svg>
