
<svg xmlns="http://www.w3.org/2000/svg" version="1.1" xmlns:xlink="http://www.w3.org/1999/xlink" preserveAspectRatio="none" x="0px" y="0px" width="110px" height="216px" viewBox="0 0 110 216">
<defs>
<g id="___0_Layer0_0_FILL">
<path fill="#FFD7D7" stroke="none" d="
M 427.85 423.8
Q 418.85 415.7 413.55 415.6 410.15 415.55 405.95 417.8 402.25 419.85 399.7 422.65 398.4 423.85 398.25 425.65 398.3 427.2 400.45 428.85 408.9 435.05 424.45 433.55 426.8 433.35 428.1 432.85 430 432.05 430.65 430.45 431.85 427.45 427.85 423.8 Z"/>
</g>

<g id="___0_Layer0_1_FILL">
<path fill="#FFD7D7" stroke="none" d="
M 338.9 417.7
Q 333.45 417.8 324.6 425.9 320.6 429.55 321.8 432.55 322.85 435.25 327.95 435.65 343.55 437.15 351.95 430.95 354.15 429.35 354.15 427.75 354.1 426.05 352.7 424.75 350.2 421.95 346.45 419.9 342.3 417.65 338.9 417.7 Z"/>
</g>

<g id="___0_Layer0_2_FILL">
<path fill="#FFD7D7" stroke="none" d="
M 388.35 326.4
Q 379.7 318.9 374.6 318.9 369.5 318.9 360.85 326.4 352.4 333.75 344.1 345.2 335.2 357.35 329.9 369.65 323.9 383.4 323.9 394.1 323.9 414.75 338.75 422.4 349.8 428.1 374.6 428.1 399.4 428.1 410.45 422.4 425.3 414.75 425.3 394.1 425.3 383.4 419.3 369.6 414 357.35 405.15 345.2 396.8 333.75 388.35 326.4 Z"/>
</g>

<g id="___0_Layer0_3_FILL">
<path fill="#FFD7D7" stroke="none" d="
M 330.3 378.65
L 340.2 363
Q 334.697265625 361.347265625 327.55 359.6 320.401953125 357.83984375 312.55 358.85 304.696875 359.8787109375 309.55 365.05 314.4505859375 370.2587890625 317.3 372.05 320.196484375 373.84453125 330.3 378.65 Z"/>
</g>

<g id="___0_Layer0_4_FILL">
<path fill="#FFD7D7" stroke="none" d="
M 411.65 360.2
L 413.7 377.9
Q 421.06875 376.569921875 427.55 373.6 434.043359375 370.61484375 437.9 366.8 441.7927734375 363.0474609375 439.9 360.6 438.01328125 358.20078125 430.95 358.5 423.8953125 358.798046875 411.65 360.2 Z"/>
</g>

<g id="___0_Layer0_5_FILL">
<path fill="#9933CC" stroke="none" d="
M 325.1 379.2
Q 325.55 380.2 325.3 381.25
L 322.25 395.1
Q 321.85 396.95 323.05 398.4 324.25 399.9 326.15 399.9
L 424 399.9
Q 425.55 399.9 426.6 398.75 427.65 397.55 427.45 396
L 425.5 379.35
Q 425.25 377.7 426.5 376.45
L 427.15 375.8
Q 427.95 375 428.15 373.95 428.35 372.85 427.85 371.85
L 422.6 360.6
Q 421.8 358.85 419.9 358.6
L 416.65 358.2
Q 414.65 357.95 413.9 356.15
L 412.9 353.8
Q 412.4 352.55 411.15 352 409.95 351.45 408.65 351.85 399.7 354.55 392.3 356.4 386.05 357.95 372.05 357.2 371.1 357.1 356.2 355.85 353.1 355.55 344.2 350.6 342.95 349.9 341.6 350.25 340.25 350.6 339.5 351.8
L 336.25 357.4
Q 335.3 359.1 333.25 359.2
L 331.55 359.2
Q 329.4 359.3 328.5 361.15
L 322.6 373.15
Q 322 374.3 322.35 375.6 322.7 376.9 323.8 377.6 324.7 378.2 325.1 379.2 Z"/>
</g>

<g id="___0_Layer0_0_MEMBER_0_FILL">
<path fill="#FFD7D7" stroke="none" d="
M 350.2 135.6
Q 345.25 124.1 335.9 114.5 328.6 107 321.5 109.75 319.25 110.6 317.35 112.4
L 315.85 114
Q 314.45 115.8 312.5 119.15 308.6 125.95 305.85 134 296.95 159.7 302.6 188.3 308.25 217 322.35 235 329.4 244.1 335.9 247.85
L 360.7 238.25
Q 362.2 231.55 362.95 220.3 364.4 197.8 360.45 175.05 355.95 149.1 350.2 135.6 Z"/>
</g>

<g id="___0_Layer0_0_MEMBER_1_FILL">
<path fill="#FFD7D7" stroke="none" d="
M 453.85 139.5
Q 451.35 130.95 447.6 123.7
L 444.4 118.1
Q 442.35 115 438.75 113.4 431.45 110.2 423.45 117.6 413.15 127.15 407.4 138.9 400.65 152.7 394.65 179.55 389.35 203.1 389.75 226.7 389.9 238.5 391.15 245.55
L 416.55 256.85
Q 416.8 256.7 421.2 253.8 426.5 249.85 431.4 244.15 447 226.05 454.4 196.35 461.8 166.8 453.85 139.5 Z"/>
</g>

<g id="___0_Layer0_0_MEMBER_2_FILL">
<path fill="#FFA2B7" stroke="none" d="
M 414.45 169.55
Q 410.1 178.5 405.25 196.2 400.95 211.75 399.5 227.6 398.8 235.55 398.9 240.35
L 410.9 249.05
Q 411.05 248.95 413.45 247.2 416.35 244.8 419.25 241.2 428.35 229.75 434.15 210.15 439.95 190.6 437.8 172 437.15 166.15 435.8 161.1
L 434.55 157.25
Q 433.75 155.1 432 153.85 428.55 151.35 424 156 418.15 162 414.45 169.55 Z"/>
</g>

<g id="___0_Layer0_0_MEMBER_3_FILL">
<path fill="#FFA2B7" stroke="none" d="
M 349.3 194.15
Q 345.5 177 341.75 168.2 338.55 160.75 333.25 154.75 329.15 150.15 325.7 152.35 324.65 153.05 323.75 154.35
L 323.1 155.5 321.75 159.15
Q 320.2 163.9 319.3 169.45 316.4 187.2 321 206.1 325.6 225.1 333.75 236.45 337.9 242.2 341.4 244.35
L 353.3 236.6
Q 353.65 232 353.35 224.4 352.7 209.2 349.3 194.15 Z"/>
</g>

<g id="___0_Layer0_0_MEMBER_4_FILL">
<path fill="#FFD7D7" stroke="none" d="
M 436.65 254.9
Q 424.65 243.55 409.3 237 393.05 230.1 375.45 229.65 357.85 229.2 341.25 235.35 325.6 241.1 313.05 251.85 300.75 262.35 293.7 275.7 286.5 289.3 286.15 303.35 285.5 330.1 310.65 343.8 332.65 355.75 372.05 356.75 411.5 357.75 434.25 346.85 460.3 334.4 460.95 307.65 461.3 293.65 454.8 279.65 448.4 266 436.65 254.9 Z"/>
</g>

<g id="___0_Layer0_0_MEMBER_6_FILL">
<path fill="#BE1622" stroke="none" d="
M 338.7 295.15
Q 336.15 292.65 333.35 293.15 330.5 293.7 329.05 296.9 327.55 300.1 328.3 304.15 329 308.2 331.55 310.7 334.05 313.25 336.85 312.7 339.65 312.2 341.15 309 342.65 305.75 341.9 301.7 341.2 297.65 338.7 295.15 Z"/>
</g>

<g id="___0_Layer0_0_MEMBER_7_FILL">
<path fill="#BE1622" stroke="none" d="
M 423.05 296.45
Q 421.8 293.1 419.05 292.4 416.3 291.65 413.55 293.95 410.85 296.25 409.8 300.25 408.75 304.2 410 307.55 411.2 310.9 413.95 311.6 416.7 312.35 419.45 310.05 422.15 307.75 423.2 303.75 424.25 299.75 423.05 296.45 Z"/>
</g>

<path id="___0_Layer0_0_MEMBER_5_MEMBER_0_1_STROKES" stroke="#FFA2B7" stroke-width="4.05" stroke-linejoin="round" stroke-linecap="round" fill="none" d="
M 47.740078735351574 110.10272827148438
Q 47.826312255859364 112.02861022949222 49.26353759765624 113.3508575439453 50.700762939453114 114.64436035156248 52.62664489746095 114.52938232421874 54.38005981445315 114.44314880371095 55.61607360839844 113.2646240234375 56.880831909179676 112.05735473632811 57.05329895019531 110.33268432617186"/>

<path id="___0_Layer0_0_MEMBER_5_MEMBER_1_1_STROKES" stroke="#FFA2B7" stroke-width="4.05" stroke-linejoin="round" stroke-linecap="round" fill="none" d="
M 38.426858520507835 109.8727722167969
Q 38.541836547851574 111.79865417480468 39.97906188964845 113.09215698242187 41.416287231445324 114.414404296875 43.34216918945316 114.29942626953127 45.06683959960941 114.21319274902342 46.33159790039065 113.03466796875003 47.56761169433594 111.82739868164063 47.740078735351574 110.10272827148438"/>
</defs>

<g transform="matrix( 1.086181640625, 0, 0, 1.086181640625, -12.2,-34.3) ">
<g transform="matrix( 0.7021331787109375, 0, 0, 0.7021331787109375, -200.9,-76.55) ">
<use xlink:href="#___0_Layer0_0_FILL"/>
</g>

<g transform="matrix( 0.7021331787109375, 0, 0, 0.7021331787109375, -200.9,-76.55) ">
<use xlink:href="#___0_Layer0_1_FILL"/>
</g>

<g transform="matrix( 0.7021331787109375, 0, 0, 0.7021331787109375, -200.9,-76.55) ">
<use xlink:href="#___0_Layer0_2_FILL"/>
</g>

<g transform="matrix( 0.7021331787109375, 0, 0, 0.7021331787109375, -200.9,-76.55) ">
<use xlink:href="#___0_Layer0_3_FILL"/>
</g>

<g transform="matrix( 0.7021331787109375, 0, 0, 0.7021331787109375, -200.9,-76.55) ">
<use xlink:href="#___0_Layer0_4_FILL"/>
</g>

<g transform="matrix( 0.7021331787109375, 0, 0, 0.7021331787109375, -200.9,-76.55) ">
<use xlink:href="#___0_Layer0_5_FILL"/>
</g>

<g transform="matrix( 1, 0, 0, 1, 14.4,40.8) ">
<g transform="matrix( 0.5749664306640625, 0, 0, 0.5749664306640625, -167.7,-71.85) ">
<use xlink:href="#___0_Layer0_0_MEMBER_0_FILL"/>
</g>

<g transform="matrix( 0.5749664306640625, 0, 0, 0.5749664306640625, -167.7,-71.85) ">
<use xlink:href="#___0_Layer0_0_MEMBER_1_FILL"/>
</g>

<g transform="matrix( 0.5749664306640625, 0, 0, 0.5749664306640625, -167.7,-71.85) ">
<use xlink:href="#___0_Layer0_0_MEMBER_2_FILL"/>
</g>

<g transform="matrix( 0.5749664306640625, 0, 0, 0.5749664306640625, -167.7,-71.85) ">
<use xlink:href="#___0_Layer0_0_MEMBER_3_FILL"/>
</g>

<g transform="matrix( 0.5749664306640625, 0, 0, 0.5749664306640625, -167.7,-71.85) ">
<use xlink:href="#___0_Layer0_0_MEMBER_4_FILL"/>
</g>

<g transform="matrix( 0.57489013671875, 0, 0, 0.57489013671875, -167.7,-71.85) ">
<use xlink:href="#___0_Layer0_0_MEMBER_5_MEMBER_0_1_STROKES" transform="matrix( 1.7394561767578125, 0, 0, 1.7394561767578125, 291.7,124.95) "/>
</g>

<g transform="matrix( 0.57489013671875, 0, 0, 0.57489013671875, -167.7,-71.85) ">
<use xlink:href="#___0_Layer0_0_MEMBER_5_MEMBER_1_1_STROKES" transform="matrix( 1.7394561767578125, 0, 0, 1.7394561767578125, 291.7,124.95) "/>
</g>

<g transform="matrix( 0.5749664306640625, 0, 0, 0.5749664306640625, -167.7,-71.85) ">
<use xlink:href="#___0_Layer0_0_MEMBER_6_FILL"/>
</g>

<g transform="matrix( 0.5749664306640625, 0, 0, 0.5749664306640625, -167.7,-71.85) ">
<use xlink:href="#___0_Layer0_0_MEMBER_7_FILL"/>
</g>
</g>
</g>
</svg>
