
<svg xmlns="http://www.w3.org/2000/svg" version="1.1" xmlns:xlink="http://www.w3.org/1999/xlink" preserveAspectRatio="none" x="0px" y="0px" width="150px" height="150px" viewBox="0 0 150 150">
<defs>
<g id="Layer0_0_FILL">
<path fill="#535353" fill-opacity="0.4" stroke="none" d="
M 155.6 78.9
Q 155.6 49.85 135.05 29.3 114.5 8.75 85.45 8.75 56.4 8.75 35.85 29.3 15.3 49.85 15.3 78.9 15.3 107.95 35.85 128.5 56.4 149.05 85.45 149.05 114.5 149.05 135.05 128.5 155.6 107.95 155.6 78.9 Z"/>
</g>

<g id="music_btn_0_Layer1_0_FILL">
<path fill="#FF9900" stroke="none" d="
M 43.8 90.6
Q 63.19609375 90.6037109375 76.85 76.85 90.6037109375 63.19609375 90.6 43.8 90.60234375 24.4060546875 76.85 10.65 63.1955078125 -3.00078125 43.8 -3 24.4064453125 -2.9994140625 10.65 10.65 -2.9994140625 24.4064453125 -3 43.8 -3.00078125 63.1955078125 10.65 76.85 24.4060546875 90.60234375 43.8 90.6
M 43.8 3
Q 60.704296875 3.0005859375 72.6 14.9 84.5974609375 26.89375 84.6 43.8 84.596484375 60.7037109375 72.6 72.6 60.7037109375 84.596484375 43.8 84.6 26.89375 84.5974609375 14.9 72.6 3.0005859375 60.704296875 3 43.8 2.999609375 26.893359375 14.9 14.9 26.893359375 2.999609375 43.8 3 Z"/>

<path fill="#FFFF99" stroke="none" d="
M 72.6 14.9
Q 60.704296875 3.0005859375 43.8 3 26.893359375 2.999609375 14.9 14.9 2.999609375 26.893359375 3 43.8 3.0005859375 60.704296875 14.9 72.6 26.89375 84.5974609375 43.8 84.6 60.7037109375 84.596484375 72.6 72.6 84.596484375 60.7037109375 84.6 43.8 84.5974609375 26.89375 72.6 14.9 Z"/>
</g>

<g id="music_btn_0_Layer1_1_MEMBER_0_FILL">
<path fill="#FF9900" stroke="none" d="
M 47.8 14
Q 47.25 14.2 46.95 14.65 46.6 15 46.6 15.45
L 46.6 27.45
Q 46.6 27.5 46.7 27.6
L 46.7 62.4 49.9 62.4 49.9 28.95
Q 58.87578125 30.4341796875 60.3 31.15 61.7267578125 31.8677734375 63.7 33.3 65.713671875 34.7333984375 69.6 36.5 73.490234375 38.2537109375 75.5 38.2 77.5205078125 38.156640625 74.8 35.85 72.077734375 33.5912109375 70.15 28.1 68.212109375 22.6015625 64.55 20.3 60.89765625 18.0005859375 49.05 14.05 48.4 13.8 47.8 14 Z"/>
</g>

<g id="music_btn_0_Layer1_1_MEMBER_0_MEMBER_0_FILL">
<path fill="#FF9900" stroke="none" d="
M 33.95 56.55
Q 28.05 56.55 23.8 59.95 19.6 63.35 19.6 68.1 19.6 72.9 23.8 76.25 28.05 79.65 33.95 79.65 39.9 79.65 44.1 76.25 48.35 72.9 48.35 68.1 48.35 63.35 44.1 59.95 39.9 56.55 33.95 56.55 Z"/>
</g>
</defs>

<g transform="matrix( 1.0337982177734375, 0, 0, 1.0337982177734375, -11.4,-4.45) ">
<use xlink:href="#Layer0_0_FILL"/>
</g>

<g id="musBtn" transform="matrix( 1.53143310546875, 0, 0, 1.53143310546875, 5.5,5.5) ">
<g transform="matrix( 1, 0, 0, 1, 0,0) ">
<use xlink:href="#music_btn_0_Layer1_0_FILL"/>
</g>

<g transform="matrix( 1, 0, 0, 1, 0,0) ">
<use xlink:href="#music_btn_0_Layer1_1_MEMBER_0_FILL"/>
</g>

<g transform="matrix( 0.9786224365234375, 0, 0, 1.018646240234375, 2.6,-6.9) ">
<use xlink:href="#music_btn_0_Layer1_1_MEMBER_0_MEMBER_0_FILL"/>
</g>
</g>
</svg>
