
<svg xmlns="http://www.w3.org/2000/svg" version="1.1" xmlns:xlink="http://www.w3.org/1999/xlink" preserveAspectRatio="none" x="0px" y="0px" width="1920px" height="1000px" viewBox="0 0 1920 1000">
<defs>
<linearGradient id="Gradient_1" gradientUnits="userSpaceOnUse" x1="961.2" y1="400.9375" x2="961.2" y2="110.36250000000001" spreadMethod="pad">
<stop  offset="0%" stop-color="#4DE1FF"/>

<stop  offset="100%" stop-color="#1C93FF"/>
</linearGradient>

<linearGradient id="Gradient_2" gradientUnits="userSpaceOnUse" x1="138.7875" y1="475.2" x2="137.9125" y2="250.7" spreadMethod="pad">
<stop  offset="0.39215686274509803%" stop-color="#CBE9F7"/>

<stop  offset="100%" stop-color="#FFFFFF"/>
</linearGradient>

<linearGradient id="Gradient_3" gradientUnits="userSpaceOnUse" x1="1916.5625" y1="399.95000000000005" x2="1887.2375000000002" y2="160.25" spreadMethod="pad">
<stop  offset="0.39215686274509803%" stop-color="#CBE9F7"/>

<stop  offset="100%" stop-color="#FFFFFF"/>
</linearGradient>

<filter id="Filter_1" x="-20%" y="-20%" width="140%" height="140%" color-interpolation-filters="sRGB">
<feColorMatrix in="SourceGraphic" type="matrix" values="1 0 0 0 0 0 1 0 0 0 0 0 1 0 0 0 0 0 0.11200000000000002 0" result="result1"/>
</filter>

<filter id="Filter_2" x="-20%" y="-20%" width="140%" height="140%" color-interpolation-filters="sRGB">
<feColorMatrix in="SourceGraphic" type="matrix" values="1 0 0 0 0 0 1 0 0 0 0 0 1 0 0 0 0 0 0.28 0" result="result1"/>
</filter>

<g id="___0_Layer0_0_FILL">
<path fill="url(#Gradient_1)" stroke="none" d="
M 1940.25 -11.6
L -17.7 -13.75 -17.7 418.25 1937.65 416.45 1940.25 -11.6 Z"/>
</g>

<g id="_________Group__0_Layer0_0_MEMBER_0_FILL">
<path fill="#FFFFFF" stroke="none" d="
M 503.55 119.05
Q 504.8 115.15 504.8 111.25 504.8 100.8 497.55 93.3 490.35 85.8 479.95 85.35 478.4 78.4 473.5 73.2 468.6 67.95 461.75 66 457.25 56.35 448.3 50.55 439.25 44.65 428.5 44.65 420.45 44.65 413.15 48 406 51.35 400.8 57.35 395.85 55.3 390.7 55.3 382.7 55.3 376.1 59.85 369.7 64.25 366.75 71.45 362.95 64.65 355.95 61.05 357.55 55.05 357.55 48.75 357.55 32.15 347.4 19 337.2 5.85 321.15 1.65
L 320.75 1.55
Q 317.35 0.65 312.85 0.25 303.9 -0.55 296.7 1.65
L 296.6 1.65 296.3 1.75 296.25 1.75
Q 284.8 4.8 275.95 12.95 267.2 20.95 263.15 32.05 248.45 32.1 236.25 40.2 231.0626953125 43.6439453125 227.05 48.05
L 242.25 172.6
Q 248.348046875 170.152734375 253.6 166.1 263.2 170.35 273.4 170.35 283.25 170.35 292.3 166.55 301.25 162.75 308.1 155.75 316.2 158.7 324.75 158.7 328.2 158.7 331.9 158.15 337.4 171.85 349.7 180.25 362.1 188.7 377.05 188.75 391.8 188.75 404.2 180.45 410.2 184.5 417.1 186.6 424.05 188.75 431.3 188.75 439.7 188.75 447.6 185.95 455.4 183.15 461.9 177.9 465 181 468.75 183.25 473.1 198.9 486.1 208.8 499.2 218.75 515.6 218.75 518.3 218.75 520.45 218.55
L 527.65 217.8 527.65 122.35 520.45 121.65
Q 518.45 121.4 515.6 121.4 512.15 121.4 508.45 121.95 506.3 120.45 503.55 119.05 Z"/>
</g>

<g id="__________0_Layer0_0_MEMBER_1_FILL">
<path fill="url(#Gradient_2)" stroke="none" d="
M 690.45 285.7
Q 682.6 260 661.1 243.85 639.05 227.2 611.45 227.35 587.85 227.4 568.05 240 548.7 252.2 538.4 272.5 523.4 258.35 502.8 258.4 481.55 258.5 466.5 273.65 451.5 288.8 451.55 310.25 451.6 314.95 452.45 319.3 443.25 317.2 433.45 317.25 426.55 317.25 420.95 318.3 420.7 298 406.85 283.4 393 268.9 373.15 267.45 384.4 243.35 384.3 217.05 384.15 176.65 359.1 145.1 334.4 113.95 296.25 104.2 293.95 102.6 285.45 101.75 268.3 100.25 237.3 104.4 210.4 107.95 184.9 134.7 159.1 161.7 152.5 194.2 144.3 192.95 135.8 192.95 94.95 193.15 63.15 218.7 47.428125 231.3025390625 37.25 247.4
L 37.25 561.2
Q 53.8388671875 559.3734375 69.35 552.85 90.2 543.95 106.25 528.1 134.05 544.8 166.55 544.65 194.75 544.55 219.55 531.65 243.7 519.35 259.85 497.55 285.2 510.7 314.1 510.55 332.65 510.5 350.2 504.65 359.15 544.65 390.9 570.35 423.2 596.6 464.9 596.4 487.05 596.35 507.4 588.2 527.15 580.45 542.9 566.15 558.75 580.35 578.45 587.9 598.95 595.9 620.95 595.8 647.7 595.7 671.65 584.1 694.65 572.9 711.15 552.85 724.3 576.1 748.5 587.1 756.6 627.9 788.75 654.4 821.35 681.3 863.8 681.15 870.4 681.1 875.45 680.5
L 874.5 447.65
Q 869.45 447.1 862.85 447.15 849.2 447.2 836.45 450.25 818.05 434.35 794.35 431 808.65 415.85 808.55 395.1 808.45 373.85 793.3 358.8 778.15 343.75 756.75 343.85 746.65 343.9 737.6 347.6 738.75 342.15 738.7 336.85 738.65 316.55 724.65 301.7 710.6 286.95 690.45 285.7 Z"/>
</g>

<g id="__________0_Layer0_1_MEMBER_1_FILL">
<path fill="url(#Gradient_3)" stroke="none" d="
M 1993 141.6
Q 1980.3384765625 126.7591796875 1962.75 116 1925.35 93 1881.75 98.35 1872.7 99.45 1864.1 101.9 1852.6 68.1 1821.45 42.7 1790.65 17.65 1761.45 17.55 1727.8 17.3 1709.7 21.2 1700.75 23.25 1698.5 25.25 1659.1 40.75 1636.95 77.35 1614.55 114.4 1619.8 157.55 1623.25 185.65 1638.5 209.8 1617.5 214.05 1604.7 231.4 1591.85 248.85 1594.35 270.5 1588.25 270.15 1580.85 271.05 1570.45 272.35 1560.85 275.9 1561.2 271.1 1560.6 266.05 1557.8 243.15 1539.7 229.05 1521.6 214.85 1498.9 217.65 1476.95 220.35 1462.8 237.5 1449.1 217.2 1426.75 206.85 1404 196.05 1378.8 199.15 1349.3 202.75 1327.95 223.45 1307.25 243.65 1302.3 272.1 1280.95 276.15 1268 293.75 1255.05 311.6 1257.7 333.25 1258.4 338.9 1260.35 344.6 1250.15 341.75 1239.4 343.1 1216.5 345.9 1202.4 364 1188.25 382.05 1191.05 404.8 1193.75 426.9 1211.1 441.2 1186.2 447.95 1168.75 467.4 1154.65 465.85 1140.1 467.65 1133 468.5 1127.75 469.75
L 1158.15 718.35
Q 1163.6 718.35 1170.7 717.5 1216 711.95 1247.15 678.8 1277.95 646.2 1281.05 601.6 1305.4 586.55 1316.3 560 1336.55 579.2 1362.6 588 1389.75 597.15 1418.3 593.65 1441.8 590.8 1462.55 579.5 1482.6 568.8 1497.65 551.5 1516.35 564.65 1538.4 570.25 1561.25 576.15 1584.9 573.25 1629.45 567.8 1660.45 535.5 1690.85 503.7 1695 459.9 1714.5 463.75 1734.3 461.3 1765.15 457.55 1790.45 440.15 1810.65 461.15 1838.05 471.05 1866.25 481.5 1896.35 477.8 1931.05 473.55 1958.5 451.95 1974.344140625 464.1314453125 1993 470.8
L 1993 141.6 Z"/>
</g>

<g id="___0_Layer0_2_MEMBER_0_FILL">
<path fill="#999999" stroke="none" d="
M 1973.95 1066.1
L 1973.9 385.2 -64.15 385.2
Q -64.3 385.5 -64.45 385.75
L -64.4 1066.1 1973.95 1066.1 Z"/>
</g>

<g id="___0_Layer0_3_FILL">
<path fill="#85DE67" stroke="none" d="
M 1936.25 1021.3
L 1936.25 405.8 -19.45 405.8 -19.4 1021.3 1936.25 1021.3 Z"/>
</g>

<g id="___0_Layer0_4_FILL">
<path fill="#33CC00" stroke="none" d="
M 1936.3 1032
L 1936.3 413.3 -21.2 413.3 -21.25 1032 1936.3 1032 Z"/>
</g>

<g id="___0_Layer0_5_FILL">
<path fill="#8FD646" stroke="none" d="
M 1834.7 583.25
Q 1830.022265625 543.39765625 1797.3 515.45 1764.90234375 487.7564453125 1723.5 487.8
L 200.05 487.8
Q 158.59765625 487.7564453125 126.1 515.45 93.4775390625 543.39765625 88.8 583.25
L 59.65 830.85
Q 59.06953125 835.387109375 58.95 839.8 57.43984375 877.1119140625 81.85 904.6 109.4501953125 935.5541015625 153.45 935.55
L 1770.1 935.55
Q 1814.049609375 935.5541015625 1841.55 904.6 1866.062109375 877.1626953125 1864.6 839.8 1864.4294921875 835.387109375 1863.9 830.85
L 1834.7 583.25 Z"/>
</g>

<path id="_________1_0_Layer0_0_1_STROKES" stroke="#33CC00" stroke-width="10" stroke-linejoin="miter" stroke-linecap="round" stroke-miterlimit="4" fill="none" d="
M 0.021043395996116487 2.5299743652343807
L 4.79767761230471 9.470458984375"/>

<path id="_________1_0_Layer0_1_1_STROKES" stroke="#33CC00" stroke-width="10" stroke-linejoin="miter" stroke-linecap="round" stroke-miterlimit="4" fill="none" d="
M 24.997767639160145 -0.01950378417967613
L 24.997767639160145 9.007138061523449"/>

<path id="_________1_0_Layer0_2_1_STROKES" stroke="#33CC00" stroke-width="10" stroke-linejoin="miter" stroke-linecap="round" stroke-miterlimit="4" fill="none" d="
M 47.738063049316395 5.09192810058596
L 44.426654052734364 10.427676391601551"/>

<path id="_________2_0_Layer0_0_1_STROKES" stroke="#33CC00" stroke-width="10" stroke-linejoin="miter" stroke-linecap="round" stroke-miterlimit="4" fill="none" d="
M 521.2 484
L 523.05 488.35"/>

<path id="_________2_0_Layer0_1_1_STROKES" stroke="#33CC00" stroke-width="10" stroke-linejoin="miter" stroke-linecap="round" stroke-miterlimit="4" fill="none" d="
M 539.95 474
L 539.95 481.8"/>

<path id="_________2_0_Layer0_2_1_STROKES" stroke="#33CC00" stroke-width="10" stroke-linejoin="miter" stroke-linecap="round" stroke-miterlimit="4" fill="none" d="
M 555.3 481.5
L 556.55 487.75"/>

<path id="_________2_0_Layer0_3_1_STROKES" stroke="#33CC00" stroke-width="10" stroke-linejoin="miter" stroke-linecap="round" stroke-miterlimit="4" fill="none" d="
M 581.55 484.3
L 576.55 489"/>

<path id="_________3_0_Layer0_0_MEMBER_0_1_STROKES" stroke="#8FD646" stroke-width="10" stroke-linejoin="miter" stroke-linecap="round" stroke-miterlimit="4" fill="none" d="
M 0.021043395996116487 2.5299743652343807
L 4.79767761230471 9.470458984375"/>

<path id="_________3_0_Layer0_0_MEMBER_1_1_STROKES" stroke="#8FD646" stroke-width="10" stroke-linejoin="miter" stroke-linecap="round" stroke-miterlimit="4" fill="none" d="
M 24.997767639160145 -0.01950378417967613
L 24.997767639160145 9.007138061523449"/>

<path id="_________3_0_Layer0_0_MEMBER_2_1_STROKES" stroke="#8FD646" stroke-width="10" stroke-linejoin="miter" stroke-linecap="round" stroke-miterlimit="4" fill="none" d="
M 47.738063049316395 5.09192810058596
L 44.426654052734364 10.427676391601551"/>
</defs>

<g transform="matrix( 1, 0, 0, 1, -23.6,-13.75) ">
<g transform="matrix( 1, 0, 0, 1.110076904296875, 23.6,15.25) ">
<use xlink:href="#___0_Layer0_0_FILL"/>
</g>

<g transform="matrix( 1, 0, 0, 1, -31.25,80) ">
<g transform="matrix( 2.8765106201171875, -0.011474609375, 0.011474609375, 2.8765106201171875, -621.85,80.25) ">
<g transform="matrix( 1, 0, 0, 1, 0,0) ">
<use filter="url(#Filter_1)" xlink:href="#_________Group__0_Layer0_0_MEMBER_0_FILL"/>
</g>
</g>

<g transform="matrix( 1, 0, 0, 1, 0,0) ">
<use filter="url(#Filter_2)" xlink:href="#__________0_Layer0_0_MEMBER_1_FILL"/>
</g>

<g transform="matrix( -3.0713348388671875, 0.3758392333984375, 0.3758392333984375, 3.0713348388671875, 2674.9,-84.2) ">
<g transform="matrix( 1, 0, 0, 1, 0,0) ">
<use filter="url(#Filter_1)" xlink:href="#_________Group__0_Layer0_0_MEMBER_0_FILL"/>
</g>
</g>

<g transform="matrix( 1, 0, 0, 1, 0,40.25) ">
<use filter="url(#Filter_2)" xlink:href="#__________0_Layer0_1_MEMBER_1_FILL"/>
</g>
</g>

<g transform="matrix( 0.960357666015625, 0, 0, 0.03863525390625, 67.9,445.75) ">
<use xlink:href="#___0_Layer0_2_MEMBER_0_FILL"/>
</g>

<g transform="matrix( 1, 0, 0, 0.9037322998046875, 23.6,112.85) ">
<use xlink:href="#___0_Layer0_3_FILL"/>
</g>

<g transform="matrix( 1, 0, 0, 0.8868408203125, 23.6,120.55) ">
<use xlink:href="#___0_Layer0_4_FILL"/>
</g>

<g transform="matrix( 1, 0, 0, 1.0869293212890625, 21.85,-27.65) ">
<use xlink:href="#___0_Layer0_5_FILL"/>
</g>

<g transform="matrix( 1, 0, 0, 1, 1146.45,536.9) ">
<g transform="matrix( 0.586090087890625, 0, 0, 0.40118408203125, -439.4,-200.75) ">
<use xlink:href="#_________1_0_Layer0_0_1_STROKES" transform="matrix( 1.706207275390625, 0, 0, 2.49261474609375, 749.7,500.35) "/>
</g>

<g transform="matrix( 0.586090087890625, 0, 0, 0.40118408203125, -436.05,-196.7) ">
<use xlink:href="#_________1_0_Layer0_1_1_STROKES" transform="matrix( 1.706207275390625, 0, 0, 2.49261474609375, 743.95,490.25) "/>
</g>

<g transform="matrix( 0.586090087890625, 0, 0, 0.40118408203125, -436.05,-198.85) ">
<use xlink:href="#_________1_0_Layer0_2_1_STROKES" transform="matrix( 1.706207275390625, 0, 0, 2.49261474609375, 743.95,495.65) "/>
</g>
</g>

<g transform="matrix( 1, 0, 0, 1, 746,578.95) ">
<g transform="matrix( 0.586090087890625, 0, 0, 0.40118408203125, -439.4,-200.75) ">
<use xlink:href="#_________1_0_Layer0_0_1_STROKES" transform="matrix( 1.706207275390625, 0, 0, 2.49261474609375, 749.7,500.35) "/>
</g>

<g transform="matrix( 0.586090087890625, 0, 0, 0.40118408203125, -436.05,-196.7) ">
<use xlink:href="#_________1_0_Layer0_1_1_STROKES" transform="matrix( 1.706207275390625, 0, 0, 2.49261474609375, 743.95,490.25) "/>
</g>

<g transform="matrix( 0.586090087890625, 0, 0, 0.40118408203125, -436.05,-198.85) ">
<use xlink:href="#_________1_0_Layer0_2_1_STROKES" transform="matrix( 1.706207275390625, 0, 0, 2.49261474609375, 743.95,495.65) "/>
</g>
</g>

<g transform="matrix( 1, 0, 0, 1, 301,749.9) ">
<g transform="matrix( 0.586090087890625, 0, 0, 0.40118408203125, -439.4,-200.75) ">
<use xlink:href="#_________1_0_Layer0_0_1_STROKES" transform="matrix( 1.706207275390625, 0, 0, 2.49261474609375, 749.7,500.35) "/>
</g>

<g transform="matrix( 0.586090087890625, 0, 0, 0.40118408203125, -436.05,-196.7) ">
<use xlink:href="#_________1_0_Layer0_1_1_STROKES" transform="matrix( 1.706207275390625, 0, 0, 2.49261474609375, 743.95,490.25) "/>
</g>

<g transform="matrix( 0.586090087890625, 0, 0, 0.40118408203125, -436.05,-198.85) ">
<use xlink:href="#_________1_0_Layer0_2_1_STROKES" transform="matrix( 1.706207275390625, 0, 0, 2.49261474609375, 743.95,495.65) "/>
</g>
</g>

<g transform="matrix( 1, 0, 0, 1, 479.85,935.4) ">
<g transform="matrix( 0.586090087890625, 0, 0, 0.40118408203125, -439.4,-200.75) ">
<use xlink:href="#_________1_0_Layer0_0_1_STROKES" transform="matrix( 1.706207275390625, 0, 0, 2.49261474609375, 749.7,500.35) "/>
</g>

<g transform="matrix( 0.586090087890625, 0, 0, 0.40118408203125, -436.05,-196.7) ">
<use xlink:href="#_________1_0_Layer0_1_1_STROKES" transform="matrix( 1.706207275390625, 0, 0, 2.49261474609375, 743.95,490.25) "/>
</g>

<g transform="matrix( 0.586090087890625, 0, 0, 0.40118408203125, -436.05,-198.85) ">
<use xlink:href="#_________1_0_Layer0_2_1_STROKES" transform="matrix( 1.706207275390625, 0, 0, 2.49261474609375, 743.95,495.65) "/>
</g>
</g>

<g transform="matrix( 1, 0, 0, 1, 1581.6,805.7) ">
<g transform="matrix( 0.586090087890625, 0, 0, 0.40118408203125, -439.4,-200.75) ">
<use xlink:href="#_________1_0_Layer0_0_1_STROKES" transform="matrix( 1.706207275390625, 0, 0, 2.49261474609375, 749.7,500.35) "/>
</g>

<g transform="matrix( 0.586090087890625, 0, 0, 0.40118408203125, -436.05,-196.7) ">
<use xlink:href="#_________1_0_Layer0_1_1_STROKES" transform="matrix( 1.706207275390625, 0, 0, 2.49261474609375, 743.95,490.25) "/>
</g>

<g transform="matrix( 0.586090087890625, 0, 0, 0.40118408203125, -436.05,-198.85) ">
<use xlink:href="#_________1_0_Layer0_2_1_STROKES" transform="matrix( 1.706207275390625, 0, 0, 2.49261474609375, 743.95,495.65) "/>
</g>
</g>

<g transform="matrix( 1, 0, 0, 1, 1736.55,686) ">
<g transform="matrix( 0.586090087890625, 0, 0, 0.40118408203125, -439.4,-200.75) ">
<use xlink:href="#_________1_0_Layer0_0_1_STROKES" transform="matrix( 1.706207275390625, 0, 0, 2.49261474609375, 749.7,500.35) "/>
</g>

<g transform="matrix( 0.586090087890625, 0, 0, 0.40118408203125, -436.05,-196.7) ">
<use xlink:href="#_________1_0_Layer0_1_1_STROKES" transform="matrix( 1.706207275390625, 0, 0, 2.49261474609375, 743.95,490.25) "/>
</g>

<g transform="matrix( 0.586090087890625, 0, 0, 0.40118408203125, -436.05,-198.85) ">
<use xlink:href="#_________1_0_Layer0_2_1_STROKES" transform="matrix( 1.706207275390625, 0, 0, 2.49261474609375, 743.95,495.65) "/>
</g>
</g>

<g transform="matrix( 1, 0, 0, 1, 1546.45,589.4) ">
<g transform="matrix( 0.586090087890625, 0, 0, 0.40118408203125, -439.4,-200.75) ">
<use xlink:href="#_________1_0_Layer0_0_1_STROKES" transform="matrix( 1.706207275390625, 0, 0, 2.49261474609375, 749.7,500.35) "/>
</g>

<g transform="matrix( 0.586090087890625, 0, 0, 0.40118408203125, -436.05,-196.7) ">
<use xlink:href="#_________1_0_Layer0_1_1_STROKES" transform="matrix( 1.706207275390625, 0, 0, 2.49261474609375, 743.95,490.25) "/>
</g>

<g transform="matrix( 0.586090087890625, 0, 0, 0.40118408203125, -436.05,-198.85) ">
<use xlink:href="#_________1_0_Layer0_2_1_STROKES" transform="matrix( 1.706207275390625, 0, 0, 2.49261474609375, 743.95,495.65) "/>
</g>
</g>

<g transform="matrix( 1, 0, 0, 1, 1736.55,945.85) ">
<g transform="matrix( 0.586090087890625, 0, 0, 0.40118408203125, -439.4,-200.75) ">
<use xlink:href="#_________1_0_Layer0_0_1_STROKES" transform="matrix( 1.706207275390625, 0, 0, 2.49261474609375, 749.7,500.35) "/>
</g>

<g transform="matrix( 0.586090087890625, 0, 0, 0.40118408203125, -436.05,-196.7) ">
<use xlink:href="#_________1_0_Layer0_1_1_STROKES" transform="matrix( 1.706207275390625, 0, 0, 2.49261474609375, 743.95,490.25) "/>
</g>

<g transform="matrix( 0.586090087890625, 0, 0, 0.40118408203125, -436.05,-198.85) ">
<use xlink:href="#_________1_0_Layer0_2_1_STROKES" transform="matrix( 1.706207275390625, 0, 0, 2.49261474609375, 743.95,495.65) "/>
</g>
</g>

<g transform="matrix( 1, 0, 0, 1, 161.45,918.3) ">
<g transform="matrix( 0.586090087890625, 0, 0, 0.40118408203125, -439.4,-200.75) ">
<use xlink:href="#_________1_0_Layer0_0_1_STROKES" transform="matrix( 1.706207275390625, 0, 0, 2.49261474609375, 749.7,500.35) "/>
</g>

<g transform="matrix( 0.586090087890625, 0, 0, 0.40118408203125, -436.05,-196.7) ">
<use xlink:href="#_________1_0_Layer0_1_1_STROKES" transform="matrix( 1.706207275390625, 0, 0, 2.49261474609375, 743.95,490.25) "/>
</g>

<g transform="matrix( 0.586090087890625, 0, 0, 0.40118408203125, -436.05,-198.85) ">
<use xlink:href="#_________1_0_Layer0_2_1_STROKES" transform="matrix( 1.706207275390625, 0, 0, 2.49261474609375, 743.95,495.65) "/>
</g>
</g>

<g transform="matrix( 1, 0, 0, 1, 213.2,578.95) ">
<g transform="matrix( 0.586090087890625, 0, 0, 0.40118408203125, -439.4,-200.75) ">
<use xlink:href="#_________1_0_Layer0_0_1_STROKES" transform="matrix( 1.706207275390625, 0, 0, 2.49261474609375, 749.7,500.35) "/>
</g>

<g transform="matrix( 0.586090087890625, 0, 0, 0.40118408203125, -436.05,-196.7) ">
<use xlink:href="#_________1_0_Layer0_1_1_STROKES" transform="matrix( 1.706207275390625, 0, 0, 2.49261474609375, 743.95,490.25) "/>
</g>

<g transform="matrix( 0.586090087890625, 0, 0, 0.40118408203125, -436.05,-198.85) ">
<use xlink:href="#_________1_0_Layer0_2_1_STROKES" transform="matrix( 1.706207275390625, 0, 0, 2.49261474609375, 743.95,495.65) "/>
</g>
</g>

<g transform="matrix( 1, 0, 0, 1, 949.85,749.9) ">
<g transform="matrix( 0.586090087890625, 0, 0, 0.40118408203125, -439.4,-200.75) ">
<use xlink:href="#_________1_0_Layer0_0_1_STROKES" transform="matrix( 1.706207275390625, 0, 0, 2.49261474609375, 749.7,500.35) "/>
</g>

<g transform="matrix( 0.586090087890625, 0, 0, 0.40118408203125, -436.05,-196.7) ">
<use xlink:href="#_________1_0_Layer0_1_1_STROKES" transform="matrix( 1.706207275390625, 0, 0, 2.49261474609375, 743.95,490.25) "/>
</g>

<g transform="matrix( 0.586090087890625, 0, 0, 0.40118408203125, -436.05,-198.85) ">
<use xlink:href="#_________1_0_Layer0_2_1_STROKES" transform="matrix( 1.706207275390625, 0, 0, 2.49261474609375, 743.95,495.65) "/>
</g>
</g>

<g transform="matrix( 1, 0, 0, 1, 1098.7,948.8) ">
<g transform="matrix( 0.586090087890625, 0, 0, 0.40118408203125, -439.4,-200.75) ">
<use xlink:href="#_________1_0_Layer0_0_1_STROKES" transform="matrix( 1.706207275390625, 0, 0, 2.49261474609375, 749.7,500.35) "/>
</g>

<g transform="matrix( 0.586090087890625, 0, 0, 0.40118408203125, -436.05,-196.7) ">
<use xlink:href="#_________1_0_Layer0_1_1_STROKES" transform="matrix( 1.706207275390625, 0, 0, 2.49261474609375, 743.95,490.25) "/>
</g>

<g transform="matrix( 0.586090087890625, 0, 0, 0.40118408203125, -436.05,-198.85) ">
<use xlink:href="#_________1_0_Layer0_2_1_STROKES" transform="matrix( 1.706207275390625, 0, 0, 2.49261474609375, 743.95,495.65) "/>
</g>
</g>

<g transform="matrix( 1, 0, 0, 1, 479.85,616.95) ">
<g transform="matrix( 1, 0, 0, 1, -521.2,-474) ">
<use xlink:href="#_________2_0_Layer0_0_1_STROKES"/>
</g>

<g transform="matrix( 1, 0, 0, 1, -521.2,-474) ">
<use xlink:href="#_________2_0_Layer0_1_1_STROKES"/>
</g>

<g transform="matrix( 1, 0, 0, 1, -521.2,-474) ">
<use xlink:href="#_________2_0_Layer0_2_1_STROKES"/>
</g>

<g transform="matrix( 1, 0, 0, 1, -521.2,-474) ">
<use xlink:href="#_________2_0_Layer0_3_1_STROKES"/>
</g>
</g>

<g transform="matrix( 1, 0, 0, 1, 1277.05,642) ">
<g transform="matrix( 1, 0, 0, 1, -521.2,-474) ">
<use xlink:href="#_________2_0_Layer0_0_1_STROKES"/>
</g>

<g transform="matrix( 1, 0, 0, 1, -521.2,-474) ">
<use xlink:href="#_________2_0_Layer0_1_1_STROKES"/>
</g>

<g transform="matrix( 1, 0, 0, 1, -521.2,-474) ">
<use xlink:href="#_________2_0_Layer0_2_1_STROKES"/>
</g>

<g transform="matrix( 1, 0, 0, 1, -521.2,-474) ">
<use xlink:href="#_________2_0_Layer0_3_1_STROKES"/>
</g>
</g>

<g transform="matrix( 1, 0, 0, 1, 1245.6,839.05) ">
<g transform="matrix( 1, 0, 0, 1, -521.2,-474) ">
<use xlink:href="#_________2_0_Layer0_0_1_STROKES"/>
</g>

<g transform="matrix( 1, 0, 0, 1, -521.2,-474) ">
<use xlink:href="#_________2_0_Layer0_1_1_STROKES"/>
</g>

<g transform="matrix( 1, 0, 0, 1, -521.2,-474) ">
<use xlink:href="#_________2_0_Layer0_2_1_STROKES"/>
</g>

<g transform="matrix( 1, 0, 0, 1, -521.2,-474) ">
<use xlink:href="#_________2_0_Layer0_3_1_STROKES"/>
</g>
</g>

<g transform="matrix( 1, 0, 0, 1, 710.8,839.05) ">
<g transform="matrix( 1, 0, 0, 1, -521.2,-474) ">
<use xlink:href="#_________2_0_Layer0_0_1_STROKES"/>
</g>

<g transform="matrix( 1, 0, 0, 1, -521.2,-474) ">
<use xlink:href="#_________2_0_Layer0_1_1_STROKES"/>
</g>

<g transform="matrix( 1, 0, 0, 1, -521.2,-474) ">
<use xlink:href="#_________2_0_Layer0_2_1_STROKES"/>
</g>

<g transform="matrix( 1, 0, 0, 1, -521.2,-474) ">
<use xlink:href="#_________2_0_Layer0_3_1_STROKES"/>
</g>
</g>

<g transform="matrix( 1, 0, 0, 1, 60.6,526.45) ">
<g transform="matrix( 0.586090087890625, 0, 0, 0.40118408203125, -439.4,-200.75) ">
<use xlink:href="#_________3_0_Layer0_0_MEMBER_0_1_STROKES" transform="matrix( 1.706207275390625, 0, 0, 2.49261474609375, 749.7,500.35) "/>
</g>

<g transform="matrix( 0.586090087890625, 0, 0, 0.40118408203125, -436.05,-196.7) ">
<use xlink:href="#_________3_0_Layer0_0_MEMBER_1_1_STROKES" transform="matrix( 1.706207275390625, 0, 0, 2.49261474609375, 743.95,490.25) "/>
</g>

<g transform="matrix( 0.586090087890625, 0, 0, 0.40118408203125, -436.05,-198.85) ">
<use xlink:href="#_________3_0_Layer0_0_MEMBER_2_1_STROKES" transform="matrix( 1.706207275390625, 0, 0, 2.49261474609375, 743.95,495.65) "/>
</g>
</g>

<g transform="matrix( 1, 0, 0, 1, 1865.3,526.45) ">
<g transform="matrix( 0.586090087890625, 0, 0, 0.40118408203125, -439.4,-200.75) ">
<use xlink:href="#_________3_0_Layer0_0_MEMBER_0_1_STROKES" transform="matrix( 1.706207275390625, 0, 0, 2.49261474609375, 749.7,500.35) "/>
</g>

<g transform="matrix( 0.586090087890625, 0, 0, 0.40118408203125, -436.05,-196.7) ">
<use xlink:href="#_________3_0_Layer0_0_MEMBER_1_1_STROKES" transform="matrix( 1.706207275390625, 0, 0, 2.49261474609375, 743.95,490.25) "/>
</g>

<g transform="matrix( 0.586090087890625, 0, 0, 0.40118408203125, -436.05,-198.85) ">
<use xlink:href="#_________3_0_Layer0_0_MEMBER_2_1_STROKES" transform="matrix( 1.706207275390625, 0, 0, 2.49261474609375, 743.95,495.65) "/>
</g>
</g>
</g>
</svg>
