<?xml version="1.0" encoding="utf-8"?>
<!-- Generator: Adobe Illustrator 16.0.3, SVG Export Plug-In . SVG Version: 6.00 Build 0)  -->
<!DOCTYPE svg PUBLIC "-//W3C//DTD SVG 1.1//EN" "http://www.w3.org/Graphics/SVG/1.1/DTD/svg11.dtd">
<svg version="1.1" xmlns="http://www.w3.org/2000/svg" xmlns:xlink="http://www.w3.org/1999/xlink" x="0px" y="0px" width="1920px"
	 height="1000px" viewBox="0 0 1920 1000" enable-background="new 0 0 1920 1000" xml:space="preserve">
<filter  height="140%" width="140%" y="-20%" x="-20%" id="Filter_2" color-interpolation-filters="sRGB">
	<feColorMatrix  type="matrix" result="result1" values="1 0 0 0 0 0 1 0 0 0 0 0 1 0 0 0 0 0 0.28 0" in="SourceGraphic">
		</feColorMatrix>
</filter>
<filter  height="140%" width="140%" y="-20%" x="-20%" id="Filter_1" color-interpolation-filters="sRGB">
	
		<feColorMatrix  type="matrix" result="result1" values="1 0 0 0 0 0 1 0 0 0 0 0 1 0 0 0 0 0 0.11200000000000002 0" in="SourceGraphic">
		</feColorMatrix>
</filter>
<g id="圖層_1">
	<g transform="matrix( 1, 0, 0, 1, -23.6,-13.75) ">
		<g transform="matrix( 1, 0, 0, 1.110076904296875, 23.6,15.25) ">
			<g>
				<g id="___0_Layer0_0_FILL">
					
						<linearGradient id="SVGID_1_" gradientUnits="userSpaceOnUse" x1="961.2952" y1="530.4716" x2="961.2952" y2="821.0466" gradientTransform="matrix(1 0 0 -1.1101 -0.02 989.8019)">
						<stop  offset="0" style="stop-color:#4DE1FF"/>
						<stop  offset="1" style="stop-color:#1C93FF"/>
					</linearGradient>
					<path fill="url(#SVGID_1_)" d="M1940.25-11.6L-17.7-13.75v432l1955.35-1.8L1940.25-11.6z"/>
				</g>
			</g>
		</g>
		<g transform="matrix( 1, 0, 0, 1, -31.25,80) ">
			<g transform="matrix( 2.8765106201171875, -0.011474609375, 0.011474609375, 2.8765106201171875, -621.85,80.25) ">
				<g transform="matrix( 1, 0, 0, 1, 0,0) ">
					<g filter="url(#Filter_1)">
						<g id="_________Group__0_Layer0_0_MEMBER_0_FILL_2_">
							<path fill="#FFFFFF" d="M503.55,119.05c0.833-2.6,1.25-5.2,1.25-7.8c0-6.967-2.417-12.95-7.25-17.95
								c-4.8-5-10.667-7.65-17.6-7.95c-1.033-4.633-3.183-8.683-6.45-12.15c-3.267-3.5-7.183-5.9-11.75-7.2
								c-3-6.433-7.483-11.583-13.45-15.45c-6.033-3.933-12.633-5.9-19.8-5.9c-5.367,0-10.483,1.117-15.35,3.35
								c-4.767,2.233-8.883,5.35-12.35,9.35c-3.3-1.367-6.667-2.05-10.1-2.05c-5.333,0-10.2,1.517-14.6,4.55
								c-4.267,2.933-7.383,6.8-9.35,11.6c-2.534-4.533-6.133-8-10.8-10.4c1.066-4,1.6-8.1,1.6-12.3
								c0-11.067-3.383-20.983-10.15-29.75c-6.8-8.767-15.55-14.55-26.25-17.35l-0.4-0.1c-2.266-0.6-4.9-1.033-7.9-1.3
								c-5.967-0.533-11.35-0.067-16.15,1.4l-0.1,0l-0.3,0.1l-0.05,0c-7.634,2.033-14.4,5.767-20.3,11.2
								c-5.833,5.333-10.1,11.7-12.8,19.1c-9.8,0.033-18.767,2.75-26.9,8.15c-3.458,2.296-6.525,4.913-9.2,7.85l15.2,124.55
								c4.065-1.631,7.849-3.798,11.35-6.5c6.4,2.833,13,4.25,19.8,4.25c6.567,0,12.867-1.267,18.9-3.8
								c5.967-2.533,11.233-6.133,15.8-10.8c5.4,1.967,10.95,2.95,16.65,2.95c2.3,0,4.683-0.183,7.15-0.55
								c3.667,9.133,9.6,16.5,17.8,22.1c8.267,5.633,17.383,8.467,27.35,8.5c9.833,0,18.883-2.767,27.15-8.3
								c4,2.7,8.3,4.75,12.9,6.15c4.633,1.434,9.367,2.15,14.2,2.15c5.6,0,11.033-0.933,16.3-2.8c5.2-1.867,9.967-4.55,14.3-8.05
								c2.067,2.067,4.35,3.85,6.85,5.35c2.9,10.433,8.683,18.95,17.35,25.55c8.734,6.633,18.567,9.95,29.5,9.95
								c1.8,0,3.417-0.066,4.85-0.2l7.2-0.75l0-95.45l-7.2-0.7c-1.333-0.167-2.95-0.25-4.85-0.25c-2.3,0-4.683,0.183-7.15,0.55
								C507.016,120.95,505.383,119.983,503.55,119.05z"/>
						</g>
					</g>
				</g>
			</g>
			<g transform="matrix( 1, 0, 0, 1, 0,0) ">
				<g filter="url(#Filter_2)">
					<g id="__________0_Layer0_0_MEMBER_1_FILL_1_">
						
							<linearGradient id="SVGID_2_" gradientUnits="userSpaceOnUse" x1="510.6472" y1="458.8799" x2="509.7722" y2="683.3799" gradientTransform="matrix(1 0 0 -1 -54.8701 932.8438)">
							<stop  offset="0.0039" style="stop-color:#CBE9F7"/>
							<stop  offset="1" style="stop-color:#FFFFFF"/>
						</linearGradient>
						<path fill="url(#SVGID_2_)" d="M690.45,285.7c-5.233-17.133-15.017-31.083-29.35-41.85c-14.7-11.1-31.25-16.6-49.65-16.5
							c-15.733,0.033-30.2,4.25-43.4,12.65c-12.899,8.133-22.783,18.967-29.649,32.5c-10-9.434-21.867-14.133-35.601-14.1
							c-14.166,0.067-26.267,5.15-36.3,15.25c-10,10.1-14.983,22.3-14.95,36.6c0.033,3.133,0.334,6.15,0.9,9.05
							c-6.134-1.4-12.467-2.083-19-2.05c-4.6,0-8.767,0.35-12.5,1.05c-0.167-13.533-4.867-25.167-14.1-34.9
							c-9.233-9.667-20.467-14.983-33.7-15.95c7.5-16.067,11.217-32.867,11.149-50.4c-0.1-26.933-8.5-50.917-25.199-71.95
							c-16.467-20.767-37.417-34.4-62.851-40.9c-1.533-1.067-5.133-1.884-10.8-2.45c-11.434-1-27.483-0.117-48.149,2.65
							c-17.934,2.367-35.4,12.467-52.4,30.3c-17.2,18-28,37.833-32.4,59.5c-5.467-0.833-11.033-1.25-16.699-1.25
							c-27.233,0.133-51.45,8.716-72.65,25.75c-10.481,8.401-19.114,17.968-25.9,28.7v313.8c11.06-1.218,21.76-4.001,32.101-8.351
							c13.899-5.933,26.2-14.183,36.899-24.75c18.533,11.134,38.634,16.65,60.301,16.551c18.8-0.067,36.466-4.4,53-13
							c16.1-8.2,29.533-19.567,40.3-34.101c16.899,8.767,34.983,13.101,54.25,13c12.366-0.033,24.399-2,36.1-5.899
							c5.967,26.666,19.533,48.566,40.7,65.699c21.533,17.5,46.2,26.184,74,26.051c14.767-0.034,28.933-2.767,42.5-8.2
							c13.166-5.167,25-12.517,35.5-22.05c10.566,9.466,22.416,16.716,35.55,21.75c13.667,5.333,27.833,7.966,42.5,7.899
							c17.833-0.066,34.733-3.967,50.7-11.7c15.333-7.466,28.5-17.883,39.5-31.25c8.767,15.5,21.217,26.917,37.35,34.25
							c5.4,27.2,18.816,49.634,40.25,67.301c21.733,17.933,46.75,26.85,75.05,26.75c4.4-0.034,8.283-0.25,11.65-0.65l-0.95-232.85
							c-3.366-0.367-7.25-0.534-11.649-0.5c-9.101,0.033-17.9,1.066-26.4,3.1c-12.267-10.6-26.3-17.017-42.1-19.25
							c9.533-10.1,14.267-22.066,14.199-35.9c-0.066-14.166-5.149-26.267-15.25-36.3c-10.1-10.033-22.283-15.017-36.55-14.95
							c-6.733,0.033-13.116,1.283-19.149,3.75c0.767-3.633,1.133-7.217,1.1-10.75c-0.033-13.534-4.717-25.25-14.05-35.15
							C715.283,291.867,703.884,286.533,690.45,285.7z"/>
					</g>
				</g>
			</g>
			<g transform="matrix( -3.0713348388671875, 0.3758392333984375, 0.3758392333984375, 3.0713348388671875, 2674.9,-84.2) ">
				<g transform="matrix( 1, 0, 0, 1, 0,0) ">
					<g filter="url(#Filter_1)">
						<g id="_________Group__0_Layer0_0_MEMBER_0_FILL_2_">
							<path fill="#FFFFFF" d="M503.55,119.05c0.833-2.6,1.25-5.2,1.25-7.8c0-6.967-2.417-12.95-7.25-17.95
								c-4.8-5-10.667-7.65-17.6-7.95c-1.033-4.633-3.183-8.683-6.45-12.15c-3.267-3.5-7.184-5.9-11.75-7.2
								c-3-6.433-7.483-11.583-13.45-15.45c-6.033-3.933-12.633-5.9-19.8-5.9c-5.367,0-10.483,1.117-15.35,3.35
								c-4.766,2.233-8.883,5.35-12.35,9.35c-3.3-1.367-6.667-2.05-10.1-2.05c-5.333,0-10.2,1.517-14.6,4.55
								c-4.267,2.933-7.383,6.8-9.35,11.6c-2.533-4.533-6.133-8-10.8-10.4c1.067-4,1.6-8.1,1.6-12.3
								c0-11.067-3.383-20.983-10.15-29.75c-6.8-8.767-15.55-14.55-26.25-17.35l-0.4-0.1c-2.267-0.6-4.9-1.033-7.9-1.3
								c-5.967-0.533-11.35-0.067-16.15,1.4l-0.1,0l-0.3,0.1l-0.05,0c-7.633,2.033-14.4,5.767-20.3,11.2
								c-5.833,5.333-10.1,11.7-12.8,19.1c-9.8,0.033-18.767,2.75-26.9,8.15c-3.458,2.296-6.525,4.913-9.2,7.85l15.2,124.55
								c4.065-1.632,7.849-3.798,11.35-6.5c6.4,2.833,13,4.25,19.8,4.25c6.567,0,12.867-1.267,18.9-3.8
								c5.967-2.533,11.233-6.133,15.8-10.8c5.4,1.967,10.95,2.95,16.65,2.95c2.3,0,4.683-0.183,7.15-0.55
								c3.667,9.133,9.6,16.5,17.8,22.1c8.266,5.633,17.383,8.467,27.35,8.5c9.833,0,18.883-2.767,27.15-8.3
								c4,2.7,8.3,4.75,12.9,6.15c4.633,1.433,9.367,2.15,14.2,2.15c5.6,0,11.033-0.934,16.3-2.8c5.2-1.867,9.967-4.55,14.3-8.05
								c2.067,2.067,4.35,3.85,6.85,5.35c2.9,10.433,8.683,18.95,17.35,25.55c8.733,6.633,18.567,9.95,29.5,9.95
								c1.8,0,3.417-0.067,4.85-0.2l7.2-0.75l0-95.45l-7.2-0.7c-1.333-0.167-2.95-0.25-4.85-0.25c-2.3,0-4.683,0.184-7.15,0.55
								C507.017,120.95,505.383,119.983,503.55,119.05z"/>
						</g>
					</g>
				</g>
			</g>
			<g transform="matrix( 1, 0, 0, 1, 0,40.25) ">
				<g filter="url(#Filter_2)">
					<g id="__________0_Layer0_1_MEMBER_1_FILL_1_">
						
							<linearGradient id="SVGID_3_" gradientUnits="userSpaceOnUse" x1="1631.8544" y1="451.0996" x2="1602.5294" y2="690.7996" gradientTransform="matrix(1 0 0 -1 -54.8701 892.5938)">
							<stop  offset="0.0039" style="stop-color:#CBE9F7"/>
							<stop  offset="1" style="stop-color:#FFFFFF"/>
						</linearGradient>
						<path fill="url(#SVGID_3_)" d="M1993,141.6c-8.44-9.894-18.524-18.427-30.25-25.6c-24.933-15.333-51.933-21.217-81-17.65
							c-6.033,0.733-11.917,1.917-17.649,3.55c-7.667-22.533-21.884-42.267-42.65-59.2c-20.533-16.7-40.533-25.083-60-25.15
							c-22.434-0.167-39.684,1.05-51.75,3.65c-5.967,1.366-9.7,2.716-11.2,4.05c-26.267,10.333-46.783,27.7-61.55,52.1
							c-14.934,24.7-20.65,51.433-17.15,80.2c2.301,18.733,8.533,36.15,18.7,52.25c-14,2.833-25.267,10.034-33.8,21.6
							c-8.566,11.633-12.017,24.667-10.35,39.1c-4.067-0.233-8.567-0.05-13.5,0.55c-6.934,0.867-13.601,2.483-20,4.85
							c0.232-3.2,0.149-6.483-0.25-9.85c-1.867-15.267-8.834-27.6-20.9-37c-12.066-9.466-25.667-13.267-40.8-11.4
							c-14.634,1.8-26.667,8.417-36.101,19.85c-9.133-13.533-21.149-23.75-36.05-30.65c-15.167-7.2-31.149-9.767-47.95-7.7
							c-19.666,2.4-36.616,10.5-50.85,24.3c-13.8,13.466-22.35,29.683-25.65,48.65c-14.233,2.7-25.666,9.917-34.3,21.65
							c-8.633,11.9-12.066,25.066-10.3,39.5c0.467,3.767,1.35,7.55,2.65,11.35c-6.801-1.899-13.783-2.399-20.95-1.5
							c-15.267,1.867-27.601,8.834-37,20.9c-9.434,12.033-13.217,25.634-11.351,40.8c1.801,14.733,8.483,26.867,20.051,36.4
							c-16.601,4.5-30.717,13.233-42.351,26.2c-9.399-1.034-18.95-0.95-28.649,0.25c-4.733,0.566-8.851,1.267-12.351,2.1l30.4,248.6
							c3.633,0,7.816-0.283,12.55-0.85c30.2-3.7,55.684-16.6,76.45-38.7c20.533-21.733,31.833-47.467,33.899-77.2
							c16.233-10.033,27.983-23.899,35.25-41.6c13.5,12.8,28.934,22.134,46.301,28c18.1,6.1,36.666,7.983,55.699,5.65
							c15.667-1.9,30.417-6.617,44.25-14.15c13.367-7.134,25.067-16.467,35.101-28c12.467,8.767,26.05,15.017,40.75,18.75
							c15.233,3.934,30.733,4.934,46.5,3c29.7-3.634,54.883-16.217,75.55-37.75c20.267-21.2,31.783-46.4,34.55-75.6
							c13,2.566,26.101,3.033,39.3,1.399c20.567-2.5,39.283-9.55,56.15-21.149c13.467,14,29.333,24.3,47.6,30.899
							c18.801,6.967,38.233,9.217,58.301,6.75c23.133-2.833,43.85-11.45,62.149-25.85c10.563,8.121,22.063,14.404,34.5,18.85V141.6z
							"/>
					</g>
				</g>
			</g>
		</g>
		<g transform="matrix( 0.960357666015625, 0, 0, 0.03863525390625, 67.9,445.75) ">
			<g>
				<g id="___0_Layer0_2_MEMBER_0_FILL">
					<path fill="#999999" d="M1973.95,1066.117l-0.051-680.927H-64.15c-0.1,0.202-0.199,0.404-0.3,0.556l0.051,680.371H1973.95z"/>
				</g>
			</g>
		</g>
		<g transform="matrix( 1, 0, 0, 0.9037322998046875, 23.6,112.85) ">
			<g>
				<g id="___0_Layer0_3_FILL">
					<path fill="#85DE67" d="M1936.25,1021.301v-615.5H-19.45l0.05,615.5H1936.25z"/>
				</g>
			</g>
		</g>
		<g transform="matrix( 1, 0, 0, 0.8868408203125, 23.6,120.55) ">
			<g>
				<g id="___0_Layer0_4_FILL">
					<path fill="#33CC00" d="M1936.3,1031.999V413.3H-21.2l-0.05,618.7H1936.3z"/>
				</g>
			</g>
		</g>
		<g transform="matrix( 1, 0, 0, 1.0869293212890625, 21.85,-27.65) ">
			<g>
				<g id="___0_Layer0_5_FILL">
					<path fill="#8FD646" d="M1834.7,583.25c-3.118-26.568-15.585-49.168-37.399-67.8c-21.599-18.462-46.198-27.679-73.8-27.65
						H200.05c-27.635-0.029-52.285,9.188-73.95,27.65c-21.748,18.632-34.182,41.232-37.3,67.8L59.65,830.85
						c-0.387,3.025-0.62,6.009-0.699,8.95c-1.007,24.875,6.626,46.475,22.899,64.8c18.4,20.637,42.267,30.953,71.601,30.95H1770.1
						c29.3,0.003,53.116-10.313,71.45-30.95c16.341-18.292,24.024-39.892,23.05-64.8c-0.113-2.942-0.348-5.925-0.7-8.95
						L1834.7,583.25z"/>
				</g>
			</g>
		</g>
		<g transform="matrix( 1, 0, 0, 1, 1146.45,536.9) ">
			<g transform="matrix( 0.586090087890625, 0, 0, 0.40118408203125, -439.4,-200.75) ">
				<g transform="matrix( 1.706207275390625, 0, 0, 2.49261474609375, 749.7,500.35) ">
					<path id="_________1_0_Layer0_0_1_STROKES" fill="none" stroke="#33CC00" stroke-width="10" stroke-linecap="round" d="
						M749.736,506.655l8.15,17.3"/>
				</g>
			</g>
			<g transform="matrix( 0.586090087890625, 0, 0, 0.40118408203125, -436.05,-196.7) ">
				<g transform="matrix( 1.706207275390625, 0, 0, 2.49261474609375, 743.95,490.25) ">
					<path id="_________1_0_Layer0_1_1_STROKES" fill="none" stroke="#33CC00" stroke-width="10" stroke-linecap="round" d="
						M786.601,490.202v22.499"/>
				</g>
			</g>
			<g transform="matrix( 0.586090087890625, 0, 0, 0.40118408203125, -436.05,-198.85) ">
				<g transform="matrix( 1.706207275390625, 0, 0, 2.49261474609375, 743.95,495.65) ">
					<path id="_________1_0_Layer0_2_1_STROKES" fill="none" stroke="#33CC00" stroke-width="10" stroke-linecap="round" d="
						M825.401,508.343l-5.649,13.298"/>
				</g>
			</g>
		</g>
		<g transform="matrix( 1, 0, 0, 1, 746,578.95) ">
			<g transform="matrix( 0.586090087890625, 0, 0, 0.40118408203125, -439.4,-200.75) ">
				<g transform="matrix( 1.706207275390625, 0, 0, 2.49261474609375, 749.7,500.35) ">
					<path id="_________1_0_Layer0_0_1_STROKES_1_" fill="none" stroke="#33CC00" stroke-width="10" stroke-linecap="round" d="
						M749.736,506.657l8.15,17.3"/>
				</g>
			</g>
			<g transform="matrix( 0.586090087890625, 0, 0, 0.40118408203125, -436.05,-196.7) ">
				<g transform="matrix( 1.706207275390625, 0, 0, 2.49261474609375, 743.95,490.25) ">
					<path id="_________1_0_Layer0_1_1_STROKES_1_" fill="none" stroke="#33CC00" stroke-width="10" stroke-linecap="round" d="
						M786.602,490.202v22.499"/>
				</g>
			</g>
			<g transform="matrix( 0.586090087890625, 0, 0, 0.40118408203125, -436.05,-198.85) ">
				<g transform="matrix( 1.706207275390625, 0, 0, 2.49261474609375, 743.95,495.65) ">
					<path id="_________1_0_Layer0_2_1_STROKES_1_" fill="none" stroke="#33CC00" stroke-width="10" stroke-linecap="round" d="
						M825.402,508.343l-5.65,13.3"/>
				</g>
			</g>
		</g>
		<g transform="matrix( 1, 0, 0, 1, 301,749.9) ">
			<g transform="matrix( 0.586090087890625, 0, 0, 0.40118408203125, -439.4,-200.75) ">
				<g transform="matrix( 1.706207275390625, 0, 0, 2.49261474609375, 749.7,500.35) ">
					<path id="_________1_0_Layer0_0_1_STROKES_2_" fill="none" stroke="#33CC00" stroke-width="10" stroke-linecap="round" d="
						M749.735,506.655l8.151,17.3"/>
				</g>
			</g>
			<g transform="matrix( 0.586090087890625, 0, 0, 0.40118408203125, -436.05,-196.7) ">
				<g transform="matrix( 1.706207275390625, 0, 0, 2.49261474609375, 743.95,490.25) ">
					<path id="_________1_0_Layer0_1_1_STROKES_2_" fill="none" stroke="#33CC00" stroke-width="10" stroke-linecap="round" d="
						M786.602,490.202v22.499"/>
				</g>
			</g>
			<g transform="matrix( 0.586090087890625, 0, 0, 0.40118408203125, -436.05,-198.85) ">
				<g transform="matrix( 1.706207275390625, 0, 0, 2.49261474609375, 743.95,495.65) ">
					<path id="_________1_0_Layer0_2_1_STROKES_2_" fill="none" stroke="#33CC00" stroke-width="10" stroke-linecap="round" d="
						M825.402,508.343l-5.65,13.298"/>
				</g>
			</g>
		</g>
		<g transform="matrix( 1, 0, 0, 1, 479.85,935.4) ">
			<g transform="matrix( 0.586090087890625, 0, 0, 0.40118408203125, -439.4,-200.75) ">
				<g transform="matrix( 1.706207275390625, 0, 0, 2.49261474609375, 749.7,500.35) ">
					<path id="_________1_0_Layer0_0_1_STROKES_3_" fill="none" stroke="#33CC00" stroke-width="10" stroke-linecap="round" d="
						M749.736,506.655l8.15,17.3"/>
				</g>
			</g>
			<g transform="matrix( 0.586090087890625, 0, 0, 0.40118408203125, -436.05,-196.7) ">
				<g transform="matrix( 1.706207275390625, 0, 0, 2.49261474609375, 743.95,490.25) ">
					<path id="_________1_0_Layer0_1_1_STROKES_3_" fill="none" stroke="#33CC00" stroke-width="10" stroke-linecap="round" d="
						M786.601,490.202v22.499"/>
				</g>
			</g>
			<g transform="matrix( 0.586090087890625, 0, 0, 0.40118408203125, -436.05,-198.85) ">
				<g transform="matrix( 1.706207275390625, 0, 0, 2.49261474609375, 743.95,495.65) ">
					<path id="_________1_0_Layer0_2_1_STROKES_3_" fill="none" stroke="#33CC00" stroke-width="10" stroke-linecap="round" d="
						M825.401,508.343l-5.65,13.298"/>
				</g>
			</g>
		</g>
		<g transform="matrix( 1, 0, 0, 1, 1581.6,805.7) ">
			<g transform="matrix( 0.586090087890625, 0, 0, 0.40118408203125, -439.4,-200.75) ">
				<g transform="matrix( 1.706207275390625, 0, 0, 2.49261474609375, 749.7,500.35) ">
					<path id="_________1_0_Layer0_0_1_STROKES_4_" fill="none" stroke="#33CC00" stroke-width="10" stroke-linecap="round" d="
						M749.735,506.657l8.151,17.3"/>
				</g>
			</g>
			<g transform="matrix( 0.586090087890625, 0, 0, 0.40118408203125, -436.05,-196.7) ">
				<g transform="matrix( 1.706207275390625, 0, 0, 2.49261474609375, 743.95,490.25) ">
					<path id="_________1_0_Layer0_1_1_STROKES_4_" fill="none" stroke="#33CC00" stroke-width="10" stroke-linecap="round" d="
						M786.601,490.201v22.499"/>
				</g>
			</g>
			<g transform="matrix( 0.586090087890625, 0, 0, 0.40118408203125, -436.05,-198.85) ">
				<g transform="matrix( 1.706207275390625, 0, 0, 2.49261474609375, 743.95,495.65) ">
					<path id="_________1_0_Layer0_2_1_STROKES_4_" fill="none" stroke="#33CC00" stroke-width="10" stroke-linecap="round" d="
						M825.401,508.343l-5.65,13.3"/>
				</g>
			</g>
		</g>
		<g transform="matrix( 1, 0, 0, 1, 1736.55,686) ">
			<g transform="matrix( 0.586090087890625, 0, 0, 0.40118408203125, -439.4,-200.75) ">
				<g transform="matrix( 1.706207275390625, 0, 0, 2.49261474609375, 749.7,500.35) ">
					<path id="_________1_0_Layer0_0_1_STROKES_5_" fill="none" stroke="#33CC00" stroke-width="10" stroke-linecap="round" d="
						M749.735,506.657l8.151,17.3"/>
				</g>
			</g>
			<g transform="matrix( 0.586090087890625, 0, 0, 0.40118408203125, -436.05,-196.7) ">
				<g transform="matrix( 1.706207275390625, 0, 0, 2.49261474609375, 743.95,490.25) ">
					<path id="_________1_0_Layer0_1_1_STROKES_5_" fill="none" stroke="#33CC00" stroke-width="10" stroke-linecap="round" d="
						M786.602,490.201V512.7"/>
				</g>
			</g>
			<g transform="matrix( 0.586090087890625, 0, 0, 0.40118408203125, -436.05,-198.85) ">
				<g transform="matrix( 1.706207275390625, 0, 0, 2.49261474609375, 743.95,495.65) ">
					<path id="_________1_0_Layer0_2_1_STROKES_5_" fill="none" stroke="#33CC00" stroke-width="10" stroke-linecap="round" d="
						M825.401,508.342l-5.65,13.3"/>
				</g>
			</g>
		</g>
		<g transform="matrix( 1, 0, 0, 1, 1546.45,589.4) ">
			<g transform="matrix( 0.586090087890625, 0, 0, 0.40118408203125, -439.4,-200.75) ">
				<g transform="matrix( 1.706207275390625, 0, 0, 2.49261474609375, 749.7,500.35) ">
					<path id="_________1_0_Layer0_0_1_STROKES_6_" fill="none" stroke="#33CC00" stroke-width="10" stroke-linecap="round" d="
						M749.736,506.655l8.15,17.3"/>
				</g>
			</g>
			<g transform="matrix( 0.586090087890625, 0, 0, 0.40118408203125, -436.05,-196.7) ">
				<g transform="matrix( 1.706207275390625, 0, 0, 2.49261474609375, 743.95,490.25) ">
					<path id="_________1_0_Layer0_1_1_STROKES_6_" fill="none" stroke="#33CC00" stroke-width="10" stroke-linecap="round" d="
						M786.601,490.202v22.499"/>
				</g>
			</g>
			<g transform="matrix( 0.586090087890625, 0, 0, 0.40118408203125, -436.05,-198.85) ">
				<g transform="matrix( 1.706207275390625, 0, 0, 2.49261474609375, 743.95,495.65) ">
					<path id="_________1_0_Layer0_2_1_STROKES_6_" fill="none" stroke="#33CC00" stroke-width="10" stroke-linecap="round" d="
						M825.4,508.343l-5.648,13.298"/>
				</g>
			</g>
		</g>
		<g transform="matrix( 1, 0, 0, 1, 1736.55,945.85) ">
			<g transform="matrix( 0.586090087890625, 0, 0, 0.40118408203125, -439.4,-200.75) ">
				<g transform="matrix( 1.706207275390625, 0, 0, 2.49261474609375, 749.7,500.35) ">
					<path id="_________1_0_Layer0_0_1_STROKES_7_" fill="none" stroke="#33CC00" stroke-width="10" stroke-linecap="round" d="
						M749.735,506.656l8.151,17.3"/>
				</g>
			</g>
			<g transform="matrix( 0.586090087890625, 0, 0, 0.40118408203125, -436.05,-196.7) ">
				<g transform="matrix( 1.706207275390625, 0, 0, 2.49261474609375, 743.95,490.25) ">
					<path id="_________1_0_Layer0_1_1_STROKES_7_" fill="none" stroke="#33CC00" stroke-width="10" stroke-linecap="round" d="
						M786.602,490.2v22.502"/>
				</g>
			</g>
			<g transform="matrix( 0.586090087890625, 0, 0, 0.40118408203125, -436.05,-198.85) ">
				<g transform="matrix( 1.706207275390625, 0, 0, 2.49261474609375, 743.95,495.65) ">
					<path id="_________1_0_Layer0_2_1_STROKES_7_" fill="none" stroke="#33CC00" stroke-width="10" stroke-linecap="round" d="
						M825.401,508.341l-5.65,13.301"/>
				</g>
			</g>
		</g>
		<g transform="matrix( 1, 0, 0, 1, 161.45,918.3) ">
			<g transform="matrix( 0.586090087890625, 0, 0, 0.40118408203125, -439.4,-200.75) ">
				<g transform="matrix( 1.706207275390625, 0, 0, 2.49261474609375, 749.7,500.35) ">
					<path id="_________1_0_Layer0_0_1_STROKES_8_" fill="none" stroke="#33CC00" stroke-width="10" stroke-linecap="round" d="
						M749.736,506.656l8.15,17.3"/>
				</g>
			</g>
			<g transform="matrix( 0.586090087890625, 0, 0, 0.40118408203125, -436.05,-196.7) ">
				<g transform="matrix( 1.706207275390625, 0, 0, 2.49261474609375, 743.95,490.25) ">
					<path id="_________1_0_Layer0_1_1_STROKES_8_" fill="none" stroke="#33CC00" stroke-width="10" stroke-linecap="round" d="
						M786.602,490.201v22.502"/>
				</g>
			</g>
			<g transform="matrix( 0.586090087890625, 0, 0, 0.40118408203125, -436.05,-198.85) ">
				<g transform="matrix( 1.706207275390625, 0, 0, 2.49261474609375, 743.95,495.65) ">
					<path id="_________1_0_Layer0_2_1_STROKES_8_" fill="none" stroke="#33CC00" stroke-width="10" stroke-linecap="round" d="
						M825.402,508.342l-5.65,13.3"/>
				</g>
			</g>
		</g>
		<g transform="matrix( 1, 0, 0, 1, 213.2,578.95) ">
			<g transform="matrix( 0.586090087890625, 0, 0, 0.40118408203125, -439.4,-200.75) ">
				<g transform="matrix( 1.706207275390625, 0, 0, 2.49261474609375, 749.7,500.35) ">
					<path id="_________1_0_Layer0_0_1_STROKES_9_" fill="none" stroke="#33CC00" stroke-width="10" stroke-linecap="round" d="
						M749.736,506.657l8.15,17.3"/>
				</g>
			</g>
			<g transform="matrix( 0.586090087890625, 0, 0, 0.40118408203125, -436.05,-196.7) ">
				<g transform="matrix( 1.706207275390625, 0, 0, 2.49261474609375, 743.95,490.25) ">
					<path id="_________1_0_Layer0_1_1_STROKES_9_" fill="none" stroke="#33CC00" stroke-width="10" stroke-linecap="round" d="
						M786.602,490.202v22.499"/>
				</g>
			</g>
			<g transform="matrix( 0.586090087890625, 0, 0, 0.40118408203125, -436.05,-198.85) ">
				<g transform="matrix( 1.706207275390625, 0, 0, 2.49261474609375, 743.95,495.65) ">
					<path id="_________1_0_Layer0_2_1_STROKES_9_" fill="none" stroke="#33CC00" stroke-width="10" stroke-linecap="round" d="
						M825.402,508.343l-5.65,13.3"/>
				</g>
			</g>
		</g>
		<g transform="matrix( 1, 0, 0, 1, 949.85,749.9) ">
			<g transform="matrix( 0.586090087890625, 0, 0, 0.40118408203125, -439.4,-200.75) ">
				<g transform="matrix( 1.706207275390625, 0, 0, 2.49261474609375, 749.7,500.35) ">
					<path id="_________1_0_Layer0_0_1_STROKES_10_" fill="none" stroke="#33CC00" stroke-width="10" stroke-linecap="round" d="
						M749.737,506.655l8.15,17.3"/>
				</g>
			</g>
			<g transform="matrix( 0.586090087890625, 0, 0, 0.40118408203125, -436.05,-196.7) ">
				<g transform="matrix( 1.706207275390625, 0, 0, 2.49261474609375, 743.95,490.25) ">
					<path id="_________1_0_Layer0_1_1_STROKES_10_" fill="none" stroke="#33CC00" stroke-width="10" stroke-linecap="round" d="
						M786.601,490.202v22.499"/>
				</g>
			</g>
			<g transform="matrix( 0.586090087890625, 0, 0, 0.40118408203125, -436.05,-198.85) ">
				<g transform="matrix( 1.706207275390625, 0, 0, 2.49261474609375, 743.95,495.65) ">
					<path id="_________1_0_Layer0_2_1_STROKES_10_" fill="none" stroke="#33CC00" stroke-width="10" stroke-linecap="round" d="
						M825.401,508.343l-5.65,13.298"/>
				</g>
			</g>
		</g>
		<g transform="matrix( 1, 0, 0, 1, 1098.7,948.8) ">
			<g transform="matrix( 0.586090087890625, 0, 0, 0.40118408203125, -439.4,-200.75) ">
				<g transform="matrix( 1.706207275390625, 0, 0, 2.49261474609375, 749.7,500.35) ">
					<path id="_________1_0_Layer0_0_1_STROKES_11_" fill="none" stroke="#33CC00" stroke-width="10" stroke-linecap="round" d="
						M749.736,506.656l8.15,17.3"/>
				</g>
			</g>
			<g transform="matrix( 0.586090087890625, 0, 0, 0.40118408203125, -436.05,-196.7) ">
				<g transform="matrix( 1.706207275390625, 0, 0, 2.49261474609375, 743.95,490.25) ">
					<path id="_________1_0_Layer0_1_1_STROKES_11_" fill="none" stroke="#33CC00" stroke-width="10" stroke-linecap="round" d="
						M786.601,490.201v22.502"/>
				</g>
			</g>
			<g transform="matrix( 0.586090087890625, 0, 0, 0.40118408203125, -436.05,-198.85) ">
				<g transform="matrix( 1.706207275390625, 0, 0, 2.49261474609375, 743.95,495.65) ">
					<path id="_________1_0_Layer0_2_1_STROKES_11_" fill="none" stroke="#33CC00" stroke-width="10" stroke-linecap="round" d="
						M825.401,508.342l-5.649,13.3"/>
				</g>
			</g>
		</g>
		<g transform="matrix( 1, 0, 0, 1, 479.85,616.95) ">
			<g transform="matrix( 1, 0, 0, 1, -521.2,-474) ">
				<g>
					<path id="_________2_0_Layer0_0_1_STROKES" fill="none" stroke="#33CC00" stroke-width="10" stroke-linecap="round" d="
						M521.2,484l1.85,4.35"/>
				</g>
			</g>
			<g transform="matrix( 1, 0, 0, 1, -521.2,-474) ">
				<g>
					<path id="_________2_0_Layer0_1_1_STROKES" fill="none" stroke="#33CC00" stroke-width="10" stroke-linecap="round" d="
						M539.95,474v7.8"/>
				</g>
			</g>
			<g transform="matrix( 1, 0, 0, 1, -521.2,-474) ">
				<g>
					<path id="_________2_0_Layer0_2_1_STROKES" fill="none" stroke="#33CC00" stroke-width="10" stroke-linecap="round" d="
						M555.3,481.5l1.25,6.25"/>
				</g>
			</g>
			<g transform="matrix( 1, 0, 0, 1, -521.2,-474) ">
				<g>
					<path id="_________2_0_Layer0_3_1_STROKES" fill="none" stroke="#33CC00" stroke-width="10" stroke-linecap="round" d="
						M581.55,484.3l-5,4.7"/>
				</g>
			</g>
		</g>
		<g transform="matrix( 1, 0, 0, 1, 1277.05,642) ">
			<g transform="matrix( 1, 0, 0, 1, -521.2,-474) ">
				<g>
					<path id="_________2_0_Layer0_0_1_STROKES_1_" fill="none" stroke="#33CC00" stroke-width="10" stroke-linecap="round" d="
						M521.2,484l1.851,4.35"/>
				</g>
			</g>
			<g transform="matrix( 1, 0, 0, 1, -521.2,-474) ">
				<g>
					<path id="_________2_0_Layer0_1_1_STROKES_1_" fill="none" stroke="#33CC00" stroke-width="10" stroke-linecap="round" d="
						M539.95,474v7.8"/>
				</g>
			</g>
			<g transform="matrix( 1, 0, 0, 1, -521.2,-474) ">
				<g>
					<path id="_________2_0_Layer0_2_1_STROKES_1_" fill="none" stroke="#33CC00" stroke-width="10" stroke-linecap="round" d="
						M555.3,481.5l1.25,6.25"/>
				</g>
			</g>
			<g transform="matrix( 1, 0, 0, 1, -521.2,-474) ">
				<g>
					<path id="_________2_0_Layer0_3_1_STROKES_1_" fill="none" stroke="#33CC00" stroke-width="10" stroke-linecap="round" d="
						M581.55,484.3l-5,4.7"/>
				</g>
			</g>
		</g>
		<g transform="matrix( 1, 0, 0, 1, 1245.6,839.05) ">
			<g transform="matrix( 1, 0, 0, 1, -521.2,-474) ">
				<g>
					<path id="_________2_0_Layer0_0_1_STROKES_2_" fill="none" stroke="#33CC00" stroke-width="10" stroke-linecap="round" d="
						M521.201,484l1.85,4.351"/>
				</g>
			</g>
			<g transform="matrix( 1, 0, 0, 1, -521.2,-474) ">
				<g>
					<path id="_________2_0_Layer0_1_1_STROKES_2_" fill="none" stroke="#33CC00" stroke-width="10" stroke-linecap="round" d="
						M539.951,474v7.8"/>
				</g>
			</g>
			<g transform="matrix( 1, 0, 0, 1, -521.2,-474) ">
				<g>
					<path id="_________2_0_Layer0_2_1_STROKES_2_" fill="none" stroke="#33CC00" stroke-width="10" stroke-linecap="round" d="
						M555.3,481.5l1.25,6.25"/>
				</g>
			</g>
			<g transform="matrix( 1, 0, 0, 1, -521.2,-474) ">
				<g>
					<path id="_________2_0_Layer0_3_1_STROKES_2_" fill="none" stroke="#33CC00" stroke-width="10" stroke-linecap="round" d="
						M581.55,484.299l-5,4.7"/>
				</g>
			</g>
		</g>
		<g transform="matrix( 1, 0, 0, 1, 710.8,839.05) ">
			<g transform="matrix( 1, 0, 0, 1, -521.2,-474) ">
				<g>
					<path id="_________2_0_Layer0_0_1_STROKES_3_" fill="none" stroke="#33CC00" stroke-width="10" stroke-linecap="round" d="
						M521.2,484l1.851,4.351"/>
				</g>
			</g>
			<g transform="matrix( 1, 0, 0, 1, -521.2,-474) ">
				<g>
					<path id="_________2_0_Layer0_1_1_STROKES_3_" fill="none" stroke="#33CC00" stroke-width="10" stroke-linecap="round" d="
						M539.95,474v7.8"/>
				</g>
			</g>
			<g transform="matrix( 1, 0, 0, 1, -521.2,-474) ">
				<g>
					<path id="_________2_0_Layer0_2_1_STROKES_3_" fill="none" stroke="#33CC00" stroke-width="10" stroke-linecap="round" d="
						M555.3,481.5l1.25,6.25"/>
				</g>
			</g>
			<g transform="matrix( 1, 0, 0, 1, -521.2,-474) ">
				<g>
					<path id="_________2_0_Layer0_3_1_STROKES_3_" fill="none" stroke="#33CC00" stroke-width="10" stroke-linecap="round" d="
						M581.55,484.299l-5,4.7"/>
				</g>
			</g>
		</g>
		<g transform="matrix( 1, 0, 0, 1, 60.6,526.45) ">
			<g transform="matrix( 0.586090087890625, 0, 0, 0.40118408203125, -439.4,-200.75) ">
				<g transform="matrix( 1.706207275390625, 0, 0, 2.49261474609375, 749.7,500.35) ">
					
						<path id="_________3_0_Layer0_0_MEMBER_0_1_STROKES" fill="none" stroke="#8FD646" stroke-width="10" stroke-linecap="round" d="
						M749.737,506.657l8.15,17.3"/>
				</g>
			</g>
			<g transform="matrix( 0.586090087890625, 0, 0, 0.40118408203125, -436.05,-196.7) ">
				<g transform="matrix( 1.706207275390625, 0, 0, 2.49261474609375, 743.95,490.25) ">
					
						<path id="_________3_0_Layer0_0_MEMBER_1_1_STROKES" fill="none" stroke="#8FD646" stroke-width="10" stroke-linecap="round" d="
						M786.601,490.201v22.499"/>
				</g>
			</g>
			<g transform="matrix( 0.586090087890625, 0, 0, 0.40118408203125, -436.05,-198.85) ">
				<g transform="matrix( 1.706207275390625, 0, 0, 2.49261474609375, 743.95,495.65) ">
					
						<path id="_________3_0_Layer0_0_MEMBER_2_1_STROKES" fill="none" stroke="#8FD646" stroke-width="10" stroke-linecap="round" d="
						M825.401,508.343l-5.65,13.3"/>
				</g>
			</g>
		</g>
		<g transform="matrix( 1, 0, 0, 1, 1865.3,526.45) ">
			<g transform="matrix( 0.586090087890625, 0, 0, 0.40118408203125, -439.4,-200.75) ">
				<g transform="matrix( 1.706207275390625, 0, 0, 2.49261474609375, 749.7,500.35) ">
					
						<path id="_________3_0_Layer0_0_MEMBER_0_1_STROKES_1_" fill="none" stroke="#8FD646" stroke-width="10" stroke-linecap="round" d="
						M749.735,506.657l8.151,17.3"/>
				</g>
			</g>
			<g transform="matrix( 0.586090087890625, 0, 0, 0.40118408203125, -436.05,-196.7) ">
				<g transform="matrix( 1.706207275390625, 0, 0, 2.49261474609375, 743.95,490.25) ">
					
						<path id="_________3_0_Layer0_0_MEMBER_1_1_STROKES_1_" fill="none" stroke="#8FD646" stroke-width="10" stroke-linecap="round" d="
						M786.602,490.201v22.499"/>
				</g>
			</g>
			<g transform="matrix( 0.586090087890625, 0, 0, 0.40118408203125, -436.05,-198.85) ">
				<g transform="matrix( 1.706207275390625, 0, 0, 2.49261474609375, 743.95,495.65) ">
					
						<path id="_________3_0_Layer0_0_MEMBER_2_1_STROKES_1_" fill="none" stroke="#8FD646" stroke-width="10" stroke-linecap="round" d="
						M825.402,508.343l-5.65,13.3"/>
				</g>
			</g>
		</g>
	</g>
	<g transform="matrix( 0.64483642578125, 0, 0, 0.64483642578125, 16.55,93.5) ">
		<g transform="matrix( 1.0534515380859375, 0, 0, 1.31146240234375, -57.8,-134.65) ">
			<g>
				<g id="___0_Layer3_0_FILL">
					<path fill="#FFFFFF" d="M1747.165,558.843V339.677h-607.537v219.166H1747.165z"/>
				</g>
			</g>
		</g>
		<g transform="matrix( 1.0534515380859375, 0, 0, 1.5713043212890625, -56.1,-238.25) ">
			<g>
				<g id="___0_Layer3_1_FILL">
					<path fill="#6699CC" d="M1752.563,532.961V513.51H1130.65v19.451H1752.563z"/>
				</g>
			</g>
		</g>
		<g transform="matrix( 1.0534515380859375, 0, 0, 1, -24.8,-42) ">
			<g>
				<g id="___0_Layer3_2_FILL">
					<path fill="#FF9933" d="M1726.885,316.191c0-8.886-2.302-16.475-6.902-22.766c-4.556-6.27-10.069-9.404-16.541-9.404h-581.828
						c-6.472,0-11.997,3.134-16.575,9.404c-4.577,6.291-6.867,13.881-6.867,22.766v60.99h628.714V316.191z"/>
				</g>
			</g>
		</g>
		<g transform="matrix( 1.0534515380859375, 0, 0, 1.3388671875, 26.5,33.75) ">
			<g transform="matrix( 1, 0, 0, 1, -80.05,-126.35) ">
				<g>
					<g id="__0_Layer0_0_FILL">
						
							<linearGradient id="SVGID_4_" gradientUnits="userSpaceOnUse" x1="1361.6868" y1="721.2671" x2="1422.728" y2="660.4964" gradientTransform="matrix(0.6793 0 0 -0.8634 291.9935 1005.3558)">
							<stop  offset="0" style="stop-color:#00CCFF"/>
							<stop  offset="1" style="stop-color:#0099CC"/>
						</linearGradient>
						<path fill="url(#SVGID_4_)" d="M1332.553,442.229v-58.386c0-9.02-4.51-13.531-13.531-13.531h-143.022
							c-9.021,0-13.531,4.51-13.531,13.531v58.386c0,9.021,4.51,13.531,13.531,13.531h143.022
							C1328.043,455.76,1332.553,451.249,1332.553,442.229z"/>
					</g>
				</g>
			</g>
			<g transform="matrix( 0.83941650390625, 0.5760498046875, -0.5760498046875, 0.83941650390625, 304.25,106.95) ">
				<g>
					<g id="__0_Layer0_1_FILL">
						<path fill="#99FFFF" d="M846.43-400.271l-4.939-7.036l-20.534,102.835l9.236-6.461L846.43-400.271z"/>
					</g>
				</g>
			</g>
			<g transform="matrix( 0.929779052734375, 0, 0, 0.929779052734375, -59.7,-111.45) ">
				<g>
					<g id="__0_Layer0_2_FILL">
						<path fill="#99FFFF" d="M1404.882,411.469c0-1.105-0.091-2.131-0.271-3.078l-59.942,59.976h49.488
							c7.15,0,10.724-3.575,10.724-10.724V411.469z"/>
					</g>
				</g>
			</g>
			<g transform="matrix( -0.929779052734375, 0, 0, -0.929779052734375, 312.05,238.35) ">
				<g>
					<g id="__0_Layer0_3_FILL">
						<path fill="#99FFFF" d="M-835.667-69.158c0-1.105-0.09-2.132-0.271-3.078l-59.942,59.975h49.49
							c7.15,0,10.723-3.575,10.723-10.723V-69.158z"/>
					</g>
				</g>
			</g>
		</g>
		<g transform="matrix( 1.0534515380859375, 0, 0, 1.3388671875, 333.45,33.75) ">
			<g transform="matrix( 1, 0, 0, 1, -80.05,-126.35) ">
				<g>
					<g id="__0_Layer0_0_FILL_1_">
						
							<linearGradient id="SVGID_5_" gradientUnits="userSpaceOnUse" x1="931.5693" y1="721.2659" x2="992.6105" y2="660.4954" gradientTransform="matrix(0.6793 0 0 -0.8634 489.9263 1005.3558)">
							<stop  offset="0" style="stop-color:#00CCFF"/>
							<stop  offset="1" style="stop-color:#0099CC"/>
						</linearGradient>
						<path fill="url(#SVGID_5_)" d="M1238.306,442.229v-58.386c0-9.02-4.511-13.531-13.532-13.531h-143.02
							c-9.019,0-13.531,4.51-13.531,13.531v58.386c0,9.021,4.511,13.531,13.531,13.531h143.02
							C1233.795,455.76,1238.306,451.249,1238.306,442.229z"/>
					</g>
				</g>
			</g>
			<g transform="matrix( 0.83941650390625, 0.5760498046875, -0.5760498046875, 0.83941650390625, 304.25,106.95) ">
				<g>
					<g id="__0_Layer0_1_FILL_1_">
						<path fill="#99FFFF" d="M770.099-347.889l-4.939-7.035L744.628-252.09l9.236-6.461L770.099-347.889z"/>
					</g>
				</g>
			</g>
			<g transform="matrix( 0.929779052734375, 0, 0, 0.929779052734375, -59.7,-111.45) ">
				<g>
					<g id="__0_Layer0_2_FILL_1_">
						<path fill="#99FFFF" d="M1303.518,411.469c0-1.105-0.09-2.131-0.271-3.078l-59.943,59.976h49.49
							c7.149,0,10.724-3.575,10.724-10.724V411.469z"/>
					</g>
				</g>
			</g>
			<g transform="matrix( -0.929779052734375, 0, 0, -0.929779052734375, 312.05,238.35) ">
				<g>
					<g id="__0_Layer0_3_FILL_1_">
						<path fill="#99FFFF" d="M-734.303-69.158c0-1.105-0.091-2.132-0.271-3.078l-59.942,59.975h49.488
							c7.151,0,10.724-3.575,10.724-10.723V-69.158z"/>
					</g>
				</g>
			</g>
		</g>
		<g transform="matrix( 1.0534515380859375, 0, 0, 1.3388671875, 632.55,33.75) ">
			<g transform="matrix( 1, 0, 0, 1, -80.05,-126.35) ">
				<g>
					<g id="__0_Layer0_0_FILL_2_">
						
							<linearGradient id="SVGID_6_" gradientUnits="userSpaceOnUse" x1="512.4529" y1="721.2682" x2="573.494" y2="660.4977" gradientTransform="matrix(0.6793 0 0 -0.8634 682.7972 1005.3558)">
							<stop  offset="0" style="stop-color:#00CCFF"/>
							<stop  offset="1" style="stop-color:#0099CC"/>
						</linearGradient>
						<path fill="url(#SVGID_6_)" d="M1146.468,442.229v-58.386c0-9.02-4.508-13.531-13.529-13.531H989.917
							c-9.021,0-13.532,4.51-13.532,13.531v58.386c0,9.021,4.511,13.531,13.532,13.531h143.022
							C1141.96,455.76,1146.468,451.249,1146.468,442.229z"/>
					</g>
				</g>
			</g>
			<g transform="matrix( 0.83941650390625, 0.5760498046875, -0.5760498046875, 0.83941650390625, 304.25,106.95) ">
				<g>
					<g id="__0_Layer0_1_FILL_2_">
						<path fill="#99FFFF" d="M695.723-296.848l-4.939-7.035L670.25-201.048l9.236-6.461L695.723-296.848z"/>
					</g>
				</g>
			</g>
			<g transform="matrix( 0.929779052734375, 0, 0, 0.929779052734375, -59.7,-111.45) ">
				<g>
					<g id="__0_Layer0_2_FILL_2_">
						<path fill="#99FFFF" d="M1204.745,411.469c0-1.105-0.091-2.131-0.271-3.078l-59.942,59.976h49.488
							c7.151,0,10.724-3.575,10.724-10.724V411.469z"/>
					</g>
				</g>
			</g>
			<g transform="matrix( -0.929779052734375, 0, 0, -0.929779052734375, 312.05,238.35) ">
				<g>
					<g id="__0_Layer0_3_FILL_2_">
						<path fill="#99FFFF" d="M-635.53-69.158c0-1.105-0.09-2.132-0.269-3.078l-59.943,59.975h49.49
							c7.148,0,10.723-3.575,10.723-10.723V-69.158z"/>
					</g>
				</g>
			</g>
		</g>
		<g transform="matrix( 1.0534515380859375, 0, 0, 0.33612060546875, -56.1,207.8) ">
			<g>
				<g id="___0_Layer3_6_FILL">
					<path fill="#89B7E5" d="M1752.563,1073.376v-19.453H1130.65v19.453H1752.563z"/>
				</g>
			</g>
		</g>
		<g transform="matrix( 0.5294189453125, 0, 0, 0.67901611328125, 449.65,2.05) ">
			<g>
				<g id="___0_Layer1_0_FILL">
					<path fill="#D7EBFF" d="M2114.533,710.131V497.458h-13.158v212.673H2114.533z"/>
				</g>
			</g>
		</g>
		<g transform="matrix( 0.5294189453125, 0, 0, 0.67901611328125, 144.1,2.05) ">
			<g>
				<g id="___0_Layer1_1_FILL">
					<path fill="#D7EBFF" d="M2301.215,710.131V497.458h-13.159v212.673H2301.215z"/>
				</g>
			</g>
		</g>
		<g transform="matrix( 0, 0.5025634765625, -2.8603973388671875, 0, 919.8,72.75) ">
			<g>
				<g id="___0_Layer1_2_FILL">
					<path fill="#D7EBFF" d="M844.069-83.637v-212.671h-13.16v212.671H844.069z"/>
				</g>
			</g>
		</g>
		<g transform="matrix( 0, 1.02325439453125, -3.1150054931640625, 0, 960.05,-335) ">
			<g>
				<g id="___0_Layer1_3_FILL">
					<path fill="#CC6600" d="M655.008-55.131v-212.672h-13.16v212.672H655.008z"/>
				</g>
			</g>
		</g>
		<g transform="matrix( 1.0534515380859375, 0, 0, 1, -24.8,-97.15) ">
			<g>
				<g id="___0_Layer1_4_FILL">
					<path fill="#FFCC66" d="M1703.442,350.977c6.472,0,11.985,3.134,16.541,9.404c4.336,5.931,6.626,13.011,6.867,21.244
						l0.035-10.622c0-8.886-2.302-16.475-6.902-22.766c-4.556-6.269-10.069-9.404-16.541-9.404h-581.829
						c-6.472,0-11.997,3.135-16.575,9.404c-4.577,6.292-6.867,13.881-6.867,22.766v10.622c0.263-8.231,2.553-15.313,6.867-21.244
						c4.579-6.27,10.103-9.404,16.575-9.404H1703.442z"/>
				</g>
			</g>
		</g>
		<g transform="matrix( 0.727325439453125, 0, 0, 0.727325439453125, 253.2,110) ">
			<g>
				<g id="___0_Layer0_0_MEMBER_0_FILL">
					<path fill="#CC6600" d="M2051.182,568.991c0-6.991-3.494-10.486-10.486-10.486h-237.637c-6.992,0-10.486,3.495-10.486,10.486
						v51.586c0,6.99,3.494,10.486,10.486,10.486h237.637c6.992,0,10.486-3.496,10.486-10.486V568.991z"/>
				</g>
			</g>
		</g>
		<g transform="matrix( 0.8348236083984375, 0, 0, 0.4958648681640625, 144.35,188.75) ">
			<g>
				<g id="___0_Layer0_0_MEMBER_1_FILL">
					<path fill="#666666" d="M1719.355,762.33c-4.026-2.645-8.049-2.645-12.075,0v64.202h12.075V762.33z"/>
				</g>
			</g>
		</g>
		<g transform="matrix( 0.8348236083984375, 0, 0, 0.4958648681640625, 365.8,188.75) ">
			<g>
				<g id="___0_Layer0_0_MEMBER_2_FILL">
					<path fill="#666666" d="M1633.554,762.33c-3.868-2.723-7.893-2.723-12.076,0v64.202h12.076V762.33z"/>
				</g>
			</g>
		</g>
		<g transform="matrix( 0.727325439453125, 0, 0, 0.727325439453125, 253.4,102.5) ">
			<g>
				<g id="___0_Layer0_0_MEMBER_3_FILL">
					<path fill="#FFCC00" d="M2051.092,572.326c0-6.991-3.494-10.486-10.486-10.486h-237.637c-6.99,0-10.486,3.495-10.486,10.486
						v51.587c0,6.99,3.496,10.486,10.486,10.486h237.637c6.992,0,10.486-3.496,10.486-10.486V572.326z"/>
				</g>
			</g>
		</g>
		<g transform="matrix( 0.7522735595703125, 0, 0, 0.7522735595703125, 391.5,278.2) ">
			<g>
				<g id="___0_Layer0_0_MEMBER_4_FILL">
					<path fill="#CC6600" d="M1633.005,343.938h7.07c1.602,0,2.402-0.777,2.402-2.335c0-1.532-0.799-2.299-2.402-2.299h-7.07v-7.205
						c0-0.811-0.238-1.442-0.709-1.895c-0.497-0.517-1.141-0.776-1.931-0.776c-0.787,0-1.397,0.259-1.826,0.776
						c-0.473,0.497-0.711,1.127-0.711,1.895v7.205h-6.09c-0.608,0-1.093,0.214-1.454,0.643c-0.406,0.427-0.61,0.981-0.61,1.656
						c0,1.558,0.666,2.335,1.999,2.335h6.154v11.805c0,2.661,0.757,4.68,2.267,6.056c1.377,1.307,3.247,1.962,5.615,1.962
						c1.713,0,3.497-0.418,5.345-1.251c2.279-0.992,3.418-2.21,3.418-3.653c0-0.564-0.205-1.084-0.61-1.556
						c-0.407-0.474-0.87-0.712-1.387-0.712c-0.473,0-1.343,0.406-2.605,1.22c-1.24,0.812-2.345,1.217-3.314,1.217
						c-2.37,0-3.553-1.095-3.553-3.282V343.938 M1669.302,340.082c-2.009-1.151-4.588-1.726-7.747-1.726
						c-9.448,0-14.173,1.793-14.173,5.379c0,0.609,0.201,1.117,0.608,1.522c0.451,0.43,0.96,0.643,1.524,0.643
						c0.562,0,2.074-0.462,4.532-1.388c2.504-0.946,4.531-1.419,6.088-1.419c1.828,0,3.36,0.292,4.6,0.88
						c1.625,0.766,2.458,1.939,2.504,3.517c-4.036,0.203-6.968,0.384-8.795,0.543c-3.654,0.293-6.335,0.833-8.051,1.624
						c-2.843,1.285-4.262,3.426-4.262,6.426c0,5.074,3.72,7.613,11.163,7.613c2.186,0,4.002-0.204,5.446-0.609
						c1.556-0.451,3.179-1.252,4.872-2.404c0.835,2.009,2.21,3.013,4.127,3.013c0.968,0,1.816-0.283,2.536-0.848
						c0.721-0.564,1.083-1.318,1.083-2.266c0-0.021-0.395-0.958-1.184-2.808c-0.789-1.916-1.186-3.415-1.186-4.498v-6.664
						C1672.988,343.701,1671.76,341.524,1669.302,340.082 M1667.238,352.328v4.363c-3.293,1.51-6.349,2.267-9.168,2.267
						c-3.72,0-5.58-0.969-5.58-2.909c0-1.94,2.255-3.102,6.764-3.485C1661.128,352.408,1663.787,352.328,1667.238,352.328
						 M1689.598,330.204c-0.497-0.517-1.137-0.776-1.929-0.776c-0.789,0-1.397,0.259-1.826,0.776
						c-0.475,0.497-0.711,1.127-0.711,1.895v7.205h-6.09c-0.608,0-1.093,0.214-1.453,0.643c-0.407,0.427-0.61,0.981-0.61,1.656
						c0,1.558,0.666,2.335,1.995,2.335h6.158v11.805c0,2.661,0.755,4.68,2.267,6.056c1.375,1.307,3.247,1.962,5.615,1.962
						c1.713,0,3.495-0.418,5.345-1.251c2.277-0.992,3.416-2.21,3.416-3.653c0-0.564-0.203-1.084-0.608-1.556
						c-0.407-0.474-0.87-0.712-1.387-0.712c-0.475,0-1.343,0.406-2.605,1.22c-1.24,0.812-2.347,1.217-3.316,1.217
						c-2.367,0-3.551-1.095-3.551-3.282v-11.805h7.07c1.6,0,2.402-0.777,2.402-2.335c0-1.532-0.801-2.299-2.402-2.299h-7.07v-7.205
						C1690.309,331.288,1690.071,330.656,1689.598,330.204 M1708.032,338.493c-1.757,0-2.637,0.845-2.637,2.537v20.162
						c0,1.714,0.88,2.57,2.637,2.57c1.715,0,2.573-0.856,2.573-2.57v-20.162C1710.605,339.337,1709.748,338.493,1708.032,338.493
						 M1738.614,341.774c-2.82-2.279-6.1-3.418-9.844-3.418c-3.789,0-7.08,1.139-9.876,3.418c-2.955,2.412-4.433,5.479-4.433,9.2
						c0,3.699,1.478,6.777,4.433,9.235c2.796,2.322,6.088,3.485,9.876,3.485c3.72,0,6.992-1.163,9.81-3.485
						c2.953-2.458,4.431-5.536,4.431-9.235C1743.011,347.253,1741.545,344.186,1738.614,341.774 M1728.77,343.057
						c2.345,0,4.375,0.711,6.088,2.132c1.804,1.601,2.708,3.541,2.708,5.819c0,2.344-0.87,4.273-2.605,5.785
						c-1.782,1.533-3.845,2.299-6.19,2.299c-2.392,0-4.455-0.756-6.19-2.266c-1.782-1.534-2.671-3.474-2.671-5.818
						c0-2.278,0.9-4.218,2.706-5.819C1724.327,343.768,1726.378,343.057,1728.77,343.057 M1772.61,360.445v-11.264
						c0-3.495-0.97-6.179-2.909-8.052c-1.985-1.848-4.749-2.774-8.288-2.774c-2.412,0-4.308,0.26-5.683,0.78
						c-1.647,0.722-3.134,2.029-4.465,3.922c0-1.644-0.091-2.751-0.27-3.316c-0.338-0.923-1.073-1.386-2.198-1.386
						c-1.939,0-2.909,0.902-2.909,2.707v19.113c0,2.391,0.89,3.585,2.672,3.585c1.081,0,1.802-0.349,2.164-1.05
						c0.272-0.472,0.407-1.297,0.407-2.467v-9.404c0-2.075,0.811-3.801,2.434-5.176c1.671-1.443,3.69-2.164,6.055-2.164
						c5.188,0,7.781,2.535,7.781,7.61v9.371c0,1.082,0.125,1.838,0.373,2.266c0.362,0.676,1.049,1.015,2.063,1.015
						C1771.684,363.761,1772.61,362.656,1772.61,360.445 M1708.032,326.281c-1.013,0-1.882,0.349-2.603,1.049
						c-0.678,0.721-1.015,1.577-1.015,2.57c0,0.969,0.336,1.816,1.015,2.538c0.721,0.7,1.59,1.049,2.603,1.049
						c0.995,0,1.84-0.349,2.539-1.049c0.699-0.722,1.049-1.568,1.049-2.538c0-0.992-0.35-1.849-1.049-2.57
						C1709.872,326.63,1709.027,326.281,1708.032,326.281 M1600.43,326.247c-4.014,0-7.273,0.609-9.776,1.826
						c-3.406,1.602-5.109,4.184-5.109,7.749c0,4.193,4.656,7.847,13.971,10.958c1.534,0.543,3.068,1.049,4.602,1.524
						c2.321,0.743,4.103,1.511,5.343,2.299c1.669,1.039,2.504,2.11,2.504,3.213c0,3.473-3.316,5.211-9.945,5.211
						c-2.007,0-4.185-0.61-6.531-1.828c-1.306-0.609-3.088-1.668-5.343-3.18c-1.713-1.127-2.796-1.69-3.247-1.69
						c-0.767,0-1.389,0.269-1.862,0.811c-0.495,0.564-0.743,1.218-0.743,1.961c0,0.969,1.172,2.335,3.517,4.095
						c4.036,3.088,8.614,4.633,13.734,4.633c4.759,0,8.435-0.564,11.028-1.692c3.632-1.555,5.446-4.339,5.446-8.354
						c0-2.594-0.789-4.737-2.367-6.428c-1.24-1.309-3.1-2.447-5.58-3.416c-0.159-0.068-2.325-0.789-6.496-2.164
						c-5.007-1.626-7.531-2.448-7.575-2.47c-3-1.264-4.501-2.639-4.501-4.127c0-2.797,2.977-4.194,8.932-4.194
						c1.488,0,3.63,0.516,6.426,1.556c2.774,1.037,4.646,1.556,5.617,1.556c1.939,0,2.907-0.768,2.907-2.3
						c0-1.06-0.449-1.86-1.351-2.403C1610.556,327.294,1606.022,326.247,1600.43,326.247z"/>
				</g>
			</g>
		</g>
	</g>
</g>
<g id="圖層_2">
</g>
</svg>
